<?xml version="1.0" encoding="utf-8"?>
<!-- Generator: Adobe Illustrator 23.0.5, SVG Export Plug-In . SVG Version: 6.00 Build 0)  -->
<svg version="1.1" id="图层_1" xmlns="http://www.w3.org/2000/svg" xmlns:xlink="http://www.w3.org/1999/xlink" x="0px" y="0px"
	 viewBox="0 0 800 800" style="enable-background:new 0 0 800 800;" xml:space="preserve">
<style type="text/css">
	.st0{fill-rule:evenodd;clip-rule:evenodd;fill:url(#SVGID_1_);}
	.st1{fill-rule:evenodd;clip-rule:evenodd;fill:#FFFFFF;}
	.st2{fill:none;}
	.st3{fill:#292345;}
	.st4{fill-rule:evenodd;clip-rule:evenodd;}
</style>
<linearGradient id="SVGID_1_" gradientUnits="userSpaceOnUse" x1="602.8698" y1="241.5985" x2="602.8698" y2="80.1407">
	<stop  offset="0" style="stop-color:#F8B600"/>
	<stop  offset="0.02" style="stop-color:#F8B600"/>
	<stop  offset="0.29" style="stop-color:#EB6700"/>
	<stop  offset="0.53" style="stop-color:#E51711"/>
	<stop  offset="0.68" style="stop-color:#E31312"/>
	<stop  offset="1" style="stop-color:#C7161D"/>
</linearGradient>
<path class="st0" d="M602.87,92C564.84,92,534,122.83,534,160.87c0,38.04,30.84,68.87,68.87,68.87c38.04,0,68.87-30.83,68.87-68.87
	C671.74,122.83,640.91,92,602.87,92z M581.08,126.3c1.55-0.01,3.1,0.07,4.64,0.26c3.82,0.45,7.06,2.05,9.73,4.81
	c1.64,1.67,3.16,3.46,4.67,5.24c0.96,1.13,2.02,2.13,3.3,2.88c0.06,0.03,0.12,0.06,0.17,0.09c0.01,0,0.03-0.01,0.04-0.01
	c-0.01,0-0.01-0.01-0.02-0.01c3.31-4.93,7.64-8.63,13.13-10.94c3.42-1.44,6.98-2.24,10.76-2.3c-2.55,3.99-5.07,7.92-7.59,11.85
	c-0.39,0.63-0.78,1.27-1.17,1.9c-2.93,4.7-5.86,9.39-8.8,14.09c-2.57,4.12-5.16,8.23-7.72,12.36c-1.21,1.95-2.47,3.88-3.89,5.68
	c-0.49,0.61-0.99,1.22-1.56,1.77c0-0.01-0.01-0.01-0.01-0.02c0,0.01,0,0.01-0.01,0.02c-0.85,0.93-1.8,1.75-2.82,2.5
	c-2.48,1.82-5.22,3.03-8.24,3.61c-2.05,0.4-4.12,0.5-6.2,0.22c-0.09-0.01-0.17-0.03-0.3-0.06c0.27-0.43,0.53-0.85,0.79-1.26
	c3.01-4.83,6-9.68,8.95-14.55c1.93-3.19,3.84-6.39,5.76-9.58c0,0.01,0.01,0.01,0.01,0.02c0-0.01,0-0.02,0-0.02
	c-1.87-3.3-3.73-6.6-5.59-9.91c-2.68-4.76-5.36-9.51-8.04-14.27c-0.76-1.36-1.54-2.73-2.3-4.09c-0.04-0.07-0.09-0.12-0.08-0.22
	C579.48,126.3,580.28,126.31,581.08,126.3z M647.27,169.51c-0.1,0.48-0.17,0.97-0.27,1.45c-0.22,1-0.46,2-0.73,2.99
	c-0.33,1.17-0.71,2.33-1.15,3.47c-0.28,0.73-0.57,1.46-0.91,2.17c-0.42,0.89-0.85,1.77-1.32,2.62c-0.73,1.32-1.53,2.6-2.39,3.84
	c-0.6,0.86-1.23,1.7-1.89,2.51c-0.51,0.61-1.03,1.21-1.57,1.81c-0.67,0.74-1.4,1.42-2.1,2.13c-0.7,0.7-1.45,1.33-2.21,1.96
	c-0.86,0.71-1.74,1.4-2.65,2.04c-1.08,0.76-2.19,1.47-3.32,2.14c-0.47,0.28-0.96,0.53-1.45,0.8c-0.76,0.41-1.53,0.8-2.31,1.15
	c-1.04,0.47-2.08,0.92-3.14,1.32c-1.03,0.39-2.07,0.74-3.12,1.05c-1.3,0.39-2.6,0.71-3.93,0.98c-0.52,0.1-1.26,0.26-2.15,0.41
	c-0.6,0.1-0.98,0.15-1.15,0.17c-0.58,0.07-1.05,0.12-1.31,0.14c-0.2,0.02-0.37,0.03-0.71,0.06c0,0-0.53,0.04-0.98,0.07
	c-3.06,0.19-5.27,0.09-5.27,0.09c-0.57-0.02-1.01-0.06-1.49-0.09c-0.34-0.02-1.74-0.14-3.07-0.31c-1.88-0.23-3.72-0.61-5.54-1.08
	c-1.7-0.44-3.36-0.99-5.01-1.62c-1.52-0.58-2.99-1.25-4.44-1.99c-1.36-0.7-2.67-1.47-3.96-2.3c-1.07-0.69-2.09-1.44-3.1-2.2
	c-0.58-0.44-1.12-0.92-1.68-1.39c-0.87-0.74-1.72-1.52-2.52-2.33c-1.08-1.1-2.12-2.24-3.06-3.46c-0.5-0.64-1.01-1.28-1.46-1.95
	c-0.4-0.48-0.72-1.02-1.05-1.54c-0.7-1.09-1.35-2.2-1.94-3.36c-0.65-1.3-1.25-2.61-1.77-3.95c-0.38-1-0.7-2.03-1.01-3.06
	c-0.37-1.19-0.62-2.39-0.87-3.6c-0.18-0.86-0.31-1.74-0.41-2.62c-0.09-0.83-0.12-1.66-0.22-2.48c-0.16-1.36-0.07-2.72-0.07-4.08
	c0.01-0.61,0.08-1.23,0.16-1.84c0.07-0.51,0.11-1.02,0.17-1.54c0.07-0.57,0.17-1.13,0.27-1.69c0.13-0.69,0.27-1.37,0.42-2.05
	c0.14-0.7,0.33-1.38,0.54-2.05c0.23-0.77,0.47-1.55,0.74-2.31c0.35-0.94,0.7-1.88,1.13-2.78c0.3-0.62,0.57-1.26,0.89-1.88
	c0.56-1.05,1.14-2.09,1.78-3.11c0.71-1.12,1.46-2.21,2.27-3.26c0.43-0.56,0.9-1.11,1.36-1.66c0.84-0.99,1.72-1.94,2.65-2.84
	c0.62-0.61,1.29-1.19,1.94-1.78c0.08-0.07,0.19-0.12,0.32-0.2c-0.12,0.27-0.29,0.45-0.43,0.64c-0.81,1.12-1.55,2.29-2.23,3.5
	c-0.4,0.73-0.8,1.46-1.15,2.21c-0.29,0.61-0.55,1.25-0.81,1.88c-0.29,0.69-0.53,1.39-0.77,2.08c-0.37,1.05-0.66,2.13-0.91,3.22
	c-0.3,1.26-0.51,2.53-0.66,3.82c-0.1,0.85-0.17,1.69-0.22,2.54c-0.04,0.88-0.05,1.77-0.02,2.66c0.02,0.76,0.07,1.53,0.15,2.29
	c0.14,1.43,0.35,2.84,0.67,4.24c0.27,1.15,0.56,2.28,0.94,3.4c0.31,0.94,0.66,1.86,1.05,2.77c0.38,0.9,0.8,1.79,1.25,2.65
	c0.78,1.47,1.63,2.89,2.6,4.24c0.72,1,1.47,1.99,2.28,2.92c0.16,0.18,0.37,0.33,0.47,0.57c0.79,0.84,1.58,1.67,2.42,2.46
	c1.92,1.79,3.99,3.4,6.2,4.8c1.79,1.14,3.66,2.13,5.6,3c1.68,0.75,3.41,1.39,5.16,1.94c1.69,0.52,3.41,0.95,5.16,1.25
	c1.15,0.21,2.3,0.37,3.46,0.5c1.33,0.14,2.67,0.22,4.01,0.25c1.21,0.02,2.42,0.01,3.62-0.06c1.25-0.07,2.49-0.19,3.73-0.37
	c1.45-0.2,2.89-0.47,4.32-0.8c2.8-0.66,5.51-1.59,8.13-2.76c3.06-1.37,5.93-3.08,8.6-5.12c1.08-0.82,2.1-1.71,3.1-2.63
	c0.72-0.67,1.41-1.39,2.08-2.11c1.05-1.13,2.01-2.33,2.91-3.57c1.01-1.4,2.88-4.69,3.19-5.29c0.02-0.05,0.15-0.29,0.18-0.27
	C647.3,169.34,647.27,169.48,647.27,169.51z"/>
<path class="st1" d="M671.13,102.75c0,0-6.34-0.67-7.34,2c0,0-2,4.34-7.34,2.67c0,0-5.67-3-6.67,1.67c0,0-1,10.34-12.01,8.67
	c0,0-3.34,0-6.67-3.34c0,0-1.67-2.34-3.34-0.33c0,0-3.67,4.34-9.68,1.34c0,0-4,0.33-6.01-5.01c0,0-2-3.34-3.34,0
	c0,0-2.34,5.01-7.68,0c0,0-2-3.01-5.34-1.67c0,0,1.67-3,7.01-2c0,0,3.67,1,4-5.34c0,0-1.67-6.34,9.01-6.01c0,0,4.67-0.33,6.67-2
	c0,0,8.34-4.68,11.02,2c0,0,1.67,5.01-4.68,7.01c0,0-4.34,1.67-4.34-1.67c0,0,0-3,3.67-2.01c0,0-5.01-3-7.34,1.67
	c0,0-1,6.34,6.67,4.01c0,0,6.01-1,9.35-4.67c0,0,5.34-6.01,10.01-0.67c0,0,4,4.01,5.67,0c0,0,3.34-2.67,7.01,1c0,0,1,2,4.34,1
	C663.79,101.08,668.79,99.74,671.13,102.75z"/>
<path class="st1" d="M638.79,220.85c0,0-7.69-0.81-8.9,2.43c0,0-2.43,5.26-8.9,3.24c0,0-6.88-3.64-8.09,2.02
	c0,0-1.21,12.54-14.56,10.52c0,0-4.05,0-8.09-4.04c0,0-2.02-2.83-4.05-0.4c0,0-4.45,5.26-11.73,1.62c0,0-4.85,0.4-7.28-6.07
	c0,0-2.43-4.04-4.05,0c0,0-2.83,6.07-9.3,0c0,0-2.43-3.64-6.47-2.02c0,0,2.02-3.64,8.49-2.43c0,0,4.45,1.21,4.85-6.47
	c0,0-2.02-7.69,10.93-7.29c0,0,5.66-0.4,8.09-2.43c0,0,10.11-5.66,13.35,2.43c0,0,2.02,6.07-5.66,8.5c0,0-5.26,2.02-5.26-2.02
	c0,0,0-3.65,4.45-2.43c0,0-6.07-3.64-8.9,2.02c0,0-1.21,7.69,8.09,4.85c0,0,7.28-1.21,11.33-5.66c0,0,6.47-7.28,12.13-0.81
	c0,0,4.86,4.86,6.88,0c0,0,4.05-3.23,8.5,1.22c0,0,1.21,2.43,5.26,1.22C629.89,218.83,635.96,217.21,638.79,220.85z"/>
<path class="st1" d="M553.05,167.24c0,0-5.04-0.64-5.88,1.46c0,0-1.67,3.42-5.9,2c0,0-4.46-2.5-5.34,1.2c0,0-0.99,8.22-9.73,6.69
	c0,0-2.66-0.06-5.25-2.78c0,0-1.29-1.89-2.65-0.33c0,0-3,3.39-7.73,0.88c0,0-3.2,0.2-4.69-4.09c0,0-1.53-2.69-2.66-0.06
	c0,0-1.95,3.94-6.11-0.14c0,0-1.54-2.43-4.22-1.43c0,0,1.38-2.36,5.62-1.46c0,0,2.91,0.86,3.29-4.18c0,0-1.21-5.08,7.29-4.62
	c0,0,3.72-0.18,5.35-1.48c0,0,6.73-3.56,8.73,1.8c0,0,1.24,4.01-3.85,5.49c0,0-3.49,1.25-3.42-1.41c0,0,0.05-2.39,2.96-1.53
	c0,0-3.93-2.48-5.88,1.19c0,0-0.91,5.03,5.24,3.31c0,0,4.8-0.69,7.53-3.55c0,0,4.36-4.68,7.99-0.34c0,0,3.11,3.26,4.51,0.1
	c0,0,2.71-2.06,5.57,0.93c0,0,0.76,1.61,3.44,0.87C547.24,165.77,551.24,164.8,553.05,167.24z"/>
<g>
	<path d="M117,494c0.3,1,0.93,2.56,3,5c1.6,1.88,4.46,4.77,9.11,7.32c0,0,0,0,0,0c1.16,1.4,2.6,2.95,4.35,4.52
		c1.96,1.75,3.86,3.11,5.53,4.17c1.67,1,3.33,2,5,3c2.06,1.24,4.13,2.5,6.21,3.79c4.1,2.53,8.11,5.08,12.02,7.62
		c2.45,4.29-0.17,7.61-2.09,11.07c-0.14,1.2,0.46,1.78,1.59,1.97c5.5,0.92,9.19-1.88,12.27-5.95c0.88-1.12,1.88-2.3,2.99-3.5
		c1.02-1.1,2.03-2.1,3-3c0.67-0.33,1.33-0.67,2-1c0.65-0.23,1.34-0.51,2.07-0.85c1.13-0.53,2.1-1.11,2.91-1.66
		c1.58-1.47,2.51-3.21,1.39-5.29c-1.04-1.93-2.78-1.21-4.36-0.8c-3.01-0.01-10.35-0.55-11.04-0.1c0,0.09,0.02,0.17,0.02,0.26
		c-0.02-0.01-0.04-0.02-0.06-0.03c-2.59-0.97-5.72-2.42-9-4.64c-1.93-1.3-3.57-2.64-4.94-3.9c-0.99-1.23-2-2.57-3-4
		c-0.71-1.02-1.38-2.02-2-3c-0.62-0.91-1.27-1.98-1.88-3.22c-0.44-0.9-0.8-1.75-1.09-2.54c0.16-0.29,0.32-0.57,0.48-0.86
		c0.96,0.9,1.95,1.7,3.39,1.01c0.69-0.54,1.34-1.11,1.62-1.98c1.72-0.47,0.9-1.71,0.39-2.86c-0.33-0.29-2.24-1.05-2.86-1.14
		c-1.01-0.97-2.01-1.94-3.02-2.91c0.01-0.62,0.01-1.23,0.02-1.85c1.25-1.83,2.01-3.84,2.12-6.08c0,0,0,0,0,0l0,0c0,0,0,0,0,0
		c-0.01,0-0.03,0.01-0.04,0.01c2.22-4.88,0.05-15.04-0.06-15.26c-0.01-1.58-0.77-2.81-1.79-3.93c0,0,0,0,0,0
		c-0.14-0.58-0.29-1.16-0.43-1.74l0.07-0.04c-2.31-4.43-4.59-1.71-6.87,0.03c0,0,0,0,0,0c0,0,0,0,0,0c-3.01,0.9-3.97,3.1-6.04,4.35
		c-0.78,0.47-2.04,1.01-4,1c-1.33,1-2.67,2-4,3c-0.57,0.38-6.5,7.33-7,10c-0.79,0.11-2.29,0.45-3.62,1.63
		c-1.17,1.03-1.65,2.21-2,3.06c-0.11,0.27-0.55,1.39-0.75,3.35C116.48,489.39,116.26,491.57,117,494z M167.26,539.62
		C167.26,539.61,167.26,539.61,167.26,539.62C167.26,539.61,167.26,539.61,167.26,539.62C167.27,539.61,167.27,539.61,167.26,539.62
		C167.27,539.61,167.27,539.61,167.26,539.62C167.26,539.61,167.26,539.62,167.26,539.62z M173.47,534.66c0.1-0.1,0.21-0.2,0.31-0.3
		C173.79,534.45,173.58,534.65,173.47,534.66z M180.97,529.46L180.97,529.46c0,0,0-0.01,0-0.01c0.01,0.02,0.02,0.04,0.03,0.06
		C181,529.51,180.97,529.46,180.97,529.46z"/>
	<path d="M123.9,294.8c2.1,8.72,6.1,20.55,14.1,44.2c2.2,6.51,5.26,15.39,9,28c3.52,11.88,5.69,20.51,7,31
		c0.99,7.99,1.01,13.22,1,15c-0.04,6.42-0.66,10.98-2,20c-1.48,9.96-2.84,18.72-4,26c0.33-0.44,0.66-0.9,1-1.4c0,0,0.54-0.8,1-1.6
		c1.32-2.24,2.95-9.75,3-10c2.44-11.22,4-22,4-22c1.35-9.35,2.02-14.02,2-18c-0.05-7.81-1.37-13.7-3-21c-0.62-2.77-2.09-7.89-5-18
		c-2.41-8.39-3.62-12.58-5-17c-1.86-5.95-2.82-8.62-6-18c-4.56-13.43-6.83-20.15-8-24c-2.73-9.01-5.18-17.1-7-28
		c-1.53-9.17-2.87-17.19-2-28c0.36-4.48,1.1-12.85,5-23c1.37-3.56,5.12-12.53,13-22c1.86-2.24,7.97-9.33,18-16
		c5.27-3.5,9.38-5.4,15-8c11.05-5.11,19.77-7.64,28-10c1.32-0.38,9.09-2.57,19-4c0,0,11.45-1.63,12,0c0.06,0.17,0.04,0.36-1,2
		c-1.89,2.97-3.95,5.87-6.43,8.36c-3.36,3.38-6.28,7.18-9.57,10.64c-4.09,4.3-10.27,10.78-16,18c-8.56,10.78-13,16.57-11.21,22.09
		c0.99,3.04,4.01,5.35,10.21,9.91c5.12,3.77,9.74,6.35,13,8c5.58,2.54,11.25,5.21,17,8c5.47,2.66,10.8,5.33,16,8
		c2.67,1.67,5.33,3.33,8,5c2.95,4.53,3.15,8.01,3,10c-0.84,10.77-15.29,17.8-26,23c0,0-6.09,3.07-15,6c-3.09,1.02-14.65,3.18-18,5
		c-1.63,0.89-2,1.48-2,2c0,1.14,1.81,1.92,2,2c-0.53-0.51-1.1-1.23-1-2c0.4-2.98,10.52-2.75,24-6c3.96-0.95,8.64-2.64,18-6
		c10.66-3.83,15.82-6.18,20-11c2.67-3.08,3.6-5.62,4-7c1.18-4.02,0.52-7.34,0-10c-0.46-2.35-1.01-5.12-3-8c-1.86-2.69-4-4.07-7-6
		c-1.87-1.21-4.55-2.71-8-4c-3.33-1.67-6.67-3.33-10-5c-1.67-0.67-3.33-1.33-5-2c-3.53-1.57-7.22-3.34-11.03-5.37
		c-5.94-3.16-11.26-6.43-15.97-9.63c-2.97-0.74-5.3-3.06-6-6c-0.75-3.15,0.48-6.49,3.12-8.45c0,0,0,0,0,0
		c1.69-2.5,4.33-6.25,7.88-10.55c1.37-1.66,3.31-3.94,13-14c0,0,5.11-5.31,14-16c0.13-0.15,2.37-2.88,4-7c0.69-1.74,1.25-3.7,1-6
		c-0.09-0.86-0.28-2.03-1-3c-1.69-2.28-5.46-2.15-8-2c-17.21,1-36,7-36,7c-12.35,3.64-13.42,3.95-16,5c-9.38,3.83-15.81,8.15-20,11
		c-6.47,4.4-15.12,11.14-24,21c-2.69,3.92-5.98,9.28-9,16c0,0-3.01,6.69-4.98,13.54C115.1,256.13,121.87,286.35,123.9,294.8z
		 M239.98,300.49C239.99,300.49,239.99,300.49,239.98,300.49c0.01,0.03,0.02,0.06,0.02,0.06c-0.02,0-0.04,0.01-0.06,0.01
		C239.96,300.54,239.97,300.51,239.98,300.49z M216.23,247.47c0.04,0,0.07,0,0.1,0c-0.01,0.02-0.02,0.04-0.03,0.06
		C216.28,247.51,216.25,247.49,216.23,247.47z M246.98,265.51C246.98,265.51,246.98,265.5,246.98,265.51
		C246.98,265.5,246.99,265.51,246.98,265.51C246.99,265.51,246.99,265.51,246.98,265.51C246.99,265.51,246.99,265.51,246.98,265.51
		C246.99,265.51,246.98,265.51,246.98,265.51z M251.06,261.61c-0.02-0.04-0.05-0.06-0.06-0.1c0.03,0,0.05,0,0.08,0
		C251.07,261.54,251.06,261.58,251.06,261.61z M236.89,252.68c0,0-0.01-0.01-0.01-0.01c0.02-0.02,0.03-0.04,0.05-0.06
		C236.91,252.63,236.9,252.66,236.89,252.68z M203.95,238.74c-0.05-0.06-0.1-0.1-0.15-0.16c0,0,0,0,0,0c0,0,0.32-0.16,0.32-0.16
		C204.06,238.53,204,238.64,203.95,238.74z M267,282"/>
	<path d="M154.94,499.37c-0.01,0.01-0.03,0.01-0.04,0.01c-0.01,0-0.01,0.01-0.02,0.01L154.94,499.37z"/>
	<path d="M697,496c-9.43-17.19-25.52-24.9-32-28c-8.16-3.91-19.84-7.67-24-9c-4.11-1.31-7.56-2.31-10-3c1.49-0.66,3-1.32,4.53-1.98
		c1.23-0.53,8-2.72,10.46-3.69c1.86-0.74,3.53-1.54,5.01-2.32c2-1,4-2,6-3c1.91-1.11,4.38-2.73,7-5c0.91-0.79,4.42-3.92,8-9
		c1.58-2.24,3.47-4.96,5-9c1.2-3.17,1.74-5.98,2-8c-1.35-6.38-1.72-8.04-1.76-8.15c-0.01-0.02-0.08-0.41-0.08-0.41
		c-1.27-3.28-3.19-7.28-6.16-11.43c-1.68-2.35-8.93-9.73-12-12c-6.66-4.92-12.74-7.47-17-9c-14.77-5.31-27.12-8.42-35.49-10.25
		c-23.8-5.2-43.52-6.33-71.42-7.63c-9.63-0.45-19.3,0.48-28.89-0.92c0.43-8.06,0.43-8.05,8.59-8.93c0.79-0.09,7.2-0.68,9.49-1.66
		c0.02-0.01,8.32-0.83,12.46-1.24c8.69-2.33,17.77-2.98,26.29-6.04c3.6-0.25,6.94-1.44,10.26-2.74c0,0,0,0,0,0
		c2.3-0.51,24.52-7.73,29.84-10.98c0,0,0,0,0,0l-0.01,0.09c0,0,0,0,0,0c0,0,0,0,0,0l0,0c0,0,0,0,0,0c2.7-0.84,12.03-5.93,13.84-7.3
		c-0.01-1.9-1.14-1.36-2.19-1.01c-2.07-0.57-3.51,1.64-5.54,1.26c-1.06,0.7-6.19,1.77-6.79,2.09c-0.16-0.04-1.55,0.18-2.08,0.21
		c-0.04-0.08-0.08-0.17-0.11-0.27c0.02-0.04,0.03-0.09,0.05-0.13c0.65,0.42,6.05-2.19,6.76-2.96c5.31-3.66,11.38-6.19,16.02-10.85
		c0,0,0,0,0,0c4.4-2.81,15.55-16.43,15.32-16.63c-1.15-0.94-2.16,0.85-3.39,0.42c-0.57,0.35-1.15,0.7-1.72,1.06
		c-2.53,1.76-12.24,6.04-13.06,6.19c-2.13,1.45-10,4.62-10.24,4.79v0c-1.11,0.03-1.6-0.29-1.62-0.86c0.28-0.14,2.31-1.29,2.78-2.05
		c1.62-1.62,9.18-7.02,10.55-8.95c0.71-1.71,0.92-3.07-1.71-2.49c-0.87,0.43-1.7,0.95-2.6,1.27c-11.57,3.98-23.15,7.92-34.73,11.88
		c0,0,0,0,0,0c-1.78,0.38-3.58,0.68-5.34,1.14c-18.52,4.94-37.22,8.96-56.3,11.05c-5.64,0.47-17.22,2.03-17.32,2.25
		c-1.23-0.37-1.92-1.22-2.29-2.54c-0.75-2.67-2.46-10.05-3.12-10.89c-1.14-3.93-2.28-7.86-3.41-11.79l0.03-0.01
		c-0.99-2.89-5.44-14.37-7.17-16.85c-0.87-1.24-2.16-2.33-3.47-0.26c-0.54,1.47,0.79,5.32,0.84,5.98
		c2.07,11.27,1.86,22.71,2.56,34.09c0.07,1.13-3.22,3.19-3.83,3.14c-2.8-0.21-8.51-0.07-16.84,0.31
		c-8.72-0.85-18.96-2.68-30.04-6.37c-4.3-1.43-8.29-3-11.96-4.63c-2.48-1.32-5.19-2.96-8-5c-1.85-1.34-13.25-13.13-15-16
		c-2.18-3.58-3.23-6.68-4-9c-1.1-3.32-1.69-6.25-2.03-8.51c0,0,0,0,0,0c-0.26-1.09,0.72-8.23,2.03-9.49c1.7-1.64,3.92-1.9,5-2
		c2.47-0.23,4.35-0.4,6.46-0.55c2.84-0.2,5.69-0.35,8.54-0.45c8.34-0.29,3.44-0.28,24-1c16.33-0.57,24.5-0.86,32-1
		c8.02-0.15,21.64-0.42,39,0c10.57,0.25,24.14,0.8,40,2c16.65,1.19,30.87,2.67,42,4c26.8,3.2,40.96,6.14,45,7
		c7.05,1.5,12.89,2.94,17,4c6.51,1.51,13.19,3.17,20,5c4.38,1.18,8.67,2.38,12.87,3.62c0.77-0.27,1.76-0.14,2.13-1.15
		c-1.25-1.03-8.02-6.13-10-7.47c-2.07-1.4-13.22-9.96-16-12c-3.09-2.28-16.53-11.65-20-14c-3.28-2.22-19.79-12.54-24.89-15.73
		c0,0-0.02-0.01-0.02-0.01c-3.23-1.94-12.42-7.59-15.09-9.25c-2.18-1.33-4.49-2.66-6.92-3.98C595.6,210.13,585,205,583,204
		c-3.34-1.77-10.91-5.14-19-3c-3.13,0.83-5.84,2.35-7,3c-4.94,2.77-6.56,5.31-10,8c-2.64,2.06-6.75,4.54-13,6
		c-4.21,1.19-10.63,2.46-18.42,1.87c-5.54-0.42-10.15-1.66-13.58-2.87c-3.04-2.11-6.15-4.35-9.3-6.72
		c-4.14-3.11-8.04-6.22-11.7-9.28c-1.04-1.19-2.67-2.74-5-4c-4.64-2.5-9.13-2.23-11-2c-2.07,0.2-4.89,0.71-8,2
		c-4.3,1.79-7.27,4.28-9,6c-1.95,2.42-4.62,5.54-8,9c-4.96,5.08-16.39,14.21-21,17c-1.84,1.12-3.64,2.11-6,3
		c-3.42,1.29-7.12,2.68-9,1c-0.32-0.28-1.55-1.52-1-5c0.38-1.49,1-3.58,2-6c3.03-7.34,7.34-12.25,12-17c8.73-8.91,16.52-15.07,19-17
		c3.09-2.41,15.51-11.99,34.28-22.66c4.82-2.74,8.89-4.88,11.72-6.34c7.38-3.28,11.53-5.01,14-6c0.02-0.01,8.33-3.33,10-4
		c-0.03-0.3,1.13-4.79,1-5c-0.13-0.21-1.19,0.06-5,2c-2.66,0.7-6.83,1.78-12,3c-7.28,1.72-8.17,1.74-13,3
		c-6.48,1.7-11.52,3.4-14.49,4.45c-3.73,1.33-6.5,2.44-8.43,3.25c-3.98,1.67-13.28,5.98-14.03,6.32
		c-26.21,11.79-49.27,27.6-65.86,51.65c-2.29,5.67-4.52,7.12-6.2,7.33c-3.47,0.42-12.83-4.87-16-5c-3.86-0.16-6.82,2.1-8,3
		c-17.68,13.43-36.24,25.67-54,39c-2.9,2.18-5.22,3.86-6.12,4.51c-0.61,1.18-0.4,1.99,1.03,2.24c1.02-0.25,9.13-2.14,12.09-2.75
		c9.6-1.36,19.27-2.69,29-4c11.3-1.52,22.52-2.97,33.67-4.37c0.02,0.01,0.04,0.02,0.06,0.02c-0.16,0.43-0.31,0.9-0.43,1.41
		c-0.47,1.91-0.45,3.62-0.3,4.94c-0.4,5.3-0.39,12.17,1,20c1.92,10.88,5.75,19.35,8.85,24.97c0,0,0,0,0,0
		c2.61,3.49,5.79,7.25,9.61,11.06c2.22,2.22,4.42,4.2,6.54,5.97c2.19,1.69,5.21,3.83,9,6c5.4,3.1,9.84,4.8,13,6
		c3.4,1.29,7.78,2.75,13,4c2.5,0.57,5.92,1.29,10,2c0,0,6.93,1.2,15,2c16.05,1.59,38.81,1.56,41.05,1.55
		c-0.03,3,1.02,6.18-1.37,8.82c0,0,0,0,0,0c-11.64-0.07-23.18,1.33-34.72,2.63c-15.32,1.73-30.6,3.77-45.9,5.67
		c-9.96,1.86-19.92,3.73-29.88,5.59c-0.18-1.36-0.77-2.42-2.16-2.86c-3.16-4.88-8.04-2.82-12.18-2.64
		c-5.46,0.24-3.93,8.86-3.93,8.86c-0.11,0.28-0.12,0.57-0.04,0.86v0c-2.98,0.69-12.65,3.61-14.69,2.69c0,0,0,0,0,0c0,0,0,0,0,0
		c0.1-0.26-0.76-2.46-1.06-3.35c2.16-4.32,0.96-15.35,0.83-16.31c0.42-2.12-1.93-3.07-2.1-4.94c-2.2-1.49-3.89-3.84-3.27-6.15
		c0.53-1.98,6.21-1.61,6.66-1.8c2.43,0.19,3.09-0.75,1.6-2.75c-0.86-1.15-1.96-2.12-2.95-3.16c-0.78-0.82-6.52-4.4-6.97-4.95
		c-7.69-2.59-12.98,2.47-18.88,5.79c-2.71,1.52-0.94,2.55,0.01,3.81c0.87,0.9,7.31,1,6.96,4.16c-0.02,1.31-0.03,2.62-0.05,3.92
		c-1.68,1.67-3.35,3.35-5.03,5.02c0,0,0,0,0,0c-2.68,1.28-6.18,1.9-7.88,3.99c-1.47,1.8-2.99,2.87-4.59,3.43
		c-3.01,1.06-6.48,0.22-8.78-0.58c-11.45-4.02-7.58-0.78-21.69-6.29c-6.8-2.66-11.58-4.96-20-9c-6.16-2.96-10.98-5.44-14-7
		c-6.39-3.3-11.08-5.86-15-8c-8.28-4.53-12.44-6.99-14.98-8.52c-1.9-1.15-2.85-1.72-4.02-2.48c-5.39-3.5-8.69-6.34-9-6
		c-0.1,0.11,0.2,0.55,0.8,1.43c0.64,0.94,1.27,1.61,2.2,2.57c0.93,0.96,1.41,1.43,2,2c0.6,0.58,3.78,3.66,8,7
		c5.75,4.55,12.66,8.79,13,9c9.21,5.62,16.99,9.51,26,14c14.58,7.26,23.29,10.88,26,12c3.61,1.49,6.67,2.67,8.91,3.52
		c0.77,1.14,4.78,3.1,4.78,3.1c1.09,1.5,4.1,0.79,4.11,3.54c-0.66-0.29-1.29-0.27-1.89,0.21c-2.11,2.12-5.34,3.76-4.53,7.42
		c0.58,2.61,2.67,3.96,5.48,3.88c0-0.01,0.01-0.01,0.01-0.02c0,0.01-0.01,0.02-0.01,0.02c0.75,0.33,1.81,0.44,2.21,1.01
		c1.6,2.29,5.82,3.77,2.68,7.71c0,0,0,0,0,0c-12.8,6.4-24.69,13.74-29.48,18.94c-9.81,10.63-12.02,30.59-7.26,50.67
		c9.04,17,19.85,27.86,27,34c4.3,3.69,12.49,10.52,25,16c18.26,8,34.31,8.07,46,8c6.23-0.04,17.9-0.53,32-4
		c12.39-3.05,21.08-7.02,32-12c7.85-3.59,15.12-6.94,24-13c3.83-2.61,9.55-6.56,16-13c1.41-1.41,6.8-6.88,13-16
		c7.59-11.16,11.58-20.69,15-29c5.39-13.1,9.42-22.87,11-34c0.77-5.44,3.21-10.56,4-16c0.27-1.84,0.84-6.35,4.29-8.99
		c0.66-0.5,1.21-0.78,1.7-1.03c3.72-1.9,7.12-1.64,14.01-0.98c4.48,0.43,8,0.79,10,1c11.19,1.22,19.88,2.16,28,3
		c3.11,0.32,9.26,0.95,17,3c5.33,1.41,8.45,2.7,11,4c4.82,2.45,7.93,5.07,9,6c1.72,1.5,3.05,2.91,4,4c0.97,0.98,2.73,3.07,3,6
		c0.28,3.02-1.18,5.28-3,8c-1.1,1.64-3.22,4.5-10,10c-1.94,1.58-4.64,3.67-8,6c-5.11,3.59-9.84,6.56-14,9c-1.25,0.73-6.31,3.47-13,7
		c-3.22,1.7-6.89,3.42-11,5c-3.17,1.22-6.19,2.2-9,3c-8.37,2.63-14.52,4.6-16.32,5.19c-0.43,0.14-1.36,0.46-1.45,1.06
		c-0.05,0.34,0.17,0.75,0.83,1.26c3.52,0.71,7.18,1.53,10.95,2.48c4.94,1.25,9.61,2.6,14,4c2.03,0.7,32.64,15.08,34.58,16.19
		c2.62,1.5,4.81,2.82,6.42,3.81c1.71,1.25,9.23,7.38,11,9c2.13,1.94,4.63,4.58,7,8c1.73,2.51,5.95,14.72,6,17
		c0.05,2.23,0.44,10.86-5.47,17.36c0,0,0,0,0,0c-2.23,2.84-5.34,6.27-9.53,9.64c-4.01,3.22-16.78,10.49-18,11
		c-12.87,5.41-29.75,11.67-50,17c-6.28,1.65-29.66,7.63-63,11c-23.63,2.39-39.79,2.2-72.11,1.82c-36.27-0.42-72.46-2.8-87.89-3.82
		c-1.36-0.09-2.04-0.14-2.87-0.19c-18.05-1.26-35.37-3.25-80.13-10.81c-28.52-4.81-57.84-10.98-58.55-11.13
		c-11.08-2.46-21.75-4.82-34.45-7.87c-1.72-0.41-5.16-1.24-9.96-2.39c-5.97-1.42-9.41-2.23-11.04-2.61c-9.47-2.25-23.67-6.83-24-6
		c-0.4,1.01,19.34,10.96,44,20c16.01,5.87,28.23,9.2,46,14c24.76,6.69,44.69,11.04,54,13c31.5,6.65,47.25,9.97,60,12
		c12.17,1.93,29.08,4.31,29,7c-0.04,1.26-3.79,2.4-6,3c-3.04,0.83-5.42,0.93-10,1c-6.07,0.09-9.11,0.17-12,0c-6.14-0.35-12-1-12-1
		c-1.47-0.16-10.52-1.13-10.99-0.03c0,0.01-0.01,0.01-0.01,0.03c-0.18,0.99,8.97,3.46,11,4c7.89,2.12,12.3,2.45,25.02,5.63
		c0,0,0,0,0,0c4.01,0.9,35.97,5.47,37.69,5.73c6.35,0.96,17.45,2.05,38.29,2.65c6.94,0.18,41.91-0.61,45.27-0.75
		c20.79-0.83,37.01-3.7,40.73-4.25c1.14-0.17,1.45-0.22,26-4c0.35-0.05,12.65-1.95,13-2c-5.35,2.68-13.58,6.48-24,10
		c-4.49,1.52-19.11,6.82-59,11c-10.27,1.08-23.49,2.37-39.03,3.64c-11.56,0.95-31.33,1.62-56.75-0.64
		c-10.89-0.97-19.04-1.65-30.22-4c-18.56-3.9-36-10-36-10c-8.86-3.1-15.53-5.92-16-5c-0.35,0.68,3.27,3.14,9,7
		c6.26,4.22,10.1,6.81,16,10c3.41,1.84,10.07,5.27,20,9c10.31,3.87,23.85,7.95,42,11c18.87,3.17,33.88,3.74,45,4
		c39.38,0.93,69.07,1.63,110-4c0,0,38.58-5.31,77.13-16.47c3.54-1.03,8.87-2.58,15.58-4.81c1.62-0.54,7.08-2.37,13.29-4.72
		c4.89-1.85,16.89-6.53,30-13c12.6-6.22,25.32-12.5,39-23c10.7-8.22,37.67-28.93,43-57c1.92-10.14,0.85-20.01,0.85-20.01
		C703.44,515.25,702.4,505.84,697,496z M603.13,322.69c0.11-0.13,0.22-0.26,0.33-0.38C603.35,322.43,603.24,322.56,603.13,322.69z
		 M621,297.47c0.04-0.03,0.07-0.05,0.11-0.08c0,0.03,0,0.05,0,0.08C621.08,297.47,621.04,297.47,621,297.47L621,297.47
		C621,297.47,621,297.47,621,297.47z M509.2,343.97c0,0.18,0.01,0.36,0.02,0.54c-0.08,0-0.15,0-0.23,0.01
		C509.04,344.32,509.12,344.15,509.2,343.97z M475.15,200.51c-0.02,0.06-0.03,0.12-0.03,0.18c-0.04-0.06-0.08-0.11-0.12-0.18
		C475.05,200.52,475.1,200.51,475.15,200.51z M454.96,201.41c0.01,0.02,0.03,0.04,0.04,0.06c0,0,0,0,0,0c0,0,0,0,0,0
		c-0.04,0-0.07,0.01-0.1,0.01C454.92,201.46,454.94,201.44,454.96,201.41z M486,152.47C486,152.47,486,152.47,486,152.47
		C486,152.48,486,152.48,486,152.47C486,152.48,486,152.48,486,152.47c0,0.01-0.01,0.01-0.01,0.02
		C485.99,152.48,485.99,152.47,486,152.47z M402.6,237.49c-0.01,0.1-0.03,0.19-0.04,0.29C402.57,237.67,402.58,237.58,402.6,237.49z
		 M351.99,225.48C351.99,225.48,351.99,225.48,351.99,225.48C351.99,225.48,351.99,225.48,351.99,225.48
		c0.02-0.02,0.04-0.03,0.06-0.05c0.01,0.02,0.02,0.03,0.03,0.05C352.05,225.48,352.02,225.48,351.99,225.48z M364,292.64
		c0-0.05,0-0.1,0-0.15c0.03,0.04,0.05,0.09,0.08,0.13C364.06,292.63,364.03,292.63,364,292.64z M373,227.5
		c0.01-0.01,0.01-0.02,0.02-0.03c0,0.01,0.01,0.02,0.01,0.02C373.02,227.5,373.01,227.5,373,227.5z M394.98,264.48
		c-0.02-0.03-0.05-0.05-0.07-0.08c0.02-0.02,0.05-0.03,0.07-0.04C394.98,264.4,394.98,264.44,394.98,264.48l0.03,0.03
		c0,0,0,0,0,0.01C395,264.5,394.99,264.49,394.98,264.48z M397.99,273.49L397.99,273.49L397.99,273.49z M399.08,276.42
		C399.08,276.42,399.08,276.42,399.08,276.42C399.08,276.42,399.08,276.42,399.08,276.42C399.08,276.42,399.08,276.42,399.08,276.42
		z M402.05,331.61c-0.02-0.04-0.04-0.07-0.06-0.12c0.03,0,0.06,0.01,0.1,0.02C402.08,331.55,402.07,331.58,402.05,331.61z
		 M431.07,314.05c0.52-0.29,1.03-0.32,1.53-0.16C432.09,313.92,431.58,313.98,431.07,314.05z M299,394.55
		c0-0.01-0.01-0.02-0.01-0.04c0.01,0,0.02,0,0.03,0C299.02,394.53,299.01,394.54,299,394.55z M309,365.51c0,0.03-0.01,0.07-0.01,0.1
		c-0.13,0.06-0.25,0.11-0.38,0.16C308.74,365.68,308.87,365.61,309,365.51C309,365.51,309,365.51,309,365.51
		C309,365.51,309,365.51,309,365.51z M458.23,482.01c0-0.35-0.06-0.71-0.17-1.06C458.53,481.05,458.38,481.51,458.23,482.01z
		 M480,404.5c0-0.01,0-0.03-0.01-0.04c0.01,0.01,0.02,0.01,0.03,0.01C480.02,404.48,480.01,404.49,480,404.5z M480,388
		c-0.88,4.34-2.19,10.63-5,18c-1.95,5.11-5.12,12.07-10.36,19.72c-3.41,5.05-8.43,11.61-15.44,18.37
		c-11.28,10.87-22.27,16.97-28.2,19.91c-6.34,3.14-14.18,7-25.13,8.84c-7.52,1.26-16.64,1.17-16.64,1.17c-0.13,0-0.61,0-1.23,0
		c-4.08-0.03-12.17-0.13-22-2c-3.95-0.75-9.09-1.96-15-4c-2.65-0.78-11.07-3.65-16-12c-1.72-2.93-2.57-5.76-3-8
		c0-2.9,0.39-6.78,2-11c1.65-4.3,3.86-7.12,6.02-9.86c1.84-2.33,4.44-5.23,7.98-8.14c2.63-2.16,4.85-3.79,6.4-4.88
		c0.8-0.56,1.5-1.04,4.6-3.12c2.51-1.68,4.58-3.05,6-4c1.98-1.2,4.32-2.56,7-4c1.45-0.78,4.3-2.28,8-4c5.25-2.44,9.36-4,12-5
		c6.51-2.46,11.88-4.1,15-5c2.53-0.73,7.02-1.82,16-4c9.39-2.28,11.38-2.69,13-3c3.4-0.66,3.46-0.57,12-2c9.19-1.54,9.04-1.63,12-2
		c3.26-0.4,6.51-0.6,13-1c5.52-0.34,9.64-0.49,11.51-0.55c2.87-0.1,5.36-0.15,7.35-0.18C481.52,379.27,480.96,383.3,480,388z
		 M492.89,402.6c-0.02,0.02-0.03,0.05-0.05,0.07c-0.02-0.01-0.05-0.02-0.07-0.03c0.08-0.06,0.16-0.13,0.24-0.19
		c0,0.01,0,0.03-0.01,0.04c0.01,0,0.03,0.01,0.04,0.01C492.99,402.54,492.94,402.56,492.89,402.6z M562.97,360.49
		c0.01-0.01,0.02-0.03,0.03-0.04c0,0.01,0,0.03,0,0.04C562.99,360.49,562.98,360.49,562.97,360.49z M552.38,455.13
		c0.03-0.05,0.06-0.09,0.1-0.14c0,0.06,0.01,0.1,0.02,0.16C552.46,455.15,552.42,455.14,552.38,455.13z M138.49,556.16
		c0.09-0.02,0.17-0.03,0.26-0.05c0.11,0.02,0.21,0.05,0.32,0.07C138.87,556.18,138.68,556.18,138.49,556.16z M208.99,568.51
		C208.99,568.51,208.99,568.51,208.99,568.51C208.99,568.51,208.99,568.51,208.99,568.51C209,568.51,208.99,568.51,208.99,568.51z
		 M302.99,596.5c-0.04,0-0.09,0-0.13,0c-0.01-0.08-0.02-0.15-0.03-0.22C302.88,596.35,302.94,596.42,302.99,596.5
		C302.99,596.5,302.99,596.5,302.99,596.5z M440,586.49c0.02-0.02,0.04-0.03,0.05-0.05c0.01,0.02,0.01,0.03,0.02,0.05
		C440.05,586.49,440.02,586.49,440,586.49z M267.02,632.55c-0.01-0.01-0.02-0.02-0.03-0.03c0.01,0,0.03,0,0.04,0
		C267.03,632.53,267.02,632.54,267.02,632.55z M364.94,655.49c0-0.01,0.01-0.01,0.01-0.02c0.02,0.01,0.03,0.01,0.05,0.02
		C364.98,655.49,364.96,655.49,364.94,655.49z M506,600.56c0-0.02,0-0.04,0-0.06c0.02,0.01,0.03,0.02,0.04,0.02
		C506.03,600.53,506.01,600.55,506,600.56z M514.95,575.53c0-0.01,0-0.01,0-0.02c0.02,0,0.05,0,0.07,0
		C515,575.52,514.97,575.52,514.95,575.53z M552.99,566.5c0.04-0.03,0.09-0.06,0.13-0.09c0,0.02,0.01,0.04,0.02,0.06
		C553.09,566.48,553.04,566.49,552.99,566.5z M607.04,399.8c-0.01-0.1-0.02-0.2-0.04-0.3c0.04,0.06,0.07,0.11,0.1,0.17
		C607.08,399.71,607.06,399.75,607.04,399.8z M611.98,509.65c0-0.05,0-0.1,0-0.15c0.03,0.03,0.06,0.06,0.09,0.09
		C612.04,509.61,612.01,509.63,611.98,509.65z M700.41,535.16c0.31-0.26,0.71-0.46,1.21-0.58
		C701.22,534.81,700.81,535,700.41,535.16z M702,530.5L702,530.5L702,530.5C702,530.5,702,530.5,702,530.5c0-0.03,0-0.07,0-0.1
		c0.01,0.01,0.02,0.02,0.03,0.02C702.02,530.45,702.01,530.48,702,530.5z"/>
</g>
<line class="st2" x1="446" y1="144" x2="457" y2="139"/>
<path class="st3" d="M338.53,156.71c-9.02-1.52-17.39,1.27-23.26,7.51c-6.33-9.33-20.24-13.04-28.97-4.15
	c-1.82,1.86,5.03,1.41,6.37,0.05c6.98-7.12,16.39,5.36,18.09,10.79c0.69,2.21,6.22,0.25,6.96-1.19c3.14-6.1,7.49-11.35,16.31-9.86
	C335.83,160.16,342.23,157.34,338.53,156.71"/>
<path class="st3" d="M368.64,189.21c-6.4-0.72-12.18,1.57-16.06,6.18c-4.81-6.31-14.74-8.38-20.53-1.79
	c-1.21,1.38,3.59,0.8,4.48-0.21c4.63-5.28,11.73,3.13,13.14,6.88c0.57,1.53,4.38-0.07,4.85-1.11c1.97-4.41,4.82-8.27,11.08-7.57
	C366.87,191.74,371.26,189.51,368.64,189.21"/>
<path class="st4" d="M477.68,133.03c5.89-0.07,11.43,1.37,14.32,4.41c-0.04,0.29-0.07,0.59-0.11,0.88
	c-0.82,1.54-11.79,2.57-14.32,3.19c-11.98,2.97-20.29,7.45-30.73-0.88c-1.73-1.38-4.63-3.77-4.85-6.5c0.15-0.18,0.29-0.37,0.44-0.55
	c1.65,0.09,2.69,1.27,3.96,1.76c1.65,0.4,3.3,0.81,4.96,1.21c6.81,1.27,12.96-1.02,17.95-2.31
	C472.1,133.83,474.89,133.43,477.68,133.03z"/>
</svg>
