<svg id="ChenYu.Me" xmlns="http://www.w3.org/2000/svg" xmlns:xlink="http://www.w3.org/1999/xlink" viewBox="0 0 1068.52 1071.53"><defs><style>.cls-1{fill:url(#未命名的渐变_71);}.cls-2{fill:url(#未命名的渐变_61);}.cls-3{fill:url(#未命名的渐变_65);}.cls-4{fill:url(#未命名的渐变_65-2);}</style><linearGradient id="未命名的渐变_71" x1="5.74" y1="639.8" x2="1074.26" y2="639.8" gradientUnits="userSpaceOnUse"><stop offset="0" stop-color="#2c95b6"/><stop offset="0.08" stop-color="#2c8eb5"/><stop offset="0.43" stop-color="#2a75af"/><stop offset="0.75" stop-color="#2965ac"/><stop offset="1" stop-color="#2960ab"/></linearGradient><linearGradient id="未命名的渐变_61" x1="220.94" y1="341.53" x2="803.75" y2="341.53" gradientUnits="userSpaceOnUse"><stop offset="0" stop-color="#fcc90d"/><stop offset="0.22" stop-color="#f9b014"/><stop offset="0.54" stop-color="#f6911d"/><stop offset="0.81" stop-color="#f47e22"/><stop offset="1" stop-color="#f37724"/></linearGradient><linearGradient id="未命名的渐变_65" x1="228.32" y1="589.25" x2="502.83" y2="589.25" gradientUnits="userSpaceOnUse"><stop offset="0" stop-color="#2eafbb"/><stop offset="0.24" stop-color="#2c93b5"/><stop offset="0.55" stop-color="#2a74ae"/><stop offset="0.82" stop-color="#2861aa"/><stop offset="1" stop-color="#285aa9"/></linearGradient><linearGradient id="未命名的渐变_65-2" x1="573.3" y1="109.34" x2="911.06" y2="109.34" xlink:href="#未命名的渐变_65"/></defs><path class="cls-1" d="M1074.12,647.53c-.44-.16-1.86,2.66-2.18,3.3-3.71,7.25-26.17,46.85-38.36,63.74a438.85,438.85,0,0,1-35,43c-8.12,8.7-16.38,17.25-25.14,25.36-12,11.1-24.32,21.8-37.3,31.72a519.59,519.59,0,0,1-103.45,61.62,538.11,538.11,0,0,1-97.93,33.17q-25.76,6-52,9.59-22.38,3.09-44.88,4.4c-14.5.83-29,1-43.58.7q-24.24-.43-48.32-3c-13.94-1.46-27.8-3.54-41.6-6a514.45,514.45,0,0,1-62.1-15.07,551.93,551.93,0,0,1-62.11-23.31,527.4,527.4,0,0,1-67.39-36.14,507.29,507.29,0,0,1-74.7-57.8c-10.11-9.46-19.62-19.5-29.06-29.6-1.09-3-3.7-4.72-5.63-6.94-9.78-11.22-18.84-23-27.51-35.06a454.65,454.65,0,0,1-31.32-51.07c-5.55-10.38-10.48-21.06-15.1-31.89s-8.86-22.12-12.61-33.43c-4.46-13.45-8.09-27.13-11.29-40.94a405.86,405.86,0,0,1-8.1-51.13c-.93-9.18-1.59-18.42-1.82-27.64-.26-10.66-.24-21.36.26-32,.47-10.23,1.37-20.45,2.57-30.64a409.59,409.59,0,0,1,18.94-84.73c2.9-8.42,5.81-16.85,9.28-25.08,3.19-7.56,6.34-15.15,9.79-22.59,4.21-9.05,9-17.81,13.85-26.55a418.9,418.9,0,0,1,26.77-42.24c1.69-2.33,3.82-4.44,5.23-7.68a27.93,27.93,0,0,0-3.85,2.4c-7.83,7.09-15.79,14.06-23.35,21.43-11.19,10.88-21.76,22.34-31.91,34.22-5.61,6.57-11.2,13.17-16.42,20Q92.32,300.7,79.56,321c-7.67,12.18-14.73,24.68-21.36,37.43-3.85,7.4-7.14,15.08-10.72,22.61-5.18,10.9-9.44,22.16-13.56,33.46-3.33,9.13-6.1,18.46-8.92,27.76-2.46,8.15-4.78,16.33-6.48,24.69s-3.41,16.44-5,24.67C12.12,498.35,11,505.12,10.18,512c-.78,6.16-1.33,12.33-2.06,18.48a218.14,218.14,0,0,0-1.91,22.23C6,569,5,585.38,6.87,601.77c1.12,9.92,1.51,20,2.63,29.9,1.19,10.62,2.72,21.18,4.9,31.63,3,14.58,6.14,29.15,10.54,43.42,3.82,12.36,7.56,24.72,12.24,36.81,6.29,16.23,13.48,32,21.29,47.56a455.46,455.46,0,0,0,23.25,40.55c4,6.33,7.9,12.77,12.71,18.57h0c5.48,8.15,11.63,15.78,17.63,23.54A471.74,471.74,0,0,0,149,915.48c9.63,9.83,19.8,19.15,30.33,28.08,6.65,5.65,13.24,11.41,20.17,16.7,12.11,9.24,24.42,18.22,37.26,26.5,15.47,10,31.32,19.28,47.69,27.68a536.68,536.68,0,0,0,53.37,23.89A579.08,579.08,0,0,0,398,1057.85a513.07,513.07,0,0,0,66.68,13c16,2,32.93,3.36,37,3.66,5.72.43,11,.82,17.91,1.14,0,0,26.48,1.2,63.43-1.11,5.37-.34,11.78-.8,11.78-.8,4.12-.3,6.18-.45,8.63-.66,3.16-.27,8.83-.81,15.82-1.72,2.07-.26,6.72-.89,13.88-2.07,10.68-1.76,19.64-3.65,25.9-4.9q24-4.77,47.33-11.85c12.66-3.82,25.22-8,37.61-12.66,12.79-4.81,25.33-10.19,37.75-15.88,9.44-4.31,18.7-9,27.82-13.93,5.83-3.17,11.72-6.24,17.42-9.63,13.63-8.11,27-16.59,40-25.78,10.95-7.78,21.55-16,31.9-24.58,9.13-7.58,18.21-15.21,26.61-23.57s17.21-16.72,25.28-25.64q9.72-10.73,18.93-21.85c8.05-9.71,15.55-19.85,22.8-30.19a496.85,496.85,0,0,0,28.77-46.18c5.66-10.33,10.88-20.89,15.87-31.56,4-8.55,7.54-17.28,10.93-26.06q8-20.58,13.9-41.85c3.35-11.89,6.2-23.9,8.79-36,1.25-5.82,2.13-11.71,3.28-17.54C1074.13,649.16,1074.43,647.64,1074.12,647.53Z" transform="translate(-5.74 -4.47)"/><path class="cls-2" d="M799.77,173.48a329.27,329.27,0,0,1-69.25,28.37c-25.76,7.35-51.92,11.48-78.86,10.43a183.09,183.09,0,0,1-49.88-8.62c-1.5-.48-3-1.54-4.69-.34,0-.1,0-.15,0-.25a3,3,0,0,0-1.59-1.34A187.23,187.23,0,0,1,575,192.18a2.56,2.56,0,0,0-1.73-.16c-.83-.43-1.69-.83-2.5-1.31-18.13-10.62-33.12-24.77-46.65-40.72-21.39-25.22-42.73-50.49-65.94-74.13C420.12,37.08,374.37,14.43,320.36,8.07a528.17,528.17,0,0,0-65.67-3.59c-11.25.09-22.52-.12-33.73.88-.16,1.34.63,2.16,1.13,3.05q16.28,29,32.58,57.88Q311.48,167.16,368.3,268l79,140.15c0,1.49.42,2.75,2,3.13-.55,1.94.71,3.34,1.54,4.84,5,9.13,10,18.3,14.49,27.72,13.67,28.58,24.35,58.17,30.83,89.22,4.71,22.63,6.9,45.46,5,68.52-2.17,26-9.5,50.49-23.37,72.82-.76,1.23-2.14,2.4-1.09,4.15a239.52,239.52,0,0,0,22.09-25c20.13-25.52,37.76-52.74,54.91-80.31q54.4-87.46,109.18-174.68Q725.09,299,787.23,199.45c5.57-8.93,11-17.94,16.52-26.91C802.2,171.91,801,172.81,799.77,173.48Z" transform="translate(-5.74 -4.47)"/><path class="cls-3" d="M476.35,466a481.29,481.29,0,0,0-27-54.71c-.68-1-1.37-2-2.06-3.05Q406.64,475.95,366,543.69,303.53,647.09,239.44,749.46c-3.67,5.88-7.33,11.78-11.12,17.86,1.73.33,3,.65,4.28.82C262,772,291.28,770.6,320.36,765a285.38,285.38,0,0,0,116.5-51.09,275.24,275.24,0,0,0,39.86-35.33,8.74,8.74,0,0,1,.65-1.61c21.89-34.09,27.87-71.77,24.65-111.34C499.2,531,489.51,498,476.35,466Z" transform="translate(-5.74 -4.47)"/><path class="cls-4" d="M759,37.36C681.42,70,620.09,122.34,573.3,192c7.45,4.76,15.67,7.91,23.77,11.3,6.58,2,13.08,4.16,19.79,5.67,32.73,7.4,65.27,5.42,97.67-2a335.81,335.81,0,0,0,89.22-34.5C839.37,117,875,61.35,911.06,5,857.71,5.59,807.37,17,759,37.36Z" transform="translate(-5.74 -4.47)"/></svg>