<svg id="图层_1" data-name="图层 1" xmlns="http://www.w3.org/2000/svg" viewBox="0 0 1063.75 1072.78"><defs><style>.cls-1{fill:#fe0000;}.cls-2{fill:#080403;}.cls-3{fill:#0a0606;}.cls-4{fill:#a2a2a2;}.cls-5{fill:#8c8b8b;}.cls-6{fill:#8d3030;}.cls-7{fill:#fefefe;}.cls-8{fill:#3f1f24;}.cls-9{fill:#3d3733;}.cls-10{fill:#0a0607;}.cls-11{fill:#3d3935;}.cls-12,.cls-13{fill:#f70830;}.cls-13{fill-rule:evenodd;}</style></defs><path class="cls-1" d="M433.57,860.49a103.27,103.27,0,0,0-11.63,11.3,169.56,169.56,0,0,0-11.35,14.73c-1.7,2.5-3.61,4.85-5.33,7.33-4.54,6.52-6,7.31-7.08,7.1-.5-.1-1.8-.61-3.31-7.43a62.33,62.33,0,0,1-1.52-12.63c0-20.54-.28-14.33,0-22.62.27-8.52.4-12.77.78-17.91.71-9.41,1.73-16.36,2.75-23.22,1.16-7.8,2.86-17.86,5.39-29.59h0c2.31-10.82,4.92-20.14,7.31-27.69a285.7,285.7,0,0,1,11-29.34c4.95-11.13,9.42-19.13,10.71-21.41,3.3-5.82,6.17-10.3,8.74-14.32,1.91-3,5.82-9.07,10.57-15.67,6.44-9,11.78-15.16,18.13-22.51,12.28-14.21,23.16-25.36,31-32.8,5.42-5.12,10.65-10.46,16.45-15.13,6.8-5.48,13.56-11,20.35-16.51,11.22-9,23.19-16.95,34.78-25.43,5.21-3.82,10.89-7,16.45-10.35,8.77-5.27,17.51-10.59,26.44-15.59,7.36-4.12,14.92-7.9,22.48-11.67q15-7.44,30.12-14.59c13.12-6.2,26.54-11.72,40-17,12.28-4.86,24.69-9.49,37.27-13.66,11.14-3.69,22.26-7.57,33.35-11.47,6.33-2.23,13.09-3.23,19.44-5.41,6.63-2.27,13.38-4.16,20.08-6.1,6.93-2,14-3.86,21-5.61,6.47-1.62,13.06-2.78,19.37-5.18,3.82-1.45,8.07-1.76,12.11-2.68,8.86-2,17.73-3.94,26.53-6.16,2.19-.55,4.45-.62,6.67-1.35,1.8-.6.89,1.15.39,2.19-4.3,8.95-8.64,17.88-12.75,26.91-7,15.41-13.47,31-18.07,47.37-3.48,12.33-6.32,24.66-6.39,37.57-.07,12.2,3.23,23.6,7.3,34.89A193.37,193.37,0,0,1,883.35,630a196.24,196.24,0,0,1,.67,40.52,167.75,167.75,0,0,1-7.19,36.28,155.14,155.14,0,0,1-22.76,46A148.42,148.42,0,0,1,813.59,791c-20.41,13-42.9,20.31-66.62,24.21a335.13,335.13,0,0,1-62.41,3.93c-6.57-.16-13.18,0-19.72-.51-8.84-.73-17.65-1.86-26.43-3.12a319,319,0,0,1-32.59-6.08c-6-1.5-11.86-3.21-17.82-4.71-8.34-2.09-16.8-4-25.37-4.28-5-.17-10.12-.4-15.14-.15a73.06,73.06,0,0,0-14,1.56c-2.42.6-5.52.53-8,1.24-3.9,1.11-8,1.57-11.78,3.15-2.26.93-9.06,3.17-10.24,3.65-9.11,3.68-15.67,7.46-23.47,12-4.7,2.75-7.8,4.56-12,7.52s-6.78,5.12-11.87,9.35c-5.87,4.89-9,7.41-12.55,11.14-2.25,2.34-4.52,4.71-6.78,7.13C435.69,858.21,434.63,859.35,433.57,860.49Z" transform="translate(-14.25 -3.61)"/><path class="cls-2" d="M608.79,126.82c1.71-.35,2.34,1,3.16,1.87a389.11,389.11,0,0,1,45.46,60.37,249.23,249.23,0,0,1,23.11,49.56,185.61,185.61,0,0,1,9.53,66,137.73,137.73,0,0,1-3.89,26.28,147.67,147.67,0,0,1-13,35.15,149.18,149.18,0,0,1-31.77,41c-14.31,13.19-30.14,24.39-46.3,35.16a300.7,300.7,0,0,1-27.6,16.6c-11.42,6-22.82,12-34.75,16.94-9.07,3.78-17.92,8.1-27,12-14.18,6.06-27.91,12.93-40.64,21.71a187.88,187.88,0,0,0-33.69,30,179.5,179.5,0,0,0-15.86,19.88c-.82,1.24-1.29,1.69-2.32-.11-8.58-15.06-11.4-30.74-6.63-47.76C411.06,495.55,420,482.4,430.39,470c12.21-14.55,26.26-27.19,40.8-39.34,14.18-11.84,28.92-23,43.41-34.42,17.21-13.6,34.78-26.79,51-41.66,10-9.24,20-18.66,28.31-29.49,10-13,16.35-27.78,20.41-43.74a210.77,210.77,0,0,0,6.34-44.24,362,362,0,0,0-3.45-64.87,419,419,0,0,0-8.38-44.32A4.49,4.49,0,0,1,608.79,126.82Z" transform="translate(-14.25 -3.61)"/><path class="cls-3" d="M390.22,454.15c-3.16,9-6.11,18.1-8.66,27.33-2,7.26-4.1,14.5-5.9,21.83-2.66,10.91-5.37,21.82-7.29,32.9-1.49,8.62-3.19,17.2-4.42,25.85-2.43,17.15-4.23,34.36-2.13,51.68a43.51,43.51,0,0,0,4.94,16.19c2.93,5.22,7.11,7.59,13.35,7.78,11.35.36,20.7-5,30.08-9.83a443.51,443.51,0,0,0,47.34-28.6c12.56-8.55,25.13-17.07,37.56-25.8,12-8.45,24.11-16.78,36-25.41,12.74-9.25,25.85-18,38.75-27,13.17-9.21,26.19-18.6,39.42-27.7,9.38-6.45,19-12.57,28.51-18.81,8.21-5.39,16.25-11.06,24.69-16.05,12.86-7.6,25.33-15.83,38.44-23,7.77-4.27,15.36-9,23.29-13,10.78-5.34,21.39-11,32.45-15.85,10.8-4.72,21.84-8.78,32.79-13.07a106.27,106.27,0,0,1,18.15-5.3c8.14-1.6,16.17-4,24.57-4.09,3.1-.73,6.27-.95,9.42-1.37l1.45,0c.9.76,2.31-.23,3.33,1.16-2,1.53-4.48,0-6.41,1.06a2.17,2.17,0,0,0-.71.09c-2.55.9-5.28-.28-7.84.66-6.48,1.49-13,2.51-19.44,4.47a299.69,299.69,0,0,0-36.6,13.78c-10.92,5-21.66,10.32-32.18,16.11-16.69,9.2-33.17,18.77-49.15,29.19-12.44,8.11-24.95,16.1-37.3,24.36C647.36,480,638.22,486.58,629,493c-11.86,8.3-23.75,16.54-35.54,24.92-13.72,9.76-27.31,19.7-41,29.46C541,555.53,529.49,563.5,518,571.56c-10.7,7.54-21.32,15.19-32.07,22.66-7.38,5.13-14.87,10.13-22.39,15.06-9.27,6.08-18.37,12.48-28,17.94-15.32,8.68-30.4,18.32-48.05,21.63-15.33,2.88-28-3.17-33.17-19.17-3.37-10.48-3.74-21.23-3.11-32.12a255.86,255.86,0,0,1,4.45-34.51c2.26-11.47,5.32-22.8,8.41-34.09,5.42-19.82,11.85-39.33,18.9-58.65,2.15-5.9,3.94-11.94,6.36-17.76C390.82,452.46,390.58,453.28,390.22,454.15Z" transform="translate(-14.25 -3.61)"/><path class="cls-4" d="M390.22,454.15c-.21-.57.18-1.46-.85-1.6.62-6,4-11,6.15-16.45.69-1.77.76-4.12,3.49-5.71Z" transform="translate(-14.25 -3.61)"/><path class="cls-5" d="M839.94,385.06c1.51-1.19,3.29-.86,5-.93-.45-.75-1.71-.28-2-1.29,6.55-1,12.73,1,19,2.33C854.66,384.7,847.3,385.41,839.94,385.06Z" transform="translate(-14.25 -3.61)"/><path class="cls-5" d="M841.57,382.82a26.68,26.68,0,0,1-9.42,1.37C835.19,383.1,838.24,382,841.57,382.82Z" transform="translate(-14.25 -3.61)"/><path class="cls-5" d="M831.39,385.81c2.54-1.16,5.22-.57,7.84-.66C836.73,386.66,834,385.86,831.39,385.81Z" transform="translate(-14.25 -3.61)"/><path class="cls-6" d="M836.09,688.35a95.92,95.92,0,0,1-9.69,4.82c-4.56,1.9-7.94,2.73-14.45,4.3-3.93.94-9.07,2-15.19,3-4,.37-9.5.77-16,1-9.45.31-16.53,0-23-.21-4.16-.17-14.32-.62-28.14-2-6.63-.66-6.73-.79-27.41-3.32-20.33-2.49-18.9-2.17-25.32-3.08-15.07-2.13-18-3.2-31-5-6.54-.92-15.4-2-26-2.77-4.56-1-5.56-1.12-5.59-1-.09.33,8.69,3.08,17.14,5.23,3.91,1,7,1.62,13,2.86,6.58,1.36,12,2.4,15.82,3.11,5.26,1.06,12.79,2.52,21.88,4.12,18.39,3.23,27.83,4.89,39.79,6,15.64,1.41,27.07,1.07,43.92.57,21.11-.63,31.11-2.14,34.53-2.7,18.66-3.08,27-7.17,32.92-11.08a62.44,62.44,0,0,0,9.94-8.18C841.47,685.2,839,686.72,836.09,688.35Z" transform="translate(-14.25 -3.61)"/><path class="cls-7" d="M556.85,711.61c.07-1.14.77-1.39,1.8-1.51a265.43,265.43,0,0,1,83.42,2.9,161.31,161.31,0,0,0,29.42,3.53,4.44,4.44,0,0,1,1.41.58,181.2,181.2,0,0,1-10.81,15.27c-3.48,4.21-6.86,8.45-11,12-8,6.88-16.1,13.63-25.28,19a208.22,208.22,0,0,1-44.53,20,66.69,66.69,0,0,0-9.78,3.24c-.93.43-1.72.49-2.37-.44,6.86-5.69,12.09-12.45,14.72-21.16,4.76-15.77,1.45-29.68-9.3-41.88C569.78,717.73,564.11,713.38,556.85,711.61Z" transform="translate(-14.25 -3.61)"/><path class="cls-7" d="M459.68,778.51a23.9,23.9,0,0,0,5.27-4.2,29.7,29.7,0,0,0,4.31-6.18c.7-1.14,1.07-1.58,9-9.82,4.25-4.39,6.88-7.1,10.58-10.57a67.9,67.9,0,0,1,5.49-4.61c4.07-3.26,7-5.24,8.59-8.62.13-.26.47-1,.55-1s-1.74,4.27-2.69,9.12a40,40,0,0,0-.56,10,50.8,50.8,0,0,0,1.59,11.91,39,39,0,0,0,6.67,14.3A37.92,37.92,0,0,0,519,788.26a42.45,42.45,0,0,0,8.85,4.21c-1.46.31-3.48.72-5.9,1.13-2.1.36-5.1.88-8.61,1.19a87.78,87.78,0,0,1-9.13.26c-3.15,0-2.81-.11-12.4-.47-4-.15-4.94-.16-6.9-.34-3.29-.29-6-.73-7.62-1-2.21-.36-4-.72-6.37-1.18l-4.28-.89c-4.12-.86-6.19-1.3-7.71-1.7-4-1.06-7.09-1.87-7.12-3,0-.81,1.45-.72,3.19-2.74,1.24-1.43,1.29-2.4,2.8-3.82A10.19,10.19,0,0,1,459.68,778.51Z" transform="translate(-14.25 -3.61)"/><path class="cls-8" d="M556.88,710.46a41.64,41.64,0,0,0-14-2.35c-7.24,0-12.76,2-17.69,3.85a85.58,85.58,0,0,0-11.46,5.36c-13.76,7.33-20.66,11-26,15.07-6.48,4.94-10.21,9-17.66,17.22-3.52,3.87-7.54,8.24-8.59,14.91a15.24,15.24,0,0,0-.48,4.62c.05.37.08.67.09.92,0,0,0,.53,0,1.07,0,1.3-2.52,7.22-3.5,10.17-1.31,3.91-1,5.07-.81,5.59a5.7,5.7,0,0,0,3.2,2.85c-2.88-.35-15.39-2.11-18-9.13a14.59,14.59,0,0,1-.52-2c-.53-2.49-.9-7,1.75-13.38a112.94,112.94,0,0,1,9.87-18.52c20.18-30.58,50.25-43.74,66-49.93A223.33,223.33,0,0,1,558,685.36c22.79-4.63,36.24-3.83,40.15-3.54a121.09,121.09,0,0,1,14.49,1.95c1.5.3,3,.82,8.25,2.17,2.41.62,4.67,1.2,7,1.77,4.46,1.09,7.62,1.74,11.19,2.49,13.15,2.76,22.77,4.65,24.89,4.95,2.84.41,16.59,2.63,23.06,3.36,3.8.43,12,1.41,16.14,2.07,7.21,1.13,11.7,1.84,17.2,2.84,10.75,2,12.92,2.76,21.6,4.4,5.3,1,13,2.32,22.46,3.42-1,.13-6.07.27-6.32.26-4.27-.19-14.59,0-17.84,0-5.64.09-8.46.14-10.95.26-6.48.31-17.88,1-14.82,1,5,0,8.8.3,13.26.59,1.72.11,12.51,1.09,15.19,1.38,2.38.26,3,.3,3,.46,0,.5-5.16,1.42-5.83,1.54-16.19,2.82-36.52,2-36.52,2-5.71,0-15.37-.18-30.74-1.65-9.14-.88-16.5-1.86-20.85-2.47-13.37-1.89-14-2.55-24.87-4-11.41-1.51-19.84-2-25.44-2.28a213.92,213.92,0,0,0-22.59,0C570.62,708.79,563.12,709.59,556.88,710.46Z" transform="translate(-14.25 -3.61)"/><path class="cls-9" d="M503.56,735.6c-1.67,4.89-8.21,11-8.21,11-3.32,3.13-3.07,2.47-10.08,8.59-2.18,1.91-4,3.58-5.67,5.06-3.13,2.85-5,4.58-7.49,7.07-.77.78-3.17,3.22-6.1,6.58-.42.49-2.17,2.52-4.25,5.36-1.91,2.61-2.74,4.06-3.11,6a10.82,10.82,0,0,0-.15,3,6.8,6.8,0,0,1-1.84-2,7.65,7.65,0,0,1-.87-3.8c0-.13,0-.27,0-.5a37.62,37.62,0,0,1,.41-5,53,53,0,0,1,1.13-5.49,59.3,59.3,0,0,1,2.37-7.39,50.49,50.49,0,0,1,3.79-7.77,53.26,53.26,0,0,1,6.65-8.62,121.27,121.27,0,0,1,8.81-8.87c3.76-3.52,6.69-6,7.43-6.59,2.45-2,5.37-4.47,9.49-7.3a78.36,78.36,0,0,1,8.17-5.1,83.05,83.05,0,0,1,10.14-4.45,58.12,58.12,0,0,1,8.3-2.7c1.42-.34,2.63-.56,3.48-.7a88.9,88.9,0,0,0-9.6,6.95,50,50,0,0,0-5.69,5.26c-4.38,4.83-5.88,8.09-6.39,9.38-.16.4-.32.88-.32.89h0Z" transform="translate(-14.25 -3.61)"/><path class="cls-7" d="M354.44,831.24" transform="translate(-14.25 -3.61)"/><path class="cls-1" d="M403.52,815.26" transform="translate(-14.25 -3.61)"/><path class="cls-7" d="M133.47,894.71" transform="translate(-14.25 -3.61)"/><path class="cls-10" d="M565.65,789a47.05,47.05,0,0,1-10.88,4.49,45.87,45.87,0,0,1-13.51,1.63c-4.48-.15-8.92-1.74-13.38-2.67a43.9,43.9,0,0,1-15.35-9c-12.73-11.77-12.36-30.33-12.25-33.42a40.41,40.41,0,0,1,5.36-20.72A57.9,57.9,0,0,1,514.26,719c3.22-3.1,7-5.13,11-7.08a43.62,43.62,0,0,1,31.66-1.5c18.83,7,29.08,20.94,30.12,40.6a40.7,40.7,0,0,1-2,15.17,47.47,47.47,0,0,1-12.43,18.23,32.88,32.88,0,0,1-3.12,2.43A29.42,29.42,0,0,1,565.65,789Z" transform="translate(-14.25 -3.61)"/><path class="cls-11" d="M606.77,708.63a54.11,54.11,0,0,1,6.15-.28c1.57,0,2.16,0,6.79,0l10.24.09c5.08,0,5,.13,11.65.19,2.4,0,3.24,0,5.25.06,4.17.09,6.48.26,14.89.37,6.92.08,12.58,0,16.34,0a37.57,37.57,0,0,1-2.09,3.83c-.54.86-1.13,1.72-1.89,2.84-.53.77-1,1.4-1.29,1.84l-5.82-.52-5.81-.5c-4.07-.33-4.63-.35-6.55-.6-4.42-.57-7.88-1.08-11.68-1.65-4.27-.64-6.4-1-7.26-1.12-1.35-.26-2.57-.53-13.89-3.14h0a84,84,0,0,0-8.4-1.08C609.64,708.71,606.77,708.74,606.77,708.63Z" transform="translate(-14.25 -3.61)"/><path d="M606.07,1046.83A504.72,504.72,0,0,1,294.62,940q-2.91-2.25-5.77-4.56a74.5,74.5,0,0,1-6.9,56.35q1.92,1.25,3.86,2.45A533.67,533.67,0,0,0,571,1076.39c206,0,384.39-115.5,474-285.52C958.12,943.33,793.64,1046.83,606.07,1046.83Z" transform="translate(-14.25 -3.61)"/><rect class="cls-12" x="114.89" y="484.5" width="19.82" height="19.82" transform="translate(-327.28 229.42) rotate(-45)"/><rect class="cls-12" x="163.32" y="484.5" width="19.82" height="19.82" transform="translate(-313.11 263.68) rotate(-45)"/><path d="M1045,289.13c-86.85-152.47-251.33-255-438.9-255C342.32,34.1,126.12,235,102,492.35H75.4v4.58h26.14q-1.83,21.52-1.84,43.53,0,4.44.07,8.86L84.38,564.84l3.24,3.23,12.29-12.39A512.33,512.33,0,0,0,107,628.79c-3.36,3-33.56,45.47-33.56,45.47-.18-4.61-.6-15.3-9.57-23.33a31.73,31.73,0,0,1,4-2.11l-1.48-3.34a34.62,34.62,0,0,0-5.56,3.07,34.62,34.62,0,0,0-5.56-3.07l-1.48,3.34a31.73,31.73,0,0,1,4,2.11,27.66,27.66,0,0,0-8.41,14.19A535.25,535.25,0,0,1,35,540.46C35,243.85,275.27,3.61,571,3.61,777,3.61,955.35,119.11,1045,289.13Z" transform="translate(-14.25 -3.61)"/><rect class="cls-12" x="61.15" y="488.74" width="149.94" height="4.58"/><polygon class="cls-12" points="123.77 513.66 114.98 522.52 110.41 527.13 85.66 552.07 73.37 564.46 70.13 561.23 85.52 545.71 120.53 510.43 123.77 513.66"/><rect class="cls-12" x="110.41" y="521.6" width="4.58" height="86.15"/><polygon class="cls-12" points="160.76 613.99 157.43 614.04 156.69 517.19 161.27 517.19 160.76 613.99"/><path class="cls-12" d="M267.41,739h-.17a.93.93,0,0,1-.75-.93c.75-23.19-7.45-33.6-20-42.1-7.06-4.79-15.23-8.39-23.88-12.2-5.38-2.37-11-4.83-16.37-7.64C181,663,172.1,628.34,171.76,613.62a61.44,61.44,0,0,1,17.94-44,34.15,34.15,0,0,1,25.59-10.56A81.32,81.32,0,0,1,234,561.74a42.5,42.5,0,0,0,9.6,1.2c10.28,0,14.72-4.79,14.77-4.84a.92.92,0,0,1,1.59.68c-3.21,40.27-21.74,44.94-35.41,44.94h0a111.89,111.89,0,0,1-18.15-2,101.73,101.73,0,0,0-12.76-1.58c-7.51-.24-12.71,1.45-15.75,4.94a11.9,11.9,0,0,0-2.75,8.68c1.4,16.39,17.65,16,35.78,15.75,10.76-.12,22.45-.31,32.5,3.06a43.88,43.88,0,0,1,26.36,22.86c15.74,31.89-1.31,82.43-1.49,82.93A.91.91,0,0,1,267.41,739Zm-93.55-121.5c1.65,15.55,11,45.43,33.23,57,5.38,2.79,10.91,5.23,16.27,7.59,8.72,3.85,17,7.48,24.17,12.37,14,9.48,20.14,20.29,20.79,37.42,3.92-14.19,12.05-50.79-.2-75.61a42.17,42.17,0,0,0-25.3-21.93c-9.77-3.28-21.3-3.08-31.9-3-2,0-3.95,0-5.87,0C190.35,631.39,177,630.26,173.86,617.49Zm41.43-56.55A32.42,32.42,0,0,0,191,571a59.89,59.89,0,0,0-17.33,38.38,13,13,0,0,1,2.82-5.46c3.42-3.92,9.09-5.79,17.18-5.57a104.51,104.51,0,0,1,13,1.62,111.41,111.41,0,0,0,17.85,2h0c13.77,0,29.9-4.72,33.39-41-2.3,1.61-6.9,3.94-14.34,3.94a43.86,43.86,0,0,1-10-1.25A79.93,79.93,0,0,0,215.29,560.94Z" transform="translate(-14.25 -3.61)"/><path class="cls-12" d="M173.72,609.64a1.15,1.15,0,0,1-.26,0,.93.93,0,0,1-.62-1.14c.07-.23,7.21-23.46,34.42-17.09s39.59-.86,50.47-29.94a.92.92,0,0,1,1.72.65c-11.18,29.84-24.45,37.68-52.61,31.08-25.51-6-32,14.92-32.24,15.82A.93.93,0,0,1,173.72,609.64Z" transform="translate(-14.25 -3.61)"/><path class="cls-12" d="M173.62,606.67a.84.84,0,0,1-.31,0,.92.92,0,0,1-.55-1.17c.09-.27,10-27.2,35.41-21,21.76,5.26,40.18-3.95,49.29-24.67a.92.92,0,0,1,1.68.74c-7.34,16.68-24.69,32.2-51.41,25.71C184,580.43,174.86,605,174.48,606.07A.91.91,0,0,1,173.62,606.67Z" transform="translate(-14.25 -3.61)"/><path class="cls-12" d="M173.13,604.13a.87.87,0,0,1-.35-.07.92.92,0,0,1-.5-1.19c.14-.34,14.21-34,39.38-30.36,21.72,3,35.75-.91,45.53-12.88a.92.92,0,0,1,1.42,1.16c-10.24,12.52-24.8,16.7-47.21,13.53C187.66,571,174.11,603.24,174,603.57A.92.92,0,0,1,173.13,604.13Z" transform="translate(-14.25 -3.61)"/><path class="cls-12" d="M267.67,736.54h-.19a.93.93,0,0,1-.71-1.09c2.64-12.22,10-53.86-6-76.9-12.32-17.71-32.55-18.91-50.39-20-6.79-.4-13.2-.78-18.45-2.1-19-4.78-20.17-21.7-20.18-21.88a.91.91,0,0,1,.86-1,1,1,0,0,1,1,.86c0,.64,1.15,15.76,18.8,20.21,5.08,1.28,11.41,1.65,18.1,2,17.36,1,39,2.31,51.8,20.75,16.44,23.65,9,65.93,6.32,78.33A.91.91,0,0,1,267.67,736.54Z" transform="translate(-14.25 -3.61)"/><path class="cls-12" d="M267.94,731.55h-.06a.9.9,0,0,1-.85-1c4.92-75.75-34-80.24-59.73-83.21-4-.46-7.8-.9-11.06-1.55-24.49-4.94-24.4-30-24.4-30.21a.89.89,0,0,1,.93-.9.9.9,0,0,1,.9.92c0,1,0,23.75,22.93,28.39,3.18.65,6.94,1.08,10.91,1.54,26.43,3.05,66.38,7.65,61.34,85.14A.91.91,0,0,1,267.94,731.55Z" transform="translate(-14.25 -3.61)"/><path class="cls-12" d="M268.14,731.83h0a.91.91,0,0,1-.9-.92c.64-49.49-27.09-59.53-59.19-71.16-36.74-13.31-35.51-39.54-35.5-39.8a.89.89,0,0,1,1-.85.91.91,0,0,1,.86,1c0,.25-1.1,25.15,34.21,37.94,32.84,11.9,61.14,22.14,60.48,72.93A.91.91,0,0,1,268.14,731.83Z" transform="translate(-14.25 -3.61)"/><path class="cls-12" d="M68,841.53H66.31l.09-5.5H68c54.07,0,55.38-44.36,55.45-46.27V707.87l.78-42.22,6.57.1L130,707.92v82C130,790.49,127.43,841.53,68,841.53Z" transform="translate(-14.25 -3.61)"/><rect class="cls-12" x="95.65" y="685.95" width="35.31" height="6.83"/><path class="cls-12" d="M106.44,720.44a13.62,13.62,0,0,0-8.53-4.74,20.7,20.7,0,0,0-13.48,3.22C72.68,710.56,73,699.83,73.36,686.39c.11-3.82.23-7.78.06-11.95v-.18c-.18-4.61-.6-15.3-9.57-23.33a30.4,30.4,0,0,0-3.05-2.38,34.62,34.62,0,0,0-5.56-3.07l-1.48,3.34a31.73,31.73,0,0,1,4,2.11,24.84,24.84,0,0,1,3,2.2c7.3,6.09,8.69,14.32,9,21.27v0c.16,4.1,0,8-.06,11.85C69.32,700,69,711.86,81.38,721.23a27.73,27.73,0,0,0-5.8,7.43,57.25,57.25,0,0,0-5.9,31.7c1.72,16.23.62,27-8.88,33.25a24,24,0,0,1-3.6,1.95,45.77,45.77,0,0,1-11,3.18l.62,3.61a46,46,0,0,0,14-4.47,25.58,25.58,0,0,0,3.6-2.32c9.47-7.25,10.65-19.23,8.92-35.59a54.56,54.56,0,0,1,5.46-29.53,23.91,23.91,0,0,1,5.7-7.09c2.38,1.39,14.54,7.91,21.9-.59l1-1.13ZM88,721.06a17.18,17.18,0,0,1,9.48-1.73,9.68,9.68,0,0,1,4.91,2.21C97.85,725.05,91.24,722.63,88,721.06Z" transform="translate(-14.25 -3.61)"/><path class="cls-12" d="M64.4,795.56a24,24,0,0,1-3.6-1.95c-9.5-6.21-10.6-17-8.88-33.25A57.23,57.23,0,0,0,46,728.68a27.86,27.86,0,0,0-5.81-7.45c12.4-9.37,12.06-21.28,11.68-34.94-.11-3.81-.22-7.75-.06-11.85v0c.28-6.95,1.67-15.18,9-21.27a24.84,24.84,0,0,1,3.05-2.2,31.73,31.73,0,0,1,4-2.11l-1.48-3.34a34.62,34.62,0,0,0-5.56,3.07,30.4,30.4,0,0,0-3,2.38,27.66,27.66,0,0,0-8.41,14.19,43.23,43.23,0,0,0-1.16,9.14c-.16,4.23,0,8.25.06,12.13.38,13.44.68,24.17-11.06,32.53a20.77,20.77,0,0,0-13.49-3.22,13.66,13.66,0,0,0-8.53,4.74l-.91,1.19,1,1.13c7.35,8.5,19.51,2,21.89.59a24.06,24.06,0,0,1,5.71,7.11A54.55,54.55,0,0,1,48.28,760c-1.73,16.36-.55,28.34,8.92,35.59a25.58,25.58,0,0,0,3.6,2.32,46,46,0,0,0,14,4.47l.62-3.61A45.77,45.77,0,0,1,64.4,795.56Zm-45.17-74a9.64,9.64,0,0,1,4.9-2.21,17.28,17.28,0,0,1,9.48,1.73C30.36,722.63,23.75,725.05,19.23,721.54Z" transform="translate(-14.25 -3.61)"/><path class="cls-13" d="M130.76,665.8l-.21,5.34c-2-1-4.13-2.12-6.37-3.16-3.15-1.46-6.48-2.85-9.73-4-6-2.1-11.74-3.36-15.58-2.65-2.17.41-7.36,2.17-9.38,10.15-3-14.79,9.54-21.81,14.58-22a15.43,15.43,0,0,1-2.28-8.2,16.18,16.18,0,0,1,5.19-12.5,13.12,13.12,0,0,1,5.38-3c7.82-2.14,15.13,2.91,16.42,10.83a1.26,1.26,0,0,0-1.15-.44l-1.31,0c-4.54.18-10.63,2.86-10.23,12.78.26,6.71,7.52,10.77,14.61,16.73Z" transform="translate(-14.25 -3.61)"/><path class="cls-13" d="M73.5,834.83A6.48,6.48,0,1,1,67,828.36,6.47,6.47,0,0,1,73.5,834.83Z" transform="translate(-14.25 -3.61)"/><path class="cls-12" d="M264.93,964.55a26.75,26.75,0,0,1-5.09,12.27c-6.62,9.3-18.82,17.08-32.28,17.2-1.14,0-2.26.06-3.37.06-17.36,0-29.63-4.89-35.32-9.46l-16.73-11.17c-.26-.18-6.81-4.77-18.24-4.77-8.47,0-17.31,2.54-26.29,7.54-8.5,4.73-16.79,7.13-24.62,7.13a37.73,37.73,0,0,1-16.44-3.76,38.8,38.8,0,0,0,9.77,1.23c9.86,0,19.47-3.58,28.57-10.66,13.09-9.74,23.36-14.08,33.28-14.08,9.5,0,19,3.89,31.11,10.17C202.43,973,211.63,976,219.11,976c4.54,0,8.28-1.08,12.24-2.23l.48-.14a20.09,20.09,0,0,0,11.5-9.11,18.21,18.21,0,0,0,1-2c2.69-5.94,2.45-12.89-.68-19.57-3.39-7.15-10.6-11.41-19.27-11.41-5.87,0-11.36,2.06-14.12,5.25-.08.08-.14.16-.21.24-6.34,8-6.41,16.81-.16,21.92a7.11,7.11,0,0,0,4.22,1.45,6.94,6.94,0,0,0,5.9-3.42,7.1,7.1,0,0,0,0-7.16c-.61-1-1.07-1.69-1.42-2.17,3.48.65,8,2.49,8.83,7.8a13,13,0,0,1-3.35,10,13.86,13.86,0,0,1-10.36,4.34,18.91,18.91,0,0,1-9.19-2.52c-10.38-5.88-5.49-16.7-5.27-17.16a.51.51,0,0,0,0-.48c-.35-.49-8.14-12,.9-22.3l.26-.3a16.85,16.85,0,0,1,12.23-5.24c5.83,0,11.07,2.69,14.21,4.3a.86.86,0,0,0,.38.08.44.44,0,0,0,.33-.11c.14-.15.31-.31.21-.49a13.69,13.69,0,0,1,10.73-4.92,22.22,22.22,0,0,1,9.77,2.58c12,6.85,7.78,20.3,7.59,20.87a.48.48,0,0,0,.19.54C256.13,944.8,266.72,952.25,264.93,964.55Z" transform="translate(-14.25 -3.61)"/><path class="cls-12" d="M116.71,957c-1.48-9.24-14.73-15.91-23.76-9.23s-5.32,16.39-3.08,18.1c3.2,2.78,10.3,2.75,10-3-1.27-4.69-6.37-2.37-6.37-2.37s-3.71-3,2-7.83,13-1.3,15.12,3.14c1.64,5.06.66,14.59-12,16.73-13.63.59-15.35-7.28-15.35-7.28-3.7,4.44-8.67.68-15.45,1.66-5.38.3-13.67,5.76-19.43,7.7a10.8,10.8,0,0,1-11.49-4.27s.41,5.34,7.06,7.17c9.48,1.71,18.65-7.1,27.57-7.41,6.15-.29,18.17,5.53,18.17,5.53,20.38,5.82,29-8.68,27.05-18.63Z" transform="translate(-14.25 -3.61)"/><path class="cls-12" d="M294.62,940a79.05,79.05,0,0,0-91.53-62.63c-1.22,1.71-2.35,3.36-3.33,4.92-.1.17-.18.33-.27.5a74.56,74.56,0,1,1-54,93.84c-1.46.31-2.94.71-4.42,1.18A79.13,79.13,0,0,0,294.62,940ZM178,886.44a79.18,79.18,0,0,0-40.1,67.49c1.57-.76,3.11-1.42,4.63-2a74.59,74.59,0,0,1,35.64-60.29A28.88,28.88,0,0,1,178,886.44Z" transform="translate(-14.25 -3.61)"/><path class="cls-12" d="M197.93,906.19a14.26,14.26,0,0,1-10.52-4.39c-6.33-6.57-6.7-18.53-.85-27.83,4.9-7.78,12.19-16.72,19.92-26.18,10.06-12.33,21.47-26.29,29.34-40,14.12-24.58,16-47.64,5.07-61.71A30.8,30.8,0,0,0,195.94,742c-28.95,25.72-36.07,82-36.14,82.58a5.49,5.49,0,0,1-10.9-1.32c.3-2.48,7.66-61,39.74-89.47a41.78,41.78,0,0,1,60.92,5.59c13.77,17.71,12.2,45.34-4.21,73.92-8.32,14.5-20,28.83-30.37,41.49-7.5,9.19-14.59,17.87-19.12,25.08-3.35,5.32-3,11.83-.54,14.35,2.16,2.24,6.25.39,8.5-.91a5.49,5.49,0,0,1,5.51,9.5A23,23,0,0,1,197.93,906.19Z" transform="translate(-14.25 -3.61)"/><path class="cls-12" d="M226.25,797.6a5.49,5.49,0,0,1-5.27-4c-8.42-29.25-36.41-42.26-36.69-42.39a5.49,5.49,0,0,1,4.51-10c1.34.6,32.88,15.11,42.73,49.37a5.49,5.49,0,0,1-3.76,6.8A5.68,5.68,0,0,1,226.25,797.6Z" transform="translate(-14.25 -3.61)"/><path class="cls-12" d="M198.47,814.36a5.49,5.49,0,0,1-5-3.16c-8.77-18.74-26.33-27.29-26.51-27.37a5.49,5.49,0,0,1,4.73-9.92c.87.42,21.31,10.37,31.73,32.63a5.5,5.5,0,0,1-5,7.82Z" transform="translate(-14.25 -3.61)"/><path d="M1026,742l1.32-.29c1.34-.29,2.68-.61,4-.85a2.1,2.1,0,0,0,1.76-1.54c.38-1.14.78-2.27,1.21-3.4,1.2-3.12,2.62-6.14,4.11-9.13,2.07-4.14,4.18-8.25,6.27-12.38,0-.1.11-.2.17-.3a.54.54,0,0,1,.57-.24.86.86,0,0,1,.23,0,8.58,8.58,0,0,1,2.71,1.5,5.45,5.45,0,0,1,1.91,3.82,8,8,0,0,1-.66,3.83,14.73,14.73,0,0,1-1.69,3.09,26.26,26.26,0,0,0-3.24,6.13c-.78,2-1.46,4.07-2.06,6.15,0,.06,0,.12-.06.24.24,0,.45,0,.66-.09,2.94-.49,5.87-1,8.81-1.5l.53-.09a1,1,0,0,0,.77-.59c.13-.27.25-.54.37-.81a20.37,20.37,0,0,1,4.62-6.48,16.32,16.32,0,0,1,2.94-2.22,7.66,7.66,0,0,1,3-1.06,5.55,5.55,0,0,1,5.94,3.76,7.87,7.87,0,0,1,.37,2.45c0,1.23,0,2.46,0,3.69,0,.17,0,.34,0,.53l1.6.17a12.39,12.39,0,0,1,4.42,1.25,2,2,0,0,1,.77,3.18,9.44,9.44,0,0,1-1.68,1.72,26.25,26.25,0,0,1-5.46,3.27c-.83.38-1.68.74-2.52,1.1a1.92,1.92,0,0,0-1.08,1.05q-2.79,6.45-5.62,12.89a2.14,2.14,0,0,0-.17,1.51,1.77,1.77,0,0,0,1.75,1.33,4.16,4.16,0,0,0,2.4-.8c.7-.54,1.38-1.09,2.06-1.66s1.64-1.42,2.47-2.13a2.83,2.83,0,0,1,1.26-.74,1.57,1.57,0,0,1,1.54.52.85.85,0,0,1,.09,1.13,8,8,0,0,1-2.54,2.74,22.74,22.74,0,0,1-5.57,2.8,11,11,0,0,1-1.67.48,5.42,5.42,0,0,1-3.47-.54,2.41,2.41,0,0,1-1.36-2,5.79,5.79,0,0,1,.36-2.64c.23-.63.5-1.24.77-1.86l4.23-10c0-.06,0-.12.08-.22a2,2,0,0,0-.32.06l-11.56,3.06a1.23,1.23,0,0,0-.89.79c-.94,2.44-1.9,4.87-2.83,7.31a3.19,3.19,0,0,0-.15,1.07c0,2.33,0,4.66,0,7,0,2.5-.16,5-.37,7.49a87,87,0,0,1-3.56,18.78,46.68,46.68,0,0,1-5.46,11.85c-.14.21-.3.42-.44.64a4.21,4.21,0,0,1-3.47,2,6,6,0,0,1-1.2,0,3.14,3.14,0,0,1-2.29-1.52,6.74,6.74,0,0,1-.9-2.3,13.4,13.4,0,0,1-.29-3.63c.07-1.81.21-3.62.45-5.42a59.31,59.31,0,0,1,2-9.1,97.39,97.39,0,0,1,3.53-9.49,92.55,92.55,0,0,1,6.39-12.65c.63-1,1.27-2,2-3a8.59,8.59,0,0,0,1.48-5.86c0-.6-.13-1.21-.2-1.81a1.1,1.1,0,0,0-1.13-1c-.61,0-1.21,0-1.82,0a1.36,1.36,0,0,1-.2,0,1.78,1.78,0,0,0-1.52.78c-1.21,1.41-2.46,2.8-3.7,4.19a2.79,2.79,0,0,1-4,.38,1.88,1.88,0,0,1-.65-1.41,5.11,5.11,0,0,1,.08-1c.06-.33.15-.65.23-1a.76.76,0,0,0-.19,0c-1.36.18-2.72.35-4.07.55a3.63,3.63,0,0,0-2.29,1.44c-.55.68-1.09,1.38-1.64,2.07a24.77,24.77,0,0,1-3.53,3.71,10,10,0,0,1-3.62,2,2.55,2.55,0,0,1-3-1.35,4.75,4.75,0,0,1-.42-2.35,11.67,11.67,0,0,1,.54-2.74l.28-1-1.1-.08c-1.37-.09-2.74-.15-4.11-.26a21.58,21.58,0,0,1-5.25-1.18c-.32-.11-.63-.23-1-.33a3.8,3.8,0,0,1-1.78-1.19c-.09-.09-.17-.19-.26-.29a.79.79,0,0,0-1.1-.23l-.56.26c-3.34,1.52-6.67,3.06-9.89,4.81a2,2,0,0,1-1.93.09c-.52-.24-1-.44-1.56-.68a1.43,1.43,0,0,1-.71-.8,1.29,1.29,0,0,1,.94-1.67,15.31,15.31,0,0,0,3.32-.93c1.25-.51,2.47-1.07,3.71-1.6l3.79-1.6c.4-.18.81-.35,1.2-.55a1.5,1.5,0,0,0,.4-.36.62.62,0,0,0,.09-.58,8.37,8.37,0,0,1-.34-2.72,10,10,0,0,1,1-3.85,22.13,22.13,0,0,1,3.22-4.89,38.68,38.68,0,0,1,5.7-5.38c1.67-1.32,3.4-2.55,5.18-3.71a10.07,10.07,0,0,1,7-1.55c.41.05.82.11,1.22.2a5.31,5.31,0,0,1,3.53,2.59,9.66,9.66,0,0,1,1.11,3.17,18.51,18.51,0,0,1,.11,5.46c-.09.74-.2,1.46-.29,2.2A2.86,2.86,0,0,0,1026,742Zm-23.44,7c.22-.06.44-.09.64-.16l13.9-4.33c1.25-.39,2.49-.79,3.74-1.16a1.37,1.37,0,0,0,1-.82c.27-.65.58-1.28.84-1.92a12.4,12.4,0,0,0,1-4.69,4.51,4.51,0,0,0-1.18-3,4,4,0,0,0-4.59-1.11c-1.62.66-3.23,1.33-4.79,2.12a35.18,35.18,0,0,0-7.1,4.65,13.23,13.23,0,0,0-3.36,4.18,6.9,6.9,0,0,0-.68,4.37A6.59,6.59,0,0,0,1002.56,749Zm41.9,17c-.22-.1-.34-.08-.42.08s-.15.24-.21.37c-.86,1.64-1.78,3.25-2.56,4.93-1.45,3.07-2.83,6.16-4.21,9.26a48.41,48.41,0,0,0-2.39,6.48,40.42,40.42,0,0,0-1.39,10.32c0,1.33,0,2.65,0,4a16.15,16.15,0,0,0,.14,2.2,10.17,10.17,0,0,0,.47,1.72,1,1,0,0,0,.9.69,1.11,1.11,0,0,0,1.1-.53,3.11,3.11,0,0,0,.25-.52c.71-1.85,1.43-3.7,2.12-5.55a100,100,0,0,0,5.76-21.48,45.39,45.39,0,0,0,.48-5.45c0-1.78,0-3.55,0-5.32C1044.45,766.72,1044.46,766.33,1044.46,765.94Zm7.3-17.67a8.11,8.11,0,0,0,.94-.11c3-.67,6-1.36,8.92-2a4.69,4.69,0,0,0,3.26-2.3c.48-.88.87-1.82,1.3-2.73a1.41,1.41,0,0,0,.11-.45.51.51,0,0,0-.51-.6,4.24,4.24,0,0,0-.62,0l-4.65.37-5.64.47a.9.9,0,0,0-.85.63q-1,2.68-2,5.37A5.52,5.52,0,0,0,1051.76,748.27ZM1036,739.8l2.66-.45a.85.85,0,0,0,.56-.4,4.3,4.3,0,0,0,.24-.48l1.17-2.92a102.71,102.71,0,0,1,6.49-13.5,3,3,0,0,0,0-2.93,1.12,1.12,0,0,0-.63-.6c-.78-.29-1.27-.22-1.64.61q-3,6.69-6,13.38a47.12,47.12,0,0,0-2.29,5.61C1036.41,738.66,1036.22,739.19,1036,739.8Zm30.46-3.65c0-.41.06-.78.09-1.15a15,15,0,0,0-.19-4.33,8,8,0,0,0-.45-1.44,1.2,1.2,0,0,0-1.42-.76,3.79,3.79,0,0,0-.72.18,10.3,10.3,0,0,0-4.5,2.87,19,19,0,0,0-3.38,5.22s0,.07,0,.15ZM1039,750a1.51,1.51,0,0,0,1.67-.59l3.19-4a2,2,0,0,1,2.09-.77,2.17,2.17,0,0,1,1.88,2.06c0,.47,0,1,0,1.43v.68l1.56-.21a1.09,1.09,0,0,0,.94-.81c.27-.88.57-1.75.84-2.62a10.23,10.23,0,0,0,.53-2.5,3.46,3.46,0,0,0,0-.85.59.59,0,0,0-.56-.46,2.54,2.54,0,0,0-.39,0l-1.19.18-6.23,1.07c-.56.1-1.13.19-1.68.3a1.55,1.55,0,0,0-1.32,1.2c-.27,1-.58,2-.88,2.94A8.92,8.92,0,0,0,1039,750Zm-20.17-2h-.14l-7.29,1.86a42.36,42.36,0,0,0-6.12,2l-.39.18a2.27,2.27,0,0,0,1.16,1.55,6.54,6.54,0,0,0,1.32.54,13.92,13.92,0,0,0,4.11.51c1.11,0,2.22-.13,3.33-.18a1.46,1.46,0,0,0,1.29-.78,30.57,30.57,0,0,0,2.39-4.79C1018.58,748.6,1018.7,748.32,1018.82,748Zm1.8,5.17c1.37-.24,2.65-.48,3.92-.69a1.26,1.26,0,0,0,.79-.44c1.2-1.36,2.39-2.73,3.6-4.08a16.09,16.09,0,0,0,1.69-2.47,1.82,1.82,0,0,0,.06-.18,8.3,8.3,0,0,0-.91.13l-2.23.5-4.11,1a1.36,1.36,0,0,0-1,.9l-1.71,4.83A4.92,4.92,0,0,0,1020.62,753.19Zm8.95-1.6.13,0,3.49-.52a.65.65,0,0,0,.55-.42q1.17-2.65,2.33-5.29a2.72,2.72,0,0,0,.14-1.27,6.46,6.46,0,0,1-.83.13,2.3,2.3,0,0,0-2,1.21c-.25.41-.49.83-.74,1.23l-2.89,4.52Zm-11.84,10.32a2.9,2.9,0,0,0,1.81-.87,4.81,4.81,0,0,0,1.54-3.13,1.16,1.16,0,0,0-.84-1.22,2.73,2.73,0,0,0-1.78.2.82.82,0,0,0-.44.42c-.33.76-.68,1.51-1,2.28a6.06,6.06,0,0,0-.36,1.26C1016.54,761.51,1016.9,761.91,1017.73,761.91Zm50.94-18.41.15,0,4.21-2.27a1.64,1.64,0,0,0,.37-.28.62.62,0,0,0-.16-1.06,1.27,1.27,0,0,0-.32-.13,14.1,14.1,0,0,0-2.42-.34,1.41,1.41,0,0,0-1.31,1c0,.33-.14.65-.2,1C1068.88,742.09,1068.78,742.78,1068.67,743.5Zm-20,9c-1,.26-1.4,1.73-1.19,2.67Z" transform="translate(-14.25 -3.61)"/><path d="M1078,752.12c0,.32-.09.64-.15,1s-.14.66-.2,1a1.27,1.27,0,0,1-1,1.08,1.41,1.41,0,0,1-1.89-1c-.27-1-.51-1.92-.71-2.9a2.82,2.82,0,0,1,.09-1,.46.46,0,0,1,.39-.34,4.1,4.1,0,0,1,2,0,2,2,0,0,1,1.46,1.85c0,.13,0,.26,0,.39Z" transform="translate(-14.25 -3.61)"/></svg>