<?xml version="1.0" encoding="utf-8"?>
<!-- Generator: Adobe Illustrator 26.0.2, SVG Export Plug-In . SVG Version: 6.00 Build 0)  -->
<svg version="1.1" id="图层_1" xmlns="http://www.w3.org/2000/svg" xmlns:xlink="http://www.w3.org/1999/xlink" x="0px" y="0px"
	 viewBox="0 0 1080 1080" style="enable-background:new 0 0 1080 1080;" xml:space="preserve">
<style type="text/css">
	.st0{fill:#FE0000;}
	.st1{fill:#080403;}
	.st2{fill:#0A0606;}
	.st3{fill:#A2A2A2;}
	.st4{fill:#8C8B8B;}
	.st5{fill:#8D3030;}
	.st6{fill:#FEFEFE;}
	.st7{fill:#3F1F24;}
	.st8{fill:#3D3733;}
	.st9{fill:#0A0607;}
	.st10{fill:#3D3935;}
	.st11{fill:#F70830;}
	.st12{fill-rule:evenodd;clip-rule:evenodd;fill:#F70830;}
</style>
<g>
	<path class="st0" d="M433.6,860.5c-5.3,4.4-9.1,8.4-11.6,11.3c-6.1,7-11.4,14.7-11.4,14.7c-1.7,2.5-3.6,4.9-5.3,7.3
		c-4.5,6.5-6,7.3-7.1,7.1c-0.5-0.1-1.8-0.6-3.3-7.4c-1.5-6.9-1.5-12.3-1.5-12.6c0.1-20.5-0.3-14.3,0-22.6c0.3-8.5,0.4-12.8,0.8-17.9
		c0.7-9.4,1.7-16.4,2.7-23.2c1.2-7.8,2.9-17.9,5.4-29.6l0,0c2.3-10.8,4.9-20.1,7.3-27.7c4.8-15.2,9.6-26.2,11-29.3
		c4.9-11.1,9.4-19.1,10.7-21.4c3.3-5.8,6.2-10.3,8.7-14.3c1.9-3,5.8-9.1,10.6-15.7c6.4-9,11.8-15.2,18.1-22.5
		c12.3-14.2,23.2-25.4,31-32.8c5.4-5.1,10.6-10.5,16.4-15.1c6.8-5.5,13.6-11,20.4-16.5c11.2-9,23.2-17,34.8-25.4
		c5.2-3.8,10.9-7,16.5-10.4c8.8-5.3,17.5-10.6,26.4-15.6c7.4-4.1,14.9-7.9,22.5-11.7c10-5,20-9.8,30.1-14.6
		c13.1-6.2,26.5-11.7,40-17c12.3-4.9,24.7-9.5,37.3-13.7c11.1-3.7,22.3-7.6,33.4-11.5c6.3-2.2,13.1-3.2,19.4-5.4
		c6.6-2.3,13.4-4.2,20.1-6.1c6.9-2,14-3.9,21-5.6c6.5-1.6,13.1-2.8,19.4-5.2c3.8-1.5,8.1-1.8,12.1-2.7c8.9-2,17.7-3.9,26.5-6.2
		c2.2-0.6,4.5-0.6,6.7-1.4c1.8-0.6,0.9,1.1,0.4,2.2c-4.3,8.9-8.6,17.9-12.7,26.9c-7,15.4-13.5,31-18.1,47.4
		c-3.5,12.3-6.3,24.7-6.4,37.6c-0.1,12.2,3.2,23.6,7.3,34.9c4.8,13.4,8.4,27,10.2,41.2c1.7,13.5,1.8,27.1,0.7,40.5
		c-1,12.2-3.5,24.4-7.2,36.3c-5.2,16.6-12.6,32-22.8,46C843,768,829.5,780.9,813.6,791c-20.4,13-42.9,20.3-66.6,24.2
		c-20.7,3.4-41.5,4.4-62.4,3.9c-6.6-0.2-13.2,0-19.7-0.5c-8.8-0.7-17.7-1.9-26.4-3.1c-10.9-1.6-21.9-3.4-32.6-6.1
		c-6-1.5-11.9-3.2-17.8-4.7c-8.3-2.1-16.8-4-25.4-4.3c-5-0.2-10.1-0.4-15.1-0.1c-4.6,0.2-9.3,0.4-14,1.6c-2.4,0.6-5.5,0.5-8,1.2
		c-3.9,1.1-8,1.6-11.8,3.1c-2.3,0.9-9.1,3.2-10.2,3.7c-9.1,3.7-15.7,7.5-23.5,12c-4.7,2.7-7.8,4.6-12,7.5c-4.1,2.9-6.8,5.1-11.9,9.4
		c-5.9,4.9-9,7.4-12.6,11.1c-2.3,2.3-4.5,4.7-6.8,7.1C435.7,858.2,434.6,859.4,433.6,860.5z"/>
	<path class="st1" d="M608.8,126.8c1.7-0.4,2.3,1,3.2,1.9c17,18.7,32.4,38.7,45.5,60.4c9.5,15.7,17.3,32.2,23.1,49.6
		c4,11.8,6.7,24.1,8.3,36.7c1.2,9.8,1.6,19.6,1.2,29.3c-0.3,8.8-1.9,17.6-3.9,26.3c-2.8,12.3-7.2,24-13,35.1
		c-8.1,15.6-18.9,29.1-31.8,41c-14.3,13.2-30.1,24.4-46.3,35.2c-8.9,6-18.1,11.6-27.6,16.6c-11.4,6-22.8,12-34.7,16.9
		c-9.1,3.8-17.9,8.1-27,12c-14.2,6.1-27.9,12.9-40.6,21.7c-12.5,8.6-23.6,18.7-33.7,30c-5.6,6.3-11.2,12.8-15.9,19.9
		c-0.8,1.2-1.3,1.7-2.3-0.1c-8.6-15.1-11.4-30.7-6.6-47.8c4.5-15.9,13.4-29.1,23.8-41.5c12.2-14.6,26.3-27.2,40.8-39.3
		c14.2-11.8,28.9-23,43.4-34.4c17.2-13.6,34.8-26.8,51-41.7c10.1-9.2,20-18.7,28.3-29.5c10-13,16.4-27.8,20.4-43.7
		c3.7-14.6,5.8-29.3,6.3-44.2c0.8-21.7-0.4-43.3-3.4-64.9c-2.1-14.9-4.6-29.7-8.4-44.3C608.7,127.6,608.8,127.2,608.8,126.8z"/>
	<path class="st2" d="M390.2,454.1c-3.2,9-6.1,18.1-8.7,27.3c-2,7.3-4.1,14.5-5.9,21.8c-2.7,10.9-5.4,21.8-7.3,32.9
		c-1.5,8.6-3.2,17.2-4.4,25.8c-2.4,17.1-4.2,34.4-2.1,51.7c0.7,5.6,2.1,11.2,4.9,16.2c2.9,5.2,7.1,7.6,13.3,7.8
		c11.4,0.4,20.7-5,30.1-9.8c16.4-8.4,32.1-18.2,47.3-28.6c12.6-8.6,25.1-17.1,37.6-25.8c12-8.4,24.1-16.8,36-25.4
		c12.7-9.2,25.9-18,38.8-27c13.2-9.2,26.2-18.6,39.4-27.7c9.4-6.5,19-12.6,28.5-18.8c8.2-5.4,16.2-11.1,24.7-16
		c12.9-7.6,25.3-15.8,38.4-23c7.8-4.3,15.4-9,23.3-13c10.8-5.3,21.4-11,32.4-15.9c10.8-4.7,21.8-8.8,32.8-13.1
		c5.9-2.3,12-4.1,18.2-5.3c8.1-1.6,16.2-4,24.6-4.1c3.1-0.7,6.3-0.9,9.4-1.4c0.5,0,1,0,1.4,0c0.9,0.8,2.3-0.2,3.3,1.2
		c-2,1.5-4.5,0-6.4,1.1c-0.2,0-0.5,0-0.7,0.1c-2.6,0.9-5.3-0.3-7.8,0.7c-6.5,1.5-13.1,2.5-19.4,4.5c-12.5,3.8-24.7,8.4-36.6,13.8
		c-10.9,5-21.7,10.3-32.2,16.1c-16.7,9.2-33.2,18.8-49.2,29.2c-12.4,8.1-25,16.1-37.3,24.4c-9.4,6.3-18.5,12.9-27.7,19.3
		c-11.9,8.3-23.8,16.5-35.5,24.9c-13.7,9.8-27.3,19.7-41,29.5c-11.4,8.1-22.9,16.1-34.4,24.2c-10.7,7.5-21.3,15.2-32.1,22.7
		c-7.4,5.1-14.9,10.1-22.4,15.1c-9.3,6.1-18.4,12.5-28,17.9c-15.3,8.7-30.4,18.3-48,21.6c-15.3,2.9-28-3.2-33.2-19.2
		c-3.4-10.5-3.7-21.2-3.1-32.1c0.7-11.6,2.2-23.1,4.4-34.5c2.3-11.5,5.3-22.8,8.4-34.1c5.4-19.8,11.8-39.3,18.9-58.6
		c2.2-5.9,3.9-11.9,6.4-17.8C390.8,452.5,390.6,453.3,390.2,454.1z"/>
	<path class="st3" d="M390.2,454.1c-0.2-0.6,0.2-1.5-0.8-1.6c0.6-6,4-11,6.1-16.5c0.7-1.8,0.8-4.1,3.5-5.7
		C395.9,438.7,393.1,446.4,390.2,454.1z"/>
	<path class="st4" d="M839.9,385.1c1.5-1.2,3.3-0.9,5-0.9c-0.4-0.7-1.7-0.3-2-1.3c6.6-1,12.7,1,19,2.3
		C854.7,384.7,847.3,385.4,839.9,385.1z"/>
	<path class="st4" d="M841.6,382.8c-3.1,0.9-6.2,1.6-9.4,1.4C835.2,383.1,838.2,382,841.6,382.8z"/>
	<path class="st4" d="M831.4,385.8c2.5-1.2,5.2-0.6,7.8-0.7C836.7,386.7,834,385.9,831.4,385.8z"/>
	<path class="st5" d="M836.1,688.4c-2,1.1-5.5,3.1-9.7,4.8c-4.6,1.9-7.9,2.7-14.5,4.3c-3.9,0.9-9.1,2.1-15.2,3.1
		c-4,0.4-9.5,0.8-16,1c-9.5,0.3-16.5,0-23-0.2c-4.2-0.2-14.3-0.6-28.1-2c-6.6-0.7-6.7-0.8-27.4-3.3c-20.3-2.5-18.9-2.2-25.3-3.1
		c-15.1-2.1-18-3.2-31-5c-6.5-0.9-15.4-2-26-2.8c-4.6-1-5.6-1.1-5.6-1c-0.1,0.3,8.7,3.1,17.1,5.2c3.9,1,7,1.6,13,2.9
		c6.6,1.4,12,2.4,15.8,3.1c5.3,1.1,12.8,2.5,21.9,4.1c18.4,3.2,27.8,4.9,39.8,6c15.6,1.4,27.1,1.1,43.9,0.6
		c21.1-0.6,31.1-2.1,34.5-2.7c18.7-3.1,27-7.2,32.9-11.1c4.5-3,7.8-6,9.9-8.2C841.5,685.2,839,686.7,836.1,688.4z"/>
	<path class="st6" d="M556.8,711.6c0.1-1.1,0.8-1.4,1.8-1.5c28-3.4,55.7-2.6,83.4,2.9c9.7,1.9,19.5,3.4,29.4,3.5
		c0.5,0,0.9,0.4,1.4,0.6c-3.5,5.2-6.8,10.4-10.8,15.3c-3.5,4.2-6.9,8.5-11,12c-8,6.9-16.1,13.6-25.3,19c-7.9,4.6-15.8,9-24.2,12.4
		c-6.7,2.8-13.3,5.6-20.3,7.6c-3.2,0.9-6.7,1.8-9.8,3.2c-0.9,0.4-1.7,0.5-2.4-0.4c6.9-5.7,12.1-12.5,14.7-21.2
		c4.8-15.8,1.4-29.7-9.3-41.9C569.8,717.7,564.1,713.4,556.8,711.6z"/>
	<path class="st6" d="M459.7,778.5c1.4-0.8,3.3-2.2,5.3-4.2c2.2-2.4,3.2-4.3,4.3-6.2c0.7-1.1,1.1-1.6,9-9.8
		c4.2-4.4,6.9-7.1,10.6-10.6c2.8-2.7,5.5-4.6,5.5-4.6c4.1-3.3,7-5.2,8.6-8.6c0.1-0.3,0.5-1,0.5-1c0.2,0.1-1.7,4.3-2.7,9.1
		c-0.8,3.9-0.7,6.9-0.6,10c0.1,2.8,0.3,6.9,1.6,11.9c0.9,3.2,2.4,8.7,6.7,14.3c4,5.2,8.4,8,10.5,9.4c3.4,2.1,6.5,3.4,8.8,4.2
		c-1.5,0.3-3.5,0.7-5.9,1.1c-2.1,0.4-5.1,0.9-8.6,1.2c-2.6,0.2-5.1,0.3-9.1,0.3c-3.2,0-2.8-0.1-12.4-0.5c-4-0.1-4.9-0.2-6.9-0.3
		c-3.3-0.3-6-0.7-7.6-1c-2.2-0.4-4-0.7-6.4-1.2c-1.5-0.3-2.6-0.5-4.3-0.9c-4.1-0.9-6.2-1.3-7.7-1.7c-4-1.1-7.1-1.9-7.1-3
		c0-0.8,1.5-0.7,3.2-2.7c1.2-1.4,1.3-2.4,2.8-3.8C458.5,779.2,459.2,778.8,459.7,778.5z"/>
	<path class="st7" d="M556.9,710.5c-5.8-2-10.8-2.4-14-2.4c-7.2,0-12.8,2-17.7,3.8c-3.9,1.5-6.9,2.9-11.5,5.4
		c-13.8,7.3-20.7,11-26,15.1c-6.5,4.9-10.2,9-17.7,17.2c-3.5,3.9-7.5,8.2-8.6,14.9c-0.2,1.5-0.7,3-0.5,4.6c0.1,0.4,0.1,0.7,0.1,0.9
		c0,0,0,0.5,0,1.1c0,1.3-2.5,7.2-3.5,10.2c-1.3,3.9-1,5.1-0.8,5.6c0.7,1.6,2.2,2.4,3.2,2.8c-2.9-0.4-15.4-2.1-18-9.1
		c-0.3-0.7-0.4-1.5-0.5-2c-0.5-2.5-0.9-7,1.8-13.4c1.8-4.4,4.9-11.1,9.9-18.5c20.2-30.6,50.2-43.7,66-49.9
		c16.2-6.4,29.1-9.5,39-11.5c22.8-4.6,36.2-3.8,40.1-3.5c6.1,0.4,11.1,1.3,14.5,2c1.5,0.3,3,0.8,8.2,2.2c2.4,0.6,4.7,1.2,7,1.8
		c4.5,1.1,7.6,1.7,11.2,2.5c13.1,2.8,22.8,4.6,24.9,5c2.8,0.4,16.6,2.6,23.1,3.4c3.8,0.4,12,1.4,16.1,2.1c7.2,1.1,11.7,1.8,17.2,2.8
		c10.8,2,12.9,2.8,21.6,4.4c5.3,1,13,2.3,22.5,3.4c-1,0.1-6.1,0.3-6.3,0.3c-4.3-0.2-14.6,0-17.8,0c-5.6,0.1-8.5,0.1-10.9,0.3
		c-6.5,0.3-17.9,1-14.8,1c5,0,8.8,0.3,13.3,0.6c1.7,0.1,12.5,1.1,15.2,1.4c2.4,0.3,3,0.3,3,0.5c0.1,0.5-5.2,1.4-5.8,1.5
		c-16.2,2.8-36.5,2-36.5,2c-5.7,0-15.4-0.2-30.7-1.7c-9.1-0.9-16.5-1.9-20.9-2.5c-13.4-1.9-14-2.5-24.9-4c-11.4-1.5-19.8-2-25.4-2.3
		c-11.3-0.6-19.9-0.1-22.6,0C570.6,708.8,563.1,709.6,556.9,710.5z"/>
	<path class="st8" d="M503.6,735.6c-1.7,4.9-8.2,11-8.2,11c-3.3,3.1-3.1,2.5-10.1,8.6c-2.2,1.9-4,3.6-5.7,5.1
		c-3.1,2.9-5,4.6-7.5,7.1c-0.8,0.8-3.2,3.2-6.1,6.6c-0.4,0.5-2.2,2.5-4.3,5.4c-1.9,2.6-2.7,4.1-3.1,6c-0.2,1.2-0.2,2.3-0.1,3
		c-0.5-0.4-1.3-1-1.8-2.1c-0.8-1.3-0.8-2.6-0.9-3.8c0-0.1,0-0.3,0-0.5c0-2.4,0.3-4.6,0.4-5c0.1-0.9,0.5-2.8,1.1-5.5
		c0.4-1.5,1.1-4.1,2.4-7.4c0.6-1.5,1.8-4.4,3.8-7.8c2.1-3.4,4-5.6,6.6-8.6c3.2-3.6,5.8-6,8.8-8.9c3.8-3.5,6.7-6,7.4-6.6
		c2.4-2,5.4-4.5,9.5-7.3c2.4-1.6,4.8-3.3,8.2-5.1c3.5-1.9,6.2-2.9,10.1-4.5c4.1-1.6,6.4-2.2,8.3-2.7c1.4-0.3,2.6-0.6,3.5-0.7
		c-4.1,2.6-7.3,5.1-9.6,7c-2.1,1.8-3.7,3.1-5.7,5.3c-4.4,4.8-5.9,8.1-6.4,9.4c-0.2,0.4-0.3,0.9-0.3,0.9c0,0,0,0,0,0
		C504,734.4,503.6,735.6,503.6,735.6z"/>
	<path class="st6" d="M354.4,831.2"/>
	<path class="st0" d="M403.5,815.3"/>
	<path class="st6" d="M133.5,894.7"/>
	<path class="st9" d="M565.6,789c-2.6,1.5-6.3,3.2-10.9,4.5c-6.6,1.8-11.9,1.7-13.5,1.6c-4.5-0.2-8.9-1.7-13.4-2.7
		c-1.5-0.3-9.2-3.4-15.3-9c-12.7-11.8-12.4-30.3-12.3-33.4c0-4.4,0.6-12.5,5.4-20.7c0.6-1,3.6-5.4,8.6-10.3c3.2-3.1,7-5.1,11-7.1
		c10.4-4.5,20.9-5,31.7-1.5c18.8,7,29.1,20.9,30.1,40.6c0.3,5.3-0.4,10.4-2,15.2c0,0-3.4,10.3-12.4,18.2c-1.5,1.4-3.1,2.4-3.1,2.4
		C567.9,787.9,566.6,788.6,565.6,789z"/>
	<path class="st10" d="M606.8,708.6c0-0.1,3.4-0.2,6.2-0.3c1.6,0,2.2,0,6.8,0c5.3,0,7,0.1,10.2,0.1c5.1,0,5,0.1,11.7,0.2
		c2.4,0,3.2,0,5.2,0.1c4.2,0.1,6.5,0.3,14.9,0.4c6.9,0.1,12.6,0.1,16.3,0c-0.8,1.6-1.5,2.9-2.1,3.8c-0.5,0.9-1.1,1.7-1.9,2.8
		c-0.5,0.8-1,1.4-1.3,1.8c-2.4-0.2-4.4-0.4-5.8-0.5c-3.5-0.3-5.3-0.5-5.8-0.5c-4.1-0.3-4.6-0.4-6.5-0.6c-4.4-0.6-7.9-1.1-11.7-1.7
		c-4.3-0.6-6.4-1-7.3-1.1c-1.4-0.3-2.6-0.5-13.9-3.1l0,0c-2-0.4-4.9-0.8-8.4-1.1C609.6,708.7,606.8,708.7,606.8,708.6z"/>
</g>
<path d="M606.1,1046.8c-117.4,0-225.7-39.9-311.5-106.8c-1.9-1.5-3.9-3-5.8-4.6c1.8,6.3,2.7,13,2.7,19.8c0,13.3-3.5,25.7-9.6,36.5
	c1.3,0.8,2.6,1.6,3.9,2.4c82.7,52,180.5,82.2,285.2,82.2c206,0,384.4-115.5,474-285.5C958.1,943.3,793.6,1046.8,606.1,1046.8z"/>
<g>
	
		<rect x="114.9" y="484.5" transform="matrix(0.7071 -0.7071 0.7071 0.7071 -313.0335 233.0342)" class="st11" width="19.8" height="19.8"/>
</g>
<g>
	
		<rect x="163.3" y="484.5" transform="matrix(0.7071 -0.7071 0.7071 0.7071 -298.8586 267.2943)" class="st11" width="19.8" height="19.8"/>
</g>
<g>
	<path d="M1045,289.1c-86.8-152.5-251.3-255-438.9-255c-263.8,0-480,200.9-504.1,458.2H75.4v4.6h26.1c-1.2,14.4-1.8,28.9-1.8,43.5
		c0,3,0,5.9,0.1,8.9l-15.4,15.5l3.2,3.2l12.3-12.4c0.7,24.8,3,49.3,7.1,73.1c-3.4,3-5.4,7.7-5.2,12.5c0.1,2.9,0.5,5.3,2.3,8.2
		c-5,0.2-17.6,7.2-14.6,22c2-8,7.2-9.7,9.4-10.1c3.8-0.7,9.6,0.5,15.6,2.6c0.9,3.5,1.8,7,2.8,10.5H73.4v-0.2
		c-0.2-4.6-0.6-15.3-9.6-23.3c1.2-0.8,2.5-1.5,4-2.1l-1.5-3.3c-2.1,0.9-3.9,2-5.6,3.1c-1.6-1.1-3.5-2.1-5.6-3.1l-1.5,3.3
		c1.5,0.6,2.8,1.3,4,2.1c-4.9,4.4-7.3,9.6-8.4,14.2C39.8,625.3,35,583.3,35,540.5C35,243.8,275.3,3.6,571,3.6
		C777,3.6,955.3,119.1,1045,289.1z"/>
	<path d="M291.5,955.2c0,13.3-3.5,25.7-9.6,36.5c-7.5-4.8-14.9-9.8-22.1-15c2.8-4,4.6-8.2,5.1-12.3c1.8-12.3-8.8-19.8-8.9-19.8
		c-0.2-0.1-0.2-0.3-0.2-0.5c0.2-0.6,4.4-14-7.6-20.9c-3.5-1.7-6.7-2.6-9.8-2.6c-7,0-10.5,4.6-10.7,4.9c0.1,0.2-0.1,0.3-0.2,0.5
		c-0.1,0.1-0.2,0.1-0.3,0.1c-0.1,0-0.3,0-0.4-0.1c-3.1-1.6-8.4-4.3-14.2-4.3c-4.6,0-8.8,1.8-12.2,5.2c-0.1,0.1-0.2,0.2-0.3,0.3
		c-6.5-6.2-12.9-12.6-19.1-19.2h76.7c10,9.5,20.4,18.6,31.1,27.2C290.6,941.7,291.5,948.4,291.5,955.2z"/>
	<rect x="75.4" y="492.3" class="st11" width="149.9" height="4.6"/>
</g>
<g>
	<polygon class="st11" points="138,517.3 129.2,526.1 124.7,530.7 99.9,555.7 87.6,568.1 84.4,564.8 99.8,549.3 134.8,514 	"/>
</g>
<g>
	<rect x="124.7" y="525.2" class="st11" width="4.6" height="86.1"/>
</g>
<g>
	<polygon class="st11" points="175,617.6 171.7,617.6 170.9,520.8 175.5,520.8 	"/>
</g>
<g>
	<g>
		<path class="st11" d="M267.4,739c-0.1,0-0.1,0-0.2,0c-0.4-0.1-0.8-0.5-0.7-0.9c0.7-23.2-7.5-33.6-20-42.1
			c-7.1-4.8-15.2-8.4-23.9-12.2c-5.4-2.4-10.9-4.8-16.4-7.6c-25.3-13.1-34.2-47.8-34.5-62.5c-0.4-16,6.3-32.4,17.9-44
			c7.2-7.2,15.3-10.6,25.6-10.6c5.2,0,11.1,0.8,18.7,2.6c3.4,0.8,6.6,1.2,9.6,1.2c10.3,0,14.7-4.8,14.8-4.8c0.3-0.3,0.7-0.4,1-0.2
			c0.4,0.2,0.6,0.5,0.6,0.9c-3.2,40.3-21.7,44.9-35.4,44.9c0,0,0,0,0,0c-6.1,0-12.2-1-18.1-2c-4.6-0.8-9-1.5-12.8-1.6
			c-7.5-0.2-12.7,1.4-15.7,4.9c-3.4,3.9-2.8,8.6-2.7,8.7c1.4,16.4,17.7,15.9,35.8,15.7c10.8-0.1,22.4-0.3,32.5,3.1
			c12,4,20.9,11.7,26.4,22.9c15.7,31.9-1.3,82.4-1.5,82.9C268.1,738.7,267.8,739,267.4,739z M173.9,617.5c1.7,15.5,11,45.4,33.2,57
			c5.4,2.8,10.9,5.2,16.3,7.6c8.7,3.8,17,7.5,24.2,12.4c14,9.5,20.1,20.3,20.8,37.4c3.9-14.2,12-50.8-0.2-75.6
			c-5.3-10.7-13.8-18.1-25.3-21.9c-9.8-3.3-21.3-3.1-31.9-3c-2,0-3.9,0-5.9,0C190.4,631.4,176.9,630.3,173.9,617.5z M215.3,560.9
			c-9.7,0-17.5,3.2-24.3,10c-10.2,10.2-16.5,24.3-17.3,38.4c0.4-1.7,1.3-3.7,2.8-5.5c3.4-3.9,9.1-5.8,17.2-5.6
			c3.9,0.1,8.3,0.8,13,1.6c5.8,1,11.9,2,17.8,2c0,0,0,0,0,0c13.8,0,29.9-4.7,33.4-41.1c-2.3,1.6-6.9,3.9-14.3,3.9
			c-3.1,0-6.5-0.4-10-1.3C226.1,561.8,220.3,560.9,215.3,560.9z"/>
	</g>
	<g>
		<path class="st11" d="M173.7,609.6c-0.1,0-0.2,0-0.3,0c-0.5-0.1-0.8-0.7-0.6-1.1c0.1-0.2,7.2-23.5,34.4-17.1
			c27.3,6.4,39.6-0.9,50.5-29.9c0.2-0.5,0.7-0.7,1.2-0.5c0.5,0.2,0.7,0.7,0.5,1.2c-11.2,29.8-24.4,37.7-52.6,31.1
			c-25.5-6-32,14.9-32.2,15.8C174.5,609.4,174.1,609.6,173.7,609.6z"/>
	</g>
	<g>
		<path class="st11" d="M173.6,606.7c-0.1,0-0.2,0-0.3-0.1c-0.5-0.2-0.7-0.7-0.6-1.2c0.1-0.3,10-27.2,35.4-21
			c21.8,5.3,40.2-3.9,49.3-24.7c0.2-0.5,0.7-0.7,1.2-0.5c0.5,0.2,0.7,0.7,0.5,1.2c-7.3,16.7-24.7,32.2-51.4,25.7
			c-23.8-5.8-32.9,18.8-33.2,19.9C174.3,606.4,174,606.7,173.6,606.7z"/>
	</g>
	<g>
		<path class="st11" d="M173.1,604.1c-0.1,0-0.2,0-0.3-0.1c-0.5-0.2-0.7-0.7-0.5-1.2c0.1-0.3,14.2-34,39.4-30.4
			c21.7,3.1,35.8-0.9,45.5-12.9c0.3-0.4,0.9-0.4,1.3-0.1c0.4,0.3,0.5,0.9,0.1,1.3c-10.2,12.5-24.8,16.7-47.2,13.5
			c-23.7-3.3-37.3,28.9-37.4,29.2C173.8,603.9,173.5,604.1,173.1,604.1z"/>
	</g>
	<g>
		<path class="st11" d="M267.7,736.5c-0.1,0-0.1,0-0.2,0c-0.5-0.1-0.8-0.6-0.7-1.1c2.6-12.2,10-53.9-6-76.9
			c-12.3-17.7-32.5-18.9-50.4-20c-6.8-0.4-13.2-0.8-18.4-2.1c-19-4.8-20.2-21.7-20.2-21.9c0-0.5,0.4-0.9,0.9-1c0.4,0,0.9,0.4,1,0.9
			c0,0.6,1.2,15.8,18.8,20.2c5.1,1.3,11.4,1.7,18.1,2.1c17.4,1,39,2.3,51.8,20.8c16.4,23.6,9,65.9,6.3,78.3
			C268.5,736.2,268.1,736.5,267.7,736.5z"/>
	</g>
	<g>
		<path class="st11" d="M267.9,731.6C267.9,731.6,267.9,731.6,267.9,731.6c-0.6,0-0.9-0.5-0.9-1c4.9-75.8-34-80.2-59.7-83.2
			c-4-0.5-7.8-0.9-11.1-1.6c-24.5-4.9-24.4-30-24.4-30.2c0-0.5,0.4-0.9,0.9-0.9c0.5,0,0.9,0.4,0.9,0.9c0,1-0.1,23.7,22.9,28.4
			c3.2,0.6,6.9,1.1,10.9,1.5c26.4,3,66.4,7.7,61.3,85.1C268.8,731.2,268.4,731.6,267.9,731.6z"/>
	</g>
	<g>
		<path class="st11" d="M268.1,731.8C268.1,731.8,268.1,731.8,268.1,731.8c-0.5,0-0.9-0.4-0.9-0.9c0.6-49.5-27.1-59.5-59.2-71.2
			c-36.7-13.3-35.5-39.5-35.5-39.8c0-0.5,0.5-0.9,1-0.9c0.5,0,0.9,0.5,0.9,1c0,0.3-1.1,25.1,34.2,37.9
			c32.8,11.9,61.1,22.1,60.5,72.9C269.1,731.4,268.6,731.8,268.1,731.8z"/>
	</g>
</g>
<g>
	<g>
		<path class="st11" d="M68,841.5c-0.6,0-1.1,0-1.7,0l0.1-5.5c0.5,0,1.1,0,1.6,0c54.1,0,55.4-44.4,55.4-46.3l0-81.9l0.8-42.2
			l6.6,0.1l-0.8,42.2l0,81.9C130,790.5,127.4,841.5,68,841.5z"/>
	</g>
	<g>
		<rect x="109.9" y="689.6" class="st11" width="35.3" height="6.8"/>
	</g>
	<g>
		<path class="st11" d="M106.4,720.4c-0.1-0.2-3.2-4.1-8.5-4.7c-4-0.5-8.9,0.3-13.5,3.2c-11.8-8.4-11.5-19.1-11.1-32.5
			c0.1-3.8,0.2-7.8,0.1-12v-0.2c-0.2-4.6-0.6-15.3-9.6-23.3c-0.9-0.8-1.9-1.6-3-2.4c-1.6-1.1-3.5-2.1-5.6-3.1l-1.5,3.3
			c1.5,0.6,2.8,1.3,4,2.1c1.1,0.7,2.1,1.4,3,2.2c7.3,6.1,8.7,14.3,9,21.3v0c0.2,4.1,0,8-0.1,11.8c-0.4,13.7-0.7,25.6,11.7,34.9
			c-2.1,1.9-4.1,4.4-5.8,7.4c-0.3,0.6-7.8,14-5.9,31.7c1.7,16.2,0.6,27-8.9,33.2c-1.1,0.7-2.3,1.4-3.6,2c-3,1.4-6.7,2.4-11,3.2
			l0.6,3.6c5.7-1,10.3-2.5,14-4.5c1.3-0.7,2.5-1.5,3.6-2.3c9.5-7.2,10.6-19.2,8.9-35.6c-1.8-16.5,5.4-29.4,5.5-29.5
			c1.7-3.2,3.7-5.4,5.7-7.1c2.4,1.4,14.5,7.9,21.9-0.6l1-1.1L106.4,720.4z M88,721.1c4.1-2.1,7.9-1.9,9.5-1.7
			c2.2,0.3,3.9,1.3,4.9,2.2C97.8,725,91.2,722.6,88,721.1z"/>
	</g>
	<g>
		<path class="st11" d="M64.4,795.6c-1.3-0.6-2.5-1.2-3.6-2c-9.5-6.2-10.6-17-8.9-33.2c1.9-17.7-5.6-31.1-5.9-31.7
			c-1.7-3.1-3.7-5.5-5.8-7.5c12.4-9.4,12.1-21.3,11.7-34.9c-0.1-3.8-0.2-7.8-0.1-11.8v0c0.3-7,1.7-15.2,9-21.3
			c0.9-0.8,1.9-1.5,3-2.2c1.2-0.8,2.5-1.5,4-2.1l-1.5-3.3c-2.1,0.9-3.9,2-5.6,3.1c-1.1,0.8-2.1,1.6-3,2.4c-4.9,4.4-7.3,9.6-8.4,14.2
			c-1,3.8-1.1,7.1-1.2,9.1c-0.2,4.2,0,8.2,0.1,12.1c0.4,13.4,0.7,24.2-11.1,32.5c-4.6-2.9-9.5-3.7-13.5-3.2
			c-5.3,0.6-8.4,4.6-8.5,4.7l-0.9,1.2l1,1.1c7.4,8.5,19.5,2,21.9,0.6c2,1.7,4,3.9,5.7,7.1c0.1,0.1,7.2,13,5.5,29.5
			c-1.7,16.4-0.6,28.3,8.9,35.6c1.1,0.8,2.3,1.6,3.6,2.3c3.7,2,8.3,3.5,14,4.5l0.6-3.6C71.1,798,67.4,796.9,64.4,795.6z M19.2,721.5
			c1-0.9,2.7-1.9,4.9-2.2c1.6-0.2,5.3-0.3,9.5,1.7C30.4,722.6,23.8,725,19.2,721.5z"/>
	</g>
	<g>
		<path class="st12" d="M130.8,665.8l-0.2,5.3c-2-1-4.1-2.1-6.4-3.2c-3.1-1.5-6.5-2.8-9.7-4c-6-2.1-11.7-3.4-15.6-2.6
			c-2.2,0.4-7.4,2.2-9.4,10.1c-3-14.8,9.5-21.8,14.6-22c-1.8-2.9-2.2-5.3-2.3-8.2c-0.2-4.8,1.8-9.5,5.2-12.5c1.5-1.4,3.4-2.4,5.4-3
			c7.8-2.1,15.1,2.9,16.4,10.8c-0.2-0.3-0.7-0.5-1.2-0.4l-1.3,0c-4.5,0.2-10.6,2.9-10.2,12.8C116.3,655.7,123.6,659.8,130.8,665.8
			C130.7,665.8,130.7,665.8,130.8,665.8z"/>
	</g>
	<g>
		<path class="st12" d="M73.5,834.8c0,3.6-2.9,6.5-6.5,6.5c-3.6,0-6.5-2.9-6.5-6.5c0-3.6,2.9-6.5,6.5-6.5
			C70.6,828.4,73.5,831.3,73.5,834.8z"/>
	</g>
</g>
<path class="st11" d="M264.9,964.5c-0.5,4-2.3,8.3-5.1,12.3c-6.6,9.3-18.8,17.1-32.3,17.2c-1.1,0-2.3,0.1-3.4,0.1
	c-17.4,0-29.6-4.9-35.3-9.5l-16.7-11.2c-0.3-0.2-6.8-4.8-18.2-4.8c-8.5,0-17.3,2.5-26.3,7.5c-8.5,4.7-16.8,7.1-24.6,7.1
	c-7,0-12.5-1.9-16.4-3.8c2.7,0.7,6,1.2,9.8,1.2c9.9,0,19.5-3.6,28.6-10.7c13.1-9.7,23.4-14.1,33.3-14.1c9.5,0,19,3.9,31.1,10.2
	c13.1,6.8,22.3,9.8,29.8,9.8c4.5,0,8.3-1.1,12.2-2.2l0.5-0.1c4.7-1.4,8.9-4.7,11.5-9.1c0.4-0.6,0.7-1.3,1-2
	c2.7-5.9,2.5-12.9-0.7-19.6c-3.4-7.2-10.6-11.4-19.3-11.4c-5.9,0-11.4,2.1-14.1,5.2c-0.1,0.1-0.1,0.2-0.2,0.2
	c-6.3,8-6.4,16.8-0.2,21.9c1.3,1,2.8,1.4,4.2,1.4c2.4,0,4.6-1.3,5.9-3.4c1.3-2.2,1.3-4.8,0-7.2c-0.6-1-1.1-1.7-1.4-2.2
	c3.5,0.7,8,2.5,8.8,7.8c0.3,3.8-0.9,7.3-3.3,10c-2.6,2.8-6.3,4.3-10.4,4.3c-3.1,0-6.1-0.8-9.2-2.5c-10.4-5.9-5.5-16.7-5.3-17.2
	c0.1-0.2,0-0.3,0-0.5c-0.3-0.5-8.1-12,0.9-22.3c0.1-0.1,0.2-0.2,0.3-0.3c3.5-3.5,7.6-5.2,12.2-5.2c5.8,0,11.1,2.7,14.2,4.3
	c0.1,0,0.2,0.1,0.4,0.1c0.1,0,0.3,0,0.3-0.1c0.1-0.2,0.3-0.3,0.2-0.5c0.3-0.3,3.8-4.9,10.7-4.9c3,0,6.3,0.9,9.8,2.6
	c12,6.8,7.8,20.3,7.6,20.9c-0.1,0.2,0,0.4,0.2,0.5C256.1,944.8,266.7,952.2,264.9,964.5z"/>
<path class="st11" d="M116.7,957c-1.5-9.2-14.7-15.9-23.8-9.2c-9.1,6.7-5.3,16.4-3.1,18.1c3.2,2.8,10.3,2.8,10-3
	c-1.3-4.7-6.4-2.4-6.4-2.4s-3.7-3,2-7.8c5.7-4.7,13-1.3,15.1,3.1c1.6,5.1,0.7,14.6-12,16.7c-13.6,0.6-15.3-7.3-15.3-7.3
	c-3.7,4.4-8.7,0.7-15.4,1.7c-5.4,0.3-13.7,5.8-19.4,7.7c-7.6,1.8-11.5-4.3-11.5-4.3s0.4,5.3,7.1,7.2c9.5,1.7,18.6-7.1,27.6-7.4
	c6.2-0.3,18.2,5.5,18.2,5.5C110,981.4,118.6,966.9,116.7,957L116.7,957z"/>
<path class="st11" d="M294.6,940c-7.1-36.3-39.2-63.9-77.7-63.9c-4.7,0-9.4,0.4-13.9,1.2c-1.2,1.7-2.4,3.4-3.3,4.9
	c-0.1,0.2-0.2,0.3-0.3,0.5c5.6-1.4,11.5-2.1,17.5-2.1c34.2,0,63.2,23.2,71.9,54.7c1.8,6.3,2.7,13,2.7,19.8c0,13.3-3.5,25.7-9.6,36.5
	c-12.8,22.7-37.1,38-65,38c-33.7,0-62.2-22.5-71.4-53.2c-1.5,0.3-2.9,0.7-4.4,1.2c9.7,32.7,40,56.6,75.8,56.6
	c29.5,0,55.2-16.2,68.8-40.2c6.5-11.5,10.3-24.8,10.3-39C296.1,950,295.6,944.9,294.6,940z M178,886.4
	c-23.6,13.4-39.6,38.6-40.1,67.5c1.6-0.8,3.1-1.4,4.6-2c1.1-25.5,15.1-47.7,35.6-60.3C177.9,889.9,177.9,888.2,178,886.4z"/>
<path class="st11" d="M197.9,906.2c-4.1,0-7.7-1.5-10.5-4.4c-6.3-6.6-6.7-18.5-0.9-27.8c4.9-7.8,12.2-16.7,19.9-26.2
	c10.1-12.3,21.5-26.3,29.3-40c14.1-24.6,16-47.6,5.1-61.7c-5.3-6.9-13-11.1-21.6-11.9c-8.5-0.8-16.9,2-23.4,7.7
	c-28.9,25.7-36.1,82-36.1,82.6c-0.4,3-3.1,5.1-6.1,4.8c-3-0.4-5.2-3.1-4.8-6.1c0.3-2.5,7.7-61,39.7-89.5c8.8-7.8,20-11.5,31.7-10.5
	c11.6,1.1,22,6.8,29.3,16.1c13.8,17.7,12.2,45.3-4.2,73.9c-8.3,14.5-20,28.8-30.4,41.5c-7.5,9.2-14.6,17.9-19.1,25.1
	c-3.3,5.3-3,11.8-0.5,14.3c2.2,2.2,6.3,0.4,8.5-0.9c2.6-1.5,6-0.6,7.5,2c1.5,2.6,0.6,6-2,7.5C205.4,905.1,201.5,906.2,197.9,906.2z"
	/>
<g>
	<path class="st11" d="M226.3,797.6c-2.4,0-4.6-1.6-5.3-4c-8.4-29.3-36.4-42.3-36.7-42.4c-2.8-1.3-4-4.5-2.7-7.3
		c1.2-2.8,4.5-4,7.2-2.8c1.3,0.6,32.9,15.1,42.7,49.4c0.8,2.9-0.8,6-3.8,6.8C227.3,797.5,226.8,797.6,226.3,797.6z"/>
</g>
<g>
	<path class="st11" d="M198.5,814.4c-2.1,0-4-1.2-5-3.2c-8.8-18.7-26.3-27.3-26.5-27.4c-2.7-1.3-3.9-4.6-2.6-7.3
		c1.3-2.7,4.6-3.9,7.3-2.6c0.9,0.4,21.3,10.4,31.7,32.6c1.3,2.7,0.1,6-2.6,7.3C200,814.2,199.2,814.4,198.5,814.4z"/>
</g>
</svg>
