<?xml version="1.0" encoding="utf-8"?>
<!-- Generator: Adobe Illustrator 26.0.2, SVG Export Plug-In . SVG Version: 6.00 Build 0)  -->
<svg version="1.1" id="图层_1" xmlns="http://www.w3.org/2000/svg" xmlns:xlink="http://www.w3.org/1999/xlink" x="0px" y="0px"
	 viewBox="0 0 1920 1080" style="enable-background:new 0 0 1920 1080;" xml:space="preserve">
<style type="text/css">
	.st0{display:none;fill:#FFFFFF;}
	.st1{fill:#FE0000;}
	.st2{fill:#0A0606;}
	.st3{fill:#A2A2A2;}
	.st4{fill:#8C8B8B;}
	.st5{fill:#8D3030;}
	.st6{fill:#FEFEFE;}
	.st7{fill:#3F1F24;}
	.st8{fill:#3D3733;}
	.st9{fill:#0A0607;}
	.st10{fill:#3D3935;}
</style>
<path d="M418.5,517.1c0.6-5.4,1.6-10.9,1.8-16.4c0.9-25.1,5-49.8,10.2-74.3c10.5-49.6,27.8-96.7,51.8-141.5
	c15.5-28.9,33.4-56.3,54-81.8c17.4-21.5,36.3-41.6,56.8-60.3c20.2-18.5,41.3-35.7,64.4-50.3c20-12.7,40.9-24,61.8-35.2
	c22.5-12,46.3-20.6,70.5-28.5c31.6-10.3,63.9-17.4,96.9-21.5c27.7-3.5,55.7-4.3,83.6-3.6c26.9,0.7,53.6,3.5,80,8.2
	c28.5,5.1,56.8,11.8,83.8,22.3c22.6,8.8,45.2,18.1,67,28.8c17.4,8.5,33.8,19.1,50.5,29.1c22.5,13.5,43,29.9,62.9,46.9
	c21.8,18.7,41.8,39.3,60.4,61.2c20.1,23.7,38.3,48.7,54.6,75.1c14.4,23.4,27,47.8,38.1,73c1.1,2.5,2,5.1,2.3,7.9
	c-3.2-6.8-6.4-13.7-9.6-20.5c-16.9-35.2-36.6-68.8-59.7-100.2c-21.4-29.1-45.3-56.2-71.9-80.7c-22.2-20.5-45.9-39.1-71-56
	c-23.3-15.7-47.7-29.3-73.1-41.2c-25.5-11.9-51.8-21.5-78.8-29.3C1060.3,15.2,1014.2,8.1,967,7.6c-1.2,0-2.4-0.3-3.7-0.4
	c-1-0.1-2-0.1-4-0.2c6.7,8,11.4,15.6,23.5,15.9c19.8,0.5,39.7,2.7,59.4,5.8c20.2,3.1,40.2,7.9,60.1,12.5c8.9,2.1,17.4,5.5,26,8.8
	c-49.9-15.6-101-24.3-153.9-25.7c3,3.8,5.7,7.3,8.6,10.9c22.2,27.9,41.2,57.7,54.3,91c10.4,26.4,16.8,53.8,16.7,82.3
	c-0.2,47.1-16.2,88.3-48.8,122.4c-11.4,11.9-24.3,22.5-37.7,32.2c-17.5,12.8-35.6,24.9-54.3,35.8c-15,8.8-31.1,15.7-46.8,23.1
	c-21.4,10.1-43.5,19.1-64.4,30.2c-21.7,11.5-40.2,27.5-56.3,46.2c-6.8,7.9-13.3,16-20.6,24.8c-2.7-6.2-5.9-12-7.9-18.2
	c-8.2-25.1-1.1-47.8,12.3-69.1c13.2-20.9,30.3-38.5,49.1-54.4c17.3-14.6,34.9-28.9,52.5-43.1c13.7-11,27.7-21.7,41.4-32.6
	c21.7-17.3,42.9-35.2,61.2-56.1c14.9-17.1,24.2-36.9,29.9-58.9c8-30.6,9.2-61.6,6.9-92.8c-1.7-23.2-5.8-46.2-8.7-69.4
	c-0.4-2.9-1.5-4.3-4.7-4.1c-11.9,0.7-24,0.5-35.8,2c-21.6,2.7-43.3,5.1-64.5,9.8C835.2,41.1,814,48,793,55.2
	c-15.2,5.2-30.1,11.5-44.4,18.7c-18.4,9.3-36.7,19.2-53.9,30.6c-18.6,12.3-36.2,26.3-53.9,39.9c-6.3,4.8-11.8,10.7-17.3,16.7
	c76-65.2,164.5-103.6,262.1-122c-6,1.8-12,3.7-18,5.4c-12.8,3.6-25.9,6.4-38.5,10.9C807.7,62.9,786.3,71,765.3,80
	c-29.3,12.7-56.8,28.8-83,47.1c-22,15.3-42.6,32.2-61.5,51.1c-22.2,22.1-41.9,46.5-59.5,72.5c-20.5,30.2-37.9,62.1-51.8,95.8
	c-13.3,32.2-23.1,65.4-29.8,99.5c-7,35.7-10.4,71.7-9.9,108.1c0.6,43.3,7.4,85.6,20.2,127c11.8,38.4,28.4,74.6,49.3,108.8
	c15.1,24.8,32.3,48.2,51.8,69.7c11.5,12.7,23.9,24.6,36.3,36.4c9.5,9,19.2,18,29.7,25.9c13.6,10.3,27.8,19.9,42.1,29.1
	c12.3,7.9,24.8,15.4,37.7,22.3c10,5.4,20.5,9.9,31,14.3c13.4,5.7,26.9,11.7,40.7,16.3c14.1,4.8,28.6,8.6,43.2,12.1
	c11.2,2.7,22.6,4.3,33.9,6.3c27.4,4.8,55.1,5.7,82.8,4.5c9.7-0.4,19.4-1.8,29.1-3.1c14.1-1.9,28.3-3.8,42.3-6.5
	c12-2.4,23.8-5.8,35.5-9c10-2.8,20-5.7,29.8-9.2c11.3-4,22.5-8.4,33.5-13c8.5-3.6,16.9-7.6,25.2-11.8c16.4-8.2,33-16.2,48.9-25.2
	c17.1-9.7,33.9-20.1,50.1-31.2c16.8-11.6,31.5-25.7,45.2-40.8c11.7-12.9,24.4-25,36.7-37.3c25.1-25.1,44.7-54,59.2-86.4
	c5.4-12.1,11.2-23.9,17.1-35.8c3.5-7.1,8.1-13.7,11.3-20.9c2.7-6,4.1-12.5,6.1-18.8c0.5-1.7,1.2-3.4,2.3-5c-1.6,16.5-7.2,32-11,47.9
	c14.3-32.3,25-65.6,29.7-100.8c0.6,0.1,1.1,0.2,1.7,0.3c-1.4,10.9-2.8,21.7-4.2,32.6c0.6,0.1,1.2,0.2,1.8,0.4
	c1.6-6.7,3.1-13.5,4.7-20.2c0.5,0.1,0.9,0.2,1.4,0.2c-1.4,13.2-2.5,26.5-4.4,39.7c-1.9,13-4.7,25.8-6.4,38.8
	c11.8-34.4,13.8-70.7,19.1-106.4c0.4,0,0.8,0,1.2,0c0,4.8,0,9.6,0,14.5c0.5,0,0.9,0.1,1.4,0.1c1.2-8.2,2.4-16.3,3.6-24.5
	c0.4,0,0.8,0.1,1.2,0.1c-0.5,10.4-0.9,20.8-1.4,31.2c0.6,0,1.1,0.1,1.7,0.1c8.1-34.9,9.7-70.5,10.4-106.2c0.4-0.1,0.8-0.1,1.2-0.2
	c1.4,4.6,3,9.1,4.2,13.8c4.5,18.3,5.1,37,4.9,55.8c-0.3,32.6-5.8,64.5-14.2,95.9c-10,37.5-24.5,73.3-43.2,107.4
	c-19.1,34.8-41.6,67.2-67.8,97.1c-18,20.5-37.2,39.6-57.9,57.2c-23,19.6-47.6,37-73.6,52.5c-38.2,22.8-78.7,40.5-121.2,53.4
	c-24.2,7.3-48.9,12.7-73.9,16.8c-39.5,6.3-79.2,7.1-119,5.3c-25.1-1.2-50-4.8-74.7-9.8c-23-4.7-45.9-9.8-68-17.7
	c-19.3-6.8-38.5-14.3-57.2-22.7c-16.9-7.6-33.5-16.1-49.3-25.8c-18.4-11.2-36.5-23.2-53.5-36.4c-18.1-14.1-35.7-29.1-52-45.2
	c-16-15.8-30.7-33.1-44.7-50.7c-27.1-33.8-48.7-71.1-66.4-110.6c-11.3-25.1-20.4-50.9-27.5-77.5c-8.1-30.3-14-61-16.6-92.3
	c-0.6-7-0.7-14.1-1.2-21.2c-0.2-2.4-0.7-4.8-1.1-7.2C418.5,544.8,418.5,530.9,418.5,517.1z M960.2,21.5c-0.9-3.8-1.7-7.2-2.4-10.6
	c-0.6-2.8-2-4-5.2-3.7c-24,2.1-48,3.6-72,6.1c-28.8,3-56.7,10.2-84.2,19.1c-15.4,5-30.4,11.2-45.5,17c-22.3,8.6-43.6,19.6-63.8,32.2
	c-18,11.3-35.4,23.5-52.7,35.9c-23.5,16.9-44.4,36.9-64.1,58c-23.6,25.1-44.3,52.5-62.6,81.7c-21.6,34.6-38.9,71.1-51.9,109.7
	c-13.4,39.6-22,80.2-25.5,121.9c-2.3,27.2-3.3,54.3-1,81.4c2.1,24.9,6,49.7,9.4,74.5c0.8,5.8,2.7,11.4,4,17
	c-26.2-163,5.7-312.1,109.5-441.9C656.1,89.9,794,26.2,960.2,21.5z"/>
<path class="st0" d="M935.7,127c-137.9,4-252.4,56.8-338.6,164.6C511,399.4,484.5,523.2,506.2,658.5c-1.1-4.7-2.7-9.4-3.3-14.1
	c-2.8-20.6-6.1-41.1-7.8-61.8c-1.9-22.5-1.1-45,0.8-67.6c2.9-34.6,10.1-68.3,21.2-101.2c10.8-32,25.2-62.3,43.1-91
	c15.2-24.3,32.4-47,52-67.8c16.4-17.5,33.7-34.1,53.2-48.1c14.3-10.3,28.8-20.4,43.8-29.8c16.8-10.5,34.4-19.6,52.9-26.8
	c12.5-4.9,25-10,37.8-14.1c22.8-7.4,46-13.4,69.9-15.9c19.9-2.1,39.8-3.3,59.8-5.1c2.6-0.2,3.8,0.8,4.3,3.1
	C934.3,121.1,934.9,123.9,935.7,127z"/>
<g>
	<path class="st1" d="M778.9,889c-6.4,5.3-11,10.2-14.1,13.7c-7.4,8.5-13.8,17.9-13.8,17.9c-2.1,3-4.4,5.9-6.5,8.9
		c-5.5,7.9-7.3,8.9-8.6,8.6c-0.6-0.1-2.2-0.7-4-9c-1.9-8.4-1.8-14.9-1.8-15.3c0.1-24.9-0.3-17.4,0-27.4c0.3-10.3,0.5-15.5,0.9-21.7
		c0.9-11.4,2.1-19.8,3.3-28.2c1.4-9.5,3.5-21.7,6.5-35.9l0,0c2.8-13.1,6-24.4,8.9-33.6c5.8-18.4,11.7-31.8,13.4-35.6
		c6-13.5,11.4-23.2,13-26c4-7.1,7.5-12.5,10.6-17.4c2.3-3.6,7.1-11,12.8-19c7.8-10.9,14.3-18.4,22-27.3
		c14.9-17.2,28.1-30.8,37.6-39.8c6.6-6.2,12.9-12.7,19.9-18.3c8.3-6.6,16.4-13.4,24.7-20c13.6-11,28.1-20.6,42.2-30.8
		c6.3-4.6,13.2-8.5,20-12.6c10.6-6.4,21.2-12.8,32.1-18.9c8.9-5,18.1-9.6,27.3-14.2c12.1-6,24.3-11.9,36.5-17.7
		c15.9-7.5,32.2-14.2,48.5-20.7c14.9-5.9,29.9-11.5,45.2-16.6c13.5-4.5,27-9.2,40.4-13.9c7.7-2.7,15.9-3.9,23.6-6.6
		c8-2.8,16.2-5,24.3-7.4c8.4-2.4,16.9-4.7,25.5-6.8c7.8-2,15.8-3.4,23.5-6.3c4.6-1.8,9.8-2.1,14.7-3.2c10.7-2.4,21.5-4.8,32.2-7.5
		c2.7-0.7,5.4-0.8,8.1-1.6c2.2-0.7,1.1,1.4,0.5,2.7c-5.2,10.9-10.5,21.7-15.5,32.6c-8.5,18.7-16.3,37.6-21.9,57.4
		c-4.2,14.9-7.7,29.9-7.7,45.6c-0.1,14.8,3.9,28.6,8.9,42.3c5.9,16.2,10.2,32.8,12.4,50c2.1,16.4,2.1,32.9,0.8,49.1
		c-1.2,14.8-4.2,29.5-8.7,44c-6.3,20.2-15.2,38.8-27.6,55.7c-13.5,18.4-29.8,34.1-49.1,46.3c-24.7,15.7-52,24.6-80.8,29.4
		c-25.1,4.1-50.3,5.4-75.7,4.8c-8-0.2-16,0-23.9-0.6c-10.7-0.9-21.4-2.3-32.1-3.8c-13.3-1.9-26.5-4.1-39.5-7.4
		c-7.2-1.8-14.4-3.9-21.6-5.7c-10.1-2.5-20.4-4.8-30.8-5.2c-6.1-0.2-12.3-0.5-18.4-0.2c-5.6,0.3-11.3,0.5-17,1.9
		c-2.9,0.7-6.7,0.6-9.7,1.5c-4.7,1.3-9.7,1.9-14.3,3.8c-2.7,1.1-11,3.9-12.4,4.4c-11,4.5-19,9-28.5,14.6c-5.7,3.3-9.4,5.5-14.5,9.1
		c-4.9,3.5-8.2,6.2-14.4,11.3c-7.1,5.9-10.9,9-15.2,13.5c-2.7,2.8-5.5,5.7-8.2,8.6C781.5,886.2,780.2,887.6,778.9,889z"/>
	<path class="st2" d="M726.3,396.3c-3.8,10.9-7.4,22-10.5,33.1c-2.4,8.8-5,17.6-7.2,26.5c-3.2,13.2-6.5,26.5-8.8,39.9
		c-1.8,10.4-3.9,20.9-5.4,31.3c-3,20.8-5.1,41.7-2.6,62.7c0.8,6.8,2.6,13.5,6,19.6c3.5,6.3,8.6,9.2,16.2,9.4
		c13.8,0.4,25.1-6.1,36.5-11.9c19.9-10.2,38.9-22.1,57.4-34.7c15.2-10.4,30.5-20.7,45.5-31.3c14.6-10.2,29.2-20.3,43.6-30.8
		c15.4-11.2,31.3-21.8,47-32.7c16-11.2,31.8-22.5,47.8-33.6c11.4-7.8,23-15.2,34.6-22.8c10-6.5,19.7-13.4,29.9-19.5
		c15.6-9.2,30.7-19.2,46.6-27.9c9.4-5.2,18.6-11,28.2-15.7c13.1-6.5,25.9-13.4,39.3-19.2c13.1-5.7,26.5-10.6,39.8-15.8
		c7.1-2.8,14.5-5,22-6.4c9.9-1.9,19.6-4.8,29.8-5c3.8-0.9,7.6-1.2,11.4-1.7c0.6,0,1.2,0,1.8,0c1.1,0.9,2.8-0.3,4,1.4
		c-2.4,1.9-5.4,0-7.8,1.3c-0.3,0-0.6,0-0.9,0.1c-3.1,1.1-6.4-0.3-9.5,0.8c-7.9,1.8-15.8,3.1-23.6,5.4c-15.2,4.6-30,10.1-44.4,16.7
		c-13.2,6-26.3,12.5-39,19.5c-20.2,11.2-40.2,22.8-59.6,35.4c-15.1,9.8-30.3,19.5-45.2,29.5c-11.4,7.6-22.4,15.6-33.6,23.4
		c-14.4,10.1-28.8,20-43.1,30.2c-16.6,11.8-33.1,23.9-49.7,35.7c-13.8,9.8-27.8,19.5-41.7,29.3c-13,9.1-25.9,18.4-38.9,27.5
		c-9,6.2-18,12.3-27.1,18.3c-11.2,7.4-22.3,15.1-34,21.8c-18.6,10.5-36.9,22.2-58.3,26.2c-18.6,3.5-34-3.8-40.2-23.2
		c-4.1-12.7-4.5-25.7-3.8-39c0.8-14.1,2.7-28.1,5.4-41.9c2.7-13.9,6.5-27.6,10.2-41.3c6.6-24,14.4-47.7,22.9-71.1
		c2.6-7.2,4.8-14.5,7.7-21.5C727.1,394.2,726.8,395.2,726.3,396.3z"/>
	<path class="st3" d="M726.3,396.3c-0.3-0.7,0.2-1.8-1-1.9c0.7-7.3,4.9-13.3,7.5-19.9c0.8-2.2,0.9-5,4.2-6.9
		C733.3,377.5,729.8,386.9,726.3,396.3z"/>
	<path class="st4" d="M1271.7,312.5c1.8-1.4,4-1,6.1-1.1c-0.5-0.9-2.1-0.3-2.4-1.6c8-1.2,15.4,1.3,23.1,2.8
		C1289.5,312.1,1280.6,312.9,1271.7,312.5z"/>
	<path class="st4" d="M1273.7,309.8c-3.7,1.1-7.5,1.9-11.4,1.7C1265.9,310.1,1269.6,308.8,1273.7,309.8z"/>
	<path class="st4" d="M1261.3,313.4c3.1-1.4,6.3-0.7,9.5-0.8C1267.8,314.4,1264.5,313.5,1261.3,313.4z"/>
	<path class="st5" d="M1267,680.3c-2.4,1.4-6.7,3.7-11.8,5.8c-5.5,2.3-9.6,3.3-17.5,5.2c-4.8,1.1-11,2.5-18.4,3.7
		c-4.9,0.4-11.5,0.9-19.4,1.2c-11.5,0.4-20.1,0-27.9-0.3c-5-0.2-17.4-0.8-34.1-2.4c-8-0.8-8.2-0.9-33.2-4c-24.7-3-22.9-2.6-30.7-3.7
		c-18.3-2.6-21.9-3.9-37.6-6.1c-7.9-1.1-18.7-2.4-31.6-3.4c-5.5-1.2-6.7-1.4-6.8-1.2c-0.1,0.4,10.5,3.7,20.8,6.3
		c4.7,1.2,8.5,2,15.8,3.5c8,1.6,14.6,2.9,19.2,3.8c6.4,1.3,15.5,3.1,26.5,5c22.3,3.9,33.7,5.9,48.3,7.2c19,1.7,32.8,1.3,53.3,0.7
		c25.6-0.8,37.7-2.6,41.9-3.3c22.6-3.7,32.8-8.7,39.9-13.4c5.5-3.6,9.5-7.3,12-9.9C1273.5,676.4,1270.6,678.3,1267,680.3z"/>
	<path class="st6" d="M928.4,708.5c0.1-1.4,0.9-1.7,2.2-1.8c33.9-4.1,67.6-3.1,101.2,3.5c11.7,2.3,23.6,4.1,35.7,4.3
		c0.6,0,1.1,0.5,1.7,0.7c-4.2,6.3-8.2,12.6-13.1,18.5c-4.2,5.1-8.3,10.2-13.3,14.5c-9.7,8.3-19.5,16.5-30.7,23.1
		c-9.5,5.6-19.2,10.9-29.4,15.1c-8.1,3.3-16.1,6.7-24.6,9.2c-3.9,1.1-8.1,2.2-11.9,3.9c-1.1,0.5-2.1,0.6-2.9-0.5
		c8.3-6.9,14.7-15.1,17.8-25.7c5.8-19.1,1.8-36-11.3-50.8C944.1,715.9,937.2,710.6,928.4,708.5z"/>
	<path class="st6" d="M810.6,789.6c1.7-1,4-2.6,6.4-5.1c2.7-2.9,3.8-5.2,5.2-7.5c0.8-1.4,1.3-1.9,11-11.9c5.1-5.3,8.3-8.6,12.8-12.8
		c3.4-3.2,6.7-5.6,6.7-5.6c4.9-4,8.4-6.4,10.4-10.5c0.2-0.3,0.6-1.2,0.7-1.2c0.2,0.1-2.1,5.2-3.3,11.1c-0.9,4.7-0.8,8.3-0.7,12.1
		c0.1,3.4,0.3,8.4,1.9,14.4c1,3.9,2.9,10.5,8.1,17.3c4.8,6.3,10.1,9.7,12.8,11.4c4.1,2.6,7.9,4.1,10.7,5.1c-1.8,0.4-4.2,0.9-7.1,1.4
		c-2.6,0.4-6.2,1.1-10.4,1.4c-3.1,0.3-6.1,0.4-11.1,0.3c-3.8,0-3.4-0.1-15-0.6c-4.9-0.2-6-0.2-8.4-0.4c-4-0.4-7.3-0.9-9.2-1.2
		c-2.7-0.4-4.9-0.9-7.7-1.4c-1.9-0.4-3.2-0.6-5.2-1.1c-5-1.1-7.5-1.6-9.3-2.1c-4.9-1.3-8.6-2.3-8.6-3.7c0-1,1.8-0.9,3.9-3.3
		c1.5-1.7,1.6-2.9,3.4-4.6C809.2,790.5,810,789.9,810.6,789.6z"/>
	<path class="st7" d="M928.4,707.1c-7.1-2.4-13-2.9-16.9-2.9c-8.8,0.1-15.5,2.5-21.4,4.7c-4.8,1.8-8.3,3.5-13.9,6.5
		c-16.7,8.9-25.1,13.3-31.6,18.3c-7.9,6-12.4,11-21.4,20.9c-4.3,4.7-9.1,10-10.4,18.1c-0.3,1.8-0.9,3.7-0.6,5.6
		c0.1,0.5,0.1,0.8,0.1,1.1c0,0,0,0.6,0,1.3c0,1.6-3,8.8-4.2,12.3c-1.6,4.7-1.2,6.1-1,6.8c0.8,1.9,2.7,2.9,3.9,3.5
		c-3.5-0.4-18.7-2.5-21.8-11.1c-0.3-0.9-0.5-1.8-0.6-2.4c-0.6-3-1.1-8.5,2.1-16.2c2.2-5.3,6-13.4,12-22.5c24.5-37.1,60.9-53,80-60.5
		c19.6-7.7,35.3-11.5,47.2-13.9c27.6-5.6,43.9-4.6,48.7-4.3c7.4,0.5,13.4,1.5,17.6,2.4c1.8,0.4,3.7,1,10,2.6
		c2.9,0.8,5.7,1.5,8.5,2.2c5.4,1.3,9.2,2.1,13.6,3c15.9,3.3,27.6,5.6,30.2,6c3.4,0.5,20.1,3.2,28,4.1c4.6,0.5,14.5,1.7,19.6,2.5
		c8.7,1.4,14.2,2.2,20.9,3.4c13,2.4,15.7,3.3,26.2,5.3c6.4,1.2,15.7,2.8,27.2,4.1c-1.2,0.2-7.4,0.3-7.7,0.3c-5.2-0.2-17.7,0-21.6,0
		c-6.8,0.1-10.3,0.2-13.3,0.3c-7.9,0.4-21.7,1.2-18,1.2c6,0,10.7,0.4,16.1,0.7c2.1,0.1,15.2,1.3,18.4,1.7c2.9,0.3,3.6,0.4,3.6,0.6
		c0.1,0.6-6.3,1.7-7.1,1.9c-19.6,3.4-44.3,2.5-44.3,2.5c-6.9,0-18.6-0.2-37.3-2c-11.1-1.1-20-2.3-25.3-3c-16.2-2.3-17-3.1-30.2-4.8
		c-13.8-1.8-24.1-2.4-30.8-2.8c-13.7-0.7-24.2-0.2-27.4,0C945.1,705.1,936,706,928.4,707.1z"/>
	<path class="st8" d="M863.8,737.6c-2,5.9-9.9,13.4-9.9,13.4c-4,3.8-3.7,3-12.2,10.4c-2.6,2.3-4.9,4.3-6.9,6.1
		c-3.8,3.5-6.1,5.6-9.1,8.6c-0.9,0.9-3.8,3.9-7.4,8c-0.5,0.6-2.6,3.1-5.2,6.5c-2.3,3.2-3.3,4.9-3.8,7.2c-0.3,1.5-0.3,2.8-0.2,3.6
		c-0.6-0.5-1.5-1.3-2.2-2.5c-0.9-1.6-1-3.1-1.1-4.6c0-0.2,0-0.3,0-0.6c0-2.9,0.4-5.6,0.5-6.1c0.2-1.1,0.5-3.4,1.4-6.7
		c0.5-1.8,1.3-5,2.9-9c0.7-1.8,2.1-5.3,4.6-9.4c2.5-4.2,4.8-6.8,8.1-10.5c3.8-4.3,7-7.3,10.7-10.8c4.6-4.3,8.1-7.2,9-8
		c3-2.5,6.5-5.4,11.5-8.9c2.9-2,5.8-4,9.9-6.2c4.3-2.3,7.6-3.6,12.3-5.4c4.9-1.9,7.7-2.7,10.1-3.3c1.7-0.4,3.2-0.7,4.2-0.9
		c-5,3.2-8.9,6.2-11.6,8.4c-2.6,2.2-4.5,3.8-6.9,6.4c-5.3,5.9-7.1,9.8-7.8,11.4c-0.2,0.5-0.4,1.1-0.4,1.1c0,0,0,0,0,0
		C864.2,736.2,863.8,737.6,863.8,737.6z"/>
	<path class="st6" d="M682.9,853.5"/>
	<path class="st1" d="M742.5,834.2"/>
	<path class="st6" d="M415,930.5"/>
	<path class="st9" d="M939.1,802.3c-3.1,1.8-7.6,3.9-13.2,5.4c-8,2.2-14.5,2-16.4,2c-5.4-0.2-10.8-2.1-16.2-3.2
		c-1.8-0.4-11.2-4.1-18.6-11c-15.4-14.3-15-36.8-14.9-40.5c0-5.3,0.7-15.2,6.5-25.1c0.7-1.2,4.3-6.5,10.5-12.4
		c3.9-3.8,8.5-6.2,13.3-8.6c12.6-5.4,25.4-6,38.4-1.8c22.8,8.5,35.3,25.4,36.5,49.2c0.3,6.4-0.5,12.6-2.4,18.4
		c0,0-4.2,12.4-15.1,22.1c-1.9,1.7-3.8,2.9-3.8,2.9C941.9,801,940.2,801.8,939.1,802.3z"/>
	<path class="st10" d="M988.9,704.9c0-0.1,4.1-0.3,7.5-0.3c1.9,0,2.6,0,8.2,0c6.4,0.1,8.5,0.1,12.4,0.1c6.2,0.1,6.1,0.2,14.1,0.2
		c2.9,0,3.9,0,6.4,0.1c5.1,0.1,7.9,0.3,18.1,0.4c8.4,0.1,15.3,0.1,19.8,0c-0.9,2-1.8,3.5-2.5,4.6c-0.7,1-1.4,2.1-2.3,3.4
		c-0.6,0.9-1.2,1.7-1.6,2.2c-2.9-0.3-5.4-0.5-7.1-0.6c-4.3-0.4-6.5-0.6-7-0.6c-4.9-0.4-5.6-0.4-7.9-0.7c-5.4-0.7-9.6-1.3-14.2-2
		c-5.2-0.8-7.8-1.2-8.8-1.4c-1.6-0.3-3.1-0.6-16.8-3.8l0,0c-2.4-0.4-5.9-1-10.2-1.3C992.4,705,988.9,705,988.9,704.9z"/>
</g>
</svg>
