<?xml version="1.0" encoding="utf-8"?>
<!-- Generator: Adobe Illustrator 23.0.5, SVG Export Plug-In . SVG Version: 6.00 Build 0)  -->
<svg version="1.1" id="图层_1" xmlns="http://www.w3.org/2000/svg" xmlns:xlink="http://www.w3.org/1999/xlink" x="0px" y="0px"
	 viewBox="0 0 800 800" style="enable-background:new 0 0 800 800;" xml:space="preserve">
<style type="text/css">
	.st0{fill:#F27225;}
	.st1{fill:#2C96B5;}
	.st2{fill:#2B83B1;}
</style>
<path class="st0" d="M636.7,183.26c-22.27,12.32-45.73,21.77-70.18,28.74c-26.09,7.45-52.61,11.63-79.9,10.57
	c-17.3-0.67-34.11-3.4-50.55-8.74c-1.52-0.49-3.08-1.56-4.76-0.35c0.01-0.1,0.06-0.14,0.06-0.25c-0.35-0.67-0.94-1.09-1.61-1.36
	c-7.08-2.9-14.1-5.93-20.79-9.68c-0.54-0.3-1.15-0.26-1.75-0.16c-0.85-0.44-1.72-0.84-2.54-1.32
	c-18.36-10.77-33.55-25.1-47.26-41.26c-21.68-25.56-43.3-51.16-66.82-75.11c-38.59-39.3-84.95-62.24-139.67-68.69
	c-22.13-2.61-44.3-3.8-66.55-3.63c-11.4,0.09-22.82-0.13-34.18,0.88c-0.16,1.36,0.64,2.19,1.15,3.1c10.99,19.55,22,39.1,33.01,58.64
	c38.38,68.14,76.76,136.29,115.15,204.43c26.67,47.34,53.36,94.67,80.04,142c0.05,1.51,0.42,2.79,2.07,3.17
	c-0.56,1.97,0.72,3.38,1.56,4.9c5.11,9.25,10.11,18.55,14.68,28.1c13.86,28.96,24.68,58.94,31.24,90.4
	c4.78,22.92,7,46.06,5.04,69.43c-2.2,26.37-9.62,51.16-23.67,73.78c-0.77,1.24-2.17,2.43-1.11,4.21
	c8.17-7.82,15.4-16.49,22.38-25.35c20.4-25.86,38.26-53.44,55.64-81.38c36.75-59.08,73.76-117.99,110.62-176.99
	c42.02-67.24,84-134.51,125.98-201.77c5.65-9.05,11.17-18.17,16.74-27.27C639.16,181.67,637.94,182.57,636.7,183.26"/>
<path class="st1" d="M281.64,424.17c10.19,17.95,19.51,36.33,27.35,55.44c13.34,32.47,23.15,65.89,26.01,101.01
	c3.26,40.1-2.79,78.27-24.98,112.81c-0.31,0.49-0.44,1.09-0.66,1.64c-12.24,13.31-25.85,25.1-40.39,35.8
	c-35.46,26.07-74.79,43.45-118.05,51.77c-29.46,5.66-59.11,7.07-88.92,3.17c-1.3-0.17-2.59-0.49-4.33-0.83
	c3.84-6.16,7.55-12.13,11.27-18.1c43.2-69.21,86.02-138.66,128.2-208.5c27.59-45.69,54.95-91.53,82.41-137.3
	C280.24,422.1,280.94,423.14,281.64,424.17"/>
<path class="st2" d="M640.73,182.3c-28.5,15.86-58.58,27.72-90.4,34.95c-32.83,7.47-65.81,9.48-98.97,1.98
	c-6.8-1.54-13.39-3.75-20.05-5.74c-8.21-3.44-16.54-6.63-24.09-11.46c47.41-70.6,109.55-123.61,188.16-156.71
	c49-20.63,100.02-32.19,154.08-32.76C712.91,69.64,676.82,125.97,640.73,182.3"/>
</svg>
