<?xml version="1.0" encoding="utf-8"?>
<!-- Generator: Adobe Illustrator 26.0.2, SVG Export Plug-In . SVG Version: 6.00 Build 0)  -->
<svg version="1.1" id="图层_1" xmlns="http://www.w3.org/2000/svg" xmlns:xlink="http://www.w3.org/1999/xlink" x="0px" y="0px"
	 viewBox="0 0 1080 1080" style="enable-background:new 0 0 1080 1080;" xml:space="preserve">
<style type="text/css">
	.st0{fill:#FE0000;}
	.st1{fill:#080403;}
	.st2{fill:#0A0606;}
	.st3{fill:#A2A2A2;}
	.st4{fill:#8C8B8B;}
	.st5{fill:#8D3030;}
	.st6{fill:#FEFEFE;}
	.st7{fill:#3F1F24;}
	.st8{fill:#3D3733;}
	.st9{fill:#0A0607;}
	.st10{fill:#3D3935;}
</style>
<g>
	<path class="st0" d="M273.2,1017.2c-7.3,6-12.5,11.6-16,15.6c-8.4,9.6-15.6,20.3-15.6,20.3c-2.3,3.4-5,6.7-7.3,10.1
		c-6.2,9-8.3,10.1-9.7,9.8c-0.7-0.1-2.5-0.8-4.6-10.2c-2.1-9.5-2.1-17-2.1-17.4c0.1-28.3-0.4-19.7,0-31.2
		c0.4-11.7,0.5-17.6,1.1-24.6c1-13,2.4-22.5,3.8-32c1.6-10.7,3.9-24.6,7.4-40.7l0,0c3.2-14.9,6.8-27.7,10.1-38.1
		c6.6-20.9,13.3-36.1,15.2-40.4c6.8-15.3,13-26.3,14.7-29.5c4.5-8,8.5-14.2,12-19.7c2.6-4.1,8-12.5,14.5-21.6
		c8.9-12.3,16.2-20.9,25-31c16.9-19.6,31.9-34.9,42.7-45.2c7.5-7,14.7-14.4,22.6-20.8c9.4-7.5,18.7-15.2,28-22.7
		c15.4-12.4,31.9-23.3,47.9-35c7.2-5.3,15-9.7,22.7-14.3c12.1-7.3,24.1-14.6,36.4-21.5c10.1-5.7,20.5-10.9,31-16.1
		c13.7-6.8,27.6-13.5,41.5-20.1c18.1-8.5,36.6-16.1,55.1-23.5c16.9-6.7,34-13.1,51.3-18.8c15.3-5.1,30.6-10.4,45.9-15.8
		c8.7-3.1,18-4.4,26.8-7.4c9.1-3.1,18.4-5.7,27.6-8.4c9.5-2.8,19.2-5.3,28.9-7.7c8.9-2.2,18-3.8,26.7-7.1c5.3-2,11.1-2.4,16.7-3.7
		c12.2-2.8,24.4-5.4,36.5-8.5c3-0.8,6.1-0.9,9.2-1.9c2.5-0.8,1.2,1.6,0.5,3c-5.9,12.3-11.9,24.6-17.5,37.1
		c-9.6,21.2-18.5,42.7-24.9,65.2c-4.8,17-8.7,34-8.8,51.7c-0.1,16.8,4.5,32.5,10,48c6.6,18.4,11.6,37.2,14.1,56.8
		c2.4,18.7,2.4,37.3,0.9,55.8c-1.4,16.8-4.8,33.5-9.9,50c-7.1,22.9-17.3,44-31.3,63.3c-15.3,20.9-33.8,38.7-55.7,52.6
		c-28.1,17.9-59.1,28-91.7,33.3c-28.5,4.7-57.1,6.1-85.9,5.4c-9.1-0.2-18.1,0.1-27.1-0.7c-12.2-1-24.3-2.6-36.4-4.3
		c-15.1-2.2-30.1-4.6-44.9-8.4c-8.2-2.1-16.3-4.4-24.5-6.5c-11.5-2.9-23.1-5.5-34.9-5.9c-6.9-0.2-13.9-0.5-20.8-0.2
		c-6.4,0.3-12.9,0.6-19.3,2.2c-3.3,0.8-7.6,0.7-11,1.7c-5.4,1.5-11,2.2-16.2,4.3c-3.1,1.3-12.5,4.4-14.1,5
		c-12.5,5.1-21.6,10.3-32.3,16.5c-6.5,3.8-10.7,6.3-16.5,10.3c-5.6,3.9-9.3,7.1-16.3,12.9c-8.1,6.7-12.3,10.2-17.3,15.3
		c-3.1,3.2-6.2,6.5-9.3,9.8C276.1,1014.1,274.7,1015.6,273.2,1017.2z"/>
	<path class="st1" d="M514.4,7.1c2.4-0.5,3.2,1.3,4.4,2.6c23.4,25.8,44.6,53.2,62.6,83.1c13.1,21.6,23.8,44.4,31.8,68.2
		c5.5,16.3,9.3,33.2,11.4,50.5c1.7,13.5,2.1,26.9,1.7,40.4c-0.4,12.2-2.6,24.2-5.4,36.2c-3.9,17-9.9,33-17.9,48.4
		c-11.2,21.5-26,40.1-43.7,56.5c-19.7,18.2-41.5,33.6-63.7,48.4c-12.3,8.2-24.9,16-38,22.9c-15.7,8.2-31.4,16.5-47.8,23.3
		c-12.5,5.2-24.7,11.1-37.1,16.5c-19.5,8.3-38.4,17.8-56,29.9c-17.2,11.8-32.5,25.8-46.4,41.3c-7.8,8.7-15.4,17.6-21.8,27.4
		c-1.1,1.7-1.8,2.3-3.2-0.2c-11.8-20.7-15.7-42.3-9.1-65.8c6.1-21.9,18.4-40,32.7-57.1c16.8-20,36.2-37.4,56.2-54.2
		c19.5-16.3,39.8-31.6,59.8-47.4c23.7-18.7,47.9-36.9,70.2-57.3c13.8-12.7,27.5-25.7,39-40.6c13.8-17.9,22.5-38.2,28.1-60.2
		c5.1-20.1,8-40.4,8.7-60.9c1.1-29.9-0.5-59.6-4.7-89.3c-2.9-20.5-6.4-40.9-11.5-61C514.3,8.2,514.4,7.6,514.4,7.1z"/>
	<path class="st2" d="M213.5,457.8c-4.4,12.4-8.4,24.9-11.9,37.6c-2.8,10-5.7,20-8.1,30c-3.7,15-7.4,30-10,45.3
		c-2.1,11.9-4.4,23.7-6.1,35.6c-3.4,23.6-5.8,47.3-2.9,71.2c0.9,7.7,2.9,15.4,6.8,22.3c4,7.2,9.8,10.4,18.4,10.7
		c15.6,0.5,28.5-6.9,41.4-13.5c22.6-11.6,44.1-25,65.2-39.4c17.3-11.8,34.6-23.5,51.7-35.5c16.5-11.6,33.2-23.1,49.6-35
		c17.5-12.7,35.6-24.8,53.4-37.2c18.1-12.7,36.1-25.6,54.3-38.1c12.9-8.9,26.1-17.3,39.2-25.9c11.3-7.4,22.4-15.2,34-22.1
		c17.7-10.5,34.9-21.8,52.9-31.7c10.7-5.9,21.1-12.4,32.1-17.9c14.8-7.4,29.4-15.2,44.7-21.8c14.9-6.5,30.1-12.1,45.1-18
		c8.1-3.2,16.5-5.6,25-7.3c11.2-2.2,22.3-5.5,33.8-5.6c4.3-1,8.6-1.3,13-1.9c0.7,0,1.3,0,2,0c1.2,1,3.2-0.3,4.6,1.6
		c-2.8,2.1-6.2,0-8.8,1.5c-0.3,0-0.7,0-1,0.1c-3.5,1.2-7.3-0.4-10.8,0.9c-8.9,2-18,3.5-26.8,6.2c-17.2,5.3-34,11.5-50.4,19
		c-15,6.9-29.8,14.2-44.3,22.2c-23,12.7-45.7,25.8-67.7,40.2c-17.1,11.2-34.4,22.2-51.3,33.5c-12.9,8.6-25.5,17.7-38.2,26.6
		c-16.3,11.4-32.7,22.8-48.9,34.3c-18.9,13.4-37.6,27.1-56.5,40.6c-15.7,11.2-31.6,22.1-47.3,33.2c-14.7,10.4-29.4,20.9-44.2,31.2
		c-10.2,7.1-20.5,13.9-30.8,20.7c-12.8,8.4-25.3,17.2-38.5,24.7c-21.1,12-41.9,25.2-66.2,29.8c-21.1,4-38.6-4.4-45.7-26.4
		c-4.6-14.4-5.2-29.2-4.3-44.2c0.9-16,3-31.9,6.1-47.5c3.1-15.8,7.3-31.4,11.6-46.9c7.5-27.3,16.3-54.2,26-80.7
		c3-8.1,5.4-16.4,8.8-24.5C214.4,455.5,214,456.6,213.5,457.8z"/>
	<path class="st3" d="M213.5,457.8c-0.3-0.8,0.2-2-1.2-2.2c0.8-8.3,5.5-15.1,8.5-22.6c1-2.4,1.1-5.7,4.8-7.9
		C221.4,436.5,217.5,447.1,213.5,457.8z"/>
	<path class="st4" d="M832.7,362.7c2.1-1.6,4.5-1.2,6.9-1.3c-0.6-1-2.3-0.4-2.7-1.8c9-1.4,17.5,1.4,26.2,3.2
		C852.9,362.2,842.8,363.2,832.7,362.7z"/>
	<path class="st4" d="M834.9,359.6c-4.2,1.3-8.5,2.2-13,1.9C826.1,360,830.3,358.4,834.9,359.6z"/>
	<path class="st4" d="M820.9,363.7c3.5-1.6,7.2-0.8,10.8-0.9C828.2,364.9,824.5,363.8,820.9,363.7z"/>
	<path class="st5" d="M827.4,780.2c-2.8,1.5-7.6,4.2-13.3,6.6c-6.3,2.6-10.9,3.8-19.9,5.9c-5.4,1.3-12.5,2.8-20.9,4.2
		c-5.6,0.5-13.1,1.1-22,1.4c-13,0.4-22.8,0.1-31.7-0.3c-5.7-0.2-19.7-0.9-38.7-2.7c-9.1-0.9-9.3-1.1-37.7-4.6c-28-3.4-26-3-34.9-4.2
		c-20.8-2.9-24.8-4.4-42.7-6.9c-9-1.3-21.2-2.7-35.8-3.8c-6.3-1.4-7.7-1.5-7.7-1.4c-0.1,0.5,12,4.2,23.6,7.2
		c5.4,1.4,9.6,2.2,17.9,3.9c9.1,1.9,16.6,3.3,21.8,4.3c7.2,1.5,17.6,3.5,30.1,5.7c25.3,4.4,38.3,6.7,54.8,8.2
		c21.5,1.9,37.3,1.5,60.5,0.8c29.1-0.9,42.8-2.9,47.5-3.7c25.7-4.2,37.2-9.9,45.3-15.3c6.2-4.1,10.8-8.3,13.7-11.3
		C834.8,775.9,831.4,778,827.4,780.2z"/>
	<path class="st6" d="M442.9,812.2c0.1-1.6,1.1-1.9,2.5-2.1c38.5-4.6,76.7-3.5,114.9,4c13.3,2.6,26.8,4.7,40.5,4.9
		c0.7,0,1.3,0.5,2,0.8c-4.8,7.1-9.3,14.3-14.9,21c-4.8,5.8-9.4,11.6-15.1,16.5c-11,9.5-22.2,18.8-34.8,26.2
		c-10.8,6.4-21.8,12.3-33.4,17.1c-9.2,3.8-18.3,7.6-27.9,10.4c-4.5,1.3-9.2,2.4-13.5,4.5c-1.3,0.6-2.4,0.7-3.3-0.6
		c9.4-7.8,16.6-17.1,20.3-29.1c6.5-21.7,2-40.9-12.8-57.6C460.7,820.7,452.9,814.7,442.9,812.2z"/>
	<path class="st6" d="M309.2,904.3c1.9-1.1,4.6-3,7.3-5.8c3.1-3.3,4.4-6,5.9-8.5c1-1.6,1.5-2.2,12.4-13.5c5.8-6,9.5-9.8,14.6-14.5
		c3.9-3.7,7.6-6.3,7.6-6.3c5.6-4.5,9.6-7.2,11.8-11.9c0.2-0.4,0.7-1.4,0.8-1.3c0.2,0.1-2.4,5.9-3.7,12.6c-1,5.3-0.9,9.4-0.8,13.8
		c0.1,3.9,0.4,9.5,2.2,16.4c1.2,4.4,3.3,11.9,9.2,19.7c5.5,7.2,11.5,11.1,14.5,12.9c4.7,2.9,9,4.7,12.2,5.8c-2,0.4-4.8,1-8.1,1.6
		c-2.9,0.5-7,1.2-11.9,1.6c-3.5,0.3-7,0.4-12.6,0.4c-4.3-0.1-3.9-0.1-17.1-0.6c-5.5-0.2-6.8-0.2-9.5-0.5c-4.5-0.4-8.2-1-10.5-1.4
		c-3.1-0.5-5.5-1-8.8-1.6c-2.1-0.4-3.6-0.7-5.9-1.2c-5.7-1.2-8.5-1.8-10.6-2.3c-5.5-1.5-9.8-2.6-9.8-4.2c0-1.1,2-1,4.4-3.8
		c1.7-2,1.8-3.3,3.9-5.2C307.6,905.3,308.5,904.7,309.2,904.3z"/>
	<path class="st7" d="M443,810.6c-8-2.8-14.8-3.3-19.2-3.2c-10,0.1-17.6,2.8-24.3,5.3c-5.4,2-9.4,4-15.8,7.4
		c-19,10.1-28.4,15.1-35.8,20.7c-8.9,6.8-14.1,12.4-24.3,23.7c-4.8,5.3-10.4,11.3-11.8,20.5c-0.3,2.1-1,4.1-0.7,6.3
		c0.1,0.5,0.1,0.9,0.1,1.3c0,0,0.1,0.7,0,1.5c0,1.8-3.5,9.9-4.8,14c-1.8,5.4-1.4,7-1.1,7.7c0.9,2.2,3,3.3,4.4,3.9
		c-4-0.5-21.2-2.9-24.8-12.6c-0.4-1-0.6-2-0.7-2.7c-0.7-3.4-1.2-9.7,2.4-18.4c2.5-6,6.8-15.2,13.6-25.5
		c27.8-42.1,69.2-60.2,90.8-68.7c22.3-8.8,40.1-13,53.6-15.8c31.4-6.4,49.9-5.3,55.3-4.9c8.3,0.6,15.2,1.8,19.9,2.7
		c2.1,0.4,4.2,1.1,11.4,3c3.3,0.9,6.4,1.7,9.6,2.4c6.1,1.5,10.5,2.4,15.4,3.4c18.1,3.8,31.4,6.4,34.3,6.8c3.9,0.6,22.8,3.6,31.7,4.6
		c5.2,0.6,16.5,1.9,22.2,2.8c9.9,1.6,16.1,2.5,23.7,3.9c14.8,2.7,17.8,3.8,29.7,6.1c7.3,1.4,17.9,3.2,30.9,4.7
		c-1.4,0.2-8.4,0.4-8.7,0.4c-5.9-0.3-20.1,0-24.6,0c-7.8,0.1-11.6,0.2-15.1,0.3c-8.9,0.4-24.6,1.4-20.4,1.4
		c6.8,0.1,12.1,0.4,18.3,0.8c2.4,0.2,17.2,1.5,20.9,1.9c3.3,0.4,4.1,0.4,4.1,0.6c0.1,0.7-7.1,1.9-8,2.1c-22.3,3.9-50.3,2.8-50.3,2.8
		c-7.9,0-21.2-0.2-42.3-2.3c-12.6-1.2-22.7-2.6-28.7-3.4c-18.4-2.6-19.3-3.5-34.2-5.5c-15.7-2.1-27.3-2.7-35-3.1
		c-15.6-0.8-27.4-0.2-31.1,0C461.9,808.3,451.6,809.4,443,810.6z"/>
	<path class="st8" d="M369.6,845.3c-2.3,6.7-11.3,15.2-11.3,15.2c-4.6,4.3-4.2,3.4-13.9,11.8c-3,2.6-5.6,4.9-7.8,7
		c-4.3,3.9-6.9,6.3-10.3,9.7c-1.1,1.1-4.4,4.4-8.4,9.1c-0.6,0.7-3,3.5-5.9,7.4c-2.6,3.6-3.8,5.6-4.3,8.2c-0.3,1.7-0.3,3.1-0.2,4.1
		c-0.7-0.5-1.7-1.4-2.5-2.8c-1-1.8-1.1-3.5-1.2-5.2c0-0.2,0-0.4,0-0.7c0-3.3,0.5-6.3,0.6-6.9c0.2-1.3,0.6-3.9,1.6-7.6
		c0.5-2,1.5-5.7,3.3-10.2c0.8-2.1,2.4-6.1,5.2-10.7c2.8-4.7,5.5-7.7,9.2-11.9c4.4-4.9,7.9-8.3,12.1-12.2c5.2-4.8,9.2-8.2,10.2-9.1
		c3.4-2.8,7.4-6.1,13.1-10.1c3.3-2.3,6.5-4.5,11.2-7c4.9-2.6,8.6-4,14-6.1c5.6-2.2,8.8-3.1,11.4-3.7c2-0.5,3.6-0.8,4.8-1
		c-5.7,3.6-10.1,7-13.2,9.6c-2.9,2.4-5.1,4.3-7.8,7.2c-6,6.7-8.1,11.1-8.8,12.9c-0.2,0.6-0.4,1.2-0.4,1.2c0,0,0,0,0,0
		C370.1,843.7,369.6,845.3,369.6,845.3z"/>
	<path class="st6" d="M164.3,976.9"/>
	<path class="st0" d="M231.8,954.9"/>
	<path class="st6" d="M-139.9,1064.3"/>
	<path class="st9" d="M455,918.8c-3.6,2-8.6,4.4-15,6.2c-9.1,2.5-16.4,2.3-18.6,2.2c-6.2-0.2-12.3-2.4-18.4-3.7
		c-2-0.4-12.7-4.7-21.1-12.4c-17.5-16.2-17-41.7-16.9-46c0-6.1,0.8-17.2,7.4-28.5c0.8-1.4,4.9-7.4,11.9-14.1
		c4.4-4.3,9.7-7.1,15.1-9.8c14.3-6.2,28.8-6.8,43.6-2.1c25.9,9.7,40,28.8,41.5,55.9c0.4,7.3-0.6,14.3-2.8,20.9
		c0,0-4.7,14.1-17.1,25.1c-2.1,1.9-4.3,3.3-4.3,3.3C458.2,917.2,456.4,918.2,455,918.8z"/>
	<path class="st10" d="M511.7,808.1c0-0.2,4.6-0.3,8.5-0.4c2.2,0,3,0,9.3,0c7.3,0.1,9.6,0.1,14.1,0.1c7,0.1,6.9,0.2,16,0.3
		c3.3,0,4.5,0,7.2,0.1c5.7,0.1,8.9,0.4,20.5,0.5c9.5,0.1,17.3,0.1,22.5,0c-1.1,2.3-2.1,4-2.9,5.3c-0.7,1.2-1.6,2.4-2.6,3.9
		c-0.7,1.1-1.3,1.9-1.8,2.5c-3.3-0.3-6.1-0.5-8-0.7c-4.9-0.4-7.3-0.6-8-0.7c-5.6-0.5-6.4-0.5-9-0.8c-6.1-0.8-10.8-1.5-16.1-2.3
		c-5.9-0.9-8.8-1.3-10-1.5c-1.9-0.4-3.5-0.7-19.1-4.3l0,0c-2.7-0.5-6.7-1.1-11.6-1.5C515.6,808.2,511.7,808.3,511.7,808.1z"/>
</g>
</svg>
