<?xml version="1.0" encoding="utf-8"?>
<!-- Generator: Adobe Illustrator 26.0.2, SVG Export Plug-In . SVG Version: 6.00 Build 0)  -->
<svg version="1.1" id="图层_1" xmlns="http://www.w3.org/2000/svg" xmlns:xlink="http://www.w3.org/1999/xlink" x="0px" y="0px"
	 viewBox="0 0 1080 1080" style="enable-background:new 0 0 1080 1080;" xml:space="preserve">
<style type="text/css">
	.st0{fill:#080403;}
	.st1{fill:#0A0606;}
	.st2{fill:#A2A2A2;}
	.st3{fill:#8C8B8B;}
	.st4{fill:#FEFEFE;}
	.st5{fill:#FE0000;}
	.st6{fill:#8D3030;}
	.st7{fill:#3F1F24;}
	.st8{fill:#3D3733;}
	.st9{fill:#3D3935;}
	.st10{fill:#2C96B5;}
	.st11{fill:#F27225;}
	.st12{fill:#2B83B1;}
	.st13{fill:none;stroke:#000000;stroke-width:12;stroke-miterlimit:10;}
</style>
<g>
	<path class="st0" d="M514.4,6.1c2.4-0.5,3.2,1.3,4.4,2.6c23.4,25.8,44.6,53.2,62.6,83.1c13.1,21.6,23.8,44.4,31.8,68.2
		c5.5,16.3,9.3,33.2,11.4,50.5c1.7,13.5,2.1,26.9,1.7,40.4c-0.4,12.2-2.6,24.2-5.4,36.2c-3.9,17-9.9,33-17.9,48.4
		c-11.2,21.5-26,40.1-43.7,56.5c-19.7,18.2-41.5,33.6-63.7,48.4c-12.3,8.2-24.9,16-38,22.9c-15.7,8.2-31.4,16.5-47.8,23.3
		c-12.5,5.2-24.7,11.1-37.1,16.5c-19.5,8.3-38.4,17.8-56,29.9c-17.2,11.8-32.5,25.8-46.4,41.3c-7.8,8.7-15.4,17.6-21.8,27.4
		c-1.1,1.7-1.8,2.3-3.2-0.2c-11.8-20.7-15.7-42.3-9.1-65.8c6.1-21.9,18.4-40,32.7-57.1c16.8-20,36.2-37.4,56.2-54.2
		c19.5-16.3,39.8-31.6,59.8-47.4c23.7-18.7,47.9-36.9,70.2-57.3c13.8-12.7,27.5-25.7,39-40.6c13.8-17.9,22.5-38.2,28.1-60.2
		c5.1-20.1,8-40.4,8.7-60.9c1.1-29.9-0.5-59.6-4.7-89.3c-2.9-20.5-6.4-40.9-11.5-61C514.3,7.2,514.4,6.6,514.4,6.1z"/>
	<path class="st1" d="M213.5,456.8c-4.4,12.4-8.4,24.9-11.9,37.6c-2.8,10-5.7,20-8.1,30c-3.7,15-7.4,30-10,45.3
		c-2.1,11.9-4.4,23.7-6.1,35.6c-3.4,23.6-5.8,47.3-2.9,71.2c0.9,7.7,2.9,15.4,6.8,22.3c4,7.2,9.8,10.4,18.4,10.7
		c15.6,0.5,28.5-6.9,41.4-13.5c22.6-11.6,44.1-25,65.2-39.4c17.3-11.8,34.6-23.5,51.7-35.5c16.5-11.6,33.2-23.1,49.6-35
		c17.5-12.7,35.6-24.8,53.4-37.2c18.1-12.7,36.1-25.6,54.3-38.1c12.9-8.9,26.1-17.3,39.2-25.9c11.3-7.4,22.4-15.2,34-22.1
		c17.7-10.5,34.9-21.8,52.9-31.7c10.7-5.9,21.1-12.4,32.1-17.9c14.8-7.4,29.4-15.2,44.7-21.8c14.9-6.5,30.1-12.1,45.1-18
		c8.1-3.2,16.5-5.6,25-7.3c11.2-2.2,22.3-5.5,33.8-5.6c4.3-1,8.6-1.3,13-1.9c0.7,0,1.3,0,2,0c1.2,1,3.2-0.3,4.6,1.6
		c-2.8,2.1-6.2,0-8.8,1.5c-0.3,0-0.7,0-1,0.1c-3.5,1.2-7.3-0.4-10.8,0.9c-8.9,2-18,3.5-26.8,6.2c-17.2,5.3-34,11.5-50.4,19
		c-15,6.9-29.8,14.2-44.3,22.2c-23,12.7-45.7,25.8-67.7,40.2c-17.1,11.2-34.4,22.2-51.3,33.5c-12.9,8.6-25.5,17.7-38.2,26.6
		c-16.3,11.4-32.7,22.8-48.9,34.3c-18.9,13.4-37.6,27.1-56.5,40.6c-15.7,11.2-31.6,22.1-47.3,33.2c-14.7,10.4-29.4,20.9-44.2,31.2
		c-10.2,7.1-20.5,13.9-30.8,20.7c-12.8,8.4-25.3,17.2-38.5,24.7c-21.1,12-41.9,25.2-66.2,29.8c-21.1,4-38.6-4.4-45.7-26.4
		c-4.6-14.4-5.2-29.2-4.3-44.2c0.9-16,3-31.9,6.1-47.5c3.1-15.8,7.3-31.4,11.6-46.9c7.5-27.3,16.3-54.2,26-80.7
		c3-8.1,5.4-16.4,8.8-24.5C214.4,454.5,214,455.6,213.5,456.8z"/>
	<path class="st2" d="M213.5,456.8c-0.3-0.8,0.2-2-1.2-2.2c0.8-8.3,5.5-15.1,8.5-22.6c1-2.4,1.1-5.7,4.8-7.9
		C221.4,435.5,217.5,446.1,213.5,456.8z"/>
	<path class="st3" d="M832.7,361.7c2.1-1.6,4.5-1.2,6.9-1.3c-0.6-1-2.3-0.4-2.7-1.8c9-1.4,17.5,1.4,26.2,3.2
		C852.9,361.2,842.8,362.2,832.7,361.7z"/>
	<path class="st3" d="M834.9,358.6c-4.2,1.3-8.5,2.2-13,1.9C826.1,359,830.3,357.4,834.9,358.6z"/>
	<path class="st3" d="M820.9,362.7c3.5-1.6,7.2-0.8,10.8-0.9C828.2,363.9,824.5,362.8,820.9,362.7z"/>
	<path class="st4" d="M164.3,975.9"/>
	<path class="st5" d="M231.8,953.9"/>
	<path class="st4" d="M-139.9,1063.3"/>
</g>
<path class="st5" d="M826.8,470.7c-2.7,0.9-5.4,1-8.1,1.6c-10.7,2.7-21.4,5-32.2,7.5c-4.9,1.1-10.1,1.5-14.7,3.2
	c-7.6,2.9-15.6,4.3-23.5,6.3c-8.5,2.1-17.1,4.4-25.5,6.8c-8.1,2.4-16.3,4.6-24.3,7.4c-7.7,2.6-15.9,3.9-23.6,6.6
	c-13.4,4.7-26.9,9.4-40.4,13.9c-15.3,5-30.3,10.7-45.2,16.6c-16.3,6.5-32.6,13.2-48.5,20.7c-12.2,5.8-24.4,11.7-36.5,17.7
	c-9.2,4.6-18.3,9.2-27.3,14.2c-10.8,6.1-21.4,12.5-32.1,18.9c-6.7,4-13.6,7.9-20,12.6c-14,10.3-28.6,19.9-42.2,30.8
	c-8.2,6.6-16.4,13.4-24.7,20c-7,5.7-13.4,12.1-19.9,18.3c-9.6,9-22.7,22.5-37.6,39.8c-7.7,8.9-14.2,16.4-22,27.3
	c-5.8,8-10.5,15.4-12.8,19c-3.1,4.9-6.6,10.3-10.6,17.4c-1.6,2.8-7,12.5-13,26c-1.7,3.8-7.5,17.2-13.4,35.6
	c-2.9,9.2-6.1,20.5-8.9,33.6l0,0c-3.1,14.2-5.1,26.4-6.5,35.9c-1.2,8.3-2.5,16.7-3.3,28.2c-0.5,6.2-0.6,11.4-0.9,21.7
	c-0.3,10.1,0.1,2.5,0,27.4c0,0.4,0,6.9,1.8,15.3c1.8,8.3,3.4,8.9,4,9c1.3,0.3,3.1-0.7,8.6-8.6c2.1-3,4.4-5.9,6.5-8.9
	c0,0,6.4-9.4,13.8-17.9c3.1-3.5,7.7-8.4,14.1-13.7c1.3-1.4,2.6-2.8,3.9-4.2c2.7-2.9,5.5-5.8,8.2-8.6c4.4-4.5,8.1-7.6,15.2-13.5
	c6.2-5.1,9.5-7.9,14.4-11.3c5.1-3.6,8.9-5.8,14.5-9.1c9.5-5.5,17.4-10.1,28.5-14.6c1.4-0.6,9.7-3.3,12.4-4.4
	c4.6-1.9,9.6-2.5,14.3-3.8c3-0.9,6.8-0.8,9.7-1.5c5.7-1.4,11.4-1.6,17-1.9c6.1-0.3,12.3,0,18.4,0.2c10.4,0.4,20.6,2.7,30.8,5.2
	c7.2,1.8,14.4,3.9,21.6,5.7c13,3.3,26.3,5.5,39.5,7.4c10.6,1.5,21.3,2.9,32.1,3.8c7.9,0.7,15.9,0.4,23.9,0.6
	c25.4,0.6,50.6-0.6,75.7-4.8c28.8-4.7,56-13.6,80.8-29.4c19.3-12.3,35.6-27.9,49.1-46.3c12.4-17,21.3-35.6,27.6-55.7
	c4.5-14.5,7.5-29.2,8.7-44c1.3-16.3,1.3-32.7-0.8-49.1c-2.2-17.2-6.5-33.8-12.4-50c-4.9-13.7-8.9-27.5-8.9-42.3
	c0.1-15.7,3.5-30.6,7.7-45.6c5.6-19.8,13.4-38.8,21.9-57.4c5-11,10.2-21.8,15.5-32.6C827.9,472.1,829,470,826.8,470.7z M441.6,866.5
	c0,0-4.2,12.4-15.1,22.1c-1.9,1.7-3.8,2.9-3.8,2.9c-1.8,1.2-3.4,2-4.6,2.6c-3.1,1.8-7.6,3.9-13.2,5.4c-8,2.2-14.5,2-16.4,2
	c-5.4-0.2-10.8-2.1-16.2-3.2c-1.8-0.4-11.2-4.1-18.6-11c-15.4-14.3-15-36.8-14.9-40.5c0-5.3,0.7-15.2,6.5-25.1
	c0.7-1.2,4.3-6.5,10.5-12.4c3.9-3.8,8.5-6.2,13.3-8.6c12.6-5.4,25.4-6,38.4-1.8c22.8,8.5,35.3,25.4,36.5,49.2
	C444.4,854.5,443.6,860.7,441.6,866.5z"/>
<path class="st6" d="M746.2,771.7c-2.4,1.4-6.7,3.7-11.8,5.8c-5.5,2.3-9.6,3.3-17.5,5.2c-4.8,1.1-11,2.5-18.4,3.7
	c-4.9,0.4-11.5,0.9-19.4,1.2c-11.5,0.4-20.1,0-27.9-0.3c-5-0.2-17.4-0.8-34.1-2.4c-8-0.8-8.2-0.9-33.2-4c-24.7-3-22.9-2.6-30.7-3.7
	c-18.3-2.6-21.9-3.9-37.6-6.1c-7.9-1.1-18.7-2.4-31.6-3.4c-5.5-1.2-6.7-1.4-6.8-1.2c-0.1,0.4,10.5,3.7,20.8,6.3
	c4.7,1.2,8.5,2,15.8,3.5c8,1.6,14.6,2.9,19.2,3.8c6.4,1.3,15.5,3.1,26.5,5c22.3,3.9,33.7,5.9,48.3,7.2c19,1.7,32.8,1.3,53.3,0.7
	c25.6-0.8,37.7-2.6,41.9-3.3c22.6-3.7,32.8-8.7,39.9-13.4c5.5-3.6,9.5-7.3,12-9.9C752.8,767.9,749.8,769.7,746.2,771.7z"/>
<path class="st4" d="M407.6,799.9c0.1-1.4,0.9-1.7,2.2-1.8c33.9-4.1,67.6-3.1,101.2,3.5c11.7,2.3,23.6,4.1,35.7,4.3
	c0.6,0,1.1,0.5,1.7,0.7c-4.2,6.3-8.2,12.6-13.1,18.5c-4.2,5.1-8.3,10.2-13.3,14.5c-9.7,8.3-19.5,16.5-30.7,23.1
	c-9.5,5.6-19.2,10.9-29.4,15.1c-8.1,3.3-16.1,6.7-24.6,9.2c-3.9,1.1-8.1,2.2-11.9,3.9c-1.1,0.5-2.1,0.6-2.9-0.5
	c8.3-6.9,14.7-15.1,17.8-25.7c5.8-19.1,1.8-36-11.3-50.8C423.3,807.3,416.4,802,407.6,799.9z"/>
<path class="st4" d="M289.8,881c1.7-1,4-2.6,6.4-5.1c2.7-2.9,3.8-5.2,5.2-7.5c0.8-1.4,1.3-1.9,11-11.9c5.1-5.3,8.3-8.6,12.8-12.8
	c3.4-3.2,6.7-5.6,6.7-5.6c4.9-4,8.4-6.4,10.4-10.5c0.2-0.3,0.6-1.2,0.7-1.2c0.2,0.1-2.1,5.2-3.3,11.1c-0.9,4.7-0.8,8.3-0.7,12.1
	c0.1,3.4,0.3,8.4,1.9,14.4c1,3.9,2.9,10.5,8.1,17.3c4.8,6.3,10.1,9.7,12.8,11.4c4.1,2.6,7.9,4.1,10.7,5.1c-1.8,0.4-4.2,0.9-7.1,1.4
	c-2.6,0.4-6.2,1.1-10.4,1.4c-3.1,0.3-6.1,0.4-11.1,0.3c-3.8,0-3.4-0.1-15-0.6c-4.9-0.2-6-0.2-8.4-0.4c-4-0.4-7.3-0.9-9.2-1.2
	c-2.7-0.4-4.9-0.9-7.7-1.4c-1.9-0.4-3.2-0.6-5.2-1.1c-5-1.1-7.5-1.6-9.3-2.1c-4.9-1.3-8.6-2.3-8.6-3.7c0-1,1.8-0.9,3.9-3.3
	c1.5-1.7,1.6-2.9,3.4-4.6C288.4,881.9,289.2,881.3,289.8,881z"/>
<path class="st7" d="M407.7,798.5c-7.1-2.4-13-2.9-16.9-2.9c-8.8,0.1-15.5,2.5-21.4,4.7c-4.8,1.8-8.3,3.5-13.9,6.5
	c-16.7,8.9-25.1,13.3-31.6,18.3c-7.9,6-12.4,11-21.4,20.9c-4.3,4.7-9.1,10-10.4,18.1c-0.3,1.8-0.9,3.7-0.6,5.6
	c0.1,0.5,0.1,0.8,0.1,1.1c0,0,0,0.6,0,1.3c0,1.6-3,8.8-4.2,12.3c-1.6,4.7-1.2,6.1-1,6.8c0.8,1.9,2.7,2.9,3.9,3.5
	c-3.5-0.4-18.7-2.5-21.8-11.1c-0.3-0.9-0.5-1.8-0.6-2.4c-0.6-3-1.1-8.5,2.1-16.2c2.2-5.3,6-13.4,12-22.5c24.5-37.1,60.9-53,80-60.5
	c19.6-7.7,35.3-11.5,47.2-13.9c27.6-5.6,43.9-4.6,48.7-4.3c7.4,0.5,13.4,1.5,17.6,2.4c1.8,0.4,3.7,1,10,2.6c2.9,0.8,5.7,1.5,8.5,2.2
	c5.4,1.3,9.2,2.1,13.6,3c15.9,3.3,27.6,5.6,30.2,6c3.4,0.5,20.1,3.2,28,4.1c4.6,0.5,14.5,1.7,19.6,2.5c8.7,1.4,14.2,2.2,20.9,3.4
	c13,2.4,15.7,3.3,26.2,5.3c6.4,1.2,15.7,2.8,27.2,4.1c-1.2,0.2-7.4,0.3-7.7,0.3c-5.2-0.2-17.7,0-21.6,0c-6.8,0.1-10.3,0.2-13.3,0.3
	c-7.9,0.4-21.7,1.2-18,1.2c6,0,10.7,0.4,16.1,0.7c2.1,0.1,15.2,1.3,18.4,1.7c2.9,0.3,3.6,0.4,3.6,0.6c0.1,0.6-6.3,1.7-7.1,1.9
	c-19.6,3.4-44.3,2.5-44.3,2.5c-6.9,0-18.6-0.2-37.3-2c-11.1-1.1-20-2.3-25.3-3c-16.2-2.3-17-3.1-30.2-4.8
	c-13.8-1.8-24.1-2.4-30.8-2.8c-13.7-0.7-24.2-0.2-27.4,0C424.3,796.5,415.2,797.4,407.7,798.5z"/>
<path class="st8" d="M343,829c-2,5.9-9.9,13.4-9.9,13.4c-4,3.8-3.7,3-12.2,10.4c-2.6,2.3-4.9,4.3-6.9,6.1c-3.8,3.5-6.1,5.6-9.1,8.6
	c-0.9,0.9-3.8,3.9-7.4,8c-0.5,0.6-2.6,3.1-5.2,6.5c-2.3,3.2-3.3,4.9-3.8,7.2c-0.3,1.5-0.3,2.8-0.2,3.6c-0.6-0.5-1.5-1.3-2.2-2.5
	c-0.9-1.6-1-3.1-1.1-4.6c0-0.2,0-0.3,0-0.6c0-2.9,0.4-5.6,0.5-6.1c0.2-1.1,0.5-3.4,1.4-6.7c0.5-1.8,1.3-5,2.9-9
	c0.7-1.8,2.1-5.3,4.6-9.4c2.5-4.2,4.8-6.8,8.1-10.5c3.8-4.3,7-7.3,10.7-10.8c4.6-4.3,8.1-7.2,9-8c3-2.5,6.5-5.4,11.5-8.9
	c2.9-2,5.8-4,9.9-6.2c4.3-2.3,7.6-3.6,12.3-5.4c4.9-1.9,7.7-2.7,10.1-3.3c1.7-0.4,3.2-0.7,4.2-0.9c-5,3.2-8.9,6.2-11.6,8.4
	c-2.6,2.2-4.5,3.8-6.9,6.4c-5.3,5.9-7.1,9.8-7.8,11.4c-0.2,0.5-0.4,1.1-0.4,1.1c0,0,0,0,0,0C343.5,827.6,343,829,343,829z"/>
<path class="st4" d="M162.2,945"/>
<path class="st5" d="M221.7,925.6"/>
<path class="st4" d="M-105.8,1021.9"/>
<path class="st9" d="M468.1,796.3c0-0.1,4.1-0.3,7.5-0.3c1.9,0,2.6,0,8.2,0c6.4,0.1,8.5,0.1,12.4,0.1c6.2,0.1,6.1,0.2,14.1,0.2
	c2.9,0,3.9,0,6.4,0.1c5.1,0.1,7.9,0.3,18.1,0.4c8.4,0.1,15.3,0.1,19.8,0c-0.9,2-1.8,3.5-2.5,4.6c-0.7,1-1.4,2.1-2.3,3.4
	c-0.6,0.9-1.2,1.7-1.6,2.2c-2.9-0.3-5.4-0.5-7.1-0.6c-4.3-0.4-6.5-0.6-7-0.6c-4.9-0.4-5.6-0.4-7.9-0.7c-5.4-0.7-9.6-1.3-14.2-2
	c-5.2-0.8-7.8-1.2-8.8-1.4c-1.6-0.3-3.1-0.6-16.8-3.8l0,0c-2.4-0.4-5.9-1-10.2-1.3C471.6,796.4,468.1,796.4,468.1,796.3z"/>
<g>
	<path class="st10" d="M428.2,854.7c0,0-0.1,0.2-0.2,0.2c-0.3,0.5-1.8,3.2-2.6,4.4c-0.7,1-1.5,2-2.4,3c-0.6,0.6-1.1,1.2-1.7,1.7
		c-0.8,0.8-1.7,1.5-2.6,2.2c-2.2,1.7-4.6,3.1-7.1,4.2c-2.2,1-4.4,1.7-6.7,2.3c-1.2,0.3-2.4,0.5-3.6,0.7c-1,0.1-2.1,0.2-3.1,0.3
		c-1,0.1-2,0.1-3,0c-1.1,0-2.2-0.1-3.3-0.2c-1-0.1-1.9-0.2-2.9-0.4c-1.4-0.3-2.9-0.6-4.3-1c-1.5-0.5-2.9-1-4.3-1.6
		c-1.6-0.7-3.2-1.5-4.6-2.5c-1.8-1.2-3.6-2.5-5.1-4c-0.7-0.7-1.4-1.3-2-2c-0.1-0.2-0.3-0.3-0.4-0.5c-0.7-0.8-1.3-1.6-1.9-2.4
		c-0.8-1.1-1.5-2.3-2.2-3.5c-0.4-0.7-0.7-1.5-1-2.2c-0.3-0.8-0.6-1.5-0.9-2.3c-0.3-0.9-0.6-1.9-0.8-2.8c-0.3-1.2-0.4-2.3-0.6-3.5
		c-0.1-0.6-0.1-1.3-0.1-1.9c0-0.7,0-1.5,0-2.2c0-0.7,0.1-1.4,0.2-2.1c0.1-1.1,0.3-2.1,0.5-3.2c0.2-0.9,0.5-1.8,0.8-2.7
		c0.2-0.6,0.4-1.2,0.6-1.7c0.2-0.5,0.4-1,0.7-1.6c0.3-0.6,0.6-1.2,1-1.8c0.6-1,1.2-2,1.8-2.9c0.1-0.2,0.3-0.3,0.4-0.5
		c-0.1,0.1-0.2,0.1-0.3,0.2c-0.5,0.5-1.1,1-1.6,1.5c-0.8,0.7-1.5,1.5-2.2,2.4c-0.4,0.5-0.8,0.9-1.1,1.4c-0.7,0.9-1.3,1.8-1.9,2.7
		c-0.5,0.8-1,1.7-1.5,2.6c-0.3,0.5-0.5,1-0.7,1.6c-0.4,0.8-0.6,1.5-0.9,2.3c-0.2,0.6-0.4,1.3-0.6,1.9c-0.2,0.6-0.3,1.1-0.4,1.7
		c-0.1,0.6-0.2,1.1-0.3,1.7c-0.1,0.5-0.2,0.9-0.2,1.4c-0.1,0.4-0.1,0.8-0.1,1.3c-0.1,0.5-0.1,1-0.1,1.5c0,1.1-0.1,2.3,0,3.4
		c0.1,0.7,0.1,1.4,0.2,2.1c0.1,0.7,0.2,1.5,0.3,2.2c0.2,1,0.4,2,0.7,3c0.3,0.9,0.5,1.7,0.8,2.5c0.4,1.1,0.9,2.2,1.5,3.3
		c0.5,1,1,1.9,1.6,2.8c0.3,0.4,0.5,0.9,0.9,1.3c0,0,0,0,0,0c0.4,0.6,0.8,1.1,1.2,1.6c0.8,1,1.6,2,2.5,2.9c0.7,0.7,1.4,1.3,2.1,1.9
		c0.5,0.4,0.9,0.8,1.4,1.1c0.8,0.6,1.7,1.3,2.6,1.8c1.1,0.7,2.2,1.3,3.3,1.9c1.2,0.6,2.4,1.2,3.7,1.6c1.4,0.5,2.7,1,4.2,1.3
		c1.5,0.4,3,0.7,4.6,0.9c1.1,0.1,2.3,0.2,2.5,0.3c0.4,0,0.8,0.1,1.2,0.1c0,0,1.8,0.1,4.4-0.1c0.4,0,0.8-0.1,0.8-0.1
		c0.3,0,0.4,0,0.6,0c0.2,0,0.6-0.1,1.1-0.1c0.1,0,0.5-0.1,1-0.1c0.7-0.1,1.4-0.3,1.8-0.3c1.1-0.2,2.2-0.5,3.3-0.8
		c0.9-0.3,1.7-0.6,2.6-0.9c0.9-0.3,1.7-0.7,2.6-1.1c0.7-0.3,1.3-0.6,1.9-1c0.4-0.2,0.8-0.4,1.2-0.7c0.9-0.6,1.9-1.1,2.8-1.8
		c0.8-0.5,1.5-1.1,2.2-1.7c0.6-0.5,1.3-1,1.8-1.6c0.6-0.6,1.2-1.2,1.7-1.8c0.4-0.5,0.9-1,1.3-1.5c0.6-0.7,1.1-1.4,1.6-2.1
		c0.7-1,1.4-2.1,2-3.2c0.4-0.7,0.7-1.4,1.1-2.2c0.3-0.6,0.5-1.2,0.8-1.8c0.4-0.9,0.7-1.9,1-2.9c0.2-0.8,0.4-1.6,0.6-2.5
		c0.1-0.4,0.1-0.8,0.2-1.2C428.2,854.8,428.2,854.7,428.2,854.7z"/>
	<path class="st11" d="M405.3,829c-1.3,0.7-2.6,1.3-4.1,1.7c-1.5,0.4-3,0.7-4.6,0.6c-1,0-2-0.2-2.9-0.5c-0.1,0-0.2-0.1-0.3,0
		c0,0,0,0,0,0c0,0-0.1-0.1-0.1-0.1c-0.4-0.2-0.8-0.3-1.2-0.6c0,0-0.1,0-0.1,0c0,0-0.1,0-0.1-0.1c-1.1-0.6-1.9-1.5-2.7-2.4
		c-1.3-1.5-2.5-3-3.9-4.3c-2.2-2.3-4.9-3.6-8.1-4c-1.3-0.2-2.6-0.2-3.9-0.2c-0.7,0-1.3,0-2,0.1c0,0.1,0,0.1,0.1,0.2
		c0.6,1.1,1.3,2.3,1.9,3.4c2.2,3.9,4.4,7.9,6.7,11.8c1.5,2.7,3.1,5.5,4.6,8.2c0,0.1,0,0.2,0.1,0.2c0,0.1,0,0.2,0.1,0.3
		c0.3,0.5,0.6,1.1,0.8,1.6c0.8,1.7,1.4,3.4,1.8,5.2c0.3,1.3,0.4,2.7,0.3,4c-0.1,1.5-0.6,3-1.4,4.3c0,0.1-0.1,0.1-0.1,0.2
		c0.5-0.5,0.9-1,1.3-1.5c1.2-1.5,2.2-3.1,3.2-4.7c2.1-3.4,4.3-6.8,6.4-10.2c2.4-3.9,4.9-7.8,7.3-11.7c0.3-0.5,0.6-1.1,1-1.6
		C405.4,828.9,405.4,828.9,405.3,829z"/>
	<path class="st10" d="M384.7,842.9c0.6,1,1.1,2.1,1.6,3.2c0.8,1.9,1.3,3.8,1.5,5.8c0.2,2.3-0.2,4.5-1.4,6.5c0,0,0,0.1,0,0.1
		c-0.7,0.8-1.5,1.5-2.3,2.1c-2.1,1.5-4.3,2.5-6.8,3c-1.7,0.3-3.4,0.4-5.1,0.2c-0.1,0-0.1,0-0.3,0c0.2-0.4,0.4-0.7,0.7-1
		c2.5-4,5-8,7.4-12.1c1.6-2.6,3.2-5.3,4.8-7.9C384.7,842.8,384.7,842.8,384.7,842.9z"/>
	<path class="st12" d="M405.5,828.9c-1.6,0.9-3.4,1.6-5.2,2c-1.9,0.4-3.8,0.5-5.7,0.1c-0.4-0.1-0.8-0.2-1.2-0.3
		c-0.5-0.2-1-0.4-1.4-0.7c2.7-4.1,6.3-7.2,10.9-9.1c2.8-1.2,5.8-1.9,8.9-1.9C409.7,822.4,407.6,825.6,405.5,828.9z"/>
</g>
<circle class="st13" cx="392" cy="849.4" r="47.9"/>
</svg>
