<?xml version="1.0" encoding="utf-8"?>
<!-- Generator: Adobe Illustrator 23.0.5, SVG Export Plug-In . SVG Version: 6.00 Build 0)  -->
<svg version="1.1" id="图层_1" xmlns="http://www.w3.org/2000/svg" xmlns:xlink="http://www.w3.org/1999/xlink" x="0px" y="0px"
	 viewBox="0 0 800 800" style="enable-background:new 0 0 800 800;" xml:space="preserve">
<style type="text/css">
	.st0{fill:#F70830;}
	.st1{fill-rule:evenodd;clip-rule:evenodd;fill:#F70830;}
	.st2{fill:#E73828;}
	.st3{fill:#231815;}
</style>
<path class="st0" d="M249.03,689.41c0.45,4.05,2.26,8.3,5.09,12.27c6.62,9.3,18.82,17.08,32.28,17.2c1.14,0.04,2.26,0.06,3.37,0.06
	c17.36,0,29.63-4.89,35.32-9.46l16.73-11.17c0.26-0.18,6.81-4.77,18.24-4.77c8.47,0,17.31,2.54,26.29,7.54
	c8.5,4.73,16.79,7.13,24.62,7.13c6.96,0.01,12.45-1.87,16.44-3.76c-2.65,0.69-5.95,1.23-9.77,1.23c-9.86,0-19.47-3.58-28.57-10.66
	c-13.09-9.74-23.36-14.08-33.28-14.08c-9.5,0-18.95,3.89-31.11,10.17c-13.15,6.77-22.35,9.79-29.83,9.79
	c-4.54,0-8.28-1.08-12.24-2.23l-0.48-0.14c-4.73-1.37-8.9-4.71-11.5-9.11c-0.38-0.63-0.72-1.29-1.02-1.96
	c-2.69-5.94-2.45-12.89,0.68-19.57c3.39-7.15,10.6-11.41,19.27-11.41c5.87,0,11.36,2.06,14.12,5.25c0.08,0.08,0.14,0.16,0.21,0.24
	c6.34,8,6.41,16.81,0.16,21.92c-1.31,0.96-2.76,1.45-4.22,1.45c-2.38,0-4.64-1.31-5.9-3.42c-1.29-2.18-1.29-4.79,0-7.16
	c0.61-1,1.07-1.69,1.42-2.17c-3.48,0.65-7.97,2.49-8.83,7.8c-0.3,3.77,0.88,7.34,3.35,10c2.58,2.8,6.26,4.34,10.36,4.34
	c3.06,0,6.15-0.84,9.19-2.52c10.38-5.88,5.49-16.7,5.27-17.16c-0.07-0.15-0.05-0.33,0.04-0.48c0.35-0.49,8.14-11.97-0.9-22.3
	c-0.08-0.1-0.17-0.2-0.26-0.3c-3.47-3.47-7.59-5.24-12.23-5.24c-5.83,0-11.07,2.69-14.21,4.3c-0.09,0.05-0.24,0.08-0.38,0.08
	c-0.13,0-0.26-0.03-0.33-0.11c-0.14-0.15-0.31-0.31-0.21-0.49c-0.26-0.3-3.75-4.92-10.73-4.92c-3.03,0-6.32,0.87-9.77,2.58
	c-12.02,6.85-7.78,20.3-7.59,20.87c0.06,0.2-0.01,0.42-0.19,0.54C257.83,669.66,247.24,677.11,249.03,689.41"/>
<rect x="343.02" y="14.06" transform="matrix(0.7071 -0.7071 0.7071 0.7071 84.7147 260.6808)" class="st0" width="28.03" height="28.03"/>
<rect x="411.52" y="14.06" transform="matrix(0.7071 -0.7071 0.7071 0.7071 104.784 309.122)" class="st0" width="28.03" height="28.03"/>
<rect x="287.18" y="25.16" class="st0" width="212.05" height="6.48"/>
<polygon class="st0" points="375.74,60.41 363.31,72.94 356.84,79.46 321.84,114.73 304.46,132.25 299.88,127.68 321.64,105.73 
	371.16,55.84 "/>
<rect x="356.84" y="71.64" class="st0" width="6.47" height="121.84"/>
<polygon class="st0" points="428.05,202.3 423.34,202.37 422.3,65.4 428.77,65.4 "/>
<path class="st0" d="M558.73,373.98c-0.08,0-0.16,0-0.23-0.02c-0.63-0.12-1.08-0.68-1.06-1.31c1.06-32.8-10.54-47.52-28.28-59.54
	c-9.99-6.77-21.54-11.87-33.78-17.26c-7.61-3.35-15.48-6.83-23.15-10.81c-35.76-18.57-48.3-67.55-48.77-88.36
	c-0.51-22.56,8.97-45.81,25.37-62.17c10.2-10.19,21.7-14.93,36.19-14.93c7.33,0,15.73,1.18,26.43,3.72
	c4.77,1.13,9.34,1.69,13.57,1.69c14.54,0,20.82-6.77,20.89-6.84c0.37-0.4,0.97-0.54,1.48-0.32c0.51,0.21,0.82,0.73,0.78,1.29
	c-4.54,56.95-30.75,63.54-50.08,63.54h-0.01c-8.63,0-17.29-1.42-25.66-2.8c-6.54-1.07-12.71-2.09-18.05-2.24
	c-10.62-0.34-17.97,2.05-22.27,6.99c-4.75,5.45-3.9,12.22-3.89,12.28c1.99,23.17,24.97,22.54,50.61,22.26
	c15.21-0.17,31.75-0.43,45.96,4.34c16.96,5.69,29.51,16.57,37.28,32.33c22.25,45.1-1.86,116.57-2.11,117.29
	C559.77,373.64,559.27,373.98,558.73,373.98 M426.42,202.15c2.34,21.99,15.51,64.24,47,80.59c7.6,3.94,15.44,7.4,23.01,10.74
	c12.34,5.44,24,10.58,34.19,17.49c19.8,13.42,28.49,28.71,29.4,52.93c5.55-20.07,17.04-71.83-0.28-106.94
	c-7.46-15.12-19.5-25.56-35.78-31.01c-13.82-4.63-30.13-4.35-45.11-4.2c-2.81,0.03-5.58,0.06-8.3,0.06
	C449.75,221.8,430.8,220.2,426.42,202.15 M485.02,122.17c-13.77,0-24.68,4.51-34.36,14.17c-14.46,14.43-23.37,34.35-24.51,54.28
	c0.6-2.42,1.77-5.18,3.99-7.72c4.84-5.55,12.86-8.19,24.3-7.87c5.51,0.16,11.77,1.19,18.4,2.28c8.27,1.36,16.82,2.76,25.24,2.76
	h0.01c19.46,0,42.28-6.68,47.22-58.06c-3.25,2.28-9.76,5.57-20.28,5.57c-4.43,0-9.2-0.59-14.17-1.77
	C500.35,123.33,492.14,122.17,485.02,122.17"/>
<path class="st0" d="M426.22,191.04c-0.12,0-0.24-0.01-0.36-0.05c-0.69-0.2-1.08-0.92-0.88-1.61c0.1-0.33,10.19-33.18,48.68-24.16
	c38.63,9.08,55.98-1.22,71.38-42.35c0.25-0.66,0.99-1,1.67-0.75c0.67,0.24,1.01,1,0.76,1.67c-15.8,42.21-34.57,53.3-74.39,43.96
	c-36.09-8.49-45.24,21.09-45.61,22.36C427.3,190.68,426.78,191.04,426.22,191.04"/>
<path class="st0" d="M426.09,186.85c-0.14,0-0.29-0.02-0.43-0.08c-0.67-0.24-1.02-0.98-0.78-1.65c0.13-0.39,14.14-38.47,50.07-29.77
	c30.78,7.45,56.83-5.58,69.72-34.88c0.29-0.66,1.05-0.94,1.71-0.66c0.65,0.29,0.95,1.05,0.66,1.71
	c-10.37,23.58-34.92,45.53-72.7,36.35c-33.62-8.14-46.49,26.63-47.02,28.12C427.12,186.52,426.62,186.85,426.09,186.85"/>
<path class="st0" d="M425.39,183.25c-0.17,0-0.33-0.03-0.49-0.1c-0.66-0.27-0.98-1.02-0.71-1.68c0.2-0.49,20.09-48.05,55.68-42.95
	c30.72,4.33,50.56-1.28,64.39-18.21c0.45-0.55,1.27-0.63,1.82-0.19c0.56,0.46,0.64,1.27,0.19,1.83
	c-14.47,17.71-35.06,23.62-66.76,19.13c-33.57-4.73-52.73,40.91-52.93,41.37C426.39,182.95,425.9,183.25,425.39,183.25"/>
<path class="st0" d="M559.1,370.52c-0.09,0-0.18-0.01-0.27-0.03c-0.7-0.15-1.15-0.84-0.99-1.54c3.73-17.28,14.12-76.17-8.54-108.76
	c-17.42-25.04-46.03-26.74-71.28-28.25c-9.6-0.56-18.66-1.11-26.08-2.97c-26.85-6.77-28.53-30.7-28.55-30.94
	c-0.04-0.71,0.5-1.32,1.22-1.37c0.61-0.04,1.32,0.5,1.37,1.22c0.05,0.9,1.63,22.29,26.59,28.58c7.18,1.81,16.13,2.34,25.6,2.9
	c24.55,1.45,55.11,3.27,73.25,29.35c23.26,33.44,12.72,93.25,8.94,110.78C560.23,370.1,559.69,370.52,559.1,370.52"/>
<path class="st0" d="M559.48,363.46h-0.08c-0.71-0.05-1.25-0.66-1.21-1.38c6.96-107.13-48.06-113.47-84.46-117.67
	c-5.68-0.65-11.04-1.27-15.65-2.2c-34.63-6.99-34.51-42.37-34.5-42.72c0.01-0.72,0.55-1.29,1.31-1.28c0.71,0.01,1.29,0.6,1.27,1.31
	c-0.02,1.37-0.08,33.59,32.42,40.15c4.5,0.91,9.81,1.52,15.43,2.17c37.38,4.31,93.87,10.82,86.75,120.41
	C560.72,362.93,560.16,363.46,559.48,363.46"/>
<path class="st0" d="M559.77,363.86h-0.02c-0.71-0.01-1.29-0.6-1.27-1.31c0.91-69.98-38.31-84.19-83.72-100.63
	c-51.96-18.82-50.22-55.92-50.2-56.29c0.05-0.71,0.69-1.32,1.37-1.21c0.71,0.04,1.26,0.65,1.21,1.37
	c-0.02,0.35-1.55,35.56,48.39,53.65c46.44,16.83,86.46,31.32,85.53,103.14C561.05,363.29,560.48,363.86,559.77,363.86"/>
<path class="st0" d="M276.69,518.99c-0.78,0-1.57,0-2.36-0.02l0.13-7.77c0.75,0.01,1.51,0.02,2.25,0.02
	c76.47,0,78.31-62.74,78.42-65.44l0-115.82l1.1-59.71l9.29,0.14l-1.1,59.64l0,115.9C364.38,446.81,360.77,518.99,276.69,518.99"/>
<rect x="335.96" y="304.07" class="st0" width="49.94" height="9.66"/>
<path class="st0" d="M331.08,347.74c-0.18-0.23-4.55-5.8-12.06-6.7c-5.67-0.69-12.62,0.45-19.06,4.55
	c-16.62-11.82-16.19-27-15.66-46.01c0.16-5.4,0.33-11,0.08-16.9v-0.25c-0.25-6.52-0.85-21.64-13.53-32.99
	c-1.3-1.16-2.74-2.29-4.31-3.37c-2.31-1.57-4.91-3.04-7.86-4.34l-2.09,4.72c2.06,0.92,3.93,1.91,5.64,2.98
	c1.58,0.98,3.01,2.01,4.31,3.11c10.32,8.61,12.29,20.25,12.67,30.08v0.06c0.23,5.8,0.07,11.37-0.08,16.76
	c-0.54,19.32-1.02,36.16,16.52,49.41c-3.01,2.69-5.81,6.15-8.2,10.51c-0.45,0.81-11,19.83-8.34,44.83
	c2.43,22.95,0.88,38.24-12.56,47.02c-1.54,1.02-3.22,1.94-5.09,2.76c-4.27,1.94-9.43,3.42-15.61,4.5l0.88,5.11
	c8.09-1.4,14.61-3.51,19.83-6.32c1.87-1,3.56-2.09,5.09-3.28c13.39-10.25,15.06-27.2,12.62-50.33c-2.47-23.29,7.61-41.55,7.72-41.76
	c2.45-4.47,5.23-7.69,8.06-10.03c3.37,1.97,20.56,11.19,30.97-0.83l1.39-1.6L331.08,347.74z M304.98,348.62
	c5.84-2.91,11.17-2.7,13.41-2.45c3.08,0.38,5.47,1.91,6.94,3.13C318.93,354.26,309.58,350.84,304.98,348.62"/>
<path class="st0" d="M271.62,453.98c-1.87-0.82-3.55-1.74-5.09-2.76c-13.44-8.78-14.99-24.07-12.56-47.02
	c2.66-25-7.89-44.03-8.33-44.8c-2.39-4.37-5.2-7.84-8.22-10.54c17.54-13.25,17.06-30.1,16.52-49.41
	c-0.16-5.39-0.31-10.96-0.08-16.76v-0.06c0.4-9.83,2.36-21.47,12.67-30.08c1.3-1.1,2.73-2.14,4.31-3.11
	c1.71-1.07,3.58-2.06,5.64-2.98l-2.09-4.72c-2.96,1.3-5.56,2.77-7.86,4.34c-1.57,1.07-3.01,2.21-4.31,3.37
	c-6.96,6.24-10.28,13.61-11.89,20.07c-1.34,5.3-1.51,9.98-1.64,12.93c-0.23,5.98-0.07,11.67,0.08,17.15
	c0.54,19.01,0.96,34.18-15.64,46.01c-6.46-4.09-13.38-5.25-19.08-4.55c-7.5,0.91-11.88,6.48-12.06,6.7l-1.29,1.68l1.39,1.6
	c10.39,12.02,27.59,2.81,30.96,0.83c2.83,2.33,5.61,5.57,8.08,10.06c0.1,0.18,10.18,18.44,7.71,41.73
	c-2.45,23.14-0.78,40.08,12.62,50.33c1.53,1.19,3.22,2.28,5.09,3.28c5.22,2.81,11.74,4.92,19.83,6.32l0.88-5.11
	C281.05,457.4,275.89,455.92,271.62,453.98 M207.74,349.3c1.47-1.22,3.85-2.74,6.93-3.13c2.23-0.24,7.57-0.47,13.41,2.45
	C223.48,350.84,214.13,354.26,207.74,349.3"/>
<path class="st1" d="M365.47,270.47l-0.3,7.55c-2.79-1.49-5.84-3-9.01-4.47c-4.45-2.06-9.16-4.03-13.76-5.64
	c-8.49-2.97-16.6-4.75-22.03-3.75c-3.07,0.58-10.41,3.07-13.27,14.35c-4.21-20.92,13.49-30.85,20.62-31.11
	c-2.47-4.04-3.07-7.48-3.22-11.6c-0.27-6.77,2.59-13.39,7.34-17.68c2.18-1.98,4.75-3.45,7.61-4.23c11.06-3.03,21.4,4.12,23.22,15.32
	c-0.25-0.45-0.95-0.65-1.63-0.62l-1.85,0.07c-6.42,0.25-15.03,4.04-14.47,18.07c0.37,9.49,10.64,15.23,20.66,23.66
	C365.41,270.43,365.44,270.44,365.47,270.47"/>
<path class="st1" d="M284.49,509.53c0,5.05-4.1,9.15-9.15,9.15c-5.06,0-9.16-4.1-9.16-9.15c0-5.06,4.1-9.15,9.16-9.15
	C280.39,500.37,284.49,504.47,284.49,509.53"/>
<path class="st0" d="M597.21,658.24c-10.08-51.41-55.5-90.33-109.82-90.33c-6.7,0-13.25,0.62-19.63,1.75
	c-1.73,2.42-3.32,4.75-4.71,6.96c-0.14,0.24-0.25,0.47-0.38,0.71c7.93-1.91,16.21-2.96,24.72-2.96c48.44,0,89.35,32.83,101.66,77.42
	c2.47,8.92,3.79,18.33,3.79,28.03c0,18.75-4.92,36.39-13.55,51.66c-18.1,32.09-52.51,53.8-91.9,53.8c-47.65,0-88-31.78-101.02-75.24
	c-2.06,0.44-4.16,1-6.25,1.67c13.76,46.23,56.63,80.03,107.27,80.03c41.68,0,78.11-22.91,97.36-56.8
	c9.26-16.28,14.55-35.1,14.55-55.13C599.3,672.44,598.58,665.23,597.21,658.24 M432.22,582.51c-33.35,18.98-56.03,54.58-56.71,95.45
	c2.22-1.07,4.4-2.01,6.55-2.84c1.58-36.06,21.38-67.49,50.4-85.27C432.17,587.45,432.08,585,432.22,582.51"/>
<path class="st0" d="M460.47,610.44c-5.74,0-10.88-2.08-14.87-6.21c-8.96-9.29-9.48-26.2-1.21-39.35
	c6.93-11.01,17.24-23.65,28.17-37.02c14.23-17.44,30.37-37.19,41.5-56.59c19.96-34.76,22.63-67.38,7.16-87.28
	c-7.54-9.69-18.38-15.65-30.53-16.77c-12.09-1.09-23.85,2.78-33.05,10.95c-40.94,36.38-51,115.98-51.1,116.78
	c-0.52,4.25-4.38,7.27-8.64,6.77c-4.26-0.51-7.29-4.38-6.78-8.64c0.42-3.5,10.84-86.22,56.2-126.54
	c12.44-11.05,28.34-16.3,44.79-14.8c16.47,1.52,31.16,9.58,41.37,22.71c19.48,25.04,17.26,64.12-5.95,104.54
	c-11.77,20.5-28.34,40.78-42.95,58.68c-10.61,13-20.63,25.27-27.05,35.47c-4.73,7.52-4.2,16.73-0.76,20.29
	c3.06,3.18,8.84,0.56,12.02-1.28c3.71-2.16,8.46-0.89,10.62,2.82c2.15,3.71,0.89,8.47-2.82,10.62
	C471.02,608.83,465.51,610.44,460.47,610.44"/>
<path class="st0" d="M500.52,456.86c-3.37,0-6.48-2.21-7.46-5.63c-11.9-41.37-51.48-59.76-51.88-59.94
	c-3.9-1.77-5.64-6.37-3.87-10.27c1.76-3.91,6.34-5.66,10.25-3.89c1.89,0.85,46.5,21.37,60.43,69.82c1.19,4.12-1.19,8.42-5.31,9.61
	C501.95,456.77,501.23,456.86,500.52,456.86"/>
<path class="st0" d="M461.22,480.58c-2.92,0-5.72-1.66-7.04-4.48c-12.4-26.5-37.24-38.59-37.48-38.71
	c-3.87-1.85-5.51-6.48-3.66-10.35c1.84-3.87,6.49-5.5,10.35-3.67c1.23,0.58,30.13,14.67,44.87,46.15c1.82,3.88,0.14,8.51-3.74,10.32
	C463.45,480.34,462.33,480.58,461.22,480.58"/>
<g>
	<g>
		<path class="st2" d="M467.93,664.6c0.15-0.35,0.32-0.69,0.47-1.04c0.97-2.18,1.94-4.36,2.9-6.54c0.34-0.77,0.69-1.54,1.03-2.32
			c0.14-0.32,0.24-0.66,0.26-0.98c0-0.6-0.31-1.05-0.97-1.24c-0.09-0.03-0.14-0.01-0.19,0.07c-0.06,0.12-0.12,0.23-0.18,0.35
			c-1.53,3.21-3.06,6.42-4.58,9.63c-0.38,0.79-0.75,1.57-1.13,2.36c-0.08,0.17-0.05,0.2,0.12,0.17c0.66-0.09,1.33-0.18,1.99-0.27
			C467.8,664.79,467.88,664.73,467.93,664.6z"/>
		<path class="st2" d="M472.12,672.71c0.02,0.26,0.03,0.52,0.05,0.77c0,0.04-0.02,0.1,0.07,0.09c0.16-0.34,0.33-0.69,0.52-1.08
			c-0.22,0.03-0.37,0.05-0.53,0.06C472.13,672.57,472.12,672.62,472.12,672.71z"/>
		<path class="st2" d="M470.82,681.72c0.02-0.06,0.01-0.11,0-0.17c0.02-0.27-0.07-0.54-0.06-0.81c0-0.04-0.03-0.07-0.07-0.04
			c-0.02,0.01-0.02,0.05-0.03,0.07c-0.06,0.09-0.14,0.17-0.17,0.27c-0.03,0.01-0.05,0.03-0.05,0.06l0,0
			c-0.04,0.02-0.06,0.05-0.07,0.1c-0.2,0.29-0.4,0.58-0.59,0.87c-3.02,4.75-4.77,9.91-5.05,15.55c-0.09,1.74-0.02,3.47,0.2,5.2
			c0.02,0.19,0.02,0.39,0.11,0.58c0.04-0.04,0.06-0.07,0.08-0.1c0.12-0.17,0.25-0.35,0.36-0.53c0.87-1.35,1.64-2.76,2.31-4.22
			c1.79-3.92,2.82-8.03,3.08-12.33c0.07-1.22,0.06-2.43,0.03-3.65C470.89,682.31,470.9,682.01,470.82,681.72z M470.75,681.37
			C470.75,681.36,470.75,681.36,470.75,681.37c0-0.01,0.01-0.02,0.01-0.03C470.76,681.35,470.75,681.36,470.75,681.37z"/>
		<path class="st2" d="M454.83,670.21c-2.55,0.68-5.09,1.4-7.62,2.18c-0.04,0.01-0.09,0.02-0.13,0.04
			c-0.07,0.02-0.07,0.06-0.06,0.13c0.09,0.43,0.33,0.73,0.75,0.9c0.34,0.13,0.69,0.16,1.04,0.1c1.02-0.17,2.04-0.29,3.06-0.43
			c0.62-0.09,1.25-0.18,1.88-0.26c0.15-0.02,0.23-0.08,0.29-0.22c0.08-0.22,0.18-0.43,0.27-0.64c0.16-0.19,0.25-0.42,0.28-0.67
			c0.11-0.11,0.17-0.24,0.17-0.39c0.1-0.25,0.2-0.5,0.31-0.77C454.95,670.17,454.89,670.2,454.83,670.21z"/>
		<path class="st2" d="M458.19,674.75c-0.54,0.08-1.08,0.16-1.62,0.23c-0.12,0.02-0.15,0.09-0.18,0.18
			c-0.08,0.26-0.17,0.53-0.25,0.79c-0.24,0.77-0.48,1.54-0.62,2.33c-0.04,0.22-0.07,0.44-0.03,0.66c0.03,0.15,0.11,0.18,0.24,0.12
			c0.09-0.04,0.17-0.11,0.24-0.18c0.48-0.49,0.91-1.04,1.23-1.64c0.41-0.8,0.75-1.63,1.14-2.48
			C458.26,674.75,458.23,674.75,458.19,674.75z"/>
		<path class="st2" d="M458.96,669.16c-0.16,0.03-0.24,0.1-0.29,0.25c-0.35,0.89-0.71,1.78-1.06,2.66
			c-0.02,0.06-0.08,0.12-0.04,0.21c0.6-0.09,1.18-0.19,1.77-0.27c0.19-0.03,0.29-0.1,0.37-0.27c0.42-0.95,0.85-1.89,1.28-2.84
			c0.03-0.06,0.07-0.11,0.05-0.22C460.33,668.85,459.65,669.01,458.96,669.16z"/>
		<path class="st2" d="M466.39,667.57c-0.77,0.18-1.53,0.36-2.3,0.53c-0.16,0.03-0.23,0.11-0.3,0.25c-0.43,0.96-0.87,1.92-1.31,2.88
			c-0.04,0.09-0.11,0.17-0.09,0.29c0.03,0,0.05,0.01,0.08,0.01c0.79-0.13,1.57-0.25,2.36-0.38c0.1-0.02,0.16-0.06,0.21-0.15
			c0.14-0.26,0.29-0.52,0.41-0.79c0.29-0.67,0.59-1.34,0.89-2.01c0.09-0.21,0.18-0.42,0.28-0.63
			C466.53,667.53,466.46,667.55,466.39,667.57z"/>
		<path class="st2" d="M456.38,666.99c0.41-0.94,0.61-1.93,0.64-2.95c0.02-0.57-0.04-1.13-0.2-1.68c-0.21-0.69-0.65-1.12-1.36-1.29
			c-0.71-0.17-1.42-0.15-2.13-0.02c-1.25,0.24-2.35,0.8-3.34,1.59c-2.4,1.94-3.51,4.5-3.58,7.55c0,0.05,0,0.09,0.04,0.14
			c0.08,0.02,0.15-0.03,0.23-0.05c3.12-0.99,6.23-1.99,9.35-2.97C456.21,667.25,456.31,667.16,456.38,666.99z"/>
		<path class="st2" d="M485.22,666.92c0.32-0.08,0.65-0.17,0.97-0.24c0.54-0.12,1.01-0.36,1.47-0.65c0.3-0.2,0.42-0.5,0.33-0.81
			c-0.1-0.32-0.36-0.49-0.73-0.47c-0.37,0.02-0.74,0.06-1.11,0.07c-0.17,0.01-0.27,0.07-0.32,0.24c-0.1,0.36-0.27,0.69-0.42,1.03
			c-0.12,0.27-0.24,0.54-0.37,0.82C485.11,666.96,485.16,666.94,485.22,666.92z"/>
		<path class="st2" d="M482.52,667.43c0.17-0.42,0.34-0.84,0.46-1.28c0.07-0.26,0.13-0.52,0.14-0.79c0.01-0.24,0-0.25-0.24-0.23
			c-0.43,0.05-0.87,0.09-1.3,0.14c-1.17,0.12-2.34,0.28-3.5,0.46c-0.19,0.03-0.32,0.12-0.41,0.32c-0.42,0.92-0.83,1.84-1.29,2.74
			c-0.02,0.04-0.07,0.09-0.03,0.16c0.38-0.09,0.77-0.14,1.15-0.27c0.1,0,0.2,0,0.28-0.06c0.04,0,0.07,0,0.11-0.01
			c1.46-0.33,2.91-0.66,4.37-0.98C482.4,667.6,482.47,667.54,482.52,667.43z M478.06,667.45c0,0,0-0.01,0-0.01
			C478.06,667.44,478.07,667.44,478.06,667.45C478.06,667.44,478.06,667.45,478.06,667.45z"/>
		<path class="st2" d="M479.19,663.21c0.06,0,0.11-0.01,0.17-0.01c0.97-0.13,1.95-0.26,2.92-0.4c0.49-0.07,0.97-0.14,1.46-0.21
			c0.03-0.43,0.07-0.84,0.06-1.26c0-0.45-0.03-0.89-0.11-1.33c-0.08-0.44-0.21-0.87-0.52-1.21c-0.2-0.22-0.21-0.22-0.45-0.05
			c-1.09,0.79-2.01,1.73-2.77,2.84c-0.08,0.12-0.17,0.24-0.22,0.38c-0.17,0.18-0.28,0.4-0.38,0.63c-0.14,0.16-0.21,0.36-0.3,0.55
			c-0.04,0.02-0.06,0.06-0.04,0.09C479.08,663.29,479.14,663.25,479.19,663.21z"/>
		<path class="st2" d="M475.51,666.06c-1.86,0.32-3.71,0.65-5.57,0.97c-0.51-0.04-0.7,0.3-0.86,0.7c-0.37,0.94-0.8,1.86-1.21,2.78
			c-0.03,0.03-0.08,0.06-0.02,0.1c0.03,0.02,0.06-0.01,0.07-0.05c0.53-0.46,1.08-0.89,1.57-1.39c0.03,0,0.05-0.02,0.06-0.05l0,0
			c0.03,0,0.05-0.02,0.06-0.05c0.1-0.05,0.16-0.13,0.23-0.22c0.16-0.14,0.34-0.26,0.46-0.44c0.06-0.05,0.12-0.1,0.16-0.17
			c0.03,0,0.05-0.02,0.06-0.05c0.05-0.03,0.1-0.06,0.14-0.09c0.42-0.29,1.07-0.27,1.22,0.5c0.07,0.36,0.11,0.72,0.14,1.08
			c0.01,0.14,0.05,0.17,0.19,0.14c0.63-0.13,1.26-0.26,1.88-0.38c0.14-0.03,0.2-0.1,0.26-0.22c0.44-0.98,0.89-1.96,1.34-2.94
			c0.03-0.06,0.09-0.12,0.05-0.21C475.64,666.04,475.57,666.05,475.51,666.06z"/>
		<path class="st2" d="M483.86,626.28c-31.18,0-56.45,25.27-56.45,56.45c0,31.18,25.27,56.45,56.45,56.45
			c31.17,0,56.45-25.27,56.45-56.45C540.3,651.55,515.03,626.28,483.86,626.28z M487.09,676.12c-0.36,0.67-0.73,1.34-1.13,1.99
			c-0.25,0.41-0.59,0.74-0.94,1.06c-0.51,0.47-1.05,0.91-1.61,1.34c-0.22,0.17-0.43,0.35-0.63,0.54c-0.67,0.63-1.45,1.01-2.39,0.95
			c-0.86-0.05-1.52-0.45-1.94-1.21c-0.36-0.65-0.44-1.35-0.36-2.08c0.08-0.75,0.35-1.44,0.62-2.13c0.57-1.45,1.24-2.86,1.89-4.28
			c0.23-0.5,0.45-1,0.67-1.5c0.07-0.15,0.13-0.31,0.14-0.49c-0.26-0.01-0.48,0.05-0.7,0.11c-1.32,0.32-2.63,0.67-3.94,0.99
			c-0.52,0.13-1.05,0.25-1.57,0.38c-0.16,0.04-0.27,0.11-0.34,0.28c-0.79,1.75-1.59,3.5-2.39,5.25c-0.06,0.12-0.09,0.24-0.08,0.37
			c0.13,1.57,0.12,3.14,0.11,4.71c0,0.24,0,0.48,0.03,0.72c0.01,0.05,0.02,0.11,0.01,0.17c-0.11,0.94-0.05,1.88-0.09,2.81
			c-0.06,1.34-0.21,2.67-0.42,3.99c-0.22,1.37-0.44,2.73-0.77,4.08c-0.83,3.31-2.01,6.49-3.69,9.47c-0.48,0.84-1.01,1.65-1.67,2.36
			c-0.26,0.28-0.54,0.54-0.86,0.75c-0.22,0.15-0.46,0.27-0.72,0.35c-0.31,0.1-0.57,0.02-0.8-0.19c-0.2-0.19-0.34-0.41-0.47-0.66
			c-0.29-0.56-0.46-1.15-0.61-1.76c-0.38-1.55-0.46-3.12-0.36-4.71c0.18-3.12,0.95-6.12,1.96-9.07c0.89-2.6,1.99-5.12,3.24-7.58
			c1.04-2.03,2.16-4.02,3.19-6.06c0.1-0.2,0.16-0.41,0.16-0.64c-0.01-1.07-0.08-2.14-0.15-3.2c-0.01-0.1-0.03-0.2-0.09-0.29
			c-0.07-0.11-0.16-0.17-0.3-0.14c-0.38,0.08-0.76,0.16-1.15,0.24c-0.12,0.02-0.23,0.08-0.33,0.14c-0.47,0.27-0.85,0.63-1.18,1.05
			c-0.22,0.29-0.43,0.58-0.65,0.87c-0.24,0.32-0.5,0.62-0.81,0.88c-0.18,0.15-0.36,0.29-0.57,0.41c-0.5,0.28-0.97,0.23-1.4-0.13
			c-0.52-0.43-0.76-0.97-0.6-1.65c0.04-0.17,0.07-0.34,0.11-0.52c-0.27-0.07-0.5,0.02-0.73,0.05c-0.47,0.06-0.94,0.15-1.4,0.22
			c-0.24,0.03-0.39,0.14-0.49,0.38c-0.67,1.53-1.36,3.05-2.05,4.57c-0.09,0.19-0.16,0.39-0.24,0.59c-0.25,0.68-0.66,1.21-1.28,1.6
			c-0.8,0.5-1.65,0.8-2.6,0.77c-1.54-0.05-2.53-1.04-2.95-2.17c-0.07-0.19-0.09-0.4-0.09-0.6c-0.01-0.55,0.11-1.07,0.32-1.57
			c0.27-0.68,0.55-1.36,0.83-2.04c0.03-0.08,0.09-0.16,0.09-0.29c-0.66,0.08-1.3,0.09-1.94,0.05c-1.19-0.07-2.33-0.34-3.44-0.75
			c-0.78-0.29-1.51-0.66-2.2-1.12c-0.15-0.1-0.29-0.2-0.42-0.32c-0.14-0.11-0.28-0.13-0.44-0.08c-0.5,0.12-0.98,0.3-1.45,0.49
			c-1.61,0.67-3.18,1.44-4.71,2.29c-0.06,0.03-0.12,0.06-0.17,0.1c-0.35,0.33-0.78,0.32-1.2,0.27c-0.62-0.08-1.19-0.3-1.68-0.68
			c-0.2-0.16-0.37-0.34-0.5-0.56c-0.11-0.2-0.18-0.41-0.13-0.65c0.26,0.08,0.51,0.02,0.76-0.07c2.65-1,5.29-2.01,7.94-3.02
			c0.28-0.11,0.28-0.11,0.24-0.4c-0.55-4.24,1.26-8.33,4.66-10.75c0.72-0.51,1.43-1.04,2.24-1.4c1.76-0.79,3.59-1.24,5.54-1.14
			c1.03,0.05,1.97,0.35,2.78,1c1.13,0.9,1.74,2.05,1.77,3.51c0.02,1.19-0.16,2.35-0.47,3.5c-0.03,0.1-0.05,0.19-0.08,0.29
			c0.06,0.06,0.12,0.03,0.17,0.01c0.67-0.16,1.33-0.33,2.01-0.47c0.22-0.05,0.34-0.15,0.44-0.36c2.12-4.69,4.24-9.37,6.36-14.05
			c0.32-0.71,0.87-1.18,1.63-1.36c0.63-0.15,1.25-0.07,1.83,0.24c1.48,0.81,2.12,2.34,1.82,4.03c-0.07,0.39-0.18,0.78-0.33,1.15
			c-0.74,1.71-1.36,3.47-2.03,5.21c-0.47,1.2-0.93,2.41-1.39,3.61c-0.03,0.08-0.09,0.16-0.08,0.27c0.59-0.08,1.18-0.16,1.76-0.24
			c1.31-0.18,2.61-0.36,3.92-0.54c0.07-0.01,0.15-0.02,0.22-0.03c0.18-0.03,0.41,0.02,0.53-0.11c0.12-0.12,0.17-0.32,0.24-0.49
			c0.38-0.91,0.75-1.82,1.14-2.72c0.42-0.94,1-1.78,1.7-2.53c0.23-0.24,0.46-0.49,0.7-0.72c0.63-0.62,1.35-1.09,2.24-1.22
			c1.06-0.17,1.92,0.17,2.56,1.05c0.42,0.58,0.64,1.24,0.77,1.92c0.13,0.65,0.18,1.31,0.14,1.97c-0.03,0.5,0.01,1.01-0.07,1.5
			c-0.02,0.14,0.04,0.17,0.17,0.18c0.62,0.05,1.24,0.11,1.85,0.21c0.58,0.1,1.08,0.3,1.47,0.77c0.63,0.77,0.73,1.85,0.24,2.71
			c-0.05,0.09-0.12,0.16-0.2,0.23c-0.4,0.39-0.85,0.72-1.32,1.02c-0.94,0.6-1.94,1.1-2.98,1.51c-0.41,0.16-0.81,0.33-1.21,0.5
			c-0.1,0.04-0.18,0.08-0.22,0.19c-0.73,1.71-1.59,3.36-2.36,5.05c-0.34,0.74-0.67,1.49-0.93,2.26c-0.16,0.48-0.22,0.98-0.19,1.48
			c0.04,0.74,0.44,1.03,1.16,0.86c0.22-0.05,0.43-0.13,0.63-0.22c0.91-0.45,1.81-0.9,2.68-1.43c0.67-0.41,1.29-0.88,1.82-1.46
			c0.09-0.09,0.17-0.2,0.29-0.26C487.2,675.97,487.13,676.05,487.09,676.12z M490.39,673.73c-0.13,0.29-0.32,0.51-0.66,0.59
			c-0.37,0.08-0.66-0.03-0.89-0.32c-0.13-0.16-0.22-0.35-0.28-0.54c-0.18-0.52-0.26-1.06-0.33-1.61c-0.01-0.12-0.01-0.24,0-0.36
			c0.01-0.21,0.11-0.34,0.32-0.4c0.5-0.15,0.98-0.1,1.44,0.12c0.37,0.18,0.6,0.46,0.57,0.9c-0.01,0.12,0,0.24,0,0.36
			C490.59,672.9,490.56,673.33,490.39,673.73z"/>
	</g>
	<path class="st3" d="M494.74,701.02c0.01-0.04,0.01-0.09,0.01-0.13c35.7-14.15,57.27-22.54,57.27-22.54s-30.31,9.93-57.03,20.18
		c5.46-52.93,15.91-94.24,18.84-102.23c-8.41,12.95-17.55,77.93-20.82,102.99c-3.7,1.43-7.33,2.87-10.76,4.28
		c-25.72,6.19-45.94,16.64-45.94,16.64c13.09-6.5,26.37-10.74,38.67-13.58c-7.88,3.43-14.19,6.59-17.45,9.05
		c10.08-4.02,19.52-7.78,28.25-11.24c2.29-0.41,4.53-0.77,6.71-1.09c-0.47,3.68-0.73,5.83-0.73,5.83s3.11,1.41,2.26-0.57
		c0.17-1.86,0.34-3.72,0.51-5.55c17.05-2.36,30.02-2.36,34.29-3.22C517.6,698.44,505.9,699.17,494.74,701.02z M476.48,723.33
		c-3.4-3.12-11.6-9.9-21.5-3.97c0,0,12.73,4.25,16.69,5.66C475.63,726.45,479.87,726.45,476.48,723.33z M515.24,708.62
		c-3.96-3.39-6.51-5.94-17.82-1.13l8.17,6.54c-2.61,1.44-5.28,2.91-7.91,4.34c0-0.04,0.02-0.08,0.02-0.13
		c0.28-3.67-1.13-3.67-6.79-6.51c-5.66-2.83-11.32-0.56-19.24,1.98c0,0,18.31,6.66,20.03,7.88c-7.77,4.17-14.4,7.59-16.92,8.52
		c-7.64,2.82-33.38-9.06-33.38-9.06c-0.57,19.52,24.9,18.96,43,12.17c18.11-6.79,43.57-31.69,43.57-31.69s-5.35,3.02-12.69,7.11
		C515.27,708.65,515.26,708.63,515.24,708.62z"/>
</g>
</svg>
