<?xml version="1.0" encoding="utf-8"?>
<!-- Generator: Adobe Illustrator 23.0.5, SVG Export Plug-In . SVG Version: 6.00 Build 0)  -->
<svg version="1.1" id="图层_1" xmlns="http://www.w3.org/2000/svg" xmlns:xlink="http://www.w3.org/1999/xlink" x="0px" y="0px"
	 viewBox="0 0 1080 1080" style="enable-background:new 0 0 1080 1080;" xml:space="preserve">
<style type="text/css">
	.st0{fill:#F70830;}
	.st1{fill-rule:evenodd;clip-rule:evenodd;fill:#F70830;}
	.st2{fill:#E73828;}
	.st3{fill:#231815;}
	.st4{fill:#FE0000;}
	.st5{fill:#080403;}
	.st6{fill:#0A0606;}
	.st7{fill:#A2A2A2;}
	.st8{fill:#8C8B8B;}
	.st9{fill:#8D3030;}
	.st10{fill:#FEFEFE;}
	.st11{fill:#3F1F24;}
	.st12{fill:#3D3733;}
	.st13{fill:#0A0607;}
	.st14{fill:#3D3935;}
</style>
<g>
	<path d="M531.99,1049.26c-58.15,0-115.48-9.94-170.37-29.55c-53.84-19.23-103.78-47.17-148.42-83.05
		c-45.01-36.17-83.21-79.27-113.54-128.09c-31.38-50.53-53.52-105.95-65.79-164.72c-14.05-67.32-14.5-135.38-1.34-202.28
		c12.72-64.62,37.54-125.46,73.78-180.82s82.06-102.45,136.2-139.96c56.04-38.83,118.59-65.65,185.92-79.7
		c34.5-7.2,69.7-10.85,104.63-10.85c58.15,0,115.48,9.94,170.37,29.55c53.84,19.23,103.78,47.17,148.42,83.05
		c3.26,2.62,6.48,5.27,9.67,7.96c-81.2-58.57-180.75-92.3-287.53-92.3c-33.69,0-67.63,3.52-100.9,10.47
		C207.85,124.34,37.11,385.17,92.48,650.4c47.3,226.6,249.39,391.07,480.53,391.07c25.82,0,51.78-2.07,77.48-6.16
		c-4.6,1.09-9.23,2.13-13.88,3.09C602.11,1045.61,566.91,1049.26,531.99,1049.26z"/>
	<path d="M533.02,20.24l0.03,20c39.35,0,78.32,4.65,116.38,13.85c-24.64-3.68-49.84-5.58-75.44-5.58
		c-34.37,0-69.01,3.59-102.94,10.68C339.94,86.55,227.35,163.33,154,275.38C80.65,387.44,55.32,521.35,82.69,652.44
		c36.79,176.22,165.32,315.61,328.79,371.95c-15.67-3.93-31.18-8.63-46.5-14.11c-52.79-18.86-101.75-46.25-145.52-81.43
		c-44.13-35.46-81.58-77.71-111.31-125.57C77.38,753.75,55.68,699.42,43.65,641.8c-13.78-66.01-14.22-132.72-1.31-198.3
		c12.47-63.35,36.81-122.99,72.34-177.27c35.53-54.28,80.45-100.44,133.53-137.22c54.94-38.07,116.26-64.35,182.26-78.13
		c33.83-7.06,68.33-10.64,102.55-10.64V20.24 M533.05,20.24c-35.18,0-70.86,3.59-106.67,11.06
		C145.57,89.92-34.54,365.08,24.07,645.89c51.14,245,267.16,413.37,507.92,413.37c35.18,0,70.86-3.59,106.67-11.07
		c122.42-25.55,225.69-92.27,298.4-182.65c-66.6,76.84-157.97,133.29-265.19,155.67c-33.17,6.92-66.27,10.26-98.86,10.26
		c-223.15,0-423.33-156.03-470.74-383.11C47.94,388.11,214.87,133.09,475.13,78.76c33.17-6.92,66.27-10.25,98.86-10.25
		c220.24,0,418.11,152,468.8,374.29c-0.58-3.06-1.18-6.12-1.82-9.18C989.82,188.61,773.8,20.25,533.05,20.24L533.05,20.24z"/>
</g>
<g>
	<path class="st0" d="M879.41,858.66c0.21,1.9,1.06,3.9,2.39,5.77c3.11,4.37,8.84,8.03,15.17,8.08c0.54,0.02,1.06,0.03,1.58,0.03
		c8.16,0,13.92-2.3,16.6-4.45l7.86-5.25c0.12-0.08,3.2-2.24,8.57-2.24c3.98,0,8.13,1.19,12.35,3.54c3.99,2.22,7.89,3.35,11.57,3.35
		c3.27,0,5.85-0.88,7.73-1.77c-1.25,0.32-2.8,0.58-4.59,0.58c-4.63,0-9.15-1.68-13.42-5.01c-6.15-4.58-10.98-6.62-15.64-6.62
		c-4.46,0-8.9,1.83-14.62,4.78c-6.18,3.18-10.5,4.6-14.02,4.6c-2.13,0-3.89-0.51-5.75-1.05l-0.23-0.07
		c-2.22-0.64-4.18-2.21-5.4-4.28c-0.18-0.3-0.34-0.61-0.48-0.92c-1.26-2.79-1.15-6.06,0.32-9.2c1.59-3.36,4.98-5.36,9.05-5.36
		c2.76,0,5.34,0.97,6.63,2.47c0.04,0.04,0.07,0.08,0.1,0.11c2.98,3.76,3.01,7.9,0.08,10.3c-0.62,0.45-1.3,0.68-1.98,0.68
		c-1.12,0-2.18-0.62-2.77-1.61c-0.61-1.02-0.61-2.25,0-3.36c0.29-0.47,0.5-0.79,0.67-1.02c-1.64,0.31-3.75,1.17-4.15,3.67
		c-0.14,1.77,0.41,3.45,1.57,4.7c1.21,1.32,2.94,2.04,4.87,2.04c1.44,0,2.89-0.39,4.32-1.18c4.88-2.76,2.58-7.85,2.48-8.06
		c-0.03-0.07-0.02-0.16,0.02-0.23c0.16-0.23,3.82-5.62-0.42-10.48c-0.04-0.05-0.08-0.09-0.12-0.14c-1.63-1.63-3.57-2.46-5.75-2.46
		c-2.74,0-5.2,1.26-6.68,2.02c-0.04,0.02-0.11,0.04-0.18,0.04c-0.06,0-0.12-0.01-0.16-0.05c-0.07-0.07-0.15-0.15-0.1-0.23
		c-0.12-0.14-1.76-2.31-5.04-2.31c-1.42,0-2.97,0.41-4.59,1.21c-5.65,3.22-3.66,9.54-3.57,9.81c0.03,0.09,0,0.2-0.09,0.25
		C883.55,849.38,878.57,852.88,879.41,858.66"/>
	
		<rect x="923.57" y="541.31" transform="matrix(0.7071 -0.7071 0.7071 0.7071 -114.9852 818.1955)" class="st0" width="13.17" height="13.17"/>
	
		<rect x="955.76" y="541.31" transform="matrix(0.7071 -0.7071 0.7071 0.7071 -105.5584 840.9583)" class="st0" width="13.17" height="13.17"/>
	<rect x="897.34" y="546.53" class="st0" width="99.64" height="3.04"/>
	<polygon class="st0" points="938.95,563.09 933.11,568.98 930.07,572.04 913.62,588.62 905.46,596.85 903.3,594.7 913.53,584.39 
		936.8,560.94 	"/>
	<rect x="930.07" y="568.37" class="st0" width="3.04" height="57.25"/>
	<polygon class="st0" points="963.53,629.77 961.32,629.8 960.83,565.44 963.87,565.44 	"/>
	<path class="st0" d="M1024.94,710.44c-0.04,0-0.08,0-0.11-0.01c-0.3-0.06-0.51-0.32-0.5-0.62c0.5-15.41-4.95-22.33-13.29-27.98
		c-4.69-3.18-10.12-5.58-15.87-8.11c-3.58-1.57-7.27-3.21-10.88-5.08c-16.8-8.73-22.7-31.74-22.92-41.52
		c-0.24-10.6,4.21-21.53,11.92-29.21c4.79-4.79,10.2-7.02,17.01-7.02c3.44,0,7.39,0.55,12.42,1.75c2.24,0.53,4.39,0.79,6.38,0.79
		c6.83,0,9.78-3.18,9.82-3.21c0.17-0.19,0.46-0.25,0.7-0.15c0.24,0.1,0.39,0.34,0.37,0.61c-2.13,26.76-14.45,29.86-23.53,29.86h0
		c-4.06,0-8.12-0.67-12.06-1.32c-3.07-0.5-5.97-0.98-8.48-1.05c-4.99-0.16-8.44,0.96-10.46,3.28c-2.23,2.56-1.83,5.74-1.83,5.77
		c0.94,10.89,11.73,10.59,23.78,10.46c7.15-0.08,14.92-0.2,21.6,2.04c7.97,2.67,13.87,7.79,17.52,15.19
		c10.46,21.19-0.87,54.78-0.99,55.11C1025.43,710.28,1025.19,710.44,1024.94,710.44 M962.76,629.69
		c1.1,10.33,7.29,30.19,22.09,37.87c3.57,1.85,7.26,3.48,10.81,5.05c5.8,2.56,11.28,4.97,16.07,8.22
		c9.3,6.31,13.39,13.49,13.81,24.87c2.61-9.43,8.01-33.75-0.13-50.25c-3.51-7.1-9.16-12.01-16.81-14.57
		c-6.49-2.18-14.16-2.04-21.2-1.97c-1.32,0.01-2.62,0.03-3.9,0.03C973.73,638.93,964.82,638.18,962.76,629.69 M990.3,592.11
		c-6.47,0-11.6,2.12-16.15,6.66c-6.79,6.78-10.98,16.14-11.52,25.51c0.28-1.14,0.83-2.43,1.87-3.63c2.27-2.61,6.04-3.85,11.42-3.7
		c2.59,0.08,5.53,0.56,8.65,1.07c3.89,0.64,7.9,1.3,11.86,1.3h0c9.14,0,19.87-3.14,22.19-27.28c-1.53,1.07-4.59,2.62-9.53,2.62
		c-2.08,0-4.32-0.28-6.66-0.83C997.5,592.66,993.65,592.11,990.3,592.11"/>
	<path class="st0" d="M962.67,624.47c-0.06,0-0.11,0-0.17-0.02c-0.32-0.09-0.51-0.43-0.41-0.76c0.05-0.16,4.79-15.59,22.87-11.35
		c18.15,4.27,26.3-0.57,33.54-19.9c0.12-0.31,0.47-0.47,0.78-0.35c0.31,0.11,0.47,0.47,0.36,0.78
		c-7.42,19.83-16.24,25.05-34.96,20.66c-16.96-3.99-21.26,9.91-21.43,10.51C963.18,624.31,962.93,624.47,962.67,624.47"/>
	<path class="st0" d="M962.61,622.51c-0.07,0-0.14-0.01-0.2-0.04c-0.31-0.11-0.48-0.46-0.37-0.78c0.06-0.18,6.64-18.08,23.53-13.99
		c14.46,3.5,26.7-2.62,32.76-16.39c0.14-0.31,0.49-0.44,0.8-0.31c0.31,0.14,0.45,0.49,0.31,0.8c-4.87,11.08-16.41,21.39-34.16,17.08
		c-15.8-3.82-21.85,12.51-22.09,13.21C963.09,622.35,962.86,622.51,962.61,622.51"/>
	<path class="st0" d="M962.28,620.81c-0.08,0-0.16-0.01-0.23-0.05c-0.31-0.13-0.46-0.48-0.33-0.79c0.09-0.23,9.44-22.58,26.16-20.18
		c14.44,2.03,23.76-0.6,30.26-8.56c0.21-0.26,0.6-0.3,0.86-0.09c0.26,0.22,0.3,0.6,0.09,0.86c-6.8,8.32-16.47,11.1-31.37,8.99
		c-15.77-2.22-24.78,19.22-24.87,19.44C962.75,620.67,962.52,620.81,962.28,620.81"/>
	<path class="st0" d="M1025.11,708.81c-0.04,0-0.08,0-0.13-0.01c-0.33-0.07-0.54-0.39-0.47-0.72c1.75-8.12,6.63-35.79-4.01-51.11
		c-8.19-11.77-21.63-12.56-33.49-13.27c-4.51-0.26-8.77-0.52-12.25-1.4c-12.62-3.18-13.41-14.43-13.42-14.54
		c-0.02-0.33,0.23-0.62,0.57-0.64c0.29-0.02,0.62,0.23,0.64,0.57c0.02,0.42,0.77,10.47,12.49,13.43c3.37,0.85,7.58,1.1,12.03,1.36
		c11.54,0.68,25.9,1.54,34.42,13.79c10.93,15.71,5.98,43.82,4.2,52.05C1025.64,708.61,1025.39,708.81,1025.11,708.81"/>
	<path class="st0" d="M1025.29,705.49h-0.04c-0.33-0.02-0.59-0.31-0.57-0.65c3.27-50.34-22.58-53.32-39.69-55.29
		c-2.67-0.31-5.19-0.6-7.35-1.03c-16.27-3.28-16.22-19.91-16.21-20.07c0-0.34,0.26-0.61,0.62-0.6c0.33,0,0.61,0.28,0.6,0.62
		c-0.01,0.64-0.04,15.78,15.23,18.87c2.11,0.43,4.61,0.71,7.25,1.02c17.56,2.03,44.11,5.08,40.76,56.58
		C1025.87,705.24,1025.61,705.49,1025.29,705.49"/>
	<path class="st0" d="M1025.43,705.68L1025.43,705.68c-0.34,0-0.62-0.28-0.61-0.62c0.43-32.88-18-39.56-39.34-47.29
		c-24.42-8.84-23.6-26.28-23.59-26.45c0.02-0.33,0.32-0.62,0.64-0.57c0.33,0.02,0.59,0.31,0.57,0.64
		c-0.01,0.16-0.73,16.71,22.74,25.21c21.82,7.91,40.63,14.72,40.19,48.46C1026.03,705.41,1025.76,705.68,1025.43,705.68"/>
	<path class="st0" d="M892.41,778.58c-0.37,0-0.74,0-1.11-0.01l0.06-3.65c0.35,0,0.71,0.01,1.06,0.01
		c35.93,0,36.8-29.48,36.85-30.75v-54.42l0.52-28.06l4.37,0.07l-0.52,28.02v54.46C933.61,744.66,931.92,778.58,892.41,778.58"/>
	<rect x="920.26" y="677.59" class="st0" width="23.47" height="4.54"/>
	<path class="st0" d="M917.96,698.11c-0.08-0.11-2.14-2.73-5.67-3.15c-2.66-0.32-5.93,0.21-8.96,2.14
		c-7.81-5.55-7.61-12.69-7.36-21.62c0.08-2.54,0.16-5.17,0.04-7.94v-0.12c-0.12-3.06-0.4-10.17-6.36-15.5
		c-0.61-0.55-1.29-1.08-2.03-1.58c-1.09-0.74-2.31-1.43-3.69-2.04l-0.98,2.22c0.97,0.43,1.85,0.9,2.65,1.4
		c0.74,0.46,1.41,0.94,2.03,1.46c4.85,4.05,5.78,9.52,5.95,14.13v0.03c0.11,2.73,0.03,5.34-0.04,7.88
		c-0.25,9.08-0.48,16.99,7.76,23.22c-1.41,1.26-2.73,2.89-3.85,4.94c-0.21,0.38-5.17,9.32-3.92,21.07
		c1.14,10.78,0.41,17.97-5.9,22.09c-0.72,0.48-1.51,0.91-2.39,1.3c-2.01,0.91-4.43,1.61-7.34,2.11l0.41,2.4
		c3.8-0.66,6.87-1.65,9.32-2.97c0.88-0.47,1.67-0.98,2.39-1.54c6.29-4.82,7.08-12.78,5.93-23.65c-1.16-10.94,3.58-19.52,3.63-19.62
		c1.15-2.1,2.46-3.61,3.79-4.71c1.58,0.93,9.66,5.26,14.55-0.39l0.65-0.75L917.96,698.11z M905.7,698.52
		c2.74-1.37,5.25-1.27,6.3-1.15c1.45,0.18,2.57,0.9,3.26,1.47C912.26,701.17,907.86,699.56,905.7,698.52"/>
	<path class="st0" d="M890.02,748.03c-0.88-0.39-1.67-0.82-2.39-1.3c-6.32-4.13-7.04-11.31-5.9-22.09
		c1.25-11.75-3.71-20.69-3.91-21.05c-1.12-2.05-2.44-3.68-3.86-4.95c8.24-6.23,8.02-14.14,7.76-23.22
		c-0.08-2.53-0.15-5.15-0.04-7.88v-0.03c0.19-4.62,1.11-10.09,5.95-14.13c0.61-0.52,1.28-1.01,2.03-1.46c0.8-0.5,1.68-0.97,2.65-1.4
		l-0.98-2.22c-1.39,0.61-2.61,1.3-3.69,2.04c-0.74,0.5-1.41,1.04-2.03,1.58c-3.27,2.93-4.83,6.4-5.59,9.43
		c-0.63,2.49-0.71,4.69-0.77,6.08c-0.11,2.81-0.03,5.48,0.04,8.06c0.25,8.93,0.45,16.06-7.35,21.62c-3.04-1.92-6.29-2.47-8.97-2.14
		c-3.52,0.43-5.58,3.04-5.67,3.15l-0.61,0.79l0.65,0.75c4.88,5.65,12.96,1.32,14.55,0.39c1.33,1.09,2.64,2.62,3.8,4.73
		c0.05,0.08,4.78,8.66,3.62,19.61c-1.15,10.87-0.37,18.83,5.93,23.65c0.72,0.56,1.51,1.07,2.39,1.54c2.45,1.32,5.52,2.31,9.32,2.97
		l0.41-2.4C894.46,749.64,892.03,748.94,890.02,748.03 M860.01,698.84c0.69-0.57,1.81-1.29,3.26-1.47c1.05-0.11,3.56-0.22,6.3,1.15
		C867.4,699.56,863.01,701.17,860.01,698.84"/>
	<path class="st1" d="M934.12,661.8l-0.14,3.55c-1.31-0.7-2.74-1.41-4.23-2.1c-2.09-0.97-4.3-1.89-6.47-2.65
		c-3.99-1.4-7.8-2.23-10.35-1.76c-1.44,0.27-4.89,1.44-6.24,6.74c-1.98-9.83,6.34-14.5,9.69-14.62c-1.16-1.9-1.44-3.51-1.51-5.45
		c-0.13-3.18,1.22-6.29,3.45-8.31c1.02-0.93,2.23-1.62,3.58-1.99c5.2-1.42,10.06,1.94,10.91,7.2c-0.12-0.21-0.45-0.31-0.77-0.29
		l-0.87,0.03c-3.02,0.12-7.06,1.9-6.8,8.49c0.17,4.46,5,7.16,9.71,11.12C934.1,661.78,934.11,661.78,934.12,661.8"/>
	<path class="st1" d="M896.07,774.13c0,2.37-1.93,4.3-4.3,4.3c-2.38,0-4.3-1.93-4.3-4.3c0-2.38,1.93-4.3,4.3-4.3
		C894.15,769.83,896.07,771.75,896.07,774.13"/>
	<path class="st0" d="M1043.02,844.01c-4.74-24.16-26.08-42.45-51.6-42.45c-3.15,0-6.23,0.29-9.22,0.82
		c-0.81,1.14-1.56,2.23-2.21,3.27c-0.07,0.11-0.12,0.22-0.18,0.33c3.73-0.9,7.62-1.39,11.62-1.39c22.76,0,41.99,15.43,47.77,36.38
		c1.16,4.19,1.78,8.61,1.78,13.17c0,8.81-2.31,17.1-6.37,24.27c-8.51,15.08-24.67,25.28-43.18,25.28
		c-22.39,0-41.35-14.93-47.47-35.35c-0.97,0.21-1.95,0.47-2.94,0.78c6.47,21.72,26.61,37.61,50.41,37.61
		c19.59,0,36.7-10.77,45.75-26.69c4.35-7.65,6.84-16.49,6.84-25.91C1044,850.68,1043.66,847.29,1043.02,844.01 M965.49,808.42
		c-15.67,8.92-26.33,25.65-26.65,44.85c1.04-0.5,2.07-0.94,3.08-1.33c0.74-16.94,10.05-31.71,23.68-40.07
		C965.47,810.75,965.42,809.59,965.49,808.42"/>
	<path class="st0" d="M978.76,821.55c-2.7,0-5.11-0.98-6.99-2.92c-4.21-4.37-4.45-12.31-0.57-18.49c3.26-5.17,8.1-11.11,13.24-17.4
		c6.69-8.19,14.27-17.48,19.5-26.59c9.38-16.33,10.63-31.66,3.36-41.01c-3.54-4.55-8.64-7.35-14.35-7.88
		c-5.68-0.51-11.21,1.31-15.53,5.15c-19.24,17.09-23.96,54.5-24.01,54.87c-0.24,2-2.06,3.42-4.06,3.18c-2-0.24-3.43-2.06-3.19-4.06
		c0.2-1.64,5.09-40.51,26.41-59.46c5.85-5.19,13.32-7.66,21.05-6.95c7.74,0.71,14.64,4.5,19.44,10.67
		c9.15,11.77,8.11,30.13-2.8,49.12c-5.53,9.63-13.32,19.16-20.18,27.57c-4.99,6.11-9.69,11.87-12.71,16.67
		c-2.22,3.53-1.97,7.86-0.36,9.53c1.44,1.49,4.15,0.26,5.65-0.6c1.74-1.01,3.98-0.42,4.99,1.33c1.01,1.74,0.42,3.98-1.33,4.99
		C983.72,820.79,981.13,821.55,978.76,821.55"/>
	<path class="st0" d="M997.58,749.38c-1.58,0-3.04-1.04-3.51-2.65c-5.59-19.44-24.19-28.08-24.38-28.17
		c-1.83-0.83-2.65-2.99-1.82-4.83c0.83-1.84,2.98-2.66,4.82-1.83c0.89,0.4,21.85,10.04,28.4,32.81c0.56,1.94-0.56,3.96-2.5,4.52
		C998.26,749.34,997.92,749.38,997.58,749.38"/>
	<path class="st0" d="M979.12,760.53c-1.37,0-2.69-0.78-3.31-2.11c-5.83-12.45-17.5-18.13-17.61-18.19
		c-1.82-0.87-2.59-3.04-1.72-4.86c0.86-1.82,3.05-2.58,4.86-1.72c0.58,0.27,14.16,6.89,21.08,21.69c0.86,1.82,0.07,4-1.76,4.85
		C980.16,760.41,979.64,760.53,979.12,760.53"/>
	<g>
		<g>
			<path class="st2" d="M982.27,847c0.07-0.16,0.15-0.32,0.22-0.49c0.46-1.02,0.91-2.05,1.36-3.07c0.16-0.36,0.32-0.72,0.48-1.09
				c0.07-0.15,0.11-0.31,0.12-0.46c0-0.28-0.15-0.49-0.46-0.58c-0.04-0.01-0.07,0-0.09,0.03c-0.03,0.06-0.06,0.11-0.08,0.16
				c-0.72,1.51-1.44,3.02-2.15,4.53c-0.18,0.37-0.35,0.74-0.53,1.11c-0.04,0.08-0.02,0.09,0.06,0.08c0.31-0.04,0.63-0.08,0.94-0.13
				C982.21,847.09,982.25,847.06,982.27,847z"/>
			<path class="st2" d="M984.24,850.81c0.01,0.12,0.01,0.24,0.02,0.36c0,0.02-0.01,0.05,0.03,0.04c0.08-0.16,0.16-0.32,0.24-0.51
				c-0.1,0.01-0.17,0.02-0.25,0.03C984.24,850.74,984.24,850.77,984.24,850.81z"/>
			<path class="st2" d="M983.63,855.04c0.01-0.03,0-0.05,0-0.08c0.01-0.13-0.03-0.25-0.03-0.38c0-0.02-0.01-0.03-0.03-0.02
				c-0.01,0-0.01,0.02-0.01,0.03c-0.03,0.04-0.07,0.08-0.08,0.13c-0.01,0-0.02,0.01-0.02,0.03l0,0c-0.02,0.01-0.03,0.02-0.03,0.05
				c-0.09,0.14-0.19,0.27-0.28,0.41c-1.42,2.23-2.24,4.66-2.37,7.31c-0.04,0.82-0.01,1.63,0.09,2.44c0.01,0.09,0.01,0.18,0.05,0.27
				c0.02-0.02,0.03-0.03,0.04-0.05c0.06-0.08,0.12-0.16,0.17-0.25c0.41-0.63,0.77-1.3,1.09-1.98c0.84-1.84,1.33-3.77,1.45-5.79
				c0.03-0.57,0.03-1.14,0.01-1.72C983.66,855.32,983.67,855.18,983.63,855.04z M983.6,854.88
				C983.6,854.87,983.6,854.87,983.6,854.88c0,0,0-0.01,0-0.01C983.6,854.87,983.6,854.87,983.6,854.88z"/>
			<path class="st2" d="M976.11,849.63c-1.2,0.32-2.39,0.66-3.58,1.02c-0.02,0-0.04,0.01-0.06,0.02c-0.03,0.01-0.03,0.03-0.03,0.06
				c0.04,0.2,0.16,0.34,0.35,0.42c0.16,0.06,0.32,0.08,0.49,0.05c0.48-0.08,0.96-0.14,1.44-0.2c0.29-0.04,0.59-0.08,0.88-0.12
				c0.07-0.01,0.11-0.04,0.14-0.1c0.04-0.1,0.08-0.2,0.13-0.3c0.08-0.09,0.12-0.2,0.13-0.31c0.05-0.05,0.08-0.11,0.08-0.18
				c0.05-0.12,0.09-0.23,0.15-0.36C976.17,849.61,976.14,849.63,976.11,849.63z"/>
			<path class="st2" d="M977.69,851.77c-0.25,0.04-0.51,0.08-0.76,0.11c-0.06,0.01-0.07,0.04-0.08,0.08
				c-0.04,0.12-0.08,0.25-0.12,0.37c-0.11,0.36-0.23,0.72-0.29,1.09c-0.02,0.1-0.03,0.21-0.01,0.31c0.01,0.07,0.05,0.08,0.11,0.06
				c0.04-0.02,0.08-0.05,0.11-0.08c0.23-0.23,0.43-0.49,0.58-0.77c0.19-0.38,0.35-0.77,0.54-1.17
				C977.73,851.77,977.71,851.77,977.69,851.77z"/>
			<path class="st2" d="M978.05,849.14c-0.08,0.01-0.11,0.05-0.14,0.12c-0.16,0.42-0.33,0.84-0.5,1.25
				c-0.01,0.03-0.04,0.06-0.02,0.1c0.28-0.04,0.55-0.09,0.83-0.13c0.09-0.01,0.14-0.05,0.17-0.13c0.2-0.45,0.4-0.89,0.6-1.33
				c0.01-0.03,0.03-0.05,0.02-0.1C978.7,848.99,978.38,849.07,978.05,849.14z"/>
			<path class="st2" d="M981.55,848.39c-0.36,0.08-0.72,0.17-1.08,0.25c-0.08,0.01-0.11,0.05-0.14,0.12
				c-0.2,0.45-0.41,0.9-0.62,1.35c-0.02,0.04-0.05,0.08-0.04,0.14c0.01,0,0.02,0,0.04,0c0.37-0.06,0.74-0.12,1.11-0.18
				c0.05-0.01,0.08-0.03,0.1-0.07c0.07-0.12,0.14-0.24,0.19-0.37c0.14-0.31,0.28-0.63,0.42-0.94c0.04-0.1,0.08-0.2,0.13-0.3
				C981.61,848.37,981.58,848.38,981.55,848.39z"/>
			<path class="st2" d="M976.84,848.12c0.19-0.44,0.29-0.91,0.3-1.39c0.01-0.27-0.02-0.53-0.09-0.79c-0.1-0.32-0.31-0.53-0.64-0.61
				c-0.33-0.08-0.67-0.07-1-0.01c-0.59,0.11-1.1,0.38-1.57,0.75c-1.13,0.91-1.65,2.11-1.68,3.55c0,0.02,0,0.04,0.02,0.07
				c0.04,0.01,0.07-0.01,0.11-0.02c1.47-0.47,2.93-0.94,4.39-1.4C976.76,848.24,976.81,848.2,976.84,848.12z"/>
			<path class="st2" d="M990.39,848.09c0.15-0.04,0.31-0.08,0.46-0.11c0.25-0.06,0.47-0.17,0.69-0.31c0.14-0.09,0.2-0.23,0.16-0.38
				c-0.05-0.15-0.17-0.23-0.34-0.22c-0.17,0.01-0.35,0.03-0.52,0.03c-0.08,0-0.13,0.03-0.15,0.11c-0.05,0.17-0.13,0.32-0.2,0.48
				c-0.06,0.13-0.11,0.25-0.17,0.39C990.34,848.11,990.37,848.1,990.39,848.09z"/>
			<path class="st2" d="M989.13,848.33c0.08-0.2,0.16-0.39,0.22-0.6c0.03-0.12,0.06-0.24,0.07-0.37c0-0.11,0-0.12-0.11-0.11
				c-0.2,0.02-0.41,0.04-0.61,0.07c-0.55,0.06-1.1,0.13-1.64,0.22c-0.09,0.01-0.15,0.06-0.19,0.15c-0.2,0.43-0.39,0.86-0.61,1.29
				c-0.01,0.02-0.03,0.04-0.01,0.08c0.18-0.04,0.36-0.07,0.54-0.13c0.05,0,0.09,0,0.13-0.03c0.02,0,0.03,0,0.05,0
				c0.69-0.16,1.37-0.31,2.05-0.46C989.07,848.41,989.1,848.38,989.13,848.33z M987.03,848.34L987.03,848.34
				C987.03,848.33,987.03,848.33,987.03,848.34C987.03,848.33,987.03,848.34,987.03,848.34z"/>
			<path class="st2" d="M987.56,846.34c0.03,0,0.05,0,0.08,0c0.46-0.06,0.92-0.12,1.37-0.19c0.23-0.03,0.46-0.07,0.69-0.1
				c0.01-0.2,0.03-0.39,0.03-0.59c0-0.21-0.01-0.42-0.05-0.63c-0.04-0.21-0.1-0.41-0.24-0.57c-0.09-0.1-0.1-0.1-0.21-0.02
				c-0.51,0.37-0.94,0.81-1.3,1.33c-0.04,0.06-0.08,0.11-0.1,0.18c-0.08,0.08-0.13,0.19-0.18,0.3c-0.07,0.08-0.1,0.17-0.14,0.26
				c-0.02,0.01-0.03,0.03-0.02,0.04C987.51,846.38,987.54,846.36,987.56,846.34z"/>
			<path class="st2" d="M985.83,847.68c-0.87,0.15-1.74,0.31-2.62,0.46c-0.24-0.02-0.33,0.14-0.4,0.33
				c-0.17,0.44-0.38,0.87-0.57,1.31c-0.01,0.01-0.04,0.03-0.01,0.05c0.01,0.01,0.03,0,0.03-0.02c0.25-0.22,0.51-0.42,0.74-0.65
				c0.01,0,0.02-0.01,0.03-0.02l0,0c0.01,0,0.02-0.01,0.03-0.02c0.05-0.02,0.08-0.06,0.11-0.1c0.08-0.07,0.16-0.12,0.22-0.21
				c0.03-0.02,0.06-0.05,0.08-0.08c0.01,0,0.02-0.01,0.03-0.02c0.02-0.01,0.05-0.03,0.07-0.04c0.2-0.14,0.5-0.13,0.57,0.23
				c0.03,0.17,0.05,0.34,0.07,0.51c0,0.07,0.02,0.08,0.09,0.07c0.3-0.06,0.59-0.12,0.88-0.18c0.07-0.01,0.09-0.05,0.12-0.1
				c0.21-0.46,0.42-0.92,0.63-1.38c0.01-0.03,0.04-0.06,0.02-0.1C985.89,847.67,985.86,847.68,985.83,847.68z"/>
			<path class="st2" d="M989.76,828.99c-14.65,0-26.53,11.87-26.53,26.53s11.87,26.53,26.53,26.53c14.65,0,26.53-11.87,26.53-26.53
				C1016.28,840.87,1004.4,828.99,989.76,828.99z M991.27,852.41c-0.17,0.31-0.34,0.63-0.53,0.94c-0.12,0.19-0.28,0.35-0.44,0.5
				c-0.24,0.22-0.49,0.43-0.76,0.63c-0.1,0.08-0.2,0.16-0.3,0.25c-0.31,0.3-0.68,0.47-1.12,0.45c-0.4-0.02-0.71-0.21-0.91-0.57
				c-0.17-0.31-0.21-0.63-0.17-0.98c0.04-0.35,0.16-0.68,0.29-1c0.27-0.68,0.58-1.34,0.89-2.01c0.11-0.23,0.21-0.47,0.31-0.7
				c0.03-0.07,0.06-0.15,0.07-0.23c-0.12,0-0.23,0.02-0.33,0.05c-0.62,0.15-1.24,0.31-1.85,0.47c-0.24,0.06-0.49,0.12-0.74,0.18
				c-0.08,0.02-0.13,0.05-0.16,0.13c-0.37,0.82-0.75,1.64-1.12,2.47c-0.03,0.06-0.04,0.11-0.04,0.17c0.06,0.74,0.06,1.48,0.05,2.21
				c0,0.11,0,0.23,0.01,0.34c0,0.02,0.01,0.05,0,0.08c-0.05,0.44-0.02,0.88-0.04,1.32c-0.03,0.63-0.1,1.25-0.2,1.87
				c-0.1,0.64-0.21,1.28-0.36,1.92c-0.39,1.56-0.94,3.05-1.73,4.45c-0.23,0.39-0.47,0.78-0.78,1.11c-0.12,0.13-0.25,0.25-0.4,0.35
				c-0.1,0.07-0.22,0.13-0.34,0.16c-0.15,0.05-0.27,0.01-0.38-0.09c-0.09-0.09-0.16-0.19-0.22-0.31c-0.14-0.26-0.22-0.54-0.29-0.83
				c-0.18-0.73-0.22-1.47-0.17-2.21c0.08-1.47,0.45-2.88,0.92-4.26c0.42-1.22,0.94-2.41,1.52-3.56c0.49-0.95,1.01-1.89,1.5-2.85
				c0.05-0.09,0.08-0.19,0.08-0.3c0-0.5-0.04-1.01-0.07-1.5c0-0.05-0.01-0.09-0.04-0.14c-0.03-0.05-0.08-0.08-0.14-0.07
				c-0.18,0.04-0.36,0.08-0.54,0.11c-0.06,0.01-0.11,0.04-0.16,0.07c-0.22,0.13-0.4,0.3-0.55,0.49c-0.1,0.14-0.2,0.27-0.31,0.41
				c-0.11,0.15-0.23,0.29-0.38,0.41c-0.08,0.07-0.17,0.14-0.27,0.19c-0.23,0.13-0.46,0.11-0.66-0.06c-0.24-0.2-0.36-0.46-0.28-0.78
				c0.02-0.08,0.03-0.16,0.05-0.24c-0.13-0.03-0.23,0.01-0.34,0.02c-0.22,0.03-0.44,0.07-0.66,0.1c-0.11,0.01-0.18,0.07-0.23,0.18
				c-0.31,0.72-0.64,1.43-0.96,2.15c-0.04,0.09-0.08,0.18-0.11,0.28c-0.12,0.32-0.31,0.57-0.6,0.75c-0.38,0.23-0.78,0.38-1.22,0.36
				c-0.72-0.02-1.19-0.49-1.39-1.02c-0.03-0.09-0.04-0.19-0.04-0.28c0-0.26,0.05-0.5,0.15-0.74c0.13-0.32,0.26-0.64,0.39-0.96
				c0.01-0.04,0.04-0.08,0.04-0.14c-0.31,0.04-0.61,0.04-0.91,0.02c-0.56-0.03-1.09-0.16-1.62-0.35c-0.37-0.14-0.71-0.31-1.03-0.53
				c-0.07-0.05-0.14-0.09-0.2-0.15c-0.07-0.05-0.13-0.06-0.21-0.04c-0.23,0.06-0.46,0.14-0.68,0.23c-0.76,0.31-1.49,0.68-2.21,1.08
				c-0.03,0.01-0.06,0.03-0.08,0.05c-0.16,0.16-0.37,0.15-0.56,0.13c-0.29-0.04-0.56-0.14-0.79-0.32c-0.09-0.08-0.17-0.16-0.23-0.26
				c-0.05-0.09-0.08-0.19-0.06-0.31c0.12,0.04,0.24,0.01,0.36-0.03c1.25-0.47,2.49-0.94,3.73-1.42c0.13-0.05,0.13-0.05,0.11-0.19
				c-0.26-1.99,0.59-3.91,2.19-5.05c0.34-0.24,0.67-0.49,1.05-0.66c0.83-0.37,1.69-0.58,2.6-0.54c0.48,0.02,0.93,0.16,1.31,0.47
				c0.53,0.42,0.82,0.96,0.83,1.65c0.01,0.56-0.08,1.1-0.22,1.64c-0.01,0.05-0.02,0.09-0.04,0.14c0.03,0.03,0.06,0.01,0.08,0
				c0.31-0.08,0.62-0.16,0.94-0.22c0.1-0.02,0.16-0.07,0.21-0.17c1-2.2,1.99-4.4,2.99-6.6c0.15-0.33,0.41-0.55,0.77-0.64
				c0.3-0.07,0.59-0.03,0.86,0.11c0.7,0.38,1,1.1,0.86,1.89c-0.03,0.18-0.08,0.37-0.16,0.54c-0.35,0.8-0.64,1.63-0.95,2.45
				c-0.22,0.56-0.44,1.13-0.65,1.7c-0.01,0.04-0.04,0.08-0.04,0.13c0.28-0.04,0.55-0.08,0.83-0.11c0.62-0.08,1.23-0.17,1.84-0.25
				c0.03,0,0.07-0.01,0.1-0.01c0.08-0.01,0.19,0.01,0.25-0.05c0.06-0.06,0.08-0.15,0.11-0.23c0.18-0.43,0.35-0.86,0.54-1.28
				c0.2-0.44,0.47-0.84,0.8-1.19c0.11-0.11,0.22-0.23,0.33-0.34c0.3-0.29,0.63-0.51,1.05-0.57c0.5-0.08,0.9,0.08,1.2,0.49
				c0.2,0.27,0.3,0.58,0.36,0.9c0.06,0.31,0.08,0.62,0.07,0.93c-0.01,0.23,0,0.47-0.03,0.7c-0.01,0.07,0.02,0.08,0.08,0.08
				c0.29,0.02,0.58,0.05,0.87,0.1c0.27,0.05,0.51,0.14,0.69,0.36c0.3,0.36,0.34,0.87,0.11,1.27c-0.02,0.04-0.06,0.08-0.09,0.11
				c-0.19,0.18-0.4,0.34-0.62,0.48c-0.44,0.28-0.91,0.52-1.4,0.71c-0.19,0.08-0.38,0.16-0.57,0.23c-0.05,0.02-0.08,0.04-0.1,0.09
				c-0.34,0.8-0.75,1.58-1.11,2.37c-0.16,0.35-0.31,0.7-0.44,1.06c-0.08,0.23-0.1,0.46-0.09,0.7c0.02,0.35,0.21,0.48,0.55,0.4
				c0.1-0.02,0.2-0.06,0.3-0.1c0.43-0.21,0.85-0.42,1.26-0.67c0.31-0.19,0.61-0.41,0.86-0.69c0.04-0.04,0.08-0.09,0.14-0.12
				C991.32,852.34,991.29,852.38,991.27,852.41z M992.82,851.29c-0.06,0.14-0.15,0.24-0.31,0.28c-0.17,0.04-0.31-0.01-0.42-0.15
				c-0.06-0.08-0.1-0.16-0.13-0.25c-0.08-0.24-0.12-0.5-0.16-0.76c0-0.06,0-0.11,0-0.17c0-0.1,0.05-0.16,0.15-0.19
				c0.23-0.07,0.46-0.05,0.68,0.06c0.17,0.08,0.28,0.22,0.27,0.42c0,0.06,0,0.11,0,0.17C992.92,850.9,992.9,851.1,992.82,851.29z"/>
		</g>
		<path class="st3" d="M994.87,864.11c0-0.02,0-0.04,0-0.06c16.78-6.65,26.91-10.59,26.91-10.59s-14.24,4.67-26.8,9.48
			c2.57-24.87,7.48-44.28,8.85-48.04c-3.95,6.09-8.25,36.62-9.78,48.39c-1.74,0.67-3.44,1.35-5.06,2.01
			c-12.09,2.91-21.59,7.82-21.59,7.82c6.15-3.05,12.39-5.05,18.17-6.38c-3.7,1.61-6.67,3.1-8.2,4.25c4.74-1.89,9.17-3.66,13.27-5.28
			c1.08-0.19,2.13-0.36,3.15-0.51c-0.22,1.73-0.34,2.74-0.34,2.74s1.46,0.66,1.06-0.27c0.08-0.87,0.16-1.75,0.24-2.61
			c8.01-1.11,14.11-1.11,16.11-1.51C1005.61,862.9,1000.11,863.24,994.87,864.11z M986.29,874.59c-1.6-1.47-5.45-4.65-10.1-1.87
			c0,0,5.98,2,7.84,2.66C985.89,876.06,987.88,876.06,986.29,874.59z M1004.5,867.68c-1.86-1.59-3.06-2.79-8.37-0.53l3.84,3.07
			c-1.23,0.68-2.48,1.37-3.72,2.04c0-0.02,0.01-0.04,0.01-0.06c0.13-1.72-0.53-1.72-3.19-3.06c-2.66-1.33-5.32-0.26-9.04,0.93
			c0,0,8.6,3.13,9.41,3.7c-3.65,1.96-6.77,3.57-7.95,4c-3.59,1.33-15.69-4.26-15.69-4.26c-0.27,9.17,11.7,8.91,20.21,5.72
			c8.51-3.19,20.47-14.89,20.47-14.89s-2.51,1.42-5.96,3.34C1004.51,867.7,1004.51,867.69,1004.5,867.68z"/>
	</g>
</g>
<path class="st4" d="M346.33,866.49c-5.27,4.38-9.09,8.41-11.63,11.3c-6.11,6.97-11.36,14.73-11.36,14.73
	c-1.69,2.5-3.6,4.85-5.33,7.33c-4.54,6.52-6,7.31-7.08,7.1c-0.5-0.1-1.8-0.61-3.31-7.42c-1.53-6.9-1.52-12.32-1.52-12.63
	c0.05-20.54-0.28-14.34-0.02-22.63c0.27-8.51,0.4-12.77,0.78-17.9c0.71-9.42,1.72-16.36,2.74-23.22c1.16-7.81,2.86-17.86,5.39-29.6
	v0c2.31-10.82,4.93-20.14,7.31-27.69c4.8-15.18,9.63-26.21,11.02-29.34c4.95-11.13,9.43-19.14,10.71-21.41
	c3.3-5.82,6.16-10.3,8.74-14.33c1.91-2.98,5.82-9.07,10.56-15.66c6.45-8.96,11.78-15.16,18.13-22.51
	c12.28-14.21,23.16-25.36,31.04-32.8c5.42-5.12,10.64-10.46,16.45-15.13c6.8-5.48,13.56-11.04,20.35-16.52
	c11.21-9.04,23.19-16.95,34.77-25.42c5.22-3.82,10.9-7.01,16.45-10.35c8.77-5.27,17.51-10.59,26.44-15.58
	c7.36-4.12,14.92-7.91,22.48-11.67c9.99-4.97,20.02-9.83,30.11-14.6c13.13-6.2,26.55-11.72,40.01-17.04
	c12.28-4.86,24.68-9.5,37.26-13.66c11.15-3.69,22.26-7.58,33.35-11.48c6.33-2.23,13.09-3.23,19.44-5.4
	c6.63-2.27,13.39-4.16,20.08-6.1c6.93-2.01,13.97-3.86,21.01-5.62c6.47-1.61,13.06-2.78,19.36-5.17c3.83-1.45,8.08-1.77,12.12-2.68
	c8.85-2,17.72-3.95,26.53-6.16c2.19-0.55,4.45-0.62,6.67-1.35c1.79-0.59,0.88,1.15,0.38,2.19c-4.3,8.95-8.64,17.88-12.74,26.92
	c-7,15.41-13.47,31.02-18.08,47.37c-3.47,12.33-6.31,24.66-6.39,37.57c-0.07,12.2,3.23,23.6,7.3,34.88
	c4.83,13.4,8.41,27.03,10.22,41.25c1.73,13.55,1.76,27.11,0.68,40.52c-0.98,12.21-3.49,24.37-7.19,36.28
	c-5.16,16.63-12.56,31.99-22.76,45.97c-11.1,15.21-24.55,28.08-40.48,38.21c-20.41,12.97-42.9,20.31-66.62,24.21
	c-20.67,3.4-41.49,4.44-62.41,3.93c-6.58-0.16-13.18,0.04-19.72-0.51c-8.84-0.73-17.65-1.86-26.43-3.12
	c-10.94-1.57-21.86-3.38-32.59-6.08c-5.96-1.5-11.86-3.21-17.82-4.71c-8.34-2.1-16.8-3.99-25.37-4.28
	c-5.02-0.17-10.13-0.4-15.14-0.15c-4.64,0.23-9.34,0.41-14.03,1.56c-2.42,0.6-5.51,0.53-8.01,1.24c-3.9,1.11-7.96,1.57-11.78,3.15
	c-2.26,0.93-9.06,3.18-10.24,3.66c-9.11,3.68-15.66,7.45-23.47,12.02c-4.69,2.74-7.79,4.56-11.99,7.51
	c-4.06,2.86-6.78,5.13-11.87,9.36c-5.88,4.89-8.96,7.41-12.55,11.13c-2.26,2.34-4.52,4.71-6.79,7.13
	C348.45,864.21,347.38,865.35,346.33,866.49"/>
<path class="st5" d="M521.55,132.82c1.71-0.35,2.34,0.96,3.16,1.87c17,18.73,32.36,38.68,45.46,60.37
	c9.48,15.71,17.3,32.24,23.11,49.55c3.97,11.84,6.74,24.12,8.3,36.68c1.21,9.79,1.56,19.55,1.23,29.31
	c-0.3,8.84-1.88,17.58-3.89,26.28c-2.84,12.34-7.21,23.96-13.02,35.15c-8.11,15.61-18.88,29.14-31.77,41.03
	c-14.31,13.19-30.14,24.39-46.3,35.16c-8.95,5.96-18.09,11.64-27.61,16.61c-11.41,5.96-22.82,11.97-34.74,16.94
	c-9.08,3.78-17.93,8.1-26.97,11.96c-14.18,6.06-27.91,12.93-40.64,21.71c-12.48,8.6-23.62,18.72-33.69,30.02
	c-5.64,6.34-11.16,12.79-15.86,19.88c-0.82,1.24-1.29,1.69-2.32-0.11c-8.58-15.06-11.4-30.74-6.64-47.76
	c4.45-15.91,13.38-29.06,23.78-41.46c12.21-14.56,26.26-27.2,40.81-39.35c14.18-11.84,28.92-22.97,43.41-34.42
	c17.21-13.6,34.78-26.79,50.96-41.66c10.06-9.24,19.98-18.66,28.31-29.5c10-13.01,16.35-27.77,20.41-43.74
	c3.7-14.58,5.79-29.31,6.34-44.24c0.8-21.7-0.36-43.33-3.45-64.86c-2.14-14.91-4.65-29.73-8.38-44.33
	C521.47,133.57,521.55,133.18,521.55,132.82"/>
<path class="st6" d="M302.98,460.15c-3.16,9.02-6.12,18.1-8.66,27.33c-2,7.27-4.11,14.5-5.9,21.83c-2.67,10.92-5.38,21.83-7.3,32.91
	c-1.49,8.61-3.19,17.19-4.42,25.84c-2.44,17.15-4.23,34.36-2.13,51.68c0.68,5.62,2.12,11.15,4.94,16.19
	c2.92,5.22,7.1,7.58,13.34,7.78c11.35,0.36,20.71-5.03,30.08-9.83c16.42-8.41,32.06-18.19,47.34-28.6
	c12.56-8.55,25.13-17.07,37.56-25.81c12.02-8.44,24.11-16.77,35.99-25.4c12.74-9.25,25.85-17.98,38.76-27.01
	c13.16-9.2,26.19-18.6,39.42-27.7c9.38-6.45,18.99-12.57,28.51-18.81c8.21-5.39,16.24-11.06,24.68-16.05
	c12.86-7.6,25.33-15.83,38.44-23.04c7.77-4.27,15.35-9.04,23.29-12.97c10.78-5.34,21.39-11.03,32.45-15.85
	c10.8-4.71,21.84-8.78,32.79-13.07c5.85-2.29,11.99-4.1,18.16-5.3c8.14-1.6,16.17-3.99,24.56-4.09c3.1-0.73,6.28-0.95,9.42-1.37
	c0.48,0.01,0.97,0.01,1.45,0.02c0.91,0.76,2.32-0.23,3.33,1.15c-2,1.53-4.48-0.01-6.41,1.06c-0.24-0.01-0.48,0.02-0.71,0.09
	c-2.56,0.9-5.29-0.28-7.84,0.66c-6.48,1.49-13.05,2.51-19.45,4.47c-12.5,3.82-24.71,8.37-36.6,13.79
	c-10.92,4.98-21.66,10.32-32.18,16.11c-16.7,9.2-33.18,18.77-49.15,29.18c-12.44,8.11-24.96,16.11-37.3,24.36
	c-9.36,6.27-18.51,12.85-27.74,19.31c-11.86,8.29-23.75,16.53-35.54,24.92c-13.72,9.76-27.3,19.7-41.02,29.46
	c-11.41,8.12-22.93,16.08-34.38,24.15c-10.7,7.54-21.33,15.18-32.07,22.66c-7.38,5.14-14.87,10.13-22.39,15.06
	c-9.27,6.08-18.37,12.48-28,17.94c-15.33,8.68-30.41,18.33-48.05,21.64c-15.33,2.88-28.02-3.17-33.17-19.17
	c-3.38-10.49-3.74-21.23-3.11-32.12c0.68-11.62,2.2-23.14,4.44-34.51c2.26-11.47,5.32-22.8,8.41-34.09
	c5.42-19.82,11.85-39.33,18.9-58.65c2.15-5.9,3.94-11.95,6.37-17.76C303.58,458.46,303.33,459.28,302.98,460.15"/>
<path class="st7" d="M302.98,460.15c-0.21-0.57,0.17-1.46-0.85-1.59c0.62-6.01,4.02-11,6.15-16.45c0.69-1.78,0.76-4.12,3.48-5.72
	C308.69,444.69,305.83,452.42,302.98,460.15"/>
<path class="st8" d="M752.7,391.06c1.51-1.19,3.29-0.85,5.03-0.93c-0.44-0.74-1.7-0.27-1.96-1.28c6.56-1.02,12.73,1.04,19.02,2.32
	C767.42,390.7,760.05,391.41,752.7,391.06"/>
<path class="st8" d="M754.32,388.82c-3.07,0.93-6.19,1.57-9.42,1.37C747.95,389.1,750.99,387.98,754.32,388.82"/>
<path class="st8" d="M744.15,391.81c2.53-1.15,5.22-0.56,7.84-0.66C749.48,392.66,746.78,391.86,744.15,391.81"/>
<path class="st9" d="M748.85,694.35c-2.01,1.12-5.54,3.08-9.69,4.81c-4.56,1.9-7.94,2.73-14.45,4.3c-3.93,0.94-9.07,2.06-15.19,3.05
	c-4.04,0.37-9.5,0.77-15.98,0.98c-9.46,0.3-16.54,0.04-23-0.22c-4.16-0.16-14.32-0.62-28.14-1.99c-6.63-0.66-6.73-0.78-27.41-3.32
	c-20.33-2.49-18.9-2.17-25.32-3.08c-15.08-2.13-18.03-3.2-31-5.01c-6.55-0.91-15.4-1.98-26.02-2.76c-4.57-1.02-5.57-1.12-5.59-1.01
	c-0.09,0.33,8.69,3.08,17.14,5.23c3.91,1,7.01,1.62,13.03,2.86c6.58,1.36,12.03,2.4,15.82,3.11c5.26,1.06,12.8,2.52,21.89,4.12
	c18.39,3.23,27.83,4.89,39.79,5.97c15.63,1.41,27.07,1.07,43.91,0.57c21.11-0.63,31.11-2.14,34.53-2.7
	c18.66-3.07,27.03-7.17,32.92-11.08c4.5-2.99,7.81-6.03,9.94-8.17C754.23,691.2,751.8,692.72,748.85,694.35"/>
<path class="st10" d="M469.6,717.61c0.07-1.14,0.77-1.39,1.8-1.51c27.96-3.35,55.75-2.55,83.42,2.91
	c9.68,1.91,19.48,3.41,29.41,3.53c0.48,0.01,0.95,0.38,1.42,0.58c-3.47,5.18-6.79,10.4-10.81,15.26
	c-3.48,4.21-6.86,8.45-10.98,11.99c-8.01,6.88-16.1,13.63-25.28,19.04c-7.85,4.64-15.83,8.95-24.24,12.43
	c-6.66,2.76-13.31,5.55-20.29,7.57c-3.25,0.94-6.65,1.78-9.78,3.23c-0.93,0.43-1.72,0.49-2.37-0.43
	c6.86-5.7,12.09-12.45,14.72-21.17c4.76-15.76,1.45-29.67-9.3-41.87C482.54,723.73,476.87,719.38,469.6,717.61"/>
<path class="st10" d="M372.44,784.51c1.38-0.82,3.34-2.15,5.27-4.19c2.24-2.36,3.17-4.32,4.31-6.18c0.69-1.14,1.07-1.58,9.04-9.82
	c4.24-4.39,6.88-7.1,10.58-10.56c2.84-2.66,5.49-4.61,5.49-4.61c4.07-3.26,6.96-5.25,8.59-8.62c0.13-0.26,0.47-1.01,0.55-0.98
	c0.17,0.07-1.74,4.27-2.69,9.12c-0.76,3.87-0.66,6.86-0.56,10.02c0.1,2.83,0.26,6.9,1.59,11.91c0.86,3.23,2.37,8.66,6.66,14.3
	c3.98,5.22,8.37,8.03,10.52,9.38c3.4,2.13,6.53,3.42,8.84,4.2c-1.46,0.31-3.48,0.72-5.89,1.14c-2.11,0.36-5.11,0.87-8.61,1.18
	c-2.57,0.23-5.07,0.32-9.13,0.27c-3.15-0.04-2.81-0.11-12.4-0.47c-4-0.15-4.94-0.17-6.9-0.34c-3.3-0.3-5.99-0.73-7.62-1
	c-2.22-0.36-4.03-0.72-6.37-1.19c-1.54-0.3-2.63-0.53-4.28-0.88c-4.12-0.87-6.19-1.3-7.71-1.7c-4.02-1.06-7.09-1.87-7.13-3.04
	c-0.02-0.81,1.46-0.73,3.2-2.75c1.23-1.43,1.29-2.4,2.8-3.81C371.29,785.22,371.97,784.78,372.44,784.51"/>
<path class="st11" d="M469.64,716.46c-5.83-2.02-10.75-2.37-13.98-2.35c-7.24,0.05-12.76,2.03-17.68,3.85
	c-3.94,1.46-6.85,2.91-11.46,5.36c-13.77,7.33-20.66,10.98-26.02,15.07c-6.48,4.95-10.21,9.04-17.66,17.22
	c-3.52,3.87-7.54,8.24-8.59,14.91c-0.24,1.52-0.71,3.01-0.48,4.61c0.05,0.37,0.08,0.67,0.1,0.93c0,0,0.04,0.53,0.03,1.07
	c-0.01,1.3-2.51,7.23-3.5,10.17c-1.31,3.92-1.03,5.07-0.81,5.59c0.66,1.59,2.2,2.43,3.2,2.85c-2.87-0.35-15.39-2.1-17.99-9.13
	c-0.26-0.72-0.42-1.48-0.52-1.96c-0.53-2.49-0.9-7.05,1.75-13.38c1.83-4.38,4.94-11.06,9.87-18.52
	c20.18-30.58,50.25-43.73,65.95-49.93c16.17-6.38,29.09-9.46,38.95-11.46c22.79-4.63,36.24-3.83,40.15-3.54
	c6.06,0.45,11.06,1.28,14.49,1.95c1.5,0.29,3.04,0.82,8.25,2.17c2.41,0.62,4.67,1.21,7.01,1.78c4.45,1.09,7.61,1.74,11.19,2.49
	c13.15,2.76,22.77,4.65,24.89,4.95c2.84,0.41,16.59,2.62,23.05,3.35c3.81,0.43,12,1.41,16.15,2.07c7.2,1.14,11.7,1.84,17.2,2.84
	c10.75,1.95,12.92,2.76,21.6,4.41c5.3,1.01,12.97,2.32,22.45,3.41c-1.02,0.13-6.07,0.27-6.31,0.26c-4.28-0.19-14.59-0.03-17.84,0.03
	c-5.64,0.09-8.45,0.13-10.95,0.25c-6.48,0.31-17.88,0.98-14.82,1.01c4.96,0.04,8.8,0.29,13.26,0.58c1.72,0.11,12.51,1.09,15.2,1.39
	c2.37,0.26,2.98,0.29,3,0.46c0.05,0.5-5.16,1.41-5.83,1.53c-16.19,2.82-36.52,2.02-36.52,2.02c-5.71,0-15.37-0.17-30.74-1.65
	c-9.14-0.88-16.5-1.86-20.85-2.47c-13.37-1.88-13.98-2.55-24.87-3.98c-11.42-1.5-19.84-1.97-25.44-2.27
	c-11.34-0.61-19.93-0.13-22.6,0C483.37,714.79,475.87,715.59,469.64,716.46"/>
<path class="st12" d="M416.31,741.6c-1.67,4.9-8.2,11.05-8.2,11.05c-3.33,3.13-3.08,2.48-10.08,8.6c-2.18,1.91-4.05,3.58-5.67,5.06
	c-3.13,2.85-5.02,4.58-7.5,7.07c-0.77,0.78-3.17,3.22-6.09,6.58c-0.42,0.48-2.18,2.52-4.26,5.35c-1.91,2.61-2.74,4.06-3.11,5.97
	c-0.24,1.22-0.21,2.28-0.15,3c-0.51-0.38-1.26-1.03-1.84-2.05c-0.76-1.33-0.82-2.55-0.87-3.79c-0.01-0.13-0.01-0.27-0.01-0.5
	c0.02-2.38,0.34-4.6,0.4-4.99c0.14-0.91,0.45-2.83,1.14-5.49c0.38-1.48,1.07-4.1,2.37-7.39c0.59-1.49,1.76-4.4,3.79-7.77
	c2.06-3.42,3.99-5.62,6.65-8.62c3.16-3.57,5.76-6.02,8.81-8.87c3.76-3.52,6.69-5.97,7.43-6.59c2.45-2.04,5.37-4.47,9.49-7.3
	c2.39-1.65,4.75-3.27,8.17-5.1c3.54-1.89,6.24-2.94,10.14-4.45c4.07-1.58,6.38-2.24,8.3-2.7c1.43-0.34,2.63-0.56,3.48-0.7
	c-4.14,2.6-7.34,5.07-9.6,6.95c-2.13,1.78-3.74,3.11-5.68,5.26c-4.38,4.84-5.89,8.09-6.4,9.38c-0.16,0.41-0.31,0.88-0.32,0.89
	c0,0,0,0,0,0C416.71,740.44,416.31,741.59,416.31,741.6"/>
<path class="st13" d="M478.4,795.02c-2.59,1.47-6.25,3.23-10.88,4.49c-6.63,1.81-11.94,1.68-13.51,1.63
	c-4.49-0.15-8.93-1.74-13.39-2.67c-1.47-0.31-9.24-3.39-15.35-9.03c-12.73-11.76-12.36-30.32-12.25-33.41
	c-0.03-4.41,0.56-12.53,5.36-20.72c0.58-0.98,3.58-5.4,8.63-10.26c3.22-3.1,7.04-5.13,10.96-7.08c10.37-4.47,20.92-4.96,31.66-1.5
	c18.83,7.01,29.08,20.94,30.11,40.6c0.28,5.31-0.41,10.4-2.01,15.16c0,0-3.45,10.27-12.42,18.23c-1.54,1.37-3.13,2.43-3.13,2.43
	C480.7,793.89,479.37,794.57,478.4,795.02"/>
<path class="st14" d="M519.52,714.63c0-0.12,3.38-0.24,6.16-0.28c1.57-0.02,2.15-0.01,6.79,0.03c5.28,0.05,7,0.07,10.23,0.1
	c5.09,0.04,5.04,0.13,11.65,0.19c2.4,0.02,3.24,0.02,5.25,0.06c4.17,0.09,6.48,0.26,14.89,0.36c6.92,0.08,12.59,0.06,16.34,0.02
	c-0.78,1.64-1.52,2.92-2.08,3.82c-0.54,0.86-1.13,1.72-1.9,2.84c-0.53,0.77-0.97,1.4-1.29,1.85c-2.43-0.22-4.43-0.4-5.82-0.52
	c-3.55-0.31-5.32-0.46-5.81-0.5c-4.07-0.34-4.63-0.36-6.55-0.61c-4.42-0.57-7.88-1.08-11.67-1.65c-4.27-0.64-6.41-0.96-7.26-1.12
	c-1.35-0.26-2.58-0.52-13.9-3.14c-1.96-0.36-4.86-0.81-8.4-1.08C522.39,714.71,519.52,714.74,519.52,714.63"/>
</svg>
