<?xml version="1.0" encoding="utf-8"?>
<!-- Generator: Adobe Illustrator 26.0.2, SVG Export Plug-In . SVG Version: 6.00 Build 0)  -->
<svg version="1.1" id="ChenYu" xmlns="http://www.w3.org/2000/svg" xmlns:xlink="http://www.w3.org/1999/xlink" x="0px" y="0px"
	 viewBox="0 0 1080 1080" style="enable-background:new 0 0 1080 1080;" xml:space="preserve">
<style type="text/css">
	.st0{fill:#FF0000;stroke:#5C5C5C;stroke-miterlimit:10;}
	.st1{fill:#FFFFFF;}
	.st2{stroke:#5C5C5C;stroke-miterlimit:10;}
</style>
<path class="st0" d="M887,380.6c-4.9,10.4-9.6,20.1-14.2,29.9c-10.4,22.2-19.8,44.9-26,68.7c-4.1,15.5-7.3,31.5-4.5,47.6
	c2,11.7,5.5,23.2,9.2,34.5c4.9,15.1,9.9,30.2,10.6,46.3c0.7,15.9,2.3,31.9,1,47.7c-1.2,14.6-5.3,29-8.9,43.3
	c-5.9,22.8-17.1,43.1-31.9,61.2c-17.5,21.3-38.3,38.3-63.8,49.8c-20.7,9.3-42.2,15.5-64.6,18.6c-22.9,3.1-46.1,3.9-69.3,3.5
	c-31.4-0.5-62.2-4.9-92.8-11.7c-11.8-2.6-61.2-9.9-64.7-10.3c-7-0.8-13.7,0.8-20.6,1.5c-10.2,1.1-19.6,4.4-29.3,7.4
	c-11,3.4-21,8.4-30.6,14.4c-2.3,1.4-24,15.5-27.6,18.4c-4.8,3.8-22.8,22.3-27,23.9c-0.4,0.2-22.4,25-24.8,28.1
	c-4.7,5.9-8.7,12.4-13.4,18.4c-2,2.6-4.8,4.5-7.3,6.6c-0.3,0.2-1.6-0.1-1.9-0.6c-0.4-0.6-2.3-10.8-2.4-12.1
	c-0.6-14.2-0.8-28.4-1.8-42.6c-0.2-3.1,4.2-53.3,4.6-55.3c0.7-2.9,0.3-4.4,3.8-21.8c3.5-17.4,23-66,24.3-68.7
	c3.2-6.3,6-12.8,9.2-19.1c3.3-6.6,6.7-13.2,10.5-19.5c2.7-4.5,6-8.5,9.1-12.7c7.3-10.1,14.1-20.6,22.1-30.1
	c9.7-11.8,20-23.2,30.8-34c12.7-12.6,26.2-24.4,39.4-36.4c3.9-3.6,7.9-7.1,12-10.5c4.3-3.5,8.7-6.9,13.3-10.1
	c14.3-10,28.4-20.3,43.1-29.7c15.2-9.7,30.8-18.9,46.7-27.6c14.3-7.8,28.9-15.1,43.8-21.7c23.2-10.3,46.5-20.3,70-29.7
	c17-6.8,34.4-12.7,51.8-18.7c13.9-4.8,27.8-9.4,41.8-13.7c11.7-3.5,23.5-6.4,35.3-9.6c13.4-3.7,26.8-7.7,40.3-11
	c11.8-2.9,23.8-5.1,35.7-7.8C874,383.9,880,382.3,887,380.6z"/>
<path d="M0,517.8c0.6-5.4,1.6-10.9,1.8-16.3c0.9-25.1,5-49.7,10.1-74.1c10.5-49.5,27.7-96.5,51.6-141.1
	c15.5-28.8,33.3-56.1,53.8-81.5c17.3-21.5,36.2-41.5,56.6-60.2c20.1-18.4,41.2-35.6,64.2-50.1c20-12.6,40.8-24,61.7-35.1
	c22.4-12,46.2-20.6,70.3-28.4c31.5-10.3,63.8-17.3,96.6-21.5c27.7-3.5,55.5-4.3,83.4-3.6c26.8,0.7,53.4,3.5,79.8,8.1
	c28.4,5.1,56.6,11.8,83.6,22.3c22.6,8.8,45.1,18.1,66.8,28.7c17.4,8.5,33.7,19,50.3,29c22.4,13.5,42.9,29.8,62.7,46.8
	c21.7,18.7,41.7,39.2,60.2,61c20.1,23.6,38.2,48.6,54.4,74.9c14.4,23.4,26.9,47.7,38,72.8c1.1,2.5,2,5,2.3,7.9
	c-3.2-6.8-6.4-13.6-9.6-20.4c-16.9-35.1-36.5-68.6-59.5-99.9c-21.4-29-45.1-56-71.7-80.4c-22.2-20.4-45.8-39-70.8-55.9
	c-23.3-15.6-47.6-29.3-72.9-41.1c-25.4-11.9-51.6-21.4-78.6-29.3C640,17.3,594,10.3,547,9.7c-1.2,0-2.4-0.3-3.7-0.4
	c-1-0.1-2-0.1-4-0.2c6.7,8,11.4,15.5,23.4,15.9c19.8,0.5,39.6,2.7,59.2,5.8c20.1,3.1,40,7.9,59.9,12.5c8.8,2.1,17.3,5.5,25.9,8.8
	c-49.8-15.5-100.7-24.2-153.5-25.6c3,3.8,5.7,7.3,8.5,10.8C585.1,65,604,94.8,617,128c10.4,26.4,16.7,53.6,16.6,82.1
	c-0.2,47-16.1,88.1-48.6,122c-11.3,11.9-24.3,22.4-37.6,32.1c-17.5,12.7-35.5,24.8-54.2,35.7c-14.9,8.8-31,15.6-46.7,23
	C425.3,433,403.3,442,382.4,453c-21.6,11.4-40.1,27.4-56.1,46c-6.7,7.9-13.3,15.9-20.6,24.7c-2.7-6.1-5.9-12-7.9-18.2
	c-8.2-25.1-1.1-47.7,12.3-68.9c13.2-20.9,30.2-38.4,48.9-54.3c17.2-14.6,34.8-28.8,52.4-42.9c13.6-11,27.6-21.6,41.3-32.5
	c21.6-17.2,42.7-35.1,61-56c14.9-17,24.1-36.8,29.8-58.7c7.9-30.5,9.2-61.5,6.9-92.5c-1.7-23.1-5.8-46.1-8.7-69.2
	c-0.4-2.9-1.5-4.3-4.7-4.1c-11.9,0.7-23.9,0.5-35.7,2c-21.5,2.7-43.2,5.1-64.3,9.8c-21.5,4.8-42.7,11.7-63.6,18.9
	c-15.1,5.2-30,11.4-44.3,18.7c-18.4,9.3-36.6,19.2-53.8,30.5c-18.6,12.2-36,26.2-53.7,39.8c-6.3,4.8-11.7,10.7-17.2,16.7
	c75.8-65,164-103.3,261.4-121.7c-6,1.8-12,3.7-18,5.4c-12.8,3.6-25.9,6.4-38.4,10.8c-21.4,7.6-42.8,15.6-63.6,24.7
	c-29.2,12.7-56.6,28.8-82.8,46.9c-21.9,15.2-42.5,32.1-61.3,50.9c-22.2,22.1-41.7,46.4-59.3,72.3c-20.4,30.1-37.8,61.9-51.6,95.5
	c-13.2,32.1-23.1,65.2-29.8,99.2c-7,35.6-10.3,71.5-9.8,107.8c0.6,43.1,7.4,85.4,20.1,126.7c11.8,38.3,28.3,74.4,49.1,108.5
	c15.1,24.8,32.2,48.1,51.7,69.5c11.5,12.6,23.8,24.5,36.2,36.3c9.5,9,19.2,17.9,29.6,25.8c13.5,10.3,27.7,19.8,42,29.1
	c12.2,7.9,24.8,15.4,37.6,22.3c10,5.4,20.5,9.8,30.9,14.3c13.4,5.7,26.8,11.6,40.6,16.3c14.1,4.8,28.6,8.6,43,12
	c11.1,2.7,22.5,4.3,33.8,6.3c27.4,4.8,54.9,5.7,82.6,4.5c9.7-0.4,19.4-1.8,29-3.1c14.1-1.9,28.2-3.7,42.2-6.5
	c11.9-2.3,23.7-5.7,35.4-9c10-2.8,20-5.7,29.7-9.1c11.3-4,22.4-8.4,33.4-13c8.5-3.6,16.9-7.6,25.1-11.7
	c16.3-8.2,32.9-16.1,48.8-25.2c17-9.7,33.8-20,50-31.1c16.8-11.5,31.4-25.6,45.1-40.7c11.7-12.9,24.3-24.9,36.6-37.2
	c25-25.1,44.6-53.8,59.1-86.2c5.4-12,11.2-23.9,17-35.7c3.5-7.1,8-13.7,11.3-20.8c2.7-6,4.1-12.5,6.1-18.8c0.5-1.7,1.2-3.4,2.3-5
	c-1.6,16.4-7.2,31.9-11,47.8c14.3-32.2,25-65.4,29.7-100.5c0.6,0.1,1.1,0.2,1.7,0.3c-1.4,10.8-2.8,21.7-4.2,32.5
	c0.6,0.1,1.2,0.2,1.8,0.4c1.6-6.7,3.1-13.4,4.7-20.1c0.5,0.1,0.9,0.2,1.4,0.2c-1.4,13.2-2.5,26.5-4.4,39.6
	c-1.9,12.9-4.7,25.7-6.4,38.7c11.7-34.3,13.8-70.5,19-106.1c0.4,0,0.8,0,1.1,0c0,4.8,0,9.6,0,14.4c0.5,0,0.9,0.1,1.4,0.1
	c1.2-8.1,2.4-16.3,3.5-24.4c0.4,0,0.8,0.1,1.2,0.1c-0.5,10.4-0.9,20.8-1.4,31.2c0.6,0,1.1,0.1,1.7,0.1c8.1-34.8,9.6-70.3,10.3-105.9
	c0.4-0.1,0.8-0.1,1.1-0.2c1.4,4.6,3,9.1,4.2,13.7c4.5,18.3,5.1,36.9,4.9,55.6c-0.3,32.5-5.8,64.3-14.2,95.6
	c-10,37.4-24.4,73.1-43,107.1c-19.1,34.7-41.5,67-67.6,96.8c-17.9,20.4-37.1,39.5-57.7,57.1c-22.9,19.5-47.5,36.9-73.4,52.4
	c-38.1,22.7-78.4,40.4-120.9,53.2c-24.1,7.3-48.7,12.7-73.7,16.7c-39.4,6.3-79,7.1-118.6,5.2c-25-1.2-49.8-4.8-74.5-9.8
	c-22.9-4.7-45.8-9.8-67.8-17.6c-19.3-6.8-38.4-14.2-57-22.7c-16.8-7.6-33.4-16.1-49.1-25.7c-18.4-11.2-36.4-23.1-53.3-36.3
	c-18.1-14-35.6-29-51.9-45.1c-15.9-15.8-30.6-33-44.6-50.5c-27-33.7-48.5-70.9-66.2-110.3c-11.2-25-20.4-50.8-27.5-77.3
	c-8.1-30.2-14-60.8-16.6-92c-0.6-7-0.7-14.1-1.2-21.1c-0.2-2.4-0.7-4.8-1.1-7.2C0,545.4,0,531.6,0,517.8z M540.2,23.6
	c-0.9-3.8-1.7-7.2-2.4-10.5c-0.6-2.8-2-4-5.2-3.7c-23.9,2.1-47.9,3.6-71.8,6.1c-28.7,3-56.6,10.2-83.9,19.1
	c-15.4,5-30.3,11.1-45.4,17c-22.2,8.6-43.4,19.5-63.6,32.1c-18,11.3-35.3,23.5-52.6,35.8c-23.5,16.8-44.2,36.8-63.9,57.8
	c-23.5,25.1-44.2,52.3-62.4,81.5C67.5,293.1,50.2,329.6,37.3,368c-13.3,39.4-21.9,79.9-25.4,121.5c-2.3,27.1-3.3,54.2-1,81.2
	c2.1,24.8,6,49.5,9.4,74.3c0.8,5.7,2.6,11.3,4,17C-1.8,499.4,30,350.7,133.4,221.3C237,91.8,374.5,28.3,540.2,23.6z"/>
<path class="st1" d="M613.5,709.5c-1.1-0.6-1.5-1-1.9-1.1c-12.1-1.5-24.3-2.4-36.3-4.5c-29.6-5.2-59.2-7.4-89.1-3.8
	c-3.5,0.4-7,0.8-10.5,1.2c18.4,8.4,30.3,21.6,33.6,41.3c3.3,19.8-4.2,35.9-18.9,49.4C540.4,777.8,584.8,755.8,613.5,709.5z
	 M445.2,800.1c-29.3-12-41.1-33.2-36-64.4c-5.3,3.7-9.9,7.7-14.6,11.7c-2.3,2-4.8,3.7-7,5.8c-3.5,3.3-6.9,6.7-10,10.3
	c-3.3,3.8-6.4,8-9.5,12c-0.3-0.2-0.6-0.4-0.9-0.7c0.3-1.8,0.7-3.6,1-5.4c-0.4-0.2-0.8-0.3-1.3-0.5c-1.1,2-2.4,4-3.3,6.1
	c-1,2.3-1.6,4.7-2.6,7.7c-1.5-2.9-3-4.9-3.5-7.2c-0.5-2.6-0.1-5.3-0.1-8c-0.4,0-0.9-0.1-1.3-0.1c-0.3,3.8-1.8,8.1-0.6,11.4
	c2,5.5,0.6,9.8-2.3,14.8C383.3,803.8,413.8,802.6,445.2,800.1z"/>
<path d="M280.1,389.5c-2.4,7.3-5,14.6-7.1,22c-4.6,16.1-9.2,32.2-13.3,48.3c-3.3,13-6.5,26-8.8,39.2c-5.1,28.8-10.2,57.7-6.7,87.1
	c0.8,6.7,3.3,13.4,5.9,19.6c2.8,6.6,8.3,9.1,15.8,9.3c13.4,0.4,24.6-5.7,35.4-11.7c19.1-10.6,37.6-22.3,56.1-34
	c16.3-10.4,32.2-21.3,48.1-32.3c10.7-7.3,21-15.1,31.6-22.5c17.9-12.7,35.8-25.2,53.7-37.9c15.6-11,31.2-22.2,47-33
	c10.7-7.3,21.5-14.4,32.4-21.4c18-11.6,35.9-23.4,54.3-34.4c16.9-10.2,34.1-19.9,51.6-29.1c15.3-8,30.8-15.8,46.8-22.3
	c16.3-6.7,33.1-12.4,50.1-17.1c12.4-3.4,25.4-4.6,38.2-6.4c4.1-0.6,8.3,0.3,10.5,0.4c-14.2,2.7-30.5,4.5-46,9
	c-15.3,4.4-30.1,10.9-44.6,17.6c-17.1,8-33.9,16.6-50.2,26.1c-22.4,13-44.3,26.9-66.1,40.9c-18.3,11.8-36.2,24.2-54.1,36.7
	c-23.6,16.5-47,33.4-70.5,50c-20.4,14.5-40.9,28.9-61.4,43.3c-22.5,15.7-44.7,32-67.8,46.9c-20.2,13-41.2,24.7-62.3,36.1
	c-10.1,5.5-21.2,9.3-33.3,9c-14.1-0.4-26-9.1-30.1-22.6c-3.6-11.9-4.5-24-3.9-36.3c1.4-28.5,7.1-56.2,15.3-83.3
	c8.9-29.5,19-58.7,28.7-88c1.1-3.2,2.5-6.4,3.8-9.5C279.6,389.3,279.9,389.4,280.1,389.5z"/>
<circle class="st2" cx="459.5" cy="750.9" r="49.3"/>
</svg>
