<?xml version="1.0" encoding="UTF-8"?>
<svg id="ChenYu.Me" xmlns="http://www.w3.org/2000/svg" viewBox="0 0 830.56 756.63">
  <defs>
    <style>
      .cls-1 {
        fill: #fff;
      }
    </style>
  </defs>
  <g>
    <path class="cls-1" d="m575.41,113.63c-14.76,8.21-30.32,14.45-46.58,19.11-17.29,4.97-34.9,7.74-53.06,7.03-11.45-.47-38.43-4.71-54.48-14.37-12.16-7.11-22.27-16.66-31.35-27.4-14.37-16.98-28.74-33.95-44.37-49.82-25.42-26.21-56.22-41.45-92.54-45.71C238.35.72,223.66-.07,208.9,0c-7.58.08-15.16-.08-22.66.55-.08.87.39,1.42.79,2.05,7.26,12.95,14.61,25.98,21.87,38.92,25.5,45.24,50.93,90.4,76.43,135.64,17.69,31.42,54.95,98.54,55.51,99.56,3.4,6.16,6.71,12.32,9.71,18.63,9.16,19.19,16.34,39.08,20.77,60.01,3.16,15.24,4.66,30.56,3.32,46.11-1.42,17.53-6.4,33.95-15.71,48.95-.47.79-1.42,1.58-.71,2.76,5.45-5.21,10.19-10.97,14.84-16.82,13.5-17.13,25.42-35.45,36.95-54.01,24.4-39.24,48.95-78.32,73.43-117.49,27.87-44.61,55.74-89.22,83.61-133.91,3.71-6,7.42-12.08,11.13-18.08-1.11-.32-1.97.32-2.76.71h0Z"/>
    <g>
      <path class="cls-1" d="m357.96,310.31c-5.21-12.71-11.37-24.87-18.16-36.79-.47-.71-.95-1.34-1.42-2.05-18.24,30.4-36.4,60.8-54.72,91.11-27.95,46.35-56.37,92.46-85.03,138.33-2.45,3.95-4.9,7.9-7.5,12,1.18.24,1.97.47,2.84.55,19.82,2.61,39.48,1.66,58.98-2.13,28.74-5.53,54.79-17.05,78.32-34.35,9.63-7.11,18.71-14.92,26.77-23.77.16-.39.24-.79.47-1.11,14.69-22.9,18.71-48.24,16.58-74.85-1.82-23.21-8.29-45.4-17.13-66.95h0Z"/>
      <path class="cls-1" d="m548.01,22.12c-52.19,21.95-93.4,57.16-124.83,103.98,4.97,3.24,10.5,5.29,15.95,7.58,4.42,1.34,8.76,2.76,13.34,3.79,22.03,4.97,43.9,3.63,65.69-1.34,21.08-4.82,41.06-12.63,60.01-23.21,23.92-37.35,47.93-74.77,72.16-112.67-36,.55-69.8,8.21-102.33,21.87h0Z"/>
    </g>
  </g>
  <path class="cls-1" d="m461.56,645.86c-217.55,0-393.92-163.08-393.92-364.26,0-83.87,30.66-161.12,82.18-222.7C58.26,131.3,0,240.19,0,361.98c0,217.96,186.6,394.65,416.77,394.65,213.24,0,389.08-151.66,413.79-347.28-55.96,138.16-200.06,236.5-369,236.5Z"/>
</svg>