<?xml version="1.0" encoding="UTF-8"?>
<svg id="ChenYu.Me" xmlns="http://www.w3.org/2000/svg" xmlns:xlink="http://www.w3.org/1999/xlink" viewBox="0 0 1051.94 941.85">
  <defs>
 <style type="text/css">
       .ChenYu-icon {
         fill: #0887e9;
         stroke: #e6e6e6;
         fill-opacity:0;
         stroke-width: 5px;
         stroke-dasharray: var(--s-dd);
         stroke-dashoffset: var(--s-dd);
         animation: logo-animation 1.7s ease-in-out forwards;
         animation-delay: var(--a-d);
         --s-dd: 3800;
         --s-ddo:-3800;
         fill: url(#_ChenYulogo_7);
      } 
      .ChenYu-icon.c-2 {
         animation: logo-animation 2.0s ease-in-out forwards;
         fill: url(#_ChenYulogo_2);
      } 
      .ChenYu-icon.c-3 {
         animation: logo-animation 2.3s ease-in-out forwards;
         fill: url(#_ChenYulogo_3);
      }
      .ChenYu-icon.c-4 {
         animation: logo-animation 2.6s ease-in-out forwards;
         fill: url(#_ChenYulogo_7);
      } 		   		  		 
       @keyframes logo-animation {
         60%{
            fill-opacity:0;
            stroke-dashoffset:0;
         }
         to{
            fill-opacity:1;
            stroke-dashoffset:0;
         }
       } 
</style>
    <linearGradient id="_ChenYulogo_2" data-name="ChenYulogo 2" x1="232.37" y1="140.39" x2="728.78" y2="140.39" gradientTransform="translate(0 146.61)" gradientUnits="userSpaceOnUse">
      <stop offset="0" stop-color="#fcc90d"/>
      <stop offset=".22" stop-color="#f9b014"/>
      <stop offset=".54" stop-color="#f6911d"/>
      <stop offset=".81" stop-color="#f47e22"/>
      <stop offset="1" stop-color="#f37724"/>
    </linearGradient>
    <linearGradient id="_ChenYulogo_3" data-name="ChenYulogo 3" x1="238.58" y1="351.39" x2="472.25" y2="351.39" gradientTransform="translate(0 146.61)" gradientUnits="userSpaceOnUse">
      <stop offset="0" stop-color="#2eafbb"/>
      <stop offset=".24" stop-color="#2c93b5"/>
      <stop offset=".55" stop-color="#2a74ae"/>
      <stop offset=".82" stop-color="#2861aa"/>
      <stop offset="1" stop-color="#285aa9"/>
    </linearGradient>
    <linearGradient id="_ChenYulogo_4" data-name="ChenYulogo 4" x1="532.48" y1="-57.41" x2="820.18" y2="-57.41" gradientTransform="translate(0 146.61)" gradientUnits="userSpaceOnUse">
      <stop offset="0" stop-color="#2eafbb"/>
      <stop offset=".24" stop-color="#2c93b5"/>
      <stop offset=".55" stop-color="#2a74ae"/>
      <stop offset=".82" stop-color="#2861aa"/>
      <stop offset="1" stop-color="#285aa9"/>
    </linearGradient>
    <linearGradient id="_ChenYulogo_7" data-name="ChenYulogo 7" x1="0" y1="500" x2="1051.94" y2="500" gradientUnits="userSpaceOnUse">
      <stop offset="0" stop-color="#2c95b6"/>
      <stop offset=".19" stop-color="#2c8eb5"/>
      <stop offset=".48" stop-color="#2a75af"/>
      <stop offset=".76" stop-color="#2965ac"/>
      <stop offset="1" stop-color="#2960ab"/>
    </linearGradient>
  </defs>
  <path class="ChenYu-icon c-2" d="m725.28,143.92c-18.7,10.4-38.4,18.3-59,24.2-21.9,6.3-44.2,9.8-67.2,8.9-14.5-.6-48.67-5.96-69-18.2-15.4-9-28.2-21.1-39.7-34.7-18.2-21.5-36.4-43-56.2-63.1-32.2-33.2-71.2-52.5-117.2-57.9C298.38.92,279.78-.08,261.08,0c-9.6.1-19.2-.1-28.7.7-.1,1.1.5,1.8,1,2.6,9.2,16.4,18.5,32.9,27.7,49.3,32.3,57.3,64.5,114.5,96.8,171.8,22.4,39.8,69.6,124.8,70.3,126.1,4.3,7.8,8.5,15.6,12.3,23.6,11.6,24.3,20.7,49.5,26.3,76,4,19.3,5.9,38.7,4.2,58.4-1.8,22.2-8.1,43-19.9,62-.6,1-1.8,2-.9,3.5,6.9-6.6,12.9-13.9,18.8-21.3,17.1-21.7,32.2-44.9,46.8-68.4,30.9-49.7,62-99.2,93-148.8,35.3-56.5,70.6-113,105.9-169.6,4.7-7.6,9.4-15.3,14.1-22.9-1.4-.4-2.5.4-3.5.9h0Z"/>
  <g>
    <path class="ChenYu-icon c-4" d="m449.88,393.02c-6.6-16.1-14.4-31.5-23-46.6-.6-.9-1.2-1.7-1.8-2.6-23.1,38.5-46.1,77-69.3,115.4-35.4,58.7-71.4,117.1-107.7,175.2-3.1,5-6.2,10-9.5,15.2,1.5.3,2.5.6,3.6.7,25.1,3.3,50,2.1,74.7-2.7,36.4-7,69.4-21.6,99.2-43.5,12.2-9,23.7-18.9,33.9-30.1.2-.5.3-1,.6-1.4,18.6-29,23.7-61.1,21-94.8-2.3-29.4-10.5-57.5-21.7-84.8h0Z"/>
    <path class="ChenYu-icon c-3" d="m690.58,28.02c-66.1,27.8-118.3,72.4-158.1,131.7,6.3,4.1,13.3,6.7,20.2,9.6,5.6,1.7,11.1,3.5,16.9,4.8,27.9,6.3,55.6,4.6,83.2-1.7,26.7-6.1,52-16,76-29.4,30.3-47.3,60.7-94.7,91.4-142.7-45.6.7-88.4,10.4-129.6,27.7h0Z"/>
  </g>
  <path class="ChenYu-icon" d="m584.59,801.55c-275.54,0-498.91-206.55-498.91-461.35,0-106.23,38.83-204.07,104.08-282.06C73.79,149.83,0,287.76,0,442c0,276.06,236.33,499.85,527.86,499.85,270.08,0,492.78-192.08,524.09-439.84-70.88,174.98-253.38,299.54-467.36,299.54Z"/>
</svg>