<?xml version="1.0" encoding="utf-8"?>
<!-- Generator: Adobe Illustrator 26.0.2, SVG Export Plug-In . SVG Version: 6.00 Build 0)  -->
<svg version="1.1" id="图层_1" xmlns="http://www.w3.org/2000/svg" xmlns:xlink="http://www.w3.org/1999/xlink" x="0px" y="0px"
	 viewBox="0 0 1920 1080" style="enable-background:new 0 0 1920 1080;" xml:space="preserve">
<style type="text/css">
	.st0{fill:#FF0000;stroke:#5C5C5C;stroke-miterlimit:10;}
	.st1{fill:#4F4F4F;}
	.st2{fill:#FFFFFF;}
	.st3{stroke:#5C5C5C;stroke-miterlimit:10;}
</style>
<path class="st0" d="M1224.4,423.9c-4.1,8.7-8,16.7-11.8,24.8c-8.7,18.5-16.4,37.3-21.6,57c-3.4,12.9-6.1,26.2-3.8,39.5
	c1.7,9.7,4.6,19.2,7.6,28.6c4.1,12.6,8.2,25.1,8.8,38.4c0.6,13.2,1.9,26.5,0.8,39.6c-1,12.1-4.4,24.1-7.4,35.9
	c-4.9,18.9-14.2,35.8-26.5,50.8c-14.6,17.7-31.8,31.8-53,41.4c-17.2,7.7-35.1,12.9-53.6,15.4c-19.1,2.6-38.3,3.2-57.5,2.9
	c-26.1-0.4-51.7-4.1-77.1-9.7c-9.8-2.2-19.4-5.1-29.2-7.1c-5.1-1-10.5-0.8-15.7-1.1c-2.9-0.2-5.9,0-8.8-0.4
	c-5.8-0.7-11.4,0.7-17.1,1.3c-8.5,0.9-16.3,3.6-24.3,6.1c-9.1,2.9-17.5,6.9-25.4,12c-1.9,1.2-5.1,1.1-5.1,4.5
	c-2.9-1.9-3.2,4.1-6.2,2c-0.7,1-1.3,1.9-1.9,2.8c-4.2,0.2-6.7,3.6-9.8,6c-4,3.1-6.9,7.6-11.9,9.6c-1.2,0.5-2.1,2.1-3,3.3
	c-2.1,2.8-4.1,5.6-7.5,6.9c-0.3,0.1-0.6,0.5-0.8,0.8c-3.4,5.9-9.3,9.6-12.6,15.7c-1.5,2.8-5.1,4.3-7.2,6.9
	c-3.9,4.9-7.2,10.3-11.1,15.3c-1.6,2.1-4,3.7-6.1,5.5c-0.3,0.2-1.3-0.1-1.6-0.5c-0.3-0.5-0.5-1.5-0.3-2c1.3-2.1,1.5-3.6-1.1-4.9
	c-0.6-0.3-0.6-2-0.7-3.1c-0.5-11.8-0.7-23.6-1.5-35.4c-0.2-2.6-0.1-4.9,0-7.5c0.1-3-0.8-5.9-0.9-8.9c-0.1-2.6-0.8-5.2,1.3-7.9
	c1.4-1.7,0.8-5,0.9-7.6c0.1-1.6,2.1-12.3,2.4-14c0.5-2.4,1.5-5.1,0.9-7.4c-1-4.1,1.9-7,2.2-10.7c0.2-2.6,0.7-5.3,1.3-7.9
	c0.6-2.5,1.4-4.9,2.2-7.3c1.5-4.2,3.1-8.4,4.5-12.7c1.1-3.3,2.1-6.6,3.4-10.6c1.5-0.8,2.4-2.3,1.9-5.7c-0.3-2,4.1-3.8,2.5-6.1
	c1.6-2.6,3.1-4.6,4.2-6.8c2.6-5.2,5-10.6,7.6-15.8c2.8-5.5,5.6-10.9,8.7-16.2c2.2-3.7,5-7.1,7.6-10.6c6.1-8.4,11.7-17.1,18.3-25
	c8.1-9.8,16.6-19.3,25.6-28.2c10.5-10.5,21.7-20.2,32.7-30.3c3.3-3,6.5-5.9,10-8.7c3.6-2.9,7.3-5.7,11.1-8.4
	c11.9-8.3,23.6-16.9,35.8-24.7c12.6-8.1,25.6-15.7,38.8-22.9c11.9-6.5,24-12.5,36.4-18c19.2-8.6,38.6-16.8,58.2-24.7
	c14.1-5.7,28.6-10.6,43-15.6c11.5-4,23.1-7.8,34.7-11.4c9.7-2.9,19.5-5.3,29.3-8c11.2-3.1,22.3-6.4,33.5-9.2
	c9.8-2.4,19.8-4.3,29.7-6.4C1213.6,426.6,1218.6,425.3,1224.4,423.9z"/>
<path d="M486,538.4c0.5-4.5,1.3-9,1.5-13.6c0.7-20.9,4.1-41.3,8.4-61.7c8.7-41.2,23-80.3,43-117.4c12.9-24,27.7-46.7,44.8-67.9
	c14.4-17.9,30.2-34.5,47.1-50.1c16.7-15.3,34.3-29.6,53.4-41.7c16.6-10.5,34-20,51.3-29.2c18.6-9.9,38.5-17.1,58.5-23.7
	c26.2-8.6,53.1-14.4,80.4-17.9c23-2.9,46.2-3.6,69.4-3c22.3,0.6,44.5,2.9,66.4,6.8c23.7,4.2,47.1,9.8,69.6,18.5
	c18.8,7.3,37.5,15,55.6,23.9c14.5,7,28.1,15.8,41.9,24.2c18.7,11.2,35.7,24.8,52.2,39c18.1,15.5,34.7,32.6,50.1,50.8
	c16.7,19.6,31.8,40.4,45.3,62.4c12,19.5,22.4,39.7,31.6,60.6c0.9,2.1,1.7,4.2,1.9,6.6c-2.7-5.7-5.3-11.3-8-17
	c-14.1-29.2-30.4-57.1-49.5-83.2c-17.8-24.2-37.6-46.6-59.7-67c-18.5-17-38.1-32.5-58.9-46.5c-19.4-13-39.6-24.3-60.7-34.2
	c-21.1-9.9-43-17.8-65.4-24.3c-37.6-10.9-75.9-16.8-115-17.2c-1,0-2-0.2-3-0.3c-0.8-0.1-1.7-0.1-3.3-0.2c5.6,6.6,9.5,12.9,19.5,13.2
	c16.5,0.4,33,2.2,49.3,4.8c16.8,2.6,33.3,6.6,49.9,10.4c7.4,1.7,14.4,4.6,21.6,7.3c-41.4-12.9-83.8-20.2-127.8-21.3
	c2.5,3.1,4.8,6.1,7.1,9c18.4,23.1,34.2,47.9,45,75.5c8.6,21.9,13.9,44.6,13.8,68.3c-0.1,39.1-13.4,73.3-40.5,101.6
	c-9.4,9.9-20.2,18.7-31.3,26.7c-14.5,10.6-29.6,20.6-45.1,29.8c-12.4,7.3-25.8,13-38.9,19.2c-17.8,8.4-36.1,15.9-53.4,25.1
	c-18,9.5-33.4,22.8-46.7,38.3c-5.6,6.5-11,13.3-17.1,20.6c-2.2-5.1-4.9-10-6.6-15.1c-6.8-20.9-0.9-39.7,10.2-57.3
	c10.9-17.4,25.1-32,40.7-45.2c14.3-12.1,29-24,43.6-35.7c11.4-9.2,23-18,34.4-27.1c18-14.4,35.6-29.2,50.8-46.6
	c12.4-14.2,20.1-30.6,24.8-48.9c6.6-25.4,7.6-51.2,5.7-77c-1.4-19.3-4.8-38.4-7.3-57.6c-0.3-2.4-1.3-3.6-3.9-3.4
	c-9.9,0.6-19.9,0.4-29.8,1.6c-17.9,2.2-35.9,4.2-53.5,8.1c-17.9,4-35.5,9.8-53,15.7c-12.6,4.3-25,9.5-36.8,15.5
	c-15.3,7.8-30.4,16-44.7,25.4c-15.5,10.2-30,21.8-44.7,33.1c-5.2,4-9.8,8.9-14.3,13.9c63.1-54.1,136.5-86,217.6-101.3
	c-5,1.5-10,3-15,4.5c-10.6,3-21.5,5.3-31.9,9c-17.8,6.4-35.6,13-52.9,20.5c-24.3,10.5-47.1,23.9-68.9,39.1
	c-18.3,12.7-35.3,26.8-51,42.4c-18.4,18.4-34.7,38.6-49.4,60.2c-17,25.1-31.5,51.5-43,79.5c-11,26.7-19.2,54.2-24.8,82.6
	c-5.8,29.6-8.6,59.5-8.2,89.7c0.5,35.9,6.2,71.1,16.7,105.4c9.8,31.8,23.6,61.9,40.9,90.3c12.6,20.6,26.8,40,43,57.8
	c9.6,10.5,19.8,20.4,30.2,30.2c7.9,7.5,16,14.9,24.6,21.5c11.3,8.6,23,16.5,34.9,24.2c10.2,6.6,20.6,12.8,31.3,18.5
	c8.3,4.5,17,8.2,25.7,11.9c11.2,4.8,22.3,9.7,33.8,13.6c11.7,4,23.8,7.1,35.8,10c9.3,2.2,18.8,3.6,28.2,5.2
	c22.8,4,45.7,4.7,68.8,3.7c8.1-0.4,16.1-1.5,24.2-2.6c11.7-1.6,23.5-3.1,35.1-5.4c9.9-2,19.7-4.8,29.5-7.5
	c8.3-2.3,16.6-4.7,24.8-7.6c9.4-3.3,18.7-7,27.8-10.8c7.1-3,14-6.3,20.9-9.8c13.6-6.8,27.4-13.4,40.6-20.9
	c14.2-8.1,28.2-16.7,41.6-25.9c13.9-9.6,26.1-21.3,37.5-33.9c9.7-10.7,20.2-20.7,30.5-31c20.8-20.9,37.1-44.8,49.2-71.7
	c4.5-10,9.3-19.9,14.2-29.7c2.9-5.9,6.7-11.4,9.4-17.3c2.2-5,3.4-10.4,5.1-15.6c0.5-1.4,1-2.8,1.9-4.1c-1.3,13.7-6,26.6-9.1,39.8
	c11.9-26.8,20.8-54.5,24.7-83.7c0.5,0.1,0.9,0.2,1.4,0.2c-1.2,9-2.3,18-3.5,27c0.5,0.1,1,0.2,1.5,0.3c1.3-5.6,2.6-11.2,3.9-16.8
	c0.4,0.1,0.8,0.1,1.2,0.2c-1.2,11-2.1,22-3.7,33c-1.6,10.8-3.9,21.4-5.3,32.2c9.8-28.6,11.5-58.7,15.8-88.3c0.3,0,0.6,0,1,0
	c0,4,0,8,0,12c0.4,0,0.8,0.1,1.2,0.1c1-6.8,2-13.6,2.9-20.3c0.3,0,0.7,0.1,1,0.1c-0.4,8.6-0.8,17.3-1.2,25.9c0.5,0,0.9,0.1,1.4,0.1
	c6.7-29,8-58.5,8.6-88.2c0.3-0.1,0.6-0.1,1-0.2c1.2,3.8,2.5,7.6,3.5,11.4c3.7,15.2,4.2,30.7,4.1,46.3c-0.3,27.1-4.8,53.5-11.8,79.6
	c-8.3,31.1-20.3,60.9-35.8,89.1c-15.9,28.9-34.5,55.8-56.3,80.6c-14.9,17-30.9,32.9-48.1,47.5c-19.1,16.3-39.5,30.7-61.1,43.6
	c-31.7,18.9-65.3,33.7-100.6,44.3c-20.1,6.1-40.6,10.6-61.4,13.9c-32.8,5.3-65.7,5.9-98.8,4.4c-20.8-1-41.5-4-62-8.2
	c-19.1-3.9-38.1-8.2-56.4-14.7c-16.1-5.7-32-11.9-47.5-18.9c-14-6.3-27.8-13.4-40.9-21.4c-15.3-9.3-30.3-19.3-44.4-30.2
	c-15.1-11.7-29.7-24.1-43.2-37.5c-13.3-13.1-25.4-27.5-37.1-42c-22.5-28.1-40.4-59-55.1-91.8c-9.3-20.8-17-42.3-22.9-64.4
	c-6.7-25.2-11.7-50.6-13.8-76.6c-0.5-5.8-0.6-11.7-1-17.6c-0.1-2-0.6-4-0.9-6C486,561.4,486,549.9,486,538.4z M935.7,127
	c-0.7-3.2-1.4-6-2-8.8c-0.5-2.3-1.7-3.3-4.3-3.1c-19.9,1.7-39.9,3-59.8,5.1c-23.9,2.5-47.1,8.5-69.9,15.9
	c-12.8,4.1-25.2,9.3-37.8,14.1c-18.5,7.2-36.2,16.2-52.9,26.8c-14.9,9.4-29.4,19.5-43.8,29.8c-19.5,14-36.8,30.6-53.2,48.1
	c-19.6,20.9-36.8,43.5-52,67.8c-17.9,28.7-32.3,59-43.1,91c-11.1,32.8-18.3,66.5-21.2,101.2c-1.9,22.5-2.7,45.1-0.8,67.6
	c1.8,20.7,5,41.2,7.8,61.8c0.7,4.8,2.2,9.4,3.3,14.1c-21.7-135.3,4.8-259.1,90.9-366.8C683.3,183.8,797.8,131,935.7,127z"/>
<path class="st1" d="M996.7,698c-0.9-0.5-1.2-0.9-1.6-0.9c-10.1-1.2-20.2-2-30.2-3.8c-24.6-4.3-49.3-6.2-74.2-3.2
	c-2.9,0.4-5.8,0.7-8.7,1c15.3,7,25.2,18,28,34.4c2.8,16.5-3.5,29.9-15.7,41.1C935.9,754.9,972.8,736.5,996.7,698z M856.6,773.4
	c-24.4-10-34.2-27.6-29.9-53.6c-4.4,3-8.2,6.4-12.1,9.7c-1.9,1.6-4,3.1-5.8,4.8c-2.9,2.8-5.7,5.6-8.3,8.6c-2.8,3.2-5.3,6.6-7.9,10
	c-0.3-0.2-0.5-0.4-0.8-0.5c0.3-1.5,0.6-3,0.9-4.5c-0.3-0.1-0.7-0.3-1-0.4c-0.9,1.7-2,3.3-2.8,5.1c-0.8,1.9-1.3,3.9-2.2,6.4
	c-1.2-2.4-2.5-4.1-2.9-6c-0.4-2.1-0.1-4.4-0.1-6.7c-0.4,0-0.7,0-1.1-0.1c-0.2,3.2-1.5,6.7-0.5,9.5c1.6,4.6,0.5,8.1-1.9,12.3
	C805,776.5,830.5,775.5,856.6,773.4z"/>
<path d="M719.2,431.7c-2,6.1-4.1,12.1-5.9,18.3c-3.8,13.4-7.6,26.8-11.1,40.2c-2.8,10.8-5.4,21.6-7.4,32.6c-4.2,24-8.5,48-5.6,72.5
	c0.7,5.6,2.7,11.1,4.9,16.3c2.3,5.5,6.9,7.6,13.1,7.8c11.1,0.4,20.5-4.7,29.5-9.7c15.9-8.8,31.3-18.5,46.7-28.3
	c13.6-8.6,26.8-17.8,40-26.9c8.9-6.1,17.5-12.5,26.3-18.8c14.9-10.5,29.8-21,44.7-31.5c13-9.2,26-18.5,39.1-27.5
	c8.9-6.1,17.9-12,27-17.8c15-9.6,29.9-19.5,45.2-28.7c14.1-8.5,28.4-16.6,43-24.2c12.7-6.7,25.7-13.2,39-18.6
	c13.6-5.5,27.6-10.3,41.7-14.2c10.3-2.8,21.1-3.9,31.8-5.3c3.4-0.5,6.9,0.2,8.7,0.3c-11.8,2.2-25.4,3.7-38.3,7.5
	c-12.7,3.7-25.1,9.1-37.1,14.7c-14.2,6.6-28.2,13.8-41.8,21.7c-18.6,10.9-36.9,22.4-55,34c-15.2,9.8-30.2,20.2-45,30.5
	c-19.7,13.7-39.1,27.8-58.7,41.7c-17,12-34.1,24.1-51.1,36c-18.7,13.1-37.2,26.7-56.4,39c-16.8,10.8-34.3,20.5-51.9,30
	c-8.4,4.6-17.6,7.8-27.7,7.5c-11.7-0.3-21.6-7.5-25.1-18.8c-3-9.9-3.8-19.9-3.2-30.2c1.2-23.7,5.9-46.8,12.7-69.3
	c7.4-24.6,15.8-48.8,23.9-73.2c0.9-2.7,2.1-5.3,3.2-7.9C718.7,431.5,719,431.6,719.2,431.7z"/>
<path class="st2" d="M935.7,127c-137.9,4-252.4,56.8-338.6,164.6C511,399.4,484.5,523.2,506.2,658.5c-1.1-4.7-2.7-9.4-3.3-14.1
	c-2.8-20.6-6.1-41.1-7.8-61.8c-1.9-22.5-1.1-45,0.8-67.6c2.9-34.6,10.1-68.3,21.2-101.2c10.8-32,25.2-62.3,43.1-91
	c15.2-24.3,32.4-47,52-67.8c16.4-17.5,33.7-34.1,53.2-48.1c14.3-10.3,28.8-20.4,43.8-29.8c16.8-10.5,34.4-19.6,52.9-26.8
	c12.5-4.9,25-10,37.8-14.1c22.8-7.4,46-13.4,69.9-15.9c19.9-2.1,39.8-3.3,59.8-5.1c2.6-0.2,3.8,0.8,4.3,3.1
	C934.3,121.1,934.9,123.9,935.7,127z"/>
<path class="st2" d="M996.7,698c-23.9,38.5-60.8,56.9-102.5,68.7c12.2-11.2,18.5-24.6,15.7-41.1c-2.8-16.5-12.7-27.4-28-34.4
	c2.9-0.3,5.8-0.7,8.7-1c24.9-3,49.6-1.1,74.2,3.2c10,1.7,20.2,2.5,30.2,3.8C995.4,697.2,995.7,697.5,996.7,698z"/>
<path class="st2" d="M856.6,773.4c-26.2,2.1-51.6,3.1-76.5-5.4c2.4-4.2,3.5-7.7,1.9-12.3c-1-2.8,0.3-6.3,0.5-9.5
	c0.4,0,0.7,0,1.1,0.1c0,2.2-0.3,4.5,0.1,6.7c0.4,1.9,1.7,3.5,2.9,6c0.8-2.5,1.3-4.5,2.2-6.4c0.8-1.8,1.8-3.4,2.8-5.1
	c0.3,0.1,0.7,0.3,1,0.4c-0.3,1.5-0.6,3-0.9,4.5c0.3,0.2,0.5,0.4,0.8,0.5c2.6-3.3,5.1-6.8,7.9-10c2.6-3,5.5-5.8,8.3-8.6
	c1.8-1.7,3.9-3.2,5.8-4.8c3.9-3.3,7.7-6.7,12.1-9.7C822.4,745.9,832.2,763.5,856.6,773.4z"/>
<circle class="st3" cx="868.5" cy="732.5" r="41"/>
</svg>
