<?xml version="1.0" encoding="UTF-8"?>
<svg id="ChenYu.Me" xmlns="http://www.w3.org/2000/svg" xmlns:xlink="http://www.w3.org/1999/xlink" viewBox="0 0 1068.49 944.52">
  <defs>
    <style>
      .cls-1 {
        fill: url(#_ChenYuLOGO_28);
      }

      .cls-2 {
        fill: url(#_ChenYuLOGO_24);
      }
    </style>
    <linearGradient id="_ChenYuLOGO_24" data-name="ChenYuLOGO 24" x1="256" y1="508.36" x2="1324.49" y2="508.36" gradientUnits="userSpaceOnUse">
      <stop offset="0" stop-color="#f06944"/>
      <stop offset=".03" stop-color="#e86551"/>
      <stop offset=".12" stop-color="#d35a76"/>
      <stop offset=".21" stop-color="#c15196"/>
      <stop offset=".32" stop-color="#b349b0"/>
      <stop offset=".43" stop-color="#a744c4"/>
      <stop offset=".56" stop-color="#a040d2"/>
      <stop offset=".72" stop-color="#9b3dda"/>
      <stop offset="1" stop-color="#9a3ddd"/>
    </linearGradient>
    <linearGradient id="_ChenYuLOGO_28" data-name="ChenYuLOGO 28" x1="246.64" y1="326.08" x2="834.45" y2="326.08" gradientUnits="userSpaceOnUse">
      <stop offset="0" stop-color="#57d999"/>
      <stop offset=".21" stop-color="#49bea2"/>
      <stop offset=".65" stop-color="#257bbb"/>
      <stop offset="1" stop-color="#0843d0"/>
    </linearGradient>
  </defs>
  <path class="cls-2" d="m1068.35,516.11c-.4-.2-1.9,2.7-2.2,3.3-3.7,7.2-26.2,46.9-38.4,63.7-10.8,15-22.4,29.4-35,43-8.1,8.7-16.4,17.3-25.1,25.4-12,11.1-24.3,21.8-37.3,31.7-32.1,24.5-66.6,45.1-103.5,61.6-31.6,14.1-64.2,25.3-97.9,33.2-17.2,4-34.5,7.2-52,9.6-14.9,2.1-29.9,3.5-44.9,4.4-14.5.8-29,1-43.6.7-16.2-.3-32.3-1.3-48.3-3-13.9-1.5-27.8-3.5-41.6-6-21-3.7-41.7-8.8-62.1-15.1-21.1-6.6-41.9-14.3-62.1-23.3-23.3-10.4-45.8-22.4-67.4-36.1-26.7-16.9-51.6-36.2-74.7-57.8-10.1-9.5-19.6-19.5-29.1-29.6-1.1-2.9-3.7-4.7-5.6-6.9-9.8-11.2-18.8-23-27.5-35.1-11.7-16.3-21.9-33.4-31.3-51.1-5.5-10.4-10.5-21.1-15.1-31.9-4.7-11-8.9-22.1-12.6-33.4-4.5-13.4-8.1-27.1-11.3-40.9-3.9-16.9-6.4-33.9-8.1-51.1-.9-9.2-1.6-18.4-1.8-27.6-.3-10.7-.2-21.4.3-32,.5-10.2,1.4-20.4,2.6-30.6,1.8-15.5,4.3-30.8,7.9-46,3.1-13.1,6.6-26.1,11-38.8,2.9-8.4,5.8-16.8,9.3-25.1,3.2-7.6,6.3-15.2,9.8-22.6,4.2-9,9-17.8,13.8-26.6,8.1-14.6,17-28.7,26.8-42.2,1.7-2.3,3.8-4.4,5.2-7.7-1.6,1-2.9,1.5-3.9,2.4-7.8,7.1-15.8,14.1-23.3,21.4-11.2,10.9-21.8,22.3-31.9,34.2-5.6,6.6-11.2,13.2-16.4,20-9.7,12.7-18.8,25.8-27.3,39.3-7.7,12.2-14.7,24.7-21.4,37.4-3.8,7.4-7.1,15.1-10.7,22.6-5.2,10.9-9.4,22.2-13.6,33.5-3.3,9.1-6.1,18.5-8.9,27.8-2.5,8.1-4.8,16.3-6.5,24.7-1.7,8.2-3.4,16.4-5,24.7-1.3,6.8-2.4,13.5-3.3,20.4-.8,6.2-1.3,12.3-2.1,18.5-.9,7.4-1.8,14.9-1.9,22.2-.1,16.3-1.1,32.7.8,49.1,1.1,9.9,1.5,19.9,2.6,29.9,1.2,10.6,2.7,21.2,4.9,31.6,3,14.6,6.1,29.1,10.5,43.4,3.8,12.4,7.6,24.7,12.2,36.8,6.3,16.2,13.5,32,21.3,47.6,7,14,14.9,27.4,23.3,40.5,4,6.3,7.9,12.8,12.7,18.6,5.5,8.1,11.6,15.8,17.6,23.5,11.4,14.7,23.9,28.5,36.9,41.7,9.6,9.8,19.8,19.2,30.3,28.1,6.7,5.6,13.2,11.4,20.2,16.7,12.1,9.2,24.4,18.2,37.3,26.5,15.5,10,31.3,19.3,47.7,27.7,17.4,8.9,35.1,16.9,53.4,23.9,19.8,7.6,39.8,14.2,60.3,19.5,21.9,5.7,44.1,10.2,66.7,13,16,2,32.9,3.4,37,3.7,5.7.4,11,.8,17.9,1.1,0,0,26.5,1.2,63.4-1.1,5.4-.3,11.8-.8,11.8-.8,4.1-.3,6.2-.4,8.6-.7,3.2-.3,8.8-.8,15.8-1.7,2.1-.3,6.7-.9,13.9-2.1,10.7-1.8,19.6-3.7,25.9-4.9,16-3.2,31.7-7.1,47.3-11.8,12.7-3.8,25.2-8,37.6-12.7,12.8-4.8,25.3-10.2,37.8-15.9,9.4-4.3,18.7-9,27.8-13.9,5.8-3.2,11.7-6.2,17.4-9.6,13.6-8.1,27-16.6,40-25.8,10.9-7.8,21.5-16,31.9-24.6,9.1-7.6,18.2-15.2,26.6-23.6s17.2-16.7,25.3-25.6c6.5-7.2,12.8-14.4,18.9-21.8,8-9.7,15.6-19.9,22.8-30.2,10.4-14.9,20-30.3,28.8-46.2,5.7-10.3,10.9-20.9,15.9-31.6,4-8.5,7.5-17.3,10.9-26.1,5.3-13.7,9.9-27.7,13.9-41.8,3.3-11.9,6.2-23.9,8.8-36,1.2-5.8,2.1-11.7,3.3-17.5,0-.4.3-2,0-2.1Z"/>
  <path class="cls-1" d="m275.35,52.61c32.3,57.3,64.5,114.5,96.8,171.8,22.4,39.8,44.8,79.6,67.3,119.3,0,.09,0,.17.01.26-.04-.05-.07-.1-.11-.16-23.1,38.5-46.1,77-69.3,115.4-35.4,58.7-71.4,117.1-107.7,175.2-3.1,5-6.2,10-9.5,15.2,1.5.3,2.5.6,3.6.7,25.1,3.3,50,2.1,74.7-2.7,36.4-7,69.4-21.6,99.2-43.5,12.2-9,23.7-18.9,33.9-30.1.03-.08.06-.16.09-.24.04.08.06.16.11.24,6.9-6.6,12.9-13.9,18.8-21.3,17.1-21.7,32.2-44.9,46.8-68.4,30.9-49.7,62-99.2,93-148.8,35.3-56.5,70.6-113,105.9-169.6,4.7-7.6,9.4-15.3,14.1-22.9h0s0,0,0,0c30.3-47.3,60.7-94.7,91.4-142.7-45.6.7-88.4,10.4-129.6,27.7-66.1,27.8-118.3,72.4-158.1,131.7.06.04.13.08.2.12-.17.02-.33.05-.5.08-.7-.4-1.4-.7-2.1-1.1-15.4-9-28.2-21.1-39.7-34.7-18.2-21.5-36.4-43-56.2-63.1-32.2-33.2-71.2-52.5-117.2-57.9C312.65.91,294.05-.09,275.35,0c-9.6.1-19.2-.1-28.7.7-.1,1.1.5,1.8,1,2.6,9.2,16.4,18.5,32.9,27.7,49.3Zm291.5,116.66s.07.03.1.04c.02,0,.03.01.05.02-.05.03-.1.05-.15.08v-.14Z"/>
</svg>