<?xml version="1.0" encoding="utf-8"?>
<!-- Generator: $$$/GeneralStr/196=Adobe Illustrator 27.6.0, SVG Export Plug-In . SVG Version: 6.00 Build 0)  -->
<svg version="1.1" id="图层_1" xmlns="http://www.w3.org/2000/svg" xmlns:xlink="http://www.w3.org/1999/xlink" x="0px" y="0px"
	 viewBox="0 0 1080 1080" style="enable-background:new 0 0 1080 1080;" xml:space="preserve">
<style type="text/css">
	.st0{fill:#E73828;}
	.st1{fill:url(#SVGID_1_);}
	
		.st2{fill:url(#SVGID_00000170269910462026640920000001085575121257789354_);stroke:url(#SVGID_00000106119092765132262150000009682575997610705819_);stroke-miterlimit:10;}
	
		.st3{fill:url(#SVGID_00000162310052302970279210000016250420285445934233_);stroke:url(#SVGID_00000018951568702888470090000004965250950470355607_);stroke-miterlimit:10;}
	.st4{fill:url(#SVGID_00000058560253008794565310000016898365121799319218_);stroke:#D8D6D6;stroke-miterlimit:10;}
	.st5{fill:url(#SVGID_00000077325671597043683410000007413937014165840055_);stroke:#D8D6D6;stroke-miterlimit:10;}
</style>
<g>
	<path d="M531.99,1049.26c-58.15,0-115.48-9.94-170.37-29.55c-53.84-19.23-103.78-47.17-148.42-83.05
		c-45.01-36.17-83.21-79.27-113.54-128.09c-31.38-50.53-53.52-105.95-65.79-164.72c-14.05-67.32-14.5-135.38-1.34-202.28
		c12.72-64.62,37.54-125.46,73.78-180.82s82.06-102.45,136.2-139.96c56.04-38.83,118.59-65.65,185.92-79.7
		c34.5-7.2,69.7-10.85,104.63-10.85c58.15,0,115.48,9.94,170.37,29.55c53.84,19.23,103.78,47.17,148.42,83.05
		c3.26,2.62,6.48,5.27,9.67,7.96c-81.2-58.57-180.75-92.3-287.53-92.3c-33.69,0-67.63,3.52-100.9,10.47
		C207.85,124.34,37.11,385.17,92.48,650.4c47.3,226.6,249.39,391.07,480.53,391.07c25.82,0,51.78-2.07,77.48-6.16
		c-4.6,1.09-9.23,2.13-13.88,3.09C602.11,1045.61,566.91,1049.26,531.99,1049.26z"/>
	<path d="M533.02,20.24l0.03,20c39.35,0,78.32,4.65,116.38,13.85c-24.64-3.68-49.84-5.58-75.44-5.58
		c-34.37,0-69.01,3.59-102.94,10.68C339.94,86.55,227.35,163.33,154,275.38C80.65,387.44,55.32,521.35,82.69,652.44
		c36.79,176.22,165.32,315.61,328.79,371.95c-15.67-3.93-31.18-8.63-46.5-14.11c-52.79-18.86-101.75-46.25-145.52-81.43
		c-44.13-35.46-81.58-77.71-111.31-125.57c-30.77-49.53-52.47-103.86-64.5-161.48c-13.78-66.01-14.22-132.72-1.31-198.3
		c12.47-63.35,36.81-122.99,72.34-177.27s80.45-100.44,133.53-137.22c54.94-38.07,116.26-64.35,182.26-78.13
		c33.83-7.06,68.33-10.64,102.55-10.64L533.02,20.24 M533.05,20.24c-35.18,0-70.86,3.59-106.67,11.06
		C145.57,89.92-34.54,365.08,24.07,645.89c51.14,245,267.16,413.37,507.92,413.37c35.18,0,70.86-3.59,106.67-11.07
		c122.42-25.55,225.69-92.27,298.4-182.65c-66.6,76.84-157.97,133.29-265.19,155.67c-33.17,6.92-66.27,10.26-98.86,10.26
		c-223.15,0-423.33-156.03-470.74-383.11c-54.33-260.25,112.6-515.27,372.86-569.6c33.17-6.92,66.27-10.25,98.86-10.25
		c220.24,0,418.11,152,468.8,374.29c-0.58-3.06-1.18-6.12-1.82-9.18C989.82,188.61,773.8,20.25,533.05,20.24L533.05,20.24z"/>
</g>
<g>
	<g>
		<path class="st0" d="M923,549.42c6.85-3.15,13.51-5.86,20.4-7.99c6.18-1.91,12.32-4.05,18.96-3.36c3.33,0.35,6.61,0.93,9.76,2.1
			c0.88,0.33,1.84,0.84,1.72,1.93c-0.12,1.14-1.21,0.85-2,0.97c-2.61,0.4-4.3,1.71-5.01,4.44c-2.18,8.4-3.62,16.87-3.67,25.58
			c-0.01,2.05,0.74,2.98,2.6,3.62c2.78,0.96,5.82,1.2,8.25,3.14c1.71,1.37,3.1,2.96,3.97,4.97c0.81,1.86,0.6,3.49-0.81,5.13
			c-4.4,5.1-9.33,9.52-15.17,12.94c-3.28,1.92-3.28,5.62-4.22,8.77c-0.26,0.88-0.32,1.82-0.45,2.74c-0.35,2.39,0.87,4.31,3.28,4.2
			c6.51-0.3,13.01-0.55,19.53-0.24c1.39,0.07,1.88-0.98,2.46-2.23c1.34,3.05,3.67,4.14,6.78,4.37c2.19,0.16,4.32,1.07,6.28,2.15
			c2.15,1.18,2.16,2.36-0.09,3.55c-2.86,1.52-5.98,1.15-8.99,0.66c-6.91-1.13-13.8-1.12-20.77-0.48
			c-14.48,1.32-28.53,4.96-42.74,7.72c-1.89,0.37-3.9,0.35-5.83,0.19c-2.51-0.22-3.71-2.25-4.44-6.23
			c-0.45-2.49,1.12-3.27,2.87-4.08c7.98-3.66,15.45-8.1,22.16-13.83c1.75-1.49,1.7-2.73,0.7-4.27c-1.36-2.1-2.96-4.04-4.31-6.14
			c-2.32-3.62-2.1-6.25,0.41-9.7c4.35-5.99,9.72-10.44,17.21-11.81c1.38-0.25,1.87-1.06,2.19-2.43c0.74-3.13,0.32-6.3,0.76-9.45
			c0.59-4.22,0.58-8.53,0.7-12.81c0.08-2.8-1.31-3.72-4.09-3.04c-5.13,1.25-10.29,2.26-15.62,2.13
			C931.37,552.52,927.21,551.66,923,549.42z M952.14,592.72c0-2.84-0.03-4.79,0.01-6.74c0.03-1.42-0.73-1.86-1.93-1.59
			c-5.58,1.22-9.38,4.66-11.49,9.85c-1.71,4.19,0.71,7.5,2.86,10.78c1.17,1.77,2.45,1.92,4.14,0.54
			C950.07,601.97,953.64,598.11,952.14,592.72z M938.55,622.79c4.01-0.8,8.54-1.66,13.04-2.62c0.72-0.15,2.03-1,1.05-1.6
			c-2.15-1.33-4.41-2.47-6.45-4.01c-0.23-0.17-1.12,0.47-1.67,0.79c-2.4,1.4-4.76,2.87-7.19,4.19c-0.95,0.51-1.97,1.04-1.82,2.15
			C935.69,623.2,937.09,622.45,938.55,622.79z"/>
		<path class="st0" d="M944.36,689.35c-4.52,2.29-9.29,4.06-12.74,7.8c-2.6,2.82-2.55,6.39-2.16,10.02
			c1.22,11.49-1.39,21.82-10.61,29.34c-4.64,3.78-10.02,6.69-14.82,10.34c-10.69,8.13-16.25,19.13-18.53,32.2
			c-1.08,6.24-1.69,12.5-2.3,19.49c-1.31-4.79-1.24-9.08-1.23-13.27c0.01-7.01,0.38-14.01,2.32-20.86
			c2.15-7.63,6.14-13.91,11.84-19.42c7.14-6.9,14.54-13.6,20-22.08c3.49-5.43,4.68-11.2,3.58-17.51c-0.35-1.99-0.89-2.94-3.25-1.73
			c-4.79,2.47-9.39,1.12-13.63-1.6c-2.38-1.53-1.99-4.36,0.73-5.37c2.15-0.8,4.43-1.25,6.67-1.76c4.18-0.95,8.06-2.69,11.97-4.39
			c1.74-0.76,2.59-1.94,3.03-3.63c1.97-7.56,3.9-15.12,5.14-22.84c0.42-2.62-1.47-4.76-1.27-7.3c0.05-0.63-0.37-1.35-0.19-1.91
			c0.4-1.26,0.02-2.96,1.66-3.6c1.71-0.67,2.53,0.74,3.49,1.68c1.87,1.83,3.58,3.8,4.78,6.16c1.65,3.24,2.15,6.37,0.11,9.77
			c-2.22,3.7-2.81,8.05-4.08,12.12c-0.19,0.6-0.35,1.37,0.18,1.86c0.66,0.61,1.4,0.17,2.05-0.18c4.29-2.37,9.39-3.07,13.18-6.44
			c0.5-0.44,1.12-0.53,1.48-0.04c1.63,2.26,4.55,2.84,6.28,4.99c2.19,2.73,1.67,5.79-1.58,6.64c-2.55,0.66-3.68,2.35-4.6,4.39
			c-3.38,7.53-4.76,15.56-5.93,23.66c-0.54,3.73-0.64,7.38,0.2,11.07c1.82,7.95,7.14,12.07,14.75,13.75
			c3.3,0.73,6.67,0.89,9.99,0.58c5.83-0.55,8.84-4.5,10.88-9.73c-0.46,4.28,2.92,7.54,2.72,11.72c-0.19,4.07-0.74,4.75-4.72,5.28
			c-7.6,1.02-15.27,1.28-22.67-0.68c-6.22-1.64-10.88-5.97-13.95-11.63c-4.35-8.02-5.2-16.55-3.5-25.55
			C940.94,703.6,942.73,696.6,944.36,689.35z"/>
		<path class="st0" d="M1021.87,683.54c-2.52,0.72-3.53,2.17-4.59,3.67c-0.57,0.8-0.83,2.43-2.36,1.78
			c-1.4-0.59-3.17-1.01-3.46-2.87c-0.43-2.69,0.38-6.17,3.05-7.81c3.94-2.42,6.52-6.32,9.31-9.92c0.42-0.54,0.74-1.22,0.25-1.78
			c-0.66-0.74-1.13,0.19-1.64,0.43c-0.58,0.27-1.1,0.69-1.62,1.08c-1.76,1.31-3.56,2.65-5.59,0.56c-1.98-2.04-1.93-5.2,0.3-7.19
			c4.18-3.73,7.63-8.1,11.16-12.4c1.12-1.38,3.04-2.92,1.67-4.85c-1.46-2.05-3.56-0.51-5.36-0.04c-2.56,0.67-4.66,2.24-6.84,3.64
			c-1.38,0.88-2.81,1.64-4.37,0.47c-1.5-1.13-1.33-2.66-0.93-4.27c2.39-9.7,7.59-17.21,16.81-21.53c9.15-4.29,8.99-12.28,6.15-18.9
			c-0.93-2.17-2.76-3.41-4.66-4.62c-1.55-0.99-3.13-1.99-4.16-3.63c1.04-0.4,1.94-0.01,2.69,0.49c3.81,2.5,7.74,4.86,11.32,7.66
			c5.77,4.53,7.12,10.95,6.37,17.83c-0.5,4.54-5.73,8.15-11.73,9.13c-3.8,0.61-7.73,0.96-11.19,2.95c-1.38,0.8-2.66,1.71-3.59,3.04
			c-0.92,1.33-1.78,2.69-0.92,4.37c0.97,1.89,2.8,2.17,4.57,1.91c2.74-0.41,5.46-1.01,8.12-1.78c1.31-0.38,2.56-0.36,3.85-0.38
			c2.3-0.05,3.39,1.36,3.69,3.41c0.3,1.99-0.25,3.83-1.34,5.55c-2.05,3.24-4.42,6.2-7.08,8.95c-1.01,1.04-1.89,1.97,0.17,3.2
			c4.21,2.52,4.37,6.28,0.51,9.52c-1.73,1.45-3.29,3.01-4.47,4.91c-0.77,1.24-1.29,2.51,1.04,2.58c0.35,0.01,0.71,0.19,1.05,0.33
			c4.29,1.75,6,2.51,2.53,7.02c-0.27,0.35-0.36,0.84-0.63,1.52c4.66-0.73,9.01-1.98,13.52-2.41c3.95-0.39,7.86-0.28,11.55,1.01
			c6.21,2.17,8,7.46,8.85,13.38c0.8,5.54-2.17,9.5-5.46,13.17c-6.13,6.86-13.93,11.46-22.48,14.41c-5.75,1.98-11.97,1.16-17.9,0.05
			c-6.42-1.2-12.65-3.19-18.65-5.84c-3.74-1.65-4.17-4.31-0.76-6.51c7.15-4.62,14.82-8.01,23.34-9.36c3.15-0.5,6.29-0.51,9.45-0.5
			c0.74,0,1.51,0,2.21,0.2c1.77,0.5,3.62,1.36,3.68,3.34c0.07,2.21-2.08,2.65-3.77,3.03c-5.05,1.14-10.18,0.61-15.28,0.53
			c-4.51-0.07-8.91,0.22-12.79,2.86c-0.88,0.6-2.08,1.05-1.95,2.46c0.16,1.7,1.68,1.58,2.75,1.84c6.79,1.6,13.63,2.98,20.66,2.24
			c8.22-0.86,14.47-5.48,20.11-11.04c1.97-1.94,3.54-4.29,5.33-6.42c2.44-2.91,2.22-6.16,1.1-9.42c-1.4-4.06-3.97-5.42-8.21-4.63
			c-9.2,1.7-17.62,5.43-25.84,9.73c-1.47,0.77-2.87,1.62-4.56,1.97c-1.28,0.26-2.56,0.4-3.3-0.6c-0.91-1.23-1.71-2.69-0.96-4.41
			c0.65-1.5,1.8-2.54,2.92-3.67C1016.27,690.13,1019.54,687.68,1021.87,683.54z"/>
		<path class="st0" d="M961.85,900.23c1.87,1.79,3.56,3.5,5.35,5.09c2.04,1.82,3.88,1.61,5.39-0.68c2.25-3.42,3.1-7.26,3.05-11.32
			c-0.01-0.85-0.19-1.56-1.21-1.42c-3.31,0.45-6.81-0.55-9.92,1.67c-2.03,1.45-4.56,1.79-7.53,1.96c1.73-1.54,3.19-2.73,4.51-4.07
			c0.59-0.6,1.4-1.51,0.16-2.29c-2.89-1.84-1.78-4.14-0.67-6.3c2.42-4.73,2.34-4.89-3.11-4.95c-1.07-0.01-2.2,0.32-3.43-0.47
			c2.63-2.22,5.48-3.66,8.75-3.81c3.32-0.15,6.7-0.66,9.96,0.45c1,0.34,1.35,0.04,1.39-0.97c0.1-2.44-0.17-4.85-0.93-7.14
			c-0.68-2.03-2.57-2.86-4.48-2.51c-5.6,1.01-10.9,2.92-15.46,6.47c-2.17,1.69-3.47,3.85-3.21,6.73c0.38,4.29,0.28,8.52-1.01,12.69
			c-0.96,3.09-0.73,6.2-0.14,9.36c0.28,1.46,0.8,3.55-1.01,4.25c-2.19,0.86-4.08-0.61-5.81-1.89c-1.55-1.15-2.12-2.93-1.22-4.45
			c1.7-2.87,1.47-5.9,1.4-8.94c-0.3-13.43,4.78-24.35,15.23-32.75c1.16-0.93,1.55-2.04,1.53-3.39c-0.09-5.16,0.66-10.39-1.71-15.32
			c-0.87-1.8-1.31-4.35-0.02-5.49c1.21-1.07,3.5,0.2,5.18,1.01c3.75,1.83,4.6,3.36,4.37,7.48c-0.13,2.31-0.62,4.62-0.11,6.96
			c0.28,1.3,0.78,1.72,2.12,1.26c3.51-1.22,6.49-3.26,8.94-5.98c1-1.11,1.34-2.57-0.67-3.28c-0.44-0.16-1-0.19-0.94-0.8
			c0.05-0.49,0.49-0.77,0.99-0.82c3.84-0.38,7.65-0.51,10.89,2.1c1.14,0.92,2.49,1.87,2.21,3.63c-0.28,1.81-1.81,2.49-3.28,3.09
			c-2.59,1.06-5.41,1.08-8.09,1.71c-3.39,0.8-6.81,1.53-10.22,2.26c-0.46,0.1-0.9,0.17-1.19,0.6c-0.49,0.73-0.73,8.71-0.33,9.42
			c0.49,0.87,1.28,0.59,1.99,0.57c2.7-0.07,5.4-0.17,8.02,0.65c3.42,1.07,5.97,3.97,5.78,7.36c-0.6,10.99,1.13,21.96,0.08,32.93
			c-0.29,3.05-1.36,6.01-2.82,8.56c-2.43,4.24-9.4,4.81-13.28,1.54C963.99,908.23,962.79,904.4,961.85,900.23z M975.62,880.42
			c-0.03-1.24-0.17-2.15-1.59-1.73c-3.74,1.12-7.24,2.62-9.59,6.01c-0.57,0.82-1.6,1.46-1.06,2.65c0.51,1.13,1.71,1.09,2.67,1.12
			c2.8,0.1,5.56,0.33,8.16,1.44c1.35,0.58,1.3-0.19,1.41-1.13C975.96,885.92,974.51,883.07,975.62,880.42z M957.76,857.7
			c-0.42,0.22-0.69,0.31-0.89,0.47c-2.48,2.06-4.16,4.72-5.21,7.72c-0.44,1.26,0.38,1.76,1.54,1.13c2.03-1.1,4.03-2.26,6.01-3.44
			c1.12-0.67,0.94-1.83,0.55-2.72C959.28,859.74,958.45,858.76,957.76,857.7z"/>
		<path class="st0" d="M993.86,816.79c1.46-4.86,3.13-8.88,7.26-11.35c1.84-1.1,3.55-2.36,5.16-3.78c1.92-1.68,2.85-3.71,2.24-6.2
			c-0.6-2.45-2.75-3.52-4.85-4.17c-1.54-0.47-3.2-0.78-4.93-0.66c-10.72,0.72-21.68,1.22-31.26,6.27
			c-5.37,2.83-9.87,7.87-11.74,14.34c-0.55,1.91,0.79,1.67,1.91,1.7c4.55,0.12,9.11-0.22,13.63,0.64c1.51,0.29,2.84,0.81,3.93,1.92
			c0.97,1,1.35,2.13,0.3,3.21c-5.51,5.66-12.61,7.89-20.07,9.37c1.17-1.96,3.22-2.71,4.8-4.06c1.84-1.57,3.85-2.97,4.5-5.51
			c0.49-1.92-0.12-2.95-2.2-2.69c-2.48,0.31-4.93,0.39-7.44,0.03c-4.01-0.58-6.54-3.66-5.98-7.72c0.24-1.74,0.54-3.46,1.08-5.14
			c0.44-1.35-0.3-2.12-1.61-1.61c-6.43,2.49-13.49,2.89-19.72,6.08c-6.36,3.25-7.92,6.58-6.04,13.51c1.43,5.28-0.63,8.1-6.06,8.24
			c-1.02,0.03-2.06,0.08-3.07-0.03c-3.97-0.45-4.89-1.76-4.18-5.72c0.2-1.1,0.5-2.34-0.12-3.28c-1.17-1.77-0.73-2.89,0.98-3.83
			c1.05-0.58,1.39-1.54,1.66-2.71c1.05-4.59,3.11-8.68,6.47-12.06c2.01-2.03,2.95-2.02,3.46,0.67c0.61,3.27,2.03,2.66,4.3,1.91
			c8.51-2.82,17.07-5.52,25.66-8.07c2.73-0.81,3.64-2.38,3.6-5.04c-0.05-3.21,0.55-3.93,3.71-3.65c2.65,0.23,5.94-0.84,7.46,2.82
			c0.35,0.84,1.54,0.51,2.32,0.34c8.81-1.82,17.7-3.25,26.64-4.11c9.54-0.91,18.63,0.46,25.13,8.76c0.57,0.73,1.08,1.53,1.43,2.38
			c0.47,1.17,1.33,2.38,0.45,3.69c-0.95,1.42-2.28,0.72-3.55,0.58c-5.3-0.6-9.66,1.9-14.1,4.27c-3.55,1.89-6.33,4.43-8.37,7.89
			C996.08,814.92,995.47,815.91,993.86,816.79z"/>
		<path class="st0" d="M979.55,678.89c-0.09,2.55-0.06,4.49-1.03,6.42c-2.67,5.29-9.54,4.17-12.14,0.93
			c-2.9-3.62-3.08-7.92-2.88-12.16c0.28-5.98,1.44-11.86,3.2-17.6c0.19-0.61,0.42-1.22,0.63-1.82c0.54-1.56,1.21-1.55,2.29-0.36
			c2.45,2.68,2.42,2.55,5.3,0.13c3.99-3.34,8.07-6.54,12.49-9.31c3.4-2.13,7.01-2.84,10.91-2.34c3.48,0.44,4.69,1.81,4.62,5.3
			c-0.13,6.46-1.77,12.45-5.35,17.89c-1.24,1.88-2.63,3.85,0.93,5.17c1.53,0.57,1.46,2.27,0.61,3.62
			c-3.03,4.78-7.56,7.29-12.97,8.26C984,683.37,982.07,682.04,979.55,678.89z M979.19,677.71c1.57-4.85,4.53-8.94,6.53-13.51
			c1.59-3.65,3.22-7.28,4.25-11.14c0.28-1.03,0.65-2.29-0.32-3.13c-0.74-0.64-1.76-1.18-2.82-0.65c-4.48,2.24-8.99,4.41-12.67,7.94
			c-1.23,1.18-1.54,2.23-0.82,3.91C975.67,666.48,977.6,671.99,979.19,677.71z"/>
		<path class="st0" d="M959.75,779.53c1.5-3.53,1.29-3.57-1.73-4.15c-6.3-1.22-12.92-1.63-18.62-4.72
			c-5.85-3.17-14.54-12.3-12.24-20.99c2.3,7.12,6.45,12.37,13.59,14.71c6.71,2.2,13.5,3.52,20.33,0.44
			c2.66-1.19,5.31-1.31,8.14-0.69c2.26,0.5,4.58,0.68,6.89,0.92c3.99,0.41,7.38,3.59,7.82,7.55c0.27,2.5-1.32,3.87-3.46,4.32
			c-3.34,0.71-6.7,1.37-10.16,1.33C966.9,778.21,963.44,777.91,959.75,779.53z"/>
		<path class="st0" d="M1005.29,605.82c-1.75,0.22-3.29-0.51-4.56-1.88c-2.26-2.44-4.79-4.65-6.2-7.79c-0.4-0.9-0.81-1.84-0.17-2.59
			c0.72-0.84,1.84-1.38,3-0.99c4.47,1.5,9.05,2.54,13.63,3.64c4.23,1.01,4.62,4.3,1.26,7.14
			C1010.29,605,1008.11,606.09,1005.29,605.82z"/>
		<path class="st0" d="M955.64,843.33c-1.71,1.05-3.43,2.07-5.12,3.15c-3.53,2.26-6.4,5.06-7.59,9.25
			c-0.72,2.51-2.99,1.64-4.65,1.98c-1.59,0.33-1.61-0.89-1.91-2.04c-0.35-1.32-1.07-2.54-1.7-3.78c-0.48-0.94-1.04-1.9-0.2-2.82
			c0.76-0.83,1.94-1.63,2.95-1.22c3.49,1.43,6.33-0.47,9.31-1.56c2.92-1.07,5.75-2.37,8.62-3.57
			C955.45,842.93,955.55,843.13,955.64,843.33z"/>
	</g>
</g>
<g>
	
		<linearGradient id="SVGID_1_" gradientUnits="userSpaceOnUse" x1="479.2054" y1="835.0253" x2="479.2054" y2="835.0253" gradientTransform="matrix(1 0 0 -1 0 1080)">
		<stop  offset="0.3665" style="stop-color:#FABD1A"/>
		<stop  offset="1" style="stop-color:#EC6C28"/>
	</linearGradient>
	<path class="st1" d="M479.21,244.97"/>
	
		<linearGradient id="SVGID_00000012439270289226084710000002466967111894134663_" gradientUnits="userSpaceOnUse" x1="591.8505" y1="467.6628" x2="590.4785" y2="134.2442" gradientTransform="matrix(1 0 0 -1 0 1080)">
		<stop  offset="0" style="stop-color:#2C90B5"/>
		<stop  offset="0.2503" style="stop-color:#2B89B3"/>
		<stop  offset="0.6092" style="stop-color:#2A76AF"/>
		<stop  offset="1" style="stop-color:#285AA9"/>
	</linearGradient>
	
		<linearGradient id="SVGID_00000133493124266008056880000000192496664258302093_" gradientUnits="userSpaceOnUse" x1="459.285" y1="321.0879" x2="721.8616" y2="321.0879" gradientTransform="matrix(1 0 0 -1 0 1080)">
		<stop  offset="0" style="stop-color:#FABD1A"/>
		<stop  offset="0" style="stop-color:#D8D6D6"/>
	</linearGradient>
	
		<path style="fill:url(#SVGID_00000012439270289226084710000002466967111894134663_);stroke:url(#SVGID_00000133493124266008056880000000192496664258302093_);stroke-miterlimit:10;" d="
		M544.26,574.39c-0.64,0.43-1.33,0.99-2.06,1.68c-8.71,8.22-17.43,16.45-25.95,24.87c-6.19,6.11-12,12.62-18.13,18.8
		c-6.19,6.25-12.62,12.29-18.86,18.5c-3.11,3.1-6.12,6.33-9.02,9.63c-2.27,2.58-2.86,5.64-1.52,8.89c1.37,3.3,2.78,6.6,4.28,9.84
		c2.03,4.36,4.39,8.57,6.22,13.01c8.33,20.36,16.01,40.98,25.64,60.8c1.01,2.07,1.33,4.22,1.33,6.52
		c0.07,41.8,0.18,83.59,0.31,125.38c0.01,5.4-1,10.62-3.01,15.57c-2.11,5.21-5.54,9.42-11.07,11.23c-3.87,1.27-7.91,1.99-11.82,3.15
		c-3.71,1.1-7.55,2.05-10.99,3.76c-11.43,5.68-12.24,21.41-5.81,28.19c4.56,4.8,10.3,7.45,16.74,8.24
		c4.96,0.61,10.02,0.65,15.03,0.64c10.14-0.03,20.28-0.38,30.42-0.4c39.44-0.05,78.88-0.07,118.32,0.01
		c11.36,0.03,22.74,0.37,34.09,0.77c8,0.29,15.98,0.02,23.9-1c7.14-0.92,12.6-4.69,16.33-10.8c2.12-3.48,3.19-7.34,2.54-11.46
		c-1.21-7.72-5.8-12.87-12.93-15.43c-5.74-2.06-11.71-3.61-17.67-4.94c-6.71-1.49-11.15-5.25-13.46-11.65
		c-1.85-5.15-2.91-10.46-2.91-15.93c-0.04-26.53-0.02-53.06-0.02-79.59c-0.02,0-0.04,0-0.07,0c0-26.13-0.02-52.24,0.01-78.37
		c0.01-4.97-0.59-9.81-2.61-14.38c-2.78-6.27-5.42-12.61-8.48-18.73c-6.52-13.01-12.5-26.22-17.31-39.97
		c-1.65-4.71-3.93-9.21-6.21-13.67c-0.63-1.24-1.43-2.26-2.35-3.13C607.06,624.48,574.1,606.05,544.26,574.39z"/>
	
		<linearGradient id="SVGID_00000005948011702629335870000015969716403765112751_" gradientUnits="userSpaceOnUse" x1="791.4454" y1="673.9176" x2="661.0965" y2="454.3827" gradientTransform="matrix(1 0 0 -1 0 1080)">
		<stop  offset="0" style="stop-color:#2C93B5"/>
		<stop  offset="0" style="stop-color:#2C93B5"/>
		<stop  offset="0.2594" style="stop-color:#2C8FB4"/>
		<stop  offset="0.5301" style="stop-color:#2B82B1"/>
		<stop  offset="0.8051" style="stop-color:#296EAD"/>
		<stop  offset="1" style="stop-color:#285AA9"/>
	</linearGradient>
	
		<linearGradient id="SVGID_00000158013931472801747320000002589403118421740936_" gradientUnits="userSpaceOnUse" x1="668.5875" y1="531.4574" x2="824.1635" y2="531.4574" gradientTransform="matrix(1 0 0 -1 0 1080)">
		<stop  offset="0" style="stop-color:#2C90B5"/>
		<stop  offset="0" style="stop-color:#3D97B8"/>
		<stop  offset="0" style="stop-color:#61A6BF"/>
		<stop  offset="0" style="stop-color:#81B3C5"/>
		<stop  offset="0" style="stop-color:#9DBECB"/>
		<stop  offset="0" style="stop-color:#B3C7CF"/>
		<stop  offset="0" style="stop-color:#C4CED2"/>
		<stop  offset="0" style="stop-color:#CFD2D4"/>
		<stop  offset="0" style="stop-color:#D6D5D6"/>
		<stop  offset="0" style="stop-color:#D8D6D6"/>
	</linearGradient>
	
		<path style="fill:url(#SVGID_00000005948011702629335870000015969716403765112751_);stroke:url(#SVGID_00000158013931472801747320000002589403118421740936_);stroke-miterlimit:10;" d="
		M823.46,448.17c-0.49-3.09-1.38-6.22-2.72-9.04c-2.47-5.23-6.82-8.05-12.69-8.23c-3.38-0.1-6.76-0.12-10.13-0.08
		c-9.42,0.12-18.84,0.31-28.26,0.45c-2.87,0.04-5.73,0.01-8.6,0.01c-15.24,0-30.48-0.01-45.72,0.01
		c16.07,84.5-0.43,158.47-43.76,183.9c-2.55,3.51-3.33,7.47-1.44,11.72c0.45,1.03,0.7,2.15,1.13,3.18
		c4.57,10.84,9.15,21.67,13.76,32.5c0.78,1.83,1.75,3.65,4.05,3.71c2.07,0.06,2.99-1.65,3.78-3.18c2.26-4.36,4.55-8.71,6.52-13.2
		c3.13-7.12,5.81-14.44,9.04-21.51c9.05-19.83,18.35-39.55,27.43-59.37c7.21-15.73,14.23-31.54,21.34-47.31
		c4.55-10.11,9.78-19.81,16.75-28.53c6.25-7.81,13.69-14.06,22.78-18.29c3.71-1.73,7.43-3.44,11.07-5.32
		c3.82-1.98,7.48-4.21,10.61-7.26C822.39,458.41,824.33,453.69,823.46,448.17z"/>
	
		<linearGradient id="SVGID_00000059305151064298736650000010953121649797946260_" gradientUnits="userSpaceOnUse" x1="696.1595" y1="879.3455" x2="350.3921" y2="600.8105" gradientTransform="matrix(1 0 0 -1 0 1080)">
		<stop  offset="0" style="stop-color:#FABD1A"/>
		<stop  offset="0" style="stop-color:#FABD1A"/>
		<stop  offset="0.2427" style="stop-color:#FAB91B"/>
		<stop  offset="0.4607" style="stop-color:#F9AF1C"/>
		<stop  offset="0.6694" style="stop-color:#F79C1F"/>
		<stop  offset="0.871" style="stop-color:#F48323"/>
		<stop  offset="1" style="stop-color:#F26E26"/>
	</linearGradient>
	<path style="fill:url(#SVGID_00000059305151064298736650000010953121649797946260_);stroke:#D8D6D6;stroke-miterlimit:10;" d="
		M511.24,205.75c2.33-0.87,4.69-1.57,7.08-2.17c0.28-0.81,0.4-1.71,0.31-2.7c-0.15-1.72-0.44-3.44-0.79-5.14
		c-0.79-3.8-1.65-7.59-2.5-11.38c-0.69-3.09-1.17-6.24-2.12-9.25c-1.03-3.25-3.54-4.94-6.97-5.04c-2.45-0.07-4.91-0.01-7.37-0.01
		c-0.01-0.14-0.01-0.29-0.03-0.42c-5.18,0.42-10.4,0.51-15.52,1.33c-10.76,1.72-21.01,5.37-31.02,9.52
		c-10.85,4.49-20.6,10.92-30.15,17.72c-17.07,12.16-31.75,27.47-42.64,45.39c-9.88,16.26-17.12,33.67-22.22,51.98
		c-1.37,4.92-2.75,9.87-3.63,14.89c-1.42,8.05-2.45,16.17-3.61,24.26c-0.51,3.54-1.32,7.1-1.27,10.65
		c0.12,11.46-1.19,22.87-0.48,34.38c0.52,8.57,0.67,17.17,1.64,25.72c0.75,6.6,1.58,13.2,2.47,19.79c0.96,7.1,1.95,14.19,3.08,21.26
		c1.06,6.66,1.93,13.39,3.57,19.92c4.44,17.66,9.67,35.1,15.6,52.32c3.94,11.43,8.19,22.71,13.88,33.41
		c3.79,7.13,7.31,14.42,11.2,21.51c7.86,14.3,17.4,27.49,27.22,40.5c3.15,4.17,6.36,8.3,10.43,11.64c3.1,2.54,5.07,2.64,8.25,0.21
		c1.3-0.98,2.42-2.2,3.56-3.37c1.35-1.4,2.56-2.93,3.94-4.31c21.76-21.69,43.52-43.38,65.31-65.03c1.88-1.87,3.23-3.51,4.07-5.11
		c-19.13-26.03-36.08-57.65-48.93-93.19C432.23,340.58,449.08,228.98,511.24,205.75z"/>
	
		<linearGradient id="SVGID_00000013167202014058306890000002889529680555980219_" gradientUnits="userSpaceOnUse" x1="699.7834" y1="874.847" x2="354.016" y2="596.3121" gradientTransform="matrix(1 0 0 -1 0 1080)">
		<stop  offset="0" style="stop-color:#FABD1A"/>
		<stop  offset="0" style="stop-color:#FABD1A"/>
		<stop  offset="0.2049" style="stop-color:#F9B81B"/>
		<stop  offset="0.446" style="stop-color:#F8AA1D"/>
		<stop  offset="0.7055" style="stop-color:#F69221"/>
		<stop  offset="0.9762" style="stop-color:#F27126"/>
		<stop  offset="1" style="stop-color:#F26E26"/>
	</linearGradient>
	<path style="fill:url(#SVGID_00000013167202014058306890000002889529680555980219_);stroke:#D8D6D6;stroke-miterlimit:10;" d="
		M695.69,362.86c1.79,1.46,3.92,1.65,6.23,0.59c4.07-1.87,6.71-5.03,7.91-9.27c0.69-2.45,0.56-8.65,1.12-11.91
		c-0.93-5.7-1.31-8.49-2.71-14.75c-3.83-17.16-8.15-34.21-11.89-51.39c-5.29-24.27-9.73-48.73-16.09-72.76
		c-1.52-5.73-3.09-11.46-5.02-17.06c-1.85-5.34-5.45-9.35-10.76-11.58c-3.82-1.6-7.84-2.26-11.99-2.2
		c-4.02,0.07-6.81,2.01-8.48,5.54c-0.78,1.65-1.44,3.42-1.85,5.2c-0.98,4.32-3.44,7.5-6.85,10.23c-1.68,1.34-3.27,1.76-5.33,1.64
		c-8.37-0.48-16.28-2.77-24.14-5.5c-15.94-5.54-31.92-10.95-47.91-16.34c-4.17-1.41-8.44-2.52-12.89-2.56
		c-3.05-0.02-5.21,2.17-5.08,5.24c0.07,1.83,0.3,3.68,0.66,5.48c1.18,5.91,2.39,11.81,3.7,17.7c0.25,1.13,0.67,2.12,1.2,3.02
		C599.84,209.43,660.93,272.7,695.69,362.86z"/>
</g>
</svg>
