<?xml version="1.0" standalone="no"?><!DOCTYPE svg PUBLIC "-//W3C//DTD SVG 1.1//EN" "http://www.w3.org/Graphics/SVG/1.1/DTD/svg11.dtd"><svg t="1731896724765" class="icon" viewBox="0 0 1024 1024" version="1.1" xmlns="http://www.w3.org/2000/svg" p-id="7838" xmlns:xlink="http://www.w3.org/1999/xlink" width="200" height="200"><path d="M657.186 356.024c-17.848 0-29.838 18.318-36.754 33.688-12.654 28.122-19.344 69.996-19.344 121.1 0 95.114 21.552 156.572 54.908 156.572 6.566 0 26.55 0 41.084-40.292 9.822-27.23 15.014-67.438 15.014-116.278C712.094 464.272 706.744 356.024 657.186 356.024z" fill="#d81e06" p-id="7839"></path><path d="M512 64C264.576 64 64 264.576 64 512c0 247.422 200.576 448 448 448 247.422 0 448-200.578 448-448C960 264.576 759.422 64 512 64zM405.61 756.132l-107.18 0L298.43 384.686l-68.612 37.816-27.47-89.812 119.984-64.228 83.278 0L405.61 756.132zM779.662 693.136c-28.932 45.488-72.106 69.536-124.854 69.536-52.314 0-95.12-25.222-123.786-72.942-25.838-43.008-39.494-104.054-39.494-176.54 0-76.55 14.266-137.636 42.396-181.562 29.456-45.99 72.9-70.298 125.638-70.298 101.494 0 162.088 92.376 162.088 247.104C821.652 587.184 807.524 649.328 779.662 693.136z" fill="#d81e06" p-id="7840"></path></svg>