<?xml version="1.0" standalone="no"?><!DOCTYPE svg PUBLIC "-//W3C//DTD SVG 1.1//EN" "http://www.w3.org/Graphics/SVG/1.1/DTD/svg11.dtd"><svg t="1731896503619" class="icon" viewBox="0 0 1024 1024" version="1.1" xmlns="http://www.w3.org/2000/svg" p-id="1730" xmlns:xlink="http://www.w3.org/1999/xlink" width="200" height="200"><path d="M513 46.133C249.081 46.133 35.133 260.081 35.133 524c0 263.917 213.948 477.867 477.867 477.867 263.916 0 477.866-213.95 477.866-477.867C990.866 260.081 776.916 46.133 513 46.133zM399.518 784.407 399.518 784.407 285.192 784.407 285.192 388.198l-73.186 40.337-29.301-95.799 127.982-68.51 88.83 0L399.517 784.407zM739.518 784.407 739.518 784.407 625.192 784.407 625.192 388.198l-73.186 40.337-29.301-95.799 127.982-68.51 88.83 0L739.517 784.407z" fill="#d81e06" p-id="1731"></path></svg>