<?xml version="1.0" standalone="no"?><!DOCTYPE svg PUBLIC "-//W3C//DTD SVG 1.1//EN" "http://www.w3.org/Graphics/SVG/1.1/DTD/svg11.dtd"><svg t="1731896537212" class="icon" viewBox="0 0 1024 1024" version="1.1" xmlns="http://www.w3.org/2000/svg" p-id="2740" xmlns:xlink="http://www.w3.org/1999/xlink" width="200" height="200"><path d="M512 46.133C248.081 46.133 34.133 260.081 34.133 524c0 263.917 213.948 477.867 477.867 477.867 263.916 0 477.866-213.95 477.866-477.867C989.866 260.081 775.916 46.133 512 46.133zM398.518 784.407 398.518 784.407 284.192 784.407 284.192 388.198l-73.186 40.337-29.301-95.799 127.982-68.51 88.83 0L398.517 784.407zM831.554 784.407 498.447 784.407l0-73.968 56.16-58.273c102.019-103.3 150.573-163.064 150.573-223.305 0-42.955-20.56-64.736-61.105-64.736-31.156 0-59.955 17.586-78.626 32.338l-22.024 17.4L504.1 321.762l12.237-9.984c37.906-30.934 89.778-48.674 142.32-48.674 51.726 0 94.406 16.876 123.441 48.8 25.346 27.877 39.309 66.744 39.309 109.441 0 99.5-73.547 181.016-148.875 255.986l-4.782 4.8 163.804 0L831.554 784.407z" fill="#d81e06" p-id="2741"></path></svg>