<?xml version="1.0" standalone="no"?><!DOCTYPE svg PUBLIC "-//W3C//DTD SVG 1.1//EN" "http://www.w3.org/Graphics/SVG/1.1/DTD/svg11.dtd"><svg t="1731896596926" class="icon" viewBox="0 0 1024 1024" version="1.1" xmlns="http://www.w3.org/2000/svg" p-id="4194" xmlns:xlink="http://www.w3.org/1999/xlink" width="200" height="200"><path d="M512 64C264.576 64 64 264.576 64 512c0 247.422 200.576 448 448 448 247.422 0 448-200.578 448-448C960 264.576 759.422 64 512 64zM620.256 717.658c-32.132 29.45-77.228 45.014-130.41 45.014-54.27 0-98.822-16.862-120.484-31.298l-12.756-8.504 31.068-92.17 21.712 14.476c13.388 8.926 45.072 22.208 77.488 22.208 33.73 0 69.77-16.142 69.77-61.45 0-31.142-21.452-64.422-81.66-64.422l-50.32 0 0-89.344 49.13 0c28.724 0 69.176-16.298 69.176-52.532 0-27.742-17.812-43.02-50.154-43.02-25.572 0-52.78 12.508-68.308 23.218l-21.586 14.886-30.758-88.038 11.884-8.758c22.908-16.884 69.19-36.6 124.226-36.6 100.06 0 144.848 64.092 144.848 127.61 0 41.306-19.084 77.362-52.648 102.036 37.34 21.14 66.918 60.562 66.918 117.34C667.394 650.968 650.652 689.802 620.256 717.658z" fill="#d81e06" p-id="4195"></path></svg>