<?xml version="1.0" encoding="utf-8"?>
<!-- Generator: $$$/GeneralStr/196=Adobe Illustrator 27.6.0, SVG Export Plug-In . SVG Version: 6.00 Build 0)  -->
<svg version="1.1" id="ChenYu" xmlns="http://www.w3.org/2000/svg" xmlns:xlink="http://www.w3.org/1999/xlink" x="0px" y="0px"
	 viewBox="0 0 200 200" style="enable-background:new 0 0 200 200;" xml:space="preserve">
<style type="text/css">
	.st0{fill:url(#SVGID_1_);stroke:#FF0000;stroke-width:3;stroke-miterlimit:10;}
	.st1{display:none;fill:#F98A8A;}
	.st2{fill:#FFFFFF;}
	.st3{font-family:'AaXFSS';}
	.st4{font-size:100px;}
</style>
<path d="M100,0c55.2,0,100,44.8,100,100s-44.8,100-100,100S0,155.2,0,100S44.8,0,100,0z M100,2C45.9,2,2,45.9,2,100s43.9,98,98,98
	s98-43.9,98-98c0-48.4-35.1-88.6-81.2-96.6C111.2,2.5,105.6,2,100,2z"/>
<path d="M109,2.3l-1,11.8l-6.2-0.3v-2.1h4.6V5.2H94.6l0.6,16c7.3-0.3,12.7-0.2,16.3,0.3c3.6,0.5,8.7,1.9,15.3,4.1l5.2-15.2
	l-11.1-3.1l-1.9,6.7l4.2,0.8l-0.6,2.3l-5.8-1.4l2.2-12.1l-2.2-1.2l-3,14.7l10.2,2.9l2.2-6.8l-4.3-1.3l0.7-2l6.5,2l-3.7,10.3
	c-6.1-1.7-10.8-2.7-14.1-3.1c-3.3-0.4-7.9-0.6-13.9-0.4L97.1,7.2h6.9v2.1h-5l0.4,7.1h10.7l1.3-14.1L109,2.3L109,2.3z M160.6,22.8
	l-7.5,9.2l-5-3.7l1.2-1.7l3.8,2.6l3.7-5.5l-9.8-6.6l-8.4,13.6c6.2,3.8,10.6,6.9,13.3,9.3c2.7,2.4,6.1,6.4,10.4,12l12.9-9.7l-7.5-8.8
	l-5.3,4.5l3,3l-1.8,1.5l-4-4.4l8.6-8.8l-1.2-2.2l-10.7,10.5l6.9,8.2l5.6-4.4l-2.9-3.5l1.7-1.3L172,42l-8.8,6.5
	c-4.1-4.8-7.4-8.3-9.9-10.5c-2.5-2.2-6.3-4.9-11.3-8.1l5.9-9.6l5.7,3.8l-1.2,1.7l-4.1-2.8l-3.6,6.1l8.8,6l9-10.9L160.6,22.8
	L160.6,22.8z M195.8,122.8l-11.6-2.7l1.1-6.1l2.1,0.3l-0.6,4.6l6.6,0.9l1.6-11.7l-15.9-1.6c-0.7,7.2-1.5,12.6-2.5,16.1
	c-1,3.5-3.1,8.3-6.2,14.6l14.4,7.3l4.6-10.5l-6.3-2.8l-1.4,4l-2.2-1l2.2-5.5l11.7,3.9l1.5-2l-14.1-5l-4.3,9.7l6.4,3.1l1.9-4.1l1.9,1
	l-2.9,6.2l-9.7-5.1c2.5-5.8,4.2-10.3,5.1-13.5c0.9-3.2,1.7-7.8,2.4-13.7l11.2,1.1l-1,6.8l-2.1-0.3l0.7-4.9l-7.1-0.5l-1.5,10.6
	l13.7,3.3L195.8,122.8L195.8,122.8z M168.1,170.6l-8.3-8.5l4.3-4.5l1.6,1.4l-3,3.5l5,4.4l7.8-8.9l-12.5-10
	c-4.5,5.7-8.2,9.7-10.9,12.1c-2.7,2.4-7.1,5.3-13.2,8.8l8.1,14l9.6-6.3l-3.8-5.8l-3.4,2.6l-1.3-2l4.9-3.4l7.7,9.6l2.3-0.9l-9.1-11.9
	l-8.9,5.8l3.7,6.1l3.8-2.4l1,1.8l-5.8,3.6l-5.4-9.5c5.2-3.5,9.1-6.3,11.6-8.6c2.5-2.2,5.6-5.6,9.4-10.2l8.8,7.1l-4.5,5.2l-1.6-1.4
	l3.3-3.7l-5.6-4.3l-7,8l9.7,10.2L168.1,170.6L168.1,170.6z M20.3,157.2l9.6-7l3.8,4.8l-1.6,1.4l-3-3.5l-5,4.4l7.8,8.9l11.6-10.9
	c-5-5.3-8.5-9.4-10.4-12.4c-2-3-4.3-7.8-6.9-14.3l-14.9,6l4.9,10.4l6.2-3l-2.1-3.7l2.1-1l2.7,5.3l-10.6,6.3l0.6,2.4l13-7.4l-4.5-9.6
	l-6.6,2.8l1.9,4.2l-2,0.8l-2.8-6.2l10.2-4c2.7,5.7,5,9.9,6.9,12.7c1.9,2.8,4.8,6.4,8.8,10.8l-8.2,7.8l-4.5-5.2l1.6-1.4l3.3,3.7
	l5.1-5l-7-8.1l-11.5,8.2C18.7,155.3,20.3,157.2,20.3,157.2z M108.9,198l-0.9-12.3l-6.3,0.5v1.8h4.6v6.9H94.6l0.6-15.8
	c7.4,0.1,12.9-0.2,16.4-0.7c3.6-0.5,8.7-1.8,15.2-3.9l5.4,14.9l-11.4,3.5l-1.7-6.7l4.4-1l-0.7-2.1l-6,1.3l2.3,12.4l-2.3,0.7
	l-2.8-14.8l10.2-2.6l2.1,6.6l-4.3,1.3l0.5,2l6.6-2l-3.7-10.4c-6,1.8-10.5,2.9-13.6,3.4c-3.1,0.4-7.8,0.6-14,0.5l-0.4,11.2h6.5v-2.1
	h-4.5v-7l10.7-0.4l1.4,14.9H108.9L108.9,198z M54.4,187.3l5.8-10.7l-5.1-3.1l-1.4,2l3.7,1.9l-3.1,5.9l-10.2-6.6l9.6-12.4
	c5.5,4,9.9,6.7,13.1,8.2c3.2,1.5,8.4,3.1,15.5,5l-3.7,15.3l-11-3.3l2.2-6.5l3.6,1.5l0.9-2.2l-5.8-2l-5.3,12l-1.9-0.9l6.2-14.6l9.3,4
	l-1.9,6.2l-4-1.1l-0.7,2.1l6.6,2l2.5-10.8c-5.9-1.7-10.4-3.2-13.3-4.6c-2.9-1.3-7-3.7-12.4-7.2l-6.4,9.2l5.6,3.5l1.5-1.7l-4-2.3
	l4-5.9l8.9,5.3l-7,13.1L54.4,187.3L54.4,187.3z M1,94.8L14,95.4l0.5-6h-2.1v3.8H5.2l1.6-12.3l15.6,3.3c-1,7-1.5,12.3-1.5,15.8
	c0,3.5,0.5,8.6,1.5,15.5l-15.5,3.6l-1.6-11.8h6.5l0.8,3.5h2.6l-0.5-6.2L1,104.7v-2.3l15.1-0.5l1.2,10.5l-6.6,0.9l-0.7-4.2H7.7l1,7.2
	l10.9-2.1c-0.9-6.3-1.3-11-1.3-14.3c0-3.2,0.4-7.9,1.3-14.1L8.7,83.6l-1,6.9h2.2l0.7-4.3l6.6,1.4l-0.7,9.8L1,96.9L1,94.8L1,94.8z
	 M193.2,67.3l-11.6,4.1l-2.4-5.6l2-0.8l1.5,3.9l6.6-2.4l-4.8-10.9l-14.2,7.3c3.1,6.4,5.1,11.4,6.2,15c1,3.5,2,8.7,2.8,15.5l15.7-1.3
	l-1.7-11.8l-6.5,1.2l0.5,4.4l-2.1,0.4l-1.1-6l12.6-3.3l-0.8-2l-14.6,3.4l2.2,10.4l6.5-1.1l-0.7-4.3l2.1-0.4l1,6.8l-11.1,1
	c-0.9-6.4-1.8-11.2-2.7-14.3c-0.9-3.2-2.5-7.3-4.9-12.4L183,59l2.9,5.9l-1.9,0.8l-2-4.1l-6.2,2.8l3.9,9.9l14.1-4.9L193.2,67.3
	L193.2,67.3z M14.2,50.7l11,6.5l-2.9,5.4l-1.7-0.8l1.7-3.7l-5.6-3.4l-5.1,10.5l14.5,6.3c3-6.9,5.5-11.9,7.5-15c2-3.1,5.3-7,9.8-11.7
	L31.8,33.5l-7.7,9.2l5.1,4.2l2.9-3.3l1.8,1.2l-3.9,4.9l-10.8-7.8L18.1,44l12.6,9l6.5-8.3l-5.1-4.4l-2.8,3.2l-1.8-1.7l4.3-4.6
	l7.8,7.5c-4,4.8-6.8,8.4-8.4,11.1c-1.6,2.6-3.6,6.6-6,12l-10.4-3.7l2.7-6l1.8,0.9l-1.8,3.9l6.1,2.8l5-9.3l-13.3-7.7L14.2,50.7
	L14.2,50.7z M54.3,12l6,11.4l-5.2,3.1l-0.8-1.7l3.4-2.3l-3.4-5.9l-10,6.3L53.6,36c5.8-4.1,10.4-6.9,13.8-8.4c3.4-1.5,8.4-3.1,15-4.7
	L78.4,7l-11,3.5l2.1,6.3l4-1.2l0.8,2.1l-5.5,2.1L63.4,8l-2.2,1.1l6.3,13.8l9.8-3.6l-2-6.3l-4.4,1.1l-0.4-2l6.8-1.5l1.9,10.2
	c-5.6,1.7-9.8,3.2-12.7,4.5c-2.9,1.3-6.9,3.7-12.2,7.1l-6.7-8.9l5.5-3.6l1.2,1.7l-4,2.6l4,5.5l9.1-4.9l-7.2-14.2L54.3,12L54.3,12z"
	/>
<linearGradient id="SVGID_1_" gradientUnits="userSpaceOnUse" x1="28" y1="100" x2="172" y2="100">
	<stop  offset="0" style="stop-color:#FFFFFF"/>
	<stop  offset="1" style="stop-color:#000000"/>
</linearGradient>
<path class="st0" d="M100,28c39.8,0,72,32.2,72,72s-32.2,72-72,72s-72-32.2-72-72C28,60.2,60.2,28,100,28z"/>
<rect x="52.7" y="46.7" class="st1" width="90.3" height="106.3"/>
<text transform="matrix(1 0 0 1 68.4006 133.7062)" class="st2 st3 st4">5</text>
</svg>
