<?xml version="1.0" standalone="no"?><!DOCTYPE svg PUBLIC "-//W3C//DTD SVG 1.1//EN" "http://www.w3.org/Graphics/SVG/1.1/DTD/svg11.dtd"><svg t="1731896628558" class="icon" viewBox="0 0 1024 1024" version="1.1" xmlns="http://www.w3.org/2000/svg" p-id="5361" xmlns:xlink="http://www.w3.org/1999/xlink" width="200" height="200"><path d="M512 64C264.576 64 64 264.576 64 512c0 247.422 200.576 448 448 448 247.422 0 448-200.578 448-448C960 264.576 759.422 64 512 64zM616.476 709.158c-33.512 32.208-80.45 49.946-132.166 49.946-42.932 0-88.182-11.004-115.278-28.036l-12.832-8.066 26.884-90.996 21.906 12.412c17.056 9.664 46.226 19.99 76.94 19.99 52.022 0 75.718-37.708 75.718-72.746 0-23.09-7.5-40.972-22.29-53.148-16.516-13.596-43.006-20.782-76.614-20.782-20.906 0-36.616 1.022-50.94 3.314l-26.424 4.23 33.622-260.38 243.286 0 0 97.07-159.552 0-9.042 64.736c2.052-0.062 4.214-0.1 6.502-0.1 46.3 0 88.642 14.178 119.224 39.924 34.266 28.846 52.378 70.06 52.378 119.194C667.8 633.51 649.574 677.348 616.476 709.158z" fill="#d81e06" p-id="5362"></path></svg>