<?xml version="1.0" standalone="no"?><!DOCTYPE svg PUBLIC "-//W3C//DTD SVG 1.1//EN" "http://www.w3.org/Graphics/SVG/1.1/DTD/svg11.dtd"><svg t="1731896685201" class="icon" viewBox="0 0 1024 1024" version="1.1" xmlns="http://www.w3.org/2000/svg" p-id="6683" xmlns:xlink="http://www.w3.org/1999/xlink" width="200" height="200"><path d="M511.999 3.686c-280.733 0-508.313 227.58-508.313 508.314 0 280.732 227.58 508.314 508.313 508.314s508.315-227.582 508.315-508.314c0-280.734-227.582-508.314-508.315-508.314v0zM652.745 734.003c-33.565 40.036-81.634 62.078-135.353 62.078-59.399 0-109.22-23.773-144.076-68.743-32.678-42.163-49.952-100.415-49.952-168.454 0-98.174 31.196-185.166 87.839-244.956 52.007-54.674 132.25-86.009 220.19-86.009h22.446l1.171 107.445h-22.941c-58.438 0-104.599 17.35-137.199 51.562-11.593 12.169-20.446 25.403-27.198 38.467 21.12-9.63 44.532-14.67 69.287-14.67 46.657 0 88.549 17.999 117.965 50.683 29.903 33.227 45.709 79.294 45.709 133.226-0.003 53.046-17.009 102.545-47.89 139.37v0z" fill="#d81e06" p-id="6684"></path><path d="M512.676 512.097c-32.805 0-66.227 33.022-66.349 65.49 0.983 55.361 20.163 114.425 71.069 114.425 27.493 0 59.604-24.266 59.604-92.653 0.001-42.187-16.899-87.261-64.324-87.261v0z" fill="#d81e06" p-id="6685"></path></svg>