<?xml version="1.0" standalone="no"?><!DOCTYPE svg PUBLIC "-//W3C//DTD SVG 1.1//EN" "http://www.w3.org/Graphics/SVG/1.1/DTD/svg11.dtd"><svg t="1731896609015" class="icon" viewBox="0 0 1024 1024" version="1.1" xmlns="http://www.w3.org/2000/svg" p-id="4352" xmlns:xlink="http://www.w3.org/1999/xlink" width="200" height="200"><path d="M504.858 546.35c-29.86 12.494-47.468 37.47-47.468 67.908 0 41.214 27.28 59.664 54.314 59.664 25.33 0 54.908-14.38 54.908-54.91C566.612 597.326 560.044 566.598 504.858 546.35z" fill="#d81e06" p-id="4353"></path><path d="M519.072 454.156c19.238-10.116 36.838-30.11 36.838-55.708 0-42.604-26.58-48.964-42.424-48.964-42.642 0-44.802 38.806-44.802 46.586C468.684 429.438 495.594 445.236 519.072 454.156z" fill="#d81e06" p-id="4354"></path><path d="M512 64C264.576 64 64 264.576 64 512c0 247.422 200.576 448 448 448 247.422 0 448-200.578 448-448C960 264.576 759.422 64 512 64zM627.89 721.814c-30.038 26.348-71.934 40.858-117.97 40.858-48.14 0-89.262-14.418-118.918-41.694-27.84-25.608-43.172-60.552-43.172-98.4 0-50.03 23.458-93.366 65.388-122.606-31.722-25.66-49.932-61.288-49.932-99.742 0-80.486 64.168-138.902 152.578-138.902 56.652 0 90.566 22.262 109.042 40.938 23.47 23.726 36.398 55.562 36.398 89.644 0 40.54-18.348 76.75-51.302 102.96 42.442 28.08 66.166 69.614 66.166 117.602C676.17 655.674 659.024 694.506 627.89 721.814z" fill="#d81e06" p-id="4355"></path></svg>