<?xml version="1.0" standalone="no"?><!DOCTYPE svg PUBLIC "-//W3C//DTD SVG 1.1//EN" "http://www.w3.org/Graphics/SVG/1.1/DTD/svg11.dtd"><svg t="1731896695291" class="icon" viewBox="0 0 1024 1024" version="1.1" xmlns="http://www.w3.org/2000/svg" p-id="6842" xmlns:xlink="http://www.w3.org/1999/xlink" width="200" height="200"><path d="M509.622 352.056c-30.93 0-52.532 34.07-52.532 82.852 0 33.008 13.758 71.554 52.532 71.554 26.17 0 44.816-16.224 53.66-31.578 0.79-1.668 2.438-5.942 2.438-16.792C565.718 433.216 561.676 352.056 509.622 352.056z" fill="#d81e06" p-id="6843"></path><path d="M512 64C264.576 64 64 264.576 64 512c0 247.422 200.576 448 448 448 247.422 0 448-200.578 448-448C960 264.576 759.422 64 512 64zM620.18 664.376c-39.036 54.448-96.066 87.204-164.968 94.752-17.38 2.768-32.544 3.352-42.242 3.352-3.514 0-6.92-0.078-10.122-0.23l-19.05-0.904 0-96.26 21.808 1.98c2.844 0.258 5.692 0.382 8.702 0.382l0.002 0c8.496 0 17.772-0.982 30.922-2.68 30.68-4.14 79.866-20.74 106.554-81.956-18.2 8.136-38.488 12.4-60 12.4-40.82 0-77.692-15.808-103.818-44.514-25.692-28.224-39.84-67.87-39.84-111.63 0-46.582 15.704-90.3 44.216-123.106 30.516-35.108 73.432-54.442 120.844-54.442 98.828 0 162.682 81.592 162.682 207.868C675.872 546.132 656.614 613.558 620.18 664.376z" fill="#d81e06" p-id="6844"></path></svg>