<?xml version="1.0" encoding="UTF-8"?><!DOCTYPE svg PUBLIC "-//W3C//DTD SVG 1.1//EN" "http://www.w3.org/Graphics/SVG/1.1/DTD/svg11.dtd"><svg xmlns="http://www.w3.org/2000/svg" xmlns:xlink="http://www.w3.org/1999/xlink" height="436" viewBox="0 0 47 436" width="47"><svg height="45.3" viewBox="0 0 35 46" width="35" x="4" y="4"><path fill="#1773CE" d="M13.2 29.5l-4.7 4.7c-.9.9-2.3.9-3.2 0L.6 29.5c-.9-.9-.9-2.3 0-3.2l4.7-4.7c.9-.9 2.3-.9 3.2 0l4.7 4.7c.9.9.9 2.3 0 3.2z"/><path fill="#FFF" d="M23.7 19L19 23.7c-.9.9-2.3.9-3.2 0L11.2 19c-.9-.9-.9-2.3 0-3.2l4.7-4.7c.9-.9 2.3-.9 3.2 0l4.7 4.7c.8.9.8 2.4-.1 3.2zM13.2 8.5l-4.7 4.7c-.9.9-2.3.9-3.2 0L.7 8.5c-.9-.9-.9-2.3 0-3.2L5.4.6c.9-.9 2.3-.9 3.2 0l4.7 4.7c.8.9.8 2.3-.1 3.2zm21.1.2l-4.7 4.7c-.9.9-2.3.9-3.2 0l-4.7-4.7c-.9-.9-.9-2.3 0-3.2L26.4.8c.9-.9 2.3-.9 3.2 0l4.7 4.7c.9.9.9 2.3 0 3.2z"/><path fill="#1773CE" d="M23.7 40L19 44.7c-.9.9-2.3.9-3.2 0L11.2 40c-.9-.9-.9-2.3 0-3.2l4.7-4.7c.9-.9 2.3-.9 3.2 0l4.7 4.7c.8.9.8 2.3-.1 3.2zm10.5-10.5l-4.7 4.7c-.9.9-2.3.9-3.2 0l-4.7-4.7c-.9-.9-.9-2.3 0-3.2l4.7-4.7c.9-.9 2.3-.9 3.2 0l4.7 4.7c.9.9.9 2.3 0 3.2z"/></svg><svg height="45.3" viewBox="0 0 35 46" width="35" x="4" y="54"><path fill="#C93590" d="M13.2 29.5l-4.7 4.7c-.9.9-2.3.9-3.2 0L.6 29.5c-.9-.9-.9-2.3 0-3.2l4.7-4.7c.9-.9 2.3-.9 3.2 0l4.7 4.7c.9.9.9 2.3 0 3.2z"/><path fill="#FFF" d="M23.7 19L19 23.7c-.9.9-2.3.9-3.2 0L11.2 19c-.9-.9-.9-2.3 0-3.2l4.7-4.7c.9-.9 2.3-.9 3.2 0l4.7 4.7c.8.9.8 2.4-.1 3.2zM13.2 8.5l-4.7 4.7c-.9.9-2.3.9-3.2 0L.7 8.5c-.9-.9-.9-2.3 0-3.2L5.4.6c.9-.9 2.3-.9 3.2 0l4.7 4.7c.8.9.8 2.3-.1 3.2zm21.1.2l-4.7 4.7c-.9.9-2.3.9-3.2 0l-4.7-4.7c-.9-.9-.9-2.3 0-3.2L26.4.8c.9-.9 2.3-.9 3.2 0l4.7 4.7c.9.9.9 2.3 0 3.2z"/><path fill="#C93590" d="M23.7 40L19 44.7c-.9.9-2.3.9-3.2 0L11.2 40c-.9-.9-.9-2.3 0-3.2l4.7-4.7c.9-.9 2.3-.9 3.2 0l4.7 4.7c.8.9.8 2.3-.1 3.2zm10.5-10.5l-4.7 4.7c-.9.9-2.3.9-3.2 0l-4.7-4.7c-.9-.9-.9-2.3 0-3.2l4.7-4.7c.9-.9 2.3-.9 3.2 0l4.7 4.7c.9.9.9 2.3 0 3.2z"/></svg><svg height="45.3" viewBox="0 0 35 46" width="35" x="4" y="104"><path fill="#3E45CE" d="M13.2 29.5l-4.7 4.7c-.9.9-2.3.9-3.2 0L.6 29.5c-.9-.9-.9-2.3 0-3.2l4.7-4.7c.9-.9 2.3-.9 3.2 0l4.7 4.7c.9.9.9 2.3 0 3.2z"/><path fill="#FFF" d="M23.7 19L19 23.7c-.9.9-2.3.9-3.2 0L11.1 19c-.9-.9-.9-2.3 0-3.2l4.7-4.7c.9-.9 2.3-.9 3.2 0l4.7 4.7c.9.9.9 2.3 0 3.2zM13.2 8.5l-4.7 4.7c-.9.9-2.3.9-3.2 0L.7 8.5c-.9-.9-.9-2.3 0-3.2L5.4.6c.9-.9 2.3-.9 3.2 0l4.7 4.7c.8.9.8 2.3-.1 3.2zm21.1.2l-4.7 4.7c-.9.9-2.3.9-3.2 0l-4.7-4.7c-.9-.9-.9-2.3 0-3.2L26.4.8c.9-.9 2.3-.9 3.2 0l4.7 4.7c.9.9.9 2.3 0 3.2z"/><path fill="#3E45CE" d="M23.7 40L19 44.7c-.9.9-2.3.9-3.2 0L11.1 40c-.9-.9-.9-2.3 0-3.2l4.7-4.7c.9-.9 2.3-.9 3.2 0l4.7 4.7c.9.9.9 2.3 0 3.2zm10.5-10.5l-4.7 4.7c-.9.9-2.3.9-3.2 0l-4.7-4.7c-.9-.9-.9-2.3 0-3.2l4.7-4.7c.9-.9 2.3-.9 3.2 0l4.7 4.7c.9.9.9 2.3 0 3.2z"/></svg><svg height="34.4" viewBox="0 0 39 35" width="39" x="4" y="154"><path fill="#E5E5E5" d="M6.9 10.5v4.1c0 .8-.6 1.4-1.4 1.4H1.4C.6 16 0 15.4 0 14.6v-4.1c0-.8.6-1.4 1.4-1.4h4.1c.7 0 1.4.7 1.4 1.4zm0-9.1v4.1c0 .8-.6 1.4-1.4 1.4H1.4C.6 6.9 0 6.3 0 5.5V1.4C0 .6.6 0 1.4 0h4.1c.7 0 1.4.6 1.4 1.4zm9.1 9.1v4.1c0 .8-.6 1.4-1.4 1.4h-4.1c-.8 0-1.4-.6-1.4-1.4v-4.1c0-.8.6-1.4 1.4-1.4h4.1c.8 0 1.4.7 1.4 1.4zm0-9.1v4.1c0 .8-.6 1.4-1.4 1.4h-4.1c-.8 0-1.4-.6-1.4-1.4V1.4c0-.8.7-1.4 1.4-1.4h4.1c.8 0 1.4.6 1.4 1.4zM6.9 28.9V33c0 .8-.6 1.4-1.4 1.4H1.4C.6 34.4 0 33.7 0 33v-4.1c0-.8.6-1.4 1.4-1.4h4.1c.7 0 1.4.6 1.4 1.4zm9.1-9.2v4.1c0 .8-.6 1.4-1.4 1.4h-4.1c-.8 0-1.4-.6-1.4-1.4v-4.1c0-.8.6-1.4 1.4-1.4h4.1c.8 0 1.4.6 1.4 1.4zm13.9-9.2v4.1c0 .8-.6 1.4-1.4 1.4h-4.1c-.8 0-1.4-.6-1.4-1.4v-4.1c0-.8.6-1.4 1.4-1.4h4.1c.7 0 1.4.7 1.4 1.4zm0-9.1v4.1c0 .8-.6 1.4-1.4 1.4h-4.1c-.8 0-1.4-.6-1.4-1.4V1.4c0-.8.6-1.4 1.4-1.4h4.1c.7 0 1.4.6 1.4 1.4zm9.1 9.1v4.1c0 .8-.6 1.4-1.4 1.4h-4.1c-.8 0-1.4-.6-1.4-1.4v-4.1c0-.8.6-1.4 1.4-1.4h4.1c.8 0 1.4.7 1.4 1.4zm0-9.1v4.1c0 .8-.6 1.4-1.4 1.4h-4.1c-.8 0-1.4-.6-1.4-1.4V1.4c0-.8.6-1.4 1.4-1.4h4.1c.8 0 1.4.6 1.4 1.4zm-9.1 27.5V33c0 .8-.6 1.4-1.4 1.4h-4.1c-.8 0-1.4-.6-1.4-1.4v-4.1c0-.8.6-1.4 1.4-1.4h4.1c.7 0 1.4.6 1.4 1.4zm9.1-9.2v4.1c0 .8-.6 1.4-1.4 1.4h-4.1c-.8 0-1.4-.6-1.4-1.4v-4.1c0-.8.6-1.4 1.4-1.4h4.1c.8 0 1.4.6 1.4 1.4z"/></svg><svg height="26.7" viewBox="0 0 27 27" width="26.7" x="4" y="193"><title>Close 1.6</title><path fill="#FFF" d="M13.7 11.3L24.6.4c.2-.2.6-.2.8 0l.8.8c.2.2.2.6 0 .9L15.4 12.9c-.2.2-.2.6 0 .9l10.8 10.8c.2.2.2.6 0 .8l-.9.9c-.2.2-.6.2-.8 0L13.7 15.4c-.2-.2-.6-.2-.9 0L2.1 26.3c-.2.2-.6.2-.9 0l-.8-.8c-.2-.2-.2-.6 0-.8l10.8-10.8c.2-.2.2-.6 0-.9L.4 2.1c-.2-.2-.2-.6 0-.9l.8-.8c.2-.2.6-.2.9 0l10.8 10.8c.2.3.6.3.8.1z"/><path fill="#FFF" d="M13.7 11.3L24.6.4c.2-.2.6-.2.8 0l.8.8c.2.2.2.6 0 .9L15.4 12.9c-.2.2-.2.6 0 .9l10.8 10.8c.2.2.2.6 0 .8l-.9.9c-.2.2-.6.2-.8 0L13.7 15.4c-.2-.2-.6-.2-.9 0L2.1 26.3c-.2.2-.6.2-.9 0l-.8-.8c-.2-.2-.2-.6 0-.8l10.8-10.8c.2-.2.2-.6 0-.9L.4 2.1c-.2-.2-.2-.6 0-.9l.8-.8c.2-.2.6-.2.9 0l10.8 10.8c.2.3.6.3.8.1z"/></svg><svg height="12" viewBox="0 0 12 12" width="12" x="4" y="224"><path fill="#FFF" d="M6.6 7.5l1.6 1.6c.3.3.3.8 0 1.1l-1.6 1.6c-.3.3-.8.3-1.1 0l-1.6-1.6c-.3-.3-.3-.8 0-1.1l1.6-1.6c.4-.4.8-.4 1.1 0m0-7.2l1.6 1.6c.3.3.3.8 0 1.1L6.6 4.6c-.3.3-.8.3-1.1 0L3.9 3c-.3-.3-.3-.8 0-1.1L5.5.3c.4-.4.8-.4 1.1 0"/><path fill="#FFF" d="M6.6 7.5l1.6 1.6c.3.3.3.8 0 1.1l-1.6 1.6c-.3.3-.8.3-1.1 0l-1.6-1.6c-.3-.3-.3-.8 0-1.1l1.6-1.6c.4-.4.8-.4 1.1 0m0-7.2l1.6 1.6c.3.3.3.8 0 1.1L6.6 4.6c-.3.3-.8.3-1.1 0L3.9 3c-.3-.3-.3-.8 0-1.1L5.5.3c.4-.4.8-.4 1.1 0M4.5 6.6L2.9 8.2c-.3.3-.8.3-1.1 0L.2 6.6c-.3-.3-.3-.8 0-1.1l1.6-1.6c.3-.3.8-.3 1.1 0l1.6 1.6c.4.4.4.8 0 1.1m7.2 0l-1.6 1.6c-.3.3-.8.3-1.1 0L7.4 6.6c-.3-.3-.3-.8 0-1.1L9 3.9c.3-.3.8-.3 1.1 0l1.6 1.6c.4.4.4.8 0 1.1"/><path fill="#FFF" d="M4.5 6.6L2.9 8.2c-.3.3-.8.3-1.1 0L.2 6.6c-.3-.3-.3-.8 0-1.1l1.6-1.6c.3-.3.8-.3 1.1 0l1.6 1.6c.4.4.4.8 0 1.1m7.2 0l-1.6 1.6c-.3.3-.8.3-1.1 0L7.4 6.6c-.3-.3-.3-.8 0-1.1L9 3.9c.3-.3.8-.3 1.1 0l1.6 1.6c.4.4.4.8 0 1.1"/></svg><svg height="12" viewBox="0 0 9 12" width="8.4" x="4" y="240"><path d="M5.4 4.5L3.8 2.9c-.3-.3-.3-.8 0-1.1L5.4.2c.3-.3.8-.3 1.1 0l1.6 1.6c.3.3.3.8 0 1.1L6.5 4.5c-.4.4-.8.4-1.1 0M1.8 8.2L.2 6.6c-.3-.3-.3-.8 0-1.1l1.6-1.7c.3-.3.8-.3 1.1 0l1.6 1.7c.3.3.3.8 0 1.1L2.9 8.2c-.3.2-.8.2-1.1 0m3.6 3.5l-1.6-1.6c-.3-.3-.3-.8 0-1.1l1.6-1.6c.3-.3.8-.3 1.1 0L8.1 9c.3.3.3.8 0 1.1l-1.6 1.6c-.4.4-.8.4-1.1 0"/></svg><svg height="12" viewBox="0 0 9 12" width="8.4" x="4" y="256"><path d="M2.9 7.5l1.6 1.6c.3.3.3.8 0 1.1l-1.6 1.6c-.3.3-.8.3-1.1 0L.2 10.2c-.3-.3-.3-.8 0-1.1l1.6-1.6c.4-.4.8-.4 1.1 0m3.6-3.7l1.6 1.6c.3.3.3.8 0 1.1L6.5 8.2c-.3.3-.8.3-1.1 0L3.8 6.5c-.3-.3-.3-.8 0-1.1l1.6-1.6c.3-.2.8-.2 1.1 0M2.9.3l1.6 1.6c.3.3.3.8 0 1.1L2.9 4.6c-.3.3-.8.3-1.1 0L.2 3c-.3-.3-.3-.8 0-1.1L1.8.3c.4-.4.8-.4 1.1 0"/></svg><svg height="12" viewBox="0 0 9 12" width="8.4" x="4" y="272"><path fill="#FFF" d="M5.4 4.5L3.8 2.9c-.3-.3-.3-.8 0-1.1L5.4.2c.3-.3.8-.3 1.1 0l1.6 1.6c.3.3.3.8 0 1.1L6.5 4.5c-.4.4-.8.4-1.1 0M1.8 8.2L.2 6.6c-.3-.3-.3-.8 0-1.1l1.6-1.7c.3-.3.8-.3 1.1 0l1.6 1.7c.3.3.3.8 0 1.1L2.9 8.2c-.3.2-.8.2-1.1 0m3.6 3.5l-1.6-1.6c-.3-.3-.3-.8 0-1.1l1.6-1.6c.3-.3.8-.3 1.1 0L8.1 9c.3.3.3.8 0 1.1l-1.6 1.6c-.4.4-.8.4-1.1 0"/></svg><svg height="12" viewBox="0 0 9 12" width="8.4" x="4" y="288"><path fill="#9E005D" d="M2.9 7.5l1.6 1.6c.3.3.3.8 0 1.1l-1.6 1.6c-.3.3-.8.3-1.1 0L.2 10.2c-.3-.3-.3-.8 0-1.1l1.6-1.6c.4-.4.8-.4 1.1 0m3.6-3.7l1.6 1.6c.3.3.3.8 0 1.1L6.5 8.2c-.3.3-.8.3-1.1 0L3.8 6.5c-.3-.3-.3-.8 0-1.1l1.6-1.6c.3-.2.8-.2 1.1 0M2.9.3l1.6 1.6c.3.3.3.8 0 1.1L2.9 4.6c-.3.3-.8.3-1.1 0L.2 3c-.3-.3-.3-.8 0-1.1L1.8.3c.4-.4.8-.4 1.1 0"/></svg><svg height="12" viewBox="0 0 9 12" width="8.4" x="4" y="304"><path fill="#FFF" d="M2.9 7.5l1.6 1.6c.3.3.3.8 0 1.1l-1.6 1.6c-.3.3-.8.3-1.1 0L.2 10.2c-.3-.3-.3-.8 0-1.1l1.6-1.6c.4-.4.8-.4 1.1 0m3.6-3.7l1.6 1.6c.3.3.3.8 0 1.1L6.5 8.2c-.3.3-.8.3-1.1 0L3.8 6.5c-.3-.3-.3-.8 0-1.1l1.6-1.6c.3-.2.8-.2 1.1 0M2.9.3l1.6 1.6c.3.3.3.8 0 1.1L2.9 4.6c-.3.3-.8.3-1.1 0L.2 3c-.3-.3-.3-.8 0-1.1L1.8.3c.4-.4.8-.4 1.1 0"/></svg><svg height="12" viewBox="0 0 9 12" width="8.4" x="4" y="320"><path fill="#9E005D" d="M5.4 4.5L3.8 2.9c-.3-.3-.3-.8 0-1.1L5.4.2c.3-.3.8-.3 1.1 0l1.6 1.6c.3.3.3.8 0 1.1L6.5 4.5c-.4.4-.8.4-1.1 0M1.8 8.2L.2 6.6c-.3-.3-.3-.8 0-1.1l1.6-1.7c.3-.3.8-.3 1.1 0l1.6 1.7c.3.3.3.8 0 1.1L2.9 8.2c-.3.2-.8.2-1.1 0m3.6 3.5l-1.6-1.6c-.3-.3-.3-.8 0-1.1l1.6-1.6c.3-.3.8-.3 1.1 0L8.1 9c.3.3.3.8 0 1.1l-1.6 1.6c-.4.4-.8.4-1.1 0"/></svg><svg height="12" viewBox="0 0 9 12" width="8.4" x="4" y="336"><path d="M5.4 4.5L3.8 2.9c-.3-.3-.3-.8 0-1.1L5.4.2c.3-.3.8-.3 1.1 0l1.6 1.6c.3.3.3.8 0 1.1L6.5 4.5c-.4.4-.8.4-1.1 0M1.8 8.2L.2 6.6c-.3-.3-.3-.8 0-1.1l1.6-1.7c.3-.3.8-.3 1.1 0l1.6 1.7c.3.3.3.8 0 1.1L2.9 8.2c-.3.2-.8.2-1.1 0m3.6 3.5l-1.6-1.6c-.3-.3-.3-.8 0-1.1l1.6-1.6c.3-.3.8-.3 1.1 0L8.1 9c.3.3.3.8 0 1.1l-1.6 1.6c-.4.4-.8.4-1.1 0"/></svg><svg height="12" viewBox="0 0 9 12" width="8.4" x="4" y="352"><style>.st0{fill:#9e005d}</style><path class="st0" d="M2.9 7.5l1.6 1.6c.3.3.3.8 0 1.1l-1.6 1.6c-.3.3-.8.3-1.1 0L.2 10.2c-.3-.3-.3-.8 0-1.1l1.6-1.6c.4-.4.8-.4 1.1 0m3.6-3.7l1.6 1.6c.3.3.3.8 0 1.1L6.5 8.2c-.3.3-.8.3-1.1 0L3.8 6.5c-.3-.3-.3-.8 0-1.1l1.6-1.6c.3-.2.8-.2 1.1 0M2.9.3l1.6 1.6c.3.3.3.8 0 1.1L2.9 4.6c-.3.3-.8.3-1.1 0L.2 3c-.3-.3-.3-.8 0-1.1L1.8.3c.4-.4.8-.4 1.1 0"/></svg><svg height="12" viewBox="0 0 9 12" width="8.4" x="4" y="368"><path d="M2.9 7.5l1.6 1.6c.3.3.3.8 0 1.1l-1.6 1.6c-.3.3-.8.3-1.1 0L.2 10.2c-.3-.3-.3-.8 0-1.1l1.6-1.6c.4-.4.8-.4 1.1 0m3.6-3.7l1.6 1.6c.3.3.3.8 0 1.1L6.5 8.2c-.3.3-.8.3-1.1 0L3.8 6.5c-.3-.3-.3-.8 0-1.1l1.6-1.6c.3-.2.8-.2 1.1 0M2.9.3l1.6 1.6c.3.3.3.8 0 1.1L2.9 4.6c-.3.3-.8.3-1.1 0L.2 3c-.3-.3-.3-.8 0-1.1L1.8.3c.4-.4.8-.4 1.1 0"/></svg><svg height="8.4" viewBox="0 0 12 9" width="12" x="4" y="384"><path fill="#9E005D" d="M4.5 2.9L2.9 4.5c-.3.3-.8.3-1.1 0L.2 2.9c-.3-.3-.3-.8 0-1.1L1.8.2c.3-.3.8-.3 1.1 0l1.6 1.6c.4.4.4.8 0 1.1m3.7 3.6L6.6 8.1c-.3.3-.8.3-1.1 0L3.8 6.5c-.3-.3-.3-.8 0-1.1l1.7-1.6c.3-.3.8-.3 1.1 0l1.6 1.6c.2.3.2.8 0 1.1m3.5-3.6l-1.6 1.6c-.3.3-.8.3-1.1 0L7.4 2.9c-.3-.3-.3-.8 0-1.1L9 .2c.3-.3.8-.3 1.1 0l1.6 1.6c.4.4.4.8 0 1.1"/></svg><svg height="8.4" viewBox="0 0 12 9" width="12" x="4" y="397"><path d="M7.5 5.4l1.6-1.6c.3-.3.8-.3 1.1 0l1.6 1.6c.3.3.3.8 0 1.1l-1.6 1.6c-.3.3-.8.3-1.1 0L7.5 6.5c-.4-.4-.4-.8 0-1.1M3.8 1.8L5.4.2c.3-.3.8-.3 1.1 0l1.7 1.6c.3.3.3.8 0 1.1L6.5 4.5c-.3.3-.8.3-1.1 0L3.8 2.9c-.2-.3-.2-.8 0-1.1M.3 5.4l1.6-1.6c.3-.3.8-.3 1.1 0l1.6 1.6c.3.3.3.8 0 1.1L3 8.1c-.3.3-.8.3-1.1 0L.3 6.5c-.4-.4-.4-.8 0-1.1"/></svg><svg height="8.4" viewBox="0 0 12 9" width="12" x="4" y="410"><path d="M4.5 2.9L2.9 4.5c-.3.3-.8.3-1.1 0L.2 2.9c-.3-.3-.3-.8 0-1.1L1.8.2c.3-.3.8-.3 1.1 0l1.6 1.6c.4.4.4.8 0 1.1m3.7 3.6L6.6 8.1c-.3.3-.8.3-1.1 0L3.8 6.5c-.3-.3-.3-.8 0-1.1l1.7-1.6c.3-.3.8-.3 1.1 0l1.6 1.6c.2.3.2.8 0 1.1m3.5-3.6l-1.6 1.6c-.3.3-.8.3-1.1 0L7.4 2.9c-.3-.3-.3-.8 0-1.1L9 .2c.3-.3.8-.3 1.1 0l1.6 1.6c.4.4.4.8 0 1.1"/></svg><svg height="8.4" viewBox="0 0 12 9" width="12" x="4" y="423"><path fill="#9E005D" d="M7.5 5.4l1.6-1.6c.3-.3.8-.3 1.1 0l1.6 1.6c.3.3.3.8 0 1.1l-1.6 1.6c-.3.3-.8.3-1.1 0L7.5 6.5c-.4-.4-.4-.8 0-1.1M3.8 1.8L5.4.2c.3-.3.8-.3 1.1 0l1.7 1.6c.3.3.3.8 0 1.1L6.5 4.5c-.3.3-.8.3-1.1 0L3.8 2.9c-.2-.3-.2-.8 0-1.1M.3 5.4l1.6-1.6c.3-.3.8-.3 1.1 0l1.6 1.6c.3.3.3.8 0 1.1L3 8.1c-.3.3-.8.3-1.1 0L.3 6.5c-.4-.4-.4-.8 0-1.1"/></svg></svg>