<?xml version="1.0" encoding="utf-8"?>
<!-- Generator: Adobe Illustrator 26.0.2, SVG Export Plug-In . SVG Version: 6.00 Build 0)  -->
<svg version="1.1" id="ChenYu.Me" xmlns="http://www.w3.org/2000/svg" xmlns:xlink="http://www.w3.org/1999/xlink" x="0px" y="0px"
	 viewBox="0 0 1080 1080" style="enable-background:new 0 0 1080 1080;" xml:space="preserve">
<style type="text/css">
       .ChenYu-icon {
         fill: #0887e9;
         stroke: #e6e6e6;
         fill-opacity:0;
         stroke-width: 5px;
         stroke-dasharray: var(--s-dd);
         stroke-dashoffset: var(--s-dd);
         animation: logo-animation 1.7s ease-in-out forwards;
         animation-delay: var(--a-d);
         --s-dd: 3600;
         --s-ddo:-2400;
		 fill:url(#SVGID_1_);
      } 
      
       @keyframes logo-animation {
         60%{
            fill-opacity:0;
            stroke-dashoffset:0;
         }
         to{
            fill-opacity:1;
            stroke-dashoffset:0;
         }
       }
	.st1{fill:url(#SVGID_00000011717249610204776870000005132229404318905739_);}
	.st2{fill:url(#SVGID_00000178896563603333968210000014471482645491468965_);}
	.st3{fill:url(#SVGID_00000145056736008382225560000007521981427682509225_);}
</style>
<linearGradient id="SVGID_1_" gradientUnits="userSpaceOnUse" x1="5.7424" y1="577.1057" x2="1074.2576" y2="577.1057">
	<stop  offset="0" style="stop-color:#2C95B6"/>
	<stop  offset="8.236969e-02" style="stop-color:#2C8EB5"/>
	<stop  offset="0.4302" style="stop-color:#2A75AF"/>
	<stop  offset="0.7462" style="stop-color:#2965AC"/>
	<stop  offset="1" style="stop-color:#2960AB"/>
</linearGradient>
<path class="ChenYu-icon" d="M1074.1,584.8c-0.4-0.2-1.9,2.7-2.2,3.3c-3.7,7.2-26.2,46.9-38.4,63.7c-10.8,15-22.4,29.4-35,43
	c-8.1,8.7-16.4,17.3-25.1,25.4c-12,11.1-24.3,21.8-37.3,31.7c-32.1,24.5-66.6,45.1-103.5,61.6c-31.6,14.1-64.2,25.3-97.9,33.2
	c-17.2,4-34.5,7.2-52,9.6c-14.9,2.1-29.9,3.5-44.9,4.4c-14.5,0.8-29,1-43.6,0.7c-16.2-0.3-32.3-1.3-48.3-3
	c-13.9-1.5-27.8-3.5-41.6-6c-21-3.7-41.7-8.8-62.1-15.1c-21.1-6.6-41.9-14.3-62.1-23.3c-23.3-10.4-45.8-22.4-67.4-36.1
	c-26.7-16.9-51.6-36.2-74.7-57.8c-10.1-9.5-19.6-19.5-29.1-29.6c-1.1-2.9-3.7-4.7-5.6-6.9c-9.8-11.2-18.8-23-27.5-35.1
	c-11.7-16.3-21.9-33.4-31.3-51.1c-5.5-10.4-10.5-21.1-15.1-31.9c-4.7-11-8.9-22.1-12.6-33.4c-4.5-13.4-8.1-27.1-11.3-40.9
	c-3.9-16.9-6.4-33.9-8.1-51.1c-0.9-9.2-1.6-18.4-1.8-27.6c-0.3-10.7-0.2-21.4,0.3-32c0.5-10.2,1.4-20.4,2.6-30.6
	c1.8-15.5,4.3-30.8,7.9-46c3.1-13.1,6.6-26.1,11-38.8c2.9-8.4,5.8-16.8,9.3-25.1c3.2-7.6,6.3-15.2,9.8-22.6c4.2-9,9-17.8,13.8-26.6
	c8.1-14.6,17-28.7,26.8-42.2c1.7-2.3,3.8-4.4,5.2-7.7c-1.6,1-2.9,1.5-3.9,2.4c-7.8,7.1-15.8,14.1-23.3,21.4
	c-11.2,10.9-21.8,22.3-31.9,34.2c-5.6,6.6-11.2,13.2-16.4,20c-9.7,12.7-18.8,25.8-27.3,39.3c-7.7,12.2-14.7,24.7-21.4,37.4
	c-3.8,7.4-7.1,15.1-10.7,22.6c-5.2,10.9-9.4,22.2-13.6,33.5c-3.3,9.1-6.1,18.5-8.9,27.8c-2.5,8.1-4.8,16.3-6.5,24.7
	c-1.7,8.2-3.4,16.4-5,24.7c-1.3,6.8-2.4,13.5-3.3,20.4c-0.8,6.2-1.3,12.3-2.1,18.5c-0.9,7.4-1.8,14.9-1.9,22.2
	C6,506.3,5,522.7,6.9,539.1C8,549,8.4,559,9.5,569c1.2,10.6,2.7,21.2,4.9,31.6c3,14.6,6.1,29.1,10.5,43.4
	c3.8,12.4,7.6,24.7,12.2,36.8c6.3,16.2,13.5,32,21.3,47.6c7,14,14.9,27.4,23.3,40.5c4,6.3,7.9,12.8,12.7,18.6c0,0,0,0,0,0
	c5.5,8.1,11.6,15.8,17.6,23.5c11.4,14.7,23.9,28.5,36.9,41.7c9.6,9.8,19.8,19.2,30.3,28.1c6.7,5.6,13.2,11.4,20.2,16.7
	c12.1,9.2,24.4,18.2,37.3,26.5c15.5,10,31.3,19.3,47.7,27.7c17.4,8.9,35.1,16.9,53.4,23.9c19.8,7.6,39.8,14.2,60.3,19.5
	c21.9,5.7,44.1,10.2,66.7,13c16,2,32.9,3.4,37,3.7c5.7,0.4,11,0.8,17.9,1.1c0,0,26.5,1.2,63.4-1.1c5.4-0.3,11.8-0.8,11.8-0.8
	c4.1-0.3,6.2-0.4,8.6-0.7c3.2-0.3,8.8-0.8,15.8-1.7c2.1-0.3,6.7-0.9,13.9-2.1c10.7-1.8,19.6-3.7,25.9-4.9c16-3.2,31.7-7.1,47.3-11.8
	c12.7-3.8,25.2-8,37.6-12.7c12.8-4.8,25.3-10.2,37.8-15.9c9.4-4.3,18.7-9,27.8-13.9c5.8-3.2,11.7-6.2,17.4-9.6
	c13.6-8.1,27-16.6,40-25.8c10.9-7.8,21.5-16,31.9-24.6c9.1-7.6,18.2-15.2,26.6-23.6c8.5-8.5,17.2-16.7,25.3-25.6
	c6.5-7.2,12.8-14.4,18.9-21.8c8-9.7,15.6-19.9,22.8-30.2c10.4-14.9,20-30.3,28.8-46.2c5.7-10.3,10.9-20.9,15.9-31.6
	c4-8.5,7.5-17.3,10.9-26.1c5.3-13.7,9.9-27.7,13.9-41.8c3.3-11.9,6.2-23.9,8.8-36c1.2-5.8,2.1-11.7,3.3-17.5
	C1074.1,586.5,1074.4,584.9,1074.1,584.8z"/>
<linearGradient id="SVGID_00000021110244623228691030000007883312923343766974_" gradientUnits="userSpaceOnUse" x1="248.35" y1="353.736" x2="744.674" y2="353.736">
	<stop  offset="0" style="stop-color:#FCC90D"/>
	<stop  offset="0.2189" style="stop-color:#F9B014"/>
	<stop  offset="0.5389" style="stop-color:#F6911D"/>
	<stop  offset="0.8106" style="stop-color:#F47E22"/>
	<stop  offset="1" style="stop-color:#F37724"/>
</linearGradient>
<path class="ChenYu-icon" style="fill:url(#SVGID_00000021110244623228691030000007883312923343766974_);" d="M741.3,210.6c-18.7,10.4-38.4,18.3-59,24.2
	c-21.9,6.3-44.2,9.8-67.2,8.9c-14.5-0.6-28.7-2.9-42.5-7.3c-1.3-0.4-2.6-1.3-4-0.3c0-0.1,0-0.1,0-0.2c-0.3-0.6-0.8-0.9-1.4-1.1
	c-6-2.4-11.8-5-17.5-8.1c-0.5-0.3-1-0.2-1.5-0.1c-0.7-0.4-1.4-0.7-2.1-1.1c-15.4-9-28.2-21.1-39.7-34.7
	c-18.2-21.5-36.4-43-56.2-63.1C418,94.5,379,75.2,333,69.8c-18.6-2.2-37.2-3.2-55.9-3.1c-9.6,0.1-19.2-0.1-28.7,0.7
	c-0.1,1.1,0.5,1.8,1,2.6c9.2,16.4,18.5,32.9,27.7,49.3c32.3,57.3,64.5,114.5,96.8,171.8c22.4,39.8,44.8,79.6,67.3,119.3
	c0,1.3,0.4,2.3,1.7,2.7c-0.5,1.7,0.6,2.8,1.3,4.1c4.3,7.8,8.5,15.6,12.3,23.6c11.6,24.3,20.7,49.5,26.3,76c4,19.3,5.9,38.7,4.2,58.4
	c-1.8,22.2-8.1,43-19.9,62c-0.6,1-1.8,2-0.9,3.5c6.9-6.6,12.9-13.9,18.8-21.3c17.1-21.7,32.2-44.9,46.8-68.4
	c30.9-49.7,62-99.2,93-148.8c35.3-56.5,70.6-113,105.9-169.6c4.7-7.6,9.4-15.3,14.1-22.9C743.4,209.3,742.3,210.1,741.3,210.6z"/>
<g>
	
		<linearGradient id="SVGID_00000095332515772319319250000000744711091343699854_" gradientUnits="userSpaceOnUse" x1="254.6381" y1="564.6942" x2="488.4101" y2="564.6942">
		<stop  offset="0" style="stop-color:#2EAFBB"/>
		<stop  offset="0.2374" style="stop-color:#2C93B5"/>
		<stop  offset="0.5497" style="stop-color:#2A74AE"/>
		<stop  offset="0.8151" style="stop-color:#2861AA"/>
		<stop  offset="1" style="stop-color:#285AA9"/>
	</linearGradient>
	<path class="ChenYu-icon" style="fill:url(#SVGID_00000095332515772319319250000000744711091343699854_);" d="M465.9,459.7c-6.6-16.1-14.4-31.5-23-46.6
		c-0.6-0.9-1.2-1.7-1.8-2.6c-23.1,38.5-46.1,77-69.3,115.4c-35.4,58.7-71.4,117.1-107.7,175.2c-3.1,5-6.2,10-9.5,15.2
		c1.5,0.3,2.5,0.6,3.6,0.7c25.1,3.3,50,2.1,74.7-2.7c36.4-7,69.4-21.6,99.2-43.5c12.2-9,23.7-18.9,33.9-30.1c0.2-0.5,0.3-1,0.6-1.4
		c18.6-29,23.7-61.1,21-94.8C485.3,515.1,477.1,487,465.9,459.7z"/>
	
		<linearGradient id="SVGID_00000140000805691350150560000001312501336487093128_" gradientUnits="userSpaceOnUse" x1="548.4271" y1="156.0063" x2="836.0628" y2="156.0063">
		<stop  offset="0" style="stop-color:#2EAFBB"/>
		<stop  offset="0.2374" style="stop-color:#2C93B5"/>
		<stop  offset="0.5497" style="stop-color:#2A74AE"/>
		<stop  offset="0.8151" style="stop-color:#2861AA"/>
		<stop  offset="1" style="stop-color:#285AA9"/>
	</linearGradient>
	<path class="ChenYu-icon" style="fill:url(#SVGID_00000140000805691350150560000001312501336487093128_);" d="M706.6,94.7
		c-66.1,27.8-118.3,72.4-158.1,131.7c6.3,4.1,13.3,6.7,20.2,9.6c5.6,1.7,11.1,3.5,16.9,4.8c27.9,6.3,55.6,4.6,83.2-1.7
		c26.7-6.1,52-16,76-29.4c30.3-47.3,60.7-94.7,91.4-142.7C790.6,67.7,747.8,77.4,706.6,94.7z"/>
</g>
</svg>
