<?xml version="1.0" standalone="no"?><!DOCTYPE svg PUBLIC "-//W3C//DTD SVG 1.1//EN" "http://www.w3.org/Graphics/SVG/1.1/DTD/svg11.dtd"><svg t="1731997477485" class="icon" viewBox="0 0 1024 1024" version="1.1" xmlns="http://www.w3.org/2000/svg" p-id="58880" xmlns:xlink="http://www.w3.org/1999/xlink" width="200" height="200"><path d="M858.550857 557.933714a46.08 46.08 0 0 1-46.08-46.08A300.763429 300.763429 0 0 0 512 211.456a300.763429 300.763429 0 0 0-300.470857 300.397714c0 45.494857 6.436571 104.813714 34.084571 147.748572l5.266286-8.777143c20.48-34.669714 46.08-77.824 91.428571-89.014857 17.042286-4.242286 43.739429-5.266286 74.532572 13.604571 37.741714 23.259429 55.149714 59.245714 49.005714 101.522286-4.169143 29.037714-18.944 56.905143-31.963428 81.554286-6.729143 12.726857-17.481143 33.060571-19.748572 43.300571 15.945143 11.410286 50.176 10.971429 80.603429 10.678857L512 812.324571a46.08 46.08 0 0 1 0 92.16l-16.164571 0.146286-17.554286 0.146286c-44.690286 0-95.817143-3.803429-132.461714-40.448-47.177143-47.177143-14.848-108.397714 6.582857-148.918857 8.192-15.433143 25.161143-47.542857 22.381714-56.32a20.333714 20.333714 0 0 0-6.217143-5.12 24.795429 24.795429 0 0 0-4.754286-2.340572c-9.216 4.973714-25.6 32.548571-33.645714 46.08-19.017143 32.182857-38.619429 65.389714-75.629714 69.997715-11.702857 1.536-34.742857 0.731429-56.758857-21.211429-52.004571-52.077714-78.409143-130.998857-78.409143-234.642286A393.069714 393.069714 0 0 1 512 119.222857a393.069714 393.069714 0 0 1 392.630857 392.630857 46.08 46.08 0 0 1-46.08 46.08zM625.737143 481.645714a47.542857 47.542857 0 0 1 7.753143-25.6 44.836571 44.836571 0 0 1 20.699428-17.042285 47.104 47.104 0 0 1 26.697143-2.633143 44.982857 44.982857 0 0 1 16.603429 6.875428 51.419429 51.419429 0 0 1 12.726857 12.8 47.542857 47.542857 0 0 1 7.68 25.6 47.030857 47.030857 0 0 1-7.68 25.6 51.931429 51.931429 0 0 1-12.8 12.653715 44.982857 44.982857 0 0 1-43.154286 4.242285 48.274286 48.274286 0 0 1-14.994286-9.947428 47.542857 47.542857 0 0 1-9.947428-14.921143 46.957714 46.957714 0 0 1-3.584-17.627429z m92.16 349.110857a46.08 46.08 0 0 1-92.16 0V609.426286a46.08 46.08 0 0 1 92.16 0v221.330285zM512 0a512 512 0 1 0 0 1024A512 512 0 0 0 512 0z" p-id="58881" fill="#feba07"></path></svg>