<?xml version="1.0" standalone="no"?><!DOCTYPE svg PUBLIC "-//W3C//DTD SVG 1.1//EN" "http://www.w3.org/Graphics/SVG/1.1/DTD/svg11.dtd"><svg t="1731547651202" class="icon" viewBox="0 0 1024 1024" version="1.1" xmlns="http://www.w3.org/2000/svg" p-id="41261" xmlns:xlink="http://www.w3.org/1999/xlink" width="200" height="200"><path d="M512 512m-479.982933 0a479.982933 479.982933 0 1 0 959.965866 0 479.982933 479.982933 0 1 0-959.965866 0Z" fill="#64A5FA" p-id="41262"></path><path d="M512 991.982933A479.982933 479.982933 0 1 0 512 32.085333a479.982933 479.982933 0 0 0 0 959.965867z m0 32.017067a512 512 0 1 1 0-1024 512 512 0 0 1 0 1024z" fill="#FFFFFF" p-id="41263"></path><path d="M640 831.761067l-95.982933-32.017067 9.557333-127.863467 86.4256 95.914667v63.965867z m160.017067-159.880534L559.991467 553.5744l-3.208534-111.957333-3.208533-73.5232 246.442667 243.029333v60.757333z m-416.017067 159.880534l95.982933-32.017067-9.557333-127.863467-86.4256 95.914667v63.965867zM223.982933 671.880533l240.0256-118.306133 3.208534-111.957333 3.208533-73.5232-246.442667 243.029333v60.757333z" fill="#FFFFFF" p-id="41264"></path><path d="M512 192.034133c-26.4192 0-47.991467 28.672-47.991467 63.829334v512.2048c0 17.544533 3.072 31.9488 16.315734 31.9488h64.170666c13.1072 0 15.496533-14.336 15.496534-31.9488V255.863467c0-35.089067-21.572267-63.829333-47.991467-63.8976z" fill="#FFFFFF" p-id="41265"></path></svg>