<?xml version="1.0" standalone="no"?><!DOCTYPE svg PUBLIC "-//W3C//DTD SVG 1.1//EN" "http://www.w3.org/Graphics/SVG/1.1/DTD/svg11.dtd"><svg t="1731547598254" class="icon" viewBox="0 0 1024 1024" version="1.1" xmlns="http://www.w3.org/2000/svg" p-id="37901" xmlns:xlink="http://www.w3.org/1999/xlink" width="200" height="200"><path d="M682.666667 938.666667l-128-42.666667 12.8-170.666667 115.2 128zM896 725.333333l-320-157.866666-4.266667-149.333334-4.266666-98.133333L896 644.266667zM341.333333 938.666667l128-42.666667-12.8-170.666667-115.2 128zM128 725.333333l320-157.866666 4.266667-149.333334 4.266666-98.133333L128 644.266667z" fill="#2196F3" p-id="37902"></path><path d="M512 85.333333c-46.933333 0-85.333333 38.4-85.333333 85.333334v704c0 23.466667 19.2 42.666667 42.666666 42.666666h85.333334c23.466667 0 42.666667-19.2 42.666666-42.666666V170.666667c0-46.933333-38.4-85.333333-85.333333-85.333334z" fill="#64B5F6" p-id="37903"></path><path d="M490.666667 725.333333h42.666666v192h-42.666666z" fill="#2196F3" p-id="37904"></path></svg>