<?xml version="1.0" standalone="no"?><!DOCTYPE svg PUBLIC "-//W3C//DTD SVG 1.1//EN" "http://www.w3.org/Graphics/SVG/1.1/DTD/svg11.dtd"><svg t="1731547751857" class="icon" viewBox="0 0 1024 1024" version="1.1" xmlns="http://www.w3.org/2000/svg" p-id="47455" xmlns:xlink="http://www.w3.org/1999/xlink" width="200" height="200"><path d="M691.4 685.5L809 489l0.2-0.3c64.7-108.5 29.4-248.9-79-313.8s-248.9-29.7-313.9 78.6l-4.9-2.9c-108.5-65-249.1-29.6-314.1 78.9-65 108.5-29.6 249.1 78.9 314.1l4.9 2.9 191.6 114.7 201.4 120.5 117.3-196.2z" fill="#FFE2DE" p-id="47456"></path><path d="M782.5 756.8l125-125 0.2-0.2c68.9-69.1 68.8-180.9-0.2-249.9s-180.8-69-249.9-0.2l-3.1-3.1c-69.1-69.1-181-69.1-250.1 0s-69.1 181 0 250.1l3.1 3.1 121.9 121.9 128.1 128.1 125-124.8z" fill="#FF9D83" p-id="47457"></path></svg>