<?xml version="1.0" standalone="no"?><!DOCTYPE svg PUBLIC "-//W3C//DTD SVG 1.1//EN" "http://www.w3.org/Graphics/SVG/1.1/DTD/svg11.dtd"><svg t="1731894512106" class="icon" viewBox="0 0 1024 1024" version="1.1" xmlns="http://www.w3.org/2000/svg" p-id="29353" xmlns:xlink="http://www.w3.org/1999/xlink" width="200" height="200"><path d="M514.03 966.59c-207.88 0-376.98-169.05-376.98-376.8V247.72c0-20.84 16.88-37.71 37.71-37.71s37.71 16.86 37.71 37.71V589.8c0 166.18 135.28 301.39 301.57 301.39S815.61 755.98 815.61 589.8V255.08c0-20.84 16.88-37.71 37.71-37.71s37.71 16.86 37.71 37.71v334.71c-0.01 207.75-169.12 376.8-377 376.8z" fill="#4784BB" p-id="29354"></path><path d="M184.09 285.57c-3.79 0-7.59 0-11.18-0.18-20.8-1.03-36.84-18.71-35.83-39.51 1.03-20.8 18.56-36.71 39.51-35.83l7.49 0.11c138.1 0 261.18-53.36 293.4-127.04 5.36-14.29 19.15-24.49 35.33-24.49 20.82 0 37.71 16.86 37.71 37.71 0 4.46-0.85 9.06-2.41 13.29-0.24 0.66-0.5 1.33-0.77 1.99-44.22 104.03-190.2 173.95-363.25 173.95z" fill="#4784BB" p-id="29355"></path><path d="M844 292.97c-177.43 0-328.29-75.41-366.88-183.41v-0.04c-1.55-4.2-2.38-8.69-2.38-13.18 0-20.84 16.88-37.71 37.71-37.71 16.66 0 30.78 10.79 35.77 25.78C575.58 160.34 702.66 217.56 844 217.56c2.41 0 4.77 0.04 7-0.11 21.17-0.59 38.68 14.54 39.95 35.31 1.29 20.77-14.53 38.66-35.31 39.95-3.73 0.23-7.69 0.26-11.64 0.26z" fill="#4784BB" p-id="29356"></path><path d="M514.03 783.4c-136.54 0-247.63-111.09-247.63-247.63s111.1-247.62 247.63-247.62c136.55 0 247.65 111.09 247.65 247.63S650.59 783.4 514.03 783.4z m0-419.84c-94.96 0-172.22 77.25-172.22 172.22S419.06 708 514.03 708s172.24-77.25 172.24-172.22S609 363.56 514.03 363.56z" fill="#F84A10" p-id="29357"></path><path d="M489.95 635.05c-9.65 0-19.29-3.68-26.66-11.05l-74.93-74.93c-14.73-14.73-14.73-38.59 0-53.32 14.73-14.73 38.59-14.73 53.32 0l48.27 48.27 96.44-96.44c14.73-14.73 38.59-14.73 53.32 0s14.73 38.59 0 53.32L516.61 624c-7.36 7.37-17.01 11.05-26.66 11.05z" fill="#4784BB" p-id="29358"></path></svg>