<?xml version="1.0" standalone="no"?><!DOCTYPE svg PUBLIC "-//W3C//DTD SVG 1.1//EN" "http://www.w3.org/Graphics/SVG/1.1/DTD/svg11.dtd"><svg t="1731747982223" class="icon" viewBox="0 0 1024 1024" version="1.1" xmlns="http://www.w3.org/2000/svg" p-id="3696" data-darkreader-inline-fill="" xmlns:xlink="http://www.w3.org/1999/xlink" width="200" height="200"><path d="M512 1024c282.752 0 512-229.248 512-512S794.752 0 512 0 0 229.248 0 512s229.248 512 512 512z m-21.333-213.333a64 64 0 1 1 0-128 64 64 0 0 1 0 128z m7.125-768c125.653 0 227.541 105.13 227.541 234.794s-96.298 234.752-227.541 234.752c-125.696 0-227.584 105.131-227.584 234.795 0 122.667 91.221 223.36 207.488 233.813l0.47 0.512c-242.22-10.581-435.5-216.576-435.5-469.12 0-259.328 203.777-469.546 455.126-469.546z m56.875 234.666a64 64 0 1 0-128 0 64 64 0 0 0 128 0z" p-id="3697" fill="#1296db" data-darkreader-inline-fill="" style="--darkreader-inline-fill: #0e78af;"></path></svg>