<?xml version="1.0" standalone="no"?><!DOCTYPE svg PUBLIC "-//W3C//DTD SVG 1.1//EN" "http://www.w3.org/Graphics/SVG/1.1/DTD/svg11.dtd"><svg t="1731549001593" class="icon" viewBox="0 0 1024 1024" version="1.1" xmlns="http://www.w3.org/2000/svg" p-id="12333" xmlns:xlink="http://www.w3.org/1999/xlink" width="200" height="200"><path d="M886.86816566-404.46235821H130.25702335L-404.64146467 130.43612984V886.85630516l534.89848802 535.089455h756.61114231L1421.7666537 886.85630516V130.43612984z" fill="#E5E5E5" p-id="12334"></path><path d="M147.0621169 1399.2206905L-373.89578219 878.26279142V141.70318115L147.0621169-379.25471795h736.75057724l520.95789908 520.9578991v736.55961027L883.81269414 1399.2206905z" fill="#FFFFFF" p-id="12335"></path><path d="M873.88241162-355.38384647L1380.89972173 151.44249671v716.8900122L873.88241162 1375.34981903H156.99239943L-350.02491073 868.52347584V151.44249671L156.99239943-355.38384647h716.89001219m19.86056505-47.74174295H137.13183435L-397.76665369 131.77289864v756.42017532l534.89848803 534.89848803h756.42017534L1428.64146469 888.19307396V131.77289864L893.74297667-403.12558942z" fill="#E8525F" p-id="12336"></path><path d="M515.43740551 982.721725c-126.22916838 0-245.01062482-49.07851174-334.19220066-138.45105455-89.18157582-89.18157582-138.45105457-207.96303229-138.45105457-334.19220068s49.07851174-245.01062482 138.45105457-334.19220065c89.18157582-89.18157582 207.96303229-138.45105457 334.19220066-138.45105459s245.01062482 49.07851174 334.19220068 138.45105459c89.18157582 89.18157582 138.45105457 207.96303229 138.45105456 334.19220065s-49.07851174 245.01062482-138.45105456 334.19220068c-89.18157582 89.18157582-207.96303229 138.45105457-334.19220068 138.45105455z" fill="#FFFFFF" p-id="12337"></path><path d="M515.43740551 61.11511904c247.8751294 0 448.77238375 200.89725433 448.77238374 448.77238376s-200.89725433 448.77238375-448.77238374 448.77238376-448.77238375-200.89725433-448.77238378-448.77238376 200.89725433-448.77238375 448.77238378-448.77238376m0-47.74174295c-67.02940711 0-131.95817751 13.17672108-193.25857545 38.95726225-59.19976125 25.01667332-112.28857942 60.72749703-157.73871873 106.36860331-45.64110626 45.64110626-81.35192999 98.72992442-106.3686033 157.73871871-25.97150818 61.30039795-38.95726226 126.22916838-38.95726227 193.25857548 0 67.02940711 13.17672108 131.95817751 38.95726227 193.25857548 25.01667332 59.19976125 60.72749703 112.28857942 106.3686033 157.73871871 45.64110626 45.64110626 98.72992442 81.35192999 157.73871873 106.36860329 61.30039795 25.97150818 126.22916838 38.95726226 193.25857545 38.95726224s131.95817751-13.17672108 193.25857549-38.95726224c59.19976125-25.01667332 112.28857942-60.72749703 157.73871868-106.36860329 45.64110626-45.64110626 81.35192999-98.72992442 106.3686033-157.73871871 25.97150818-61.30039795 38.95726226-126.22916838 38.95726227-193.25857548 0-67.02940711-13.17672108-131.95817751-38.95726227-193.25857548-25.01667332-59.19976125-60.72749703-112.28857942-106.3686033-157.73871871-45.64110626-45.64110626-98.72992442-81.35192999-157.73871868-106.3686033-61.109431-25.78054119-126.22916838-38.95726226-193.25857549-38.95726226zM517.53804218 959.6147214h-1.33676878 1.33676878z" fill="#f4f4f4" p-id="12338"></path><path d="M515.62837251 509.8875028h0.57290089c124.12853168 0 224.76812583-100.63959414 224.7681258-224.76812579 0-123.74659771-100.06669323-224.19522493-223.62232394-224.76812584H515.62837251c-248.25706335 0-449.72721861 201.27918829-449.72721861 449.7272186s201.27918829 449.72721861 449.72721861 449.72721863h0.38193391c-124.12853168-0.19096699-224.57715885-100.63959414-224.57715884-224.7681258s100.44862719-224.76812583 224.19522493-225.1500598z" fill="#333333" p-id="12339"></path><path d="M513.33676884 60.35125117h1.14580183-1.14580183zM515.24643854 509.8875028h-0.57290093c-124.12853168 0-224.76812583 100.63959414-224.7681258 224.76812585 0 123.74659771 100.06669323 224.19522493 223.62232397 224.76812577H515.24643854c248.25706335 0 449.72721861-201.27918829 449.72721862-449.72721858S763.5035019 60.35125117 515.24643854 60.35125117h-0.38193395c124.12853168 0.19096699 224.57715885 100.63959414 224.57715886 224.76812584 0 123.93756471-100.25766018 224.57715885-224.19522491 224.76812579z" fill="#ffffff" p-id="12340"></path><path d="M513.90966974 734.84659558m-68.93907681 0a68.93907682 68.93907682 0 1 0 137.87815362 0 68.93907682 68.93907682 0 1 0-137.87815362 0Z" fill="#333333" p-id="12341"></path><path d="M515.24643854 283.97357517m-68.93907682 0a68.93907682 68.93907682 0 1 0 137.87815366 0 68.93907682 68.93907682 0 1 0-137.87815366 0Z" fill="#FFFFFF" p-id="12342"></path><path d="M615.12216478-235.45658817H416.51651411c-12.60382015 0-22.9160366-10.31221649-22.91603661-22.91603663v-16.61412651c0-12.60382015 10.31221649-22.9160366 22.91603661-22.91603663h198.60565067c12.60382015 0 22.9160366 10.31221649 22.91603662 22.91603663v16.61412651c0 12.7947871-10.31221649 22.9160366-22.91603662 22.91603663zM615.12216478-139.20923437H416.51651411c-12.60382015 0-22.9160366-10.31221649-22.91603661-22.91603661V-178.73939754c0-12.60382015 10.31221649-22.9160366 22.91603661-22.91603661h198.60565067c12.60382015 0 22.9160366 10.31221649 22.91603662 22.91603661v16.61412656c0 12.7947871-10.31221649 22.9160366-22.91603662 22.91603661zM615.12216478-42.96188058H416.51651411c-12.60382015 0-22.9160366-10.31221649-22.91603661-22.91603664v-16.61412651c0-12.60382015 10.31221649-22.9160366 22.91603661-22.91603662h198.60565067c12.60382015 0 22.9160366 10.31221649 22.91603662 22.91603662v16.61412651c0 12.7947871-10.31221649 22.9160366-22.91603662 22.91603664z" fill="#ffffff" p-id="12343"></path><path d="M614.5492639 1125.18308598H415.75264624c-12.60382015 0-22.9160366-10.31221649-22.91603661-22.91603661v-16.61412654c0-12.60382015 10.31221649-22.9160366 22.91603661-22.91603665h198.79661766c12.60382015 0 22.9160366 10.31221649 22.91603661 22.91603665v16.61412654c0 12.7947871-10.31221649 22.9160366-22.91603661 22.91603661zM614.5492639 1221.62140674H415.75264624c-12.60382015 0-22.9160366-10.31221649-22.91603661-22.91603661v-16.61412658c0-12.60382015 10.31221649-22.9160366 22.91603661-22.9160366h198.79661766c12.60382015 0 22.9160366 10.31221649 22.91603661 22.9160366v16.61412658c0 12.60382015-10.31221649 22.9160366-22.91603661 22.91603661zM614.5492639 1317.86876053H415.75264624c-12.60382015 0-22.9160366-10.31221649-22.91603661-22.91603662V1278.33859735c0-12.60382015 10.31221649-22.9160366 22.91603661-22.91603661h198.79661766c12.60382015 0 22.9160366 10.31221649 22.91603661 22.91603661v16.61412656c0 12.60382015-10.31221649 22.9160366-22.91603661 22.91603662z" fill="#ffffff" p-id="12344"></path><path d="M-229.90668546 410.20274354v198.79661762c0 12.60382015-10.31221649 22.9160366-22.91603662 22.91603664h-16.61412656c-12.60382015 0-22.9160366-10.31221649-22.91603661-22.91603664V410.20274354c0-12.60382015 10.31221649-22.9160366 22.91603661-22.91603666h16.61412656c12.60382015 0 22.9160366 10.31221649 22.91603662 22.91603666zM-133.65933167 410.20274354v198.79661762c0 12.60382015-10.31221649 22.9160366-22.91603661 22.91603664h-16.61412656c-12.60382015 0-22.9160366-10.31221649-22.91603661-22.91603664V410.20274354c0-12.60382015 10.31221649-22.9160366 22.91603661-22.91603666h16.61412656c12.60382015 0 22.9160366 10.31221649 22.91603661 22.91603666zM-37.4119779 410.20274354v198.79661762c0 12.60382015-10.31221649 22.9160366-22.91603659 22.91603664h-16.61412654c-12.60382015 0-22.9160366-10.31221649-22.91603663-22.91603664V410.20274354c0-12.60382015 10.31221649-22.9160366 22.91603663-22.91603666h16.61412654c12.60382015 0 22.9160366 10.31221649 22.91603659 22.91603666z" fill="#ffffff" p-id="12345"></path><path d="M1130.73298868 410.96661142v198.79661763c0 12.60382015-10.31221649 22.9160366-22.91603662 22.91603663h-16.61412655c-12.60382015 0-22.9160366-10.31221649-22.91603659-22.91603663V410.96661142c0-12.60382015 10.31221649-22.9160366 22.91603659-22.91603664h16.61412655c12.60382015 0 22.9160366 10.31221649 22.91603662 22.91603664zM1226.98034247 410.96661142v198.79661763c0 12.60382015-10.31221649 22.9160366-22.91603662 22.91603663h-16.61412654c-12.60382015 0-22.9160366-10.31221649-22.91603661-22.91603663V410.96661142c0-12.60382015 10.31221649-22.9160366 22.91603661-22.91603664h16.61412654c12.60382015 0 22.9160366 10.31221649 22.91603662 22.91603664zM1323.22769625 410.96661142v198.79661763c0 12.60382015-10.31221649 22.9160366-22.91603659 22.91603663h-16.61412657c-12.60382015 0-22.9160366-10.31221649-22.9160366-22.91603663V410.96661142c0-12.60382015 10.31221649-22.9160366 22.9160366-22.91603664h16.61412657c12.7947871 0 22.9160366 10.31221649 22.91603659 22.91603664z" fill="#ffffff" p-id="12346"></path><path d="M58.83537589-87.64815197l-140.55169123 140.55169123c-8.97544767 8.97544767-23.48893754 8.97544767-32.4643852 0l-11.64898529-11.64898528c-8.97544767-8.97544767-8.97544767-23.48893754 0-32.46438522l140.55169127-140.55169125c8.97544767-8.97544767 23.48893754-8.97544767 32.46438521 0l11.64898524 11.64898529c8.97544767 9.16641464 8.97544767 23.67990452 0 32.46438523zM127.01058485-19.47294305L-13.54110642 121.07874821c-8.97544767 8.97544767-23.48893754 8.97544767-32.46438519 0l-11.64898528-11.64898529c-8.97544767-8.97544767-8.97544767-23.48893754 0-32.46438522l140.55169124-140.55169126c8.97544767-8.97544767 23.48893754-8.97544767 32.46438521 0l11.64898529 11.64898531c8.97544767 8.97544767 8.97544767 23.48893754 0 32.4643852zM194.9948268 48.5112989l-140.55169123 140.55169126c-8.97544767 8.97544767-23.48893754 8.97544767-32.46438522 0l-11.64898527-11.64898528c-8.97544767-8.97544767-8.97544767-23.48893754 0-32.46438522l140.55169123-140.55169122c8.97544767-8.97544767 23.48893754-8.97544767 32.46438523 0l11.64898526 11.64898526c8.97544767 8.97544767 8.97544767 23.48893754 0 32.4643852z" fill="#ffffff" p-id="12347"></path><path d="M1020.54504594 875.0163529l-140.55169125 140.55169124c-8.97544767 8.97544767-23.48893754 8.97544767-32.46438522-1e-8l-11.64898523-11.64898525c-8.97544767-8.97544767-8.97544767-23.48893754 0-32.46438522l140.55169122-140.55169124c8.97544767-8.97544767 23.48893754-8.97544767 32.4643852 0l11.64898528 11.64898529c8.97544767 8.97544767 8.97544767 23.48893754 0 32.46438519zM1088.72025489 943.00059487L948.16856364 1083.55228614c-8.97544767 8.97544767-23.48893754 8.97544767-32.46438524 0l-11.64898524-11.64898528c-8.97544767-8.97544767-8.97544767-23.48893754 0-32.46438522l140.55169124-140.55169124c8.97544767-8.97544767 23.48893754-8.97544767 32.46438521 0l11.64898528 11.64898524c8.78448072 9.16641464 8.78448072 23.67990452 0 32.46438523zM1156.70449687 1011.1758038L1016.15280559 1151.72749506c-8.97544767 8.97544767-23.48893754 8.97544767-32.46438518 0l-11.64898531-11.64898531c-8.97544767-8.97544767-8.97544767-23.48893754 0-32.46438517l140.55169127-140.55169126c8.97544767-8.97544767 23.48893754-8.97544767 32.46438518 0l11.64898532 11.64898526c8.97544767 8.97544767 8.97544767 23.48893754 0 32.46438522z" fill="#ffffff" p-id="12348"></path><path d="M-82.09824928 966.48953238l140.55169125 140.55169127c8.97544767 8.97544767 8.97544767 23.48893754 0 32.46438522l-11.64898529 11.64898525c-8.97544767 8.97544767-23.48893754 8.97544767-32.46438518 0l-140.55169127-140.55169124c-8.97544767-8.97544767-8.97544767-23.48893754 0-32.46438518l11.64898529-11.64898532c8.97544767-8.97544767 23.48893754-8.97544767 32.4643852 0zM-14.11400732 898.50529041l140.55169126 140.55169128c8.97544767 8.97544767 8.97544767 23.48893754 0 32.46438519l-11.64898529 11.64898528c-8.97544767 8.97544767-23.48893754 8.97544767-32.46438522 0l-140.55169122-140.55169125c-8.97544767-8.97544767-8.97544767-23.48893754 0-32.4643852l11.64898526-11.6489853c9.16641464-8.97544767 23.67990452-8.97544767 32.46438521 0zM54.06120165 830.33008146l140.55169121 140.55169129c8.97544767 8.97544767 8.97544767 23.48893754 0 32.4643852l-11.64898525 11.64898531c-8.97544767 8.97544767-23.48893754 8.97544767-32.46438523 0l-140.55169123-140.55169128c-8.97544767-8.97544767-8.97544767-23.48893754 0-32.46438519l11.64898528-11.64898533c8.97544767-8.78448072 23.48893754-8.78448072 32.46438522 0z" fill="#ffffff" p-id="12349"></path><path d="M880.56625562 4.77986237l140.55169123 140.55169123c8.97544767 8.97544767 8.97544767 23.48893754 0 32.46438525l-11.64898524 11.64898523c-8.97544767 8.97544767-23.48893754 8.97544767-32.46438524 0l-140.55169125-140.55169122c-8.97544767-8.97544767-8.97544767-23.48893754 0-32.46438521l11.64898529-11.64898528c8.97544767-8.78448072 23.48893754-8.78448072 32.46438521 0zM948.55049757-63.2043796l140.55169128 140.55169126c8.97544767 8.97544767 8.97544767 23.48893754 0 32.4643852l-11.64898532 11.6489853c-8.97544767 8.97544767-23.48893754 8.97544767-32.46438518 0l-140.55169126-140.55169127c-8.97544767-8.97544767-8.97544767-23.48893754 0-32.46438521l11.64898525-11.64898528c8.97544767-8.97544767 23.48893754-8.97544767 32.46438523 0zM1016.72570652-131.18862155l140.55169122 140.55169124c8.97544767 8.97544767 8.97544767 23.48893754 0 32.46438519l-11.64898524 11.64898527c-8.97544767 8.97544767-23.48893754 8.97544767-32.46438525 0L972.42136903-87.07525108c-8.97544767-8.97544767-8.97544767-23.48893754 0-32.46438519l11.64898531-11.64898528c9.16641464-8.97544767 23.67990452-8.97544767 32.65535218 0z" fill="#ffffff" p-id="12350"></path><path d="M823.62183911-233.17735725a51.94301632 36.09275767 20.764 1 0 25.59117453-67.49696683 51.94301632 36.09275767 20.764 1 0-25.59117453 67.49696683Z" fill="#F8CBCF" p-id="12351"></path></svg>