<?xml version="1.0" standalone="no"?><!DOCTYPE svg PUBLIC "-//W3C//DTD SVG 1.1//EN" "http://www.w3.org/Graphics/SVG/1.1/DTD/svg11.dtd"><svg t="1731902423869" class="icon" viewBox="0 0 1024 1024" version="1.1" xmlns="http://www.w3.org/2000/svg" p-id="20879" xmlns:xlink="http://www.w3.org/1999/xlink" width="200" height="200"><path d="M512 992c265.08 0 480-214.92 480-480S777.08 32 512 32 32 246.92 32 512s214.92 480 480 480z m-19.9996875-199.9996875a60 60 0 1 1 0-120 60 60 0 0 1 0 120z m6.6796875-720c117.7996875 0 213.3196875 98.559375 213.3196875 220.119375s-90.279375 220.08-213.3196875 220.08c-117.84 0-213.36 98.5603125-213.36 220.1203125 0 115.0003125 85.5196875 209.4 194.52 219.1996875l0.440625 0.48c-227.08125-9.9196875-408.28125-203.04-408.28125-439.8 0-243.12 191.0409375-440.199375 426.680625-440.199375z m53.3203125 219.999375a60 60 0 1 0-120 0 60 60 0 0 0 120 0z" fill="#d81e06" p-id="20880" data-spm-anchor-id="a313x.search_index.0.i22.5fd43a813ocdxv" class="selected"></path></svg>