<?xml version="1.0" standalone="no"?><!DOCTYPE svg PUBLIC "-//W3C//DTD SVG 1.1//EN" "http://www.w3.org/Graphics/SVG/1.1/DTD/svg11.dtd"><svg t="1731747922951" class="icon" viewBox="0 0 1024 1024" version="1.1" xmlns="http://www.w3.org/2000/svg" p-id="2266" data-darkreader-inline-fill="" xmlns:xlink="http://www.w3.org/1999/xlink" width="200" height="200"><path d="M676.3 34.8H280.1L0 314.9V711l280.1 280.2h396.2L956.4 711V314.9z" fill="#E5E5E5" p-id="2267" data-darkreader-inline-fill="" style="--darkreader-inline-fill: #272a2c;"></path><path d="M352.9 979.3L80.1 706.5V320.8L352.9 48h385.8l272.8 272.8v385.7L738.7 979.3z" fill="#FFFFFF" p-id="2268" data-darkreader-inline-fill="" style="--darkreader-inline-fill: #181a1b;"></path><path d="M733.5 60.5L999 325.9v375.4L733.5 966.8H358.1L92.6 701.4V325.9L358.1 60.5h375.4m10.4-25H347.7L67.6 315.6v396.1l280.1 280.1h396.1L1024 711.7V315.6L743.9 35.5z" fill="#E8525F" p-id="2269" data-darkreader-inline-fill="" style="--darkreader-inline-fill: #95141f;"></path><path d="M545.8 761.2c-66.1 0-128.3-25.7-175-72.5-46.7-46.7-72.5-108.9-72.5-175s25.7-128.3 72.5-175c46.7-46.7 108.9-72.5 175-72.5s128.3 25.7 175 72.5c46.7 46.7 72.5 108.9 72.5 175s-25.7 128.3-72.5 175c-46.7 46.7-108.9 72.5-175 72.5z" fill="#FFFFFF" p-id="2270" data-darkreader-inline-fill="" style="--darkreader-inline-fill: #181a1b;"></path><path d="M545.8 278.6c129.8 0 235 105.2 235 235s-105.2 235-235 235-235-105.2-235-235 105.2-235 235-235m0-25c-35.1 0-69.1 6.9-101.2 20.4-31 13.1-58.8 31.8-82.6 55.7-23.9 23.9-42.6 51.7-55.7 82.6-13.6 32.1-20.4 66.1-20.4 101.2 0 35.1 6.9 69.1 20.4 101.2 13.1 31 31.8 58.8 55.7 82.6 23.9 23.9 51.7 42.6 82.6 55.7 32.1 13.6 66.1 20.4 101.2 20.4s69.1-6.9 101.2-20.4c31-13.1 58.8-31.8 82.6-55.7 23.9-23.9 42.6-51.7 55.7-82.6 13.6-32.1 20.4-66.1 20.4-101.2 0-35.1-6.9-69.1-20.4-101.2-13.1-31-31.8-58.8-55.7-82.6-23.9-23.9-51.7-42.6-82.6-55.7-32-13.5-66.1-20.4-101.2-20.4zM546.9 749.1h-0.7 0.7z" fill="#E8525F" p-id="2271" data-darkreader-inline-fill="" style="--darkreader-inline-fill: #95141f;"></path><path d="M545.9 513.6h0.3c65 0 117.7-52.7 117.7-117.7 0-64.8-52.4-117.4-117.1-117.7H545.9c-130 0-235.5 105.4-235.5 235.5s105.4 235.5 235.5 235.5h0.2c-65-0.1-117.6-52.7-117.6-117.7s52.6-117.7 117.4-117.9z" fill="#E8525F" p-id="2272" data-darkreader-inline-fill="" style="--darkreader-inline-fill: #95141f;"></path><path d="M544.7 278.2h0.6-0.6zM545.7 513.6h-0.3c-65 0-117.7 52.7-117.7 117.7 0 64.8 52.4 117.4 117.1 117.7H545.7c130 0 235.5-105.4 235.5-235.5S675.7 278.2 545.7 278.2h-0.2c65 0.1 117.6 52.7 117.6 117.7 0 64.9-52.5 117.6-117.4 117.7z" fill="#FFFFFF" p-id="2273" data-darkreader-inline-fill="" style="--darkreader-inline-fill: #181a1b;"></path><path d="M545 631.4m-36.1 0a36.1 36.1 0 1 0 72.2 0 36.1 36.1 0 1 0-72.2 0Z" fill="#E8525F" p-id="2274" data-darkreader-inline-fill="" style="--darkreader-inline-fill: #e95965;"></path><path d="M545.7 395.3m-36.1 0a36.1 36.1 0 1 0 72.2 0 36.1 36.1 0 1 0-72.2 0Z" fill="#FFFFFF" p-id="2275" data-darkreader-inline-fill="" style="--darkreader-inline-fill: #e8e6e3;"></path><path d="M598 123.3H494c-6.6 0-12-5.4-12-12v-8.7c0-6.6 5.4-12 12-12h104c6.6 0 12 5.4 12 12v8.7c0 6.7-5.4 12-12 12zM598 173.7H494c-6.6 0-12-5.4-12-12V153c0-6.6 5.4-12 12-12h104c6.6 0 12 5.4 12 12v8.7c0 6.7-5.4 12-12 12zM598 224.1H494c-6.6 0-12-5.4-12-12v-8.7c0-6.6 5.4-12 12-12h104c6.6 0 12 5.4 12 12v8.7c0 6.7-5.4 12-12 12z" fill="#E8525F" p-id="2276" data-darkreader-inline-fill="" style="--darkreader-inline-fill: #e95965;"></path><path d="M597.7 835.8H493.6c-6.6 0-12-5.4-12-12v-8.7c0-6.6 5.4-12 12-12h104.1c6.6 0 12 5.4 12 12v8.7c0 6.7-5.4 12-12 12zM597.7 886.3H493.6c-6.6 0-12-5.4-12-12v-8.7c0-6.6 5.4-12 12-12h104.1c6.6 0 12 5.4 12 12v8.7c0 6.6-5.4 12-12 12zM597.7 936.7H493.6c-6.6 0-12-5.4-12-12V916c0-6.6 5.4-12 12-12h104.1c6.6 0 12 5.4 12 12v8.7c0 6.6-5.4 12-12 12z" fill="#E8525F" p-id="2277" data-darkreader-inline-fill="" style="--darkreader-inline-fill: #e95965;"></path><path d="M155.5 461.4v104.1c0 6.6-5.4 12-12 12h-8.7c-6.6 0-12-5.4-12-12V461.4c0-6.6 5.4-12 12-12h8.7c6.6 0 12 5.4 12 12zM205.9 461.4v104.1c0 6.6-5.4 12-12 12h-8.7c-6.6 0-12-5.4-12-12V461.4c0-6.6 5.4-12 12-12h8.7c6.6 0 12 5.4 12 12zM256.3 461.4v104.1c0 6.6-5.4 12-12 12h-8.7c-6.6 0-12-5.4-12-12V461.4c0-6.6 5.4-12 12-12h8.7c6.6 0 12 5.4 12 12z" fill="#E8525F" p-id="2278" data-darkreader-inline-fill="" style="--darkreader-inline-fill: #e95965;"></path><path d="M868 461.8v104.1c0 6.6-5.4 12-12 12h-8.7c-6.6 0-12-5.4-12-12V461.8c0-6.6 5.4-12 12-12h8.7c6.6 0 12 5.4 12 12zM918.4 461.8v104.1c0 6.6-5.4 12-12 12h-8.7c-6.6 0-12-5.4-12-12V461.8c0-6.6 5.4-12 12-12h8.7c6.6 0 12 5.4 12 12zM968.8 461.8v104.1c0 6.6-5.4 12-12 12h-8.7c-6.6 0-12-5.4-12-12V461.8c0-6.6 5.4-12 12-12h8.7c6.7 0 12 5.4 12 12z" fill="#E8525F" p-id="2279" data-darkreader-inline-fill="" style="--darkreader-inline-fill: #e95965;"></path><path d="M306.7 200.7l-73.6 73.6c-4.7 4.7-12.3 4.7-17 0l-6.1-6.1c-4.7-4.7-4.7-12.3 0-17l73.6-73.6c4.7-4.7 12.3-4.7 17 0l6.1 6.1c4.7 4.8 4.7 12.4 0 17zM342.4 236.4L268.8 310c-4.7 4.7-12.3 4.7-17 0l-6.1-6.1c-4.7-4.7-4.7-12.3 0-17l73.6-73.6c4.7-4.7 12.3-4.7 17 0l6.1 6.1c4.7 4.7 4.7 12.3 0 17zM378 272l-73.6 73.6c-4.7 4.7-12.3 4.7-17 0l-6.1-6.1c-4.7-4.7-4.7-12.3 0-17l73.6-73.6c4.7-4.7 12.3-4.7 17 0l6.1 6.1c4.7 4.7 4.7 12.3 0 17z" fill="#E8525F" p-id="2280" data-darkreader-inline-fill="" style="--darkreader-inline-fill: #e95965;"></path><path d="M810.3 704.8l-73.6 73.6c-4.7 4.7-12.3 4.7-17 0l-6.1-6.1c-4.7-4.7-4.7-12.3 0-17l73.6-73.6c4.7-4.7 12.3-4.7 17 0l6.1 6.1c4.7 4.7 4.7 12.3 0 17zM846 740.4L772.4 814c-4.7 4.7-12.3 4.7-17 0l-6.1-6.1c-4.7-4.7-4.7-12.3 0-17l73.6-73.6c4.7-4.7 12.3-4.7 17 0l6.1 6.1c4.6 4.8 4.6 12.4 0 17zM881.6 776.1L808 849.7c-4.7 4.7-12.3 4.7-17 0l-6.1-6.1c-4.7-4.7-4.7-12.3 0-17l73.6-73.6c4.7-4.7 12.3-4.7 17 0l6.1 6.1c4.7 4.7 4.7 12.3 0 17z" fill="#E8525F" p-id="2281" data-darkreader-inline-fill="" style="--darkreader-inline-fill: #e95965;"></path><path d="M232.9 752.7l73.6 73.6c4.7 4.7 4.7 12.3 0 17l-6.1 6.1c-4.7 4.7-12.3 4.7-17 0l-73.6-73.6c-4.7-4.7-4.7-12.3 0-17l6.1-6.1c4.7-4.7 12.3-4.7 17 0zM268.5 717.1l73.6 73.6c4.7 4.7 4.7 12.3 0 17l-6.1 6.1c-4.7 4.7-12.3 4.7-17 0l-73.6-73.6c-4.7-4.7-4.7-12.3 0-17l6.1-6.1c4.8-4.7 12.4-4.7 17 0zM304.2 681.4l73.6 73.6c4.7 4.7 4.7 12.3 0 17l-6.1 6.1c-4.7 4.7-12.3 4.7-17 0l-73.6-73.6c-4.7-4.7-4.7-12.3 0-17l6.1-6.1c4.7-4.6 12.3-4.6 17 0z" fill="#E8525F" p-id="2282" data-darkreader-inline-fill="" style="--darkreader-inline-fill: #e95965;"></path><path d="M737 249.1l73.6 73.6c4.7 4.7 4.7 12.3 0 17l-6.1 6.1c-4.7 4.7-12.3 4.7-17 0l-73.6-73.6c-4.7-4.7-4.7-12.3 0-17l6.1-6.1c4.7-4.6 12.3-4.6 17 0zM772.6 213.5l73.6 73.6c4.7 4.7 4.7 12.3 0 17l-6.1 6.1c-4.7 4.7-12.3 4.7-17 0l-73.6-73.6c-4.7-4.7-4.7-12.3 0-17l6.1-6.1c4.7-4.7 12.3-4.7 17 0zM808.3 177.9l73.6 73.6c4.7 4.7 4.7 12.3 0 17l-6.1 6.1c-4.7 4.7-12.3 4.7-17 0L785.1 201c-4.7-4.7-4.7-12.3 0-17l6.1-6.1c4.8-4.7 12.4-4.7 17.1 0z" fill="#E8525F" p-id="2283" data-darkreader-inline-fill="" style="--darkreader-inline-fill: #e95965;"></path><path d="M707.181013 124.493521a27.2 18.9 20.764 1 0 13.400838-35.344838 27.2 18.9 20.764 1 0-13.400838 35.344838Z" fill="#F8CBCF" p-id="2284" data-darkreader-inline-fill="" style="--darkreader-inline-fill: #f4aeb4;"></path></svg>