<?xml version="1.0" standalone="no"?><!DOCTYPE svg PUBLIC "-//W3C//DTD SVG 1.1//EN" "http://www.w3.org/Graphics/SVG/1.1/DTD/svg11.dtd"><svg t="1731905880091" class="icon" viewBox="0 0 1024 1024" version="1.1" xmlns="http://www.w3.org/2000/svg" p-id="21085" xmlns:xlink="http://www.w3.org/1999/xlink" width="200" height="200"><path d="M276.154921 512.455111L656.822857 73.012825l-95.020698-58.433015a85.089524 85.089524 0 0 0-85.625905-1.869207L110.396952 214.844952a86.308571 86.308571 0 0 0-44.438349 73.711746L56.921397 708.624254a86.357333 86.357333 0 0 0 41.187555 75.597206l170.325334 104.041651 6.06273-6.469079 221.866667-309.540572-196.347937-11.166476c-25.892571 1.674159-40.927492-28.932063-23.860825-48.631873" fill="#1296db" p-id="21086"></path><path d="M918.560508 232.513016l-208.050794-127.106032-159.435174 316.676064 157.598476 7.639365c25.51873 0.178794 38.505651 30.96381 20.918857 49.607111L316.188444 917.438984l138.64635 84.715683a85.170794 85.170794 0 0 0 85.625904 1.869206l365.81181-202.134349a86.341079 86.341079 0 0 0 44.438349-73.728l9.05346-420.067556a86.389841 86.389841 0 0 0-41.203809-75.580952" fill="#1296db" p-id="21087"></path></svg>