<?xml version="1.0" standalone="no"?><!DOCTYPE svg PUBLIC "-//W3C//DTD SVG 1.1//EN" "http://www.w3.org/Graphics/SVG/1.1/DTD/svg11.dtd"><svg t="1731748076191" class="icon" viewBox="0 0 1024 1024" version="1.1" xmlns="http://www.w3.org/2000/svg" p-id="4959" data-darkreader-inline-fill="" data-spm-anchor-id="a313x.search_index.0.i17.37843a81kIAQx8" xmlns:xlink="http://www.w3.org/1999/xlink" width="200" height="200"><path d="M517.12 133.12c215.04 0 378.88 174.08 378.88 378.88s-174.08 378.88-378.88 378.88-384-163.84-384-378.88S307.2 133.12 517.12 133.12m0-92.16c-66.56 0-133.12 10.24-189.44 35.84s-102.4 56.32-153.6 97.28c-35.84 40.96-71.68 92.16-97.28 153.6C56.32 384 40.96 450.56 40.96 512s10.24 128 35.84 184.32 56.32 102.4 97.28 153.6c40.96 40.96 92.16 76.8 153.6 97.28s122.88 35.84 184.32 35.84 128-10.24 184.32-35.84 102.4-56.32 153.6-97.28c40.96-40.96 76.8-92.16 97.28-153.6s35.84-122.88 35.84-184.32-10.24-128-30.72-184.32-56.32-102.4-97.28-153.6c-35.84-40.96-92.16-76.8-153.6-97.28S578.56 40.96 517.12 40.96z" fill="#d81e06" p-id="4960" data-darkreader-inline-fill="" style="--darkreader-inline-fill: #ad1805;" data-spm-anchor-id="a313x.search_index.0.i18.37843a81kIAQx8" class="selected"></path><path d="M455.68 727.04c0 35.84 30.72 66.56 66.56 66.56 35.84 0 66.56-30.72 66.56-66.56 0-35.84-30.72-66.56-66.56-66.56-35.84 5.12-66.56 35.84-66.56 66.56z" fill="#333333" p-id="4961" data-darkreader-inline-fill="" style="--darkreader-inline-fill: #c8c3bc;"></path><path d="M512 133.12c-209.92 0-384 168.96-384 384s168.96 384 384 384c-102.4 0-189.44-81.92-189.44-189.44S409.6 512 512 512s189.44-81.92 189.44-189.44c5.12-102.4-76.8-189.44-189.44-189.44z m0 245.76c-30.72 0-56.32-25.6-56.32-56.32 0-30.72 25.6-56.32 56.32-56.32s56.32 25.6 56.32 56.32c5.12 30.72-20.48 56.32-56.32 56.32z" fill="#333333" p-id="4962" data-darkreader-inline-fill="" style="--darkreader-inline-fill: #262a2b;"></path></svg>