<svg viewBox="0 0 1024 1024" height="1024" width="1024" xmlns:xlink="http://www.w3.org/1999/xlink" xmlns="http://www.w3.org/2000/svg">
  <defs>
    <clipPath id="clip-花卉">
      <rect height="1024" width="1024"></rect>
    </clipPath>
  </defs>
  <g clip-path="url(#clip-花卉)" id="花卉">
    <rect fill="#fff" height="1024" width="1024"></rect>
    <g id="组_28">
      <path fill="#277c41" transform="translate(-13222 -1497)" d="M13686.7,2117.294s-42.142-239.358-8.471-476.712c-23.452,266.307,15.447,468.96,15.447,468.96Z" id="路径_184"></path>
      <path fill="#277c41" transform="translate(455.621 256.47) rotate(129)" d="M15.206,0c.92,21.7,4.229,41.56,6.252,48.364s-1.1,15.631-7.724,16.55S.312,60.217.126,50.938-1.712,24.826,15.206,0Z" id="路径_185"></path>
      <path fill="#277c41" transform="translate(455.621 256.47) rotate(129)" d="M15.206,0c.92,21.7,4.229,41.56,6.252,48.364s-1.1,15.631-7.724,16.55S.312,60.217.126,50.938-1.712,24.826,15.206,0Z" id="路径_186"></path>
      <path fill="#277c41" transform="matrix(0.755, 0.656, -0.656, 0.755, 492.291, 246.572)" d="M21.444,93.152c1.3-31.092,5.963-59.548,8.817-69.3S28.705,1.458,19.369.14.44,6.871.179,20.166-2.414,57.581,21.444,93.152Z" id="路径_187"></path>
      <path fill="#277c41" transform="matrix(0.755, 0.656, -0.656, 0.755, 495.291, 364.219)" d="M21.444,93.152c1.3-31.092,5.963-59.548,8.817-69.3S28.705,1.458,19.369.14.44,6.871.179,20.166-2.414,57.581,21.444,93.152Z" id="路径_188"></path>
      <path fill="#277c41" transform="translate(459.722 372.718) rotate(129)" d="M19.811,0c1.2,28.724,5.509,55.013,8.146,64.02S26.519,84.711,17.894,85.928.406,79.71.165,67.428-2.231,32.862,19.811,0Z" id="路径_189"></path>
      <path fill="#277c41" transform="translate(459.722 372.718) rotate(129)" d="M19.811,0c1.2,28.724,5.509,55.013,8.146,64.02S26.519,84.711,17.894,85.928.406,79.71.165,67.428-2.231,32.862,19.811,0Z" id="路径_190"></path>
      <path fill="#277c41" transform="translate(468.956 483.512) rotate(129)" d="M22.481,0c1.36,32.6,6.252,62.429,9.244,72.649S30.094,96.129,20.306,97.51.461,90.454.187,76.516-2.531,37.291,22.481,0Z" id="路径_191"></path>
      <path fill="#dea59e" transform="matrix(0.985, -0.174, 0.174, 0.985, 358.771, 73.315)" d="M71.921,141.958c.642-12.513,2.567-34.963,11.436-35.61s10.313,22.777,11.664,35.61-4.4,19.974-11.664,20.574q-.355.029-.7.029C75.783,162.563,71.3,154.062,71.921,141.958Zm31.385-1.4C97.606,129.4,88.048,108.991,95.4,104s20.318,14.571,27.905,25.01,6.178,19.5.186,23.649a7.855,7.855,0,0,1-4.548,1.436C113.683,154.091,107.674,149.1,103.306,140.554ZM42.026,152.47c-6.592-3.113-6.428-13.021.382-23.536s19.7-29,27.711-25.121S67.66,128.7,62.413,140.485c-4.022,9.034-9.983,13.089-15.515,13.089A11.357,11.357,0,0,1,42.026,152.47Zm88.27-30.277c-10.515-6.811-28.995-19.7-25.121-27.709s24.882,2.459,36.671,7.7,15.1,13.8,11.986,20.386c-1.525,3.229-4.68,4.838-8.737,4.838C140.867,127.414,135.661,125.669,130.3,122.193Zm-115.865.064c-4.151-5.991.943-14.489,12.1-20.19s31.562-15.259,36.558-7.9-14.57,20.319-25.008,27.905c-4.986,3.624-9.657,5.2-13.629,5.2A11.785,11.785,0,0,1,14.431,122.258ZM145.237,93.592c-12.511-.642-34.963-2.567-35.61-11.436s22.779-10.312,35.61-11.664,19.974,4.4,20.574,11.664c.564,6.83-7.059,11.493-18.37,11.493Q146.359,93.649,145.237,93.592ZM.029,81.789c-.6-7.266,8.062-12.078,20.574-11.436s34.963,2.565,35.61,11.436S33.437,92.1,20.6,93.451a34.83,34.83,0,0,1-3.642.2C6.421,93.649.57,88.335.029,81.789ZM105.358,70.437c-4.994-7.357,14.571-20.319,25.01-27.905s19.5-6.179,23.649-.188-.944,14.491-12.1,20.192c-8.272,4.227-21.631,10.574-30.021,10.575C108.97,73.11,106.65,72.339,105.358,70.437ZM26.6,62.414c-11.789-5.246-15.1-13.8-11.985-20.386s13.02-6.43,23.535.383,28.995,19.7,25.121,27.709c-1.008,2.082-3.176,2.915-6.037,2.915C49.094,73.034,35.325,66.3,26.6,62.414ZM42.532,34.8c-7.587-10.439-6.18-19.5-.188-23.649s14.491.943,20.191,12.1,15.259,31.561,7.9,36.557a4.557,4.557,0,0,1-2.617.8C60.293,60.609,49.284,44.089,42.532,34.8ZM95.723,59.991c-8.006-3.875,2.459-24.883,7.705-36.672s13.8-15.1,20.386-11.986,6.428,13.019-.382,23.534c-6.182,9.543-17.374,25.647-25.373,25.648A5.289,5.289,0,0,1,95.723,59.991ZM72.062,20.6C70.711,7.771,76.459.629,83.726.029S95.8,8.093,95.161,20.6s-2.567,34.963-11.436,35.61q-.181.013-.358.013C74.816,56.227,73.394,33.262,72.062,20.6Z" id="联合_6"></path>
      <ellipse fill="#f5b332" transform="matrix(0.985, -0.174, 0.174, 0.985, 418.675, 113.211)" ry="32.28" rx="32.28" cy="32.28" cx="32.28" id="椭圆_1"></ellipse>
    </g>
    <g transform="translate(279.232 -131.061) rotate(22)" id="组_20">
      <path fill="#0d524d" transform="translate(-7550)" d="M8012.807,847.325S7737.5,873.652,7620,614.17c133.242,259.843,399.112,227.782,399.112,227.782Z" id="路径_155"></path>
      <path fill="#0d524d" transform="matrix(0.94, -0.342, 0.342, 0.94, -7931.557, 3112.043)" d="M8377.384,415.731c2.013-48.338,9.254-92.58,13.683-107.737s-2.414-34.82-16.9-36.868-29.377,10.464-29.781,31.133S8340.358,360.429,8377.384,415.731Z" id="路径_156"></path>
      <path fill="#0d524d" transform="translate(153.625 701.189) rotate(108)" d="M25.517,0c1.543,37.065,7.1,70.988,10.492,82.61s-1.851,26.7-12.96,28.27S.523,102.856.213,87.007-2.873,42.4,25.517,0Z" id="路径_160"></path>
      <path fill="#0d524d" transform="matrix(-0.087, 0.996, -0.996, -0.087, 226.343, 764.377)" d="M21.838,0c1.321,31.72,6.073,60.753,8.979,70.7S29.232,93.548,19.725,94.892.447,88.025.182,74.462-2.459,36.29,21.838,0Z" id="路径_161"></path>
      <path fill="#0d524d" transform="translate(309.691 810.764) rotate(76)" d="M17.816,0c1.078,25.879,4.954,49.564,7.325,57.678S23.849,76.32,16.092,77.416.365,71.814.149,60.749-2.006,29.607,17.816,0Z" id="路径_162"></path>
      <path fill="#0d524d" transform="translate(-8200.396 1630.667) rotate(-9)" d="M8370.5,385.768c1.6-38.337,7.341-73.426,10.852-85.447s-1.914-27.616-13.405-29.24-23.3,8.3-23.62,24.692S8341.135,341.907,8370.5,385.768Z" id="路径_157"></path>
      <path fill="#0d524d" transform="translate(-7364.635 4277.535) rotate(-27)" d="M8366.07,363.991c1.329-31.069,6.109-59.505,9.031-69.247s-1.593-22.38-11.156-23.7-19.39,6.726-19.657,20.01S8341.633,328.446,8366.07,363.991Z" id="路径_158"></path>
      <path fill="#0d524d" transform="translate(-5766.039 6506.146) rotate(-45)" d="M8364.493,357.3c1.232-28.836,5.669-55.228,8.382-64.27s-1.479-20.772-10.354-21.994-18,6.242-18.245,18.572S8341.812,324.311,8364.493,357.3Z" id="路径_159"></path>
    </g>
    <g transform="translate(-96.599 145.935) rotate(-15)" id="组_29">
      <path fill="#0e524d" transform="translate(-7554.583 -7.947)" d="M7986.335,831.613S7729.581,856.165,7620,614.17C7744.264,856.5,7992.216,826.6,7992.216,826.6Z" id="路径_155-2"></path>
      <path fill="#0e524d" transform="matrix(0.94, -0.342, 0.342, 0.94, 1.994, 511.646)" d="M31.036,135.064C32.913,89.983,39.666,48.723,43.8,34.587S41.545,2.114,28.033.2.636,9.963.259,29.239-3.495,83.489,31.036,135.064Z" id="路径_156-2"></path>
      <path fill="#0e524d" transform="translate(143.407 687.377) rotate(108)" d="M23.8,0c1.439,34.567,6.618,66.2,9.785,77.043s-1.726,24.9-12.087,26.364S.488,95.924.2,81.144-2.68,39.547,23.8,0Z" id="路径_160-2"></path>
      <path fill="#0e524d" transform="matrix(-0.087, 0.996, -0.996, -0.087, 211.224, 746.307)" d="M20.366,0C21.6,29.583,26.029,56.659,28.74,65.934S27.262,87.244,18.4,88.5.417,82.093.17,69.444-2.293,33.845,20.366,0Z" id="路径_161-2"></path>
      <path fill="#0e524d" transform="translate(288.955 789.568) rotate(76)" d="M16.615,0c1,24.135,4.62,46.224,6.832,53.791S22.242,71.176,15.008,72.2.34,66.974.139,56.655-1.871,27.612,16.615,0Z" id="路径_162-2"></path>
      <path fill="#0e524d" transform="translate(77.876 586.417) rotate(-9)" d="M24.615,107.12C26.1,71.366,31.461,38.642,34.735,27.431S32.95,1.676,22.233.162.5,7.9.205,23.189-2.771,66.215,24.615,107.12Z" id="路径_157-2"></path>
      <path fill="#0e524d" transform="translate(180.134 714.965) rotate(-27)" d="M20.485,86.811c1.239-28.975,5.7-55.495,8.422-64.58S27.422,1.359,18.5.131.42,6.4.17,18.793-2.306,53.661,20.485,86.811Z" id="路径_158-2"></path>
      <path fill="#0e524d" transform="translate(303.881 777.227) rotate(-45)" d="M19.013,80.572C20.162,53.679,24.3,29.065,26.83,20.633S25.45,1.261,17.173.121.389,5.943.158,17.442-2.14,49.8,19.013,80.572Z" id="路径_159-2"></path>
    </g>
    <path fill="#0f5454" transform="translate(-13222 -1497)" d="M13702.25,2101.1s58.378-147.772,121.845-220.663,152.545-146.789,152.545-146.789-87.216,91.723-98.729,130.1-44.223,157.722-44.223,157.722l-96.9,136.236Z" id="路径_192"></path>
    <g id="组_30">
      <path fill="#6aa68a" transform="translate(-13222 -1497)" d="M13455.312,1998.518s6.146-135.2,18.574-176.179,31.1-65.465,60.393-65.148,78.229,78.967,78.229,78.967v76.015l18.923-44.82s68.9,109.765,75.541,156.259c.738.738-22.878,63.469-22.878,63.469l48.708-35.424s31,195.571-25.83,247.232-117.343,77.49-126.937,74.539-88.561-31.734-107.011-151.291-19.926-168.265-17.712-187.453c0-.738,45.756,28.782,45.756,28.782Z" id="路径_193"></path>
      <path fill="#fff" transform="translate(-13222 -1497)" d="M13533.542,1797.043c-16.236,90.037,50.922,473.061,59.778,484.131s6.643-42.8,6.643-42.8S13542.4,1998.519,13533.542,1797.043Z" id="路径_194"></path>
    </g>
    <path fill="#b7d99d" transform="translate(-13222 -1497)" d="M13964.173,2047.375s95.96-75.766,261.918-107.454c-158.01,45.88-280.064,275.8-280.064,275.8l-40.378-94.469Z" id="路径_195"></path>
    <path fill="#65a364" transform="translate(-13222 -1497)" d="M13922.519,2043.7s50.219,1.747,51.529,2.62c-.437,7.424-51.529,99.128-51.529,99.128s77.73-95.635,79.478-95.635,81.655,21.4,107.42,55.022c-13.975,8.734-107.42,55.9-107.42,55.9s119.217-39.739,120.526-37.992c9.6,8.3,29.7,66.813,9.171,104.805-8.3.873-39.3,0-39.3,0l29.689,23.144s-69.434,104.369-199.562,120-181.445-19.869-181.445-19.869l67.556-190.09Z" id="路径_196"></path>
    <g transform="translate(679.814 72.649) rotate(45)" id="组_31">
      <path fill="#b7d99d" transform="translate(-13222 -1497)" d="M13455.179,1961.269s5.1-114.33,15.42-148.986,25.816-55.361,50.139-55.093,68.541,71.05,68.541,71.05l-3.595,60.01,15.711-37.9s59.442,95.932,64.957,135.25c.613.624-20.874,57-20.874,57l32.515-29.3s12.043,168.6-40.944,227.2-73.122,37.821-81.087,35.325-70.761-24.353-86.078-125.456-16.543-142.293-14.7-158.52c0-.624,37.986,24.34,37.986,24.34Z" id="路径_193-2"></path>
      <path fill="#fff" transform="translate(-13233.573 -1453.654)" d="M13533.113,1797.043c-14.662,81.582,44.5,430.886,51.849,440.247,8.347,2.2,11.05-1.366,11.05-1.366S13534.129,1972.686,13533.113,1797.043Z" id="路径_194-2"></path>
    </g>
  </g>
</svg>
