<svg xmlns:xlink="http://www.w3.org/1999/xlink" xmlns="http://www.w3.org/2000/svg" version="1.1" viewBox="0 0 1100 1100" height="1100px" width="1100px">
    <title>外卖跑腿</title>
    <defs>
        <linearGradient id="linearGradient-1" y2="100%" x2="50%" y1="1.37390099e-13%" x1="50%">
            <stop offset="0%" stop-color="#FFD5D7"></stop>
            <stop offset="100%" stop-color="#FFF3F2"></stop>
        </linearGradient>
        <filter id="filter-2" filterUnits="objectBoundingBox" height="153.6%" width="152.4%" y="-16.1%" x="-26.2%">
            <feOffset result="shadowOffsetOuter1" in="SourceAlpha" dy="75" dx="0"></feOffset>
            <feGaussianBlur result="shadowBlurOuter1" in="shadowOffsetOuter1" stdDeviation="50"></feGaussianBlur>
            <feColorMatrix result="shadowMatrixOuter1" in="shadowBlurOuter1" type="matrix" values="0 0 0 0 1   0 0 0 0 0.439215686   0 0 0 0 0.439215686  0 0 0 0.3 0"></feColorMatrix>
            <feMerge>
                <feMergeNode in="shadowMatrixOuter1"></feMergeNode>
                <feMergeNode in="SourceGraphic"></feMergeNode>
            </feMerge>
        </filter>
        <linearGradient id="linearGradient-3" y2="27.7287075%" x2="48.158271%" y1="162.262814%" x1="61.4861779%">
            <stop offset="0%" stop-color="#F0391C"></stop>
            <stop offset="100%" stop-color="#DD1A26"></stop>
        </linearGradient>
        <path id="path-4" d="M104.858715,0 L161.00816,225.382208 C162.485579,231.312525 163.232597,237.401195 163.232597,243.512776 L163.232597,580.455902 C163.232597,591.611113 155.842009,601.416517 145.118257,604.488956 L57.1247582,629.699788 C50.407839,631.624239 43.454947,632.600626 36.4677793,632.600626 L8.53055313,632.600626 L8.53055313,632.600626 L0,257.600626 L104.858715,0 Z"></path>
        <linearGradient id="linearGradient-6" y2="63.7303587%" x2="-38.8863817%" y1="63.7303587%" x1="74.9575192%">
            <stop offset="0%" stop-color="#D12128"></stop>
            <stop offset="100%" stop-color="#FF3136"></stop>
        </linearGradient>
        <linearGradient id="linearGradient-7" y2="54.1598543%" x2="34.8980463%" y1="45.8401457%" x1="28.036454%">
            <stop offset="0%" stop-color="#D12128"></stop>
            <stop offset="59.8332581%" stop-color="#FF5D67"></stop>
            <stop offset="100%" stop-color="#FF3F41"></stop>
        </linearGradient>
        <linearGradient id="linearGradient-8" y2="100%" x2="50%" y1="0%" x1="50%">
            <stop offset="0%" stop-opacity="0" stop-color="#FFCECC"></stop>
            <stop offset="100%" stop-color="#FFA09D"></stop>
        </linearGradient>
        <filter id="filter-9" filterUnits="objectBoundingBox" height="114.7%" width="301.2%" y="-7.6%" x="-100.3%">
            <feGaussianBlur in="SourceGraphic" stdDeviation="15"></feGaussianBlur>
        </filter>
        <linearGradient id="linearGradient-10" y2="100%" x2="50%" y1="1.37390099e-13%" x1="50%">
            <stop offset="0%" stop-color="#FF8777"></stop>
            <stop offset="40.3638835%" stop-color="#FF6C6F"></stop>
            <stop offset="44.6300925%" stop-color="#FF3035"></stop>
            <stop offset="100%" stop-color="#FF3B47"></stop>
            <stop offset="100%" stop-color="#FC1622"></stop>
        </linearGradient>
        <path id="path-11" d="M591.387836,31.5779351 L527.642713,265.310051 C525.888734,271.74131 525,278.377707 525,285.043856 L525,625 C525,638.807119 513.807119,650 500,650 L25,650 C11.1928813,650 1.69088438e-15,638.807119 0,625 L2.27373675e-13,285.043856 C2.26557308e-13,278.377707 0.888733516,271.74131 2.64271341,265.310051 L69.9758005,18.4220649 C72.9421273,7.54553323 82.8211196,1.27291002e-14 94.094896,1.0658141e-14 L567.26874,3.55271368e-15 C581.075859,1.01638711e-15 592.26874,11.1928813 592.26874,25 C592.26874,27.2220497 591.972496,29.4341819 591.387836,31.5779351 Z"></path>
        <filter id="filter-13" filterUnits="objectBoundingBox" height="115.4%" width="115.4%" y="-7.7%" x="-8.3%">
            <feGaussianBlur result="shadowBlurInner1" in="SourceAlpha" stdDeviation="37.5"></feGaussianBlur>
            <feOffset result="shadowOffsetInner1" in="shadowBlurInner1" dy="25" dx="0"></feOffset>
            <feComposite result="shadowInnerInner1" k3="1" k2="-1" operator="arithmetic" in2="SourceAlpha" in="shadowOffsetInner1"></feComposite>
            <feColorMatrix in="shadowInnerInner1" type="matrix" values="0 0 0 0 1   0 0 0 0 1   0 0 0 0 1  0 0 0 0.5 0"></feColorMatrix>
        </filter>
        <linearGradient id="linearGradient-14" y2="50%" x2="100%" y1="50%" x1="2.22044605e-13%">
            <stop offset="0%" stop-color="#FFFFFF"></stop>
            <stop offset="100%" stop-opacity="0.556572334" stop-color="#FFFFFF"></stop>
        </linearGradient>
        <linearGradient id="linearGradient-15" y2="50%" x2="100%" y1="50%" x1="2.22044605e-13%">
            <stop offset="0%" stop-color="#FFFFFF"></stop>
            <stop offset="100%" stop-opacity="0.556572334" stop-color="#FFFFFF"></stop>
        </linearGradient>
        <filter id="filter-16" filterUnits="objectBoundingBox" height="143.6%" width="143.6%" y="-21.8%" x="-21.8%">
            <feGaussianBlur in="SourceGraphic" stdDeviation="20"></feGaussianBlur>
        </filter>
        <linearGradient id="linearGradient-17" y2="57.3138656%" x2="54.4978817%" y1="42.6861344%" x1="62.7192075%">
            <stop offset="0%" stop-color="#FFA399"></stop>
            <stop offset="100%" stop-color="#EB2A36"></stop>
        </linearGradient>
        <linearGradient id="linearGradient-18" y2="56.7434647%" x2="54.360132%" y1="43.2565353%" x1="62.7192075%">
            <stop offset="0%" stop-color="#FF8F83"></stop>
            <stop offset="100%" stop-color="#FF9E8B"></stop>
        </linearGradient>
        <path id="path-19" d="M592.175561,31.820479 L570.689162,107.58979 C552.637447,171.247083 494.514447,215.17958 428.347118,215.17958 L126.928526,215.17958 C80.0474149,215.17958 42.0427653,177.17493 42.0427653,130.293819 C42.0427653,122.620818 43.0831112,114.983243 45.1353757,107.58979 L69.9166036,18.3133576 C72.9207545,7.49065457 82.7738773,5.61598225e-15 94.0057882,3.55271368e-15 L568.123927,3.55271368e-14 C581.931046,3.29908102e-14 593.123927,11.1928813 593.123927,25 C593.123927,27.3063544 592.804778,29.6016154 592.175561,31.820479 Z"></path>
        <filter id="filter-20" filterUnits="objectBoundingBox" height="134.9%" width="106.9%" y="-17.4%" x="-1.8%">
            <feGaussianBlur result="shadowBlurInner1" in="SourceAlpha" stdDeviation="25"></feGaussianBlur>
            <feOffset result="shadowOffsetInner1" in="shadowBlurInner1" dy="25" dx="0"></feOffset>
            <feComposite result="shadowInnerInner1" k3="1" k2="-1" operator="arithmetic" in2="SourceAlpha" in="shadowOffsetInner1"></feComposite>
            <feColorMatrix in="shadowInnerInner1" type="matrix" values="0 0 0 0 1   0 0 0 0 1   0 0 0 0 1  0 0 0 0.544771635 0"></feColorMatrix>
        </filter>
        <path id="path-21" d="M28.1343323,0 L278.134332,0 C291.941451,0 301.81019,11.1928813 300.176777,25 C298.543364,38.8071187 286.026341,50 272.219222,50 L22.2192218,50 C8.41210307,50 -1.4566356,38.8071187 0.176777057,25 C1.81018971,11.1928813 14.3272136,0 28.1343323,0 Z"></path>
        <linearGradient id="linearGradient-23" y2="107.575521%" x2="50%" y1="0%" x1="50%">
            <stop offset="0%" stop-color="#FFD980"></stop>
            <stop offset="40.2161153%" stop-color="#FFE277"></stop>
            <stop offset="48.7654078%" stop-color="#FFB74C"></stop>
            <stop offset="100%" stop-color="#FF8529"></stop>
        </linearGradient>
        <linearGradient id="linearGradient-24" y2="100%" x2="91.2118379%" y1="0%" x1="2.60292148%">
            <stop offset="0%" stop-color="#FFDF9F"></stop>
            <stop offset="100%" stop-color="#FFAB2E"></stop>
        </linearGradient>
        <circle r="150" cy="150" cx="150" id="path-25"></circle>
        <filter id="filter-26" filterUnits="objectBoundingBox" height="141.7%" width="141.7%" y="-20.8%" x="-20.8%">
            <feGaussianBlur result="shadowBlurInner1" in="SourceAlpha" stdDeviation="50"></feGaussianBlur>
            <feOffset result="shadowOffsetInner1" in="shadowBlurInner1" dy="25" dx="0"></feOffset>
            <feComposite result="shadowInnerInner1" k3="1" k2="-1" operator="arithmetic" in2="SourceAlpha" in="shadowOffsetInner1"></feComposite>
            <feColorMatrix in="shadowInnerInner1" type="matrix" values="0 0 0 0 1   0 0 0 0 1   0 0 0 0 1  0 0 0 0.834517045 0"></feColorMatrix>
        </filter>
        <linearGradient id="linearGradient-27" y2="100%" x2="50%" y1="0%" x1="50%">
            <stop offset="0%" stop-color="#FFBB90"></stop>
            <stop offset="100%" stop-color="#FF3B31"></stop>
        </linearGradient>
    </defs>
    <g fill-rule="evenodd" fill="none" stroke-width="1" stroke="none" id="外卖跑腿">
        <rect height="1100" width="1100" y="0" x="0" fill="#FFFFFF"></rect>
        <g transform="translate(50, 90)" id="外卖">
            <rect height="1000" width="1000" y="0" x="0" id="矩形"></rect>
            <path fill="url(#linearGradient-1)" id="椭圆形" d="M500,1000 C776.142375,1000 1000,777.144932 1000,502.239273 C1000,322.872703 797.332453,300 500,300 C202.667547,300 0,325.717179 0,502.239273 C0,777.144932 223.857625,1000 500,1000 Z"></path>
            <g transform="translate(175, 100)" filter="url(#filter-2)" id="编组-37">
                <g transform="translate(325, 325) scale(-1, 1) translate(-325, -325)" id="编组-10">
                    <g transform="translate(486.7674, 17.3994)" id="路径-12">
                        <mask fill="white" id="mask-5">
                            <use xlink:href="#path-4"></use>
                        </mask>
                        <use xlink:href="#path-4" fill="url(#linearGradient-3)" id="蒙版"></use>
                        <polygon points="70.9366397 584.105479 70.9366397 248.807202 105.650724 5.21570383 225.874299 14.6530756 263.262142 467.839283 201.867287 652.577854 93.4471595 641.686212" mask="url(#mask-5)" fill="url(#linearGradient-6)" id="路径-6"></polygon>
                        <polygon points="188.232597 580.767539 70.9976479 584.046481 8.53055313 632.600626 69.6189182 632.600626 172.590673 617.979359" mask="url(#mask-5)" fill="url(#linearGradient-7)" id="路径-5"></polygon>
                        <polyline points="98.3815753 0 155.394975 248.572065 155.394975 632.600626" mask="url(#mask-5)" filter="url(#filter-9)" opacity="0.803222656" stroke-width="25" stroke="url(#linearGradient-8)" id="路径-15"></polyline>
                    </g>
                    <g id="形状结合">
                        <mask fill="white" id="mask-12">
                            <use xlink:href="#path-11"></use>
                        </mask>
                        <g id="蒙版">
                            <use xlink:href="#path-11" fill-rule="evenodd" fill="url(#linearGradient-10)"></use>
                            <use xlink:href="#path-11" filter="url(#filter-13)" fill-opacity="1" fill="black"></use>
                        </g>
                        <rect rx="12.5" height="25" width="89.2857143" y="499.8535" x="386.127427" transform="translate(430.7703, 512.3535) scale(-1, 1) translate(-430.7703, -512.3535)" mask="url(#mask-12)" fill="url(#linearGradient-14)" id="矩形"></rect>
                        <rect rx="12.5" height="25" width="125" y="550" x="350" transform="translate(412.5, 562.5) scale(-1, 1) translate(-412.5, -562.5)" mask="url(#mask-12)" fill="url(#linearGradient-15)" id="矩形备份-3"></rect>
                        <path mask="url(#mask-12)" filter="url(#filter-16)" opacity="0.749488467" fill="#E70E14" d="M250,425 C277.614237,425 300,447.385763 300,475 C300,487.202012 295.629122,498.38315 288.367646,507.063136 C295.846624,524.02034 300,542.775133 300,562.5 C300,638.439153 238.439153,700 162.5,700 C86.5608469,700 25,638.439153 25,562.5 C25,486.560847 86.5608469,425 162.5,425 C182.224867,425 200.97966,429.153376 217.937532,436.633279 C226.61685,429.370878 237.797988,425 250,425 Z"></path>
                    </g>
                    <path fill="url(#linearGradient-17)" id="路径-11" d="M592.582254,31.5807237 L570.61944,112.07438 C552.564524,178.245601 492.458592,224.14876 423.868429,224.14876 L129.069313,224.14876 C80.7443974,224.14876 41.569313,184.973676 41.569313,136.64876 C41.569313,129.025411 42.5655597,121.43475 44.5327472,114.069587 L70.0457328,18.5488078 C72.9674941,7.60971508 82.8764741,9.18534848e-15 94.1990373,7.10542736e-15 L568.46392,7.10542736e-15 C582.271038,-5.67468238e-14 593.46392,11.1928813 593.46392,25 C593.46392,27.2230175 593.167417,29.4361044 592.582254,31.5807237 Z"></path>
                    <g id="路径-11">
                        <use xlink:href="#path-19" fill-rule="evenodd" fill="url(#linearGradient-18)"></use>
                        <use xlink:href="#path-19" filter="url(#filter-20)" fill-opacity="1" fill="black"></use>
                    </g>
                    <path fill="#FFFFFF" id="矩形" d="M180.91511,50 L430.91511,50 C444.722229,50 454.590968,61.1928813 452.957555,75 C451.324143,88.8071187 438.807119,100 425,100 L175,100 C161.192881,100 151.324143,88.8071187 152.957555,75 C154.590968,61.1928813 167.107992,50 180.91511,50 Z"></path>
                    <g transform="translate(152.7808, 50)" id="矩形">
                        <mask fill="white" id="mask-22">
                            <use xlink:href="#path-21"></use>
                        </mask>
                        <use xlink:href="#path-21" fill="#CA1823" id="蒙版"></use>
                        <path mask="url(#mask-22)" fill="#FFFFFF" d="M53.1343323,0 L303.134332,0 C316.941451,0 326.81019,11.1928813 325.176777,25 C323.543364,38.8071187 311.026341,50 297.219222,50 L47.2192218,50 C33.4121031,50 23.5433644,38.8071187 25.1767771,25 C26.8101897,11.1928813 39.3272136,0 53.1343323,0 Z"></path>
                    </g>
                </g>
                <path fill="url(#linearGradient-23)" stroke-width="7.5" stroke="#FFFFFF" id="路径-3" d="M430.406852,168.809546 C434.090933,168.809546 437.544484,170.048926 440.31343,172.178466 C443.082376,174.308006 445.166717,177.327707 446.112381,180.88835 L468.075731,263.585481 C470.216615,271.646411 471.300679,279.951419 471.300679,288.291801 L471.300679,338.973445 C471.300679,355.537783 464.586654,370.533977 453.731545,381.389086 C442.876436,392.244195 427.880242,398.95822 411.315904,398.95822 L382.210884,398.95822 C365.646546,398.95822 350.650352,392.244195 339.795243,381.389086 C328.940134,370.533977 322.226109,355.537783 322.226109,338.973445 L322.226109,288.293547 C322.226109,279.302073 321.057263,270.348744 318.748952,261.658616 L297.00685,179.805866 C296.812173,179.072963 296.713596,178.317863 296.713596,177.559546 C296.713596,175.1433 297.692973,172.9558 299.276412,171.372362 C300.85985,169.788923 303.04735,168.809546 305.463596,168.809546 Z"></path>
                <g transform="translate(415, 400)" id="编组-42">
                    <circle r="50.7954545" cy="54.5454545" cx="54.5454545" fill="#F94D58" stroke-width="7.5" stroke="#FFFFFF" id="椭圆形"></circle>
                    <circle r="50.7954545" cy="54.5454545" cx="245.454545" fill="#F94D58" stroke-width="7.5" stroke="#FFFFFF" id="椭圆形"></circle>
                    <g id="椭圆形">
                        <use xlink:href="#path-25" fill-rule="evenodd" fill="url(#linearGradient-24)"></use>
                        <use xlink:href="#path-25" filter="url(#filter-26)" fill-opacity="1" fill="black"></use>
                        <circle r="146.25" cy="150" cx="150" stroke-linejoin="square" stroke-width="7.5" stroke="#FFFFFF"></circle>
                    </g>
                    <path fill="url(#linearGradient-27)" stroke-width="7.5" stroke="#FFFFFF" id="路径-14" d="M150.377536,57.5435755 C162.701239,57.5435755 172.691574,66.4326887 172.691574,77.3979654 L172.691574,134.049158 L202.945876,159.666393 C211.131427,166.593638 212.110894,177.730815 205.675377,185.658874 L203.736237,187.735933 C195.243049,195.681316 181.119013,195.996168 172.189321,188.439173 L136.540539,158.270421 C131.127675,153.689638 128.063498,147.333818 128.063498,140.687055 L128.063498,77.3979654 C128.063498,66.4326887 138.053833,57.5435755 150.377536,57.5435755 Z"></path>
                </g>
            </g>
        </g>
    </g>
</svg>