<?xml version="1.0" standalone="no"?><!DOCTYPE svg PUBLIC "-//W3C//DTD SVG 1.1//EN" "http://www.w3.org/Graphics/SVG/1.1/DTD/svg11.dtd"><svg t="1731893766685" class="icon" viewBox="0 0 1024 1024" version="1.1" xmlns="http://www.w3.org/2000/svg" p-id="7425" xmlns:xlink="http://www.w3.org/1999/xlink" width="200" height="200"><path d="M224.993955 936.051699a516.162602 516.162602 0 0 1 252.958098-291.809047v-108.014176a78.769231 78.769231 0 0 1-18.571607 5.123202c-42.69335 7.25787-106.733375-9.17907-164.582864-42.69335s-103.958307-80.263498-119.327913-121.249114 1.707734-70.870961 45.041484-78.555764 106.733375 9.17907 164.369397 42.69335a286.685845 286.685845 0 0 1 115.272045 111.00271 211.332083 211.332083 0 0 1 39.277882-53.366687A376.982281 376.982281 0 0 1 704.440275 305.257453c58.916823-15.369606 105.025641-7.471336 121.035647 20.279341s0 71.724828-42.69335 115.058578a378.690015 378.690015 0 0 1-163.942464 94.56577 154.33646 154.33646 0 0 1-96.913904 0v89.442569a515.095268 515.095268 0 0 1 476.884719 49.310819A512.3202 512.3202 0 1 0 0 499.725662v24.548676a511.0394 511.0394 0 0 0 224.993955 411.777361z" fill="#83CCAD" p-id="7426"></path><path d="M490.973525 501.006462a19.212008 19.212008 0 0 1 7.89827-1.494267 21.346675 21.346675 0 0 1 9.606004 2.348134 70.657494 70.657494 0 0 0-4.482802-38.637481c-1.280801-3.202001-2.561601-6.404003-4.269335-9.819471a78.982698 78.982698 0 0 0-8.752137 47.603085zM508.904732 501.860329a44.401084 44.401084 0 0 1-8.752137 18.358141 51.658954 51.658954 0 0 0 21.346675 15.156139v-14.515739a21.346675 21.346675 0 0 0-12.594538-18.998541z" fill="#FFFFFF" p-id="7427"></path><path d="M500.152595 520.21847a46.962685 46.962685 0 0 1-3.628934-5.336669 51.445487 51.445487 0 0 1-5.123202-13.875339 21.346675 21.346675 0 0 0-13.448406 19.852408v15.369606a52.939754 52.939754 0 0 0 22.200542-16.010006z" fill="#FFFFFF" p-id="7428"></path><path d="M499.298728 499.512195a19.212008 19.212008 0 0 0-7.898269 1.494267 51.445487 51.445487 0 0 0 5.123202 13.875339 46.962685 46.962685 0 0 0 3.628934 5.336669 44.401084 44.401084 0 0 0 8.752137-18.358141 21.346675 21.346675 0 0 0-9.606004-2.348134z" fill="#FFFFFF" p-id="7429"></path><path d="M712.338545 587.88743a514.241401 514.241401 0 0 0-192.120075 36.929747c-14.515739 5.763602-28.818011 12.381072-42.69335 19.425475a516.162602 516.162602 0 0 0-252.531165 291.809047 512.3202 512.3202 0 0 0 772.536168-261.923702 512.3202 512.3202 0 0 0-285.191578-86.240567z" fill="#BBEFD9" p-id="7430"></path><path d="M824.408589 325.536794c-16.010006-27.750678-62.118824-35.648947-121.035648-20.279341a376.982281 376.982281 0 0 0-163.942464 94.779237 206.208881 206.208881 0 0 0-39.277882 53.366687c1.707734 3.415468 2.988535 6.617469 4.269335 9.819471a70.657494 70.657494 0 0 1 4.482802 38.637481 21.346675 21.346675 0 0 1 11.740671 18.998541v14.515739a154.33646 154.33646 0 0 0 96.913905 0 378.690015 378.690015 0 0 0 163.942464-94.56577c42.69335-43.547217 59.13029-87.307901 42.906817-115.272045zM490.973525 501.006462a78.982698 78.982698 0 0 1 8.752137-47.603085A286.685845 286.685845 0 0 0 384.24015 341.5468c-58.48989-33.941213-121.249114-50.378153-164.369397-42.69335s-59.77069 37.570148-44.401084 78.555764 60.838024 87.094434 119.327913 121.035647 121.249114 50.164686 164.582864 42.69335a78.769231 78.769231 0 0 0 18.571607-5.123202v-15.156139a21.346675 21.346675 0 0 1 13.021472-19.852408z" fill="#FFFFFF" p-id="7431"></path><path d="M477.952053 536.228476v329.379195h42.69335V535.374609a51.658954 51.658954 0 0 1-21.346675-15.156139 52.939754 52.939754 0 0 1-21.346675 16.010006z" fill="#FFFFFF" p-id="7432"></path></svg>