<svg viewBox="0 0 1024 1024" height="1024" width="1024" xmlns:xlink="http://www.w3.org/1999/xlink" xmlns="http://www.w3.org/2000/svg">
  <defs>
    <clipPath id="clip-花丛">
      <rect height="1024" width="1024"></rect>
    </clipPath>
  </defs>
  <g clip-path="url(#clip-花丛)" id="花丛">
    <rect fill="#fff" height="1024" width="1024"></rect>
    <g id="组_42">
      <path fill="#a2e78f" transform="translate(-6215.77 6425.426)" d="M6854.232-5919.864c-2.82-3.481-16.529-26.148-2.671-126.383,1.158,58.367,15.274,90.824,18.063,95.9,4.655-9.445,9.572-19.635,14.609-30.375a3.921,3.921,0,0,1-.389-.338,291.848,291.848,0,0,0-5.767-83.667c-8.294-.883-79.968-10-103.076-63.591,28.577,38.313,84.323,40.027,96.99,39.9-22.35-74.655-66.4-120.646-66.4-120.646l3.558-6.048s29.41,28.444,53.008,78.816c2.063-13.564,11.173-84.058-16.728-115.808,41.6,33.148,32.422,133.4,30.527,150.466a299.02,299.02,0,0,1,15,105.28q-.035.657-.076,1.28c9.207-20.131,18.661-41.9,27.629-64.365-5.167-8.993-32.327-61.672-16.686-151.294-1.176,77.348,22.293,111.263,28.923,119.278,23.843-65.427,41.053-133.252,34.947-182.546,1.8,1.2,9.618.6,9.618,0,.919,41.5-6.748,86.368-18.682,130.177,18.542-3.472,98.846-21.759,152.044-85.788-63.719,110.7-147.522,117.558-161.579,117.916a1013.3,1013.3,0,0,1-37.656,98.378c11.673-.842,52.749-6.98,87.328-51.308-53.6,86.917-99.18,93.348-107.133,94.023-21.884,44.964-39.355,74.108-39.355,74.108l-16.868,15.473S6841.734-5895.7,6854.232-5919.864Z" id="联合_14"></path>
      <circle fill="#fff047" transform="translate(727 56)" r="25" cy="25" cx="25" id="椭圆_11"></circle>
      <path fill="#ff7676" transform="translate(-6093.758 6282.733)" d="M6847.659-6134.277s-.891,8.13-8.8,8.13-8.684-11.513-8.684-11.513-1.13-7.953,5.522-16.417l11.8-15.042v-.2l.077.1.076-.1v.2l11.8,15.042c6.654,8.464,5.529,16.417,5.529,16.417s-.795,11.513-8.69,11.513S6847.659-6134.277,6847.659-6134.277ZM6876.4-6145.3s-6.423-4.825-7.7-15.515l-2.288-18.985-.141-.141.124.018-.016-.125.141.141,18.983,2.29c10.69,1.281,15.518,7.7,15.518,7.7s7.579,8.7,2,14.285-11.86.365-11.86.365,5.118,6.378-.473,11.968a6.77,6.77,0,0,1-4.957,2.054C6881.042-6141.248,6876.4-6145.3,6876.4-6145.3Zm-72.915,2c-5.581-5.583-.363-11.86-.363-11.86s-6.378,5.118-11.968-.472,2-14.28,2-14.28,4.824-6.423,15.514-7.7l18.983-2.288.141-.141-.016.124.123-.016-.139.141-2.29,18.983c-1.281,10.69-7.7,15.518-7.7,15.518s-4.647,4.048-9.329,4.048A6.772,6.772,0,0,1,6803.485-6143.306Zm-16.973-36.02s-11.513-.793-11.513-8.69,8.127-8.644,8.127-8.644-8.127-.891-8.127-8.8,11.513-8.683,11.513-8.683,7.953-1.13,16.417,5.522l15.042,11.8h.2l-.1.076.1.077h-.2l-15.042,11.8a24.583,24.583,0,0,1-15.014,5.6A11.133,11.133,0,0,1,6786.513-6179.326Zm102.729-10.525-15.042-11.8h-.2l.1-.077-.1-.076h.2l15.042-11.8c8.465-6.652,16.417-5.527,16.417-5.527s11.513.793,11.513,8.688-8.129,8.644-8.129,8.644,8.129.891,8.129,8.8-11.513,8.686-11.513,8.686a11.2,11.2,0,0,1-1.413.072A24.57,24.57,0,0,1,6889.241-6189.851Zm-65.585-27.707-18.983-2.29c-10.69-1.281-15.518-7.7-15.518-7.7s-7.579-8.7-2-14.284,11.858-.365,11.858-.365-5.118-6.378.472-11.968,14.282,2,14.282,2,6.423,4.824,7.7,15.514l2.29,18.983.141.141-.124-.016.016.124Zm39.738-7.663-.125.016.141-.141,2.29-18.983c1.281-10.69,7.7-15.518,7.7-15.518s8.7-7.579,14.285-2,.365,11.86.365,11.86,6.378-5.118,11.968.472-2,14.28-2,14.28-4.824,6.423-15.514,7.7l-18.985,2.288-.139.141Zm-19.807-5.708-.075.1v-.2l-11.8-15.042c-6.654-8.465-5.529-16.417-5.529-16.417s.793-11.513,8.688-11.513,8.646,8.129,8.646,8.129.891-8.129,8.8-8.129,8.684,11.513,8.684,11.513,1.13,7.953-5.522,16.417l-11.8,15.042v.2Z" id="联合_15"></path>
      <ellipse fill="#ffa54e" transform="translate(555.735 149.467) rotate(20)" ry="17.103" rx="17.103" cy="17.103" cx="17.103" id="椭圆_12"></ellipse>
      <path fill="#ff7555" transform="translate(537.834 108.462) rotate(20)" d="M49.656,95.488s-.609,5.556-6.011,5.556-5.934-7.868-5.934-7.868-.772-5.435,3.774-11.22l8.067-10.28V71.54l.053.068.052-.068v.137l8.067,10.28c4.548,5.785,3.779,11.22,3.779,11.22s-.543,7.868-5.939,7.868S49.656,95.488,49.656,95.488ZM69.3,87.954s-4.39-3.3-5.266-10.6L62.469,64.377l-.1-.1.085.012-.011-.085.1.1,12.973,1.565c7.306.876,10.606,5.262,10.606,5.262s5.179,5.948,1.364,9.763-8.105.249-8.105.249,3.5,4.359-.323,8.179a4.626,4.626,0,0,1-3.388,1.4C72.471,90.724,69.3,87.954,69.3,87.954ZM19.467,89.318c-3.814-3.816-.248-8.106-.248-8.106s-4.359,3.5-8.179-.323,1.367-9.759,1.367-9.759,3.3-4.39,10.6-5.266L35.983,64.3l.1-.1-.011.084.085-.011-.1.1L34.493,77.349c-.876,7.306-5.263,10.605-5.263,10.605s-3.176,2.766-6.375,2.766A4.628,4.628,0,0,1,19.467,89.318ZM7.868,64.7S0,64.16,0,58.763s5.554-5.907,5.554-5.907S0,52.247,0,46.844,7.868,40.91,7.868,40.91s5.435-.772,11.22,3.774l10.28,8.067H29.5l-.068.052.068.052h-.136l-10.28,8.068A16.8,16.8,0,0,1,8.827,64.751,7.6,7.6,0,0,1,7.868,64.7Zm70.206-7.193-10.28-8.068h-.136l.067-.052-.067-.052h.136l10.28-8.068c5.785-4.546,11.22-3.777,11.22-3.777s7.868.543,7.868,5.938-5.556,5.907-5.556,5.907,5.556.609,5.556,6.011-7.868,5.936-7.868,5.936a7.667,7.667,0,0,1-.966.049A16.792,16.792,0,0,1,78.074,57.509ZM33.252,38.574,20.279,37.009c-7.306-.876-10.606-5.263-10.606-5.263S4.494,25.8,8.309,21.985s8.1-.25,8.1-.25-3.5-4.359.322-8.179,9.76,1.367,9.76,1.367,4.39,3.3,5.264,10.6L33.326,38.5l.1.1-.085-.011.011.084Zm27.158-5.237-.086.011.1-.1,1.565-12.973c.876-7.306,5.262-10.605,5.262-10.605s5.947-5.18,9.762-1.365.25,8.106.25,8.106,4.359-3.5,8.179.322S84.071,26.5,84.071,26.5s-3.3,4.39-10.6,5.265L60.494,33.326l-.1.1Zm-13.537-3.9-.051.068v-.137l-8.067-10.28c-4.548-5.785-3.779-11.22-3.779-11.22S35.518,0,40.914,0s5.908,5.556,5.908,5.556S47.431,0,52.833,0s5.934,7.868,5.934,7.868.772,5.435-3.774,11.22l-8.067,10.28V29.5Z" id="联合_16"></path>
    </g>
    <g id="组_43">
      <path fill="#f0b064" transform="translate(-6502.637 6506.451)" d="M6790.722-5796.526s-2.108-77.057,15.034-172.475c-8.684-17.468-35.964-86.787-29.88-259.2,4.866,151.865,34.508,200.72,40.444,209.037,22.806-93.692,65.723-194.735,146.325-254.839-171.922,143.006-142.227,514.2-142.227,514.2Z" id="联合_18"></path>
      <path fill="#f0b064" transform="translate(-6638.816 6545.642)" d="M6879.6-5882.668s-4.059-13.943-10.581-36.6l-9.235,17.181s-69-160.417-81.174-203.6c19.441,52.661,80.328,166.363,89.585,183.553-26.723-92.893-91.286-319.952-93.191-351.867,19.836,98.585,123.832,400.949,123.832,400.949Z" id="联合_17"></path>
      <circle fill="#f670a9" transform="translate(129 488)" r="11" cy="11" cx="11" id="椭圆_13"></circle>
      <circle fill="#f670a9" transform="translate(127 349)" r="11" cy="11" cx="11" id="椭圆_14"></circle>
      <circle fill="#f670a9" transform="translate(222 272)" r="19" cy="19" cx="19" id="椭圆_15"></circle>
      <circle fill="#f876de" transform="translate(395 214)" r="17" cy="17" cx="17" id="椭圆_16"></circle>
      <circle fill="#f876de" transform="translate(373 370)" r="10" cy="10" cx="10" id="椭圆_17"></circle>
    </g>
    <path fill="#1f8a7f" transform="translate(-6444.828 6643.806)" d="M6775-5984.254c18.852,30.946,68.649,103.152,68.649,103.152l-11.381,14.583S6795.986-5903.51,6775-5984.254Zm78.253,51.931c-6.686-17.386-12.142-47.184-11.516-82.567-8.309-10.1-40.625-55.936-34.726-152.189.712,28.454,13.518,55.845,24.9,69.361,6.808,8.083,10.18,33.6,11.791,52.8a299.583,299.583,0,0,1,15.371-66.934c-.343.106-.522.155-.522.155s-14.9-60.364,33.473-84.55S6991.261-6274,6991.261-6274s-28.669,49.939-59.65,100.342c-22.5,36.608-50.858,52.725-64.694,58.805a203.882,203.882,0,0,0-8.823,29.608c9.879-6.263,61.387-38.715,71.988-41.285,11.738-2.847,54.065-26.678,71.5-58.69-46.937,108.961-134.325,104.16-144.208,103.249a329.894,329.894,0,0,0-7.007,60.118c10.445-7.072,51.7-34.062,71.184-32.826,22.409,1.423,76.474-54.067,85.367-75.053-23.421,86.7-111.091,115.67-156.645,112.253a394.105,394.105,0,0,0,6.9,78.753c.524,0-.109,12.167-1.761,12.167C6854.816-5926.56,6854.1-5928.112,6853.253-5932.323Zm-57.267-157.571c2.133-3.2,10.315,97.459,56.555,157.572C6772.51-5984.609,6801.321-6003.46,6795.986-6089.894Zm56.555,115.6c-.712-4.27,28.456-41.262,78.964-34.5s-13.873,36.637-13.873,36.637-19.266.953-36.835.953C6866.161-5971.208,6852.7-5971.869,6852.542-5974.293Z" id="联合_19"></path>
    <g transform="matrix(0.94, 0.342, -0.342, 0.94, 539.571, 322.863)" id="组_45">
      <path fill="#6dd8a5" transform="translate(6656.545 -6853.738)" d="M-6411.177,6853.738s-24.657,105.63-100.8,172.781-157.372,218.052-142.869,348.583,41.338,200.7,41.338,200.7,273.4-106.386,327.8-343.3S-6314,6889.2-6314,6889.2s20.306,80.731,5.8,92.8C-6353.886,6886.936-6411.177,6853.738-6411.177,6853.738Z" id="路径_245"></path>
      <path fill="#3ba975" transform="translate(337.202 721.386) rotate(180)" d="M73.552,670.413c.05.639.1,1.291.153,1.93C73.652,671.692,73.6,671.064,73.552,670.413ZM83.571,474.361c-8.811,8.754-39.561,42-58.762,97,16.813-69.974,52.218-105.17,61.8-113.654,18.851-98.038,52.746-186.884,87.755-259.653-7.382,3.75-32.256,17.053-62.72,40.629,1.5,12.874-12.67,83.677-61.472,135.129C92.611,312.9,95.225,258.339,95.386,251.85,63.112,279.2,27.266,317.085,0,366.253c55.052-127.06,185.008-204.269,195.7-210.459C246.822,59.151,294.282,0,294.282,0l8.985,27.028s-29.175,36.742-66.816,97.883c6.774,27.486,36.543,155.594,20.128,221.523,7.252-101.477-25.939-174.268-36.4-194.4A1310.452,1310.452,0,0,0,147.4,295.678a421.443,421.443,0,0,1,25.768,60.5c7.455,3.038,40.53,19.305,56.58,73.953-18.1-42.314-41.842-52.945-50.817-55.526,9.66,33.664,16.418,73.986,11.536,113.909C193.917,405.9,150.227,333.2,138.949,315.89c-42.981,105.65-75.033,229.968-65.4,354.522C68.282,602.7,72.782,536.8,83.571,474.361Z" id="联合_20"></path>
    </g>
    <g id="组_44">
      <path fill="#63d0c2" transform="translate(6775 -6274)" d="M-6564.735,6853.737s15.721,64.736,64.274,105.89,100.342,133.635,91.094,213.63-26.357,123-26.357,123-174.326-65.2-209.006-210.394,18.034-210.393,18.034-210.393-12.947,49.477-3.7,56.875C-6601.265,6874.083-6564.735,6853.737-6564.735,6853.737Z" id="路径_245-2"></path>
      <path fill="#49a599" transform="translate(-6623.291 6883.794)" d="M6899.667-5957.494c-7.578-4.231-89.75-51.46-124.667-128.918,17.385,30.133,40.241,53.353,60.819,70.112-.1-3.977-1.769-37.413-28.828-74.744,31.119,31.534,40.152,74.926,39.2,82.814a265.877,265.877,0,0,0,39.986,24.9c-21.995-44.238-43.264-98.337-55.291-158.577-4.929-4.044-28.912-25.59-40.064-70.2,12.8,35.228,33.639,55.9,38.143,60.083-2.406-13.361-4.347-27.02-5.727-40.909,6.117,49.269,21.1,96.65,39.233,139.022,4.567-6.468,36.32-53.5,33.976-107.424,3.112,24.467-1.2,49.177-7.356,69.809,5.722-1.582,20.857-8.1,32.4-34.029-10.233,33.492-31.323,43.462-36.076,45.324a246.753,246.753,0,0,1-17.428,38.852,760.83,760.83,0,0,0,46.837,87.29c5.931-10.68,28.542-56.093,23.778-120.172,10.716,41.373-9.442,122.7-13.119,136.867,24.147,36.828,42.888,58.883,42.888,58.883l-5.729,16.565S6932.289-5897.93,6899.667-5957.494ZM6821.995-6274a475.789,475.789,0,0,0,1.239,81.063A360.417,360.417,0,0,1,6821.995-6274Z" id="联合_20-2"></path>
    </g>
  </g>
</svg>
