<svg xmlns:xlink="http://www.w3.org/1999/xlink" xmlns="http://www.w3.org/2000/svg" version="1.1" viewBox="0 0 1100 1100" height="1100px" width="1100px">
    <title>定位到家</title>
    <defs>
        <rect height="1000" width="1000" y="0" x="0" id="path-1"></rect>
        <linearGradient id="linearGradient-3" y2="99.5028409%" x2="50%" y1="0%" x1="50%">
            <stop offset="0%" stop-color="#FFDFB2"></stop>
            <stop offset="100%" stop-color="#FFFAE1"></stop>
        </linearGradient>
        <linearGradient id="linearGradient-4" y2="50%" x2="3.14216068%" y1="50%" x1="87.7196578%">
            <stop offset="0%" stop-color="#FF8623"></stop>
            <stop offset="100%" stop-opacity="0" stop-color="#FF8B29"></stop>
        </linearGradient>
        <filter id="filter-5" filterUnits="objectBoundingBox" height="155.0%" width="152.2%" y="-14.5%" x="-26.1%">
            <feOffset result="shadowOffsetOuter1" in="SourceAlpha" dy="75" dx="0"></feOffset>
            <feGaussianBlur result="shadowBlurOuter1" in="shadowOffsetOuter1" stdDeviation="50"></feGaussianBlur>
            <feColorMatrix result="shadowMatrixOuter1" in="shadowBlurOuter1" type="matrix" values="0 0 0 0 1   0 0 0 0 0.537254902   0 0 0 0 0.0862745098  0 0 0 0.276988636 0"></feColorMatrix>
            <feMerge>
                <feMergeNode in="shadowMatrixOuter1"></feMergeNode>
                <feMergeNode in="SourceGraphic"></feMergeNode>
            </feMerge>
        </filter>
        <linearGradient id="linearGradient-6" y2="100%" x2="50%" y1="0%" x1="50%">
            <stop offset="0%" stop-color="#FF4D10"></stop>
            <stop offset="49.0244899%" stop-color="#FF9651"></stop>
            <stop offset="100%" stop-color="#FF9853"></stop>
        </linearGradient>
        <rect rx="25" height="200" width="100" y="0" x="0" id="path-7"></rect>
        <filter id="filter-9" filterUnits="objectBoundingBox" height="150.0%" width="200.0%" y="-25.0%" x="-50.0%">
            <feGaussianBlur result="shadowBlurInner1" in="SourceAlpha" stdDeviation="37.5"></feGaussianBlur>
            <feOffset result="shadowOffsetInner1" in="shadowBlurInner1" dy="-25" dx="0"></feOffset>
            <feComposite result="shadowInnerInner1" k3="1" k2="-1" operator="arithmetic" in2="SourceAlpha" in="shadowOffsetInner1"></feComposite>
            <feColorMatrix in="shadowInnerInner1" type="matrix" values="0 0 0 0 1   0 0 0 0 0.262931034   0 0 0 0 0  0 0 0 1 0"></feColorMatrix>
        </filter>
        <linearGradient id="linearGradient-10" y2="64.283227%" x2="50%" y1="38.1026426%" x1="42.189716%">
            <stop offset="0%" stop-color="#FFFFFF"></stop>
            <stop offset="100%" stop-opacity="0" stop-color="#FFFFFF"></stop>
        </linearGradient>
        <filter id="filter-11" filterUnits="objectBoundingBox" height="400.0%" width="313.8%" y="-150.0%" x="-106.9%">
            <feGaussianBlur in="SourceGraphic" stdDeviation="12.5"></feGaussianBlur>
        </filter>
        <linearGradient id="linearGradient-12" y2="100%" x2="50%" y1="6.2645564%" x1="50%">
            <stop offset="0%" stop-color="#FFD968"></stop>
            <stop offset="100%" stop-color="#FF7810"></stop>
        </linearGradient>
        <path id="path-13" d="M153.143228,181.51175 L361.611247,50.9008522 L361.611247,50.9008522 L566.676432,181.349494 C624.381964,218.057863 659.329088,281.707691 659.329088,350.099451 L659.329088,639.339237 C659.329088,666.953475 636.943326,689.339237 609.329088,689.339237 L109.329088,689.339237 C81.714851,689.339237 59.3290885,666.953475 59.3290885,639.339237 L59.3290885,350.994974 C59.3290885,282.115021 94.773246,218.082135 153.143228,181.51175 Z"></path>
        <filter id="filter-14" filterUnits="objectBoundingBox" height="115.7%" width="116.7%" y="-7.8%" x="-8.3%">
            <feGaussianBlur result="shadowBlurInner1" in="SourceAlpha" stdDeviation="50"></feGaussianBlur>
            <feOffset result="shadowOffsetInner1" in="shadowBlurInner1" dy="0" dx="0"></feOffset>
            <feComposite result="shadowInnerInner1" k3="1" k2="-1" operator="arithmetic" in2="SourceAlpha" in="shadowOffsetInner1"></feComposite>
            <feColorMatrix in="shadowInnerInner1" type="matrix" values="0 0 0 0 1   0 0 0 0 0.5   0 0 0 0 0  0 0 0 1 0"></feColorMatrix>
        </filter>
        <linearGradient id="linearGradient-15" y2="100%" x2="50%" y1="6.2645564%" x1="50%">
            <stop offset="0%" stop-color="#FD6229"></stop>
            <stop offset="100%" stop-color="#FF8629"></stop>
        </linearGradient>
        <filter id="filter-16" filterUnits="objectBoundingBox" height="113.8%" width="112.5%" y="-12.0%" x="-6.2%">
            <feGaussianBlur in="SourceGraphic" stdDeviation="12.5"></feGaussianBlur>
        </filter>
        <linearGradient id="linearGradient-17" y2="85.2472898%" x2="50%" y1="4.23982659%" x1="50%">
            <stop offset="0%" stop-color="#FF9451"></stop>
            <stop offset="100%" stop-color="#FF6B39"></stop>
        </linearGradient>
        <path id="path-18" d="M383.63226,8.39019338 L383.63226,8.39019338 L383.63226,8.39019338 L705.137001,260.413792 C720.47851,272.439811 723.166245,294.625576 711.140225,309.967085 C710.780021,310.426595 710.408471,310.877096 710.025917,311.318173 C696.412948,327.01365 672.882094,329.273542 656.530731,316.455826 L359.326525,83.4795809 L359.326525,83.4795809 L62.1272715,316.455604 C45.776041,329.273417 22.2452001,327.013617 8.63226014,311.318173 C-4.13994458,296.59208 -2.55600521,274.300305 12.1700877,261.528101 C12.6111647,261.145547 13.0616661,260.773996 13.521176,260.413792 L335.025917,8.39019338 L335.025917,8.39019338 C349.296998,-2.79673113 369.361179,-2.79673113 383.63226,8.39019338 Z"></path>
        <filter id="filter-20" filterUnits="objectBoundingBox" height="115.4%" width="107.0%" y="-7.7%" x="-3.5%">
            <feGaussianBlur result="shadowBlurInner1" in="SourceAlpha" stdDeviation="12.5"></feGaussianBlur>
            <feOffset result="shadowOffsetInner1" in="shadowBlurInner1" dy="-25" dx="0"></feOffset>
            <feComposite result="shadowInnerInner1" k3="1" k2="-1" operator="arithmetic" in2="SourceAlpha" in="shadowOffsetInner1"></feComposite>
            <feColorMatrix in="shadowInnerInner1" type="matrix" values="0 0 0 0 1   0 0 0 0 0.189072027   0 0 0 0 0.0268864329  0 0 0 1 0"></feColorMatrix>
        </filter>
        <linearGradient id="linearGradient-21" y2="57.5229079%" x2="50%" y1="43.7337183%" x1="42.189716%">
            <stop offset="0%" stop-color="#FFFFFF"></stop>
            <stop offset="100%" stop-opacity="0" stop-color="#FFFFFF"></stop>
        </linearGradient>
        <filter id="filter-22" filterUnits="objectBoundingBox" height="136.4%" width="115.1%" y="-16.9%" x="-7.6%">
            <feGaussianBlur in="SourceGraphic" stdDeviation="12.5"></feGaussianBlur>
        </filter>
        <linearGradient id="linearGradient-23" y2="100%" x2="50%" y1="6.2645564%" x1="50%">
            <stop offset="0%" stop-color="#FF8629"></stop>
            <stop offset="100%" stop-color="#FFC742"></stop>
        </linearGradient>
        <filter id="filter-24" filterUnits="objectBoundingBox" height="280.0%" width="130.0%" y="-90.0%" x="-15.0%">
            <feGaussianBlur in="SourceGraphic" stdDeviation="15"></feGaussianBlur>
        </filter>
        <linearGradient id="linearGradient-25" y2="94.6180202%" x2="50%" y1="0%" x1="50%">
            <stop offset="0%" stop-color="#FFEECC"></stop>
            <stop offset="100%" stop-color="#FFCD69"></stop>
        </linearGradient>
        <path id="path-26" d="M393.660797,715.112854 C495.772991,618.659792 546.829088,539.235253 546.829088,476.839237 C546.829088,373.285846 462.882479,289.339237 359.329088,289.339237 C255.775698,289.339237 171.829088,373.285846 171.829088,476.839237 C171.829088,539.235253 222.885186,618.659792 324.99738,715.112854 L324.99641,715.113881 C344.266477,733.314896 374.3917,733.314896 393.661767,715.113881 Z"></path>
        <filter id="filter-27" filterUnits="objectBoundingBox" height="161.7%" width="180.0%" y="-32.8%" x="-40.0%">
            <feOffset result="shadowOffsetOuter1" in="SourceAlpha" dy="0" dx="0"></feOffset>
            <feGaussianBlur result="shadowBlurOuter1" in="shadowOffsetOuter1" stdDeviation="50"></feGaussianBlur>
            <feComposite result="shadowBlurOuter1" operator="out" in2="SourceAlpha" in="shadowBlurOuter1"></feComposite>
            <feColorMatrix in="shadowBlurOuter1" type="matrix" values="0 0 0 0 1   0 0 0 0 0.517647059   0 0 0 0 0.0666666667  0 0 0 0.604403409 0"></feColorMatrix>
        </filter>
        <filter id="filter-28" filterUnits="objectBoundingBox" height="167.2%" width="186.7%" y="-35.5%" x="-43.3%">
            <feGaussianBlur result="shadowBlurInner1" in="SourceAlpha" stdDeviation="50"></feGaussianBlur>
            <feOffset result="shadowOffsetInner1" in="shadowBlurInner1" dy="25" dx="0"></feOffset>
            <feComposite result="shadowInnerInner1" k3="1" k2="-1" operator="arithmetic" in2="SourceAlpha" in="shadowOffsetInner1"></feComposite>
            <feColorMatrix in="shadowInnerInner1" type="matrix" values="0 0 0 0 1   0 0 0 0 1   0 0 0 0 1  0 0 0 0.826021635 0"></feColorMatrix>
        </filter>
        <circle r="75" cy="474.003136" cx="359.420943" id="path-29"></circle>
        <filter id="filter-30" filterUnits="objectBoundingBox" height="255.0%" width="255.0%" y="-77.5%" x="-77.5%">
            <feMorphology result="shadowSpreadOuter1" in="SourceAlpha" operator="dilate" radius="3.75"></feMorphology>
            <feOffset result="shadowOffsetOuter1" in="shadowSpreadOuter1" dy="0" dx="0"></feOffset>
            <feGaussianBlur result="shadowBlurOuter1" in="shadowOffsetOuter1" stdDeviation="37.5"></feGaussianBlur>
            <feComposite result="shadowBlurOuter1" operator="out" in2="SourceAlpha" in="shadowBlurOuter1"></feComposite>
            <feColorMatrix in="shadowBlurOuter1" type="matrix" values="0 0 0 0 1   0 0 0 0 0.696388767   0 0 0 0 0.3  0 0 0 1 0"></feColorMatrix>
        </filter>
        <filter id="filter-31" filterUnits="objectBoundingBox" height="271.7%" width="271.7%" y="-85.8%" x="-85.8%">
            <feGaussianBlur result="shadowBlurInner1" in="SourceAlpha" stdDeviation="37.5"></feGaussianBlur>
            <feOffset result="shadowOffsetInner1" in="shadowBlurInner1" dy="25" dx="0"></feOffset>
            <feComposite result="shadowInnerInner1" k3="1" k2="-1" operator="arithmetic" in2="SourceAlpha" in="shadowOffsetInner1"></feComposite>
            <feColorMatrix in="shadowInnerInner1" type="matrix" values="0 0 0 0 0.948001585   0 0 0 0 0.347600581   0 0 0 0 0  0 0 0 1 0"></feColorMatrix>
        </filter>
    </defs>
    <g fill-rule="evenodd" fill="none" stroke-width="1" stroke="none" id="定位到家">
        <rect height="1100" width="1100" y="0" x="0" fill="#FFFFFF"></rect>
        <g transform="translate(50, 90)" id="到家">
            <mask fill="white" id="mask-2">
                <use xlink:href="#path-1"></use>
            </mask>
            <g id="矩形"></g>
            <g mask="url(#mask-2)" id="编组-23">
                <g transform="translate(0, 60.6608)">
                    <path fill="url(#linearGradient-3)" id="椭圆形备份-5" d="M500,939.339237 C776.142375,939.339237 1000,716.484169 1000,441.578511 C1000,262.21194 797.332453,239.339237 500,239.339237 C202.667547,239.339237 0,265.056416 0,441.578511 C0,716.484169 223.857625,939.339237 500,939.339237 Z"></path>
                    <path fill="url(#linearGradient-4)" id="形状结合" d="M462.5,739.339237 L537.5,739.339237 C544.403559,739.339237 550,744.935678 550,751.839237 C550,758.742796 544.403559,764.339237 537.5,764.339237 L462.5,764.339237 C455.596441,764.339237 450,758.742796 450,751.839237 C450,744.935678 455.596441,739.339237 462.5,739.339237 Z M312.5,739.339237 L387.5,739.339237 C394.403559,739.339237 400,744.935678 400,751.839237 C400,758.742796 394.403559,764.339237 387.5,764.339237 L312.5,764.339237 C305.596441,764.339237 300,758.742796 300,751.839237 C300,744.935678 305.596441,739.339237 312.5,739.339237 Z M162.5,739.339237 L237.5,739.339237 C244.403559,739.339237 250,744.935678 250,751.839237 C250,758.742796 244.403559,764.339237 237.5,764.339237 L162.5,764.339237 C155.596441,764.339237 150,758.742796 150,751.839237 C150,744.935678 155.596441,739.339237 162.5,739.339237 Z"></path>
                    <g transform="translate(140.6709, 0)" fill="none" stroke-width="1" filter="url(#filter-5)" id="编组-41">
                        <g transform="translate(534.3291, 89.3392)" id="路径-18">
                            <mask fill="white" id="mask-8">
                                <use xlink:href="#path-7"></use>
                            </mask>
                            <g id="蒙版">
                                <use xlink:href="#path-7" fill-rule="evenodd" fill="url(#linearGradient-6)"></use>
                                <use xlink:href="#path-7" filter="url(#filter-9)" fill-opacity="1" fill="black"></use>
                            </g>
                            <line mask="url(#mask-8)" filter="url(#filter-11)" stroke-linecap="round" opacity="0.520414807" stroke-width="25" stroke="url(#linearGradient-10)" y2="22.6186892" x2="73.4693101" y1="22.6186892" x1="26.6945206"></line>
                        </g>
                        <g id="矩形">
                            <use xlink:href="#path-13" fill-rule="evenodd" fill="url(#linearGradient-12)"></use>
                            <use xlink:href="#path-13" filter="url(#filter-14)" fill-opacity="1" fill="black"></use>
                        </g>
                        <path filter="url(#filter-16)" opacity="0.404251" fill="url(#linearGradient-15)" id="矩形" d="M111.562146,207.563432 L361.611247,50.9008522 L361.611247,50.9008522 L607.322017,207.205475 C639.712839,227.810332 659.329088,263.53776 659.329088,301.926893 C659.329088,318.224525 646.117247,331.436366 629.819615,331.436366 C623.088069,331.436366 616.558842,329.134881 611.3152,324.913751 L361.611247,123.902124 L361.611247,123.902124 L107.628424,325.27105 C94.7358027,335.492896 75.9978244,333.327805 65.7759782,320.435183 C61.6010628,315.169441 59.3290885,308.64686 59.3290885,301.926893 C59.3290885,263.576486 79.0633921,227.924787 111.562146,207.563432 Z"></path>
                        <g transform="translate(0, 0)" id="路径-17">
                            <mask fill="white" id="mask-19">
                                <use xlink:href="#path-18"></use>
                            </mask>
                            <g id="蒙版">
                                <use xlink:href="#path-18" fill-rule="evenodd" fill="url(#linearGradient-17)"></use>
                                <use xlink:href="#path-18" filter="url(#filter-20)" fill-opacity="1" fill="black"></use>
                            </g>
                            <path mask="url(#mask-19)" filter="url(#filter-22)" stroke-linecap="round" opacity="0.712751116" stroke-width="25" stroke="url(#linearGradient-21)" d="M26.3577708,264.997176 L344.033902,20.0595423 C353.072985,13.0901441 365.68468,13.1277679 374.682019,20.1509732 L688.351376,264.997176 L688.351376,264.997176"></path>
                        </g>
                        <ellipse ry="25" rx="150" cy="751.696169" cx="359.75494" filter="url(#filter-24)" opacity="0.497886" fill="url(#linearGradient-23)" id="椭圆形"></ellipse>
                        <g id="椭圆形">
                            <use xlink:href="#path-26" filter="url(#filter-27)" fill-opacity="1" fill="black"></use>
                            <use xlink:href="#path-26" fill-rule="evenodd" fill="url(#linearGradient-25)"></use>
                            <use xlink:href="#path-26" filter="url(#filter-28)" fill-opacity="1" fill="black"></use>
                            <path stroke-linejoin="square" d="M359.329088,293.089237 C410.07025,293.089237 456.00775,313.656156 489.25996,346.908366 C522.512169,380.160576 543.079088,426.098076 543.079088,476.839237 C543.079088,538.616632 492.029681,617.037207 391.0857,712.386798 C382.173846,720.805145 370.751557,725.014343 359.32914,725.014514 C347.906536,725.014685 336.483809,720.805697 327.57147,712.387791 C226.628496,617.037229 175.579088,538.61664 175.579088,476.839237 C175.579088,426.098076 196.146008,380.160576 229.398217,346.908366 C262.650427,313.656156 308.587927,293.089237 359.329088,293.089237 Z" stroke-width="7.5" stroke="#FFFFFF"></path>
                        </g>
                        <g id="椭圆形">
                            <use xlink:href="#path-29" filter="url(#filter-30)" fill-opacity="1" fill="black"></use>
                            <use xlink:href="#path-29" fill-rule="evenodd" fill="#FD5F29"></use>
                            <use xlink:href="#path-29" filter="url(#filter-31)" fill-opacity="1" fill="black"></use>
                            <use xlink:href="#path-29" stroke-width="7.5" stroke="#FFFFFF"></use>
                        </g>
                    </g>
                </g>
            </g>
        </g>
    </g>
</svg>