<svg viewBox="0 0 1024 1024" height="1024" width="1024" xmlns:xlink="http://www.w3.org/1999/xlink" xmlns="http://www.w3.org/2000/svg">
  <defs>
    <clipPath id="clip-path">
      <path stroke-width="2" stroke="#d57249" fill="none" transform="translate(-8047.717 -287.824)" d="M8070.578,936.822c174.613-90.72,178.451-561.269,153.506-649C8157.885,366.581,7986.15,676.625,8070.578,936.822Z" id="路径_175"></path>
    </clipPath>
    <clipPath id="clip-path-2">
      <path stroke-width="2" stroke="#438a78" fill="none" d="M10.862,528.45C162.77,452.057,172.509,68.621,152.182-2.5,93.985,62.6-58.435,317.651,10.862,528.45Z" id="路径_175-2"></path>
    </clipPath>
    <clipPath id="clip-path-3">
      <path stroke-width="2" stroke="#8eb66d" fill="none" d="M22.087,430.387C138.16,372.14,135.826,60.313,118.194,1.9,74.652,53.385-37.206,257.025,22.087,430.387Z" id="路径_175-3"></path>
    </clipPath>
    <clipPath id="clip-草丛">
      <rect height="1024" width="1024"></rect>
    </clipPath>
  </defs>
  <g clip-path="url(#clip-草丛)" id="草丛">
    <rect fill="#fff" height="1024" width="1024"></rect>
    <g transform="matrix(0.999, -0.035, 0.035, 0.999, 302.092, 228.636)" id="组_30">
      <path fill="#72c9a1" transform="translate(0)" d="M.456,250.754S6.786,110.268,19.271,67.669,50.458-.395,79.755-.106,157.88,81.838,157.88,81.838l-.1,78.983,18.984-46.6s68.753,113.957,75.332,162.258c.737.766-22.965,65.978-22.965,65.978l48.758-36.874s30.731,203.167-26.168,256.922-117.454,80.677-127.044,77.623S36.151,607.279,17.863,483.078-1.834,308.269.407,288.328c0-.767,45.719,29.844,45.719,29.844Z" id="路径_193"></path>
      <path fill="#fff" transform="translate(76.442 41.308)" d="M2.522,0C-13.837,93.571,52.8,491.463,61.643,502.953s6.7-44.485,6.7-44.485S11.1,209.328,2.522,0Z" id="路径_194"></path>
    </g>
    <g transform="translate(481.49 116.941)" id="组_17">
      <path fill="#cf6a3e" transform="translate(41.01 27.487)" d="M25.1,265.552c-9.839-14.133-48.049-82.69-5.214-247.915-29.561,166.935.19,222.819,8.376,234.478C50.373,162.528,95.34,65.078,185.2,0-17.753,165.644,22.1,468.558,22.1,468.558l-12.546,4.6S.092,377.2,25.1,265.552Z" id="联合_11"></path>
      <ellipse fill="#a71375" transform="translate(0 34.29)" ry="24" rx="24" cy="24" cx="24" id="椭圆_8"></ellipse>
      <ellipse fill="#7570a6" transform="translate(165 0)" ry="24" rx="24" cy="24" cx="24" id="椭圆_9"></ellipse>
      <path fill="#cf6a3e" transform="translate(-8036.208 -172.469)" d="M8211.676,834.05s224.4-16.351,346.344-142.53c-111.44,130.368-352.033,152.607-352.033,152.607Z" id="路径_139"></path>
      <path fill="#cf6a3e" transform="translate(-8036.208 -178.242)" d="M8189.121,859.457s221.4-74.327,353.111-315.6c-106.729,229.471-372.413,338.6-372.413,338.6Z" id="路径_140"></path>
    </g>
    <g transform="translate(672.596 234.783)" id="组_18">
      <path fill="#d5703c" transform="translate(-8201.106 -266.608)" d="M8201.105,706.885s101.547-159.6,158.3-326c-34.616,129.819-152.131,339.233-152.131,339.233Z" id="路径_141"></path>
      <path fill="#c992b9" transform="translate(46.428 0)" d="M72.258,310.551c12.064-3.327,21.851,3.649,23.116,12.9S86.386,340.3,76.838,340.2s-36.453,3.108-64.851,10.233C37.814,318.141,60.193,313.878,72.258,310.551ZM3.45,246.464c-5.3-8.3-4.749-21.439,3.444-25.392s19.2.8,23.1,13.178,12.69,34.3.639,74.579C20.876,280.074,8.754,254.768,3.45,246.464ZM111.97,219c10.644-2.935,19.274,3.22,20.39,11.377s-7.927,14.863-16.35,14.778-32.155,2.74-57.205,9.027C81.587,225.69,101.328,221.93,111.97,219ZM48.892,145.358c-5.577-8.108-5.467-21.252,2.588-25.5s19.213.1,23.531,12.332,13.836,33.822,3.143,74.51C67.436,178.316,54.471,153.465,48.892,145.358Zm93.5-22.971c8.439-2.327,15.283,2.553,16.168,9.021s-6.287,11.785-12.965,11.718-25.5,2.173-45.356,7.157C118.3,127.7,133.953,124.714,142.392,122.387ZM97.685,31.6C93.989,18.685,99.7,1.93,111.794.186S136.315,9.1,136.652,26.714s3.359,49.565-27.546,96.687C107.426,82.213,101.381,44.515,97.685,31.6Z" id="联合_12"></path>
    </g>
    <g transform="translate(89.915 165.51)" id="组_19">
      <path fill="#d46c49" transform="translate(-7618.427 -199.061)" d="M8036.063,909.989S7619.676,840.2,7686.836,336.755C7633.958,846.488,8042.779,905,8042.779,905Z" id="路径_148"></path>
      <path fill="#c23629" transform="matrix(0.94, 0.342, -0.342, 0.94, 85.228, 0)" d="M35.218,147.6C36.644,98.5,43.371,53.63,47.633,38.281S44.778,2.863,30.2.6.816,10.865.665,31.866-2.659,90.934,35.218,147.6Z" id="路径_149"></path>
      <path fill="#c23629" transform="translate(97.794 134.654) rotate(30)" d="M31,126.527c1.058-42.04,6.717-80.439,10.349-93.566S38.747,2.622,26.127.628.745,9.307.689,27.29-1.975,77.857,31,126.527Z" id="路径_150"></path>
      <path fill="#c23629" transform="translate(82.692 283.749) rotate(140)" d="M21.77-.412C22.5,30.836,26.7,59.369,29.409,69.12s-2,22.557-11.506,24.062S-1.187,86.775-1.2,73.409-3.124,35.825,21.77-.412Z" id="路径_185"></path>
      <path fill="#c23629" transform="matrix(0.978, 0.208, -0.208, 0.978, 105.244, 344.769)" d="M26.515,112.732C27.778,75.186,33.1,40.854,36.42,29.1S34.353,2.034,23.171.354.589,8.3.4,24.362-2.354,69.536,26.515,112.732Z" id="路径_151"></path>
      <path fill="#c23629" transform="translate(108.417 401.204) rotate(133)" d="M26.144-.5c.876,36.833,5.919,70.463,9.176,81.956s-2.4,26.59-13.817,28.37S-1.424,102.287-1.44,86.53-3.75,42.23,26.144-.5Z" id="路径_152"></path>
      <path fill="#c23629" transform="translate(151.683 502.589) rotate(112)" d="M22.1-.29c.927,30.38,5.361,58.138,8.173,67.631s-1.9,21.917-11.539,23.332S-.686,84.348-.78,71.354-2.957,34.809,22.1-.29Z" id="路径_153"></path>
      <path fill="#c23629" transform="translate(173.621 506.871) rotate(-10)" d="M25.924,107.027C27.766,71.234,33.768,38.446,37.381,27.2S35.617,1.44,24.039,0,.495,7.9.072,23.206-3.422,66.287,25.924,107.027Z" id="路径_154"></path>
      <path fill="#c23629" transform="matrix(0.999, -0.052, 0.052, 0.999, 311.786, 581.63)" d="M26.375,107.261C28.055,71.438,33.9,38.643,37.464,27.4S35.586,1.607,24.014.113.529,7.915.176,23.231-3.123,66.342,26.375,107.261Z" id="路径_164"></path>
      <path fill="#c23629" transform="translate(370.736 674.726) rotate(77)" d="M25.5.211c1.816,31.956,7.614,61.238,11.092,71.283S34.935,94.488,23.846,95.75,1.281,88.649.854,74.988-2.557,36.522,25.5.211Z" id="路径_165"></path>
    </g>
    <g transform="translate(21.426 469.051)" id="组_20">
      <path fill="#d46c49" transform="translate(-7549.936 -491.778)" d="M8067.931,926.925s-291.563-54.86-447.642-313.371c167.433,255.562,447.642,301.868,447.642,301.868Z" id="路径_155"></path>
      <path fill="#c23629" transform="translate(0 18.799) rotate(-22)" d="M31.5,149.24C34.175,99.249,42.057,53.422,46.716,37.7S44.761,1.738,30.222-.182.541,11.033-.146,32.4-4.982,92.581,31.5,149.24Z" id="路径_156"></path>
      <path fill="#c23629" transform="translate(120.818 162.724) rotate(93)" d="M26.512-.052c1.528,37.065,7.227,70.981,10.732,82.6s-1.978,26.706-13.523,28.3S.333,102.866.043,87.016-3.072,42.415,26.512-.052Z" id="路径_160"></path>
      <path fill="#c23629" transform="translate(185.818 232.343) rotate(93)" d="M26.512-.052c1.528,37.065,7.227,70.981,10.732,82.6s-1.978,26.706-13.523,28.3S.333,102.866.043,87.016-3.072,42.415,26.512-.052Z" id="路径_161"></path>
      <path fill="#c23629" transform="translate(276.454 298.339) rotate(93)" d="M29.771-.059c1.716,41.623,8.116,79.709,12.051,92.753S39.6,122.684,26.637,124.473.374,115.513.049,97.715-3.45,47.63,29.771-.059Z" id="路径_162"></path>
      <path fill="#c23629" transform="translate(357.791 349.579) rotate(81)" d="M28.949.168c1.993,40.086,8.513,76.8,12.442,89.39s-1.926,28.856-14.519,30.48S1.264,111.214.809,94.077-2.983,45.83,28.949.168Z" id="路径_163"></path>
      <path fill="#c23629" transform="translate(107.69 116.603) rotate(-9)" d="M24.434,113.1c1.738-37.81,7.4-72.441,10.807-84.314S33.579,1.57,22.663.034.466,8.351.066,24.516-3.231,70.024,24.434,113.1Z" id="路径_157"></path>
      <path fill="#c23629" transform="translate(192.08 228.511) rotate(-21)" d="M19.359,89.072c1.615-29.835,6.42-57.185,9.265-66.57S27.409,1.041,18.5-.106.336,6.584-.074,19.338-3,55.254,19.359,89.072Z" id="路径_158"></path>
      <path fill="#c23629" transform="translate(299.287 299.774) rotate(-24)" d="M19.264,88.917c1.659-29.795,6.508-57.113,9.37-66.489S27.446,1,18.532-.133.327,6.575-.1,19.311-3.086,55.18,19.264,88.917Z" id="路径_159"></path>
    </g>
    <g transform="translate(519.207 252.36)" id="组_21">
      <path fill="#e3a870" transform="translate(-8047.717 -287.824)" d="M8070.578,936.822c174.613-90.72,178.451-561.269,153.506-649C8157.885,366.581,7986.15,676.625,8070.578,936.822Z" id="路径_166"></path>
      <g clip-path="url(#clip-path)" transform="translate(0)" id="蒙版组_1">
        <path stroke-width="2" stroke="#d57249" fill="none" transform="translate(-8047.717 -288.011)" d="M8223.51,283.027S8086.888,665.846,8070.578,939" id="路径_167"></path>
        <path stroke-width="2" stroke="#d57249" fill="none" transform="translate(-8047.717 -286.67)" d="M8194.118,323.479s-.529,23.284,5.234,27.828,33.143-33.963,33.143-33.963" id="路径_168"></path>
        <path stroke-width="2" stroke="#d57249" fill="none" transform="translate(-8069.717 -229.048)" d="M8195.633,299.159s-5.708,55.913,5.285,63,56.73-45.543,56.73-45.543" id="路径_169"></path>
        <path stroke-width="2" stroke="#d57249" fill="none" transform="translate(-8096.717 -140.179)" d="M8194.467,259.963s-15.522,101.661,6.451,103.725,85.28-66.4,85.28-66.4" id="路径_170"></path>
        <path stroke-width="2" stroke="#d57249" fill="none" transform="translate(-8120.717 -39.867)" d="M8180.014,243.772s-1.008,118.677,23.85,120.772,103.8-116.583,103.8-116.583" id="路径_171"></path>
        <path stroke-width="2" stroke="#d57249" fill="none" transform="translate(-8139.717 37.694)" d="M8175.164,234.276s4.325,128.639,28.7,130.639S8318.6,278.256,8318.6,278.256" id="路径_172"></path>
        <path stroke-width="2" stroke="#d57249" fill="none" transform="translate(-8157.717 131.017)" d="M8169.65,229.263s9.307,127.189,34.214,135.848,118.964-103.037,118.964-103.037" id="路径_173"></path>
        <path stroke-width="2" stroke="#d57249" fill="none" transform="translate(-8181.717 230.455)" d="M8185.719,250.945s7.469,101.192,18.146,113.442,112.425-116.619,112.425-116.619" id="路径_174"></path>
      </g>
    </g>
    <g transform="translate(89.916 653.347) rotate(-60)" id="组_22">
      <path fill="#519886" transform="translate(0 0)" d="M10.862,528.45C162.77,452.057,172.509,68.621,152.182-2.5,93.985,62.6-58.435,317.651,10.862,528.45Z" id="路径_166-2"></path>
      <g clip-path="url(#clip-path-2)" id="蒙版组_1-2">
        <path stroke-width="2" stroke="#438a78" fill="none" transform="translate(19.794 -4.386)" d="M131.961-2.171S8.845,311.672-8.961,534.46" id="路径_167-2"></path>
        <path stroke-width="2" stroke="#438a78" fill="none" transform="translate(125.894 22.915)" d="M-.072,5S-.847,23.977,4.064,27.6,33.126-.545,33.126-.545" id="路径_168-2"></path>
        <path stroke-width="2" stroke="#438a78" fill="none" transform="translate(106.412 55.357)" d="M1.279-.021s-5.69,45.637,3.7,51.251S54.552,13.318,54.552,13.318" id="路径_169-2"></path>
        <path stroke-width="2" stroke="#438a78" fill="none" transform="translate(78.117 96.283)" d="M4.593-.076S-10.189,82.973,8.742,84.343,83.233,29.031,83.233,29.031" id="路径_170-2"></path>
        <path stroke-width="2" stroke="#438a78" fill="none" transform="translate(48.375 165.291)" d="M.006,0s-2.49,96.707,18.928,98.061S110.092,1.6,110.092,1.6" id="路径_171-2"></path>
        <path stroke-width="2" stroke="#438a78" fill="none" transform="translate(26.871 221.085)" d="M0,0S1.976,104.748,22.979,106.032,123.165,33.8,123.165,33.8" id="路径_172-2"></path>
        <path stroke-width="2" stroke="#438a78" fill="none" transform="translate(5.375 293.37)" d="M0,0S6.293,103.5,27.667,110.2,131.725,24.559,131.725,24.559" id="路径_173-2"></path>
        <path stroke-width="2" stroke="#438a78" fill="none" transform="translate(-3.079 389.578)" d="M-.043,2.588s5.062,82.34,14.106,92.17,98.6-96.611,98.6-96.611" id="路径_174-2"></path>
      </g>
    </g>
    <g transform="matrix(0.883, 0.469, -0.469, 0.883, 723.165, 511.909)" id="组_23">
      <path fill="#b7d99d" transform="translate(0 0)" d="M22.087,430.387C138.16,372.14,135.826,60.313,118.194,1.9,74.652,53.385-37.206,257.025,22.087,430.387Z" id="路径_166-3"></path>
      <g clip-path="url(#clip-path-3)" transform="translate(0 0)" id="蒙版组_1-3">
        <path stroke-width="2" stroke="#8eb66d" fill="none" transform="translate(15.269 -3.058)" d="M102.489,1.647S14.921,253.9,6.838,434.766" id="路径_167-3"></path>
        <path stroke-width="2" stroke="#8eb66d" fill="none" transform="translate(98.423 21.907)" d="M.072,4.066s-.112,15.427,3.8,18.5S25.727.413,25.727.413" id="路径_168-3"></path>
        <path stroke-width="2" stroke="#8eb66d" fill="none" transform="translate(84.121 47.808)" d="M.993.016s-3.243,37,4.2,41.809S42.736,12.251,42.736,12.251" id="路径_169-3"></path>
        <path stroke-width="2" stroke="#8eb66d" fill="none" transform="translate(63.19 80.385)" d="M3.567.057s-9.343,67.211,5.4,68.816S65.429,25.781,65.429,25.781" id="路径_170-3"></path>
        <path stroke-width="2" stroke="#8eb66d" fill="none" transform="translate(41.86 135.782)" d="M0,0S.566,78.646,17.246,80.3,85.592,4.151,85.592,4.151" id="路径_171-3"></path>
        <path stroke-width="2" stroke="#8eb66d" fill="none" transform="translate(26.59 180.637)" d="M0,0S4.24,85.305,20.595,86.894s75.988-56.2,75.988-56.2" id="路径_172-3"></path>
        <path stroke-width="2" stroke="#8eb66d" fill="none" transform="translate(11.753 238.913)" d="M0,0S7.563,84.4,24.345,90.405,103,23.4,103,23.4" id="路径_173-3"></path>
        <path stroke-width="2" stroke="#8eb66d" fill="none" transform="translate(7.667 316.998)" d="M.033,2.105s6.06,67.148,13.342,75.382S87.5,1.406,87.5,1.406" id="路径_174-3"></path>
      </g>
    </g>
  </g>
</svg>
