<svg viewBox="0 0 1024 1024" height="1024" width="1024" xmlns:xlink="http://www.w3.org/1999/xlink" xmlns="http://www.w3.org/2000/svg">
  <defs>
    <linearGradient gradientUnits="objectBoundingBox" y2="0.783" x2="0" y1="0.242" x1="0.838" id="linear-gradient">
      <stop stop-color="#fff4aa" offset="0"></stop>
      <stop stop-color="#f9c879" offset="1"></stop>
    </linearGradient>
    <clipPath id="clip-花束">
      <rect height="1024" width="1024"></rect>
    </clipPath>
  </defs>
  <g clip-path="url(#clip-花束)" id="花束">
    <rect fill="#fff" height="1024" width="1024"></rect>
    <g id="组_37">
      <path fill="#1c7829" transform="translate(7571 -5318)" d="M-6798.842,5483.448c-33.511,7.128-190.586,21.195-290.549,191.5s174.2-47.613,174.2-47.613S-6893.307,5591.386-6798.842,5483.448Z" id="路径_204"></path>
      <path fill="#d6f4df" transform="translate(7571 -5318)" d="M-7005.838,5623.426s46.632-71,118.838-88.073c-48.019,38.06-79.765,82.6-79.765,82.6Z" id="路径_205"></path>
    </g>
    <path fill="#82d898" transform="translate(7571 -5318)" d="M-6753.424,5691.412c-27.294.8-216.418,57.216-216.418,57.216l30.519,98.03S-6814.474,5726.433-6753.424,5691.412Z" id="路径_206"></path>
    <g id="组_38">
      <path fill="#64cb83" transform="translate(7571 -5318)" d="M-7248.4,6078s-72.135-238.047-80.551-387.728c1.2,1.2,45.686,36.068,45.686,36.068s-51.7-72.736-51.1-72.736c.6-8.416-5.41-134.653,5.41-153.889,0,1.2,21.641,15.629,21.641,15.629l-17.433-40.876s32.461-114.215,96.181-117.821,81.753,52.3,81.753,52.3l-24.646,58.911s44.483-11.421,44.483-12.022c13.225,43.281,37.871,167.714,29.455,217.007-14.427,49.292-43.882,298.76-43.882,298.76Z" id="路径_207"></path>
      <path fill="#fff" transform="translate(7571 -5318)" d="M-7236.376,5888.347s-10.159-249.288,12.5-443.091c7.814,121.127,22.663,436.058,22.663,436.058Z" id="路径_208"></path>
    </g>
    <g id="组_40">
      <path fill="#7ab141" transform="translate(7571 -5318)" d="M-7013.354,5867.605s146.675-60.113,194.765-48.691c0,.6-55.9,52.9-55.9,52.9l133.45-40.275s60.113,25.248,61.315,28.854-27.051,21.04-27.051,21.04l55.9-4.208s52.9,30.056,33.062,88.366-186.35,134.652-211.6,138.86c-1.2,0-10.219-63.719-10.219-63.719l-26.449,74.54s-59.512,34.264-253.075,57.107S-7013.354,5867.605-7013.354,5867.605Z" id="路径_212"></path>
      <path fill="#f7ffee" transform="translate(7571 -5318)" d="M-7019.366,5998.05s169.518-87.164,355.867-67.326c-203.782-2.4-372.7,104.6-372.7,104.6Z" id="路径_213"></path>
    </g>
    <g id="组_39">
      <path fill="#aed882" transform="translate(7571 -5318)" d="M-7026.947,5625s-98.464,25.788-157.856,157.075-67.987,327.435-63.3,362.6,39.074,79.71,57.829,87.524,42.2,0,67.206-37.511,150.042-257.883,174.267-321.964,73.458-162.545,44.543-224.281S-7026.947,5625-7026.947,5625Z" id="路径_209"></path>
      <path fill="#f7ffee" transform="translate(7571 -5318)" d="M-6975.37,5657.036c-177.393,207.089-257.1,496.231-257.884,529.053-.218,9.157-18.807,90.61-17.241,95.033,1.088,3.08,12.812,11.25,17.241,0,7.723-31.217,14.936-70.891,14.936-70.891S-7133.227,5880.536-6975.37,5657.036Z" id="路径_210"></path>
    </g>
    <g id="组_41">
      <path fill="#1c7829" transform="translate(-7368.83 5666.283)" d="M7591.136-4738.96c2.679-13.467,9.175-42.637,19.691-80.914-7.6-7-26.159-33.606-32.96-44.55-7.449-11.98-11.981-39.827,3.4-53.1s27.847-8.258,34.324,9.065c5.616,15.021,5.266,46.226,5.074,54.261,9.023-30.244,20.077-64.1,33.218-99.208-6.438-4.79-34.958-28.2-35.928-67.758-1.1-44.6,19.427-60.741,30.371-60.467s22.437,29.549,18.332,67.582c-1.83,16.955-2.572,27.927-2.833,34.882,12.465-31.323,26.56-63.185,42.338-94.009-4.87-8.723-26.979-50.292-22.541-78.5,4.98-31.655,25.608-57.512,35.211-57.156s18.39,13,17.323,33.626c-.776,15-6.575,48.527-10.912,66.795,18.389-32.052,38.736-62.171,61.115-88.4-.766-6.351-8.5-75.837,15.758-104.948,25.433-30.518,42.094-12.838,38.095,10.734-2.771,16.338-18.434,48.4-28.711,67.313,35.069-34.028,74.555-58.076,118.644-65.858,32.9,9.141,7.015,12.306,5.41,11.557-40.282,6.5-76.528,27.151-108.969,56.952,10.657-1.436,42.574-5.355,55.516-2.708,15.65,3.2,26.322,12.448,24.9,29.521s-19.563,26.322-48.019,22.409c-23.032-3.165-48.626-17.983-57.547-23.518-23.1,26.066-44.038,56.638-62.9,89.52,8.748-6.7,40.112-30.123,52.065-31.061,13.956-1.093,39.128,4.652,21.615,37.211s-50.617,33.928-59.648,33.654c-8.029-.242-21.466-4.164-29.346-11.763-13.523,25.975-25.86,52.962-37.03,79.942,8.712-8.031,33.321-29.732,46.677-31.513,16.417-2.188,42.683,9.3,37.759,32.559-4.826,22.784-53.761,57.382-105.14,52.352-12.493,34.379-23.089,67.682-31.888,97.816,9.423-10.24,36.625-39.15,48.042-44.327,13.923-6.315,28.332-6.151,35.295,5.342s4.371,42.9-18.943,57.961c-23.031,14.874-51.275,25.956-73.184,12.176-8.684,31.865-15,58.472-19.093,76.535-.325.224-4.869.423-8.8.423C7593.927-4738.538,7591.29-4738.653,7591.136-4738.96Z" id="联合_13"></path>
      <path fill="#f2bc53" transform="translate(7571 -5318)" d="M-6999.832,5635.873c4.925-9.029,34.476-55,74.97-5.472s46.24,60.742,56.638,81.263.273,69.224-61.016,47.335-78.527-49.8-81.263-63.751S-7004.757,5644.9-6999.832,5635.873Z" id="路径_223"></path>
      <path fill="url(#linear-gradient)" transform="translate(7571 -5318)" d="M-6931.155,5622.739c22.984-7.387,37.759-1.094,52.808,16.144s29.55,50.07-8.756,73.875-93.575,5.2-114.644-3.557,10.67-38.854,17.237-45.42S-6954.139,5630.126-6931.155,5622.739Z" id="路径_224"></path>
    </g>
  </g>
</svg>
