<svg xmlns:xlink="http://www.w3.org/1999/xlink" xmlns="http://www.w3.org/2000/svg" version="1.1" viewBox="0 0 1100 1100" height="1100px" width="1100px">
    <title>星级酒店</title>
    <defs>
        <linearGradient id="linearGradient-1" y2="100%" x2="50%" y1="0%" x1="50%">
            <stop offset="0%" stop-color="#E1E8FC"></stop>
            <stop offset="100%" stop-color="#F3F4FB"></stop>
        </linearGradient>
        <filter id="filter-2" filterUnits="objectBoundingBox" height="158.7%" width="153.6%" y="-16.7%" x="-26.8%">
            <feOffset result="shadowOffsetOuter1" in="SourceAlpha" dy="75" dx="0"></feOffset>
            <feGaussianBlur result="shadowBlurOuter1" in="shadowOffsetOuter1" stdDeviation="50"></feGaussianBlur>
            <feColorMatrix result="shadowMatrixOuter1" in="shadowBlurOuter1" type="matrix" values="0 0 0 0 0.28627451   0 0 0 0 0.360784314   0 0 0 0 0.976470588  0 0 0 0.201048951 0"></feColorMatrix>
            <feMerge>
                <feMergeNode in="shadowMatrixOuter1"></feMergeNode>
                <feMergeNode in="SourceGraphic"></feMergeNode>
            </feMerge>
        </filter>
        <linearGradient id="linearGradient-3" y2="93.4082842%" x2="50%" y1="7.2460262%" x1="50%">
            <stop offset="0%" stop-color="#4A56FF"></stop>
            <stop offset="100%" stop-color="#5175F4"></stop>
        </linearGradient>
        <linearGradient id="linearGradient-4" y2="91.4206365%" x2="107.65993%" y1="-9.02056208e-14%" x1="107.65993%">
            <stop offset="0%" stop-opacity="0.568536932" stop-color="#FFFFFF"></stop>
            <stop offset="100%" stop-opacity="0.192908654" stop-color="#FFFFFF"></stop>
        </linearGradient>
        <filter id="filter-5" filterUnits="objectBoundingBox" height="124.7%" width="520.0%" y="-12.4%" x="-210.0%">
            <feGaussianBlur in="SourceGraphic" stdDeviation="17.5"></feGaussianBlur>
        </filter>
        <linearGradient id="linearGradient-6" y2="44.1780243%" x2="51.5570934%" y1="11.723811%" x1="47.9142796%">
            <stop offset="0%" stop-opacity="0.453206949" stop-color="#2E3BE8"></stop>
            <stop offset="100%" stop-color="#2E3BE8"></stop>
        </linearGradient>
        <filter id="filter-7" filterUnits="objectBoundingBox" height="121.9%" width="224.1%" y="-10.9%" x="-62.0%">
            <feGaussianBlur in="SourceGraphic" stdDeviation="15.5117252"></feGaussianBlur>
        </filter>
        <linearGradient id="linearGradient-8" y2="100%" x2="50%" y1="2.57617897%" x1="50%">
            <stop offset="0%" stop-color="#7896FF"></stop>
            <stop offset="100%" stop-color="#3A47FC"></stop>
        </linearGradient>
        <linearGradient id="linearGradient-9" y2="90.9721717%" x2="50%" y1="3.06699111e-13%" x1="50%">
            <stop offset="0%" stop-opacity="0" stop-color="#7896FF"></stop>
            <stop offset="100%" stop-color="#2432F0"></stop>
        </linearGradient>
        <linearGradient id="linearGradient-10" y2="118.703659%" x2="100%" y1="-13.315202%" x1="7.99360578e-13%">
            <stop offset="0%" stop-color="#CFDBFF"></stop>
            <stop offset="100%" stop-color="#7393FF"></stop>
        </linearGradient>
        <linearGradient id="linearGradient-11" y2="80.5349595%" x2="100%" y1="21.8599102%" x1="7.99360578e-13%">
            <stop offset="0%" stop-color="#CFDBFF"></stop>
            <stop offset="100%" stop-color="#7393FF"></stop>
        </linearGradient>
        <linearGradient id="linearGradient-12" y2="88.3028514%" x2="70.218587%" y1="-2.48412402e-13%" x1="33.8276%">
            <stop offset="0%" stop-color="#CFDBFF"></stop>
            <stop offset="100%" stop-color="#7393FF"></stop>
        </linearGradient>
        <path id="path-13" d="M40.2637234,42.0066138 L247.035392,0.957111452 C250.241727,0.320571272 253.502759,2.70606729e-13 256.771669,2.7000624e-13 L325,0 C352.614237,-2.95990229e-14 375,22.3857625 375,50 L375,500 C375,527.614237 352.614237,550 325,550 L50,550 C22.3857625,550 3.38176876e-15,527.614237 0,500 L0,91.0495023 C-2.92209388e-15,67.1887951 16.8597632,46.6529027 40.2637234,42.0066138 Z"></path>
        <linearGradient id="linearGradient-15" y2="90.0316999%" x2="50%" y1="0%" x1="50%">
            <stop offset="0%" stop-color="#FBFCFF"></stop>
            <stop offset="100%" stop-color="#C3D0FE"></stop>
        </linearGradient>
        <linearGradient id="linearGradient-16" y2="100%" x2="50%" y1="0%" x1="50%">
            <stop offset="0%" stop-color="#CFDBFF"></stop>
            <stop offset="100%" stop-color="#4168E8"></stop>
        </linearGradient>
        <filter id="filter-17" filterUnits="objectBoundingBox" height="118.0%" width="371.0%" y="-9.0%" x="-135.5%">
            <feGaussianBlur in="SourceGraphic" stdDeviation="15"></feGaussianBlur>
        </filter>
        <linearGradient id="linearGradient-18" y2="0%" x2="50%" y1="100%" x1="50%">
            <stop offset="0%" stop-color="#2634FF"></stop>
            <stop offset="77.6879603%" stop-color="#6F8CFD"></stop>
            <stop offset="100%" stop-color="#7896FF"></stop>
        </linearGradient>
        <linearGradient id="linearGradient-19" y2="83.5088739%" x2="66.323663%" y1="7.3964497%" x1="50%">
            <stop offset="0%" stop-color="#FFFFFF"></stop>
            <stop offset="100%" stop-color="#FFA454"></stop>
        </linearGradient>
        <path id="path-20" d="M80.9784443,300 C71.9647871,299.984786 63.4155424,296.155836 57.6070066,289.532636 C51.7984708,282.909437 49.3202057,274.164236 50.8320668,265.625506 L62.1166332,202.376437 C63.0971671,196.922439 61.2105514,191.355109 57.0759769,187.501656 L9.23852161,142.596067 C0.897815971,134.780948 -2.10172606,123.093042 1.50132854,112.447603 C5.10438314,101.802163 14.6850089,94.0458641 26.2141515,92.440555 L92.295531,83.2219405 C98.053707,82.4026624 103.013007,78.8900081 105.531319,73.8470785 L135.157371,16.4104238 C140.299403,6.36408342 150.937319,0 162.588298,0 C174.239277,0 184.877193,6.36408342 190.019225,16.4104238 L219.612756,73.9408271 C222.140129,78.9765417 227.094859,82.4859597 232.848544,83.3156891 L298.929924,92.5343035 C310.389079,94.1833938 319.896182,101.9102 323.489999,112.495268 C327.083816,123.080336 324.147908,134.708037 315.905554,142.533568 L268.068098,187.501656 C263.910273,191.3811 262.012019,196.981942 262.994921,202.470186 L274.312008,265.625506 C276.257467,276.65324 271.523774,287.786702 262.098819,294.350452 C252.673863,300.914202 240.189778,301.771587 229.889191,296.562551 L170.767169,266.71924 C165.672216,264.168103 159.60194,264.168103 154.506987,266.71924 L95.2548841,296.562551 C90.8574734,298.806147 85.9572463,299.986012 80.9784443,300 Z"></path>
        <filter id="filter-21" filterUnits="objectBoundingBox" height="208.3%" width="200.0%" y="-54.2%" x="-50.0%">
            <feOffset result="shadowOffsetOuter1" in="SourceAlpha" dy="0" dx="0"></feOffset>
            <feGaussianBlur result="shadowBlurOuter1" in="shadowOffsetOuter1" stdDeviation="62.5"></feGaussianBlur>
            <feComposite result="shadowBlurOuter1" operator="out" in2="SourceAlpha" in="shadowBlurOuter1"></feComposite>
            <feColorMatrix in="shadowBlurOuter1" type="matrix" values="0 0 0 0 0.113355139   0 0 0 0 0.263976874   0 0 0 0 0.55638587  0 0 0 0.337767701 0"></feColorMatrix>
        </filter>
        <linearGradient id="linearGradient-22" y2="100%" x2="50%" y1="0%" x1="50%">
            <stop offset="0%" stop-color="#FFBB90"></stop>
            <stop offset="100%" stop-color="#FF3B31"></stop>
        </linearGradient>
    </defs>
    <g fill-rule="evenodd" fill="none" stroke-width="1" stroke="none" id="星级酒店">
        <rect height="1100" width="1100" y="0" x="0" fill="#FFFFFF"></rect>
        <g transform="translate(50, 90)" id="编组-38">
            <rect height="1000" width="1000" y="0" x="0" id="矩形"></rect>
            <path fill="url(#linearGradient-1)" id="椭圆形备份-7" d="M500,1000 C776.142375,1000 1000,777.144932 1000,502.239273 C1000,322.872703 797.332453,300 500,300 C202.667547,300 0,325.717179 0,502.239273 C0,777.144932 223.857625,1000 500,1000 Z"></path>
            <g transform="translate(150, 75)" filter="url(#filter-2)" id="编组-95">
                <path fill="url(#linearGradient-3)" id="矩形" d="M75,0 L138.740056,-2.84217094e-14 C150.565864,-3.05940752e-14 162.331839,1.6781548 173.686102,4.98427681 L463.978419,89.5112754 C485.322541,95.7262336 500,115.287017 500,137.517565 L500,625 C500,652.614237 477.614237,675 450,675 L75,675 C47.3857625,675 25,652.614237 25,625 L25,50 C25,22.3857625 47.3857625,-2.03277422e-15 75,-7.10542736e-15 Z"></path>
                <path filter="url(#filter-5)" opacity="0.843377976" fill-rule="nonzero" fill="url(#linearGradient-4)" id="直线-29" d="M262.5,200 C269.403559,200 275,205.596441 275,212.5 L275,612.5 C275,619.403559 269.403559,625 262.5,625 C255.596441,625 250,619.403559 250,612.5 L250,212.5 C250,205.596441 255.596441,200 262.5,200 Z"></path>
                <rect rx="25" height="425" width="75" y="225" x="250" filter="url(#filter-7)" fill="url(#linearGradient-6)" id="矩形"></rect>
                <path fill="url(#linearGradient-8)" id="矩形" d="M75,5.68434189e-12 L150,5.68434189e-12 C177.614237,5.67926923e-12 200,22.3857625 200,50 L200,625 C200,652.614237 177.614237,675 150,675 L75,675 C47.3857625,675 25,652.614237 25,625 L25,50 C25,22.3857625 47.3857625,5.68941454e-12 75,5.68434189e-12 Z"></path>
                <path fill="url(#linearGradient-9)" id="矩形备份-38" d="M212.5,25 C219.403559,25 225,30.5964406 225,37.5 L225,662.5 C225,669.403559 219.403559,675 212.5,675 C205.596441,675 200,669.403559 200,662.5 L200,37.5 C200,30.5964406 205.596441,25 212.5,25 Z"></path>
                <rect rx="12.5" height="75" width="75" y="75" x="75" fill="url(#linearGradient-10)" id="矩形"></rect>
                <rect rx="12.5" height="75" width="75" y="175" x="75" fill="url(#linearGradient-10)" id="矩形备份-40"></rect>
                <rect rx="12.5" height="50" width="75" y="325" x="75" fill="url(#linearGradient-11)" id="矩形备份-39"></rect>
                <g transform="translate(300, 125)" id="矩形备份-36">
                    <mask fill="white" id="mask-14">
                        <use xlink:href="#path-13"></use>
                    </mask>
                    <use xlink:href="#path-13" fill="url(#linearGradient-12)" id="蒙版"></use>
                    <path mask="url(#mask-14)" fill="url(#linearGradient-15)" stroke-width="7.5" stroke="#FFFFFF" id="蒙版" d="M275,53.75 C287.771585,53.75 299.334085,58.9267076 307.703689,67.2963114 C316.073292,75.6659152 321.25,87.2284152 321.25,100 L321.25,500 C321.25,512.771585 316.073292,524.334085 307.703689,532.703689 C299.334085,541.073292 287.771585,546.25 275,546.25 L50,546.25 C37.2284152,546.25 25.6659152,541.073292 17.2963114,532.703689 C8.92670758,524.334085 3.75,512.771585 3.75,500 L3.75,100 C3.75,87.2284152 8.92670758,75.6659152 17.2963114,67.2963114 C25.6659152,58.9267076 37.2284152,53.75 50,53.75 Z"></path>
                    <path mask="url(#mask-14)" filter="url(#filter-17)" fill="url(#linearGradient-16)" id="矩形备份-37" d="M16.6061776,50 C25.7775163,50 33.2123552,57.434839 33.2123552,66.6061776 L33.2123552,533.393822 C33.2123552,542.565161 25.7775163,550 16.6061776,550 C7.43483897,550 8.22859241e-15,542.565161 7.10542736e-15,533.393822 L0,66.6061776 C-1.12316505e-15,57.434839 7.43483897,50 16.6061776,50 Z"></path>
                </g>
                <rect rx="25" height="50" width="700" y="625" x="0" fill="url(#linearGradient-18)" id="矩形"></rect>
            </g>
            <g transform="translate(475, 500)" id="编组-101">
                <g id="路径">
                    <use xlink:href="#path-20" filter="url(#filter-21)" fill-opacity="1" fill="black"></use>
                    <path fill-rule="evenodd" fill="url(#linearGradient-19)" stroke-linejoin="square" d="M162.588298,3.75 C167.719042,3.75 172.627846,5.14833739 176.819411,7.65592124 C180.979223,10.1445091 184.433015,13.7268189 186.684548,18.1257753 L216.269985,75.6404437 C219.339974,81.7426826 225.334677,86.0238387 232.322256,87.028584 L298.403529,96.2471836 C303.440189,96.9734421 308.049992,99.0307128 311.79432,102.073879 C315.508891,105.092862 318.371274,109.083124 319.939079,113.700868 C321.498276,118.293256 321.641552,123.111854 320.500449,127.631209 C319.355115,132.167319 316.917215,136.399795 313.330096,139.807837 L265.504486,184.76479 C260.404079,189.527001 258.098767,196.403538 259.303717,203.131629 L270.619035,266.277002 C271.463281,271.062569 270.856738,275.87074 269.018298,280.194678 C267.167852,284.546855 264.071191,288.40707 259.95573,291.273169 C255.806729,294.162627 250.983459,295.792348 246.065429,296.130109 C241.141745,296.468258 236.120928,295.511722 231.579017,293.214867 L172.451834,263.36895 C166.303532,260.28812 158.97704,260.287169 152.820119,263.370064 L93.5590211,293.217906 C89.6835188,295.196907 85.3641915,296.23641 80.9746182,296.249986 C73.0546961,296.233767 65.5335922,292.883574 60.4263752,287.060055 C55.3780122,281.303644 53.2099132,273.704617 54.5237703,266.28416 L65.8074605,203.039983 C67.0115111,196.342724 64.71534,189.495418 59.6425192,184.767545 L11.8025511,139.859599 C8.16873629,136.454769 5.69300142,132.208816 4.52330678,127.651027 C3.35873213,123.113188 3.49018245,118.268424 5.05339018,113.649833 C6.62524281,109.005701 9.50578123,104.995861 13.2450522,101.968616 C17.0163227,98.9154643 21.6606673,96.8607559 26.732274,96.1545891 L92.818474,86.9353021 C99.8125232,85.9419143 105.813425,81.6564112 108.874745,75.5454736 L138.492934,18.1240612 C140.740925,13.7295728 144.195774,10.1454656 148.357185,7.65592124 C152.548749,5.14833739 157.457554,3.75 162.588298,3.75 Z" stroke-width="7.5" stroke="#FFFFFF"></path>
                </g>
                <path fill="url(#linearGradient-22)" stroke-width="7.5" stroke="#FFFFFF" id="路径" d="M162.533961,103.75 C164.081453,103.75 165.56287,104.168072 166.827456,104.922083 C168.057672,105.655601 169.083203,106.708291 169.751975,108.010546 L181.126526,130.049187 C182.641381,133.042042 185.585667,135.158497 189.03307,135.650889 L214.447899,139.184541 C215.959919,139.402734 217.345448,140.015668 218.470176,140.926733 C219.562355,141.811432 220.408267,142.978316 220.86954,144.332399 C221.32142,145.658911 221.363392,147.050791 221.032661,148.356289 C220.697203,149.680446 219.979894,150.913385 218.930786,151.908259 L200.543753,169.134794 C197.9972,171.506427 196.859943,174.931808 197.461073,178.277158 L201.812018,202.47672 C202.056855,203.859935 201.879703,205.249411 201.34664,206.498975 C200.800485,207.779227 199.882828,208.911165 198.668968,209.753707 C197.418774,210.621468 195.964687,211.108017 194.483286,211.209418 C192.995787,211.311236 191.478428,211.02497 190.104253,210.332363 L167.360189,198.89 C164.349984,197.385375 160.762244,197.384371 157.743386,198.890942 L134.944598,210.335656 C133.774093,210.932446 132.469098,211.244961 131.143156,211.249986 C128.768367,211.243586 126.505866,210.253644 124.971812,208.510265 C123.502185,206.840103 122.859678,204.636669 123.242117,202.4839 L127.581453,178.24333 C128.183171,174.907567 127.047797,171.490602 124.514283,169.137252 L106.112745,151.921091 C105.047457,150.926259 104.317362,149.687672 103.974238,148.355126 C103.636704,147.044285 103.675228,145.644839 104.128273,144.310751 C104.590751,142.948888 105.442086,141.776283 106.541549,140.889145 C107.675707,139.974012 109.073543,139.361483 110.598794,139.149816 L136.019215,135.615387 C139.470097,135.127863 142.417594,133.009239 143.929367,130.012368 L155.317021,108.008473 C155.982231,106.710846 157.008757,105.656491 158.240465,104.922083 C159.505051,104.168072 160.986469,103.75 162.533961,103.75 Z"></path>
            </g>
        </g>
    </g>
</svg>