<svg xmlns:xlink="http://www.w3.org/1999/xlink" xmlns="http://www.w3.org/2000/svg" version="1.1" viewBox="0 0 1100 1100" height="1100px" width="1100px">
    <title>男士专区</title>
    <defs>
        <linearGradient id="linearGradient-1" y2="100%" x2="50%" y1="0%" x1="50%">
            <stop offset="0%" stop-color="#E1E8FC"></stop>
            <stop offset="100%" stop-color="#F3F4FB"></stop>
        </linearGradient>
        <filter id="filter-2" filterUnits="objectBoundingBox" height="165.2%" width="184.2%" y="-13.8%" x="-42.1%">
            <feOffset result="shadowOffsetOuter1" in="SourceAlpha" dy="75" dx="0"></feOffset>
            <feGaussianBlur result="shadowBlurOuter1" in="shadowOffsetOuter1" stdDeviation="50"></feGaussianBlur>
            <feColorMatrix result="shadowMatrixOuter1" in="shadowBlurOuter1" type="matrix" values="0 0 0 0 0.28627451   0 0 0 0 0.360784314   0 0 0 0 0.976470588  0 0 0 0.201048951 0"></feColorMatrix>
            <feMerge>
                <feMergeNode in="shadowMatrixOuter1"></feMergeNode>
                <feMergeNode in="SourceGraphic"></feMergeNode>
            </feMerge>
        </filter>
        <radialGradient id="radialGradient-3" gradientTransform="translate(0.5, 0.5), scale(0.9855, 1), rotate(48.9327), translate(-0.5, -0.5)" r="55.0022126%" fy="50%" fx="50%" cy="50%" cx="50%">
            <stop offset="0%" stop-color="#7896FF"></stop>
            <stop offset="28.2442249%" stop-color="#728EFF"></stop>
            <stop offset="100%" stop-color="#3A47FC"></stop>
        </radialGradient>
        <filter id="filter-4" filterUnits="objectBoundingBox" height="281.9%" width="116.3%" y="-90.9%" x="-8.1%">
            <feGaussianBlur in="SourceGraphic" stdDeviation="15.5117252"></feGaussianBlur>
        </filter>
        <linearGradient id="linearGradient-5" y2="100%" x2="50%" y1="-2.14587935%" x1="50%">
            <stop offset="0%" stop-opacity="0.699437281" stop-color="#FFFFFF"></stop>
            <stop offset="100%" stop-color="#FFFFFF"></stop>
        </linearGradient>
        <filter id="filter-6" filterUnits="objectBoundingBox" height="140.0%" width="139.4%" y="-20.0%" x="-19.7%">
            <feGaussianBlur in="SourceGraphic" stdDeviation="38.7793129"></feGaussianBlur>
        </filter>
        <linearGradient id="linearGradient-7" y2="100%" x2="50%" y1="29.5563322%" x1="50%">
            <stop offset="0%" stop-opacity="0.252321897" stop-color="#FFFFFF"></stop>
            <stop offset="100%" stop-color="#FFFFFF"></stop>
        </linearGradient>
        <filter id="filter-8" filterUnits="objectBoundingBox" height="140.0%" width="139.4%" y="-20.0%" x="-19.7%">
            <feGaussianBlur in="SourceGraphic" stdDeviation="38.7793129"></feGaussianBlur>
        </filter>
        <linearGradient id="linearGradient-9" y2="63.0749677%" x2="78.1082122%" y1="39.2240344%" x1="11.0645531%">
            <stop offset="0%" stop-color="#CFDBFF"></stop>
            <stop offset="100%" stop-color="#486FEF"></stop>
        </linearGradient>
        <linearGradient id="linearGradient-10" y2="64.11066%" x2="63.4857138%" y1="40.2651376%" x1="14.8397281%">
            <stop offset="0%" stop-color="#F2F5FF"></stop>
            <stop offset="100%" stop-opacity="0" stop-color="#5E82FB"></stop>
        </linearGradient>
        <linearGradient id="linearGradient-11" y2="64.4088944%" x2="107.65993%" y1="32.6066236%" x1="3.0669387%">
            <stop offset="0%" stop-opacity="0.151715472" stop-color="#FFFFFF"></stop>
            <stop offset="54.282183%" stop-opacity="0.98123361" stop-color="#FFFFFF"></stop>
            <stop offset="100%" stop-opacity="0.192908654" stop-color="#FFFFFF"></stop>
        </linearGradient>
        <filter id="filter-12" filterUnits="objectBoundingBox" height="174.6%" width="144.0%" y="-37.3%" x="-22.0%">
            <feGaussianBlur in="SourceGraphic" stdDeviation="25.8528753"></feGaussianBlur>
        </filter>
        <linearGradient id="linearGradient-13" y2="50%" x2="96.4409586%" y1="50%" x1="2.10771674%">
            <stop offset="0%" stop-color="#FBFCFF"></stop>
            <stop offset="100%" stop-color="#9AB1FF"></stop>
        </linearGradient>
        <linearGradient id="linearGradient-14" y2="50%" x2="97.384025%" y1="50%" x1="1.37469397%">
            <stop offset="0%" stop-color="#FFFFFF"></stop>
            <stop offset="52.1621162%" stop-color="#FFFFFF"></stop>
            <stop offset="100%" stop-opacity="0.190750656" stop-color="#FFFFFF"></stop>
        </linearGradient>
        <linearGradient id="linearGradient-15" y2="83.2128771%" x2="50%" y1="-19.9991734%" x1="50%">
            <stop offset="0%" stop-opacity="0.88" stop-color="#E6EBFF"></stop>
            <stop offset="100%" stop-color="#D5DDFF"></stop>
        </linearGradient>
        <path id="path-16" d="M449.063343,35.1241469 C440.066635,31.9389541 428.060119,67.063101 401.03728,67.063101 C365.050447,67.063101 347.057031,0 290.001543,0 C264.322531,0.843594569 240.710159,15.1894675 226.975514,38.2919342 C213.240868,15.1894675 189.628496,0.843594569 163.949484,0 C103.933261,0 85.9234875,67.063101 49.9039396,67.063101 C19.8876497,67.063101 7.88113379,35.1241469 1.87787581,35.1241469 C-7.11883234,38.3093396 13.8843918,150 115.92342,150 C178.94945,150 217.962448,95.7124299 223.883917,95.7124299 C229.805387,95.7124299 268.900173,150 331.844415,150 C434.063377,150.086976 455.066601,38.2919342 449.063343,35.1241469 L449.063343,35.1241469 Z"></path>
        <filter id="filter-18" filterUnits="objectBoundingBox" height="310.9%" width="183.7%" y="-105.4%" x="-41.8%">
            <feGaussianBlur in="SourceGraphic" stdDeviation="25"></feGaussianBlur>
        </filter>
        <filter id="filter-19" filterUnits="objectBoundingBox" height="310.9%" width="183.7%" y="-105.4%" x="-41.8%">
            <feGaussianBlur in="SourceGraphic" stdDeviation="25"></feGaussianBlur>
        </filter>
        <filter id="filter-20" filterUnits="objectBoundingBox" height="310.9%" width="183.7%" y="-105.4%" x="-41.8%">
            <feGaussianBlur in="SourceGraphic" stdDeviation="25"></feGaussianBlur>
        </filter>
        <filter id="filter-21" filterUnits="objectBoundingBox" height="310.9%" width="183.7%" y="-105.4%" x="-41.8%">
            <feGaussianBlur in="SourceGraphic" stdDeviation="25"></feGaussianBlur>
        </filter>
        <filter id="filter-22" filterUnits="objectBoundingBox" height="310.9%" width="183.7%" y="-105.4%" x="-41.8%">
            <feGaussianBlur in="SourceGraphic" stdDeviation="25"></feGaussianBlur>
        </filter>
        <filter id="filter-23" filterUnits="objectBoundingBox" height="310.9%" width="183.7%" y="-105.4%" x="-41.8%">
            <feGaussianBlur in="SourceGraphic" stdDeviation="25"></feGaussianBlur>
        </filter>
        <linearGradient id="linearGradient-24" y2="94.6104914%" x2="66.323663%" y1="13.5917471%" x1="66.323663%">
            <stop offset="0%" stop-color="#FFFFFF"></stop>
            <stop offset="100%" stop-color="#FFA454"></stop>
        </linearGradient>
        <path id="path-25" d="M254.713129,44.9122515 C246.179092,51.5456668 236.585839,56.9510906 226.264813,60.9417679 C217.85548,64.0865646 208.428687,64.0865646 200.019354,60.9417679 C185.354625,54.7367938 179.249566,41.2926833 173.333323,28.3082002 C170.515924,21.0786148 166.664299,14.2205909 161.87847,7.91222054 C158.291484,3.84039464 152.874718,1.47371033 147.150802,1.47743258 C140.433343,1.25663863 133.707383,1.41013296 127.010402,1.93706029 C117.695466,2.45414147 106.051797,3.14358304 89.2471504,3.25848996 C68.5403011,3.25848996 56.1413668,2.85631572 47.8963903,2.51159493 C45.4743037,2.29313263 35.212676,2.26429144 17.1115072,2.42507138 L17.1115074,2.4250889 C11.9376474,2.47197097 7.50887688,6.14788782 6.50980852,11.2245882 C-2.7328038,58.190881 -2.13343317,93.2632901 8.30791533,116.441815 C20.8956657,144.479105 53.057368,166.426328 91.8276392,173.895279 C158.794471,186.592494 221.92204,147.983766 263.650432,117.878151 C275.608795,109.221829 293.042829,95.452149 315.952535,76.5691103 L324.633563,69.4688669 C334.321631,61.5449626 335.751767,47.2676385 327.827863,37.5795711 C326.097878,35.4644259 323.999622,33.6795919 321.634395,32.3112392 C304.437467,22.3623149 282.958492,23.6589292 267.08325,35.6043104 L254.713129,44.9122515 L254.713129,44.9122515 Z"></path>
        <filter id="filter-26" filterUnits="objectBoundingBox" height="314.3%" width="202.3%" y="-107.1%" x="-53.6%">
            <feOffset result="shadowOffsetOuter1" in="SourceAlpha" dy="0" dx="0"></feOffset>
            <feGaussianBlur result="shadowBlurOuter1" in="shadowOffsetOuter1" stdDeviation="87.5"></feGaussianBlur>
            <feComposite result="shadowBlurOuter1" operator="out" in2="SourceAlpha" in="shadowBlurOuter1"></feComposite>
            <feColorMatrix in="shadowBlurOuter1" type="matrix" values="0 0 0 0 0.113355139   0 0 0 0 0.263976874   0 0 0 0 0.55638587  0 0 0 0.337767701 0"></feColorMatrix>
        </filter>
        <linearGradient id="linearGradient-27" y2="100%" x2="50%" y1="0%" x1="50%">
            <stop offset="0%" stop-color="#FFBB90"></stop>
            <stop offset="100%" stop-color="#FF3B31"></stop>
        </linearGradient>
        <linearGradient id="linearGradient-28" y2="100%" x2="50%" y1="0%" x1="50%">
            <stop offset="0%" stop-color="#FFBB90"></stop>
            <stop offset="100%" stop-color="#FF3B31"></stop>
        </linearGradient>
    </defs>
    <g fill-rule="evenodd" fill="none" stroke-width="1" stroke="none" id="男士专区">
        <rect height="1100" width="1100" y="0" x="0" fill="#FFFFFF"></rect>
        <g transform="translate(50, 90)" id="编组-38">
            <rect height="1000" width="1000" y="0" x="0" id="矩形"></rect>
            <path fill="url(#linearGradient-1)" id="椭圆形备份-7" d="M500,1000 C776.142375,1000 1000,777.144932 1000,502.239273 C1000,322.872703 797.332453,300 500,300 C202.667547,300 0,325.717179 0,502.239273 C0,777.144932 223.857625,1000 500,1000 Z"></path>
            <g transform="translate(162.5, 25)" id="编组-98">
                <g filter="url(#filter-2)" id="编组-97">
                    <ellipse ry="307.035227" rx="311.538462" cy="442.964773" cx="337.5" fill="url(#radialGradient-3)" id="椭圆形"></ellipse>
                    <rect rx="25.5862689" height="51.1725378" width="571.153846" y="315.033428" x="51.9230769" filter="url(#filter-4)" opacity="0.755301339" fill="#3D4AFF" id="矩形"></rect>
                    <ellipse ry="307.035227" rx="311.538462" cy="442.964773" cx="337.5" filter="url(#filter-6)" stroke-width="12.9264376" stroke="url(#linearGradient-5)" id="椭圆形"></ellipse>
                    <ellipse ry="307.035227" rx="311.538462" cy="442.964773" cx="337.5" filter="url(#filter-8)" opacity="0.561732701" stroke-width="12.9264376" stroke="url(#linearGradient-7)" id="椭圆形"></ellipse>
                    <g id="编组-96">
                        <path fill="url(#linearGradient-9)" id="矩形" d="M226.238699,53.1252736 C275.165633,67.3861181 312.252733,74.5165403 337.5,74.5165403 C362.884472,74.5165403 400.370021,67.3084076 449.956648,52.8921423 L449.95664,52.8921162 C519.985936,32.5325763 593.260564,72.7978689 613.620104,142.827164 C616.04894,151.181461 617.646188,159.755347 618.388562,168.423818 L630.209271,306.450539 C631.529129,321.862119 620.105532,335.425631 604.693951,336.74549 C603.899164,336.813556 603.101831,336.847636 602.304135,336.847636 L72.8194284,336.847636 C57.3514339,336.847636 44.8121469,324.308349 44.8121469,308.840355 C44.8121469,308.00505 44.8495158,307.170163 44.9241415,306.338198 L57.2948123,168.423818 C63.8284725,95.5833291 128.173934,41.831024 201.014423,48.3646843 C209.556844,49.1309241 218.004617,50.7252806 226.238696,53.1252862 Z"></path>
                        <path fill="url(#linearGradient-10)" id="矩形" d="M226.238699,53.1252736 C275.165633,67.3861181 312.252733,74.5165403 337.5,74.5165403 C362.884472,74.5165403 400.370021,67.3084076 449.956648,52.8921423 L449.95664,52.8921162 C519.985936,32.5325763 593.260564,72.7978689 613.620104,142.827164 C616.04894,151.181461 617.646188,159.755347 618.388562,168.423818 L630.209271,306.450539 C631.529129,321.862119 620.105532,335.425631 604.693951,336.74549 C603.899164,336.813556 603.101831,336.847636 602.304135,336.847636 L72.8194284,336.847636 C57.3514339,336.847636 44.8121469,324.308349 44.8121469,308.840355 C44.8121469,308.00505 44.8495158,307.170163 44.9241415,306.338198 L57.2948123,168.423818 C63.8284725,95.5833291 128.173934,41.831024 201.014423,48.3646843 C209.556844,49.1309241 218.004617,50.7252806 226.238696,53.1252862 Z"></path>
                        <path filter="url(#filter-12)" fill-rule="nonzero" fill="url(#linearGradient-11)" id="路径-37" d="M424.592581,93.0931054 C508.919996,73.7440753 568.468219,97.5882726 598.933512,164.187346 L600.058392,168.698567 L606.714236,280.89434 C607.132669,287.947748 601.670095,293.999969 594.513235,294.412353 C587.356376,294.824738 581.215389,289.441124 580.796956,282.387716 L574.289068,172.676633 L572.691993,169.355141 C547.987473,120.557344 504.202533,103.02846 439.196883,116.003559 L432.150693,117.510438 C402.872004,128.485571 373.70891,133.997179 344.723034,133.997179 C315.576414,133.997179 288.004996,128.4222 262.122246,117.275838 C255.552949,114.446781 252.554522,106.904889 255.425072,100.43055 C258.295622,93.9562112 265.94813,91.0011259 272.517427,93.8301825 C295.09196,103.551867 319.122674,108.41091 344.723034,108.41091 C370.484138,108.41091 396.529688,103.488495 424.592581,93.0931054 Z"></path>
                        <rect rx="24.5549719" height="49.1099438" width="667.244137" y="287.631822" x="3.87793129" fill="url(#linearGradient-13)" stroke-width="7.75586258" stroke="url(#linearGradient-14)" id="矩形"></rect>
                    </g>
                </g>
                <g transform="translate(112.5704, 487.5)" id="路径-38-+-路径-38备份蒙版">
                    <mask fill="white" id="mask-17">
                        <use xlink:href="#path-16"></use>
                    </mask>
                    <use xlink:href="#path-16" fill="url(#linearGradient-15)" id="蒙版"></use>
                    <path mask="url(#mask-17)" filter="url(#filter-18)" fill-rule="nonzero" fill="#FFFFFF" id="路径-38" d="M7.95316279,66.3851825 C13.5212563,70.5623232 17.9727083,74.2368377 21.3075189,77.408726 C70.2091172,123.921234 121.380735,122.300495 168.853811,97.0975525 C174.951365,93.8604275 182.518616,96.1792627 185.755741,102.276816 C188.992866,108.374369 186.674031,115.941621 180.576478,119.178746 C122.913108,149.791605 66.9364345,144.212497 19.5685088,86.290197 C16.8968926,83.0232996 13.0251106,76.3882948 7.95316279,66.3851825 Z"></path>
                    <path transform="translate(347.5854, 101.9543) scale(-1, 1) translate(-347.5854, -101.9543)" mask="url(#mask-17)" filter="url(#filter-19)" fill-rule="nonzero" fill="#FFFFFF" id="路径-38备份" d="M257.953163,66.3851825 C263.521256,70.5623232 267.972708,74.2368377 271.307519,77.408726 C320.209117,123.921234 371.380735,122.300495 418.853811,97.0975525 C424.951365,93.8604275 432.518616,96.1792627 435.755741,102.276816 C438.992866,108.374369 436.674031,115.941621 430.576478,119.178746 C372.913108,149.791605 316.936435,144.212497 269.568509,86.290197 C266.896893,83.0232996 263.025111,76.3882948 257.953163,66.3851825 Z"></path>
                    <path mask="url(#mask-17)" filter="url(#filter-20)" fill-rule="nonzero" fill="#FFFFFF" id="路径-38" d="M7.95316279,66.3851825 C13.5212563,70.5623232 17.9727083,74.2368377 21.3075189,77.408726 C70.2091172,123.921234 121.380735,122.300495 168.853811,97.0975525 C174.951365,93.8604275 182.518616,96.1792627 185.755741,102.276816 C188.992866,108.374369 186.674031,115.941621 180.576478,119.178746 C122.913108,149.791605 66.9364345,144.212497 19.5685088,86.290197 C16.8968926,83.0232996 13.0251106,76.3882948 7.95316279,66.3851825 Z"></path>
                    <path transform="translate(347.5854, 101.9543) scale(-1, 1) translate(-347.5854, -101.9543)" mask="url(#mask-17)" filter="url(#filter-21)" fill-rule="nonzero" fill="#FFFFFF" id="路径-38备份" d="M257.953163,66.3851825 C263.521256,70.5623232 267.972708,74.2368377 271.307519,77.408726 C320.209117,123.921234 371.380735,122.300495 418.853811,97.0975525 C424.951365,93.8604275 432.518616,96.1792627 435.755741,102.276816 C438.992866,108.374369 436.674031,115.941621 430.576478,119.178746 C372.913108,149.791605 316.936435,144.212497 269.568509,86.290197 C266.896893,83.0232996 263.025111,76.3882948 257.953163,66.3851825 Z"></path>
                    <path mask="url(#mask-17)" filter="url(#filter-22)" fill-rule="nonzero" fill="#FFFFFF" id="路径-38" d="M7.95316279,66.3851825 C13.5212563,70.5623232 17.9727083,74.2368377 21.3075189,77.408726 C70.2091172,123.921234 121.380735,122.300495 168.853811,97.0975525 C174.951365,93.8604275 182.518616,96.1792627 185.755741,102.276816 C188.992866,108.374369 186.674031,115.941621 180.576478,119.178746 C122.913108,149.791605 66.9364345,144.212497 19.5685088,86.290197 C16.8968926,83.0232996 13.0251106,76.3882948 7.95316279,66.3851825 Z"></path>
                    <path transform="translate(347.5854, 101.9543) scale(-1, 1) translate(-347.5854, -101.9543)" mask="url(#mask-17)" filter="url(#filter-23)" fill-rule="nonzero" fill="#FFFFFF" id="路径-38备份" d="M257.953163,66.3851825 C263.521256,70.5623232 267.972708,74.2368377 271.307519,77.408726 C320.209117,123.921234 371.380735,122.300495 418.853811,97.0975525 C424.951365,93.8604275 432.518616,96.1792627 435.755741,102.276816 C438.992866,108.374369 436.674031,115.941621 430.576478,119.178746 C372.913108,149.791605 316.936435,144.212497 269.568509,86.290197 C266.896893,83.0232996 263.025111,76.3882948 257.953163,66.3851825 Z"></path>
                </g>
            </g>
            <g transform="translate(200, 623.6203)" id="烟斗">
                <g id="路径">
                    <use xlink:href="#path-25" filter="url(#filter-26)" fill-opacity="1" fill="black"></use>
                    <path fill-rule="evenodd" fill="url(#linearGradient-24)" stroke-linejoin="square" d="M127.218248,5.68129586 C133.862759,5.15949757 140.449347,5.00918977 147.027611,5.22540857 C151.728607,5.22445644 156.083605,7.06393458 158.984587,10.3024289 C163.514848,16.2970038 167.165143,22.8079102 169.839269,29.6698477 C170.158374,30.3843405 170.365283,30.8384487 170.574028,31.2954729 L171.013169,32.2548973 L171.453811,33.2121054 L171.900588,34.174821 C177.694907,46.6008539 184.595358,58.4874034 198.558071,64.3953389 C207.956898,67.9137725 218.32727,67.9137725 227.578339,64.4541961 C238.273509,60.3191009 248.178049,54.7377592 256.991108,47.8912044 L269.337953,38.6007778 C276.674252,33.0805539 285.305355,30.0208448 294.089154,29.4905961 C302.872953,28.9603474 311.809446,30.959559 319.756526,35.5571763 C321.730366,36.6991002 323.481412,38.1885882 324.925127,39.9537289 C328.231474,43.9961942 329.586276,48.9961215 329.103875,53.8120191 C328.621474,58.6279167 326.301871,63.2597845 322.259405,66.5661312 L313.572884,73.6708673 C290.741423,92.4895089 273.368644,106.214036 261.456354,114.837013 C220.445178,144.425181 158.433906,182.707318 92.5233245,170.210347 C55.1326287,163.003512 23.8993162,142.013535 11.7270128,114.901596 C1.50602193,92.2122389 1.15423268,57.8600117 10.1892365,11.9486806 C10.5170032,10.2831553 11.4073653,8.84740929 12.6401358,7.82419937 C13.8729063,6.80098945 15.4480853,6.19031567 17.1446287,6.17494263 L17.7724868,6.16939691 C24.8443259,6.10768401 30.6929769,6.07553109 35.3170391,6.07299112 L36.1183007,6.07284849 L37.2756776,6.07378738 C42.8760358,6.08187648 46.3044417,6.13323047 47.5595232,6.24643369 C56.0159515,6.60434831 68.4618477,7.00848996 89.2471504,7.00848996 C105.366807,6.89835454 116.750787,6.26451342 125.887805,5.75534208 C126.33664,5.73033022 126.780023,5.70562217 127.218248,5.68129586 Z" stroke-width="7.5" stroke="#FFFFFF"></path>
                </g>
                <path fill="url(#linearGradient-27)" stroke-width="7.5" stroke="#FFFFFF" id="路径-64" d="M256.724527,51.1457383 C261.610148,49.8330877 267.966281,53.5096503 275.792928,62.1754261 C283.619574,70.8412018 287.494679,80.0868856 287.418242,89.9124774 L270.280369,103.022838 C270.507102,89.852974 267.105037,79.6374892 260.074175,72.376384 C253.043313,65.1152787 246.313187,61.4144983 239.8838,61.2740426 L256.724527,51.1457383 Z"></path>
                <path fill="#FFFFFF" stroke-width="7.5" stroke="#FFFFFF" id="椭圆形" d="M86.7811077,-3.75 C107.300763,-3.75 124.339969,-2.38264763 136.401824,-0.180674612 C143.050735,1.0331289 148.245081,2.52231191 151.777686,4.1491782 C153.913852,5.1329442 155.515526,6.20542955 156.607426,7.27584475 C158.327983,8.96254621 159.00297,10.7588558 159.00297,12.5 C159.00297,14.2411442 158.327983,16.0374538 156.607426,17.7241553 C155.515526,18.7945704 153.913852,19.8670558 151.777686,20.8508218 C148.245081,22.4776881 143.050735,23.9668711 136.401824,25.1806746 C124.339969,27.3826476 107.300763,28.75 86.7811077,28.75 C65.9750969,28.75 47.6878347,27.3454852 34.5412985,25.0863701 C27.4976732,23.8759859 21.8819726,22.401955 18.0506757,20.790447 C15.7995594,19.8435896 14.0934072,18.8117711 12.931551,17.7841367 C11.0004161,16.0760937 10.2894822,14.2386 10.2894822,12.5 C10.2894822,10.7614 11.0004161,8.92390632 12.931551,7.21586327 C14.0934072,6.18822894 15.7995594,5.15641036 18.0506757,4.20955297 C21.8819726,2.59804499 27.4976732,1.12401414 34.5412985,-0.0863700972 C47.6878347,-2.34548517 65.9750969,-3.75 86.7811077,-3.75 Z"></path>
                <path fill="url(#linearGradient-28)" stroke-width="12.5" stroke="#FFFFFF" id="椭圆形" d="M89.2739698,-1.50024422 C107.714557,-1.50024422 123.024808,-0.0984405689 133.863734,2.136934 C140.115115,3.42619245 144.984714,5.03367323 148.304011,6.7605811 C150.567341,7.93810787 152.24307,9.23563929 153.39816,10.5148766 C155.361595,12.6893393 156.134206,14.9948141 156.134206,17.2497558 C156.134206,19.5046974 155.361595,21.8101723 153.39816,23.9846349 C152.24307,25.2638723 150.567341,26.5614037 148.304011,27.7389305 C144.984714,29.4658383 140.115115,31.0733191 133.863734,32.3625776 C123.024808,34.5979521 107.714557,35.9997558 89.2739698,35.9997558 C70.6053682,35.9997558 54.1985744,34.5655933 42.4031958,32.2757537 C35.8353336,31.0007331 30.6102797,29.4254033 27.0394449,27.7286349 C24.6744997,26.6048741 22.9036491,25.3638061 21.6850153,24.1461473 C19.4540424,21.9169594 18.6342056,19.5318207 18.6342056,17.2497558 C18.6342056,14.9676909 19.4540424,12.5825521 21.6850153,10.3533642 C22.9036491,9.1357055 24.6744997,7.89463748 27.0394449,6.77087661 C30.6102797,5.07410822 35.8353336,3.49877848 42.4031958,2.22375784 C54.1985744,-0.066081769 70.6053682,-1.50024422 89.2739698,-1.50024422 Z"></path>
            </g>
        </g>
    </g>
</svg>