<?xml version="1.0" standalone="no"?><!DOCTYPE svg PUBLIC "-//W3C//DTD SVG 1.1//EN" "http://www.w3.org/Graphics/SVG/1.1/DTD/svg11.dtd"><svg t="1731547983377" class="icon" viewBox="0 0 1024 1024" version="1.1" xmlns="http://www.w3.org/2000/svg" p-id="57393" xmlns:xlink="http://www.w3.org/1999/xlink" width="200" height="200"><path d="M234.9312 899.4432l-58.88 58.88a24.9216 24.9216 0 0 0 0 33.9072c9.6896 9.6896 25.0368 9.6896 33.9072 0l58.88-58.88a23.4112 23.4112 0 0 0 0-33.9072 24.9088 24.9088 0 0 0-33.9072 0zM681.4208 192.1536c-81.5488 0-147.7632 67.008-147.7632 148.5568a147.8272 147.8272 0 0 0 147.7632 147.7632c81.5488 0 147.7504-67.0208 147.7504-147.7504 0-81.5488-66.2016-148.5696-147.7504-148.5696z m0 248.6784c-54.8992 0-100.1216-45.2096-100.1216-100.1088A100.096 100.096 0 0 1 681.4208 240.64c54.8992 0 100.1088 45.2096 100.1088 100.1216a100.096 100.096 0 0 1-100.1088 100.0704zM62.9504 846.144l58.88-58.88a23.4112 23.4112 0 0 0 0-33.9072c-8.8832-9.6896-24.2176-9.6896-33.9072 0l-58.88 59.7376a23.8976 23.8976 0 0 0 0 33.1008c9.6896 8.8832 25.024 8.8832 33.9072 0z" fill="#1296db" p-id="57394"></path><path d="M803.776 75.3536A592.5376 592.5376 0 0 1 933.3248 89.6a587.328 587.328 0 0 1-6.4 282.5856 585.7024 585.7024 0 0 1-151.8464 263.232l-11.3024 11.3024-12.9152 12.1088a37.9392 37.9392 0 0 0-10.496 42.7904c12.1088 33.1008 15.36 70.2464 8.0768 103.3472a188.7744 188.7744 0 0 1-49.2544 90.432l-1.5872 1.6128c-27.456 27.456-62.976 43.6096-98.56 49.2544a200.4096 200.4096 0 0 1-29.44 2.2528 165.312 165.312 0 0 1-36.0064-3.84c4.8512-9.6896 10.496-20.1856 14.5408-29.8752 12.1088-28.2496 18.5728-58.88 20.1856-89.6 0-21.76-16.1408-40.3712-37.952-41.1648a55.1168 55.1168 0 0 0-12.1088 1.6128A709.2992 709.2992 0 0 1 435.968 802.56a478.912 478.912 0 0 1-67.84 4.8512L214.7456 653.184q1.216-33.984 4.8384-67.84A746.24 746.24 0 0 1 236.544 503.04a39.3856 39.3856 0 0 0-27.456-48.448c-3.2256 0-6.0928-0.3584-8.8448-0.3584a20.5568 20.5568 0 0 0-4.0704 0.3584 240.4736 240.4736 0 0 0-88.8192 19.3792 181.76 181.76 0 0 0-30.72 15.36 166.2208 166.2208 0 0 1-0.8064-66.2016c5.6576-36.3392 23.4112-71.0528 51.6736-100.1216 25.8304-25.024 57.3184-41.984 90.4192-48.448a199.9232 199.9232 0 0 1 40.96-4.3136 173.5552 173.5552 0 0 1 63.232 11.52 37.6576 37.6576 0 0 0 14.08 2.7008 40.64 40.64 0 0 0 30.3872-14.0032l10.496-12.1088 11.3024-11.3024A579.4432 579.4432 0 0 1 649.9328 95.2704a605.1712 605.1712 0 0 1 153.8432-19.9168m0-57.6a662.4768 662.4768 0 0 0-168.4992 21.76h-0.3072a637.6832 637.6832 0 0 0-287.4752 166.784l-11.2 11.3024-1.4464 1.4464-1.28 1.5488-2.688 3.1104a232.5632 232.5632 0 0 0-71.9232-11.136 257.8176 257.8176 0 0 0-52.3264 5.4528c-43.9424 8.6528-85.1072 30.6176-119.04 63.5392l-0.6144 0.6016-0.6016 0.6144C49.92 320.1152 26.752 365.2608 19.0848 413.44A222.2336 222.2336 0 0 0 20.48 501.76l5.568 25.0496a39.3088 39.3088 0 0 0 58.9696 24.96l21.8624-13.44a124.5824 124.5824 0 0 1 21.12-10.6368l1.0112-0.384 0.9984-0.4224a182.208 182.208 0 0 1 44.4032-12.6848 807.7184 807.7184 0 0 0-11.8528 62.72l-0.1664 1.1264-0.1152 1.1264c-2.56 23.808-4.2752 48-5.12 71.8976l-0.1664 4.8384a46.4512 46.4512 0 0 0 13.4912 34.4192l3.4176 3.4304 153.408 154.2528 3.2768 3.2896a46.4512 46.4512 0 0 0 32.9344 13.696h4.6336a538.3424 538.3424 0 0 0 76.0064-5.44c21.0816-3.0208 42.24-7.0016 64-12.0704a193.5488 193.5488 0 0 1-12.8768 44.5952l-0.1152 0.2688-0.1152 0.2688c-2.2016 5.2864-5.6704 12.096-9.0368 18.6752-1.28 2.56-2.56 5.12-3.84 7.5904l-10.4832 20.9536A39.3088 39.3088 0 0 0 498.2912 995.84l22.8736 5.12a224 224 0 0 0 48.4992 5.12 259.2384 259.2384 0 0 0 37.8368-2.8672h0.6144c49.6768-7.8976 95.9104-31.1296 130.1888-65.408l1.6128-1.6128 0.32-0.32 0.32-0.3328a245.888 245.888 0 0 0 64.1408-118.1696c8.6656-39.5008 6.4-82.9952-6.2848-123.7632l17.408-17.408a642.432 642.432 0 0 0 103.9872-136.256 649.6768 649.6768 0 0 0 62.72-152.7168 653.7216 653.7216 0 0 0 22.4384-154.5984 643.0592 643.0592 0 0 0-15.36-155.5456l-3.0592-13.6448a35.5456 35.5456 0 0 0-26.88-26.88L945.92 33.408a651.0848 651.0848 0 0 0-142.144-15.6544zM195.3664 826.7776c-8.8704-9.6896-24.2176-9.6896-33.9072 0L27.4304 960.7936a23.8976 23.8976 0 0 0 0 33.1008c9.6896 9.6896 25.024 9.6896 33.9072 0l134.0288-134.016c9.6896-9.6896 9.6896-24.2304 0-33.1008z" fill="#1296db" p-id="57395"></path></svg>