<?xml version="1.0" standalone="no"?><!DOCTYPE svg PUBLIC "-//W3C//DTD SVG 1.1//EN" "http://www.w3.org/Graphics/SVG/1.1/DTD/svg11.dtd"><svg t="1731894328853" class="icon" viewBox="0 0 1024 1024" version="1.1" xmlns="http://www.w3.org/2000/svg" p-id="20295" xmlns:xlink="http://www.w3.org/1999/xlink" width="200" height="200"><path d="M855.6 153.4C791.3 99.2 716.7 58.5 636.2 34c-0.7 0-1.6 0-3.8 0.5 17.1 13.1 34.1 25.6 50.8 38.1 63.1 45.9 117.5 102.8 160.6 167.9 21.6 32.2 35 69.2 39 107.8 0.6 9.7 0.2 19.3-1.1 28.9-17.1-58.5-44.1-113.7-79.9-163.1 16.2 82.9 8.1 168.6-23.5 247h-4.6l-3.8-14c-24.3-88.7-86.9-161.9-170.7-199.9-5-1.7-9.6-4.2-13.7-7.4-3.8-4.4-6.2-9.9-7.1-15.6 0-1.4 7.9-5.5 12.4-5.9 40-1.5 80 3.2 118.5 14 3.2 0.9 6.5 1.2 9.8 0.9A240.9 240.9 0 0 0 615 182.8c-75.4-18.8-155.3-2.4-217.2 44.5-45.9 30.5-71 84-65.2 138.8 0 4.2 1.5 8.5 2.5 13.6 35.8-30.8 78.9-52 125.2-61.5 25.2-5.7 51.3-6.7 76.8-2.8 48.8 9.6 85.7 49.9 91 99.3 19.3 74.4-25.4 150.3-99.7 169.6-9.6 2.5-19.5 4-29.5 4.3-61.1 5.7-121.9-14.2-167.8-55-76-56.8-117.4-148.7-109.7-243.2 1.6-80.6 37-156.8 97.5-210 15-12.1 30.6-23.5 46.8-34.1-138.9 19.7-239 143.3-229.5 283.3-20-20-20-46.6 0-142.1-29.1 30.5-48.1 69.2-54.4 110.9-24.6 139.5 31.8 280.9 145.5 365.3 3.1 2.3 6 5 8.5 7.9-25-5.7-48.2-17.7-67.2-34.8-67.1-57.1-112-136-126.9-222.8-1.7-8.5-2.7-16.4-4.2-24.5 0-0.6-1.3-1-2.7-2C14.4 482.3 18.9 580.8 48 673.4c41.7 116.9 140.5 204.3 261.6 231.3 55.6 14.7 113.3 19.8 170.7 15.2 67.3-4.7 133.3-21 195.1-48.1 2-0.5 4.1-0.9 6.1-1.1-38.9 29.9-83.5 51.4-131.2 63.1-72.7 16.4-148 16.8-220.8 1.1-25.6-4.9-51.2-11-77.7-13.9 27.8 11.3 55.3 23.4 83.4 34.1 68 26.3 140.5 38.9 213.3 37.1 118.5-9.6 229.8-61 313.9-145.1 71-71.3 118.5-162.6 136.1-261.7 37.7-159.4-17.6-326.5-142.9-432z m-431.8 135c-8.4 10.9-24.1 12.8-35 4.4-0.2-0.2-0.5-0.4-0.7-0.6 3.1 0.3 6.1 0.5 9.2 0.5 9.3-0.5 14.5-6.7 12.6-14.7-2-6.3-6.7-11.3-12.9-13.7-7.8-1.9-14.1 3.8-15 12.7 0 3.5 0.3 7 1 10.4-9.6-9-10-24.1-1-33.7 0.7-0.7 1.4-1.4 2.2-2 10.5-9.6 26.6-9.6 37.1 0 10.7 9.7 11.7 26 2.5 36.7z" fill="#d81e06" p-id="20296"></path></svg>