<?xml version="1.0" standalone="no"?><!DOCTYPE svg PUBLIC "-//W3C//DTD SVG 1.1//EN" "http://www.w3.org/Graphics/SVG/1.1/DTD/svg11.dtd"><svg t="1734693183504" class="icon" viewBox="0 0 1024 1024" version="1.1" xmlns="http://www.w3.org/2000/svg" p-id="56006" xmlns:xlink="http://www.w3.org/1999/xlink" width="200" height="200"><path d="M106.666667 832c0 46.933333 38.4 85.333333 85.333333 85.333333h640c46.933333 0 85.333333-38.4 85.333333-85.333333V320H106.666667v512z m618.666666 0c0 12.8-8.533333 21.333333-21.333333 21.333333h-106.666667c-12.8 0-21.333333-8.533333-21.333333-21.333333v-21.333333c0-12.8 8.533333-21.333333 21.333333-21.333334h106.666667c12.8 0 21.333333 8.533333 21.333333 21.333334v21.333333z m0-106.666667c0 12.8-8.533333 21.333333-21.333333 21.333334h-192c-12.8 0-21.333333-8.533333-21.333333-21.333334v-21.333333c0-12.8 8.533333-21.333333 21.333333-21.333333h192c12.8 0 21.333333 8.533333 21.333333 21.333333v21.333333z m-21.333333-149.333333c12.8 0 21.333333 8.533333 21.333333 21.333333v21.333334c0 12.8-8.533333 21.333333-21.333333 21.333333h-106.666667c-12.8 0-21.333333-8.533333-21.333333-21.333333v-21.333334c0-12.8 8.533333-21.333333 21.333333-21.333333h106.666667z m-185.6-213.333333s-4.266667 34.133333 38.4 64c2.133333 2.133333 8.533333 6.4 10.666667 10.666666 27.733333 36.266667 19.2 91.733333 12.8 100.266667h-36.266667v-8.533333c-2.133333-29.866667-12.8-55.466667-17.066667-44.8-2.133333 8.533333-10.666667 23.466667-10.666666 23.466666-19.2 25.6-14.933333-61.866667-14.933334-61.866666-46.933333 40.533333-38.4 89.6-36.266666 93.866666h-34.133334c0-4.266667-55.466667-93.866667 87.466667-177.066666zM298.666667 597.333333c0-12.8 8.533333-21.333333 21.333333-21.333333h192c12.8 0 21.333333 8.533333 21.333333 21.333333v21.333334c0 12.8-8.533333 21.333333-21.333333 21.333333h-192c-12.8 0-21.333333-8.533333-21.333333-21.333333v-21.333334z m0 106.666667c0-12.8 8.533333-21.333333 21.333333-21.333333h106.666667c12.8 0 21.333333 8.533333 21.333333 21.333333v21.333333c0 12.8-8.533333 21.333333-21.333333 21.333334h-106.666667c-12.8 0-21.333333-8.533333-21.333333-21.333334v-21.333333z m0 106.666667c0-12.8 8.533333-21.333333 21.333333-21.333334h192c12.8 0 21.333333 8.533333 21.333333 21.333334v21.333333c0 12.8-8.533333 21.333333-21.333333 21.333333h-192c-12.8 0-21.333333-8.533333-21.333333-21.333333v-21.333333zM832 106.666667H192C145.066667 106.666667 106.666667 145.066667 106.666667 192v64h810.666666V192c0-46.933333-38.4-85.333333-85.333333-85.333333z m-608 106.666666C206.933333 213.333333 192 198.4 192 181.333333S206.933333 149.333333 224 149.333333s32 14.933333 32 32-14.933333 32-32 32z m106.666667 0c-17.066667 0-32-14.933333-32-32S313.6 149.333333 330.666667 149.333333s32 14.933333 32 32-14.933333 32-32 32z m106.666666 0c-17.066667 0-32-14.933333-32-32S420.266667 149.333333 437.333333 149.333333s32 14.933333 32 32-14.933333 32-32 32z" p-id="56007" fill="#d81e06"></path></svg>