<?xml version="1.0" standalone="no"?><!DOCTYPE svg PUBLIC "-//W3C//DTD SVG 1.1//EN" "http://www.w3.org/Graphics/SVG/1.1/DTD/svg11.dtd"><svg t="1734693320798" class="icon" viewBox="0 0 1024 1024" version="1.1" xmlns="http://www.w3.org/2000/svg" p-id="63048" xmlns:xlink="http://www.w3.org/1999/xlink" width="200" height="200"><path d="M512 1024a577.054118 577.054118 0 0 0 210.823529-159.924706v-150.588235a53.007059 53.007059 0 0 0-46.983529-57.22353H629.458824V578.258824c0-82.823529-42.767059-152.696471-99.388236-152.696471h-37.345882c-56.922353 0-99.689412 69.872941-99.689412 152.696471v77.402352h-47.284706a53.007059 53.007059 0 0 0-47.284706 57.22353v150.588235A579.764706 579.764706 0 0 0 512 1024z m23.190588-146.371765v65.355294a26.503529 26.503529 0 0 1-23.792941 28.611765 26.804706 26.804706 0 0 1-23.491765-30.117647v-63.849412a60.235294 60.235294 0 0 1-23.491764-49.694117A53.308235 53.308235 0 0 1 512 770.409412a53.007059 53.007059 0 0 1 47.284706 57.524706 60.235294 60.235294 0 0 1-24.395294 49.694117z m-94.870588-299.369411c0-54.211765 25.298824-95.171765 52.404706-95.171765h37.345882c27.105882 0 52.103529 41.261176 52.10353 95.171765v77.402352h-141.854118z" fill="#d81e06" p-id="63049"></path><path d="M914.672941 120.470588h-28.310588C643.915294 120.470588 537.298824 24.094118 536.395294 23.190588L512 0l-24.094118 23.190588S374.061176 128.301176 109.327059 120.470588H75.294118v439.717647c0 66.258824 45.176471 180.705882 131.011764 264.432941V692.705882a243.350588 243.350588 0 0 1-35.237647-134.625882V208.414118C376.470588 207.811765 464.715294 174.08 512 141.251765c47.284706 32.828235 135.529412 66.56 340.931765 67.162353v350.870588a240.941176 240.941176 0 0 1-36.74353 136.432941v129.204706c87.04-84.329412 132.517647-199.077647 132.517647-265.637647V120.470588z" fill="#d81e06" p-id="63050"></path></svg>