<?xml version="1.0" standalone="no"?><!DOCTYPE svg PUBLIC "-//W3C//DTD SVG 1.1//EN" "http://www.w3.org/Graphics/SVG/1.1/DTD/svg11.dtd"><svg t="1731895344171" class="icon" viewBox="0 0 1247 1024" version="1.1" xmlns="http://www.w3.org/2000/svg" p-id="83104" xmlns:xlink="http://www.w3.org/1999/xlink" width="243.5546875" height="200"><path d="M286.468657 236.508038m-40.345153 0a40.345153 40.345153 0 1 0 80.690306 0 40.345153 40.345153 0 1 0-80.690306 0Z" p-id="83105" fill="#1296db"></path><path d="M288.146479 335.654381a97.907336 97.907336 0 1 1 25.34801-3.32983 99.094718 99.094718 0 0 1-25.34801 3.32983z m0.154875-161.354801a62.466584 62.466584 0 0 0-16.339399 2.142449 63.524902 63.524902 0 1 0 16.339399-2.142449z" p-id="83106" fill="#1296db"></path><path d="M1245.795351 192.858867c2.581264-7.743791 3.484706-20.185483-5.936907-36.808822-21.321239-37.686452-80.535431-75.992406-137.736237-89.079414-69.952249-16.029648-132.367208 5.57553-172.402609 26.561205l-5.756219 2.994266-5.394841-3.613769a544.207848 544.207848 0 0 0-118.092819-59.936946c-12.312628-4.465586-25.218947-8.595608-38.409206-12.312628-14.97133-4.000959-30.097536-7.330789-44.836552-9.860428l-23.231374-4.000959A830.392566 830.392566 0 0 0 608.945944 0.399838c-52.761032-1.239007-213.289828-4.981839-386.983069 86.369087a746.320804 746.320804 0 0 0-160.038356 113.782108l-1.419695 1.316445-1.806885 0.748566a95.842325 95.842325 0 0 0-34.847061 25.064072 95.687449 95.687449 0 0 0-4.155835 120.932209 354.201019 354.201019 0 0 0 418.164736 110.349028l108.129141-45.559306a146.228595 146.228595 0 0 1 191.297461 77.902541 254.590049 254.590049 0 0 1-109.910213 321.186656 29.434151 29.434151 0 0 0 28.806904 51.341337 313.391239 313.391239 0 0 0 135.309849-395.372177 205.081409 205.081409 0 0 0-268.451436-109.264897l-28.393902 11.951251 6.375722-21.992367c12.674005-43.700796 8.337482-92.925497-12.570755-142.640638a29.426407 29.426407 0 0 0-54.20654 22.844184c17.500969 41.532535 19.901544 80.81937 6.969412 113.575608s-41.300221 59.369068-82.058376 76.508659a29.323157 29.323157 0 0 0-4.723713 2.581264l-1.884322 1.239006-2.2457 0.38719a299.426601 299.426601 0 0 1-50.515333 4.310711 294.005947 294.005947 0 0 1-233.604374-115.227617 35.724691 35.724691 0 0 1-6.272471-31.388168 36.602321 36.602321 0 0 1 19.333666-23.644376 715.010074 715.010074 0 0 1 177.952327-124.416916c166.956143-81.877688 316.850132-73.87577 373.276559-70.829878 45.610931 2.426388 102.372923 5.472279 170.363411 33.16924a446.739327 446.739327 0 0 1 4.956026 825.1526l-26.948394 11.357561a419.016554 419.016554 0 0 1-377.948646-27.619523l-2.891016-1.729446-1.393882-3.071704a29.684534 29.684534 0 0 0-3.562144-5.833656c-31.723732-40.60328-29.06503-101.237166 7.743791-175.319438a557.991797 557.991797 0 0 1 64.531595-99.352844 29.245719 29.245719 0 0 0 4.826964-30.639601l-0.77438-1.85851a29.348969 29.348969 0 0 0-35.827941-16.674965c-83.762011 25.812638-151.907375 24.005753-194.317539 17.862346-44.681676-6.504785-71.268694-18.920664-74.15971-20.288734l-0.335564-0.180688a28.96178 28.96178 0 0 0-13.551635-3.381456 29.374782 29.374782 0 0 0-26.793518 41.067908l53.638662 127.333743a476.191547 476.191547 0 0 0 623.788211 253.918921l26.948394-11.357561a505.411453 505.411453 0 0 0 269.406504-661.990916c-0.826004-1.987573-1.703634-3.975146-2.581264-5.962719l-1.161569-2.83939a3.768645 3.768645 0 0 0-0.180688-0.49044l-7.743792-18.275348 5.033465-5.162528a207.481985 207.481985 0 0 1 57.794496-42.281101 223.460008 223.460008 0 0 1 52.709407-17.346093c21.889117-4.930214 37.789702-9.78299 43.752422-27.800211zM313.158925 806.038084l-2.581264 26.328891-16.778215-20.469422a416.719229 416.719229 0 0 1-61.563141-102.269672l-28.600403-67.938863 19.514354 3.200767a464.162858 464.162858 0 0 0 129.527818 2.374763l21.501927-2.581264-10.738057 18.765788c-29.168281 51.134836-46.075559 99.068905-50.283019 142.589012zM1192.208314 182.559625a256.112995 256.112995 0 0 0-59.988571 20.082232 241.838606 241.838606 0 0 0-52.399655 34.743811l-9.137674 7.92448-6.9436-9.912053a559.359867 559.359867 0 0 0-91.325113-101.211354l-13.732323-11.899626 16.958903-6.530598c40.448404-15.487583 80.019178-19.101352 117.679817-10.479931 45.249555 10.325055 86.00771 38.073641 104.747685 59.369068l12.13194 13.835574z" p-id="83107" fill="#1296db"></path></svg>