<?xml version="1.0" standalone="no"?><!DOCTYPE svg PUBLIC "-//W3C//DTD SVG 1.1//EN" "http://www.w3.org/Graphics/SVG/1.1/DTD/svg11.dtd"><svg t="1731895223812" class="icon" viewBox="0 0 1399 1024" version="1.1" xmlns="http://www.w3.org/2000/svg" p-id="78292" xmlns:xlink="http://www.w3.org/1999/xlink" width="273.2421875" height="200"><path d="M489.150413 1024a406.214876 406.214876 0 0 0 98.84562-15.57157 429.910744 429.910744 0 0 0 166.886612-88.013223h1.692562c49.761322 0 154.02314-6.770248 203.107438-13.540496a759.621818 759.621818 0 0 0 440.066115-266.070744v-2.031074A597.135868 597.135868 0 0 0 871.330909 118.479339a551.436694 551.436694 0 0 0-338.512397-118.479339h-8.801322l90.721322 147.929917c-159.100826 46.376198-250.499174 117.125289-344.944132 267.424794A356.115041 356.115041 0 0 0 7.785785 281.642314H0l4.062149 6.770248a660.776198 660.776198 0 0 1 53.823471 104.261818L109.000992 440.066116l-33.85124-2.708099V440.066116a569.377851 569.377851 0 0 1 14.217521 297.552396l-1.692562 7.108761h6.770248a457.66876 457.66876 0 0 0 159.439339-76.16529 604.921653 604.921653 0 0 0 275.210578 201.414877l-45.699174 154.02314z" fill="#1296db" p-id="78293"></path></svg>