<?xml version="1.0" standalone="no"?><!DOCTYPE svg PUBLIC "-//W3C//DTD SVG 1.1//EN" "http://www.w3.org/Graphics/SVG/1.1/DTD/svg11.dtd"><svg t="1731895157266" class="icon" viewBox="0 0 1024 1024" version="1.1" xmlns="http://www.w3.org/2000/svg" p-id="77784" xmlns:xlink="http://www.w3.org/1999/xlink" width="200" height="200"><path d="M524.288 920.064c-26.624-32.256 23.04-55.296 30.72-96.768 6.656-37.376-7.168-76.288-26.112-104.96 1.024 112.128-51.712 141.312-89.088 146.944-49.152 7.168-87.04-49.664-97.792-70.656-20.48-40.448-19.456-154.112 13.824-221.696 15.872-32.256 41.984-69.12 72.192-113.664 7.168-10.24 18.944-15.872 31.232-14.336 37.376 4.608 66.56 14.336 66.56 14.336L493.056 373.76c-2.56-6.144-1.536-12.8 1.536-18.432 5.632-9.216 11.264-18.944 16.896-28.672 38.4-68.608 60.416-150.016 65.536-208.896 1.536-15.872 1.536-29.696 1.024-41.472-1.536-17.408-3.584-32.256-11.264-34.816-86.016-26.624-165.376 12.8-184.832 21.504-7.168 3.584-13.824 7.68-20.48 12.288-82.944 54.784-147.968 133.12-186.368 225.792-1.024 3.072-3.072 5.632-6.144 8.192-30.72 25.088-77.312 65.536-97.28 98.304l55.808 1.536c9.216 0 15.872 8.192 14.848 17.408-2.56 20.992-4.096 42.496-4.096 64 0 269.312 213.504 488.96 480.768 498.176-54.784-22.528-86.528-58.88-94.72-68.608zM436.736 117.248c1.536-14.848 14.848-26.112 29.696-25.6 2.048 0 4.096 0.512 6.144 1.024 7.68 2.048 14.336 6.656 18.432 13.312 3.072 5.12 4.608 10.752 4.096 16.896-1.024 14.336-12.8 26.112-27.136 26.624-18.432 1.024-33.28-14.336-31.232-32.256zM899.584 445.952c-1.024-0.512-2.048-1.536-2.56-3.072-28.16-70.144-80.896-127.488-147.456-161.28-1.024-0.512-52.224-27.648-94.208-10.752-15.36 9.216 2.56 130.56 42.496 202.752 1.536 2.56 1.536 5.632 0.512 8.192l-22.016 57.856s23.552-7.68 51.2-10.24c6.144-0.512 12.288 2.048 16.896 6.656 13.824 16.384 29.696 34.816 43.52 53.248 16.384 20.992 29.696 42.496 35.328 59.392 19.968 62.976 1.024 149.504-30.72 147.968-31.744-1.536-114.688-25.6-106.496-104.448-19.456 37.376-11.264 86.016-4.608 104.448 5.632 15.872-10.752 56.32-39.936 71.68 78.336-8.192 147.968-45.568 197.632-100.864 50.176-55.296 80.384-128.512 80.384-208.896 0-19.456-1.536-37.888-5.12-56.32-1.024-5.632 2.56-10.752 8.192-11.776 13.824-2.56 26.624-5.12 29.184-5.632 2.56 0-25.6-21.504-52.224-38.912z m-173.056-99.328c-10.24 0-18.432-8.192-18.432-18.432 0-1.536 0-2.56 0.512-4.096 1.536-6.656 6.656-11.776 13.312-13.824 1.536-0.512 3.072-0.512 4.608-0.512 10.24 0 18.432 8.192 18.432 18.432 0 10.752-8.192 18.432-18.432 18.432zM650.24 135.68v0z" fill="#d81e06" p-id="77785"></path></svg>