<?xml version="1.0" standalone="no"?><!DOCTYPE svg PUBLIC "-//W3C//DTD SVG 1.1//EN" "http://www.w3.org/Graphics/SVG/1.1/DTD/svg11.dtd"><svg t="1731895213175" class="icon" viewBox="0 0 1399 1024" version="1.1" xmlns="http://www.w3.org/2000/svg" p-id="78134" xmlns:xlink="http://www.w3.org/1999/xlink" width="273.2421875" height="200"><path d="M489.15 1024a406.215 406.215 0 0 0 98.846-15.572 429.91 429.91 0 0 0 166.887-88.013h1.692c49.762 0 154.023-6.77 203.108-13.54a759.622 759.622 0 0 0 440.066-266.071v-2.031A597.136 597.136 0 0 0 871.33 118.479 551.437 551.437 0 0 0 532.819 0h-8.802l90.722 147.93c-159.101 46.376-250.5 117.125-344.945 267.425A356.115 356.115 0 0 0 7.786 281.642H0l4.062 6.77a660.776 660.776 0 0 1 53.824 104.262L109 440.066l-33.851-2.708v2.708A569.378 569.378 0 0 1 89.367 737.62l-1.692 7.108h6.77a457.669 457.669 0 0 0 159.44-76.165 604.922 604.922 0 0 0 275.21 201.415L483.395 1024z" fill="#FF9515" p-id="78135"></path></svg>