<?xml version="1.0" standalone="no"?><!DOCTYPE svg PUBLIC "-//W3C//DTD SVG 1.1//EN" "http://www.w3.org/Graphics/SVG/1.1/DTD/svg11.dtd"><svg t="1731895266557" class="icon" viewBox="0 0 1024 1024" version="1.1" xmlns="http://www.w3.org/2000/svg" p-id="79572" xmlns:xlink="http://www.w3.org/1999/xlink" width="200" height="200"><path d="M512 22.128C241.451 22.128 22.128 241.451 22.128 512S241.451 1001.872 512 1001.872 1001.872 782.549 1001.872 512 782.549 22.128 512 22.128z m337.191 726.978c3.319-55.66-37.021-61.787-37.021-61.787-30.128-9.191-78.128 36.766-78.128 36.766-156.255 116.426-320.17 40.596-320.17 40.596C204 666.638 221.064 476.979 221.064 476.979c0-136.426 110.595-247.021 247.021-247.021s247.021 110.595 247.021 247.021l0.128 14.936c3.085 53.263-21.447 89.191-21.447 89.191-26.553 19.745-28.766 56.511-28.766 56.511-5.106 26.894 21.787 44.085 21.787 44.085 65.191 31.66 81.872-33.192 81.872-33.192l0.06-0.704c4.563-56.51-53.847-59.211-53.847-59.211C727.319 571.064 744 566.809 744 566.809c86.809-6.638 78.894 66.638 78.894 66.638 29.106 3.83 45.702 22.213 45.702 22.213 39.064 60.255-19.405 93.446-19.405 93.446z" fill="#A2314A" p-id="79573"></path></svg>