<?xml version="1.0" standalone="no"?><!DOCTYPE svg PUBLIC "-//W3C//DTD SVG 1.1//EN" "http://www.w3.org/Graphics/SVG/1.1/DTD/svg11.dtd"><svg t="1731895287339" class="icon" viewBox="0 0 1024 1024" version="1.1" xmlns="http://www.w3.org/2000/svg" p-id="79730" xmlns:xlink="http://www.w3.org/1999/xlink" width="200" height="200"><path d="M748.789 477.495c-17.925 0.007-32.463 14.861-32.455 33.243 0.006 18.315 14.559 33.223 32.484 33.214 17.921-0.008 32.46-14.924 32.455-33.243-0.009-18.378-14.565-33.223-32.484-33.214z" fill="#d4237a" p-id="79731"></path><path d="M827.113 194.438c-174.727-174.727-458.017-174.727-632.745 0s-174.727 458.017 0 632.745 458.016 174.728 632.745 0 174.727-458.017 0-632.745zM541.461 730.931c-39.305 30.504-39.104 0.018-39.104 0.018l-0.041-95.062c-105.828-56.305-105.842-86.183-129.613-101.631-23.775-15.448-48.584 25.395-87.427 59.736-38.846 34.278-53.973 23.212-51.824 0.023 1.453-16.007 15.743-49.42 24.499-68.628 4.801-10.922 3.886-18.957 2.363-23.763-8.226-17.764-25.281-56.193-26.934-73.749-2.169-23.214 12.949-34.266 51.824-0.023 38.872 34.249 63.719 75.132 87.479 59.661 23.759-15.464 23.745-45.345 129.526-101.747l-0.041-95.117c0 0-0.227-30.425 39.102-0.014 0 0 74.361 57.843 90.469 76.275 58.424 4.354 155.536 26.524 210.797 105.677 7.127 10.16 13.827 25.248 13.832 38.030l0.001 0.062c0.004 12.84-6.686 27.873-13.799 38.101-55.168 79.201-152.287 101.42-210.711 105.86-16.087 18.416-90.399 76.29-90.399 76.29z" fill="#d4237a" p-id="79732"></path></svg>