<?xml version="1.0" standalone="no"?><!DOCTYPE svg PUBLIC "-//W3C//DTD SVG 1.1//EN" "http://www.w3.org/Graphics/SVG/1.1/DTD/svg11.dtd"><svg t="1731996921679" class="icon" viewBox="0 0 1024 1024" version="1.1" xmlns="http://www.w3.org/2000/svg" p-id="11638" xmlns:xlink="http://www.w3.org/1999/xlink" width="200" height="200"><path d="M492.8 717.013333l13.013333 5.76 13.013334-5.76c6.4-2.773333 155.946667-71.466667 155.946666-237.44 0-137.386667-105.6-292.48-138.026666-336.853333a39.893333 39.893333 0 0 0-61.866667 0c-32.426667 44.373333-138.026667 198.613333-138.026667 336.853333 0 165.973333 149.546667 234.666667 155.946667 237.44zM905.813333 669.866667a464.426667 464.426667 0 0 1-96.64 71.466666 352 352 0 0 1-71.253333 29.013334 147.626667 147.626667 0 0 1-40.96 85.333333 314.666667 314.666667 0 0 0 33.92 2.133333 239.146667 239.146667 0 0 0 71.893333-10.666666 215.04 215.04 0 0 0 133.333334-125.44 37.76 37.76 0 0 0-4.053334-34.986667 39.253333 39.253333 0 0 0-26.24-16.853333zM214.826667 741.333333a469.333333 469.333333 0 0 1-98.346667-72.96 104.746667 104.746667 0 0 1-11.306667 0h-1.92a37.973333 37.973333 0 0 0-32.64 16.64 37.12 37.12 0 0 0-3.84 34.986667 213.333333 213.333333 0 0 0 133.12 125.44 239.146667 239.146667 0 0 0 71.893334 10.666667 315.306667 315.306667 0 0 0 41.6-2.773334 146.346667 146.346667 0 0 1-39.893334-86.826666 362.666667 362.666667 0 0 1-58.666666-25.173334zM245.333333 685.013333l7.04 3.413334a329.6 329.6 0 0 1-54.4-66.56c-51.2-82.986667-67.84-188.373333-71.68-273.92-39.893333 0-72.533333 1.28-90.666666 2.56a38.186667 38.186667 0 0 0-30.72 19.413333A37.76 37.76 0 0 0 4.053333 405.333333c24.746667 48.426667 114.986667 211.413333 241.28 279.68z" fill="#FF4343" p-id="11639"></path><path d="M342.826667 677.546667a312.106667 312.106667 0 0 1-69.973334-197.973334 543.786667 543.786667 0 0 1 64-232.746666c-38.826667-22.4-72.533333-38.4-90.666666-46.506667a38.4 38.4 0 0 0-35.413334 1.92A37.76 37.76 0 0 0 192 231.68c-4.053333 53.546667-12.8 237.653333 60.373333 356.48a263.04 263.04 0 0 0 90.453334 89.386667zM1019.093333 369.92a37.973333 37.973333 0 0 0-30.506666-19.413333c-18.346667-1.28-50.986667-2.986667-90.88-2.346667-3.84 85.333333-21.333333 190.72-71.68 273.706667a325.333333 325.333333 0 0 1-53.76 66.346666l6.4-3.2c126.08-68.266667 216.533333-231.253333 241.28-279.466666a37.76 37.76 0 0 0-0.853334-35.626667zM658.346667 689.706667a264.32 264.32 0 0 0 113.28-101.546667c73.173333-119.04 64-302.933333 60.16-356.48a37.76 37.76 0 0 0-18.56-29.44 38.4 38.4 0 0 0-35.413334-1.92 1037.653333 1037.653333 0 0 0-100.266666 52.053333 536.106667 536.106667 0 0 1 61.226666 227.2 312.746667 312.746667 0 0 1-80.426666 210.133334zM642.346667 784A378.026667 378.026667 0 0 1 512 760.106667a378.026667 378.026667 0 0 1-130.346667 23.893333 387.413333 387.413333 0 0 1-38.826666-2.133333c15.146667 36.266667 64 73.386667 144.426666 110.293333a45.226667 45.226667 0 0 0 18.56 3.84 46.08 46.08 0 0 0 18.346667-3.626667q120.746667-55.253333 144.213333-109.44h-26.026666z" fill="#FF4343" p-id="11640"></path></svg>