<?xml version="1.0" standalone="no"?><!DOCTYPE svg PUBLIC "-//W3C//DTD SVG 1.1//EN" "http://www.w3.org/Graphics/SVG/1.1/DTD/svg11.dtd"><svg t="1731748269041" class="icon" viewBox="0 0 1024 1024" version="1.1" xmlns="http://www.w3.org/2000/svg" p-id="11711" data-darkreader-inline-fill="" xmlns:xlink="http://www.w3.org/1999/xlink" width="200" height="200"><path d="M849.92 276.48m-99.84 0a99.84 99.84 0 1 0 199.68 0 99.84 99.84 0 1 0-199.68 0Z" p-id="11712" data-spm-anchor-id="a313x.search_index.0.i38.37843a81kIAQx8" class="selected" fill="#d81e06" data-darkreader-inline-fill="" style="--darkreader-inline-fill: #ad1805;"></path><path d="M919.04 500.48m-99.84 0a99.84 99.84 0 1 0 199.68 0 99.84 99.84 0 1 0-199.68 0Z" p-id="11713" data-spm-anchor-id="a313x.search_index.0.i34.37843a81kIAQx8" class="selected" fill="#d81e06" data-darkreader-inline-fill="" style="--darkreader-inline-fill: #ad1805;"></path><path d="M858.88 730.88m-99.84 0a99.84 99.84 0 1 0 199.68 0 99.84 99.84 0 1 0-199.68 0Z" p-id="11714" data-spm-anchor-id="a313x.search_index.0.i39.37843a81kIAQx8" class="selected" fill="#d81e06" data-darkreader-inline-fill="" style="--darkreader-inline-fill: #ad1805;"></path><path d="M683.52 880.64m-99.84 0a99.84 99.84 0 1 0 199.68 0 99.84 99.84 0 1 0-199.68 0Z" p-id="11715" data-spm-anchor-id="a313x.search_index.0.i44.37843a81kIAQx8" class="selected" fill="#d81e06" data-darkreader-inline-fill="" style="--darkreader-inline-fill: #ad1805;"></path><path d="M450.56 917.76m-99.84 0a99.84 99.84 0 1 0 199.68 0 99.84 99.84 0 1 0-199.68 0Z" p-id="11716" data-spm-anchor-id="a313x.search_index.0.i43.37843a81kIAQx8" class="selected" fill="#d81e06" data-darkreader-inline-fill="" style="--darkreader-inline-fill: #ad1805;"></path><path d="M236.8 814.08m-99.84 0a99.84 99.84 0 1 0 199.68 0 99.84 99.84 0 1 0-199.68 0Z" p-id="11717" data-spm-anchor-id="a313x.search_index.0.i42.37843a81kIAQx8" class="selected" fill="#d81e06" data-darkreader-inline-fill="" style="--darkreader-inline-fill: #ad1805;"></path><path d="M107.52 615.68m-99.84 0a99.84 99.84 0 1 0 199.68 0 99.84 99.84 0 1 0-199.68 0Z" p-id="11718" data-spm-anchor-id="a313x.search_index.0.i41.37843a81kIAQx8" class="selected" fill="#d81e06" data-darkreader-inline-fill="" style="--darkreader-inline-fill: #ad1805;"></path><path d="M112.64 386.56m-99.84 0a99.84 99.84 0 1 0 199.68 0 99.84 99.84 0 1 0-199.68 0Z" p-id="11719" data-spm-anchor-id="a313x.search_index.0.i33.37843a81kIAQx8" class="selected" fill="#d81e06" data-darkreader-inline-fill="" style="--darkreader-inline-fill: #ad1805;"></path><path d="M244.48 192m-99.84 0a99.84 99.84 0 1 0 199.68 0 99.84 99.84 0 1 0-199.68 0Z" p-id="11720" data-spm-anchor-id="a313x.search_index.0.i35.37843a81kIAQx8" class="selected" fill="#d81e06" data-darkreader-inline-fill="" style="--darkreader-inline-fill: #ad1805;"></path><path d="M450.56 99.84m-99.84 0a99.84 99.84 0 1 0 199.68 0 99.84 99.84 0 1 0-199.68 0Z" p-id="11721" data-spm-anchor-id="a313x.search_index.0.i36.37843a81kIAQx8" class="selected" fill="#d81e06" data-darkreader-inline-fill="" style="--darkreader-inline-fill: #ad1805;"></path><path d="M683.52 133.12m-99.84 0a99.84 99.84 0 1 0 199.68 0 99.84 99.84 0 1 0-199.68 0Z" p-id="11722" data-spm-anchor-id="a313x.search_index.0.i37.37843a81kIAQx8" class="selected" fill="#d81e06" data-darkreader-inline-fill="" style="--darkreader-inline-fill: #ad1805;"></path><path d="M338.6368 719.02208c1.2288-32.384 1.8688-60.9792 1.8688-85.89824v-181.1456c-13.71136 24.91904-25.52832 44.82048-35.4816 59.76064-7.47008-8.69376-17.44896-16.80896-29.8752-24.27904 16.16384-16.16384 33.90464-42.95168 53.2224-80.29696 19.28704-37.3504 34.54976-75.31008 45.75232-113.91488 13.68064 7.47008 28.6208 14.33088 44.81536 20.54656-6.2464 4.992-12.13952 13.71136-17.7408 26.1376a5815.61856 5815.61856 0 0 0-27.07968 61.62432v229.68832c0 26.14272 0.6144 55.38304 1.8688 87.77216H338.6368z m274.5088-87.77216c27.3664 2.5088 42.01472-1.86368 43.8784-13.07136 1.8688-11.20256 2.80576-28.62592 2.80576-52.28544h-57.89184v87.76704c0 24.88832 0.60928 45.42976 1.86368 61.62432h-39.21408c1.22368-16.19456 1.8688-36.736 1.8688-61.62432v-87.76704h-42.95168c-7.47008 70.95808-40.46848 122.60352-98.97472 154.99264-9.97888-13.71648-20.54144-23.66464-31.74912-29.88032 56.02304-22.41024 87.76704-64.10752 95.23712-125.11744H413.33248a1220.95616 1220.95616 0 0 0 5.60128-117.65248h76.56448v-52.2752c-34.8672 0-60.39552 0.64-76.56448 1.86368v-37.34528c13.68576 1.2544 39.21408 1.86368 76.56448 1.86368 0-26.14272-0.64-47.90784-1.8688-65.36192 17.41824 2.5088 31.104 3.73248 41.07776 3.73248-3.73248 11.20256-5.60128 31.744-5.60128 61.62432h37.3504c0-28.62592-0.64512-49.77664-1.8688-63.488h41.08288c-2.5088 12.46208-3.73248 33.60768-3.73248 63.488h82.16576c-2.5088 17.44896-3.73248 37.9904-3.73248 61.62432 0 23.66464 0.6144 41.72288 1.86368 54.15424h-80.29696v56.01792h93.36832c0 12.46208-0.32256 35.18976-0.93696 68.16256-0.64 33.00352-6.85568 52.93056-18.67264 59.76064-11.84256 6.85568-26.46528 11.52512-43.88352 14.0032-3.73248-17.408-9.97376-32.34816-18.66752-44.81024z m-119.51616-97.10592c1.22368-18.66752 1.8688-37.34528 1.8688-56.01792h-42.95168l-1.8688 56.01792h42.95168z m72.832 0V478.12608h-37.3504c0 23.66464-0.64 42.3424-1.86368 56.01792h39.21408z m0-85.89824V395.96032h-37.3504v52.28544h37.3504z m82.16576 0V395.96032h-46.68416v52.28544h46.68416z" p-id="11723"></path></svg>