<?xml version="1.0" standalone="no"?><!DOCTYPE svg PUBLIC "-//W3C//DTD SVG 1.1//EN" "http://www.w3.org/Graphics/SVG/1.1/DTD/svg11.dtd"><svg t="1731748322968" class="icon" viewBox="0 0 1024 1024" version="1.1" xmlns="http://www.w3.org/2000/svg" p-id="12522" data-darkreader-inline-fill="" xmlns:xlink="http://www.w3.org/1999/xlink" width="200" height="200"><path d="M631.8 760.5c0 37.9-112 68.5-112 68.5s-112-30.7-112-68.5S458 704 519.8 704s112 18.6 112 56.5z m-234.9-64.3c3.4-0.7 6.1 2.7 4.8 5.9-7.9 19.6-55.1 52.3-117.1 65.1-70.4 14.5-133.4-2.2-137-19.9-2-9.5 86.2-65.7 121.7-54.5 6.9 2.2 19.9 7 61.1 9.6 24.4 1.5 54.1-3.7 66.5-6.2z m245.4 5.2c-3.4-0.7-6.1 2.7-4.8 5.9 7.9 19.6 55.1 52.3 117.1 65.1 70.4 14.5 133.4-2.2 137-19.9 2-9.5-86.2-65.7-121.7-54.5-6.9 2.2-19.9 7-61.1 9.6-24.5 1.5-54.2-3.7-66.5-6.2z m-341.7-50.6c3.3 1.2-54 35.2-99.7 37.5-45.8 2.4-106.2-25.5-103.1-27 16.1-7.7 50.2-27.6 96-30s90 13.5 106.8 19.5z m-52.5-36.5c-25.6 5.3-54.1 3.8-78.5-6.1-18.1-7.4-34-19.6-47.7-33.6-14-14.4-27-30.7-37-48.2-1.8-3.1-3.3-6.5-5.1-9.6 0.7 1.2 18.1-1.1 20.3-1.2 7.5-0.4 15-0.9 22.4-1.3 5.8-0.3 13.7-2.4 19.1 0.2 4.9 2.3 6.6 7.7 9.6 11.8 13.2 17.7 26.5 35.4 41.8 51.4 7.8 8.2 16.2 15.9 25.2 22.8 8.5 6.2 18.8 14.8 29.9 13.8z m-73.3-234.6c22.4 13.1 43.7 27.2 61.4 46.4 1.5 1.6 3 3.4 3.6 5.5 0.6 2.3 0.1 4.8-0.5 7.1-6 25.1-10.9 49.2-7.3 75.1 3 21.4 12.2 46.7 30.2 60.2 5 4.4 10.4 8.3 16.2 11.6 3.9 2.2 1.9 8.1-2.6 7.4-24.7-4-48.2-15.2-66.1-32.8-20.1-19.7-29.2-43.8-32.1-71.3-3.7-35-4.3-70.6-8.7-105.5-0.3-3.2 3.2-5.4 5.9-3.7z" fill="#0D0931" p-id="12523" data-darkreader-inline-fill="" style="--darkreader-inline-fill: #0a0727;"></path><path d="M294.1 291.5c3.4 2.1 6.8 4.2 10.2 6.4 1.9 1.3 7.1 6.5 9.3 6.5 5.7 4.2 15.4 7.6 18.7 14.2 2.2 4.5 1.1 9.8 0.2 14.7-4.7 24.4-4.8 49.7 0.4 74 2.9 13.4 9.1 25.8 13.3 38.7 4.1 12.5 5.7 25.6 6.8 38.7 2.2 25.5 2.2 52.6 15 75.5 1.3 2.3 2.8 4.6 3.4 7.2 0.6 2.6 0.3 5.6-1.5 7.5-1.2 1.2-2.9 1.9-4.5 2.4-9.6 3.5-19.3 7-29.1 10.2-2.2 0.7-4.5 1.5-6.9 1.2-2-0.2-3.8-1.1-5.5-2-24.6-13.1-46.5-34.6-57.6-60.4-12.5-29.1-10.8-61.1-0.7-90.5 6-17.6 13.9-34.5 19.2-52.3 7.7-25.7 9.9-53 6.5-79.7-0.5-3.6-1-7.1-1-10.7 0-0.7 0.1-1.4 0.6-1.9 0.8-0.9 2.1-0.4 3.2 0.3z m429.3 354.1c-3.3 1.2 54 35.2 99.7 37.5 45.8 2.4 106.2-25.5 103.1-27-16.1-7.7-50.2-27.6-96-30-45.8-2.3-90 13.5-106.8 19.5z m52.5-36.5c25.6 5.3 54.1 3.8 78.5-6.1 18.1-7.4 34-19.6 47.7-33.6 14-14.4 27-30.7 37-48.2 1.8-3.1 3.3-6.5 5.1-9.6-0.7 1.2-18.1-1.1-20.3-1.2-7.5-0.4-15-0.9-22.4-1.3-5.8-0.3-13.7-2.4-19.1 0.2-4.9 2.3-6.6 7.7-9.6 11.8-13.2 17.7-26.5 35.4-41.8 51.4-7.8 8.2-16.2 15.9-25.2 22.8-8.5 6.2-18.8 14.8-29.9 13.8z m73.3-234.6c-22.4 13.1-43.7 27.2-61.4 46.4-1.5 1.6-3 3.4-3.6 5.5-0.6 2.3-0.1 4.8 0.5 7.1 6 25.1 10.9 49.2 7.3 75.1-3 21.4-12.2 46.7-30.2 60.2-5 4.4-10.4 8.3-16.2 11.6-3.9 2.2-1.9 8.1 2.6 7.4 24.7-4 48.2-15.2 66.1-32.8 20.1-19.7 29.2-43.8 32.1-71.3 3.7-35 4.3-70.6 8.7-105.5 0.3-3.2-3.2-5.4-5.9-3.7z" fill="#0D0931" p-id="12524" data-darkreader-inline-fill="" style="--darkreader-inline-fill: #0a0727;"></path><path d="M729.9 286.2c-3.4 2.1-6.8 4.2-10.2 6.4-1.9 1.3-7.1 6.5-9.3 6.5-5.7 4.2-15.4 7.6-18.7 14.2-2.2 4.5-1.1 9.8-0.2 14.7 4.7 24.4 4.8 49.7-0.4 74-2.9 13.4-9.1 25.8-13.3 38.7-4.1 12.5-5.7 25.6-6.8 38.7-2.2 25.5-2.2 52.6-15 75.5-1.3 2.3-2.8 4.6-3.4 7.2-0.6 2.6-0.3 5.6 1.5 7.5 1.2 1.2 2.9 1.9 4.5 2.4 9.6 3.5 19.3 7 29.1 10.2 2.2 0.7 4.5 1.5 6.9 1.2 2-0.2 3.8-1.1 5.5-2 24.6-13.1 46.5-34.6 57.6-60.4 12.5-29.1 10.8-61.1 0.7-90.5-6-17.6-13.9-34.5-19.2-52.3-7.7-25.7-9.9-53-6.5-79.7 0.5-3.6 1-7.1 1-10.7 0-0.7-0.1-1.4-0.6-1.9-0.8-0.9-2.1-0.3-3.2 0.3zM512 556.4c0.4 0.5 0.8 0.9 1.2 1.4l-0.2-4.6c-0.5-1.7-0.9-3.5-1.1-5.4-0.2 1.9-0.6 3.7-1.1 5.4l-0.2 4.6c0.6-0.5 1-1 1.4-1.4z" fill="#0D0931" p-id="12525" data-darkreader-inline-fill="" style="--darkreader-inline-fill: #0a0727;"></path><path d="M621.4 568.6c35.5-58.5 29.9-107.8 10.6-145.8-28.9-56.8-88.7-88.5-88.7-88.5s0-0.1 0.1-0.1c12.6-9.5 20.8-24.5 20.8-41.5 0-10.9-3.4-21-9.1-29.4-9.4-13.7-25.1-22.7-43-22.7s-33.6 9-43 22.7c-5.7 8.4-9.1 18.5-9.1 29.4 0 17 8.2 32 20.8 41.5 0 0 0 0.1 0.1 0.1 0 0-59.7 31.8-88.7 88.5-19.4 38-25 87.3 10.6 145.8 0-5.2-125 41.7-62.5 104.2 0 0 98.3 0 157.3 17.8 2.3 4.3 7.9 13.5 14.6 13.5 0 0 13.4-6 15.4-13.7 59.1-17.5 156.5-17.5 156.5-17.5 62.2-62.6-62.7-109.5-62.7-104.3z m-125-197.9h31.2c28.3-4 56.8 25.9 72.8 52.1 4.6 7.6 8.3 14.8 10.5 20.8 31.3 83.5-17.8 121.9-46.9 119.8-21.2-1.5-33.4-20.5-36.5-31.2-0.3-1.1-0.6-2.1-0.9-3.2 0.6-8.7 0.9-18.1 0.9-28.1 0-43.1-5.8-78.1-13-78.1s-13 35-13 78.1c0 4.4 0.1 8.7 0.2 12.9-1.7 5.5-3.4 11.5-5.4 18.4-3.1 10.8-15.2 29.7-36.5 31.2-29.1 2.1-78.1-36.3-46.9-119.8 2.2-6 5.9-13.3 10.5-20.8 16.2-26.1 44.7-56.1 73-52.1zM663 657.2c-80.8 0-128.4 9.5-150.8 15.6h-0.4c-22.4-6.2-70-15.6-150.8-15.6 0 0-5.2-62.5 52.1-57.3 0 0 47.4-2.7 76.7-21.1 7.1-6.4 12.9-12.1 17.6-17.2 1.5-2.6 2.8-5.4 3.6-8.4l0.2-5.4h1.8l0.2 5.4c0.8 3 2.1 5.8 3.6 8.4 4.7 5.1 10.5 10.8 17.6 17.2 29.2 18.4 76.7 21.1 76.7 21.1 57.1-5.2 51.9 57.3 51.9 57.3z" fill="#0D0931" p-id="12526" data-darkreader-inline-fill="" style="--darkreader-inline-fill: #0a0727;"></path><path d="M656.5 283.4c-107-128-110.3-147.7-140-179-1.4-1.5-3-2.5-4.6-3.2-1.6 0.7-3.2 1.7-4.6 3.2-29.6 31.3-33 50.9-140 179-22.8 27.3-5.8 81.9-2.6 122.5 0.7 9.3 6.5 16.3 13.5 16.8 15.2-42.1 59.2-79.9 72.5-90.6-7.4-11.4-11.7-24.9-11.7-39.5 0-40.3 32.6-72.9 72.9-72.9s72.9 32.6 72.9 72.9c0 14.6-4.3 28.1-11.7 39.5 13.3 10.7 57.2 48.4 72.5 90.6 7-0.5 12.8-7.6 13.5-16.8 3.2-40.6 20.2-95.3-2.6-122.5z" fill="#0D0931" p-id="12527" data-darkreader-inline-fill="" style="--darkreader-inline-fill: #0a0727;"></path></svg>