<?xml version="1.0" standalone="no"?><!DOCTYPE svg PUBLIC "-//W3C//DTD SVG 1.1//EN" "http://www.w3.org/Graphics/SVG/1.1/DTD/svg11.dtd"><svg t="1731902231391" class="icon" viewBox="0 0 1026 1024" version="1.1" xmlns="http://www.w3.org/2000/svg" p-id="17717" xmlns:xlink="http://www.w3.org/1999/xlink" width="200.390625" height="200"><path d="M702.243072 783.36c5.12-15.36 7.68-25.6 12.8-35.84 15.36-35.84 5.12-66.56-30.72-79.36-20.48-7.68-28.16-20.48-28.16-40.96l-15.36-145.92c-5.12-33.28-23.04-51.2-56.32-53.76-10.24 0-20.48-5.12-28.16-7.68 7.68-25.6 10.24-46.08 17.92-66.56 15.36-43.52 0-74.24-30.72-102.4-17.92-15.36-30.72-15.36-48.64 0-56.32 43.52-40.96 94.72-15.36 168.96-7.68 2.56-12.8 5.12-20.48 5.12-51.2 12.8-58.88 17.92-64 71.68-5.12 40.96-12.8 81.92-12.8 125.44-2.56 28.16-10.24 43.52-38.4 53.76-38.4 15.36-43.52 46.08-20.48 81.92 5.12 7.68 5.12 17.92 5.12 28.16 122.88-2.56 250.88-2.56 373.76-2.56z" fill="#1296db" p-id="17718"></path><path d="M558.883072 1008.64c28.16-7.68 48.64-15.36 69.12-20.48 74.24-23.04 133.12-69.12 176.64-135.68 40.96-66.56 46.08-133.12 5.12-199.68-10.24-15.36-17.92-33.28-25.6-48.64-20.48-40.96-7.68-74.24 25.6-97.28 35.84-25.6 69.12-7.68 92.16 23.04 61.44 76.8 66.56 163.84 38.4 253.44-56.32 161.28-207.36 253.44-381.44 225.28z" fill="#1296db" p-id="17719"></path><path d="M986.403072 627.2c2.56-89.6-10.24-171.52-58.88-248.32-53.76-79.36-122.88-115.2-220.16-92.16-79.36 17.92-122.88-2.56-130.56-53.76-7.68-43.52 40.96-81.92 115.2-89.6 176.64-17.92 355.84 171.52 332.8 353.28-2.56 25.6-7.68 48.64-15.36 74.24-7.68 20.48-15.36 38.4-23.04 56.32z" fill="#1296db" p-id="17720"></path><path d="M750.883072 112.64c-43.52-10.24-84.48-25.6-130.56-33.28-69.12-12.8-133.12 5.12-194.56 40.96-53.76 30.72-76.8 81.92-84.48 140.8-2.56 20.48-5.12 43.52-12.8 64-10.24 38.4-38.4 53.76-76.8 51.2-40.96-2.56-53.76-30.72-58.88-66.56-5.12-69.12 23.04-130.56 66.56-184.32 125.44-148.48 358.4-156.16 491.52-12.8zM72.483072 719.36c58.88 99.84 125.44 163.84 230.4 186.88 71.68 15.36 130.56 2.56 179.2-51.2 17.92-20.48 35.84-46.08 58.88-53.76 25.6-7.68 64-7.68 87.04 5.12 30.72 15.36 28.16 51.2 10.24 81.92-40.96 74.24-110.08 107.52-189.44 120.32-174.08 33.28-355.84-99.84-376.32-289.28z" fill="#1296db" p-id="17721"></path><path d="M200.483072 168.96c-84.48 92.16-128 184.32-107.52 299.52 10.24 64 43.52 107.52 102.4 135.68 23.04 10.24 51.2 17.92 66.56 35.84 15.36 23.04 28.16 56.32 25.6 84.48-5.12 35.84-38.4 43.52-71.68 38.4-69.12-7.68-117.76-48.64-156.16-102.4C-58.076928 496.64 3.363072 263.68 200.483072 168.96z" fill="#1296db" p-id="17722"></path></svg>