<?xml version="1.0" standalone="no"?><!DOCTYPE svg PUBLIC "-//W3C//DTD SVG 1.1//EN" "http://www.w3.org/Graphics/SVG/1.1/DTD/svg11.dtd"><svg t="1731550302773" class="icon" viewBox="0 0 1024 1024" version="1.1" xmlns="http://www.w3.org/2000/svg" p-id="21491" xmlns:xlink="http://www.w3.org/1999/xlink" width="200" height="200"><path d="M269.608949 205.858508l0-40.302915c0-10.869558-8.815783-19.685341-19.679202-19.685341-10.869558 0-19.668968 8.815783-19.668968 19.685341l0 399.728984c0 1.588171 0.23843 3.120061 0.588401 4.607948-0.022513 32.775474-0.033769 65.573461-0.044002 96.783277L216.831932 666.675802c-29.561269 0-53.743018 23.205515-55.458079 52.355415 0.021489 1.775436 0.044002 3.108804 0.066515 3.997034 0.011256 0.533143-0.077771 1.043772-0.110517 1.554402 1.194198 29.621645 25.603121 53.360302 55.503105 53.360302l14.005992 0c0.011256 14.744819 0.033769 28.024264 0.055259 39.34817l-17.042141 0c-1.022283 0-1.998517-0.13303-2.998287-0.288572-49.596582-3.108804-89.022523-44.322461-89.022523-94.684476 0-1.154289 0.13303-2.264577 0.166799-3.396353-0.599657-58.45125 0-502.935554 0.072655-551.310308-0.083911-0.682545-0.216941-1.354857-0.216941-2.043542 0-52.383044 42.612517-94.995561 94.990444-94.995561l31.448246 0 477.203496 0 4.807493 0c10.869558 0 19.685341 8.815783 19.685341 19.685341l0 75.444273L365.243053 165.701926C327.854515 165.67839 293.985126 181.093475 269.608949 205.858508z" p-id="21492" fill="#1296db"></path><path d="M741.756289 423.874917c3.483334 0.909719 6.387477 1.354857 8.710382 1.354857 4.64581 0 8.509814-0.445138 11.613502-1.354857 0.771573-0.444115 3.284813-1.798972 7.54893-4.064572 0.77055-4.063549 1.161453-7.450692 1.161453-10.160407 0-5.41943-0.390903-9.927093-1.161453-13.547551-0.38988-0.899486-1.552356-3.831258-3.484358-8.80555-3.484358-0.444115-6.387477-0.677429-8.710382-0.677429-6.197142 0-10.07138 0.233314-11.612479 0.677429-0.780783 0-3.294023 1.355881-7.54893 4.063549-0.390903 4.065596-0.580215 7.451716-0.580215 10.160407 0 7.228635 0.190335 11.748578 0.580215 13.547551C738.272955 415.979086 739.434407 418.910858 741.756289 423.874917z" p-id="21493" fill="#1296db"></path><path d="M738.272955 590.506005l3.483334 4.063549c4.254907 1.355881 8.900717 2.033309 13.935384 2.033309 12.385075 0 23.417339-3.38919 33.097816-10.162454 9.67229-6.77224 14.517645-16.699334 14.517645-29.80277 0-4.964058-0.780783-9.927093-2.323928-14.902408-3.873214-6.773264-8.519024-11.398608-13.934361-13.885242-5.426593-2.476401-12.003382-3.725858-19.742646-3.725858-2.712785 0-6.968715 0.234337-12.774955 0.677429-5.806239 0.455371-10.07138 0.678452-12.773931 0.678452-2.322905 7.682983-3.483334 15.810081-3.483334 24.385387 0 2.707668 0.191358 7.111978 0.581238 13.208836 0.379647 6.093788 0.579191 10.728342 0.579191 13.884218 0 2.264577 0 4.519943 0 6.773264C738.653625 586.896804 738.272955 589.152171 738.272955 590.506005z" p-id="21494" fill="#1296db"></path><path d="M883.644857 841.33882c-10.858302 0-19.674085 8.815783-19.674085 19.696598l0 54.381561L370.15083 915.416979c-29.910217 0-54.315046-23.736611-55.508221-53.337789 0.021489-0.533143 0.110517-1.043772 0.110517-1.575892-0.021489-0.86674-0.044002-2.220574-0.066515-3.997034 1.715061-29.134551 25.897833-52.338019 55.464219-52.338019l508.652765 0c1.554402 0 3.052522-0.222057 4.497431-0.577145 0.110517 0 0.233314 0.045025 0.343831 0.045025 10.858302 0 19.675108-8.815783 19.675108-19.675108l0-556.228317c0-10.869558-8.815783-19.679202-19.675108-19.679202l-4.818749 0L401.616472 208.0535l-31.44313 0c-52.383044 0-94.995561 42.612517-94.995561 94.978165 0 0.705058 0.138146 1.36509 0.215918 2.059915-0.066515 48.374754-0.671289 492.859058-0.066515 551.305191-0.033769 1.131777-0.171915 2.264577-0.171915 3.397377 0 50.362015 39.432081 91.575672 89.022523 94.684476 0.98749 0.154519 1.964748 0.311085 2.997264 0.311085l516.469801 0c10.880815 0 19.685341-8.815783 19.685341-19.675108l0-74.078159C903.330198 850.154603 894.524648 841.33882 883.644857 841.33882zM327.16583 375.104143c4.644787 0 13.735839-1.121544 27.291576-3.387144 23.225981-3.609201 46.252417-8.80555 69.098751-15.578814 30.965246-9.028631 60.388369-20.320814 88.259136-33.868365 4.644787-1.354857 7.739265-0.222057 9.290597 3.387144 1.543146 3.618411 2.323928 7.228635 2.323928 10.837836 0 5.41943-0.971118 10.276041-2.90312 14.563694-1.941212 4.296863-4.846378 6.888897-8.711406 7.789407l-31.356149 44.706201 0 227.593532c32.127721 0 59.227939-6.77531 81.293491-20.320814 26.710338-16.257266 42.577724-40.639582 47.612391-73.15309-2.711761-6.319939-7.547907-9.482979-14.517645-9.482979-4.263094 0-8.41874 0.909719-12.482289 2.708692-4.066619 1.810229-7.839549 4.064572-11.322883 6.774287-7.748475 10.391674-17.039072 15.578814-27.870768 15.578814-5.426593 0-10.45205-1.914606-15.09786-5.758144-4.644787-3.830235-7.747451-9.82067-9.290597-17.949814 0-5.862521 0.771573-13.547551 2.322905-23.029506 3.484358-21.220301 5.226025-34.545794 5.226025-39.965224 0-4.508687-0.199545-7.894807-0.581238-10.160407 2.323928-6.773264 4.446265-11.738345 6.387477-14.902408 6.577812-10.382465 14.70798-15.578814 24.388457-15.578814 3.092431 0 6.767124 0.677429 11.032264 2.032286 4.643764-0.900509 7.928576-1.355881 9.870812-1.355881 7.349385 0.455371 12.96529 0.677429 16.839527 0.677429 6.186909 0 11.223622-1.122567 15.096836-3.387144 0.771573-4.064572 1.161453-7.450692 1.161453-10.161431 0-5.418406-0.38988-9.927093-1.161453-13.546527-0.390903-0.899486-1.552356-3.831258-3.483334-8.806573-8.128121 0-18.580171 0.572028-31.356149 1.694595-12.772908 1.130753-20.133549 1.693572-22.064528 1.693572-4.26514 0-8.620331-0.223081-13.066597-0.677429-4.455475-0.445138-8.999978-1.354857-13.645788-2.709715 1.161453-13.091156 5.708002-22.352077 13.645788-27.771507 7.930623-5.418406 17.900695-8.128121 29.904077-8.128121 6.968715 0 12.96529 0.454348 18.002003 1.354857 5.025457 0.909719 8.899694 1.588171 11.612479 2.032286 4.64581-2.709715 6.968715-7.674796 6.968715-14.902408-0.38988-5.862521-0.581238-10.382465-0.581238-13.546527 0-4.508687 1.352811-8.572236 4.065596-12.192693 2.322905-1.799996 4.25593-2.931772 5.807263-3.387144 5.806239-2.709715 11.032264-4.064572 15.676028-4.064572 3.484358 0 6.769171 0.571005 9.871835 1.692548 3.092431 1.1328 6.577812 3.048429 10.45205 5.758144 1.162476 2.264577 2.413979 8.466835 3.773953 18.627243 1.350764 10.160407 4.064572 15.918551 8.128121 17.272385 4.065596 1.354857 6.868431 2.032286 8.420787 2.032286 5.025457 0 9.870812-1.799996 14.516622-5.418406-0.38988-2.254344-0.581238-5.64251-0.581238-10.161431 0-9.927093 1.743714-18.394952 5.226025-25.40153 3.484358-6.995321 8.900717-10.498098 16.260335-10.498098 1.541099 0 3.864004 0.455371 6.967692 1.353834 8.128121 0 14.316054 3.725858 18.581194 11.177574 4.253884 7.449669 6.387477 16.594957 6.387477 27.432793 0 4.519943-0.200568 7.907087-0.581238 10.160407 4.254907 2.709715 9.289574 4.064572 15.095813 4.064572 3.484358 0 8.131191-0.899486 13.93743-2.709715 12.773931-4.064572 20.904099-6.096858 24.38641-6.096858 3.094478 0 6.187933 0.455371 9.290597 1.355881 3.094478 0.909719 6.577812 3.38612 10.45205 7.450692 0 4.063549-0.38988 8.583492-1.161453 13.546527-0.780783 4.974291-2.712785 11.293207-5.806239 18.965957-0.38988 2.709715-0.581238 7.006578-0.581238 12.870122 0 5.41943 0.192382 11.293207 0.581238 17.612123 0.381693 6.329149 0.579191 9.716292 0.579191 10.160407 0 4.51892-0.288572 9.144264-0.870834 13.886265-0.579191 4.740978-2.812045 9.597589-6.67605 14.561647-1.552356 0.455371-4.065596 0.677429-7.54893 0.677429-3.875261 0-9.870812-0.898463-18.002003-2.708692-8.128121-1.798972-14.134929-2.708692-17.999956-2.708692-6.197142 0-11.422144 1.587148-15.677051 4.740978-0.390903 4.064572-0.580215 7.228635-0.580215 9.484002 0 7.682983 1.351787 14.001899 4.064572 18.965957 2.703575 0.455371 5.41636 0.677429 8.129144 0.677429 2.703575 0 5.606695 0 8.709359 0 5.027503 0 10.253528 0 15.678074 0 5.417383 0 11.031241-0.222057 16.839527-0.677429 14.705933 0 27.581172 1.587148 38.612413 4.742001 11.033287 3.165086 21.194718 9.715269 30.485315 19.643386 2.321882 9.038864 3.483334 17.6111 3.483334 25.740244 0 26.194592-9.870812 48.324612-29.613458 66.379826-19.742646 18.067494-41.806151 27.096125-66.195631 27.096125-3.873214 0-8.03807-0.105401-12.482289-0.339738-4.456498-0.221034-10.163477-1.915629-17.130146-5.080715 0.771573 4.975315 1.452071 11.517311 2.031263 19.643386 0.581238 8.127098 0.871857 15.579837 0.871857 22.352077 0 5.875824-0.198521 12.192693-0.580215 18.965957-0.38988 6.776334-1.161453 13.548574-2.322905 20.321838-8.909927 6.329149-14.134929 9.937326-15.678074 10.836813-5.806239 3.166109-11.422144 4.742001-16.838503 4.742001-7.748475 0-14.326287-5.186116-19.742646-15.578814l6.968715-178.823781c-2.323928-0.898463-4.26514-1.353834-5.806239-1.353834-6.588045-1.355881-11.614525-2.032286-15.098883-2.032286-6.585999 0-12.391215 1.1328-17.418718 3.38612-3.483334 41.552371-17.999956 76.3192-43.548842 104.314811-25.550932 28.002774-56.32482 41.996486-92.325755 41.996486-3.483334-1.355881-6.197142-2.477424-8.129144-3.38919-12.772908-6.773264-22.844288-16.4783-30.194696-29.126364 0.38067 10.838859 0.581238 19.200294 0.581238 25.062815 0 14.901385-1.552356 25.738198-4.64581 32.511461-4.644787 10.394744-12.974499 15.581883-24.967648 15.581883-3.483334 0-6.588045 0-9.289574 0-6.588045 0-11.712763-0.899486-15.387455-2.710738-3.684926-1.799996-5.517667-6.319939-5.517667-13.546527 0-13.094226 0.290619-32.513508 0.871857-58.252729 0.580215-25.740244 1.161453-60.052724 1.740644-102.95893 0.581238-42.895973 0.87288-77.218686 0.87288-102.959953-1.161453-4.963035-3.684926-7.450692-7.54893-7.450692-1.941212 0-6.777357 1.587148-14.516622 4.742001-4.64581 1.810229-7.749498 2.708692-9.290597 2.708692-8.129144 2.709715-16.648169 4.064572-25.548886 4.064572-10.45205 0-19.261693-2.475378-26.420743-7.450692-7.16826-4.964058-11.904121-13.31526-14.226003-25.062815-1.552356-1.798972-2.52245-3.15383-2.904143-4.063549-2.322905-4.064572-3.483334-8.128121-3.483334-12.193717C320.778352 385.497864 322.900689 380.079458 327.16583 375.104143z" p-id="21495" fill="#1296db"></path><path d="M658.14194 468.581118c0 3.618411 0.090051 7.789407 0.290619 12.531408 0.190335 4.740978 2.410909 8.699126 6.67605 11.852956 3.484358 0.910743 6.387477 1.355881 8.710382 1.355881 4.644787 0 8.510838-0.445138 11.612479-1.355881 0.771573-0.444115 3.284813-1.798972 7.549953-4.063549 1.542122-3.608178 2.322905-7.217379 2.322905-10.837836 0-5.864568-1.941212-10.605545-5.807263-14.223956-3.873214-3.609201-8.328689-5.41943-13.355169-5.41943C668.784324 458.420711 662.785703 461.807854 658.14194 468.581118z" p-id="21496" fill="#1296db"></path><path d="M663.367965 423.196465c3.864004 1.355881 6.577812 2.032286 8.129144 2.032286 5.025457 0 9.870812-1.798972 14.516622-5.418406 0.771573-4.063549 1.162476-7.450692 1.162476-10.160407 0-5.41943-0.390903-9.927093-1.162476-13.547551-0.38988-0.899486-1.551332-3.831258-3.484358-8.80555l-17.418718 0c-5.034666 1.810229-7.54893 7.906064-7.54893 18.289552C657.560702 415.979086 659.493727 421.843654 663.367965 423.196465z" p-id="21497" fill="#1296db"></path><path d="M610.527502 482.805074c0-5.41943-0.38988-9.927093-1.161453-13.546527-0.390903-0.899486-1.552356-3.832282-3.483334-8.806573-3.484358-0.443092-6.197142-0.677429-8.128121-0.677429-5.036713 0-9.781784 0.572028-14.227026 1.693572-4.455475 1.1328-8.619308 3.5038-12.483312 7.113001-0.781806 2.264577-1.161453 3.841491-1.161453 4.740978-1.161453 4.974291-1.74269 8.583492-1.74269 10.838859 0 4.973268 0.961908 9.259898 2.904143 12.869099 4.644787-0.899486 7.9296-1.354857 9.870812-1.354857 2.702552 0 5.415336 0 8.128121 0 2.705622 0.454348 5.41636 0.677429 8.129144 0.677429 4.64581 0 8.710382-1.122567 12.193717-3.387144C610.137623 488.901932 610.527502 485.514789 610.527502 482.805074z" p-id="21498" fill="#1296db"></path></svg>