<?xml version="1.0" standalone="no"?><!DOCTYPE svg PUBLIC "-//W3C//DTD SVG 1.1//EN" "http://www.w3.org/Graphics/SVG/1.1/DTD/svg11.dtd"><svg t="1734693126152" class="icon" viewBox="0 0 1024 1024" version="1.1" xmlns="http://www.w3.org/2000/svg" p-id="53967" xmlns:xlink="http://www.w3.org/1999/xlink" width="200" height="200"><path d="M512.010291 1023.999181a509.019295 509.019295 0 0 1-199.290541-40.232892 510.309532 510.309532 0 0 1-162.744043-109.721413A510.227613 510.227613 0 0 1 40.244053 711.300832 508.742815 508.742815 0 0 1 0.011162 512.000051 508.753055 508.753055 0 0 1 40.244053 312.69927a510.299292 510.299292 0 0 1 109.731654-162.754283A510.401692 510.401692 0 0 1 312.71975 40.213333 509.019295 509.019295 0 0 1 512.010291 0.000922a509.039775 509.039775 0 0 1 199.290541 40.232891 510.483612 510.483612 0 0 1 162.744044 109.731654 510.299292 510.299292 0 0 1 109.731653 162.754283A508.753055 508.753055 0 0 1 1024.009421 512.000051a508.742815 508.742815 0 0 1-40.232892 199.290541 510.227613 510.227613 0 0 1-109.731653 162.744044A510.370972 510.370972 0 0 1 711.300832 983.756049 509.039775 509.039775 0 0 1 512.010291 1023.999181z m81.203062-368.045455h32.491465a9.215984 9.215984 0 0 1 8.949745 9.338865v145.571592a18.370529 18.370529 0 0 0 18.094049 18.595809h108.216136a18.329569 18.329569 0 0 0 18.001889-18.595809V665.292591a9.215984 9.215984 0 0 1 9.052145-9.338865h39.157693a2.303996 2.303996 0 0 0 2.273277-2.314236V621.055866a2.303996 2.303996 0 0 0-2.273277-2.314236h-39.157693a9.082865 9.082865 0 0 1-6.430709-2.764796 9.134064 9.134064 0 0 1-2.611196-6.543348V458.772622a9.215984 9.215984 0 0 1 9.052145-9.338864v0.102399h39.157693a2.303996 2.303996 0 0 0 1.628158-0.716798 2.283516 2.283516 0 0 0 0.645119-1.648638V414.617817a2.303996 2.303996 0 0 0-2.273277-2.314236h-39.157693a9.215984 9.215984 0 0 1-9.052145-9.328624V287.601073a37.703616 37.703616 0 0 0-6.072309-20.623325l-36.054979-55.838625a35.32794 35.32794 0 0 0-30.023629-16.537572 35.24602 35.24602 0 0 0-30.023629 16.537572l-36.095939 55.838625a38.102975 38.102975 0 0 0-6.072309 20.623325v115.332924a9.215984 9.215984 0 0 1-9.011185 9.267184h-32.491465a9.215984 9.215984 0 0 1-8.949744-9.267184V287.601073a37.478336 37.478336 0 0 0-6.14399-20.623325l-36.034499-55.838625A35.32794 35.32794 0 0 0 512.010291 194.560591a35.24602 35.24602 0 0 0-30.023629 16.537572l-36.095938 55.797665a38.000575 38.000575 0 0 0-6.07231 20.633565l-0.06144 115.363644a9.215984 9.215984 0 0 1-8.980465 9.267184h-32.491464a9.215984 9.215984 0 0 1-8.980465-9.267184l0.06144-115.332924a37.478336 37.478336 0 0 0-6.14399-20.623325l-35.993539-55.869345a35.34842 35.34842 0 0 0-30.023629-16.568292 35.2665 35.2665 0 0 0-30.023629 16.568292l-36.188098 55.828385a38.031295 38.031295 0 0 0-6.07231 20.633565v115.363644a9.215984 9.215984 0 0 1-9.011184 9.267184h-39.004094a2.303996 2.303996 0 0 0-2.273276 2.314236v32.614345a2.263036 2.263036 0 0 0 2.273276 2.314236h39.157693a9.215984 9.215984 0 0 1 9.011185 9.338864v150.660864a9.215984 9.215984 0 0 1-9.011185 9.297904h-39.096253a2.303996 2.303996 0 0 0-2.273276 2.314236v32.583624a2.303996 2.303996 0 0 0 2.273276 2.314237h39.188413a9.215984 9.215984 0 0 1 8.980465 9.338864v145.571592a18.370529 18.370529 0 0 0 18.094049 18.595809h108.216136a18.329569 18.329569 0 0 0 18.00189-18.595809V665.251631a9.215984 9.215984 0 0 1 9.052144-9.338864h32.450505a9.215984 9.215984 0 0 1 8.980465 9.338864v145.571592a18.350049 18.350049 0 0 0 18.063329 18.595809h108.216136a18.339809 18.339809 0 0 0 18.032609-18.595809V665.251631a9.215984 9.215984 0 0 1 8.970225-9.308145z m32.389065-37.171136h-32.450505a9.215984 9.215984 0 0 1-8.980464-9.328624V458.793102a9.215984 9.215984 0 0 1 8.980464-9.338864h32.491465a9.215984 9.215984 0 0 1 8.980465 9.338864v150.660864a9.113585 9.113585 0 0 1-2.570236 6.543348 9.123824 9.123824 0 0 1-6.451189 2.775036z m-194.764469 0h-32.491465a9.215984 9.215984 0 0 1-8.980464-9.328624V458.793102a9.215984 9.215984 0 0 1 9.052144-9.338864h32.430025a9.215984 9.215984 0 0 1 9.011185 9.338864v150.660864a9.215984 9.215984 0 0 1-9.021425 9.318384z" fill="#4BAF3A" p-id="53968"></path></svg>