<?xml version="1.0" standalone="no"?><!DOCTYPE svg PUBLIC "-//W3C//DTD SVG 1.1//EN" "http://www.w3.org/Graphics/SVG/1.1/DTD/svg11.dtd"><svg t="1734693080400" class="icon" viewBox="0 0 1154 1024" version="1.1" xmlns="http://www.w3.org/2000/svg" p-id="52522" xmlns:xlink="http://www.w3.org/1999/xlink" width="225.390625" height="200"><path d="M715.60298 812.053A180.822 180.822 0 0 1 768.74098 683.18a182.685 182.685 0 0 1 77.324-45 509.717 509.717 0 0 0-189.022-105.147 286.408 286.408 0 1 0-291.246 0A511.03 511.03 0 0 0 0.00198 1023.987h851.837l-81.849-81.823a180.81 180.81 0 0 1-54.412-130.11z" p-id="52523" fill="#2c2c2c"></path><path d="M1125.55998 741.254a100.248 100.248 0 0 0-141.973 0l-7.775 7.375-7.362-7.375A100.248 100.248 0 0 0 826.47698 882.84l134.998 134.998a20 20 0 0 0 14.312 6.137 18.375 18.375 0 0 0 14.325-6.137l135.423-134.998a100.648 100.648 0 0 0 0-141.573z" p-id="52524" fill="#2c2c2c"></path></svg>