<?xml version="1.0" standalone="no"?><!DOCTYPE svg PUBLIC "-//W3C//DTD SVG 1.1//EN" "http://www.w3.org/Graphics/SVG/1.1/DTD/svg11.dtd"><svg t="1734871024528" class="icon" viewBox="0 0 1024 1024" version="1.1" xmlns="http://www.w3.org/2000/svg" p-id="13414" xmlns:xlink="http://www.w3.org/1999/xlink" width="200" height="200"><path d="M744 528.8c4 24 4 37.6 4 49.6 6.4 3.2 8.8 14.4 4 24.8-4 12-12 19.2-19.2 18.4 0 0-0.8 0-0.8-0.8-14.4 34.4-51.2 59.2-94.4 59.2-44 0-80-24.8-94.4-60.8-3.2 0.8-4 0.8-4 3.2-6.4 3.2-15.2-5.6-19.2-18.4-4-12-3.2-24 4-25.6h4c-3.2-16-0.8-29.6 0.8-45.6 10.4 10.4 25.6 24 47.2 25.6 36.8 5.6 97.6 9.6 126.4-0.8 15.2-7.2 31.2-19.2 41.6-28.8z" p-id="13415" fill="#1296db"></path><path d="M638.4 583.2h-3.2c-76.8-0.8-130.4-61.6-140-97.6-12-49.6 27.2-25.6 60.8-36.8 29.6-10.4 49.6-56.8 80-59.2h0.8c29.6 0.8 49.6 47.2 80 59.2 33.6 10.4 72-12 60.8 36.8-9.6 34.4-60.8 94.4-136 96 0 1.6-1.6 1.6-3.2 1.6z m93.6-56.8H540.8v9.6H732v-9.6z m-73.6-72.8c3.2-6.4 5.6-10.4 0-8.8 0 0-15.2 5.6-22.4-6.4-5.6 14.4-22.4 6.4-22.4 6.4-5.6-3.2-3.2 0.8 0 8.8 3.2 7.2 0.8 6.4-0.8 22.4-4 18.4 8.8 24 16 24.8 0.8 5.6 5.6 5.6 5.6 5.6s4 0 5.6-5.6c9.6-0.8 22.4-6.4 19.2-24-2.4-16-2.4-16-0.8-23.2z m-80.8 240.8l16 42.4-12 15.2 37.6 74.4c-228 0-204-46.4-204-46.4 27.2-65.6 147.2-80 148-80 2.4 1.6 8.8-1.6 14.4-5.6z m113.6 0.8c6.4 4 20 8.8 20 8.8 137.6 16.8 144 82.4 144 82.4-18.4 36.8-167.2 39.2-207.2 39.2l36.8-74.4-18.4-16c0.8 1.6 24.8-40 24.8-40z m-113.6-0.8c4-3.2 6.4-4 6.4-4l0.8-24h100v24.8c0 0.8 0.8 3.2 4 4l-56 11.2-55.2-12zM632.8 828s14.4-32 16-76c0 0-20-16-28.8 3.2-0.8 0.8-4.8 36.8 12.8 72.8z m1.6-118.4c9.6 0 18.4 6.4 18.4 15.2 0 8.8-8.8 15.2-18.4 15.2s-18.4-7.2-18.4-15.2c0-8.8 8.8-15.2 18.4-15.2z" p-id="13416" fill="#1296db"></path><path d="M999.2 966.4H20.8c-10.4 0-18.4-8-18.4-18.4v-36c0-10.4 8-18.4 18.4-18.4h90.4v-760c0-40 32.8-72 72-72h652c40 0 72 32.8 72 72v760.8h90.4c10.4 0 18.4 8 18.4 18.4v36.8c1.6 8.8-6.4 16.8-16.8 16.8z m-670.4-724c0-10.4-8-18.4-18.4-18.4h-72c-10.4 0-18.4 8-18.4 18.4v72c0 10.4 8 18.4 18.4 18.4h72c10.4 0 18.4-8 18.4-18.4v-72z m0 216.8c0-10.4-8-18.4-18.4-18.4h-72c-10.4 0-18.4 8-18.4 18.4v72c0 10.4 8 18.4 18.4 18.4h72c10.4 0 18.4-8 18.4-18.4v-72z m0 218.4c0-10.4-8-18.4-18.4-18.4h-72c-10.4 0-18.4 8-18.4 18.4v72c0 10.4 8 18.4 18.4 18.4h72c10.4 0 18.4-8 18.4-18.4v-72z m181.6-435.2c0-10.4-8-18.4-18.4-18.4h-72c-10.4 0-18.4 8-18.4 18.4v72c0 10.4 8 18.4 18.4 18.4h72c10.4 0 18.4-8 18.4-18.4v-72z m176 0c0-10.4-8-18.4-18.4-18.4h-72c-10.4 0-18.4 8-18.4 18.4v72c0 10.4 8 18.4 18.4 18.4h72c10.4 0 18.4-8 18.4-18.4v-72z m184 0c0-10.4-8-18.4-18.4-18.4h-72c-10.4 0-18.4 8-18.4 18.4v72c0 10.4 8 18.4 18.4 18.4h72c10.4 0 18.4-8 18.4-18.4v-72z m2.4 212.8c0-45.6-35.2-80.8-80.8-80.8H472c-70.4 0-80.8 35.2-80.8 80.8v320c0 45.6 35.2 80.8 80.8 80.8h320c45.6 0 80.8-35.2 80.8-80.8v-320z" p-id="13417" fill="#1296db"></path></svg>