<?xml version="1.0" standalone="no"?><!DOCTYPE svg PUBLIC "-//W3C//DTD SVG 1.1//EN" "http://www.w3.org/Graphics/SVG/1.1/DTD/svg11.dtd"><svg t="1734691144672" class="icon" viewBox="0 0 1024 1024" version="1.1" xmlns="http://www.w3.org/2000/svg" p-id="14566" xmlns:xlink="http://www.w3.org/1999/xlink" width="200" height="200"><path d="M762.311111 367.843556c0 12.686222-5.12 25.315556-13.937778 35.441777a44.373333 44.373333 0 0 1-35.441777 12.686223 39.708444 39.708444 0 0 1-29.013334-11.377778 43.064889 43.064889 0 0 1-11.377778-30.321778c0-12.686222 5.12-25.258667 13.937778-34.133333a48.924444 48.924444 0 0 1 34.133334-13.880889c11.377778-1.194667 21.447111 3.754667 30.321777 11.377778 7.623111 7.509333 11.377778 18.887111 11.377778 30.208z m-63.260444 329.955555h-78.336l50.517333-256.568889h78.336l-50.517333 256.568889z m-233.813334-12.629333l27.818667-145.351111H365.340444l-27.818666 145.351111H261.688889l67.015111-346.453334h74.581333l-25.258666 135.281778h128.910222l26.567111-135.281778h75.832889l-66.958222 346.453334H465.180444z m370.346667-492.999111l-2.446222-2.503111A452.892444 452.892444 0 0 0 512 56.888889a455.793778 455.793778 0 0 0-322.332444 132.778667A457.841778 457.841778 0 0 0 56.888889 512a453.518222 453.518222 0 0 0 132.778667 322.389333A457.955556 457.955556 0 0 0 512 967.111111h340.024889a35.328 35.328 0 0 0 35.441778-35.441778v-160.540444a463.132444 463.132444 0 0 0 58.140444-117.532445A473.656889 473.656889 0 0 0 967.111111 511.943111c0-125.098667-50.517333-237.624889-131.470222-319.715555z" fill="#1296db" p-id="14567"></path></svg>