<?xml version="1.0" standalone="no"?><!DOCTYPE svg PUBLIC "-//W3C//DTD SVG 1.1//EN" "http://www.w3.org/Graphics/SVG/1.1/DTD/svg11.dtd"><svg t="1731548196823" class="icon" viewBox="0 0 1024 1024" version="1.1" xmlns="http://www.w3.org/2000/svg" p-id="64799" xmlns:xlink="http://www.w3.org/1999/xlink" width="200" height="200"><path d="M784.39424 85.32992l68.93568 62.4128-8.43776 17.8176c-10.5472 22.24128-44.93312 99.328-44.93312 157.72672 0 12.94336 4.41344 36.38272 9.5232 63.50848l0.16384 0.82944c6.89152 36.39296 15.80032 83.38432 19.28192 131.67616A256.4096 256.4096 0 0 0 768 512c-31.63136 0-61.91104 5.7344-89.87648 16.22016v-4.21888H394.40384v169.02144H523.1616A255.96928 255.96928 0 0 0 512 768c0 34.92864 6.99392 68.22912 19.6608 98.56-22.5792 16.55808-34.90816 30.47424-41.59488 40.37632l-0.57344 0.86016-20.3264 30.8736-20.26496-30.91456c-15.2064-23.1936-61.98272-69.69344-204.19584-120.46336C154.1632 754.95424 108.2368 677.9904 108.2368 558.55104c0-61.0304 11.49952-121.83552 20.76672-170.9056 5.19168-27.47392 9.68704-51.2 9.68704-64.3584 0-53.63712-28.8768-122.80832-41.82016-151.05024l-1.65888-3.59424-0.74752-1.59744-0.69632-1.46432-8.448-17.8176 68.94592-62.43328 14.67392 7.53664c128.36864 65.95584 234.92608 27.392 274.96448 7.63904l2.63168-1.31072c4.1984-2.1504 7.53664-4.00384 9.9328-5.40672l0.69632-0.4096 12.15488-7.18848 12.1344 7.168c22.0672 13.07648 138.56768 73.96352 283.86304 1.73056l4.41344-2.23232 14.65344-7.5264z m-16.39424 512c94.2592 0 170.67008 76.41088 170.67008 170.67008 0 94.2592-76.41088 170.67008-170.67008 170.67008-94.2592 0-170.67008-76.41088-170.67008-170.67008 0-94.2592 76.41088-170.67008 170.67008-170.67008z m-54.8864 184.1152a91.37152 91.37152 0 0 0-38.15424 71.33184l-0.0512 3.14368v6.71744c0.49152 7.30112 6.92224 13.23008 14.1312 13.90592l1.36192 0.06144h154.89024c7.74144 0 14.97088-6.20544 15.49312-13.96736 1.024-11.3664-0.512-21.1968-4.64896-33.09568-6.1952-19.6608-18.5856-35.6864-34.07872-47.57504-13.93664 13.95712-33.04448 22.23104-54.21056 22.23104a76.7488 76.7488 0 0 1-54.7328-22.75328z m54.7328-122.0608a67.04128 67.04128 0 0 0-67.1232 67.24608 67.04128 67.04128 0 0 0 67.1232 67.2256c37.1712 0 67.1232-29.99296 67.1232-67.2256a67.04128 67.04128 0 0 0-67.1232-67.23584z m-389.4272-431.69792h-61.93152c-10.3936 66.38592-35.91168 115.6096-76.5952 147.68128l-3.328 2.56v41.73824c16.77312-6.2464 31.40608-13.08672 43.8784-20.48l4.07552-2.47808v308.8384h57.93792V332.01152c13.312-22.24128 25.2928-57.0368 35.97312-104.33536zM608.44032 567.808a257.05472 257.05472 0 0 0-69.39648 85.5552l-84.6848 0.01024v-85.5552l154.08128-0.01024z m69.69344-131.45088H394.40384v41.73824h283.71968v-41.73824z m0-83.46624H394.40384v41.728h283.71968v-41.728zM572.23168 227.6864h-69.9392v39.64928H374.43584v43.8272h327.68v-43.8272H572.22144v-39.64928z" fill="#000000" fill-opacity=".25" p-id="64800"></path></svg>