<?xml version="1.0" standalone="no"?><!DOCTYPE svg PUBLIC "-//W3C//DTD SVG 1.1//EN" "http://www.w3.org/Graphics/SVG/1.1/DTD/svg11.dtd"><svg t="1731548548155" class="icon" viewBox="0 0 1616 1024" version="1.1" xmlns="http://www.w3.org/2000/svg" p-id="90712" xmlns:xlink="http://www.w3.org/1999/xlink" width="315.625" height="200"><path d="M1013.221053 393.431579c16.168421 26.947368 21.557895 64.673684 21.557894 97.010526 0 32.336842-5.389474 59.284211-16.168421 86.231579-10.778947 26.947368-26.947368 48.505263-48.505263 70.063158s-43.115789 37.726316-70.063158 48.505263c-26.947368 10.778947-53.894737 16.168421-86.231579 16.168421s-59.284211-5.389474-86.231579-16.168421c-26.947368-10.778947-53.894737-26.947368-70.063158-48.505263-21.557895-21.557895-37.726316-43.115789-48.505263-70.063158-10.778947-26.947368-16.168421-53.894737-16.168421-86.231579s0-59.284211 10.778948-86.231579 26.947368-48.505263 48.505263-70.063158 43.115789-37.726316 70.063158-48.505263c26.947368-10.778947 59.284211-16.168421 91.621052-16.168421 32.336842 0 64.673684 5.389474 91.621053 21.557895 26.947368 10.778947 53.894737 32.336842 75.452632 53.894737-10.778947-10.778947-26.947368-10.778947-43.11579-10.778948-21.557895 0-43.115789 10.778947-59.28421 26.947369-16.168421 16.168421-26.947368 37.726316-26.947369 59.28421 0 21.557895 10.778947 43.115789 26.947369 59.284211 16.168421 16.168421 37.726316 26.947368 59.28421 26.947368 21.557895 0 43.115789-10.778947 59.284211-26.947368 16.168421-16.168421 21.557895-37.726316 21.557894-59.284211-5.389474-16.168421-5.389474-21.557895-5.389473-26.947368zM808.421053 0c75.452632 0 150.905263 10.778947 215.578947 37.726316s123.957895 53.894737 183.242105 91.621052c53.894737 37.726316 107.789474 75.452632 150.905263 118.568421 43.115789 43.115789 86.231579 80.842105 123.957895 118.568422 37.726316 37.726316 70.063158 64.673684 97.010526 91.621052 26.947368 21.557895 37.726316 21.557895 37.726316 32.336842 0 10.778947-10.778947 10.778947-37.726316 37.726316-26.947368 26.947368-64.673684 53.894737-97.010526 91.621053-37.726316 37.726316-75.452632 75.452632-123.957895 118.568421-43.115789 43.115789-97.010526 80.842105-150.905263 118.568421-53.894737 37.726316-113.178947 70.063158-183.242105 91.621052-64.673684 26.947368-140.126316 37.726316-215.578947 37.726316s-150.905263-10.778947-215.578948-37.726316-129.347368-53.894737-183.242105-91.621052c-59.284211-37.726316-107.789474-75.452632-156.294737-118.568421-48.505263-43.115789-86.231579-80.842105-123.957895-118.568421-37.726316-37.726316-70.063158-70.063158-97.010526-91.621053-32.336842-26.947368-32.336842-26.947368-32.336842-37.726316 0-10.778947 0-10.778947 26.947368-37.726316s59.284211-53.894737 97.010527-91.621052c37.726316-32.336842 80.842105-75.452632 129.347368-113.178948 43.115789-43.115789 97.010526-86.231579 150.905263-118.568421S522.778947 59.284211 592.842105 37.726316c64.673684-26.947368 140.126316-37.726316 215.578948-37.726316z m0 808.421053c43.115789 0 86.231579-10.778947 123.957894-26.947369 37.726316-16.168421 70.063158-37.726316 102.4-64.673684 26.947368-26.947368 48.505263-59.284211 64.673685-102.4 16.168421-37.726316 26.947368-80.842105 26.947368-123.957895 0-43.115789-10.778947-80.842105-26.947368-123.957894-16.168421-37.726316-37.726316-70.063158-64.673685-102.4-26.947368-26.947368-59.284211-53.894737-102.4-70.063158-37.726316-16.168421-80.842105-26.947368-123.957894-26.947369-43.115789 0-80.842105 10.778947-123.957895 26.947369-37.726316 26.947368-70.063158 48.505263-97.010526 75.452631s-53.894737 59.284211-70.063158 102.4c-16.168421 37.726316-21.557895 75.452632-21.557895 118.568421 0 43.115789 10.778947 86.231579 26.947368 123.957895 16.168421 37.726316 37.726316 70.063158 70.063158 102.4s59.284211 48.505263 102.4 64.673684c32.336842 16.168421 70.063158 26.947368 113.178948 26.947369z" fill="#1296db" p-id="90713"></path></svg>