<?xml version="1.0" standalone="no"?><!DOCTYPE svg PUBLIC "-//W3C//DTD SVG 1.1//EN" "http://www.w3.org/Graphics/SVG/1.1/DTD/svg11.dtd"><svg t="1731906440901" class="icon" viewBox="0 0 1024 1024" version="1.1" xmlns="http://www.w3.org/2000/svg" p-id="27197" xmlns:xlink="http://www.w3.org/1999/xlink" width="200" height="200"><path d="M835.358321 21.269365c5.981009 25.683158 9.97901 52.005997 11.962019 79.0005 32.943528 36.269865 47.432284 65.631184 43.466267 88.01999-5.981009 33.583208-15.224388 130.366817-15.224388 135.42029 0 5.053473 85.013493-5.053473 85.333333-5.149425-7.356322 60.225887-21.269365 99.310345-20.981509 99.214392-211.510245 189.569215-192.7996 310.692654-191.584208 310.66067 94.032984-71.708146 175.944028-222.8006 176.295852-222.608696-68.029985 234.442779-210.134933 382.848576-300.841579 458.010995-5.117441-362.762619 171.690155-479.28036 220.177911-526.104948 49.95902-48.231884 43.370315-49.895052 43.370315-54.116941 0-4.221889 2.878561-21.429285-16.631684-28.241879a73.563218 73.563218 0 0 1-15.128436 17.111444c-3.998001 2.782609-7.868066 5.757121-11.610195 8.923538-6.524738-27.506247-23.476262-43.018491-50.822589-46.632683 2.238881 4.797601 7.42029 23.54023 7.42029 41.73913 0 4.637681 0.223888 21.525237-3.454273 26.386807-3.710145 4.797601-29.617191 21.525237-52.229885 42.53873s-55.556222 56.803598-54.884558 57.059471c-10.714643-77.977011 17.303348-128.735632 34.798601-157.489256 17.495252-28.721639 49.447276-80.91954 69.82109-99.118441 9.627186-20.885557 9.627186-84.885557 2.462768-92.593703-7.132434-7.676162-51.430285-24.81959-52.197901-25.747126-278.068966 273.303348-246.884558 521.947026-244.997501 531.894053l0.095952 0.287856c37.261369-61.505247 65.663168-80.5997 62.144928-72.603698-58.210895 97.935032-64.95952 243.302349-20.277862 436.165917a1.183408 1.183408 0 0 0-0.255872 0.191904C306.118941 873.963018 222.864568 656.823588 222.8006 656.311844c49.447276-5.565217 89.011494-27.826087 88.723638-27.922039 22.804598 66.014993 59.330335 95.088456 64.127936 99.470265l0.47976 0.511744-1.663168-5.437281c-32.71964-109.161419-6.62069-257.727136-5.437282-263.228386-40.93953 46.184908-173.801099 52.453773-173.545227 52.933533 38.124938 38.828586 131.838081 63.52024 132.445777 62.688656C129.343328 659.606197 0.575712 483.630185 0.255872 483.374313c152.97951-34.254873 286.704648-119.332334 401.143428-255.232384 63.84008 0 101.229385-3.198401 112.135932-9.627186 16.375812-9.627186 45.897051-30.256872 115.590205-91.730135A1031.292354 1031.292354 0 0 1 785.271364 14.008996c27.410295-20.853573 44.137931-18.422789 50.086957 7.260369zM620.745627 74.266867h-0.063968c-53.829085 51.590205-80.75962 77.721139-80.791604 78.360819-177.511244-10.298851-316.193903 49.15942-315.842079 49.959021 0 19.606197 7.036482 128.575712 7.036482 128.575712s-97.487256 51.174413-96.687656 51.494253c-21.365317-108.329835-16.183908-236.681659-16.471765-236.425787 135.196402-52.325837 302.792604-76.313843 502.788606-71.964018z m-72.571714 200.85957c-24.851574 10.074963-48.327836 15.128436-70.396802 15.128436h-43.818091l-77.753123 77.209395c35.790105-13.465267 57.69915-20.245877 65.727136-20.245877 12.025987 0 41.09945 8.187906 50.310845 0a5949.025487 5949.025487 0 0 0 75.930035-72.123938z" fill="#FF663A" p-id="27198"></path></svg>