<?xml version="1.0" standalone="no"?><!DOCTYPE svg PUBLIC "-//W3C//DTD SVG 1.1//EN" "http://www.w3.org/Graphics/SVG/1.1/DTD/svg11.dtd"><svg t="1731906402883" class="icon" viewBox="0 0 1024 1024" version="1.1" xmlns="http://www.w3.org/2000/svg" p-id="26846" xmlns:xlink="http://www.w3.org/1999/xlink" width="200" height="200"><path d="M823.144296 20.973037c5.897481 25.315556 9.841778 51.256889 11.794963 77.842963 32.464593 35.783111 46.743704 64.70163 42.818371 86.774519-5.878519 33.09037-14.999704 128.493037-14.999704 133.480296 0 4.987259 83.797333-4.987259 84.119704-5.082074-7.224889 59.392-20.973037 97.905778-20.66963 97.810963-208.497778 186.842074-190.065778 306.251852-188.833185 306.213926 92.672-70.693926 173.416296-219.610074 173.738666-219.401482C844.079407 729.694815 704.018963 875.975111 614.608593 950.044444c-5.082074-357.56563 169.225481-472.424296 217.012148-518.561185 49.227852-47.540148 42.742519-49.170963 42.742518-53.342815 0-4.171852 2.844444-21.124741-16.384-27.837629 0.094815 0.32237-7.907556 11.757037-14.923852 16.839111a167.822222 167.822222 0 0 0-11.434666 8.798815c-6.428444-27.079111-23.134815-42.401185-50.100148-45.966222 2.218667 4.759704 7.319704 23.22963 7.319703 41.168592 0 4.551111 0.208593 21.200593-3.413333 25.979259-3.659852 4.759704-29.202963 21.238519-51.484444 41.946074-22.281481 20.707556-54.746074 55.978667-54.082371 56.225186-10.581333-76.856889 17.047704-126.862222 34.285037-155.211852 17.237333-28.330667 48.734815-79.777185 68.835556-97.697185 9.481481-20.593778 9.481481-83.683556 2.427259-91.268741-7.035259-7.585185-50.706963-24.481185-51.465481-25.372445C459.851852 395.112296 490.609778 640.18963 492.487111 649.974519l0.075852 0.303407c36.712296-60.624593 64.70163-79.454815 61.25037-71.547259-57.381926 96.521481-64.037926 239.824593-19.986963 429.909333a1.175704 1.175704 0 0 0-0.246518 0.18963c-232.106667-147.380148-314.17837-361.396148-314.216296-361.908149 48.734815-5.499259 87.722667-27.420444 87.457185-27.534222 23.36237 67.678815 61.364148 95.952593 63.601778 98.474667l0.075851 0.094815-1.649777-5.385482c-32.256-107.576889-6.523259-254.008889-5.328593-259.451259-40.391111 45.530074-171.33037 51.730963-171.102815 52.186074 37.603556 38.267259 129.972148 62.615704 130.578963 61.76237C127.241481 650.202074 0.303407 476.747852 0 476.501333c150.793481-33.792 282.586074-117.646222 395.396741-251.562666 62.919111 0 99.764148-3.166815 110.535111-9.519408 16.137481-9.500444 45.24563-29.828741 113.929481-90.415407 45.776593-40.391111 97.09037-77.444741 153.903408-111.198815 27.022222-20.536889 43.482074-18.147556 49.379555 7.168zM611.51763 73.197037C558.459259 124.055704 531.911111 149.807407 531.873185 150.452148c-174.971259-10.164148-311.675259 48.45037-311.333926 49.246815 0 19.323259 6.97837 126.710519 6.978371 126.710518S131.413333 376.888889 132.171852 377.173333c-21.048889-106.761481-15.928889-233.301333-16.232296-233.016889 133.271704-51.579259 298.477037-75.245037 495.616-70.959407z" fill="#1296db" p-id="26847" data-spm-anchor-id="a313x.search_index.0.i42.5fd43a813ocdxv" class="selected"></path><path d="M427.463111 286.113185L350.814815 362.192593c35.271111-13.274074 56.869926-19.930074 64.777481-19.930074 11.870815 0 40.523852 8.059259 49.588148 0 6.030222-5.366519 30.985481-29.070222 74.865778-71.092149-24.519111 9.955556-47.653926 14.942815-69.404444 14.942815h-43.178667z" fill="#d81e06" p-id="26848" data-spm-anchor-id="a313x.search_index.0.i43.5fd43a813ocdxv" class=""></path></svg>