<?xml version="1.0" standalone="no"?><!DOCTYPE svg PUBLIC "-//W3C//DTD SVG 1.1//EN" "http://www.w3.org/Graphics/SVG/1.1/DTD/svg11.dtd"><svg t="1731894803107" class="icon" viewBox="0 0 1024 1024" version="1.1" xmlns="http://www.w3.org/2000/svg" p-id="49243" xmlns:xlink="http://www.w3.org/1999/xlink" width="200" height="200"><path d="M512 0c282.760533 0 512 229.239467 512 512 0 282.760533-229.239467 512-512 512-282.760533 0-512-229.239467-512-512C0 229.239467 229.239467 0 512 0z m0 10.24C234.871467 10.24 10.24 234.871467 10.24 512S234.871467 1013.76 512 1013.76 1013.76 789.128533 1013.76 512c0-247.876267-179.746133-453.768533-415.982933-494.455467A501.248 501.248 0 0 0 512 10.24z" p-id="49244"></path><path d="M512 143.36c203.605333 0 368.64 165.034667 368.64 368.64 0 203.605333-165.034667 368.64-368.64 368.64-203.605333 0-368.64-165.034667-368.64-368.64C143.36 308.394667 308.394667 143.36 512 143.36z m0 7.3728C312.490667 150.7328 150.7328 312.490667 150.7328 512S312.490667 873.2672 512 873.2672 873.2672 711.509333 873.2672 512c0-178.4832-129.399467-326.724267-299.52-356.010667A360.891733 360.891733 0 0 0 512 150.7328z" p-id="49245"></path><path d="M558.011733 12.014933l-5.154133 60.586667-31.6416-1.399467v-10.717866h23.552V26.555733h-60.552533l3.1744 81.7152c37.205333-1.604267 64.9216-1.1264 83.217066 1.467734 18.3296 2.56 44.475733 9.6256 78.472534 21.230933l26.8288-78.0288-56.661334-15.837867-9.489066 34.0992 21.538133 4.232534-3.2768 11.707733-29.525333-7.2704 11.264-61.917867-11.264-5.9392-15.291734 75.127467 52.4288 15.018667 11.0592-34.884267-22.254933-6.792533 3.584-10.171734 33.450667 10.171734-18.773334 52.872533c-31.095467-8.567467-55.125333-13.960533-72.0896-16.110933-16.930133-2.184533-40.618667-2.935467-70.997333-2.286934l-2.389333-57.856h35.191466V47.786667h-25.429333l2.2528 36.215466h54.613333l6.7584-71.953066h-12.5952zM822.272 116.8384L784.042667 164.181333l-25.429334-18.8416 5.973334-8.874666 19.5584 13.2096 18.978133-28.16-50.210133-33.8944-43.076267 69.563733c31.744 19.456 54.442667 35.362133 68.1984 47.7184 13.7216 12.3904 31.470933 32.8704 53.179733 61.508267l65.877334-49.698134-38.161067-44.817066-26.897067 22.971733 15.4624 15.5648-9.250133 7.850667-20.411733-22.528 43.963733-45.056-6.0416-11.229867-54.6816 53.76 35.089067 41.745067 28.672-22.7328-14.677334-18.056534 8.669867-6.417066 22.050133 27.136-45.124266 33.314133C814.762667 223.744 797.9008 205.858133 785.066667 194.56c-12.868267-11.264-32.085333-25.156267-57.617067-41.608533l30.378667-49.2544 29.149866 19.6608-5.9392 8.8064-21.0944-14.199467-18.363733 31.266133 45.2608 30.549334 45.8752-55.876267-10.4448-7.0656zM1002.257067 628.565333l-59.2896-13.585066 5.802666-31.095467 10.581334 1.467733-3.2768 23.3472 33.621333 4.7104 8.430933-59.972266-81.373866-8.192c-3.584 37.000533-7.918933 64.4096-13.0048 82.193066-5.12 17.749333-15.7696 42.666667-31.9488 74.752l73.5232 37.410134 23.552-53.930667-32.426667-14.097067-7.202133 20.718934-11.127467-4.881067 11.298133-28.228267 59.733334 19.797334 7.509333-10.3424-72.328533-25.6-22.1184 49.834666 33.006933 15.803734 9.762133-21.0944 9.557334 4.983466-14.677334 31.675734-49.732266-25.941334c12.8-29.5936 21.469867-52.6336 25.975466-69.12 4.539733-16.4864 8.567467-39.8336 12.151467-70.007466l57.582933 5.700266-4.881066 34.816-10.513067-1.467733 3.515733-25.1904-36.181333-2.798933-7.5776 54.0672 70.314667 16.725333 1.7408-12.458667zM860.535467 873.5744l-42.325334-43.690667 21.8112-22.9376 8.055467 7.031467-15.4624 17.749333 25.634133 22.289067 39.7312-45.704533-63.761066-51.2c-23.210667 29.0816-41.745067 49.732267-55.7056 61.8496-13.9264 12.117333-36.4544 27.204267-67.4816 45.2608l41.301333 71.441066 49.083733-32.392533-19.490133-29.4912-17.339733 13.482667-6.690134-10.171734 24.8832-17.5104 39.3216 49.152 11.8784-4.642133-46.660266-60.8256-45.738667 29.730133 19.080533 31.232 19.694934-12.356266 5.3248 9.386666-29.627734 18.568534-27.5456-48.8448c26.862933-17.851733 46.660267-32.426667 59.460267-43.8272 12.765867-11.3664 28.842667-28.740267 48.298667-52.087467l45.192533 36.1472-23.074133 26.555733-8.021334-6.997333 16.6912-19.182933-28.842666-22.050134-35.84 41.198934 49.902933 52.3264 8.260267-9.489067zM103.901867 804.727467l49.152-35.84 19.6608 24.814933-8.055467 6.997333-15.4624-17.783466-25.634133 22.289066 39.7312 45.704534 59.5968-56.046934c-25.6-26.965333-43.4176-48.2304-53.486934-63.726933-10.069333-15.530667-21.9136-39.901867-35.464533-73.181867l-76.458667 30.958934 25.224534 53.1456 31.914666-15.189334-10.922666-19.080533 10.990933-5.188267 13.892267 27.101867-54.135467 32.085333 2.901333 12.424534 66.7648-37.7856-23.108266-49.390934-33.5872 14.506667 9.5232 21.265067-10.0352 3.959466-14.267734-31.914666 52.224-20.48c13.9264 29.0816 25.6 50.722133 35.089067 64.955733 9.489067 14.2336 24.439467 32.5632 44.885333 55.057067l-42.0864 39.765333-23.108266-26.555733 8.055466-6.9632 16.657067 19.182933 25.873067-25.463467-35.84-41.233066-58.743467 42.120533 8.260267 9.489067zM557.738667 1013.76l-4.4032-62.7712-32.3584 2.389333v9.147734h23.552v35.396266h-60.142934l3.106134-81.032533c37.751467 0.341333 65.809067-0.785067 84.206933-3.4816 18.397867-2.6624 44.305067-9.352533 77.687467-20.036267l27.477333 76.356267-58.231467 18.1248-8.942933-34.269867 22.357333-5.3248-3.515733-10.786133-30.5152 6.5536 11.6736 63.624533-11.6736 3.4816-14.267733-75.5712 52.155733-13.482666 10.5472 33.621333-22.1184 6.826667 2.491733 10.103466 33.860267-10.103466-19.1488-53.1456c-30.72 9.284267-53.998933 15.018667-69.8368 17.271466-15.837867 2.218667-39.799467 3.106133-71.8848 2.6624L498.005333 986.453333h33.518934v-10.922666h-23.108267v-36.0448l54.715733-2.048 6.9632 76.322133h-12.322133zM278.3232 958.737067l29.866667-54.954667-25.975467-15.837867-7.133867 10.0352 18.944 9.557334-15.701333 30.208-52.155733-33.9968 48.913066-63.5904c28.296533 20.3776 50.619733 34.338133 67.037867 41.915733 16.418133 7.543467 42.837333 16.042667 79.189333 25.4976l-19.012266 78.2336-56.388267-17.1008 11.502933-33.314133 18.6368 7.748266 4.573867-11.4688-29.661867-10.001066-27.204266 61.371733-9.8304-4.539733 31.982933-74.752 47.650133 20.6848-9.557333 31.778133-20.616533-5.563733-3.4816 10.8544 33.655466 10.410666 13.038934-55.1936c-30.446933-8.772267-53.0432-16.5888-67.857067-23.3472-14.779733-6.7584-36.010667-19.0464-63.658667-36.829866l-32.9728 47.2064 28.740267 17.92 7.509333-8.704-20.718933-11.6736 20.6848-30.276267 45.397333 26.965333-35.6352 66.833067-9.762133-6.075733zM4.949333 485.4784l66.9696 2.9696 2.696534-30.9248h-10.820267v19.456H26.624l8.157867-63.214933 79.633066 16.964266c-5.256533 35.976533-7.8848 62.8736-7.8848 80.657067 0 17.749333 2.628267 44.202667 7.850667 79.291733l-79.598933 18.3296-8.192-60.5184h33.109333l4.130133 17.681067h13.346134l-2.525867-31.8464-69.666133 1.911467v-11.946667l77.482666-2.628267 6.075734 53.930667-33.9968 4.369067-3.720534-21.367467h-11.264l5.0176 36.6592 55.808-10.888533c-4.369067-32.1536-6.5536-56.490667-6.5536-72.977067 0-16.520533 2.184533-40.5504 6.5536-72.0896l-55.808-11.0592-5.0176 35.157333h11.264l3.754667-22.2208 33.962667 6.929067-3.822934 50.3808-79.735466-2.56v-10.4448zM988.945067 344.541867l-59.2896 20.821333-12.288-28.808533 10.1376-3.959467 7.5776 19.8656 33.5872-12.253867-24.576-55.739733-72.704 37.137067c15.701333 33.006933 26.282667 58.538667 31.573333 76.5952 5.3248 18.056533 10.1376 44.475733 14.404267 79.2576l80.418133-6.5536-8.874667-60.6208-33.28 6.144 2.594134 22.4256-10.752 2.286933-5.4272-30.856533 64.341333-16.657067-3.9936-10.308267-74.888533 17.6128 11.400533 53.3504 33.518933-5.495466-3.754666-22.050134 10.717866-2.1504 4.881067 34.884267-56.763733 5.0176c-4.608-32.768-9.216-57.207467-13.789867-73.352533-4.608-16.145067-13.0048-37.410133-25.258667-63.726934l48.366934-25.088 14.882133 30.276267-9.659733 3.959467-10.103467-20.923734-31.675733 14.472534 19.968 50.858666 71.9872-25.258666-3.2768-11.1616zM72.738133 259.6864l56.251734 33.041067-14.609067 27.409066-8.874667-4.061866 8.874667-18.773334-28.842667-17.3056-25.873066 53.623467 74.171733 32.0512c15.2576-35.328 28.0576-60.962133 38.365867-76.936533 10.3424-15.9744 26.965333-35.908267 49.9712-59.767467L162.9184 171.349333 123.733333 218.282667l26.2144 21.435733 15.086934-16.861867 9.045333 6.109867-19.729067 25.156267L98.986667 214.152533l-6.075734 11.1616L157.218133 271.36l33.314134-42.359467-26.350934-22.528-14.2336 16.418134-9.045333-8.704 22.016-23.415467 40.106667 38.229333c-20.411733 24.405333-34.781867 43.246933-43.1104 56.593067-8.362667 13.312-18.6368 33.8944-30.9248 61.678933l-53.418667-19.1488 14.062933-30.8224 9.352534 4.8128-9.352534 20.138667 31.266134 14.267733 25.361066-47.786666-68.266666-39.253334-5.256534 10.24zM277.981867 61.678933l30.549333 58.368-26.4192 15.633067-4.130133-8.738133 17.5104-11.946667-17.5104-30.139733-51.3024 32.187733 47.889066 67.1744c29.9008-20.957867 53.4528-35.362133 70.621867-43.178667 17.169067-7.850667 42.8032-15.837867 76.834133-23.995733l-20.514133-80.9984-56.32 17.954133 10.990933 32.324267 20.241067-6.280533 4.027733 10.683733-28.330666 10.752-27.7504-60.757333-11.195734 5.7344 32.017067 70.587733 50.414933-18.6368-10.103466-32.017067-22.528 5.632-2.2528-10.3424 34.884266-7.68 9.6256 52.224c-28.5696 8.6016-50.210133 16.315733-64.955733 23.210667-14.677333 6.894933-35.498667 18.978133-62.293333 36.317867L243.712 120.0128l28.228267-18.5344 6.007466 8.635733-20.2752 13.380267 20.2752 28.330667 46.3872-24.8832-36.6592-72.942934-9.728 7.68zM686.557867 215.04c26.8288 72.226133 41.198933 124.142933 43.144533 155.7504 1.9456 31.6416-7.133867 57.890133-27.170133 78.779733 15.223467 12.970667 26.555733 25.1904 33.8944 36.727467 7.3728 11.5712 14.472533 28.228267 21.333333 49.9712-10.786133-10.8544-18.978133-18.3296-24.610133-22.357333-5.632-4.027733-10.376533-5.802667-14.165334-5.393067 18.670933 27.136 29.149867 49.186133 31.470934 66.218667 2.048 15.121067-1.4336 33.314133-10.410667 54.5792l-3.618133 8.055466-9.6256-35.669333c-3.413333 30.993067-8.055467 54.272-13.892267 69.870933-5.8368 15.5648-15.803733 31.197867-29.832533 46.865067 3.754667-17.885867 5.597867-31.1296 5.597866-39.765333 0-8.669867-1.877333-14.848-5.597866-18.602667-10.205867 26.146133-20.138667 45.602133-29.764267 58.368-9.659733 12.8-27.306667 29.7984-52.906667 51.029333 5.3248-10.581333 8.635733-18.670933 9.966934-24.337066 1.365333-5.700267 1.365333-11.707733 0-18.090667-9.386667 12.868267-16.5888 22.1184-21.572267 27.784533-19.968 22.6304-38.365867 40.379733-49.7664 54.033067-15.701333 18.773333-24.644267 30.72-26.897067 35.805867-3.310933-7.133867-12.629333-19.8656-27.8528-38.229334-12.970667-15.598933-31.812267-33.962667-56.388266-61.303466a197.9392 197.9392 0 0 1-13.380267-18.090667c0.3072 9.045333 1.194667 15.940267 2.696533 20.6848 1.467733 4.778667 5.051733 12.014933 10.683734 21.742933-26.624-19.694933-45.602133-36.693333-56.9344-51.029333-11.332267-14.336-21.265067-33.792-29.764267-58.368-2.56 2.2528-4.1984 7.441067-4.9152 15.496533-0.750933 8.055467-0.750933 21.0944 0 39.1168-14.848-23.483733-24.337067-41.710933-28.501333-54.613333-4.164267-12.9024-6.826667-32.3584-7.9872-58.368l-12.731734 35.669333-2.9696-7.850666c-8.362667-23.210667-11.707733-41.506133-9.966933-54.784 1.911467-14.779733 11.776-36.864 29.5936-66.218667a49.2544 49.2544 0 0 0-13.243733 7.611733c-5.3248 3.959467-13.4144 10.683733-24.234667 20.138667a134.485333 134.485333 0 0 1 16.5888-40.5504c7.236267-11.3664 20.0704-26.7264 38.570667-46.148267-19.5584-21.230933-28.0576-49.834667-25.463467-85.879466 2.56-36.010667 17.646933-85.572267 45.2608-148.650667 23.8592 26.965333 41.472 47.650133 52.906667 62.122667 11.434667 14.404267 25.3952 33.655467 41.8816 57.685333 29.661867-14.9504 52.6336-25.053867 68.949333-30.344533 16.2816-5.256533 39.697067-10.1376 70.2464-14.677334-10.205867 7.748267-16.896 13.7216-20.0704 17.92-3.208533 4.232533-5.597867 10.274133-7.236267 18.193067a198.314667 198.314667 0 0 1 29.149867-16.315733c7.3728-3.072 17.578667-5.973333 30.6176-8.635734-3.720533 6.0416-6.144 10.581333-7.2704 13.653334-1.1264 3.037867-1.1264 4.983467 0 5.8368a1878.357333 1878.357333 0 0 1 59.972267-79.189334c14.609067-17.851733 23.3472-26.624 26.2144-26.248533z m-10.001067 44.919467c-28.5696 34.679467-49.152 61.405867-61.8496 80.1792-12.6976 18.773333-29.525333 47.5136-50.551467 86.254933l40.174934-19.182933c11.776 12.6976 18.090667 23.893333 19.012266 33.5872 0.9216 9.693867-2.798933 26.4192-11.127466 50.141866l27.4432 10.001067a107.281067 107.281067 0 0 0-35.328 17.3056c-11.127467 8.192-26.487467 22.2208-46.011734 42.222933 6.212267-26.5216 11.434667-46.353067 15.701334-59.528533 4.3008-13.141333 11.264-30.9248 20.923733-53.316267-14.882133 14.677333-27.784533 29.115733-38.741333 43.3152-10.922667 14.199467-25.6 35.566933-44.032 64.068267-16.554667-28.2624-29.764267-48.7424-39.697067-61.44-9.898667-12.6976-24.576-27.989333-44.1344-45.943467 13.960533 30.8224 23.210667 53.418667 27.8528 67.754667 4.608 14.336 7.441067 29.354667 8.533333 45.056-17.066667-19.114667-30.685867-32.392533-40.789333-39.799467-10.1376-7.441067-23.552-13.994667-40.277333-19.694933l29.866666-10.001067c-8.533333-22.903467-12.117333-39.594667-10.820266-50.141866 1.3312-10.478933 6.9632-21.674667 16.9984-33.5872l41.1648 19.182933c-16.110933-32.6656-31.0272-59.1872-44.714667-79.530667-13.653333-20.343467-36.010667-49.322667-67.072-86.903466-21.777067 57.924267-30.890667 100.864-27.374933 128.785066 3.515733 27.921067 20.821333 55.3984 51.882666 82.397867-18.500267 17.032533-34.0992 32.187733-46.762666 45.4656-11.127467 11.605333-21.060267 27.579733-29.832534 47.9232l-3.652266 8.874667 4.164266-5.666134c9.4208-12.936533 16.759467-22.1184 22.050134-27.5456l2.1504-2.116266c6.0416-5.632 12.253867-8.362667 18.602666-8.226134-7.509333 22.459733-11.9808 41.949867-13.5168 58.436267-1.501867 16.4864-1.092267 41.437867 1.262934 74.888533 2.594133-22.971733 5.12-38.263467 7.509333-45.943466 2.389333-7.645867 6.929067-14.574933 13.5168-20.753067-2.184533 16.008533-2.525867 28.8768-1.024 38.673067 1.501867 9.796267 5.9392 23.552 13.312 41.198933a192 192 0 0 1 0-27.9552c0.648533-5.8368 2.491733-12.9024 5.495467-21.230933 2.798933 20.5824 6.2464 37.819733 10.3424 51.643733 4.096 13.824 10.5472 29.934933 19.319466 48.366933-2.116267-13.994667-2.935467-24.8832-2.4576-32.699733 0.477867-7.850667 1.706667-18.261333 3.6864-31.300267l26.180267 49.902934 4.437333-18.602667c24.849067 57.9584 52.736 86.9376 83.626667 86.9376 30.890667 0 59.323733-29.7984 85.2992-89.429333l3.754667 21.0944 25.7024-49.902934c1.9456 14.9504 2.935467 26.282667 2.935466 33.928534 0 7.68-0.989867 17.7152-2.935466 30.071466 6.280533-8.328533 11.639467-20.0704 16.145066-35.191466 4.437333-15.121067 8.942933-36.727467 13.4144-64.8192 3.584 8.192 5.768533 15.223467 6.5536 21.230933 0.8192 6.007467 0.8192 15.325867 0 27.989333 7.543467-14.5408 12.117333-26.4192 13.653334-35.601066 1.604267-9.216 1.604267-23.9616 0-44.305067 3.208533 1.262933 6.314667 5.9392 9.3184 14.062933 3.037867 8.123733 6.656 21.538133 10.922666 40.277334 2.082133-34.474667 2.082133-60.245333 0-77.312a149.367467 149.367467 0 0 0-15.5648-50.005334c3.003733-1.160533 8.669867 2.286933 16.9984 10.376534s19.797333 21.2992 34.338134 39.594666c-13.243733-27.306667-25.156267-47.4112-35.771734-60.2112-10.581333-12.834133-26.897067-26.862933-48.878933-42.120533 33.6896-28.2624 52.4288-55.7056 56.183467-82.397867 3.754667-26.658133-5.4272-69.597867-27.511467-128.785066z m-33.6896 264.635733c3.037867 8.9088 4.676267 15.906133 4.983467 20.923733 0.273067 5.051733-0.682667 11.5712-2.7648 19.524267-23.722667 31.300267-39.0144 54.715733-45.841067 70.2464-14.404267 32.802133-8.157867 57.856-27.579733 90.999467-15.872 27.067733-36.932267 46.353067-58.709334 46.353066-21.845333 0-46.592-16.7936-61.7472-46.353066-11.844267-23.108267-11.332267-54.033067-26.5216-90.999467-6.485333-15.803733-21.4016-39.253333-44.680533-70.2464-3.072-8.362667-4.642133-14.848-4.642133-19.524267 0-4.642133 1.536-11.605333 4.642133-20.923733 8.772267-0.512 21.6064 4.778667 38.5024 15.906133 16.861867 11.1616 39.2192 29.013333 67.003733 53.691734h57.2416c27.682133-26.248533 48.401067-44.1344 62.122667-53.691734 13.755733-9.557333 26.4192-14.848 37.9904-15.906133z m-35.1232 30.208c-2.286933 14.301867-6.007467 23.552-11.229867 27.8528-5.188267 4.3008-15.018667 6.2464-29.525333 5.8368a163.771733 163.771733 0 0 0-9.693867 31.505067c-2.286933 11.195733-4.5056 27.3408-6.656 48.469333 0.785067-22.903467 0-38.126933-2.389333-45.636267-1.1264-3.6864-6.075733-14.336-9.216-13.550933-2.286933 0.580267-2.491733 12.8-5.12 10.717867-0.750933-0.580267-1.262933-6.144-1.536-16.725334h-40.3456c0.887467 10.478933 0.887467 16.042667 0 16.725334-2.048 1.6384-3.413333-9.966933-5.973333-10.717867-3.003733-0.8192-7.168 9.3184-8.430934 13.550933-3.072 10.171733-4.8128 25.3952-5.2224 45.6704a515.072 515.072 0 0 0-6.212266-48.469333c-2.048-10.24-5.393067-20.753067-9.966934-31.5392-14.779733-0.034133-24.439467-1.979733-29.013333-5.802667-3.413333-2.901333-7.304533-12.1856-11.639467-27.886933l-13.243733 2.389333c-14.984533 2.696533-1.774933 25.1904 4.642133 31.300267 4.3008 4.096 12.288 9.0112 23.893334 14.779733 8.6016 19.5584 13.7216 33.6896 15.36 42.427734 2.525867 13.312 4.9152 48.0256 7.7824 58.7776 2.833067 10.752 5.4272 32.904533 29.2864 41.3696 23.893333 8.533333 39.560533 6.621867 57.821866 0 18.261333-6.587733 26.897067-31.8464 29.013334-41.3696 2.082133-9.5232 7.509333-45.533867 9.4208-55.876267 1.399467-7.7824 5.393067-22.903467 11.946666-45.329067 12.731733-5.632 21.504-10.5472 26.4192-14.779733 7.338667-6.3488 17.646933-25.6 3.3792-31.266133-9.5232-3.7888-14.0288-4.608-13.550933-2.389334z m-77.7216 142.506667c12.629333 5.154133 19.5584 11.8784 15.4624 20.992-2.730667 6.075733-13.9264 14.165333-33.4848 24.234666-18.978133-9.898667-29.696-17.988267-32.187733-24.234666-3.6864-9.386667 2.423467-15.9744 14.4384-20.992 13.1072-5.461333 22.801067-5.3248 35.771733 0z m-132.1984-264.533334c-1.194667 2.798933-2.184533 8.635733-3.003733 17.5104-0.785067 8.874667-0.785067 15.872 0 20.992-4.881067-8.192-7.0656-14.609067-6.485334-19.2512 0.546133-4.676267 3.6864-11.093333 9.489067-19.285333z m230.570667 0c5.802667 8.157867 8.942933 14.574933 9.5232 19.2512 0.546133 4.642133-1.6384 11.093333-6.519467 19.2512 0.785067-5.12 0.785067-12.117333 0-20.992-0.8192-8.874667-1.809067-14.711467-3.003733-17.544533z m-277.333334-161.860266l51.541334 84.036266a63.2832 63.2832 0 0 1-15.189334-2.935466 76.765867 76.765867 0 0 1-14.370133-8.123734c11.502933 12.151467 19.3536 20.616533 23.586133 25.326934a235.52 235.52 0 0 1 11.844267 14.301866 971.502933 971.502933 0 0 0-24.3712-14.301866c-5.0176-2.798933-7.953067-4.164267-8.772267-4.130134 2.2528 6.4512 5.188267 12.5952 8.772267 18.432 3.618133 5.802667 9.762133 14.4384 18.466133 25.838934a144.384 144.384 0 0 0-15.1552 12.868266 196.471467 196.471467 0 0 0-14.370133 16.759467c-10.717867-12.151467-18.0224-22.016-21.981867-29.627733a64.238933 64.238933 0 0 1-6.826666-25.838934c5.290667 5.8368 9.0112 9.591467 11.1616 11.264 2.184533 1.706667 4.846933 2.901333 7.9872 3.549867-11.127467-26.4192-18.432-49.7664-21.845334-70.0416a86.8352 86.8352 0 0 1 9.5232-57.378133z m325.051734 0c9.762133 17.988267 12.936533 37.102933 9.5232 57.378133-3.413333 20.2752-10.717867 43.6224-21.845334 70.0416a19.319467 19.319467 0 0 0 7.953067-3.515733c2.184533-1.706667 5.905067-5.461333 11.195733-11.298134a64.238933 64.238933 0 0 1-6.826666 25.838934c-3.959467 7.611733-11.264 17.476267-21.981867 29.627733-5.768533-7.338667-10.581333-12.970667-14.370133-16.759467a144.384 144.384 0 0 0-15.189334-12.868266c8.738133-11.400533 14.882133-20.002133 18.500267-25.838934 3.584-5.8368 6.485333-11.9808 8.772267-18.432-0.8192-0.034133-3.754667 1.365333-8.772267 4.130134-5.051733 2.798933-13.141333 7.5776-24.3712 14.301866a235.52 235.52 0 0 1 11.844267-14.301866c4.232533-4.7104 12.0832-13.175467 23.586133-25.326934-6.109867 4.096-10.922667 6.826667-14.370133 8.123734-3.4816 1.297067-8.533333 2.286933-15.189334 2.935466l51.541334-84.036266z" p-id="49246"></path></svg>