<?xml version="1.0" encoding="utf-8"?>
<!-- Generator: $$$/GeneralStr/196=Adobe Illustrator 27.6.0, SVG Export Plug-In . SVG Version: 6.00 Build 0)  -->
<svg version="1.1" id="ChenYu" xmlns="http://www.w3.org/2000/svg" xmlns:xlink="http://www.w3.org/1999/xlink" x="0px" y="0px"
	 viewBox="0 0 200 200" style="enable-background:new 0 0 200 200;" xml:space="preserve">
<style type="text/css">
	.st0{fill:#FF0000;}
	.st1{fill:#1296DB;}
</style>
<path class="st0" d="M100,0c55.2,0,100,44.8,100,100s-44.8,100-100,100S0,155.2,0,100S44.8,0,100,0z M100,2C45.9,2,2,45.9,2,100
	s43.9,98,98,98s98-43.9,98-98c0-48.4-35.1-88.6-81.2-96.6C111.2,2.5,105.6,2,100,2z"/>
<path class="st0" d="M100,28c39.8,0,72,32.2,72,72s-32.2,72-72,72s-72-32.2-72-72C28,60.2,60.2,28,100,28z M100,29.4
	C61,29.4,29.4,61,29.4,100S61,170.6,100,170.6s70.6-31.6,70.6-70.6c0-34.9-25.3-63.8-58.5-69.5C108.1,29.8,104,29.4,100,29.4z"/>
<path class="st0" d="M109.7,2.9l-1,11.8l-6.2-0.3v-2.1h4.6V5.8H95.3l0.6,16c7.3-0.3,12.7-0.2,16.3,0.3c3.6,0.5,8.7,1.9,15.3,4.1
	l5.2-15.2l-11.1-3.1l-1.9,6.7l4.2,0.8l-0.6,2.3l-5.8-1.4l2.2-12.1l-2.2-1.2l-3,14.7l10.2,2.9l2.2-6.8l-4.3-1.3l0.7-2l6.5,2
	l-3.7,10.3c-6.1-1.7-10.8-2.7-14.1-3.1c-3.3-0.4-7.9-0.6-13.9-0.4L97.8,7.8h6.9v2.1h-5l0.4,7.1h10.7l1.3-14.1L109.7,2.9L109.7,2.9z
	 M161.3,23.4l-7.5,9.2l-5-3.7l1.2-1.7l3.8,2.6l3.7-5.5l-9.8-6.6l-8.4,13.6c6.2,3.8,10.6,6.9,13.3,9.3c2.7,2.4,6.1,6.4,10.4,12
	l12.9-9.7l-7.5-8.8l-5.3,4.5l3,3l-1.8,1.5l-4-4.4L169,30l-1.2-2.2l-10.7,10.5l6.9,8.2l5.6-4.4l-2.9-3.5l1.7-1.3l4.3,5.3l-8.8,6.5
	c-4.1-4.8-7.4-8.3-9.9-10.5c-2.5-2.2-6.3-4.9-11.3-8.1l5.9-9.6l5.7,3.8l-1.2,1.7l-4.1-2.8l-3.6,6.1l8.8,6l9-10.9L161.3,23.4
	L161.3,23.4z M196.5,123.3l-11.6-2.7l1.1-6.1l2.1,0.3l-0.6,4.6l6.6,0.9l1.6-11.7l-15.9-1.6c-0.7,7.2-1.5,12.6-2.5,16.1
	c-1,3.5-3.1,8.3-6.2,14.6l14.4,7.3l4.6-10.5l-6.3-2.8l-1.4,4l-2.2-1l2.2-5.5l11.7,3.9l1.5-2l-14.1-5l-4.3,9.7l6.4,3.1l1.9-4.1l1.9,1
	l-2.9,6.2l-9.7-5.1c2.5-5.8,4.2-10.3,5.1-13.5c0.9-3.2,1.7-7.8,2.4-13.7l11.2,1.1l-1,6.8l-2.1-0.3l0.7-4.9l-7.1-0.5l-1.5,10.6
	l13.7,3.3L196.5,123.3L196.5,123.3z M168.8,171.2l-8.3-8.5l4.3-4.5l1.6,1.4l-3,3.5l5,4.4l7.8-8.9l-12.5-10
	c-4.5,5.7-8.2,9.7-10.9,12.1c-2.7,2.4-7.1,5.3-13.2,8.8l8.1,14l9.6-6.3l-3.8-5.8l-3.4,2.6l-1.3-2l4.9-3.4l7.7,9.6l2.3-0.9l-9.1-11.9
	l-8.9,5.8l3.7,6.1l3.8-2.4l1,1.8l-5.8,3.6l-5.4-9.5c5.2-3.5,9.1-6.3,11.6-8.6c2.5-2.2,5.6-5.6,9.4-10.2l8.8,7.1l-4.5,5.2l-1.6-1.4
	l3.3-3.7l-5.6-4.3l-7,8l9.7,10.2L168.8,171.2L168.8,171.2z M21,157.8l9.6-7l3.8,4.8l-1.6,1.4l-3-3.5l-5,4.4l7.8,8.9l11.6-10.9
	c-5-5.3-8.5-9.4-10.4-12.4c-2-3-4.3-7.8-6.9-14.3l-14.9,6l4.9,10.4l6.2-3l-2.1-3.7l2.1-1l2.7,5.3l-10.6,6.3l0.6,2.4l13-7.4l-4.5-9.6
	l-6.6,2.8l1.9,4.2l-2,0.8l-2.8-6.2l10.2-4c2.7,5.7,5,9.9,6.9,12.7c1.9,2.8,4.8,6.4,8.8,10.8l-8.2,7.8l-4.5-5.2l1.6-1.4l3.3,3.7
	l5.1-5l-7-8.1l-11.5,8.2C19.4,155.9,21,157.8,21,157.8z M109.7,198.6l-0.9-12.3l-6.3,0.5v1.8h4.6v6.9H95.3l0.6-15.8
	c7.4,0.1,12.9-0.2,16.4-0.7c3.6-0.5,8.7-1.8,15.2-3.9l5.4,14.9l-11.4,3.5l-1.7-6.7l4.4-1l-0.7-2.1l-6,1.3l2.3,12.4l-2.3,0.7
	l-2.8-14.8l10.2-2.6l2.1,6.6l-4.3,1.3l0.5,2l6.6-2l-3.7-10.4c-6,1.8-10.5,2.9-13.6,3.4c-3.1,0.4-7.8,0.6-14,0.5L98,193.2h6.5v-2.1
	H100v-7l10.7-0.4l1.4,14.9H109.7L109.7,198.6z M55.1,187.8l5.8-10.7l-5.1-3.1l-1.4,2l3.7,1.9l-3.1,5.9l-10.2-6.6l9.6-12.4
	c5.5,4,9.9,6.7,13.1,8.2c3.2,1.5,8.4,3.1,15.5,5l-3.7,15.3l-11-3.3l2.2-6.5l3.6,1.5l0.9-2.2l-5.8-2l-5.3,12l-1.9-0.9l6.2-14.6l9.3,4
	l-1.9,6.2l-4-1.1l-0.7,2.1l6.6,2l2.5-10.8c-5.9-1.7-10.4-3.2-13.3-4.6c-2.9-1.3-7-3.7-12.4-7.2l-6.4,9.2l5.6,3.5l1.5-1.7l-4-2.3
	l4-5.9l8.9,5.3L57,189L55.1,187.8L55.1,187.8z M1.7,95.4L14.8,96l0.5-6h-2.1v3.8H5.9l1.6-12.3l15.6,3.3c-1,7-1.5,12.3-1.5,15.8
	c0,3.5,0.5,8.6,1.5,15.5l-15.5,3.6l-1.6-11.8h6.5l0.8,3.5h2.6l-0.5-6.2l-13.6,0.4V103l15.1-0.5L18,113l-6.6,0.9l-0.7-4.2H8.4l1,7.2
	l10.9-2.1c-0.9-6.3-1.3-11-1.3-14.3c0-3.2,0.4-7.9,1.3-14.1L9.4,84.2l-1,6.9h2.2l0.7-4.3l6.6,1.4l-0.7,9.8L1.7,97.4L1.7,95.4
	L1.7,95.4z M193.9,67.9l-11.6,4.1l-2.4-5.6l2-0.8l1.5,3.9l6.6-2.4l-4.8-10.9l-14.2,7.3c3.1,6.4,5.1,11.4,6.2,15
	c1,3.5,2,8.7,2.8,15.5l15.7-1.3l-1.7-11.8l-6.5,1.2l0.5,4.4l-2.1,0.4l-1.1-6l12.6-3.3l-0.8-2l-14.6,3.4l2.2,10.4l6.5-1.1l-0.7-4.3
	l2.1-0.4l1,6.8l-11.1,1c-0.9-6.4-1.8-11.2-2.7-14.3c-0.9-3.2-2.5-7.3-4.9-12.4l9.4-4.9l2.9,5.9l-1.9,0.8l-2-4.1l-6.2,2.8l3.9,9.9
	l14.1-4.9L193.9,67.9L193.9,67.9z M14.9,51.3l11,6.5l-2.9,5.4l-1.7-0.8l1.7-3.7l-5.6-3.4l-5.1,10.5L26.9,72c3-6.9,5.5-11.9,7.5-15
	c2-3.1,5.3-7,9.8-11.7L32.5,34l-7.7,9.2l5.1,4.2l2.9-3.3l1.8,1.2l-3.9,4.9l-10.8-7.8l-1.2,2.2l12.6,9l6.5-8.3l-5.1-4.4L30,44.1
	l-1.8-1.7l4.3-4.6l7.8,7.5c-4,4.8-6.8,8.4-8.4,11.1c-1.6,2.6-3.6,6.6-6,12l-10.4-3.7l2.7-6l1.8,0.9l-1.8,3.9l6.1,2.8l5-9.3L16,49.3
	L14.9,51.3L14.9,51.3z M55,12.6L61,24l-5.2,3.1L55,25.4l3.4-2.3L55,17.2l-10,6.3l9.4,13.1c5.8-4.1,10.4-6.9,13.8-8.4
	c3.4-1.5,8.4-3.1,15-4.7l-4-15.8l-11,3.5l2.1,6.3l4-1.2l0.8,2.1l-5.5,2.1L64.1,8.5l-2.2,1.1l6.3,13.8l9.8-3.6l-2-6.3l-4.4,1.1
	l-0.4-2l6.8-1.5l1.9,10.2c-5.6,1.7-9.8,3.2-12.7,4.5c-2.9,1.3-6.9,3.7-12.2,7.1L48.3,24l5.5-3.6l1.2,1.7l-4,2.6l4,5.5l9.1-4.9
	l-7.2-14.2L55,12.6L55,12.6z"/>
<path class="st1" d="M133.6,43.3c5.2,14.1,8,24.2,8.4,30.4c0.4,6.2-1.4,11.3-5.3,15.4c3,2.5,5.2,4.9,6.6,7.2
	c1.4,2.3,2.8,5.5,4.2,9.8c-2.1-2.1-3.7-3.6-4.8-4.4c-1.1-0.8-2-1.1-2.8-1.1c3.6,5.3,5.7,9.6,6.1,12.9c0.4,3-0.3,6.5-2,10.7l-0.7,1.6
	l-1.9-7c-0.7,6.1-1.6,10.6-2.7,13.6c-1.1,3-3.1,6.1-5.8,9.2c0.7-3.5,1.1-6.1,1.1-7.8c0-1.7-0.4-2.9-1.1-3.6c-2,5.1-3.9,8.9-5.8,11.4
	c-1.9,2.5-5.3,5.8-10.3,10c1-2.1,1.7-3.6,1.9-4.8c0.3-1.1,0.3-2.3,0-3.5c-1.8,2.5-3.2,4.3-4.2,5.4c-3.9,4.4-7.5,7.9-9.7,10.6
	c-3.1,3.7-4.8,6-5.3,7c-0.6-1.4-2.5-3.9-5.4-7.5c-2.5-3-6.2-6.6-11-12c-0.9-1.1-1.8-2.3-2.6-3.5c0.1,1.8,0.2,3.1,0.5,4
	c0.3,0.9,1,2.3,2.1,4.2c-5.2-3.8-8.9-7.2-11.1-10s-4.2-6.6-5.8-11.4c-0.5,0.4-0.8,1.5-1,3c-0.1,1.6-0.1,4.1,0,7.6
	c-2.9-4.6-4.8-8.1-5.6-10.7c-0.8-2.5-1.3-6.3-1.6-11.4l-2.5,7l-0.6-1.5c-1.6-4.5-2.3-8.1-1.9-10.7c0.4-2.9,2.3-7.2,5.8-12.9
	c-0.9,0.4-1.8,0.9-2.6,1.5c-1,0.8-2.6,2.1-4.7,3.9c0.6-2.8,1.7-5.5,3.2-7.9c1.4-2.2,3.9-5.2,7.5-9c-3.8-4.1-5.5-9.7-5-16.8
	c0.5-7,3.4-16.7,8.8-29c4.7,5.3,8.1,9.3,10.3,12.1c2.2,2.8,5,6.6,8.2,11.3c5.8-2.9,10.3-4.9,13.5-5.9c3.2-1,7.8-2,13.7-2.9
	c-2,1.5-3.3,2.7-3.9,3.5c-0.6,0.8-1.1,2-1.4,3.6c1.8-1.2,3.7-2.3,5.7-3.2c1.4-0.6,3.4-1.2,6-1.7c-0.7,1.2-1.2,2.1-1.4,2.7
	c-0.2,0.6-0.2,1,0,1.1c3.8-5.3,7.7-10.4,11.7-15.5C131.3,44.9,133,43.2,133.6,43.3L133.6,43.3z M131.6,52.1
	c-5.6,6.8-9.6,12-12.1,15.7c-2.5,3.7-5.8,9.3-9.9,16.8l7.8-3.7c2.3,2.5,3.5,4.7,3.7,6.6c0.2,1.9-0.5,5.2-2.2,9.8l5.4,2
	c-2.5,0.7-4.8,1.8-6.9,3.4c-2.2,1.6-5.2,4.3-9,8.2c1.2-5.2,2.2-9.1,3.1-11.6c0.8-2.6,2.2-6,4.1-10.4c-2.9,2.9-5.4,5.7-7.6,8.5
	c-2.1,2.8-5,6.9-8.6,12.5c-3.2-5.5-5.8-9.5-7.8-12c-1.9-2.5-4.8-5.5-8.6-9c2.7,6,4.5,10.4,5.4,13.2c0.9,2.8,1.5,5.7,1.7,8.8
	c-3.3-3.7-6-6.3-8-7.8c-2-1.5-4.6-2.7-7.9-3.8l5.8-2c-1.7-4.5-2.4-7.7-2.1-9.8c0.3-2,1.4-4.2,3.3-6.6l8,3.7
	C86.3,78.2,83.4,73,80.8,69c-2.7-4-7-9.6-13.1-17c-4.3,11.3-6,19.7-5.3,25.2C63,82.7,66.4,88,72.4,93.3c-3.6,3.3-6.7,6.3-9.1,8.9
	c-2.2,2.3-4.1,5.4-5.8,9.4l-0.7,1.7l0.8-1.1c1.8-2.5,3.3-4.3,4.3-5.4l0.4-0.4c1.2-1.1,2.4-1.6,3.6-1.6c-1.5,4.4-2.3,8.2-2.6,11.4
	c-0.3,3.2-0.2,8.1,0.2,14.6c0.5-4.5,1-7.5,1.5-9c0.5-1.5,1.4-2.8,2.6-4.1c-0.4,3.1-0.5,5.6-0.2,7.6c0.3,1.9,1.2,4.6,2.6,8
	c-0.1-1.8-0.1-3.6,0-5.5c0.1-1.1,0.5-2.5,1.1-4.1c0.5,4,1.2,7.4,2,10.1c0.8,2.7,2.1,5.8,3.8,9.4c-0.4-2.7-0.6-4.9-0.5-6.4
	c0.1-1.5,0.3-3.6,0.7-6.1l5.1,9.7l0.9-3.6c4.9,11.3,10.3,17,16.3,17s11.6-5.8,16.7-17.5l0.7,4.1l5-9.7c0.4,2.9,0.6,5.1,0.6,6.6
	c0,1.5-0.2,3.5-0.6,5.9c1.2-1.6,2.3-3.9,3.2-6.9c0.9-3,1.7-7.2,2.6-12.7c0.7,1.6,1.1,3,1.3,4.1c0.2,1.2,0.2,3,0,5.5
	c1.5-2.8,2.4-5.2,2.7-7c0.3-1.8,0.3-4.7,0-8.7c0.6,0.2,1.2,1.2,1.8,2.7c0.6,1.6,1.3,4.2,2.1,7.9c0.4-6.7,0.4-11.8,0-15.1
	c-0.4-3.4-1.5-6.7-3-9.8c0.6-0.2,1.7,0.4,3.3,2c1.6,1.6,3.9,4.2,6.7,7.7c-2.6-5.3-4.9-9.3-7-11.8c-2.1-2.5-5.3-5.2-9.5-8.2
	c6.6-5.5,10.2-10.9,11-16.1C137.7,72,135.9,63.6,131.6,52.1L131.6,52.1z M125,103.8c0.6,1.7,0.9,3.1,1,4.1c0.1,1-0.1,2.3-0.5,3.8
	c-4.6,6.1-7.6,10.7-9,13.7c-2.8,6.4-1.6,11.3-5.4,17.8c-3.1,5.3-7.2,9.1-11.5,9.1c-4.3,0-9.1-3.3-12.1-9.1
	c-2.3-4.5-2.2-10.6-5.2-17.8c-1.3-3.1-4.2-7.7-8.7-13.7c-0.6-1.6-0.9-2.9-0.9-3.8c0-0.9,0.3-2.3,0.9-4.1c1.7-0.1,4.2,0.9,7.5,3.1
	c3.3,2.2,7.7,5.7,13.1,10.5h11.2c5.4-5.1,9.5-8.6,12.1-10.5C120.3,105,122.8,104,125,103.8L125,103.8z M118.2,109.7
	c-0.4,2.8-1.2,4.6-2.2,5.4c-1,0.8-2.9,1.2-5.8,1.1c-0.8,2-1.5,4-1.9,6.2c-0.4,2.2-0.9,5.3-1.3,9.5c0.2-4.5,0-7.4-0.5-8.9
	c-0.2-0.7-1.2-2.8-1.8-2.6c-0.4,0.1-0.5,2.5-1,2.1c-0.1-0.1-0.2-1.2-0.3-3.3h-7.9c0.2,2,0.2,3.1,0,3.3c-0.4,0.3-0.7-1.9-1.2-2.1
	c-0.6-0.2-1.4,1.8-1.6,2.6c-0.6,2-0.9,5-1,8.9c-0.3-3.2-0.7-6.3-1.2-9.5c-0.4-2-1.1-4.1-1.9-6.2c-2.9,0-4.8-0.4-5.7-1.1
	c-0.7-0.6-1.4-2.4-2.3-5.4l-2.6,0.5c-2.9,0.5-0.3,4.9,0.9,6.1c0.8,0.8,2.4,1.8,4.7,2.9c1.7,3.8,2.7,6.6,3,8.3
	c0.5,2.6,1,9.4,1.5,11.5c0.6,2.1,1.1,6.4,5.7,8.1c4.7,1.7,7.7,1.3,11.3,0c3.6-1.3,5.3-6.2,5.7-8.1c0.4-1.9,1.5-8.9,1.8-10.9
	c0.3-1.5,1.1-4.5,2.3-8.9c2.5-1.1,4.2-2.1,5.2-2.9c1.4-1.2,3.4-5,0.7-6.1C119,109.4,118.1,109.2,118.2,109.7L118.2,109.7z
	 M103,137.5c2.5,1,3.8,2.3,3,4.1c-0.5,1.2-2.7,2.8-6.5,4.7c-3.7-1.9-5.8-3.5-6.3-4.7c-0.7-1.8,0.5-3.1,2.8-4.1
	C98.6,136.4,100.5,136.5,103,137.5z M77.2,85.8c-0.2,0.5-0.4,1.7-0.6,3.4c-0.2,1.7-0.2,3.1,0,4.1c-1-1.6-1.4-2.9-1.3-3.8
	C75.4,88.7,76,87.4,77.2,85.8L77.2,85.8z M122.2,85.8c1.1,1.6,1.7,2.8,1.9,3.8c0.1,0.9-0.3,2.2-1.3,3.8c0.2-1,0.2-2.4,0-4.1
	C122.6,87.5,122.4,86.4,122.2,85.8L122.2,85.8z M68,54.2l10.1,16.4c-1-0.1-2-0.3-3-0.6c-1-0.4-1.9-1-2.8-1.6c2.2,2.4,3.8,4,4.6,4.9
	c0.8,0.9,1.6,1.8,2.3,2.8c-1.6-1-3.2-1.9-4.8-2.8c-1-0.5-1.6-0.8-1.7-0.8c0.4,1.3,1,2.5,1.7,3.6c0.7,1.1,1.9,2.8,3.6,5
	c-1,0.8-2,1.6-3,2.5c-1,1-1.9,2.1-2.8,3.3c-2.1-2.4-3.5-4.3-4.3-5.8c-0.8-1.6-1.2-3.3-1.3-5c1,1.1,1.8,1.9,2.2,2.2
	c0.4,0.3,0.9,0.6,1.6,0.7c-2.2-5.2-3.6-9.7-4.3-13.7C65.5,61.6,66.2,57.6,68,54.2L68,54.2z M131.5,54.2c1.9,3.5,2.5,7.2,1.9,11.2
	c-0.7,4-2.1,8.5-4.3,13.7c0.6-0.1,1.1-0.3,1.6-0.7c0.4-0.3,1.2-1.1,2.2-2.2c-0.1,1.8-0.5,3.5-1.3,5c-0.8,1.5-2.2,3.4-4.3,5.8
	c-1.1-1.4-2.1-2.5-2.8-3.3c-0.9-0.9-1.9-1.7-3-2.5c1.7-2.2,2.9-3.9,3.6-5c0.7-1.1,1.3-2.3,1.7-3.6c-0.2,0-0.7,0.3-1.7,0.8
	c-1,0.5-2.6,1.5-4.8,2.8c0.7-1,1.5-1.9,2.3-2.8c0.8-0.9,2.4-2.6,4.6-4.9c-1.2,0.8-2.1,1.3-2.8,1.6c-0.7,0.3-1.7,0.4-3,0.6
	L131.5,54.2L131.5,54.2z"/>
</svg>
