<?xml version="1.0" standalone="no"?><!DOCTYPE svg PUBLIC "-//W3C//DTD SVG 1.1//EN" "http://www.w3.org/Graphics/SVG/1.1/DTD/svg11.dtd"><svg t="1731906376071" class="icon" viewBox="0 0 1024 1024" version="1.1" xmlns="http://www.w3.org/2000/svg" p-id="26688" xmlns:xlink="http://www.w3.org/1999/xlink" width="200" height="200"><path d="M841.66679 896.179846c-0.620124-0.921999-1.24127-1.853208-1.859347-2.783393 14.554484-13.31526 29.112038-26.635637 43.666522-39.950897 39.993876-49.728588 83.267449-94.177939 101.270475-166.307723-2.480494-2.163269-4.956895-4.332678-7.432273-6.503111-9.912767 21.057595-19.824511 42.12133-29.734208 63.177901-28.991288 49.463552-76.284407 115.877147-125.421524 144.004765-9.719362-8.264221 1.054005-24.00574-4.646833-37.161365-4.02671-4.641717-8.052396-9.29162-12.079106-13.933337-14.832823-28.27088-15.570627-65.802682-14.863523-105.913215-28.236088-11.227716-29.642111-39.361473-39.950897-67.827805l0-2.78237c4.007267 3.091408 5.877871 7.515161 8.361435 12.07399l3.716648 0c0.310062-2.78237 0.6191-5.571902 0.930185-8.361435l1.855254 0c1.240247 6.192026 2.480494 12.391215 3.716648 18.584264 1.239224 0.930185 2.480494 1.859347 3.715625 2.790556l0-5.581112c0.620124-0.309038 1.240247-0.618077 1.859347-0.929162 5.429663 7.061836 9.674337 15.386432 14.864546 22.305005 4.563946-1.172709 4.443196-2.352581 7.433296-4.649903 4.14746 5.027503 7.283894 8.558933 13.008268 12.082176 1.874697-2.359744 2.045589-5.489014 1.855254-10.221806 0.620124-0.310062 1.240247-0.620124 1.860371-0.930185 4.947685 6.699586 12.772908 11.877515 20.436448 15.794731 1.655709-2.984984 1.24741-2.532683 0.930185-6.502088 4.02671 2.170432 8.052396 4.331655 12.079106 6.502088 8.206916 1.672082 12.021801-5.956665 16.723893-7.432273 8.989745-2.820232 21.317515 4.02978 30.659277 0l1.856277 0c-0.617054-3.719718-1.236154-7.432273-1.856277-11.150968 16.842597-0.1361 19.605523-8.287757 28.79993-14.865569 4.335748-1.541099 8.67252-3.091408 13.009292-4.641717 4.827959-4.703115 1.045819-8.860808 8.361435-12.082176-9.022491-6.268774-43.799552 5.172813-61.318554 1.859347-15.256472-2.879584-29.872355-8.119935-41.806151-14.863523-24.331151-13.746072-43.070958-45.924959-59.462277-67.820642-5.9055-7.885598-3.172249-13.124925-13.938454-17.655102l0-0.930185c2.479471-1.549286 4.956895-3.091408 7.437389-4.641717 0.304945-0.6191 0.61603-1.239224 0.925069-1.859347-5.882987-1.549286-11.769045-3.099594-17.651009-4.64274-7.122211-7.122211-14.248516-14.252609-21.370727-21.373797-6.192026-2.472308-12.387122-4.951779-18.580171-7.432273-15.791661-10.524704-31.589462-21.057595-47.384194-31.585369-28.178783-5.265934-56.365752-10.529821-84.544535-15.794731-19.035542-7.765871-31.775704-24.794709-47.384194-36.233226-9.444093-6.919597-20.388353-6.385431-31.587416-13.008268-5.26491-6.192026-10.530844-12.388145-15.794731-18.581194 0.6191-2.168386 1.237177-4.335748 1.857301-6.503111-9.723455 0.569982-17.581424-1.102101-18.580171-6.502088-2.469238-1.481747-4.583388-1.927909-9.290597-1.857301-3.342118-15.309684-10.772344-14.630209-18.583241-25.085328-4.02671-8.670473-8.052396-17.344017-12.079106-26.01449 3.406586-0.928139 6.814196-1.858324 10.220782-2.786463 0.6191-0.930185 1.237177-1.859347 1.857301-2.788509-1.153266-20.119223-19.62599-24.108071-26.942629-38.09155-4.334725-11.768021-8.673543-23.538089-13.006222-35.305087-8.670473-7.742335-17.34504-15.485693-26.01449-23.227004-2.786463-6.502088-5.573949-13.008268-8.360412-19.510356-7.847735-12.68695-19.044752-22.326495-25.085328-38.09155-1.859347-0.930185-3.717671-1.857301-5.575995-2.787486-15.556301 9.813506-20.1182 14.620999-17.653055 36.233226-0.308015 0.310062-0.618077 0.6191-0.928139 0.930185-3.406586-2.168386-6.814196-4.335748-10.219759-6.504134-1.548262 0.620124-3.096525 1.240247-4.646833 1.858324-1.238201 1.548262-2.476401 3.097548-3.716648 4.646833 4.379751 24.557302 21.209044 108.021226-2.786463 126.354779 1.238201 3.096525 2.478448 6.193049 3.715625 9.290597-1.548262 0.310062-3.095501 0.6191-4.64581 0.928139-0.618077 0.930185-1.237177 1.857301-1.858324 2.787486 2.168386 0.310062 4.336772 0.620124 6.504134 0.928139 0.310062 0.930185 0.620124 1.859347 0.928139 2.787486l0 0.930185c-9.67229 7.318686-4.806469 11.809977-10.218736 18.580171l0 0.928139 5.573949 0c-1.237177 3.097548-2.477424 6.196119-3.715625 9.29162 2.475378 0.310062 4.953825 0.618077 7.432273 0.928139-4.643764 6.194072-9.290597 12.388145-13.936407 18.582217-0.310062 0.928139-0.620124 1.858324-0.928139 2.786463l6.502088 0c0.930185 0.620124 1.857301 1.240247 2.787486 1.858324-1.857301 3.716648-3.715625 7.43432-5.573949 11.148921 3.096525-0.618077 6.194072-1.238201 9.290597-1.858324-1.548262 4.955872-3.098571 9.912767-4.646833 14.865569 4.056386 4.65809 6.349615 26.024723 7.432273 34.375925-4.527107 4.846378-8.921183 10.615779-10.218736 18.581194 4.024663-1.546216 8.052396-3.096525 12.07706-4.646833-0.618077 3.719718-1.238201 7.432273-1.858324 11.151991l0 2.786463 7.43432 0c-0.930185 6.192026-1.858324 12.388145-2.788509 18.580171 4.037966 2.314719 5.676279-1.957585 11.148921-3.710508 3.403516 18.877953 9.266038 12.459776 12.078083 21.366633 5.453199 17.268292-5.624091 9.465582 10.219759 23.225981 5.561669-1.240247 4.770653 7.001461 6.504134 12.075013 1.880837 2.894933 0.437975 1.988284 4.644787 2.790556 0.6191-2.170432 1.240247-4.339842 1.858324-6.502088l1.857301 0 0 10.214642c14.650675 3.750417 9.120728 19.748786 14.866592 34.378995 5.881964 11.764951 11.768021 23.537066 17.651009 35.302017 10.885931 31.090089 2.139733 65.075111-1.857301 94.76634-13.791098 5.981225-29.338189-8.626471-46.454008-2.78237-29.630854 10.109242-49.921993 31.686676-74.324776 45.5228-11.148921 2.78237-22.298865 5.571902-33.447786 8.363482-20.168342 8.217149-31.643698 41.689495-49.241494 48.306192-15.792685-19.197224-31.589462-38.402635-47.382147-57.599859-36.025495-50.921763-61.654198-111.748107-77.114308-183.031617-21.603017-99.602486 1.710968-209.022571 32.518624-280.57828C170.362574 147.481959 344.87619 14.31196 602.891592 41.432645c0.929162-4.333702 1.859347-8.670473 2.786463-13.006222-71.847351-24.153096-199.989847 6.335289-250.849188 26.942629C211.316312 113.51638 117.649002 212.792431 64.957943 361.963868c-19.280112 54.577013-33.991162 140.583852-20.440541 213.688847C60.192406 660.2126 84.477508 727.323067 124.417149 786.5551c15.482623 19.507286 30.971385 39.020712 46.454008 58.527998 5.26491 4.952802 10.530844 9.912767 15.794731 14.864546 3.203972 6.653537 8.511861 40.381709 4.644787 49.242518-11.456936 13.624299-22.916942 27.249621-34.374902 40.873919l0 0.929162c52.953026 0.311085 105.919355 0.620124 158.871357 0.930185 22.623253 5.459339 46.555315 21.298072 70.610174 28.806069 36.227086 11.296277 75.751265 14.486946 117.992321 21.367657 62.308091 10.146081 157.712975-14.630209 198.822255-30.659277 14.244422-6.502088 28.491914-13.011338 42.73736-19.514449l140.29221 0c0.309038-0.6191 0.6191-1.239224 0.929162-1.859347C876.789729 932.683225 861.474928 903.687844 841.66679 896.179846zM507.196089 754.035452l0-26.015513c0.002047-30.689976-3.477194-68.63724 8.362458-88.266299 2.788509-3.931542 23.920806-5.02034 27.870768-4.641717 0.310062-0.6191 0.620124-1.240247 0.930185-1.860371-0.930185-2.471284-1.855254-4.951779-2.787486-7.432273 29.776164 1.700735 35.363416 38.878472 43.668569 63.178925 13.099343 38.324864 25.317619 48.539506 50.169633 73.40073 6.233981 6.229888 11.727089 16.036231 21.366633 18.576077 6.101975 10.350742 4.015454 34.621519 2.786463 49.243541-0.61603 0.620124-1.236154 1.240247-1.856277 1.859347-9.169847-2.607384-17.505699-7.258311-28.801976-9.29162-14.243399-1.240247-28.492938-2.480494-42.736337-3.719718-12.737092-4.098341-19.303648-15.84078-34.376948-20.438495-20.74651-6.192026-41.500183-12.391215-62.245669-18.583241C494.189867 770.397095 503.866251 762.216785 507.196089 754.035452zM434.729637 675.062819c3.096525-9.912767 6.194072-19.824511 9.290597-29.729092 4.047176 0.022513 6.076392 0.506537 10.219759-2.789533 4.997827 1.843998 3.043313 2.410909 8.360412 2.789533 1.338485 43.664475 13.32447 95.886861-6.502088 125.426641-12.050454-2.419096-29.893844-8.045233-35.305087-17.655102C430.234253 731.459271 428.635849 701.926654 434.729637 675.062819zM656.776849 970.509738c-68.209498 20.769023-169.84734 22.11467-240.630453 2.78237-15.652492-4.272303-55.095829-11.356652-63.175855-21.367657l356.766496 0C699.231777 962.987415 672.847873 965.617311 656.776849 970.509738zM782.204513 873.882004l0 1.859347c-30.78412-4.678556-57.621349-20.700461-92.908016-25.086351-12.172227-26.924209 8.014534-61.409628 9.28855-81.755002-12.354376-6.880711-23.600511-27.363208-17.651009-48.315402 12.951987 4.000104 58.925041 29.193903 65.035202 39.021735 10.030447 16.136515 10.819416 38.024012 19.510356 55.747675C772.133134 828.909743 790.464641 854.450443 782.204513 873.882004zM623.333156 31.212886 623.333156 44.220131c0.6191 0.310062 1.238201 0.620124 1.855254 0.928139C627.407961 40.880059 626.640482 33.29429 623.333156 31.212886zM714.378755 58.156538c-10.203386-5.831822-25.789363-12.590759-39.021735-13.936407-2.476401 3.096525-4.951779 6.194072-7.432273 9.290597l0 0.930185c9.293667 7.807826 33.709753 15.350616 46.454008 17.651009L714.378755 58.156538zM751.545236 79.526241c0.310062-0.931209 0.620124-1.858324 0.930185-2.788509-2.0241-2.439562-1.837858-2.65548-5.575995-3.715625 0.6191 1.548262 1.240247 3.097548 1.859347 4.64581C749.684866 78.285994 750.616074 78.905094 751.545236 79.526241zM836.089771 129.694851c-2.165316-1.858324-4.334725-3.715625-6.502088-5.573949C831.324234 127.744429 832.090691 128.326691 836.089771 129.694851zM849.099063 142.701073c0.61603-0.618077 1.236154-1.237177 1.855254-1.858324-1.855254-1.237177-3.715625-2.477424-5.571902-3.715625 0.926092 1.858324 1.856277 3.715625 2.786463 5.573949L849.099063 142.701073zM980.096583 352.673272l0.930185 0c-0.744967-4.953825-1.924839-8.293897-4.64581-11.148921 0.533143 4.5312 1.36816 6.774287 3.715625 9.290597L980.096583 352.673272z" fill="#d81e06" p-id="26689"></path></svg>