<?xml version="1.0" standalone="no"?><!DOCTYPE svg PUBLIC "-//W3C//DTD SVG 1.1//EN" "http://www.w3.org/Graphics/SVG/1.1/DTD/svg11.dtd"><svg t="1731548960399" class="icon" viewBox="0 0 1050 1024" version="1.1" xmlns="http://www.w3.org/2000/svg" p-id="11117" xmlns:xlink="http://www.w3.org/1999/xlink" width="205.078125" height="200"><path d="M1049.566006 702.660745c0-60.404231-24.698567-116.623655-66.194973-159.702551-45.716379 180.192866-229.554833 315.185128-450.1305 318.842438 53.019277 56.758643 134.417876 93.003526 225.33486 93.003526a313.790192 313.790192 0 0 0 63.557489-6.306516c56.266313 77.741289 125.028435 74.072256 125.028435 74.072256-24.686845-15.238793-27.840103-71.434773-26.796831-110.832914 78.280507-45.17716 129.236687-122.402674 129.236686-209.076239z m0 0" fill="#6B76FF" p-id="11118"></path><path d="M470.140208 0.32822C210.647008 0.32822 0 182.607629 0 407.438436c0 140.783003 82.477036 264.756445 207.482028 337.773707 1.58249 63.029992-3.680755 153.911809-43.078896 179.126151 0 0 111.36041 5.779019 202.253949-119.765191a552.464856 552.464856 0 0 0 102.95563 9.975548h8.404781c220.622556-3.680755 404.484454-138.684738 450.189111-318.842437a350.562572 350.562572 0 0 0 11.030542-88.256056C939.764641 182.607629 729.64513 0.32822 470.140208 0.32822z m-207.482028 460.680434a62.514218 62.514218 0 1 1 62.514218-62.514217 62.326663 62.326663 0 0 1-62.514218 62.514217z m207.482028 0a62.514218 62.514218 0 1 1 62.514218-62.514217 62.326663 62.326663 0 0 1-62.514218 62.514217z m207.482027 0a62.514218 62.514218 0 1 1 62.502496-62.514217 62.326663 62.326663 0 0 1-62.432163 62.525939z" fill="#FF62A5" p-id="11119"></path></svg>