<?xml version="1.0" standalone="no"?><!DOCTYPE svg PUBLIC "-//W3C//DTD SVG 1.1//EN" "http://www.w3.org/Graphics/SVG/1.1/DTD/svg11.dtd"><svg t="1731894235224" class="icon" viewBox="0 0 1024 1024" version="1.1" xmlns="http://www.w3.org/2000/svg" p-id="18015" xmlns:xlink="http://www.w3.org/1999/xlink" width="200" height="200"><path d="M897.72038518 848.51989534l-7.38573033-7.38573033c-36.33326774 25.00683132-83.70659365 27.16067857-110.67140365 29.91839502 175.5357229-137.78753449 145.09619018-234.50984266 141.1979105-252.46823358-3.89474415-17.96051224-34.69348711-48.7592552-34.69348711-48.7592552l41.79778894 27.74616298s14.12799349-26.04557118-6.42052958-104.84130823c-21.55049337-77.79376675-88.2893527-112.3875518-125.09991751-139.15720032-119.54276532-57.28625588-128.2267437-114.16946089-152.909013-166.97619531-55.50222547-79.60042457-118.37391781-90.2494527-118.37391781-90.2494527 49.02583446-15.24734352 118.52453156 62.28125818 118.52453155 62.28125818s10.9905607-1.05853885 14.05869702-14.05869702c3.06813632-13.00015817-9.83797665-27.91162597-13.75817664-41.87698491 19.92485488 9.88393859 33.64696908 57.75223925 41.49726856 83.6804307 4.12738228-23.99708283 52.03740224-18.26456816 69.92296117-0.37900923 17.87919496 17.87919496 20.7090363 48.82784456 41.65071073 55.7037509 20.93531047 6.8822703 48.7486486 34.69560843 48.7486486 34.69560843s-16.91116578-12.89197083-41.87415647-13.75534821c-24.96864755-0.86337738-50.73066891-38.68156936-69.6139555-55.55667269-20.90844041-12.87005052-14.2121392 42.02406311-14.2121392 42.02406311-2.21677976 39.96638238 76.56835069 62.51106788 76.56835069 62.51106788 94.7650366 22.45912558 125.47539121 69.23918891 125.47539122 69.23918891l3.86504567 7.78665987C877.90796027 163.24645024 711.08591424 82.52738274 651.24346735 53.70995298c40.11275348 17.26189074 97.43648602 83.37071793 97.43648602 83.37071793C579.06554266-13.19295512 287.59117771 69.66511039 287.59117771 69.66511039l-7.71099945-2.53497781c192.97934008-103.07495549 436.88309633-74.431474 598.04970232 86.73513199 189.60361231 189.60361231 195.7236215 493.66730639 19.7905046 694.65321656z m-512.3221975-765.39571448c239.716977 61.62506309 194.18142161 292.60078605 194.18142161 292.60078606-19.97788789 31.57019646-56.08276014 28.27083622-56.08276013 28.27083621l-7.02652009 7.02652009-13.98727924 0.07848885-6.95439519-6.95439519c65.88679566-116.88616514-40.81986026-209.52846719-40.81986027-209.52846719 57.9035601 67.26848231 42.20437534 168.73547698 40.97047401 181.56027267-11.73019439 14.04667621-20.86247847-20.86247847-20.86247847-20.86247847 1.63907352-87.40829765-25.00400289-116.39331172-82.99807265-167.35166901-57.98417027-50.96118572-187.45542191-28.11739405-238.10406643 71.20706708-50.64510899 99.32799666 13.14157953 156.0789727 27.05885519 167.65572493 13.92293252 11.57533801-14.0558686 14.0558686-14.05586859 14.05586859C28.59069168 340.25507656 98.01019282 217.52538097 98.01019282 217.52538097c91.80579472-168.30060631 287.38870197-134.40049301 287.38870197-134.400493zM320.91853452 370.13599492c43.40150712-52.67591966 126.02269186-30.98612626 160.70274395 20.10163157 0 0-81.30808745-48.50257544-160.92618969 21.84677111-79.6237591 70.34934655-153.9512884 24.14062551-139.69035884-27.21229736 0 0 2.45861028-23.31826032 28.1958829-42.10467329 0 0 23.29421869 2.20546605 13.90879039 13.90879039-9.38542831 11.70898119-42.28215709 60.82532532 6.64821795 62.89573397-0.00070711-0.00070711 47.76435596 3.23501352 91.16091334-49.43595639z m264.70613064 180.34687743c-36.00375598-21.94647317-104.76423359-20.40498038-104.76423359-20.40498038s44.40630586-23.54665581 83.98095108-14.43841337c39.57110969 9.10612113 40.66358967 21.91536047 118.90283368-7.64099587 78.23429427-29.55706345 83.74972716 27.51352486 83.74972717 27.51352485-18.5191266-23.2015877-41.78647523-30.06830166-69.84093678-13.60473447-28.05799708 16.46710272-76.02105005 50.52277952-112.02834156 28.57559924z m-243.99355881-131.5225684c57.37464423-50.4167135 101.53911956-29.68010003 118.97849411-21.61837563 24.28699661 33.66323253 55.72142857 39.32079389 90.77907568 20.48276213 38.6023734-27.01006483 77.02726299-21.39210145 77.02726299-21.39210145l28.11810116-28.11810115 6.95368808 6.95368809 13.9830366-0.07424622s20.82783024 27.84940058 34.76844043 34.76844043c13.94555994 6.91409011-7.10430183 21.01309222-7.10430183 21.01309222l-20.85965004-20.85965004-56.23620231 56.2362023 13.90525485 13.90525486-7.03288404 7.03288404 6.95439519 6.95439519-7.02934851 7.02934852-20.85965005-20.85965005c-12.73852866-15.07905211-66.42066128-0.80680884-111.87489938 0.6045763-45.45070257 1.4078496-86.53289945 56.40449372-105.29527079 77.47769001-18.75671448 21.07319629 24.3166951 28.9991562 69.84376521 13.60897711 45.53201985-15.39937148 92.12116435-10.98773227 111.87277806-0.61094025 19.75302793 10.38810572 45.25836953 33.55292387 90.78261121 20.48629766 45.51434218-13.06238357 49.20968222-49.20968222 49.20968222-49.20968222l14.0558686-14.0558686 6.95085966 6.95085966-7.02864141 7.0286414c1.85403398 88.55663906-83.30919964 106.49523099-133.25922266 77.6325464-49.95002302-28.86127038-96.56179493-28.60883326-125.85440045 0.68377226s-66.73249537 57.45808283-98.1124801 42.47731856c-31.38210606-14.97722873-47.68657422-17.22158566-76.80028172-20.5527657-67.66163368 14.34578238-35.22664563 49.12836494-35.22664562 49.12836494l-7.02652009 7.02652009c-68.69966643-10.11162697-20.6362043-62.80805273-20.6362043-62.80805274-12.74913526-12.74913526-42.10184486 28.19446869-42.10184486 28.19446869-19.33724915-87.29162503 56.4645978-98.19096896 56.4645978-98.19096895-239.51262314-98.91575341-180.34829165-264.70895907-180.34829165-264.70895908C106.798823 530.93561249 284.25929056 469.37984587 341.62898503 418.95959684z m75.11312494 19.83151678c13.4413928-2.53780624 23.56150506-8.94277946 22.60903222-14.31325546-0.95530126-5.36057651-12.62892711-7.65655223-26.07173412-5.12298863s-23.56291927 8.94277946-22.60691091 14.30406307c0.95742258 5.36694047 12.63034133 7.66362329 26.07031992 5.13147391zM195.89003479 863.72410535c96.06611308 96.06611308 221.52029109 144.9731536 348.06836329 147.02376326 9.58766085-4.96601092 41.27594414-21.82767923 39.321501-26.76328456-21.47554005-14.4525555-91.73296272-60.09700533-76.41632274-90.48209082 8.56518444 10.73741647 94.12298364 106.04056133 242.42307465 55.38908838-54.00103777 6.36891078-149.07013029 5.06076323-235.39372614-62.4184369 0 0-68.36944757-70.70997101-83.44849967-83.44849967s-56.9341167-31.15158925-69.84800785-13.60473447c0 0-14.00778534 4.74044386 6.8822703 20.93531047 20.88722721 16.2047661 42.89663288 40.55610943 55.63162601 55.63162601 12.7321647 15.08541607 23.07996534 41.82819453-0.30617723 55.94133878 0 0 11.88080814-42.01487072-27.66131018-55.78436107-39.54282542-13.77302588-48.68005924-48.68005924-48.68005924-48.68005925s-43.12502837 1.39865721-62.88583448-6.65104638c-19.76787717-8.0497036-30.1977022-18.47952862-48.90916184-6.7259997 5.90717005-15.18158259 22.29790524-29.25583596 62.96573755-7.33057601 18.60822205 6.89004848 27.96748741-0.15556349 27.9674874-0.15556349s-38.17245248-52.2311495-76.64754665-48.52449575c-38.46943732 3.70241111-48.89996945-6.72812102-48.89996945-6.72812102s51.45686757-35.23725223 118.74939151 20.33002706c0 0 22.09072295 8.03768278 41.94557426-0.22627417 19.85909395-8.26537117 51.35362998-14.26022246 76.87664925 6.57609307-10.24385594-45.3913056-6.50255396-90.85756453 0.53033009-97.89044858 0 0 71.42061333-62.14620078 119.12910785-49.58515592-10.69499007 38.51257084-38.22336416 172.6684049 75.58476516 244.30044315 39.48130713 25.42119589 132.50544683 62.20771907 265.7653766-15.422706L807.25031516 940.81430085s-113.82792832 80.10600592-252.16347056 85.27212806C330.34638923 1031.45973334 216.73200717 940.8093511 153.85960772 877.93695165 6.44764283 730.52498676-30.05533054 513.8978746 43.65418744 330.32659024c2.03858885 22.07799503 5.98283048 53.95295451 13.43927149 85.1087864C28.31562714 573.71698697 74.39494765 742.22901821 195.89003479 863.72410535z" p-id="18016" fill="#d81e06"></path></svg>