<?xml version="1.0" standalone="no"?><!DOCTYPE svg PUBLIC "-//W3C//DTD SVG 1.1//EN" "http://www.w3.org/Graphics/SVG/1.1/DTD/svg11.dtd"><svg t="1731894173261" class="icon" viewBox="0 0 1024 1024" version="1.1" xmlns="http://www.w3.org/2000/svg" p-id="17014" xmlns:xlink="http://www.w3.org/1999/xlink" width="200" height="200"><path d="M488.533333 904.533333c17.066667-93.866667 264.533333-155.733333 381.866667-341.333333C806.4 597.333333 727.466667 618.666667 640 618.666667c-34.133333 0-66.133333-2.133333-98.133333-8.533333-78.933333 70.4-258.133333 119.466667-249.6 275.2 8.533333 200.533333 394.666667 115.2 394.666667 115.2S469.333333 1004.8 488.533333 904.533333z" p-id="17015"></path><path d="M750.933333 772.266667C618.666667 842.666667 533.333333 885.333333 533.333333 917.333333c0 42.666667 138.666667 53.333333 192 46.933333 66.133333-8.533333 147.2-113.066667 183.466667-96 36.266667 17.066667 32 78.933333-10.666667 151.466667 57.6-44.8 115.2-157.866667 61.866667-230.4C906.666667 718.933333 806.4 744.533333 750.933333 772.266667z" p-id="17016"></path><path d="M373.333333 595.2c-6.4 2.133333-12.8 2.133333-21.333333 2.133333-34.133333 0-66.133333-14.933333-87.466667-38.4-8.533333 70.4-51.2 132.266667-113.066667 164.266667C162.133333 725.333333 170.666667 725.333333 181.333333 725.333333c51.2 0 98.133333-27.733333 121.6-70.4C320 627.2 343.466667 605.866667 373.333333 595.2z" p-id="17017"></path><path d="M349.866667 371.2 349.866667 371.2c-42.666667 17.066667-72.533333 59.733333-72.533333 108.8 0 40.533333 34.133333 74.666667 74.666667 74.666667 64 0 117.333333-81.066667 117.333333-181.333333 0-40.533333-8.533333-78.933333-23.466667-108.8C433.066667 311.466667 398.933333 352 349.866667 371.2z" p-id="17018"></path><path d="M115.2 330.666667c19.2-66.133333 121.6-89.6 104.533333-181.333333-17.066667 98.133333-89.6 85.333333-123.733333 166.4C64 394.666667 106.666667 469.333333 64 539.733333 128 448 85.333333 439.466667 115.2 330.666667z" p-id="17019"></path><path d="M512 373.333333c0 66.133333-21.333333 125.866667-53.333333 166.4C512 563.2 573.866667 576 640 576c145.066667 0 268.8-61.866667 317.866667-149.333333-61.866667 25.6-153.6 42.666667-253.866667 42.666667 140.8 0 262.4-72.533333 313.6-177.066667-34.133333-29.866667-96-53.333333-174.933333-68.266667 38.4-6.4 72.533333-17.066667 102.4-27.733333C887.466667 153.6 810.666667 128 725.333333 128c-100.266667 0-192 36.266667-253.866667 96C497.066667 262.4 512 315.733333 512 373.333333z" p-id="17020"></path><path d="M142.933333 661.333333c-8.533333-14.933333-4.266667-34.133333 10.666667-42.666667l0 0c46.933333-27.733333 78.933333-78.933333 78.933333-138.666667 0-68.266667 42.666667-125.866667 102.4-149.333333 2.133333-2.133333 4.266667-2.133333 8.533333-4.266667 4.266667-2.133333 8.533333-4.266667 12.8-6.4 2.133333-2.133333 6.4-4.266667 8.533333-4.266667 4.266667-2.133333 6.4-4.266667 10.666667-6.4 2.133333-2.133333 6.4-4.266667 8.533333-6.4 4.266667-2.133333 6.4-4.266667 10.666667-8.533333 2.133333-2.133333 4.266667-4.266667 8.533333-6.4 2.133333-2.133333 6.4-6.4 8.533333-8.533333 0 0 2.133333-2.133333 2.133333-2.133333l0 0 0 0c57.6-61.866667 78.933333-153.6 44.8-236.8C454.4 29.866667 443.733333 0 435.2 0c-21.333333 0 0 49.066667-10.666667 123.733333-4.266667 27.733333-12.8 53.333333-25.6 72.533333 2.133333-14.933333 4.266667-32 4.266667-46.933333 0-38.4-17.066667-76.8-32-68.266667 10.666667 59.733333-8.533333 117.333333-44.8 160-4.266667 4.266667-10.666667 10.666667-14.933333 14.933333-2.133333 2.133333-2.133333 2.133333-4.266667 4.266667-21.333333 19.2-49.066667 32-78.933333 40.533333 0 0 0 0 0 0C183.466667 313.6 149.333333 356.266667 149.333333 405.333333c0 64-36.266667 121.6-89.6 149.333333-2.133333 0-4.266667 0-6.4 0C23.466667 554.666667 0 578.133333 0 608 0 661.333333 42.666667 704 96 704c25.6 0 49.066667-10.666667 66.133333-27.733333C153.6 674.133333 147.2 669.866667 142.933333 661.333333zM179.2 413.866667c17.066667-25.6 55.466667-40.533333 68.266667-29.866667-44.8 32-23.466667 85.333333-66.133333 74.666667C168.533333 454.4 162.133333 441.6 179.2 413.866667z" p-id="17021"></path></svg>