<?xml version="1.0" standalone="no"?><!DOCTYPE svg PUBLIC "-//W3C//DTD SVG 1.1//EN" "http://www.w3.org/Graphics/SVG/1.1/DTD/svg11.dtd"><svg t="1734692772602" class="icon" viewBox="0 0 1024 1024" version="1.1" xmlns="http://www.w3.org/2000/svg" p-id="22894" xmlns:xlink="http://www.w3.org/1999/xlink" width="200" height="200"><path d="M240.470996 783.529004 240.470996 783.529004C390.432324 933.490332 633.567676 933.490332 783.529004 783.529004 933.490332 633.567676 933.490332 390.432324 783.529004 240.470996 633.567676 90.509668 390.432324 90.509668 240.470996 240.470996 90.509668 390.432324 90.509668 633.567676 240.470996 783.529004L240.470996 783.529004ZM149.961328 874.038672 149.961328 874.038672C-49.987109 674.090235-49.987109 349.909766 149.961328 149.961328 349.909766-49.987109 674.090235-49.987109 874.038672 149.961328 1073.987109 349.909766 1073.987109 674.090235 874.038672 874.038672 674.090235 1073.987109 349.909766 1073.987109 149.961328 874.038672L149.961328 874.038672ZM783.529004 149.961328 874.038672 240.470996 240.470996 874.038672 149.961328 783.529004 783.529004 149.961328Z" fill="#E52B39" p-id="22895"></path></svg>