<?xml version="1.0" standalone="no"?><!DOCTYPE svg PUBLIC "-//W3C//DTD SVG 1.1//EN" "http://www.w3.org/Graphics/SVG/1.1/DTD/svg11.dtd"><svg t="1734692716957" class="icon" viewBox="0 0 1024 1024" version="1.1" xmlns="http://www.w3.org/2000/svg" p-id="19248" xmlns:xlink="http://www.w3.org/1999/xlink" width="200" height="200"><path d="M510.149614 511.330807m-409.63593 0a409.63593 409.63593 0 1 0 819.27186 0 409.63593 409.63593 0 1 0-819.27186 0Z" fill="#FFFF6E" p-id="19249"></path><path d="M512 0C229.227789 0 0 229.227789 0 512s229.227789 512 512 512 512-229.227789 512-512S794.772211 0 512 0z m0 914.997895c-222.567298 0-402.997895-180.439579-402.997895-403.002386s180.435088-402.997895 402.997895-402.997895c222.571789 0 403.002386 180.435088 403.002386 402.997895S734.571789 914.997895 512 914.997895z" fill="#F28A8A" p-id="19250"></path><path d="M433.107088 388.675368a17.214877 17.214877 0 0 0-24.337965 0L357.847579 439.592421a17.228351 17.228351 0 0 0-5.039158 12.166737v172.099368h34.420772v-73.139649h67.408842v73.139649h34.420772v-172.099368a17.18793 17.18793 0 0 0-5.043649-12.166737L433.107088 388.675368z m21.526456 127.622737H387.224702v-57.411368l33.702175-33.702176 33.702176 33.702176v10.082807l0.004491 47.328561z m132.661895-128.363789h-45.891369a17.210386 17.210386 0 0 0-17.210386 17.210386v205.806035a17.210386 17.210386 0 0 0 17.210386 17.210386h45.891369c33.217123 0 60.236351-27.019228 60.23635-60.23186V448.175158c0-33.217123-27.019228-60.240842-60.23635-60.240842z m25.815579 179.994947a25.842526 25.842526 0 0 1-25.815579 25.815579h-28.680983v-171.385263h28.680983a25.842526 25.842526 0 0 1 25.815579 25.815579v119.754105zM239.202807 214.860351l138.428632 138.42414-24.342457 24.342456L214.860351 239.202807zM661.598316 637.242386l147.545824 147.550316-24.333473 24.333473-147.550316-147.545824z" fill="#6E6E96" p-id="19251"></path></svg>