<?xml version="1.0" standalone="no"?><!DOCTYPE svg PUBLIC "-//W3C//DTD SVG 1.1//EN" "http://www.w3.org/Graphics/SVG/1.1/DTD/svg11.dtd"><svg t="1731548059894" class="icon" viewBox="0 0 1024 1024" version="1.1" xmlns="http://www.w3.org/2000/svg" p-id="61141" xmlns:xlink="http://www.w3.org/1999/xlink" width="200" height="200"><path d="M292.571429 307.2v270.628571c4.388571 33.645714 32.182857 133.12 219.428571 178.468572 125.805714-30.72 197.485714-90.697143 219.428571-178.468572V307.2c-32.182857 0-141.897143-39.497143-219.428571-39.497143S324.754286 307.2 292.571429 307.2z m134.582857 109.714286v217.965714h-36.571429V456.411429c-8.777143 4.388571-19.017143 10.24-29.257143 13.165714v-24.868572c26.331429-19.017143 43.885714-49.737143 49.737143-90.697142h38.034286c-5.851429 29.257143-13.165714 49.737143-21.942857 62.902857z m210.651428 175.542857c1.462857 27.794286-13.165714 42.422857-40.96 40.96h-136.045714v-117.028572h177.005714v76.068572zM643.657143 497.371429H453.485714v-29.257143h190.171429v29.257143z m0-43.885715H453.485714v-29.257143h190.171429v29.257143z m-117.028572-102.4h43.885715v29.257143h73.142857v29.257143H453.485714v-29.257143h73.142857v-29.257143z" fill="#FF5D3C" p-id="61142"></path><path d="M599.771429 592.457143v-48.274286h-102.4v65.828572h86.308571c11.702857 0 16.091429-5.851429 16.091429-17.554286z" fill="#FF5D3C" p-id="61143"></path><path d="M512 0C229.668571 0 0 229.668571 0 512s229.668571 512 512 512 512-229.668571 512-512S794.331429 0 512 0z m263.314286 588.068571c-4.388571 38.034286-49.737143 165.302857-263.314286 216.502858-213.577143-52.662857-258.925714-179.931429-263.314286-216.502858v-321.828571c36.571429 0 175.542857-45.348571 263.314286-45.348571s226.742857 45.348571 263.314286 45.348571v321.828571z" fill="#FF5D3C" p-id="61144"></path></svg>