<?xml version="1.0" standalone="no"?><!DOCTYPE svg PUBLIC "-//W3C//DTD SVG 1.1//EN" "http://www.w3.org/Graphics/SVG/1.1/DTD/svg11.dtd"><svg t="1731748741266" class="icon" viewBox="0 0 1024 1024" version="1.1" xmlns="http://www.w3.org/2000/svg" p-id="31145" data-darkreader-inline-fill="" xmlns:xlink="http://www.w3.org/1999/xlink" width="200" height="200"><path d="M821.575 397.603h2.87c53.095 0 96.134 43.1 96.134 96.266v285.903c0 134.882-109.208 244.233-243.922 244.233H477.68a243.82 243.82 0 0 1-197.144-100.418L85.832 656.004a94.918 94.918 0 0 1 5.761-118.836l9.05-10.199c33.846-38.12 92.145-41.552 130.214-7.666a89.49 89.49 0 0 1 2.702 2.503l37.135 35.802a14.336 14.336 0 0 0 20.29-0.378 14.377 14.377 0 0 0 4.01-9.97V218.018c0-53.167 43.043-96.256 96.133-96.256h2.87c53.095 0 96.134 43.094 96.134 96.256v87.047a95.618 95.618 0 0 1 44.484-10.904h2.865c44.116 0 81.292 29.755 92.604 70.317a95.597 95.597 0 0 1 48.008-12.85h2.87c40.578 0 75.281 25.168 89.387 60.766a95.592 95.592 0 0 1 51.226-14.79zM317.21 896.83a198.457 198.457 0 0 0 160.47 81.736h198.977c109.652 0 198.544-89.009 198.544-198.804V493.859c0-28.064-22.727-50.817-50.756-50.817h-2.87c-28.029 0-50.75 22.753-50.75 50.817v102.007c0 26.098-39.107 26.098-39.107 0V447.889c0-28.07-22.727-50.822-50.755-50.822h-2.87c-28.03 0-50.751 22.753-50.751 50.817v113.503c0 26.098-39.106 26.098-39.106 0V390.422c0-28.069-22.728-50.822-50.756-50.822h-2.87c-28.029 0-50.75 22.753-50.75 50.817v136.491c0 26.098-39.107 26.098-39.107 0V218.023c0-28.07-22.727-50.828-50.756-50.828h-2.87c-28.028 0-50.75 22.758-50.75 50.823v329.237a59.84 59.84 0 0 1-16.701 41.481c-22.88 23.795-60.7 24.51-84.458 1.599l-37.135-35.807a46.808 46.808 0 0 0-67.518 2.625l-9.055 10.194a49.438 49.438 0 0 0-3.003 61.895L317.21 896.83z m268.845-700.202a22.983 22.983 0 0 1-45.965 0c0-83.207-67.457-150.663-150.664-150.663s-150.663 67.456-150.663 150.663a22.983 22.983 0 1 1-45.965 0C192.798 88.033 280.831 0 389.426 0s196.629 88.033 196.629 196.628z" p-id="31146" fill="#d4237a" data-darkreader-inline-fill="" style="--darkreader-inline-fill: #aa1c62;"></path></svg>