<?xml version="1.0" standalone="no"?><!DOCTYPE svg PUBLIC "-//W3C//DTD SVG 1.1//EN" "http://www.w3.org/Graphics/SVG/1.1/DTD/svg11.dtd"><svg t="1731748664495" class="icon" viewBox="0 0 1024 1024" version="1.1" xmlns="http://www.w3.org/2000/svg" p-id="30155" data-darkreader-inline-fill="" xmlns:xlink="http://www.w3.org/1999/xlink" width="200" height="200"><path d="M1015.148596 793.249525l-5.730389-11.665434C980.254622 722.64295 905.65724 688.669931 842.21365 705.247127c-2.455881 0.61397-2.455881 0.61397-13.609673 3.581493-14.837614 3.888478-22.819227 5.935045-35.81493 9.311882-37.04287 9.721195-74.08574 19.44239-108.570401 28.549615-1.432597 0.409313-1.432597 0.409313-2.762866 0.716299-16.270211 4.297792-31.517138 8.288598-45.536125 12.074748l11.972419-20.568002 8.493255-14.632957-14.4283-8.902568L390.84321 559.633856c-54.950335-34.075347-141.110822-33.052064-195.140202 2.148896l-182.144499 118.598581c-8.083941 5.218747-10.335165 16.065554-5.116419 24.047167 5.218747 8.083941 16.065554 10.335165 24.047167 5.116419l182.246827-118.598581c42.773259-27.833317 114.300789-28.651944 157.790347-1.739582l236.787849 146.841211-9.925852 16.884181c-5.116419 8.697911-12.688718 16.270211-21.591286 22.0006-13.916658 3.78615-25.275107 6.856001-33.768362 9.311882-6.446687 1.841911-17.907465 1.432597-32.438093-1.023284-3.888478-0.61397-7.879285-1.432597-11.972419-2.353553l-38.373139-10.949136c-0.409313-0.102328-0.716299-0.306985-1.125612-0.409313-1.023284-0.306985-1.944239-0.61397-2.967523-0.818627l-71.015889-20.261017c-9.209553-2.660538-18.930748 2.660538-21.488958 11.972419-2.660538 9.209553 2.660538 18.930748 11.972419 21.488958l72.346158 20.670331c6.242031 2.251224 16.270211 5.423404 28.24263 8.595583 4.40012 1.22794 8.80024 2.251224 13.20036 3.274508l17.191166 4.911762c27.730988 7.981613 58.941141 2.660538 84.318577-12.177076 25.479764-6.856001 58.838813-15.656241 98.439892-26.093734 1.432597-0.409313 1.432597-0.409313 2.762866-0.716299 34.484661-9.107225 71.527531-18.82842 108.570401-28.549615 12.995703-3.376836 20.977316-5.525732 35.81493-9.311882 11.051464-2.865194 11.051464-2.865194 13.609673-3.581493 46.252423-12.074748 102.32837 12.58639 125.454582 54.745678L646.766463 971.607874c-29.879884 16.065554-82.374338 21.693614-115.017088 12.279404L346.330369 930.164885c-38.475467-11.153792-101.305086-20.056361-141.315479-20.056361L17.446987 910.108524c-9.618867 0-17.395823 7.776956-17.395823 17.395823s7.776956 17.395823 17.395823 17.395823l187.465574 0 0-0.102328c36.735885 0 96.290996 8.493255 131.594284 18.726092L521.925852 1017.246328c41.44299 11.972419 103.351654 5.423404 141.213151-15.04227l344.641951-185.930649 14.837614-7.981613L1015.148596 793.249525z" p-id="30156"></path><path d="M179.22814 376.159089 179.22814 462.524233c0 9.618867 7.776956 17.395823 17.395823 17.395823 9.618867 0 17.395823-7.776956 17.395823-17.395823l0-86.467473c57.099231-8.390926 100.998101-57.303887 100.998101-116.552014 0-59.248126-43.898871-108.263416-100.998101-116.654342L214.019786 58.634156c0-9.618867-7.776956-17.395823-17.395823-17.395823-9.618867 0-17.395823 7.776956-17.395823 17.395823l0 84.216249c-57.201559 8.390926-101.10043 57.406216-101.10043 116.654342C78.127711 318.752873 122.026581 367.768162 179.22814 376.159089zM196.623963 176.41411c46.150095 0 83.602278 37.247527 83.602278 83.090637 0 45.84311-37.452183 83.090637-83.602278 83.090637-46.252423 0-83.602278-37.247527-83.602278-83.090637C113.021685 213.661637 150.473868 176.41411 196.623963 176.41411z" p-id="30157"></path><path d="M502.688118 496.804237c-0.204657 0.920955-0.306985 1.944239-0.306985 2.865194l0 81.351054c0 9.618867 7.776956 17.395823 17.395823 17.395823s17.395823-7.776956 17.395823-17.395823l0-81.351054c0-1.023284-0.102328-1.944239-0.204657-2.865194 57.303887-8.18627 101.305086-57.303887 101.305086-116.654342 0-59.248126-43.898871-108.263416-101.10043-116.654342L537.172779 17.395823c0-9.618867-7.776956-17.395823-17.395823-17.395823s-17.395823 7.776956-17.395823 17.395823l0 246.202059c-57.099231 8.390926-100.895773 57.406216-100.895773 116.552014C401.48536 439.398021 445.384231 488.515639 502.688118 496.804237zM519.879285 297.059259c46.150095 0 83.602278 37.247527 83.602278 83.090637s-37.452183 83.090637-83.602278 83.090637-83.602278-37.247527-83.602278-83.090637S473.72919 297.059259 519.879285 297.059259z" p-id="30158"></path><path d="M825.636454 376.159089l0 245.076446c0 9.618867 7.776956 17.395823 17.395823 17.395823s17.395823-7.776956 17.395823-17.395823L860.4281 376.159089c57.201559-8.390926 101.10043-57.303887 101.10043-116.654342 0-59.248126-43.898871-108.263416-101.10043-116.654342L860.4281 58.634156c0-9.618867-7.776956-17.395823-17.395823-17.395823s-17.395823 7.776956-17.395823 17.395823l0 84.318577c-57.099231 8.390926-100.998101 57.406216-100.998101 116.552014C724.638353 318.752873 768.537224 367.768162 825.636454 376.159089zM843.134606 176.41411c46.150095 0 83.602278 37.247527 83.602278 83.090637 0 45.84311-37.452183 83.090637-83.602278 83.090637-46.252423 0-83.602278-37.247527-83.602278-83.090637C759.532327 213.661637 796.984511 176.41411 843.134606 176.41411z" p-id="30159"></path></svg>