<?xml version="1.0" standalone="no"?><!DOCTYPE svg PUBLIC "-//W3C//DTD SVG 1.1//EN" "http://www.w3.org/Graphics/SVG/1.1/DTD/svg11.dtd"><svg t="1731895836179" class="icon" viewBox="0 0 1024 1024" version="1.1" xmlns="http://www.w3.org/2000/svg" p-id="113139" xmlns:xlink="http://www.w3.org/1999/xlink" width="200" height="200"><path d="M939.349333 559.445333a18.602667 18.602667 0 0 0-2.104889-2.844444c-20.764444-23.438222-35.669333-51.370667-48.298666-80.668445-18.261333-42.552889-15.303111-82.090667-15.928889-125.838222-0.455111-35.043556-10.752-78.620444-22.755556-111.104-20.195556-54.784-55.978667-99.328-99.783111-133.688889C679.480889 40.277333 581.12 0 472.405333 0c-216.746667 0-392.362667 159.857778-392.362666 357.148444 0 13.198222 1.877333 39.424 1.877333 39.424 1.422222 85.504 28.899556 187.278222 106.325333 301.511112 0 0 0 0.170667 0.113778 0.170666 1.137778 2.389333 31.857778 48.924444 14.222222 132.551111-2.275556 10.410667-12.344889 27.022222-25.941333 42.097778a46.933333 46.933333 0 0 0 10.24 71.224889 532.650667 532.650667 0 0 0 254.748444 79.758222l53.589334 0.113778c16.896-0.796444 33.564444-2.389333 50.005333-4.721778a20.48 20.48 0 0 0 16.497778-13.482666c13.084444-36.977778 49.493333-117.077333 119.864889-117.077334h104.504889c14.279111 0 29.070222-4.778667 33.962666-6.485333a24.746667 24.746667 0 0 0 3.697778-1.706667c17.066667-10.524444 17.692444-38.286222 14.904889-60.871111-2.161778-17.521778 3.982222-34.816 16.213333-47.502222 5.518222-5.688889 8.590222-11.605333 8.590223-16.725333v-2.218667c0-10.695111-13.596444-19.911111-33.792-24.803556-1.308444-0.284444-1.137778-2.275556 0.284444-2.275555a47.217778 47.217778 0 0 0 25.827556-7.111111c6.599111-4.380444 10.808889-10.467556 10.808888-17.294223v-1.820444c0-0.796444-0.113778-1.592889-0.227555-2.389333a73.329778 73.329778 0 0 1 0.512-25.998223c5.688889-26.282667 14.791111-67.754667 17.180444-67.982222 75.377778-2.844444 60.188444-36.010667 55.296-44.088889z" fill="#1890FF" p-id="113140"></path><path d="M415.004444 155.420444c-84.536889 9.386667-131.470222 46.08-140.913777 109.909334-1.877333 20.650667 8.476444 31.914667 31.004444 33.792 11.264 1.877333 20.650667-6.542222 28.16-25.372445 11.320889-39.424 38.513778-59.164444 81.749333-59.164444 52.565333 3.754667 80.782222 30.037333 84.536889 78.904889 0 45.112889-30.606222 52.451556-47.217777 65.991111-21.048889 17.294222-34.872889 34.702222-51.712 64.398222-14.222222 24.860444-16.611556 78.108444-16.611556 78.108445 0 22.528 10.296889 33.848889 31.004444 33.848888 18.773333 0 29.127111-11.320889 31.004445-33.848888 0 0 2.446222-59.733333 26.624-86.186667 27.306667-29.923556 92.615111-50.915556 94.492444-127.943111-7.509333-80.782222-58.197333-124.928-152.120889-132.437334zM415.004444 564.224a39.253333 39.253333 0 1 0 0 78.449778 39.253333 39.253333 0 0 0 0-78.449778z" fill="#FFFFFF" p-id="113141"></path></svg>