<?xml version="1.0" standalone="no"?><!DOCTYPE svg PUBLIC "-//W3C//DTD SVG 1.1//EN" "http://www.w3.org/Graphics/SVG/1.1/DTD/svg11.dtd"><svg t="1731748149796" class="icon" viewBox="0 0 1024 1024" version="1.1" xmlns="http://www.w3.org/2000/svg" p-id="6202" data-darkreader-inline-fill="" xmlns:xlink="http://www.w3.org/1999/xlink" width="200" height="200"><path d="M884.778667 1024h-321.28v-416.853333H960v342.186666c0 41.088-33.834667 74.666667-75.221333 74.666667z m-321.28-714.069333c-13.781333-3.712-36.437333-9.642667-46.165334-18.602667-0.725333-0.597333-1.194667-1.408-1.92-2.133333a30.890667 30.890667 0 0 1-1.92 2.133333c-9.728 8.96-18.474667 14.933333-32.256 18.602667v215.594666H64v-173.653333c0-41.130667 33.834667-74.666667 75.221333-74.666667h174.72a284.544 284.544 0 0 1-53.504-37.930666C190.592 174.634667 178.005333 81.493333 232.234667 31.189333 255.018667 10.112 285.866667 0 319.232 0c46.293333 0 97.28 19.626667 137.984 57.173333a271.018667 271.018667 0 0 1 58.197333 79.445334 271.018667 271.018667 0 0 1 58.197334-79.445334C614.144 19.626667 665.301333 0 711.594667 0c33.365333 0 64.213333 10.24 87.04 31.189333 54.314667 50.304 41.728 143.445333-28.245334 208.085334-15.36 14.293333-33.706667 26.922667-53.504 37.888h167.765334c41.386667 0 75.221333 33.578667 75.221333 74.666666v173.653334h-396.373333V309.973333zM404.906667 112.938667c-24.96-23.04-56.874667-36.693333-85.674667-36.693334-8.661333 0-24.490667 1.408-34.688 10.837334-2.261333 2.133333-9.386667 8.533333-9.386667 24.661333 0 17.962667 9.856 46.336 37.461334 71.936 33.706667 31.189333 89.514667 54.784 129.621333 54.784 14.122667 0 19.072-3.114667 19.2-3.114667 6.698667-13.098667-9.386667-78.848-56.533333-122.453333z m165.589333 123.392c0.981333 0 6.485333 2.005333 18.133333 2.005333 40.064 0 95.872-23.594667 129.578667-54.784 27.605333-25.6 37.461333-53.845333 37.461333-71.808 0-16.085333-6.997333-22.528-9.386666-24.661333-10.197333-9.386667-26.026667-10.837333-34.688-10.837334-28.8 0-60.714667 13.653333-85.674667 36.693334-46.677333 43.349333-62.848 108.373333-55.424 123.392zM481.322667 1024H139.221333C97.834667 1024 64 990.421333 64 949.333333v-342.186666h417.322667V1024z" fill="#FF9900" p-id="6203" data-darkreader-inline-fill="" style="--darkreader-inline-fill: #cc7a00;"></path></svg>