<?xml version="1.0" standalone="no"?><!DOCTYPE svg PUBLIC "-//W3C//DTD SVG 1.1//EN" "http://www.w3.org/Graphics/SVG/1.1/DTD/svg11.dtd"><svg t="1734692979600" class="icon" viewBox="0 0 1024 1024" version="1.1" xmlns="http://www.w3.org/2000/svg" p-id="44940" xmlns:xlink="http://www.w3.org/1999/xlink" width="200" height="200"><path d="M512 25.6a489.73913 489.73913 0 0 0-489.73913 489.73913 489.73913 489.73913 0 0 0 489.73913 489.739131 489.73913 489.73913 0 0 0 489.73913-489.739131 489.73913 489.73913 0 0 0-489.73913-489.73913z m456.347826 489.73913A456.347826 456.347826 0 0 1 512 971.686957a456.347826 456.347826 0 0 1-456.347826-456.347827A456.347826 456.347826 0 0 1 512 58.991304a456.347826 456.347826 0 0 1 456.347826 456.347826z" fill="#1296db" p-id="44941"></path><path d="M512 281.822609a111.304348 111.304348 0 0 0-109.30087 111.304348h218.60174a111.304348 111.304348 0 0 0-109.30087-111.304348zM667.826087 433.196522H356.173913a22.26087 22.26087 0 0 0-22.26087 22.260869v238.191305a22.26087 22.26087 0 0 0 22.26087 22.260869h311.652174a22.26087 22.26087 0 0 0 22.26087-22.260869V455.012174a22.26087 22.26087 0 0 0-22.26087-21.815652z m-165.398261 222.608695A44.521739 44.521739 0 0 1 467.478261 621.30087a44.521739 44.521739 0 0 1 22.260869-48.528696 7.346087 7.346087 0 0 0 4.006957-6.455652V512a16.695652 16.695652 0 0 1 16.695652-16.473043h4.452174a16.473043 16.473043 0 0 1 16.695652 16.473043v54.761739a7.346087 7.346087 0 0 0 4.006957 6.455652 44.521739 44.521739 0 0 1 22.260869 38.511305 44.521739 44.521739 0 0 1-55.429565 43.186087z" fill="#1296db" p-id="44942"></path><path d="M515.116522 92.382609a422.956522 422.956522 0 0 0-422.956522 422.956521 422.956522 422.956522 0 0 0 845.913043 0 422.956522 422.956522 0 0 0-422.956521-422.956521zM734.608696 699.881739a55.206957 55.206957 0 0 1-55.652174 54.761739h-333.913044a55.206957 55.206957 0 0 1-55.652174-54.761739V448.556522a55.206957 55.206957 0 0 1 55.652174-54.761739h17.586087a149.370435 149.370435 0 1 1 298.74087 0h17.586087a55.206957 55.206957 0 0 1 55.652174 54.761739z" fill="#1296db" p-id="44943"></path></svg>