<?xml version="1.0" standalone="no"?><!DOCTYPE svg PUBLIC "-//W3C//DTD SVG 1.1//EN" "http://www.w3.org/Graphics/SVG/1.1/DTD/svg11.dtd"><svg t="1734691090779" class="icon" viewBox="0 0 3462 1024" version="1.1" xmlns="http://www.w3.org/2000/svg" p-id="13443" xmlns:xlink="http://www.w3.org/1999/xlink" width="676.171875" height="200"><path d="M34.133333 638.780952c4.87619-9.752381 9.752381-14.628571 19.504762-19.504762 9.752381-4.87619 19.504762-9.752381 34.133334-14.628571 14.628571-4.87619 29.257143-4.87619 48.761904-4.87619H195.047619c29.257143 0 58.514286 0 87.771429 4.87619 29.257143 0 48.761905 4.87619 58.514285 4.876191-14.628571 9.752381-29.257143 19.504762-48.761904 19.504761-14.628571 4.87619-29.257143 4.87619-43.885715 4.876191H97.52381c-9.752381 0-19.504762 0-34.133334 4.87619H34.133333zM477.866667 214.552381c0-14.628571 4.87619-29.257143 19.504762-39.009524 9.752381-9.752381 24.380952-19.504762 43.885714-24.380952 19.504762-4.87619 43.885714-9.752381 68.266667-9.752381 24.380952-4.87619 53.638095-4.87619 82.895238-4.876191 29.257143 0 58.514286 0 82.895238 4.876191s48.761905 4.87619 73.142857 4.87619 43.885714 4.87619 63.390476 4.876191 43.885714 4.87619 63.390476 4.87619c-19.504762 19.504762-43.885714 29.257143-68.266666 34.133334s-53.638095 4.87619-82.895239 4.87619h-58.514285c-19.504762 48.761905-39.009524 107.27619-63.390476 175.542857-24.380952 73.142857-48.761905 151.161905-73.142858 243.809524-4.87619 24.380952-14.628571 43.885714-19.504761 63.390476-4.87619 19.504762-9.752381 39.009524-14.628572 53.638095-4.87619 14.628571-4.87619 34.133333-9.752381 48.761905 0 14.628571-4.87619 29.257143-4.87619 43.885714v19.504762c-24.380952 0-43.885714-4.87619-53.638096-19.504762-9.752381-9.752381-14.628571-24.380952-14.628571-43.885714 0-14.628571 4.87619-39.009524 9.752381-58.514286 4.87619-24.380952 14.628571-43.885714 19.504762-68.266666 9.752381-29.257143 24.380952-63.390476 34.133333-102.4 14.628571-39.009524 29.257143-78.019048 43.885714-121.904762s34.133333-82.895238 48.761905-121.904762c14.628571-39.009524 34.133333-78.019048 48.761905-112.152381h-78.019048c-24.380952 0-43.885714 0-63.390476 4.876191-19.504762 0-34.133333 4.87619-53.638095 4.87619s-24.380952 4.87619-43.885714 9.752381zM1028.87619 731.428571c0-9.752381 0-19.504762 4.876191-29.257142 4.87619-9.752381 4.87619-24.380952 9.752381-34.133334 4.87619-9.752381 4.87619-24.380952 9.752381-34.133333s4.87619-24.380952 4.87619-34.133333c0-14.628571-4.87619-24.380952-9.752381-34.133334-4.87619-4.87619-14.628571-9.752381-24.380952-9.752381-14.628571 0-29.257143 4.87619-39.009524 19.504762-9.752381 9.752381-24.380952 29.257143-34.133333 43.885714-9.752381 19.504762-19.504762 39.009524-24.380953 58.514286-9.752381 19.504762-14.628571 39.009524-24.380952 58.514286s-14.628571 34.133333-24.380952 43.885714c-9.752381 9.752381-14.628571 19.504762-24.380953 19.504762-4.87619 0-9.752381-4.87619-14.628571-9.752381-4.87619-4.87619-9.752381-14.628571-9.752381-19.504762-4.87619-9.752381-4.87619-19.504762-4.876191-29.257143 0-9.752381-4.87619-24.380952-4.87619-34.133333 0-29.257143 4.87619-63.390476 14.628571-102.4 9.752381-39.009524 19.504762-78.019048 39.009524-121.904762 14.628571-43.885714 34.133333-82.895238 53.638095-126.780952 19.504762-39.009524 39.009524-78.019048 58.514286-112.152381 19.504762-34.133333 39.009524-58.514286 53.638095-78.019048s34.133333-29.257143 43.885715-29.257143c4.87619 0 9.752381 0 14.628571 4.876191 4.87619 4.87619 4.87619 9.752381 9.752381 14.628571 0 4.87619 4.87619 9.752381 4.876191 19.504762V195.047619c0 14.628571-4.87619 29.257143-9.752381 48.761905s-14.628571 39.009524-19.504762 58.514286c-9.752381 19.504762-19.504762 43.885714-34.133334 63.390476-14.628571 24.380952-24.380952 43.885714-39.009523 63.390476-14.628571 19.504762-29.257143 39.009524-48.761905 53.638095-14.628571 14.628571-34.133333 29.257143-48.761905 39.009524l-14.628571 43.885714c-4.87619 14.628571-9.752381 29.257143-9.752381 43.885715-4.87619 24.380952-9.752381 39.009524-9.752381 53.638095V731.428571c9.752381-29.257143 24.380952-58.514286 34.133333-87.771428s24.380952-53.638095 39.009524-73.142857 29.257143-39.009524 48.761905-48.761905 34.133333-19.504762 53.638095-19.504762c14.628571 0 24.380952 0 29.257143 4.876191 9.752381 4.87619 14.628571 9.752381 19.504762 19.504761 4.87619 9.752381 9.752381 14.628571 9.752381 24.380953s4.87619 19.504762 4.87619 29.257143c0 14.628571 0 24.380952-4.87619 39.009523-4.87619 14.628571-9.752381 24.380952-14.628572 39.009524-4.87619 14.628571-9.752381 24.380952-14.628571 34.133334-4.87619 9.752381-4.87619 24.380952-4.876191 34.133333 0 9.752381 4.87619 19.504762 9.752381 24.380952 4.87619 4.87619 9.752381 9.752381 19.504762 9.752381s19.504762-4.87619 34.133333-9.752381c14.628571-9.752381 24.380952-19.504762 39.009524-29.257143s24.380952-29.257143 34.133334-43.885714c9.752381-14.628571 24.380952-34.133333 29.257142-53.638095l9.752381 9.752381c-9.752381 19.504762-19.504762 43.885714-34.133333 58.514286-14.628571 19.504762-24.380952 34.133333-39.009524 48.761904-14.628571 14.628571-29.257143 24.380952-43.885714 34.133334-14.628571 9.752381-34.133333 9.752381-48.761905 9.752381-19.504762 0-34.133333-4.87619-43.885714-14.628572-9.752381-9.752381-14.628571-19.504762-14.628572-39.009524z m48.761905-521.752381c-4.87619 0-14.628571 9.752381-24.380952 24.380953-14.628571 14.628571-24.380952 39.009524-43.885714 63.390476-14.628571 24.380952-34.133333 58.514286-48.761905 92.647619-14.628571 34.133333-29.257143 68.266667-39.009524 107.276191 19.504762-14.628571 39.009524-39.009524 58.514286-63.390477s39.009524-53.638095 53.638095-82.895238c14.628571-29.257143 29.257143-53.638095 34.133333-78.019047 9.752381-24.380952 14.628571-43.885714 14.628572-53.638096 0-4.87619-4.87619-9.752381-4.876191-9.752381z" fill="" p-id="13444"></path><path d="M1496.990476 507.12381c0 24.380952-4.87619 43.885714-19.504762 63.390476-14.628571 19.504762-29.257143 39.009524-53.638095 53.638095s-43.885714 29.257143-68.266667 39.009524c-24.380952 9.752381-53.638095 14.628571-78.019047 19.504762 0 4.87619 0 9.752381-4.876191 14.628571v14.628572c0 9.752381 0 19.504762 4.876191 24.380952s4.87619 14.628571 9.752381 24.380952l19.504762 19.504762c4.87619 4.87619 19.504762 4.87619 34.133333 4.876191 19.504762 0 39.009524-4.87619 58.514286-14.628572 19.504762-9.752381 34.133333-19.504762 53.638095-34.133333s34.133333-29.257143 48.761905-48.761905c14.628571-19.504762 29.257143-39.009524 39.009523-58.514286l9.752381 9.752381c-9.752381 24.380952-24.380952 48.761905-43.885714 73.142858-14.628571 19.504762-34.133333 39.009524-53.638095 53.638095-19.504762 14.628571-39.009524 24.380952-63.390476 34.133333-24.380952 9.752381-43.885714 14.628571-63.390476 14.628572-34.133333 0-63.390476-9.752381-78.019048-29.257143-19.504762-29.257143-29.257143-53.638095-29.257143-82.895238 0-19.504762 4.87619-34.133333 9.752381-53.638096s14.628571-39.009524 24.380952-58.514285c9.752381-19.504762 24.380952-34.133333 39.009524-53.638096 14.628571-14.628571 29.257143-34.133333 48.761905-43.885714 14.628571-14.628571 34.133333-24.380952 53.638095-29.257143 19.504762-9.752381 34.133333-9.752381 53.638095-9.752381 14.628571 0 24.380952 4.87619 39.009524 9.752381s9.752381 19.504762 9.752381 43.885715z m-58.514286-29.257143c-14.628571 0-29.257143 4.87619-43.885714 14.628571-14.628571 9.752381-29.257143 24.380952-43.885714 43.885714-14.628571 19.504762-29.257143 39.009524-39.009524 58.514286-9.752381 19.504762-19.504762 43.885714-24.380952 63.390476 14.628571-4.87619 34.133333-14.628571 53.638095-24.380952 19.504762-9.752381 39.009524-24.380952 58.514286-34.133333 19.504762-14.628571 34.133333-29.257143 43.885714-48.761905 14.628571-14.628571 19.504762-34.133333 19.504762-53.638095 0-4.87619 0-9.752381-4.876191-14.628572-4.87619-4.87619-9.752381-4.87619-19.504762-4.87619zM2091.885714 156.038095c-19.504762 0-39.009524 4.87619-53.638095 14.628572-14.628571 9.752381-29.257143 24.380952-39.009524 39.009523-9.752381 14.628571-19.504762 34.133333-24.380952 58.514286-4.87619 19.504762-9.752381 43.885714-9.752381 68.266667v34.133333c0 9.752381 4.87619 24.380952 9.752381 34.133334 4.87619 9.752381 9.752381 24.380952 14.628571 34.133333 4.87619 9.752381 14.628571 19.504762 24.380953 29.257143-29.257143 4.87619-53.638095 14.628571-78.019048 29.257143s-43.885714 34.133333-63.390476 53.638095c-14.628571 19.504762-29.257143 43.885714-39.009524 68.266666-9.752381 24.380952-14.628571 48.761905-14.628571 73.142858 0 14.628571 0 29.257143 4.87619 43.885714s9.752381 29.257143 19.504762 39.009524c9.752381 14.628571 19.504762 24.380952 34.133333 29.257143 14.628571 9.752381 34.133333 9.752381 53.638096 9.752381 24.380952 0 48.761905-4.87619 68.266666-14.628572s43.885714-24.380952 68.266667-39.009524 39.009524-39.009524 58.514286-58.514285c19.504762-24.380952 34.133333-48.761905 43.885714-73.142858l14.628571 9.752381c-14.628571 29.257143-34.133333 58.514286-53.638095 82.895238-19.504762 24.380952-39.009524 48.761905-63.390476 68.266667-24.380952 19.504762-48.761905 34.133333-73.142857 43.885714-24.380952 9.752381-53.638095 14.628571-82.895238 14.628572-24.380952 0-48.761905-4.87619-73.142857-14.628572-19.504762-9.752381-39.009524-19.504762-53.638096-34.133333-14.628571-14.628571-24.380952-29.257143-34.133333-48.761905-9.752381-19.504762-9.752381-39.009524-9.752381-63.390476 0-29.257143 4.87619-53.638095 19.504762-78.019047 9.752381-24.380952 29.257143-48.761905 48.761905-68.266667s43.885714-39.009524 73.142857-53.638095c29.257143-14.628571 58.514286-24.380952 87.771428-24.380953-24.380952-19.504762-39.009524-39.009524-48.761904-63.390476S1901.714286 341.333333 1901.714286 316.952381s4.87619-43.885714 14.628571-68.266667c9.752381-19.504762 19.504762-39.009524 39.009524-58.514285 14.628571-14.628571 34.133333-29.257143 58.514286-39.009524 19.504762-9.752381 43.885714-14.628571 73.142857-14.628572 34.133333 0 58.514286 9.752381 73.142857 24.380953 14.628571 14.628571 24.380952 39.009524 24.380952 68.266666 0 14.628571 0 34.133333-4.87619 48.761905-4.87619 14.628571-9.752381 29.257143-19.504762 43.885714-4.87619 14.628571-14.628571 24.380952-24.380952 29.257143-9.752381 9.752381-14.628571 9.752381-24.380953 9.752381-4.87619 0-14.628571-4.87619-19.504762-9.752381-4.87619-4.87619-9.752381-9.752381-14.628571-19.504762 19.504762-19.504762 39.009524-39.009524 53.638095-58.514285 14.628571-19.504762 19.504762-43.885714 19.504762-63.390477s-4.87619-34.133333-14.628571-43.885714c-9.752381-4.87619-24.380952-9.752381-43.885715-9.752381z" fill="" p-id="13445"></path><path d="M2121.142857 760.685714s4.87619-9.752381 9.752381-29.257143c4.87619-14.628571 14.628571-34.133333 19.504762-58.514285 9.752381-19.504762 14.628571-43.885714 19.504762-68.266667 4.87619-24.380952 9.752381-43.885714 9.752381-63.390476l14.628571-14.628572c9.752381-4.87619 14.628571-4.87619 24.380953-4.87619 14.628571 0 24.380952 9.752381 24.380952 24.380952 0 9.752381-4.87619 24.380952-9.752381 48.761905s-9.752381 43.885714-19.504762 68.266667c9.752381-19.504762 24.380952-34.133333 39.009524-53.638095 14.628571-19.504762 29.257143-34.133333 43.885714-48.761905 14.628571-14.628571 34.133333-29.257143 48.761905-34.133334s34.133333-14.628571 48.761905-14.628571c9.752381 0 19.504762 0 29.257143 4.87619 9.752381 4.87619 14.628571 9.752381 19.504762 19.504762 4.87619 9.752381 9.752381 14.628571 9.752381 24.380953 4.87619 9.752381 4.87619 19.504762 4.87619 29.257143 0 14.628571 0 24.380952-4.87619 39.009523-4.87619 14.628571-9.752381 24.380952-14.628572 34.133334s-9.752381 24.380952-14.628571 34.133333c-4.87619 9.752381-4.87619 19.504762-4.876191 34.133333 0 14.628571 4.87619 19.504762 9.752381 24.380953 4.87619 4.87619 9.752381 9.752381 19.504762 9.752381s24.380952-4.87619 34.133333-14.628572c9.752381-9.752381 24.380952-19.504762 34.133334-34.133333l29.257143-43.885714c9.752381-14.628571 19.504762-34.133333 24.380952-48.761905l9.752381 9.752381c-9.752381 19.504762-19.504762 43.885714-29.257143 58.514286-9.752381 19.504762-24.380952 34.133333-34.133333 48.761904-14.628571 14.628571-24.380952 24.380952-39.009524 29.257143-14.628571 9.752381-29.257143 9.752381-43.885714 9.752381-19.504762 0-34.133333-4.87619-43.885715-14.628571-9.752381-9.752381-14.628571-24.380952-14.628571-39.009524 0-9.752381 0-19.504762 4.87619-29.257143 4.87619-9.752381 4.87619-19.504762 9.752381-29.257143s4.87619-19.504762 9.752381-29.257143c4.87619-9.752381 4.87619-19.504762 4.876191-29.257142 0-14.628571-4.87619-29.257143-9.752381-34.133334-4.87619-4.87619-14.628571-9.752381-24.380953-9.752381-19.504762 0-39.009524 9.752381-53.638095 24.380953-19.504762 14.628571-39.009524 34.133333-53.638095 58.514285s-34.133333 43.885714-48.761905 73.142857c-14.628571 24.380952-29.257143 48.761905-39.009524 68.266667-9.752381 0-19.504762 0-24.380952-4.87619-14.628571-14.628571-24.380952-19.504762-29.257143-24.380953z" fill="" p-id="13446"></path><path d="M2823.314286 492.495238c-4.87619-9.752381-19.504762-14.628571-34.133334-14.628571s-29.257143 4.87619-43.885714 14.628571c-14.628571 9.752381-29.257143 19.504762-43.885714 34.133333-14.628571 14.628571-24.380952 29.257143-34.133334 43.885715s-19.504762 34.133333-29.257142 53.638095c-9.752381 19.504762-14.628571 34.133333-19.504762 48.761905-4.87619 14.628571-4.87619 29.257143-4.876191 39.009524 0 14.628571 4.87619 24.380952 9.752381 29.257142 4.87619 9.752381 14.628571 9.752381 24.380953 9.752381s24.380952-4.87619 43.885714-19.504762c14.628571-9.752381 34.133333-29.257143 48.761905-48.761904 19.504762-19.504762 34.133333-48.761905 53.638095-78.019048 14.628571-29.257143 34.133333-63.390476 48.761905-97.523809 14.628571-43.885714 34.133333-87.771429 48.761904-131.657143 19.504762-43.885714 34.133333-82.895238 53.638096-121.904762s34.133333-68.266667 48.761904-87.771429 29.257143-34.133333 39.009524-34.133333c4.87619 0 9.752381 0 14.628572 4.87619 4.87619 4.87619 4.87619 9.752381 4.87619 14.628572 0 9.752381-4.87619 24.380952-14.628571 48.761905s-24.380952 48.761905-39.009524 82.895238c-14.628571 29.257143-29.257143 63.390476-48.761905 102.4s-34.133333 73.142857-48.761905 112.152381c-14.628571 39.009524-29.257143 73.142857-39.009523 112.152381-9.752381 34.133333-14.628571 68.266667-14.628572 97.523809 0 14.628571 0 29.257143 4.876191 39.009524 0 9.752381 9.752381 9.752381 19.504761 9.752381s19.504762-4.87619 29.257143-9.752381c9.752381-4.87619 24.380952-14.628571 34.133334-24.380953 14.628571-9.752381 24.380952-24.380952 34.133333-39.009523 9.752381-14.628571 24.380952-34.133333 29.257143-53.638096l9.752381 9.752381c-9.752381 24.380952-19.504762 43.885714-34.133334 63.390477-14.628571 19.504762-29.257143 34.133333-43.885714 48.761904s-29.257143 24.380952-48.761905 34.133334c-14.628571 9.752381-34.133333 9.752381-48.761904 9.752381-9.752381 0-19.504762 0-29.257143-4.876191-9.752381-4.87619-14.628571-9.752381-19.504762-14.628571-4.87619-4.87619-9.752381-14.628571-9.752381-19.504762 0-9.752381-4.87619-14.628571-4.876191-24.380953s0-24.380952 4.876191-39.009523c4.87619-14.628571 4.87619-34.133333 14.628571-53.638096-14.628571 24.380952-29.257143 43.885714-43.885714 63.390477-14.628571 19.504762-29.257143 39.009524-48.761905 53.638095-14.628571 14.628571-29.257143 24.380952-43.885714 34.133333s-29.257143 14.628571-43.885714 14.628572c-9.752381 0-14.628571 0-24.380953-4.876191s-14.628571-9.752381-19.504762-14.628571c-4.87619-4.87619-9.752381-14.628571-14.628571-24.380953-4.87619-9.752381-4.87619-19.504762-4.87619-34.133333 0-14.628571 4.87619-34.133333 9.752381-53.638095 4.87619-19.504762 14.628571-39.009524 29.257142-58.514286 9.752381-19.504762 24.380952-39.009524 39.009524-58.514286 14.628571-19.504762 29.257143-34.133333 48.761905-48.761904 19.504762-14.628571 34.133333-24.380952 53.638095-34.133334 19.504762-9.752381 39.009524-14.628571 53.638095-14.628571 24.380952 0 39.009524 9.752381 39.009524 29.257143v4.87619s4.87619-4.87619 4.876191 0zM3052.495238 638.780952c4.87619-9.752381 9.752381-14.628571 19.504762-19.504762 9.752381-4.87619 19.504762-9.752381 34.133333-14.628571 14.628571-4.87619 29.257143-4.87619 48.761905-4.87619h58.514286c29.257143 0 58.514286 0 87.771428 4.87619 29.257143 0 48.761905 4.87619 58.514286 4.876191-14.628571 9.752381-29.257143 19.504762-48.761905 19.504761-14.628571 4.87619-29.257143 4.87619-43.885714 4.876191h-156.038095c-9.752381 0-19.504762 0-34.133334 4.87619h-24.380952z" fill="" p-id="13447"></path></svg>