<?xml version="1.0" standalone="no"?><!DOCTYPE svg PUBLIC "-//W3C//DTD SVG 1.1//EN" "http://www.w3.org/Graphics/SVG/1.1/DTD/svg11.dtd"><svg t="1731547427888" class="icon" viewBox="0 0 1024 1024" version="1.1" xmlns="http://www.w3.org/2000/svg" p-id="30941" xmlns:xlink="http://www.w3.org/1999/xlink" width="200" height="200"><path d="M0 0h1024v1024H0z" fill="#F7F8FF" p-id="30942"></path><path d="M814.268893 394.916039c-1.391845 34.398447-7.953398 68.796893-20.181747 102.300582-12.725437 35.094369-30.024078 76.352621-52.194175 116.716117-2.982524 5.467961-6.163883 10.935922-9.345243 16.403883-0.695922 1.292427-1.391845 2.584854-2.187184 3.877282-32.807767 54.977864-46.427961 119.201553-40.661748 182.928155l14.713787 165.927767h-405.822136v-132.026408h-111.446991c-40.264078 0-72.87301-32.608932-72.873009-72.873009v-100.709903c0-13.620194-7.456311-26.146796-19.485826-32.608932l-34.299029-18.392233a31.366214 31.366214 0 0 1-12.427184-43.147185l56.270291-99.019805c5.865631-10.24 7.953398-22.07068 5.965049-33.603107-8.848155-52.989515-22.567767-218.320777 124.768932-333.446214 124.967767-97.627961 299.843107-101.704078 431.471844-13.620194 0.994175 0.596505 1.888932 1.19301 2.883107 1.888932 1.888932 1.19301 3.678447 2.485437 5.567379 3.777864 84.703689 59.948738 133.815922 154.594175 139.085048 253.912233 0.596505 10.538252 0.596505 21.175922 0.198835 31.714175z" fill="#B5D8FE" p-id="30943"></path><path d="M814.268893 394.916039c-1.391845 34.398447-7.953398 68.796893-20.181747 102.300582-12.725437 35.094369-30.024078 76.352621-52.194175 116.716117l-10.836505-10.935922a9.812505 9.812505 0 0 1-1.093592-12.62602l8.549903-12.427184c-5.070291-8.64932-8.947573-17.994563-11.532427-27.737476l-14.813204-2.684272a9.901981 9.901981 0 0 1-8.152233-9.742913v-29.92466c0-4.772039 3.479612-8.947573 8.152233-9.742912l14.813204-2.684272c2.584854-9.742913 6.362718-19.088155 11.532427-27.737476l-8.549903-12.427184c-2.783689-3.976699-2.286602-9.245825 1.093592-12.725437l21.175922-21.076505c3.380194-3.380194 8.748738-3.877282 12.62602-1.19301l12.427184 8.649321c8.64932-5.169709 17.994563-8.947573 27.737476-11.532428l2.684272-14.813204c0.596505-3.678447 3.181359-6.462136 6.561553-7.655145zM814.070058 363.201864c-3.976699 1.093592-8.052816 1.98835-12.228349 2.684272l-5.467961 21.374757c-1.19301 4.374369-5.169709 7.456311-9.643496 7.456311-0.198835 0-0.497087 0-0.695922-0.099418l-39.468738-2.783689c-4.772039-0.39767-8.64932-4.076117-9.146408-8.947573l-2.386019-21.871844c-13.719612-4.374369-26.544466-10.836505-38.176311-19.187573l-18.988737 11.234175c-4.175534 2.485437-9.44466 1.59068-12.62602-2.087767l-25.848544-29.924661c-3.081942-3.579029-3.181359-8.947573-0.198835-12.725437l13.81903-17.099805a139.681553 139.681553 0 0 1-13.42136-40.661748l-21.374757-5.467961c-4.672621-1.19301-7.754563-5.567379-7.456311-10.339418l2.883107-39.468737c0.39767-4.772039 4.076117-8.64932 8.848156-9.146408l21.871844-2.38602c4.473786-13.620194 10.935922-26.445049 19.28699-38.17631l-11.234174-18.988738a9.882097 9.882097 0 0 1 2.087767-12.526602l12.029514-10.438835c0.994175 0.596505 1.888932 1.19301 2.883107 1.888932 1.888932 1.19301 3.678447 2.485437 5.567379 3.777864 84.703689 59.948738 133.815922 154.594175 139.085048 253.912233z" fill="#9BCAFC" p-id="30944"></path><path d="M613.445592 324.528466c29.52699 31.316505 45.334369 73.171262 43.34602 114.827184-0.79534 16.900971-4.175534 33.304854-10.041165 48.813981-5.865631 15.409709-14.216699 29.92466-24.953787 43.047767-28.234563 34.696699-44.041942 74.165437-46.030291 114.62835 14.713786 4.374369 25.450874 17.994563 25.450874 34.100194 0 2.087767-0.099417 4.076117-0.497088 6.163883-0.596505 2.982524-1.292427 5.467961-2.386019 7.853981-1.789515 4.175534-4.374369 8.052816-7.456311 11.134757-0.198835 0.198835-0.39767 0.39767-0.596505 0.497087 6.760388 6.561553 10.935922 15.608544 10.935923 25.649709 0 9.44466-3.678447 18.292816-10.24 25.053204a35.492039 35.492039 0 0 1-25.351457 10.538253h-7.257475c-7.158058 28.234563-32.608932 48.515728-62.334758 48.515728s-55.176699-20.281165-62.434174-48.515728h-7.356894c-19.585243 0-35.492039-15.906796-35.492038-35.591457 0-9.345243 3.678447-18.193398 10.339417-25.053204 0.198835-0.198835 0.497087-0.497087 0.695922-0.596505-2.584854-2.286602-4.672621-4.970874-6.462136-8.052815l-1.491262-2.982524c-2.087767-4.871456-3.081942-9.643495-3.081941-14.614369 0-9.742913 3.777864-18.789903 10.737087-25.252039 5.169709-5.269126 12.029515-8.64932 19.28699-9.84233-1.292427-41.35767-16.205049-81.025243-42.252427-112.341748a157.676117 157.676117 0 0 1-36.287379-100.511068c0-42.451262 16.702136-82.218252 46.825632-112.043495 30.222913-29.725825 69.989903-46.129709 112.64-45.334369 41.556505 0.596505 82.31767 18.789903 111.745242 49.907573z" fill="#9BCAFC" p-id="30945"></path><path d="M965.870602 188.893204l-2.873165 39.438913-28.50299 3.052116a129.779573 129.779573 0 0 1-23.49235 46.775922l14.584544 24.68536-29.92466 25.858485-22.269515-18.024388a130.137476 130.137476 0 0 1-49.708738 16.503301l-7.118291 27.737475-39.438913-2.863223-3.032233-28.473165a129.759689 129.759689 0 0 1-46.795806-23.522175l-24.685359 14.614369-25.838602-29.92466 18.004505-22.309282a129.829282 129.829282 0 0 1-16.503301-49.678912l-27.737476-7.148117 2.863224-39.428971 28.473165-3.032233a130.405903 130.405903 0 0 1 23.522175-46.795805l-14.584544-24.655534 29.894835-25.868428 22.309281 18.034331a129.769631 129.769631 0 0 1 49.708738-16.503301l7.10835-27.737476 39.438912 2.863223 3.032233 28.473165a130.137476 130.137476 0 0 1 46.795806 23.522175l24.655534-14.614369 25.868427 29.92466-17.994563 22.269515a129.908816 129.908816 0 0 1 16.473476 49.708738l27.767301 7.128233z" fill="#FFFFFF" p-id="30946"></path><path d="M885.312621 202.851417a77.336854 77.336854 0 0 1-43.375844 63.99503 76.790058 76.790058 0 0 1-39.339495 7.515961 76.8 76.8 0 0 1-37.838292-13.123107 77.307029 77.307029 0 0 1 9.703146-133.537553 76.8 76.8 0 0 1 39.339495-7.515962 76.8 76.8 0 0 1 37.838291 13.123107 77.307029 77.307029 0 0 1 33.682641 69.542524z" fill="#B5D8FE" p-id="30947"></path><path d="M980.743456 478.019107v29.904776l-21.33499 3.877282a98.164816 98.164816 0 0 1-15.161165 36.565748l12.357592 17.815611-21.156039 21.156039-17.795728-12.377476a98.423301 98.423301 0 0 1-36.595573 15.181049l-3.847456 21.315107h-29.904777l-3.847456-21.315107a98.154874 98.154874 0 0 1-36.595573-15.181049l-17.815611 12.377476-21.136156-21.156039 12.357593-17.815611a98.194641 98.194641 0 0 1-15.181049-36.57569l-21.315107-3.86734v-29.904776l21.315107-3.847457a98.632078 98.632078 0 0 1 15.181049-36.585631l-12.357593-17.795728 21.136156-21.156039 17.815611 12.367534a98.154874 98.154874 0 0 1 36.595573-15.171106l3.847456-21.315107h29.904777l3.847456 21.315107a98.433243 98.433243 0 0 1 36.595573 15.171106l17.795728-12.367534 21.156039 21.146098-12.357592 17.795728a98.264233 98.264233 0 0 1 15.161165 36.595572l21.33499 3.847457z" fill="#FFFFFF" p-id="30948"></path><path d="M912.413825 492.961553a50.166058 50.166058 0 0 1-75.259029 43.445437 50.166058 50.166058 0 0 1 0-86.841165c7.39666-4.294835 15.966447-6.71068 25.102913-6.710679s17.706252 2.415845 25.092971 6.710679a50.146175 50.146175 0 0 1 25.053203 43.395728z" fill="#B5D8FE" p-id="30949"></path><path d="M347.623146 484.690019a146.779961 146.779961 0 0 1-25.222214-82.536388c0-82.118835 67.007379-148.470058 149.364816-147.406291 81.760932 1.053825 149.076505 72.624466 145.308582 154.305864a146.571184 146.571184 0 0 1-32.807767 86.006058c-30.063845 36.92365-48.495845 81.900117-48.495845 129.511146H401.069981v-3.360311c0-33.752233-8.549903-66.808544-24.834486-95.91798" fill="#FFFFFF" p-id="30950"></path><path d="M561.480078 650.140583a26.763184 26.763184 0 0 1-2.087767 10.090873c-1.312311 3.01235-3.151534 5.766214-5.368544 7.993165a25.460816 25.460816 0 0 1-18.093981 7.466253H396.526602a25.888311 25.888311 0 0 1-22.408699-12.973981l-1.183068-2.356194a25.401165 25.401165 0 0 1-2.087767-10.220116c0-7.068583 2.743922-13.490951 7.595495-18.084039a25.65965 25.65965 0 0 1 18.084039-7.595495h139.403184c14.017864 0 25.550291 11.66167 25.550292 25.679534zM561.470136 701.44c0 7.058641-2.883107 13.421359-7.456311 18.093981-4.672621 4.672621-11.134757 7.555728-18.193398 7.555728h-139.383301c-14.117282 0-25.550291-11.532427-25.550291-25.649709 0-7.058641 2.883107-13.421359 7.456311-18.093981 4.672621-4.672621 11.03534-7.555728 18.09398-7.555728h139.383301a25.649709 25.649709 0 0 1 25.649709 25.649709z" fill="#FFFFFF" p-id="30951"></path><path d="M411.976078 726.990291c3.111767 27.329864 26.047379 48.635029 54.192466 48.635029 28.155029 0 51.090641-21.305165 54.202407-48.635029H411.976078z" fill="#FFFFFF" p-id="30952"></path><path d="M304.316893 236.71301l24.138563 24.148505M236.066796 401.477592h34.139961M702.086214 401.477592h-34.139962M633.836117 236.71301l-24.138564 24.148505" fill="#9BCAFC" p-id="30953"></path><path d="M51.170175 974.440388H35.124194a9.941748 9.941748 0 1 0 0 19.883495h16.045981a9.941748 9.941748 0 1 0 0-19.883495zM988.875806 974.440388h-25.649709a9.941748 9.941748 0 1 0 0 19.883495h25.649709a9.941748 9.941748 0 1 0 0-19.883495zM895.234485 203.567223a87.656388 87.656388 0 0 0-37.977475-78.470213 87.010175 87.010175 0 0 0-42.729631-14.813204 86.880932 86.880932 0 0 0-44.419729 8.490252 87.626563 87.626563 0 0 0-48.933281 72.137321c-3.608854 49.529786 35.412505 93.591612 87.069825 93.591611a86.791456 86.791456 0 0 0 38.047068-8.718912 87.686214 87.686214 0 0 0 48.943223-72.216855z m-124.868349 49.450253a67.782835 67.782835 0 0 1-29.367922-60.664544 67.673476 67.673476 0 0 1 37.828349-55.713553 66.927845 66.927845 0 0 1 34.259262-6.54167 67.086913 67.086913 0 0 1 32.956893 11.433009 67.703301 67.703301 0 0 1 29.367923 60.594952 67.75301 67.75301 0 0 1-37.838291 55.773204 67.514408 67.514408 0 0 1-67.206214-4.871457z" fill="#077AF1" p-id="30954"></path><path d="M964.767068 560.515728l-8.599612-12.397359c5.12-8.689087 8.967456-17.97468 11.492661-27.717592l14.85297-2.684272a9.941748 9.941748 0 0 0 8.162175-9.792622v-29.904776c0-4.801864-3.439845-8.927689-8.172116-9.78268l-14.843029-2.67433c-2.525204-9.742913-6.362718-19.028505-11.492661-27.727534l8.599612-12.387417a9.941748 9.941748 0 0 0-1.133359-12.695612L942.47767 391.605437a9.951689 9.951689 0 0 0-12.705553-1.133359l-12.387418 8.609553a107.241631 107.241631 0 0 0-27.717592-11.49266l-2.664389-14.852971a9.951689 9.951689 0 0 0-9.792621-8.172117h-29.904777c-4.811806 0-8.937631 3.449786-9.792621 8.172117l-2.664388 14.852971c-3.618796 0.934524-7.098408 2.236893-10.57802 3.52932 0.288311-9.901981 0.139184-19.794019-0.407611-29.626408a9.752854 9.752854 0 0 0 2.33631-4.096l5.467961-21.315106c14.206757-2.386019 27.836893-6.899573 40.631923-13.48101l17.119689 13.838913a9.941748 9.941748 0 0 0 12.755262-0.198835l29.914719-25.868428c3.628738-3.141592 4.49367-8.450485 2.057941-12.586252l-11.214291-18.958913a138.568078 138.568078 0 0 0 19.22734-38.255844l21.90167-2.356194a9.941748 9.941748 0 0 0 8.848155-9.166292l2.863224-39.428971a9.941748 9.941748 0 0 0-7.446369-10.349359l-21.315107-5.467961a139.065165 139.065165 0 0 0-13.490952-40.641864l13.838913-17.129631a9.941748 9.941748 0 0 0-0.208777-12.74532L921.281864 73.370097a9.961631 9.961631 0 0 0-12.596194-2.048l-18.929087 11.224233a139.32365 139.32365 0 0 0-38.275729-19.237281l-2.326369-21.871845a9.941748 9.941748 0 0 0-9.166291-8.858097l-39.438912-2.863224a9.892039 9.892039 0 0 0-10.339418 7.446369l-5.467961 21.295224c-14.226641 2.386019-27.846835 6.909515-40.661748 13.500893l-17.119689-13.848854a9.941748 9.941748 0 0 0-12.755262 0.218718l-29.894835 25.858485a9.941748 9.941748 0 0 0-2.048 12.576311l6.153942 10.399068c-2.584854-1.958524-5.040466-4.046291-7.704855-5.925281-1.888932-1.332194-3.787806-2.654447-5.686679-3.946874C537.609942 3.459728 358.330408 8.351068 228.938563 109.468583 76.263146 228.74967 92.060583 402.054214 100.530951 452.329631a41.109126 41.109126 0 0 1-4.821747 27.08132l-56.290175 98.980039a40.999767 40.999767 0 0 0-3.797747 31.833476 41.059417 41.059417 0 0 0 20.14198 24.983612l34.299029 18.432a27.061437 27.061437 0 0 1 14.256466 23.860194v100.650252c0 45.692272 37.162252 82.864466 82.854525 82.864466h101.505242v113.425398H92.696854a9.941748 9.941748 0 1 0 0 19.883495h831.488a9.941748 9.941748 0 1 0 0-19.883495H713.648466l-14.087456-158.143378a301.85134 301.85134 0 0 1 6.82998-96.554253 9.931806 9.931806 0 1 0-19.34664-4.583145 321.516117 321.516117 0 0 0-7.287301 102.897087l13.819029 155.140971H308.562019V851.073243a9.941748 9.941748 0 0 0-9.941747-9.941748H187.173282a63.050563 63.050563 0 0 1-62.97103-62.980971V677.510214a46.925049 46.925049 0 0 0-24.725126-41.377554l-34.299029-18.441942a21.27534 21.27534 0 0 1-10.438835-12.964038 21.255456 21.255456 0 0 1 1.958524-16.503301l56.290175-98.989981a61.072155 61.072155 0 0 0 7.158058-40.204427c-8.02299-47.521553-22.98532-211.371495 121.030835-323.892194 120.643107-94.257709 294.424854-98.970097 422.653515-11.403185a277.782369 277.782369 0 0 1 21.056621 15.797437 138.80668 138.80668 0 0 0-10.667495 24.446757l-21.871845 2.326369a9.941748 9.941748 0 0 0-8.858097 9.166292l-2.863223 39.438912a9.941748 9.941748 0 0 0 7.436427 10.339418l21.305165 5.487844c2.386019 14.216699 6.909515 27.836893 13.500894 40.631923l-13.828971 17.149514a9.931806 9.931806 0 0 0 0.208776 12.735379l25.838602 29.914718a9.941748 9.941748 0 0 0 12.596194 2.057942l18.948971-11.224233a138.69732 138.69732 0 0 0 38.275729 19.237282l2.33631 21.871844a9.941748 9.941748 0 0 0 9.166291 8.858097l27.598292 2.008233c0.56668 10.935922 0.546796 21.931495 0.019883 32.956894l-9.305476-6.462136a9.941748 9.941748 0 0 0-12.705553 1.133359l-21.136155 21.146097a9.941748 9.941748 0 0 0-1.133359 12.695612l8.599611 12.387417a107.967379 107.967379 0 0 0-11.502602 27.737476l-14.833087 2.664388a9.951689 9.951689 0 0 0-8.182058 9.78268v29.904776a9.941748 9.941748 0 0 0 8.172116 9.792622l14.843029 2.684272c1.98835 7.655146 5.020583 14.912621 8.599612 21.911611-13.490951 31.475573-28.035728 60.674485-43.654214 86.870991a302.944932 302.944932 0 0 0-11.015456 20.211572 9.931806 9.931806 0 0 0 4.483728 13.321942 9.911922 9.911922 0 0 0 13.321942-4.49367 288.211262 288.211262 0 0 1 10.289709-18.869437 705.645359 705.645359 0 0 0 30.521165-57.622369l12.626019 12.635962a9.911922 9.911922 0 0 0 12.705553 1.143301l12.407301-8.619496c8.669204 5.12 17.944854 8.967456 27.717593 11.492661l2.664388 14.843029c0.85499 4.732272 4.980816 8.172117 9.792621 8.172116h29.904777c4.811806 0 8.937631-3.439845 9.792621-8.172116l2.664389-14.843029c9.762796-2.525204 19.028505-6.362718 27.717592-11.492661l12.377476 8.619496c3.946874 2.733981 9.295534 2.266718 12.715495-1.143301l21.156039-21.146097a9.941748 9.941748 0 0 0 1.133359-12.705554zM783.976388 322.540117a9.931806 9.931806 0 0 0-7.297242-8.549903 119.420272 119.420272 0 0 1-43.226719-21.722719 9.892039 9.892039 0 0 0-11.234175-0.755573l-17.517359 10.379185-14.972272-17.34835 12.785088-15.847145a9.941748 9.941748 0 0 0 0.874874-11.214292 119.271146 119.271146 0 0 1-15.2407-45.891106 9.971573 9.971573 0 0 0-7.39666-8.460428l-19.704543-5.070291 1.660271-22.866019 20.211573-2.147418a9.931806 9.931806 0 0 0 8.549903-7.307184 120.026718 120.026718 0 0 1 21.73266-43.226719 9.921864 9.921864 0 0 0 0.745631-11.214291l-10.339417-17.507417 17.318524-14.992156 15.827262 12.795029c3.211184 2.584854 7.655146 2.932816 11.234175 0.894758a119.310913 119.310913 0 0 1 45.901049-15.250641 9.941748 9.941748 0 0 0 8.470369-7.406602l5.050407-19.68466 22.856078 1.65033 2.147418 20.211573a9.941748 9.941748 0 0 0 7.297242 8.549903 119.400388 119.400388 0 0 1 43.23666 21.73266c3.221126 2.545087 7.684971 2.84334 11.234175 0.755573l17.497476-10.369243 14.992155 17.328466-12.785087 15.827262c-2.574913 3.181359-2.922874 7.635262-0.884816 11.194408a119.668816 119.668816 0 0 1 15.230758 45.91099 9.941748 9.941748 0 0 0 7.406602 8.470369l19.714485 5.050408-1.660272 22.866019-20.25134 2.187185a9.941748 9.941748 0 0 0-8.549903 7.307184 119.251262 119.251262 0 0 1-21.692893 43.196893 9.941748 9.941748 0 0 0-0.765514 11.214292l10.359301 17.527301-17.338408 14.992155-15.807379-12.795029a9.901981 9.901981 0 0 0-11.234175-0.884816 119.529631 119.529631 0 0 1-45.91099 15.240699 9.941748 9.941748 0 0 0-8.450485 7.406602l-5.050408 19.68466-22.866019-1.65033-2.15736-20.211572zM949.64567 509.912233a87.815456 87.815456 0 0 1-13.640078 32.887301 9.931806 9.931806 0 0 0 0.069592 11.234175l7.625321 10.995573-9.394952 9.404893-10.975689-7.635262a9.961631 9.961631 0 0 0-11.254058-0.069593 88.183301 88.183301 0 0 1-32.907185 13.65002 9.941748 9.941748 0 0 0-7.893747 7.993165l-2.376078 13.14299h-13.292116l-2.366136-13.14299a9.951689 9.951689 0 0 0-7.90369-8.003107 87.785631 87.785631 0 0 1-32.887301-13.620194 9.931806 9.931806 0 0 0-11.254058 0.049709l-10.995573 7.635262-9.385009-9.404893 7.62532-10.985632a9.941748 9.941748 0 0 0 0.05965-11.264 87.855223 87.855223 0 0 1-13.659961-32.8873 9.951689 9.951689 0 0 0-7.973281-7.893748l-13.152932-2.376078v-13.292116l13.14299-2.366136a9.931806 9.931806 0 0 0 7.983223-7.903689 88.451728 88.451728 0 0 1 13.659961-32.907185 9.941748 9.941748 0 0 0-0.05965-11.244116l-7.62532-10.97569 9.385009-9.394951 10.995573 7.62532c3.380194 2.366136 7.844039 2.366136 11.254058 0.059651a87.785631 87.785631 0 0 1 32.887301-13.620195c4.03635-0.785398 7.177942-3.976699 7.90369-8.013048l2.376077-13.14299h13.282175l2.376078 13.14299a9.941748 9.941748 0 0 0 7.903689 7.993165 88.183301 88.183301 0 0 1 32.907185 13.650019 9.931806 9.931806 0 0 0 11.234174-0.069592l10.985631-7.62532 9.394952 9.394951-7.625321 10.97569a9.941748 9.941748 0 0 0-0.069592 11.234174 88.00435 88.00435 0 0 1 13.640078 32.907185c0.775456 4.03635 3.956816 7.187883 7.993165 7.913631l13.152932 2.366136v13.292116l-13.162874 2.38602c-4.03635 0.735689-7.207767 3.877282-7.983223 7.903689z" fill="#077AF1" p-id="30955"></path><path d="M892.351379 440.976155c-18.153631-10.568078-42.04365-10.558136-60.177398-0.009941a60.346408 60.346408 0 0 0-30.004195 51.995339 60.406058 60.406058 0 0 0 30.004195 52.054991 60.217165 60.217165 0 0 0 60.167456-0.009942 60.376233 60.376233 0 0 0 30.004194-52.045049 60.326524 60.326524 0 0 0-29.994252-51.995339z m-9.991457 86.831224c-12.109049 7.038757-28.115262 7.008932-40.204427 0.009941a40.482796 40.482796 0 0 1-20.102213-34.855767c0-21.593476 17.497476-40.16466 40.204427-40.16466 22.498175 0 40.204427 18.37235 40.204427 40.16466a40.462913 40.462913 0 0 1-20.102214 34.845826zM627.006136 409.520466c1.928699-41.655922-13.87868-83.500738-43.355961-114.757592-29.427573-31.217087-70.158913-49.420427-111.755185-49.957282a156.244505 156.244505 0 0 0-112.64 45.334369A156.234563 156.234563 0 0 0 312.469126 402.143689c0 31.614757 9.305476 62.096155 26.932194 88.123651a9.941748 9.941748 0 1 0 16.463534-11.144699c-35.949359-53.128699-31.11767-126.956117 17.358292-174.81569a136.520078 136.520078 0 0 1 98.423301-39.617864c36.23767 0.467262 71.789359 16.403883 97.538485 43.713864 25.798835 27.369631 39.637748 63.895612 37.957592 100.202874a135.933515 135.933515 0 0 1-30.580815 80.170253c-30.879068 37.927767-48.217476 81.194252-50.474253 125.743223h-46.328543l-0.049709-147.674718 19.68466 12.904388a9.921864 9.921864 0 0 0 10.896155 0l35.094369-23.005204a9.941748 9.941748 0 1 0-10.886213-16.622602l-29.656233 19.436117-29.626408-19.436117c-0.328078-0.218718-0.695922-0.308194-1.043884-0.487146-0.328078-0.159068-0.636272-0.328078-0.984233-0.45732a9.812505 9.812505 0 0 0-6.859805 0c-0.347961 0.139184-0.656155 0.298252-0.984233 0.45732-0.347961 0.178951-0.715806 0.268427-1.043884 0.487146l-29.576699 19.426175-29.566757-19.426175a9.941748 9.941748 0 0 0-10.916039 16.622602l35.024777 23.005204a9.941748 9.941748 0 0 0 10.906097 0l19.654835-12.904388 0.039767 147.674718H410.892427a206.78835 206.78835 0 0 0-25.967844-94.078757 9.951689 9.951689 0 0 0-17.358292 9.703145 186.706019 186.706019 0 0 1 23.363107 84.942292c-16.254757 2.684272-30.024078 16.364117-30.024078 35.054602 0 9.414835 3.628738 18.630835 11.065165 25.649708-0.238602 0.22866-0.507029 0.377786-0.735689 0.606447a35.591456 35.591456 0 0 0 25.20233 60.634718h7.386719c7.257476 28.204738 32.608932 48.535612 62.35464 48.535612 29.725825 0 55.077282-20.330874 62.344699-48.535612h7.297243c19.803961 0 35.591456-16.105631 35.591456-35.591456a35.412505 35.412505 0 0 0-11.035339-25.629825c0.218718-0.198835 0.477204-0.357903 0.695922-0.56668 18.571184-18.690485 11.184466-51.14035-14.982214-59.05398 1.928699-40.532505 17.567068-80.080777 45.891107-114.847068a155.747417 155.747417 0 0 0 35.024777-91.821981zM466.178485 765.683573a44.59868 44.59868 0 0 1-41.576388-28.652117h83.152777a44.618563 44.618563 0 0 1-41.576389 28.652117z m69.641942-48.535612c0.994175 0-12.268117-0.099417-139.383301 0-8.609553 0-15.608544-7.048699-15.608543-15.707961 0-8.669204 7.048699-15.707961 15.608543-15.707961h139.383301a15.707961 15.707961 0 1 1 0 31.415922z m0.109359-51.398835H396.526602c-8.490252 0-15.737786-6.54167-15.737786-15.608543 0-9.414835 8.112466-15.737786 15.737786-15.737787-1.59068 0 19.823845 0.099417 139.244116 0.099418 0.139184 0 0.258485-0.069592 0.39767-0.079534 20.818019 0.347961 20.052505 31.326447-0.238602 31.326446zM479.023223 202.612816v-34.139962a9.941748 9.941748 0 1 0-19.883495 0v34.139962a9.941748 9.941748 0 1 0 19.883495 0zM335.484272 267.89033a9.941748 9.941748 0 0 0 0-14.057631l-24.148505-24.158447a9.941748 9.941748 0 1 0-14.057631 14.067573l24.158447 24.148505a9.941748 9.941748 0 0 0 14.047689 0zM236.066796 391.535845a9.941748 9.941748 0 1 0 0 19.883495h34.149903a9.941748 9.941748 0 1 0 0-19.883495h-34.149903zM702.086214 391.535845h-34.139962a9.941748 9.941748 0 1 0 0 19.883495h34.139962a9.941748 9.941748 0 1 0 0-19.883495zM640.864932 229.684194a9.941748 9.941748 0 0 0-14.057631 0l-24.138563 24.148505a9.941748 9.941748 0 1 0 14.057631 14.057631l24.138563-24.158447a9.941748 9.941748 0 0 0 0-14.047689z" fill="#077AF1" p-id="30956"></path></svg>