<?xml version="1.0" standalone="no"?><!DOCTYPE svg PUBLIC "-//W3C//DTD SVG 1.1//EN" "http://www.w3.org/Graphics/SVG/1.1/DTD/svg11.dtd"><svg t="1731548385237" class="icon" viewBox="0 0 1024 1024" version="1.1" xmlns="http://www.w3.org/2000/svg" p-id="78263" xmlns:xlink="http://www.w3.org/1999/xlink" width="200" height="200"><path d="M511.0784 512m-436.2752 0a436.2752 436.2752 0 1 0 872.5504 0 436.2752 436.2752 0 1 0-872.5504 0Z" fill="#F8D2FF" p-id="78264"></path><path d="M556.032 206.1824L747.52 316.7232A89.7024 89.7024 0 0 1 792.3712 394.24v221.1328a89.7024 89.7024 0 0 1-44.8512 77.824L556.032 803.84a89.7024 89.7024 0 0 1-89.7024 0l-191.5392-110.592a89.6512 89.6512 0 0 1-44.8-77.6704V394.24a89.6512 89.6512 0 0 1 44.8-77.6704l191.5392-110.3872a89.7024 89.7024 0 0 1 89.7024 0z" fill="#DB90F6" p-id="78265"></path><path d="M760.3712 430.08l-217.1904-125.44a64.1536 64.1536 0 0 0-64.0512 0L261.9904 430.08a63.9488 63.9488 0 0 0-32 55.4496v144.896a63.9488 63.9488 0 0 0 32 55.3984l217.1392 125.3888a63.8976 63.8976 0 0 0 64.0512 0l217.1904-125.3888a64.0512 64.0512 0 0 0 32-55.3984V485.4784A64.0512 64.0512 0 0 0 760.3712 430.08z" fill="#D186F7" p-id="78266"></path><path d="M760.3712 535.9104l-217.1904-125.3888a64.1536 64.1536 0 0 0-64.0512 0l-217.1392 125.3888a63.9488 63.9488 0 0 0-32 55.4496v39.0144a63.9488 63.9488 0 0 0 32 55.3984l217.1392 125.3888a63.8976 63.8976 0 0 0 64.0512 0l217.1904-125.3888a64.0512 64.0512 0 0 0 32-55.3984v-39.0144a64.0512 64.0512 0 0 0-32-55.4496z" fill="#C276F6" p-id="78267"></path><path d="M543.1808 516.4032a64.1536 64.1536 0 0 0-64.0512 0l-217.1392 125.3888a64.1536 64.1536 0 0 0-22.5792 22.016 64.4608 64.4608 0 0 0 22.5792 21.9648l217.1392 125.3888a63.8976 63.8976 0 0 0 64.0512 0l217.1904-125.3888a64.3072 64.3072 0 0 0 22.528-21.9648 64 64 0 0 0-22.528-22.016z" fill="#AF64F6" p-id="78268"></path><path d="M479.1296 622.2848L315.5968 716.8l163.5328 94.4128a63.8976 63.8976 0 0 0 64.0512 0L706.56 716.8l-163.5328-94.464a64.1536 64.1536 0 0 0-63.8976-0.0512z" fill="#A25BF4" p-id="78269"></path><path d="M392.9088 617.6256A21.8624 21.8624 0 0 1 372.736 604.16l-76.8-181.504a21.9136 21.9136 0 0 1 40.3968-17.1008l54.9888 130.304 47.4624-129.28a21.9136 21.9136 0 0 1 40.96 15.0528l-66.56 181.5552a21.8112 21.8112 0 0 1-20.0192 14.336zM530.6368 617.6256a21.9136 21.9136 0 0 1-21.9136-21.9136V414.208a21.9136 21.9136 0 0 1 43.8272 0v181.504a21.8624 21.8624 0 0 1-21.9136 21.9136zM613.632 617.6256a21.9136 21.9136 0 0 1-21.9136-21.9136V414.208a21.9136 21.9136 0 0 1 21.9136-21.9136h55.6544a69.376 69.376 0 1 1 0 138.7008h-33.6896v64.7168a21.9136 21.9136 0 0 1-21.9648 21.9136z m21.9648-130.4576h33.6896a25.6 25.6 0 0 0 0-51.2h-33.6896z" fill="#FFFFFF" p-id="78270"></path></svg>