<?xml version="1.0" standalone="no"?><!DOCTYPE svg PUBLIC "-//W3C//DTD SVG 1.1//EN" "http://www.w3.org/Graphics/SVG/1.1/DTD/svg11.dtd"><svg t="1731896173775" class="icon" viewBox="0 0 1024 1024" version="1.1" xmlns="http://www.w3.org/2000/svg" p-id="128129" xmlns:xlink="http://www.w3.org/1999/xlink" width="200" height="200"><path d="M0 811.7c6.8-15.2 18.3-20.7 35.1-20.6 231.4 0.4 462.7 0.2 694.1 0.2 24 0 33.8 9.7 33.9 33.4 0.1 16.6 0.2 33.2 0 49.8-0.3 20.4-10.6 30.4-31 30.4-233.6 0-467.3-0.1-700.9 0.2-16 0-25.3-7.4-31.2-21v-72.4z m688.6 37.1c0.3-13.3-11.6-25.3-25-25.3-13 0-24.4 11.3-24.7 24.3-0.3 13.2 10.4 24.5 23.8 25.1 13.6 0.6 25.6-10.6 25.9-24.1z m-81.1 0c0.2-13.5-10.4-24.8-23.8-25.3-13.3-0.5-25.8 11.6-25.7 24.9 0.1 13.1 11.5 24.5 24.7 24.5 13.6 0.1 24.6-10.6 24.8-24.1z m-105.7 24.1c13.6 0.2 24.6-10.4 24.9-23.9 0.4-13.8-11.1-25.6-24.7-25.5-13.3 0.1-24.2 11.2-24.3 24.7-0.1 13.6 10.6 24.5 24.1 24.7zM1024 512.7c-3 0.4-5.9 1.1-8.9 1.1-66.4 0.1-132.8 0.1-199.1 0-2.9 0-5.9-0.5-8.5-0.7 0-37.1-3.7-74.1 0.9-110 6.7-53.3 52.7-89.7 105.7-90.2 52.2-0.5 96.3 35.3 107.8 87.3 0.4 2 1.5 4 2.3 5.9-0.2 35.6-0.2 71.1-0.2 106.6z" fill="#626262" p-id="128130"></path><path d="M1024 558c-5.4 14.3-9.2 29.5-16.6 42.8-16.6 29.8-48.3 48.5-82.8 51.1V530.8h99.4V558z" fill="#54A8B9" p-id="128131"></path><path d="M735.9 404.3h-56.6v-12.9-178.9c0-36.9-23.2-60.4-59.8-60.4H142.7c-35.1 0-58.8 23.8-58.8 59.1-0.1 60 0 120 0 180.1v13.1H27.3v-12.7-224.2c0-44.2 27.8-72 72.1-72h565.1c43.4 0 71.5 28.1 71.5 71.5v224.2c-0.1 4.1-0.1 8.2-0.1 13.1z" fill="#F79633" p-id="128132"></path><path d="M83.9 443.7v190c0.1 35.7 24 59.8 59.5 59.8 44.2 0.1 88.3 0 132.5 0h342c37.9 0 61.4-23.5 61.4-61.3V456.7v-13.1h56.1c0.2 3.9 0.5 7.8 0.5 11.8 0 75.1 0.1 150.2 0 225.4 0 40-29.3 69.4-69.3 69.4-190.2 0.1-380.5 0.1-570.7 0-38.9 0-68.5-29.2-68.6-67.8-0.2-77-0.1-154 0-231 0-2.3 0.2-4.5 0.4-7.6 18.3-0.1 36.5-0.1 56.2-0.1z" fill="#626262" p-id="128133"></path><path d="M303.9 449.2c6.3 31.4 36.2 56.3 68.1 59.1 30.1 2.7 54.4-8.3 75.2-29.4 3.7-3.7 9.9-6.6 15.1-6.8 20.7-0.8 41.5-0.3 62.4-0.3-19.2 54.1-81 117.6-174.5 99.7-78.3-15-131.3-95.6-116.4-177.8C248.8 311 324 258 407.1 273c77.6 14 132.7 79.2 123.7 176.1-75.3 0.1-150.6 0.1-226.9 0.1z m150.6-61.3c-9.2-33.2-36.9-52.3-74.6-51.9-34.2 0.4-64.5 22-72 51.9h146.6z" fill="#54A8B9" p-id="128134"></path><path d="M807 530.3h96.5v119.9c-51.7 6.3-102.8-57.1-96.5-119.9zM775.8 857.4c-3.3-11.7-0.1-17.1 11.6-21.1 69.7-23.8 117.2-89.7 118.8-163.1 0.1-2.9 0.3-5.9 0.5-9.3h14.8c9.2 72.9-48.2 172.4-145.7 193.5z" fill="#626262" p-id="128135"></path></svg>