<?xml version="1.0" standalone="no"?><!DOCTYPE svg PUBLIC "-//W3C//DTD SVG 1.1//EN" "http://www.w3.org/Graphics/SVG/1.1/DTD/svg11.dtd"><svg t="1731895989587" class="icon" viewBox="0 0 1024 1024" version="1.1" xmlns="http://www.w3.org/2000/svg" p-id="118489" xmlns:xlink="http://www.w3.org/1999/xlink" width="200" height="200"><path d="M512 975.36c-4.096 0-8.704-1.024-12.8-3.584-165.376-95.232-267.776-272.896-267.776-463.36 0-188.928 101.888-366.08 265.728-462.336 12.288-7.168 27.648-3.072 34.816 9.216 7.168 12.288 3.072 27.648-9.216 34.816-147.968 87.04-240.128 247.296-240.128 418.304 0 172.544 92.672 332.8 242.176 419.328 12.288 7.168 16.384 22.528 9.216 34.816-4.608 8.192-13.312 12.8-22.016 12.8z" fill="#FF9D4D" p-id="118490"></path><path d="M71.168 535.552c-4.096 0-8.704-1.024-12.8-3.584-12.288-7.168-16.384-22.528-9.216-34.816 95.232-165.376 272.896-267.776 463.36-267.776 188.928 0 366.08 101.888 462.336 265.728 7.168 12.288 3.072 27.648-9.216 34.816-12.288 7.168-27.648 3.072-34.816-9.216-87.04-147.968-247.296-240.128-418.304-240.128-172.544 0-332.8 92.672-419.328 242.176-4.608 8.192-13.312 12.8-22.016 12.8z" fill="#FF9D4D" p-id="118491"></path><path d="M512.512 792.064c-190.464 0-368.128-102.4-463.36-267.776-7.168-12.288-3.072-27.648 9.216-34.816 12.288-7.168 27.648-3.072 34.816 9.216 86.016 149.504 246.784 242.176 419.328 242.176 171.008 0 331.264-92.16 418.304-240.128 7.168-12.288 23.04-16.384 34.816-9.216 12.288 7.168 16.384 23.04 9.216 34.816-96.256 163.84-273.408 265.728-462.336 265.728z" fill="#FF9D4D" p-id="118492"></path><path d="M513.024 977.408c-8.704 0-17.408-4.608-22.016-12.8-7.168-12.288-3.072-27.648 9.216-34.816 148.992-86.016 241.152-246.784 241.152-418.816 0-173.568-93.696-334.336-244.224-420.352-12.288-7.168-16.384-22.528-9.728-34.816 7.168-12.288 22.528-16.384 34.816-9.728 166.4 94.72 269.824 272.896 269.824 464.384 0 190.464-102.4 367.616-266.752 462.848-3.584 3.072-7.68 4.096-12.288 4.096z" fill="#FF9D4D" p-id="118493"></path><path d="M512 962.56c-14.336 0-25.6-11.264-25.6-25.6V80.896c0-14.336 11.264-25.6 25.6-25.6s25.6 11.264 25.6 25.6V936.96c0 14.336-11.264 25.6-25.6 25.6z" fill="#FF9D4D" p-id="118494"></path><path d="M940.032 534.528H83.968c-14.336 0-25.6-11.264-25.6-25.6s11.264-25.6 25.6-25.6h856.064c14.336 0 25.6 11.264 25.6 25.6s-11.264 25.6-25.6 25.6z" fill="#FF9D4D" p-id="118495"></path><path d="M512 2.56C231.424 2.56 3.584 229.888 3.584 510.976S231.424 1018.88 512 1018.88s508.416-227.328 508.416-508.416S793.088 2.56 512 2.56z m0 941.568c-239.616 0-433.664-194.048-433.664-433.664C78.336 270.848 272.384 76.8 512 76.8s433.664 194.048 433.664 433.664-194.048 433.664-433.664 433.664z" fill="#F4DCCB" p-id="118496"></path></svg>