<?xml version="1.0" standalone="no"?><!DOCTYPE svg PUBLIC "-//W3C//DTD SVG 1.1//EN" "http://www.w3.org/Graphics/SVG/1.1/DTD/svg11.dtd"><svg t="1731896205040" class="icon" viewBox="0 0 1024 1024" version="1.1" xmlns="http://www.w3.org/2000/svg" p-id="130390" xmlns:xlink="http://www.w3.org/1999/xlink" width="200" height="200"><path d="M512 64c240.298667 0 437.824 189.376 448 427.626667v30.549333C953.898667 764.522667 756.352 960 512 960 267.626667 960 70.101333 764.501333 64 522.176v-30.549333C74.176 253.376 271.701333 64 512 64z m0 93.674667c-54.976 0-130.346667 128.298667-146.624 270.826666 0 18.346667-30.549333 18.346667-30.549333 0 2.048-22.4 6.122667-42.752 10.197333-63.125333-44.8-12.202667-95.722667-32.576-132.373333-65.152-38.677333 54.976-61.098667 120.149333-65.152 189.376h126.250666c10.176 0 16.277333 6.101333 16.277334 16.298667a16.064 16.064 0 0 1-16.277334 16.277333H147.498667c2.026667 73.322667 24.426667 142.549333 65.152 199.573333 18.346667-14.250667 38.698667-26.474667 57.024-36.650666 26.453333-14.272 42.752 12.202667 16.277333 26.453333-18.325333 8.149333-36.650667 20.373333-54.976 34.624 57.024 69.248 138.474667 116.074667 232.149333 124.224-20.352-16.298667-40.725333-38.698667-59.050666-67.2-4.074667-14.250667 16.277333-30.549333 36.650666 0 22.4 32.576 48.874667 52.949333 69.248 52.949333 22.4 0 46.826667-20.373333 71.253334-54.976 14.250667-24.448 40.746667-14.272 34.624 2.026667-18.325333 30.549333-40.725333 54.976-61.098667 69.226667 95.722667-10.176 179.2-57.002667 238.272-128.277334-18.346667-14.250667-36.672-26.474667-54.997333-34.624-26.453333-12.224-12.202667-40.746667 16.298666-26.453333 20.373333 12.202667 40.746667 24.426667 57.024 38.677333 40.725333-57.024 65.152-124.224 67.2-197.546666h-126.250666c-10.197333 0-16.298667-6.101333-16.298667-16.277334 0-10.176 8.149333-16.298667 16.298667-16.298666h126.250666c-4.074667-67.2-26.474667-132.352-63.146666-185.301334-36.650667 32.576-87.552 52.949333-134.4 65.173334 4.096 20.352 8.149333 40.725333 10.197333 61.077333 2.026667 16.298667-28.522667 18.346667-30.549333 0C642.346667 288 566.997333 157.674667 512 157.674667z m0 167.381333c57.024 0 101.824 44.8 101.824 101.824v81.450667h44.8c10.176 0 20.352 8.128 18.325333 20.352v195.498666c0 12.202667-8.149333 20.352-20.373333 20.352H355.2c-12.224 0-20.373333-8.149333-20.373333-20.352v-195.498666c0-12.224 8.149333-20.352 20.373333-20.352h217.898667V426.88c0-34.624-26.474667-61.098667-61.098667-61.098667-34.624 0-61.098667 28.501333-61.098667 61.098667v30.528h-40.725333V426.88c0-57.024 44.8-101.824 101.824-101.824z m0 252.501333c-22.4 0-40.746667 18.346667-40.746667 40.746667 0 14.229333 8.170667 28.501333 20.373334 34.602667v2.026666c0 12.224 8.149333 20.373333 20.373333 20.373334s20.373333-10.176 20.373333-22.4c12.202667-6.101333 20.352-20.373333 20.352-34.624 0-22.4-18.346667-40.725333-40.746666-40.725334z m57.024-425.984c42.752 36.650667 81.450667 105.877333 103.850667 189.376 36.650667-10.176 83.477333-26.474667 124.202666-59.050666-57.002667-69.248-136.426667-116.074667-228.053333-130.346667z m-114.048 0c-89.6 14.250667-169.024 59.050667-224 128.277334 40.746667 32.597333 85.546667 48.874667 122.176 59.050666 22.4-81.450667 61.098667-150.677333 101.824-187.328z" fill="#FF6A00" p-id="130391"></path></svg>