<?xml version="1.0" standalone="no"?><!DOCTYPE svg PUBLIC "-//W3C//DTD SVG 1.1//EN" "http://www.w3.org/Graphics/SVG/1.1/DTD/svg11.dtd"><svg t="1731896072125" class="icon" viewBox="0 0 1024 1024" version="1.1" xmlns="http://www.w3.org/2000/svg" p-id="119212" xmlns:xlink="http://www.w3.org/1999/xlink" width="200" height="200"><path d="M36.9664 459.639467a16.5888 16.5888 0 0 0 16.6912 18.2272h203.1616a17.237333 17.237333 0 0 0 17.169067-16.657067c4.232533-118.101333 23.1424-226.338133 53.0432-310.0672 6.929067-19.456 14.677333-38.161067 23.313066-55.7056 6.997333-14.336-6.417067-31.197867-21.162666-25.088-157.7984 65.399467-272.9984 212.923733-292.181334 389.290667zM694.784 70.314667c-14.711467-6.075733-28.125867 10.786133-21.128533 25.122133 8.635733 17.544533 16.384 36.283733 23.313066 55.7056 29.9008 83.729067 48.810667 192 53.0432 310.0672 0.341333 9.250133 7.918933 16.657067 17.169067 16.657067h221.4912c-13.0048-184.388267-130.628267-339.899733-293.888-407.552zM681.6768 460.356267a16.930133 16.930133 0 0 1-16.930133 17.5104h-305.493334a16.930133 16.930133 0 0 1-16.930133-17.5104C351.5392 220.740267 423.936 34.133333 512 34.133333s160.494933 186.5728 169.6768 426.222934z" fill="#11AA66" p-id="119213"></path><path d="M329.181867 953.685333c14.7456 6.075733 28.16-10.786133 21.162666-25.122133a537.565867 537.565867 0 0 1-23.313066-55.7056c-29.9008-83.729067-48.810667-192-53.0432-310.0672A17.237333 17.237333 0 0 0 256.8192 546.133333H53.6576c-9.898667 0-17.749333 8.3968-16.6912 18.2272 19.217067 176.366933 134.417067 323.925333 292.215467 389.290667z m13.141333-390.0416C351.5392 803.259733 423.936 989.866667 512 989.866667s160.494933-186.5728 169.6768-426.222934a16.930133 16.930133 0 0 0-16.930133-17.5104h-305.493334a16.930133 16.930133 0 0 0-16.930133 17.5104z m644.7104 0.7168a16.5888 16.5888 0 0 0-16.6912-18.2272h-203.1616a17.237333 17.237333 0 0 0-17.169067 16.657067c-4.232533 118.101333-23.1424 226.338133-53.0432 310.0672-6.929067 19.456-14.677333 38.126933-23.313066 55.739733-6.997333 14.301867 6.417067 31.163733 21.162666 25.053867 157.7984-65.399467 272.9984-212.923733 292.181334-389.290667z" fill="#FFAA44" p-id="119214"></path></svg>