<?xml version="1.0" standalone="no"?><!DOCTYPE svg PUBLIC "-//W3C//DTD SVG 1.1//EN" "http://www.w3.org/Graphics/SVG/1.1/DTD/svg11.dtd"><svg t="1731547934628" class="icon" viewBox="0 0 1024 1024" version="1.1" xmlns="http://www.w3.org/2000/svg" p-id="56103" xmlns:xlink="http://www.w3.org/1999/xlink" width="200" height="200"><path d="M512 512m-481.882353 0a481.882353 481.882353 0 1 0 963.764706 0 481.882353 481.882353 0 1 0-963.764706 0Z" fill="#FF0000" p-id="56104"></path><path d="M512 512m-406.588235 0a406.588235 406.588235 0 1 0 813.17647 0 406.588235 406.588235 0 1 0-813.17647 0Z" fill="#FFFFFF" p-id="56105"></path><path d="M512 210.823529a232.779294 232.779294 0 0 0-109.628235 438.211765v54.814118c0 15.058824 12.348235 27.407059 27.407059 27.407059h164.141176c15.058824 0 27.407059-12.348235 27.407059-27.407059v-54.814118A232.779294 232.779294 0 0 0 511.698824 210.823529z m0 102.701177c-64.752941 0-119.265882 45.176471-130.409412 106.315294-2.108235 11.143529-12.950588 18.371765-24.094117 16.263529a20.570353 20.570353 0 0 1-16.26353-23.491764c14.456471-80.715294 86.437647-140.047059 170.767059-140.047059 11.444706 0 20.48 9.336471 20.48 20.48s-9.336471 20.48-20.48 20.48zM573.741176 772.216471h-123.181176c-11.444706 0-20.48 9.336471-20.48 20.48s9.336471 20.48 20.48 20.48h123.181176c11.444706 0 20.48-9.336471 20.48-20.48s-9.336471-20.48-20.48-20.48z" fill="#FF0000" p-id="56106"></path></svg>