<?xml version="1.0" standalone="no"?><!DOCTYPE svg PUBLIC "-//W3C//DTD SVG 1.1//EN" "http://www.w3.org/Graphics/SVG/1.1/DTD/svg11.dtd"><svg t="1731547876427" class="icon" viewBox="0 0 1024 1024" version="1.1" xmlns="http://www.w3.org/2000/svg" p-id="53467" xmlns:xlink="http://www.w3.org/1999/xlink" width="200" height="200"><path d="M189.341439 481.394124a12.449848 12.449848 0 1 1-12.449848-12.657346 12.449848 12.449848 0 0 1 12.449848 12.657346z m-12.449848-45.649443a13.90233 13.90233 0 1 0 13.90233 13.90233 13.90233 13.90233 0 0 0-13.90233-13.90233z m0 99.806282a9.959878 9.959878 0 0 0-9.752381 9.959878 9.752381 9.752381 0 0 0 19.504762 0 9.959878 9.959878 0 0 0-9.752381-10.167376z m-27.389666-74.076596a13.07234 13.07234 0 0 0 8.299899-12.034853z m27.389666 41.499493a11.204863 11.204863 0 1 0 10.997365 11.204863 11.204863 11.204863 0 0 0-10.997365-12.034853z m-31.95461-33.199595l-9.959879 14.939818a11.619858 11.619858 0 0 0 10.997366 7.884904 11.619858 11.619858 0 0 0 0-23.032219z m0 99.391287a8.299899 8.299899 0 0 0-8.092401 8.092401 8.092401 8.092401 0 0 0 8.092401 7.884904 7.884904 7.884904 0 0 0 7.884903-7.884904 8.092401 8.092401 0 0 0-7.884903-8.092401z m0 66.39919a5.602432 5.602432 0 1 0 5.602431 5.602431 5.602432 5.602432 0 0 0-5.602431-5.602431z m0-33.199595a6.847416 6.847416 0 1 0 6.847416 6.847416 6.847416 6.847416 0 0 0-6.847416-7.469908z m0-66.191692a9.129889 9.129889 0 1 0 9.129888 9.129888 9.129889 9.129889 0 0 0-9.129888-9.129888z m31.95461 32.369605a8.714894 8.714894 0 1 0 8.714893 8.714893 8.714894 8.714894 0 0 0-8.714893-8.714893z m114.538602-23.239717a13.07234 13.07234 0 0 0 4.357446 9.752381l14.524823-21.994731a12.449848 12.449848 0 0 0-5.602432-1.244985 13.487335 13.487335 0 0 0-13.279837 13.487335z m-104.993719-139.853292l-16.807295 25.314691a14.524823 14.524823 0 0 0 7.262412 1.867477 15.147315 15.147315 0 0 0 15.147315-15.147315 15.769807 15.769807 0 0 0-5.602432-12.034853z m235.09463 42.951975l-38.594529-25.522188-26.97467 41.499493a18.88227 18.88227 0 0 1-3.734955-4.357447 17.637285 17.637285 0 0 1-7.884903 6.639919 18.88227 18.88227 0 0 1 6.432421 5.602432l-29.46464 44.611955a12.657345 12.657345 0 0 1 0-2.904964 15.769807 15.769807 0 0 1 12.034853-15.354813 16.807295 16.807295 0 0 1-12.864843-12.24235 16.184802 16.184802 0 0 1-31.747113-4.357447 16.3923 16.3923 0 0 1 11.204864-15.354813 17.429787 17.429787 0 0 1-11.412361-10.789868 17.014792 17.014792 0 0 1-15.56231 10.789868 16.599797 16.599797 0 0 1-16.3923-14.317325 15.769807 15.769807 0 1 1-19.297264-17.637284 16.807295 16.807295 0 0 1-12.657346-12.449849 16.184802 16.184802 0 1 1-20.749747-19.504761 17.637285 17.637285 0 0 1-10.167375-8.507397l44.19696-66.814184-38.594529-25.522188 89.223911-28.634651 112.878622-36.312057z m-195.462614-141.928267l-1.867477-1.867477-1.867477 1.867477 1.867477 1.867477z m-8.507396 63.701722a17.844782 17.844782 0 0 1 6.847417 7.262412 15.354813 15.354813 0 0 1 6.017426-7.054914 20.749747 20.749747 0 0 1-6.224924-6.017427 16.3923 16.3923 0 0 1-6.639919 5.809929z m15.56231 31.95461a18.259777 18.259777 0 0 1-8.714893-8.507396 17.429787 17.429787 0 0 1-10.582371 8.507396 15.977305 15.977305 0 0 1 10.582371 10.997366 17.22229 17.22229 0 0 1 8.714893-10.997366z m22.409727-95.656332l1.037487-1.244985z m-2.074975 31.95461a16.599797 16.599797 0 0 1 2.697467 2.697467l2.48997-2.697467-2.48997-2.48997z m-2.282472 31.95461a17.637285 17.637285 0 0 1 5.187437 5.187436 17.637285 17.637285 0 0 1 4.357446-5.187436 31.539615 31.539615 0 0 1-4.564944-4.564945 17.637285 17.637285 0 0 1-4.979939 4.564945z m-2.697467 31.747112a17.637285 17.637285 0 0 1 7.884904 8.092401 18.674772 18.674772 0 0 1 6.847416-8.092401 18.05228 18.05228 0 0 1-6.847416-6.847416 18.05228 18.05228 0 0 1-7.884904 6.847416z m17.637285 31.95461a17.637285 17.637285 0 0 1-9.752381-9.544883 17.637285 17.637285 0 0 1-11.827356 9.544883 15.769807 15.769807 0 0 1 11.827356 12.864843 16.599797 16.599797 0 0 1 9.752381-12.864843z m22.202228-128.233435z m-1.452482 32.577103l1.244985 1.244985 1.452482-1.65998-1.244985-1.037487a4.772442 4.772442 0 0 1-1.452482 1.452482zM285.205268 370.382979a18.05228 18.05228 0 0 1 3.31996 3.527457 17.22229 17.22229 0 0 1 3.112462-3.527457l-3.112462-3.112462a23.654711 23.654711 0 0 1-3.31996 3.112462z m-2.489969 31.747112a18.467275 18.467275 0 0 1 5.809929 6.224924 18.467275 18.467275 0 0 1 5.187437-6.017426 25.729686 25.729686 0 0 1-5.187437-5.394934 17.22229 17.22229 0 0 1-6.224924 5.187436z m13.694833 32.162108a20.749747 20.749747 0 0 1-7.884904-7.677407 17.22229 17.22229 0 0 1-8.714894 7.469909 17.014792 17.014792 0 0 1 8.922391 9.337386 16.807295 16.807295 0 0 1 7.262412-9.129888z m24.069706-96.278825z m-1.867477 32.369605l1.867477 2.074974 1.867477-2.074974-1.867477-1.65998z m-2.074975 31.95461a15.147315 15.147315 0 0 1 3.942452 4.149949 25.107194 25.107194 0 0 1 3.942452-4.149949l-3.942452-3.734955a22.617224 22.617224 0 0 1-4.357447 3.734955z m-2.697467 31.95461a17.22229 17.22229 0 0 1 6.847416 7.054913 15.354813 15.354813 0 0 1 6.017427-7.054913 20.749747 20.749747 0 0 1-6.224924-6.017427 18.467275 18.467275 0 0 1-7.054914 6.017427z m15.56231 31.747112a18.259777 18.259777 0 0 1-8.714894-8.507396 17.429787 17.429787 0 0 1-10.374873 8.507396 16.184802 16.184802 0 0 1 10.374873 10.997366 17.22229 17.22229 0 0 1 8.299899-10.997366z m55.194326-96.278825z m-31.539615-32.162107z m-1.037487 32.7846l1.037487-1.244985s-1.244985 0.82999-1.452482 1.244985z m-2.074975 31.95461a15.354813 15.354813 0 0 1 2.48997 2.697467l2.489969-2.697467-2.489969-2.48997z m7.262412 31.95461a20.749747 20.749747 0 0 1-4.772442-4.564945 16.599797 16.599797 0 0 1-4.772442 4.564945 20.749747 20.749747 0 0 1 4.979939 5.187436 18.259777 18.259777 0 0 1 4.14995-5.187436z m28.63465-32.162108v-1.037487l-1.65998 1.244985 1.452483 1.244984z m30.502128 0z m0 34.237082l1.867477-2.074974-1.65998-1.65998-2.074975 1.65998z m-183.427761 204.8a7.677406 7.677406 0 0 0 2.282472 5.602432l8.714894-13.072341h-3.112462a7.884904 7.884904 0 0 0-7.884904 7.469909zM176.891591 601.742655a7.677406 7.677406 0 1 0 7.677406 7.677406 7.884904 7.884904 0 0 0-7.677406-7.677406z m0 33.199594a6.432421 6.432421 0 1 0 6.432421 6.432422 6.432421 6.432421 0 0 0-6.432421-6.639919z m0 32.992098a5.394934 5.394934 0 1 0 5.394934 5.394934 5.394934 5.394934 0 0 0-5.394934-5.602432z m0 33.199594A4.149949 4.149949 0 1 0 181.456535 705.491388a4.149949 4.149949 0 0 0-4.564944-4.564944z m-3.112462 36.10456a3.734954 3.734954 0 0 0 0 1.867477l3.112462-4.772442a3.112462 3.112462 0 0 0-3.112462 2.697467z m35.067072-169.317934a9.544883 9.544883 0 1 0 9.544883 9.544884 9.752381 9.752381 0 0 0-9.544883-9.752381z m0-32.992097a10.582371 10.582371 0 1 0 10.58237 10.582371 10.582371 10.582371 0 0 0-10.58237-10.789868z m0 66.191692a8.299899 8.299899 0 1 0 8.299898 8.299899 8.299899 8.299899 0 0 0-8.299898-7.677406z m0-133.005876a13.487335 13.487335 0 1 0 13.279838 13.487335 13.279838 13.279838 0 0 0-13.279838-13.694833z m0-33.407092a14.939818 14.939818 0 1 0 14.73232 14.939817 14.73232 14.73232 0 0 0-14.73232-15.147315z m0 66.814184a12.034853 12.034853 0 1 0 12.034853 12.034853 12.034853 12.034853 0 0 0-12.034853-12.242351z m-63.90922 200.027558a3.527457 3.527457 0 1 0 3.527457 3.527457 3.734954 3.734954 0 0 0-3.527457-3.527457z m0 33.199595a2.282472 2.282472 0 1 0 2.282472 2.282472 2.282472 2.282472 0 0 0-2.282472-2.282472z m0 33.199595a1.244985 1.244985 0 0 0-1.244985 1.037487 1.244985 1.244985 0 0 0 1.244985 1.244985 1.244985 1.244985 0 0 0 0-1.244985V767.740628z m63.90922-100.843769a6.017427 6.017427 0 1 0 6.017426 6.017426 6.017427 6.017427 0 0 0-6.017426-6.017426z m0-33.199595a7.262411 7.262411 0 1 0 7.262411 7.262411 7.262411 7.262411 0 0 0-7.262411-7.262411z m-63.90922 34.652077a4.564944 4.564944 0 1 0 4.564944 4.564944 4.564944 4.564944 0 0 0-4.564944-4.564944z m127.818439-135.703344a12.449848 12.449848 0 1 0 12.449848 12.449848 12.449848 12.449848 0 0 0-12.449848-12.449848z m0-66.814184a15.354813 15.354813 0 1 0 15.354813 15.354813 15.354813 15.354813 0 0 0-15.354813-15.354813z m0 100.221277a10.997366 10.997366 0 0 0-10.997365 10.997365 10.997366 10.997366 0 0 0 10.997365 10.997366h1.244985l9.337386-14.317325a10.997366 10.997366 0 0 0-10.582371-7.677406zM304.71003 497.993921a14.939818 14.939818 0 0 0 0 29.672138 14.939818 14.939818 0 0 0 0-29.672138z m-31.95461 1.037487a13.90233 13.90233 0 0 0-13.90233 13.902331 13.90233 13.90233 0 0 0 27.804661 0 13.90233 13.90233 0 0 0-13.902331-13.487336z m-31.954609-32.162107a14.524823 14.524823 0 1 0 14.317325 14.524823 14.317325 14.317325 0 0 0-14.317325-14.524823z m0 133.213374a9.129889 9.129889 0 0 0-9.129889 9.129888 9.129889 9.129889 0 0 0 18.259777 0 9.129889 9.129889 0 0 0-9.129888-9.129888z m-95.86383-97.108815a10.374873 10.374873 0 1 0 0 20.749747 10.374873 10.374873 0 0 0 0-20.749747z m95.86383 30.709625a11.412361 11.412361 0 0 0-11.412361 11.619858 11.204863 11.204863 0 0 0 11.412361 11.412361 11.412361 11.412361 0 0 0 11.619858-11.412361 11.619858 11.619858 0 0 0-11.619858-11.619858z m0-33.407092a13.07234 13.07234 0 1 0 12.864842 13.072341 13.07234 13.07234 0 0 0-12.864842-13.072341z m0 66.814185a10.167376 10.167376 0 1 0 10.167375 10.167375 10.167376 10.167376 0 0 0-10.167375-10.167375zM112.982371 602.987639a6.432421 6.432421 0 0 0-6.224924 6.224924 6.224924 6.224924 0 0 0 6.224924 6.017427 6.017427 6.017427 0 0 0 6.224924-6.017427 6.224924 6.224924 0 0 0-6.224924-6.224924z m0 66.39919a3.734954 3.734954 0 1 0 0 7.469909 3.734954 3.734954 0 0 0 0-7.469909z m-31.95461 33.822087a1.867477 1.867477 0 1 0 0 3.734954 1.867477 1.867477 0 0 0 0-3.734954z m31.95461-133.213374a7.054914 7.054914 0 0 0-7.262412 7.262411 7.262411 7.262411 0 0 0 7.262412 7.262412 7.262411 7.262411 0 0 0 7.262411-7.262412 7.262411 7.262411 0 0 0-7.262411-7.262411z m0-32.992097a8.299899 8.299899 0 1 0 8.299899 8.299898 8.299899 8.299899 0 0 0-8.299899-8.299898z m0 99.183789a4.979939 4.979939 0 1 0 4.979939 4.979939 4.979939 4.979939 0 0 0-4.979939-4.979939z m-3.527457-114.123607a9.752381 9.752381 0 0 0 3.527457 0 9.752381 9.752381 0 0 0 9.544883-9.544883 9.337386 9.337386 0 0 0-3.319959-5.809929z m3.527457 180.315299a2.697467 2.697467 0 1 0 2.697467 2.697467 2.697467 2.697467 0 0 0-2.697467-2.697467z m0 33.199595a1.452482 1.452482 0 1 0 1.452482 1.452482 1.452482 1.452482 0 0 0-1.452482-1.452482z m0 33.407092h0.414995z m-31.95461-198.160081a6.432421 6.432421 0 1 0 6.432421 6.432421 6.432421 6.432421 0 0 0-6.432421-6.432421z m-31.95461 100.013779a2.282472 2.282472 0 1 0 2.282472 2.282472 2.282472 2.282472 0 0 0-2.282472-2.282472z m0 32.992097a1.244985 1.244985 0 1 0 0 2.48997 1.244985 1.244985 0 0 0 0-2.48997z m0-66.191692a3.527457 3.527457 0 0 0 0 7.054914 3.527457 3.527457 0 0 0 0-7.054914z m0-23.862208a4.564944 4.564944 0 0 0 4.564944-4.564945 6.017427 6.017427 0 0 0 0-1.867477zM17.118541 671.461803a1.65998 1.65998 0 0 0 0 3.31996 1.65998 1.65998 0 0 0 0-3.31996z m0 33.199595z m63.90922-34.652077a3.112462 3.112462 0 1 0 3.112462 3.112462 3.112462 3.112462 0 0 0-3.112462-3.112462z m0-33.199595a4.357447 4.357447 0 0 0-3.31996 4.357447 4.149949 4.149949 0 0 0 4.357447 4.14995 4.149949 4.149949 0 0 0 4.14995-4.14995 4.357447 4.357447 0 0 0-5.187437-4.357447z m0-32.992097a5.394934 5.394934 0 0 0 0 10.789868 5.394934 5.394934 0 0 0 0-10.789868z m0 132.383384z" fill="#FF9900" p-id="53468"></path><path d="M458.880648 523.516109a3.734954 3.734954 0 0 1-3.942451 3.942452 3.942452 3.942452 0 0 1-3.942452-3.942452 4.149949 4.149949 0 0 1 3.942452-3.942451 3.942452 3.942452 0 0 1 3.942451 3.942451z m-3.942451 29.049646a2.904965 2.904965 0 0 0-2.904965 2.904964 3.112462 3.112462 0 0 0 2.904965 3.112462 3.112462 3.112462 0 0 0 3.112462-3.112462 3.112462 3.112462 0 0 0-3.112462-2.904964z m0 32.7846a2.074975 2.074975 0 0 0-2.074975 2.074974 2.074975 2.074975 0 0 0 4.149949 0 2.074975 2.074975 0 0 0-2.074974-2.074974z m0 65.984194s-0.414995-0.207497-0.414995 0z m32.369604 0a1.037487 1.037487 0 0 0 0 1.037487l1.037488-1.037487-1.452483-0.82999z m0-32.992097a1.867477 1.867477 0 1 0 1.867478 1.867477 1.867477 1.867477 0 0 0-2.282473-2.697467z m0 65.776697z m-96.278824-64.73921z m95.863829-34.652077a2.697467 2.697467 0 0 0 0 5.394934 2.697467 2.697467 0 0 0 0-5.394934zM1008.541439 321.621074l-56.646809-37.349544-2.697467-1.867477-8.507396-5.602432L918.072543 311.246201a19.089767 19.089767 0 0 1-5.187437 4.772441l1.65998 1.037488-20.749747 30.917122a20.749747 20.749747 0 0 1-8.092401-7.884903 18.467275 18.467275 0 0 1-8.922391 7.884903 15.56231 15.56231 0 0 1 8.922391 9.544884l-31.747112 10.167376-25.314691 8.299898a16.3923 16.3923 0 0 1-6.224924-12.657345 15.769807 15.769807 0 0 1 11.619858-15.354813 17.429787 17.429787 0 0 1-11.827356-11.619858 16.3923 16.3923 0 0 1-31.95461-3.112462 15.56231 15.56231 0 0 1-15.56231 13.90233 15.769807 15.769807 0 0 1-15.977305-15.769807 15.977305 15.977305 0 0 1 12.449848-15.56231 16.3923 16.3923 0 0 1-12.864843-12.657346 16.184802 16.184802 0 0 1-15.56231 12.242351 15.977305 15.977305 0 0 1-16.184802-15.977305 16.3923 16.3923 0 0 1 11.619858-15.56231 17.22229 17.22229 0 0 1-11.827356-11.204863 16.3923 16.3923 0 0 1-14.939817 11.204863 15.56231 15.56231 0 1 1-1.244985 0 16.184802 16.184802 0 0 1-15.769807-14.109828 15.769807 15.769807 0 1 1-19.089767-17.844782 16.3923 16.3923 0 0 1-12.864843-12.449848 16.184802 16.184802 0 0 1-31.95461-3.942452 16.599797 16.599797 0 0 1 11.41236-15.56231 16.807295 16.807295 0 0 1-11.41236-11.204863 16.599797 16.599797 0 0 1-15.147315 11.204863 15.56231 15.56231 0 0 1 14.939817 15.56231 15.56231 15.56231 0 0 1-29.46464 6.639919l29.257143-44.611955a8.714894 8.714894 0 0 1 1.244985-2.904965l1.244984-2.074975a20.749747 20.749747 0 0 1 6.017427-5.187436L637.950963 186.74772l20.749746-30.502127a20.749747 20.749747 0 0 1 5.187437 5.394934 14.939818 14.939818 0 0 1 5.187437-5.602432 22.202229 22.202229 0 0 1-5.394935-5.394934 13.694833 13.694833 0 0 1-3.734954 3.942452l29.46464-45.02695-24.692198-16.3923 1.037487-1.244985a15.769807 15.769807 0 0 1-1.867477-1.867477l-1.65998 1.452482-41.706991-25.729686L942.349747 0l11.41236 55.609321a17.22229 17.22229 0 0 1-3.319959 4.357447 17.844782 17.844782 0 0 1 3.734954-2.904965zM663.058156 60.381763h-1.037487z m-8.507396 128.025937a19.089767 19.089767 0 0 1 7.884904 8.299899 16.184802 16.184802 0 0 1 7.262411-8.092401 18.259777 18.259777 0 0 1-7.262411-7.054914 20.749747 20.749747 0 0 1-7.884904 6.847416z m17.429787 31.95461a17.22229 17.22229 0 0 1-9.544883-9.129889 16.807295 16.807295 0 0 1-10.997366 9.129889 16.3923 16.3923 0 0 1 10.997366 11.412361 17.014792 17.014792 0 0 1 9.544883-11.412361z m22.409727-159.980547z m-1.244985 32.162107l1.244985 1.244985 1.037487-1.244985a2.48997 2.48997 0 0 1-1.037487 0zM691.485309 124.49848a16.599797 16.599797 0 0 1 2.697467 2.697467l2.697467-2.697467a7.054914 7.054914 0 0 1-2.489969-2.489969 17.844782 17.844782 0 0 1-2.904965 2.489969z m-1.65998 32.162108a18.259777 18.259777 0 0 1 4.564945 4.357446 16.599797 16.599797 0 0 1 4.149949-4.357446 27.804661 27.804661 0 0 1-4.357447-4.14995 27.804661 27.804661 0 0 1-4.357447 4.14995z m-2.074974 31.95461a18.467275 18.467275 0 0 1 6.639919 6.639919 16.3923 16.3923 0 0 1 5.809929-6.639919 22.202229 22.202229 0 0 1-5.809929-5.80993 18.05228 18.05228 0 0 1-6.639919 5.80993z m-2.282473 31.747112a17.429787 17.429787 0 0 1 8.922392 9.129889 17.844782 17.844782 0 0 1 7.884903-9.129889 17.014792 17.014792 0 0 1-7.884903-7.884904 18.259777 18.259777 0 0 1-8.922392 7.884904z m19.297265 31.95461a16.807295 16.807295 0 0 1-10.374873-10.167376 16.807295 16.807295 0 0 1-12.242351 10.167376 15.977305 15.977305 0 0 1 12.242351 13.07234 16.3923 16.3923 0 0 1 10.374873-13.07234z m20.749747-159.77305zM724.477406 124.49848l1.65998 1.867477 1.65998-1.867477-1.65998-1.452482a5.602432 5.602432 0 0 1-1.65998 1.452482z m-1.452482 32.162108a23.654711 23.654711 0 0 1 3.112462 3.319959l3.112462-3.319959s-2.074975-1.867477-3.112462-3.112462a14.73232 14.73232 0 0 1-3.112462 3.112462zM720.949949 188.615198a17.637285 17.637285 0 0 1 5.187437 5.187436 18.259777 18.259777 0 0 1 4.564944-5.187436 20.749747 20.749747 0 0 1-4.772441-4.772442 18.259777 18.259777 0 0 1-4.97994 4.772442z m-2.074974 31.747112a18.05228 18.05228 0 0 1 7.262411 7.469909 18.674772 18.674772 0 0 1 6.432421-7.469909 15.977305 15.977305 0 0 1-6.432421-6.432421 18.05228 18.05228 0 0 1-7.054914 6.432421z m15.977305 32.162107a18.259777 18.259777 0 0 1-8.714894-8.507396 17.429787 17.429787 0 0 1-9.752381 8.299899 17.22229 17.22229 0 0 1 9.752381 10.374873 17.014792 17.014792 0 0 1 8.922391-10.167376z m23.447213-160.395542z m0 32.369605z m-1.659979 32.162108l2.282472 2.282472a10.789868 10.789868 0 0 1 2.074974-2.282472l-2.074974-2.074975z m-1.65998 31.95461a16.807295 16.807295 0 0 1 3.734954 3.942451 17.014792 17.014792 0 0 1 3.734955-3.942451 20.749747 20.749747 0 0 1-3.527457-3.734955 22.202229 22.202229 0 0 1-4.564944 3.734955z m-1.867477 31.747112a20.749747 20.749747 0 0 1 5.809929 6.017427 17.429787 17.429787 0 0 1 5.187436-5.80993 25.729686 25.729686 0 0 1-5.394934-5.187436 16.184802 16.184802 0 0 1-6.224924 4.979939z m-2.282472 32.162107a17.014792 17.014792 0 0 1 8.092401 8.092402 17.22229 17.22229 0 0 1 7.262411-8.092402 17.429787 17.429787 0 0 1-7.262411-7.262411 19.504762 19.504762 0 0 1-8.714894 7.262411z m17.637284 31.95461a17.844782 17.844782 0 0 1-9.544883-9.544883 16.807295 16.807295 0 0 1-11.204863 9.337386 16.184802 16.184802 0 0 1 11.204863 11.619858 16.599797 16.599797 0 0 1 8.922391-11.412361zM790.254103 124.49848z m-1.244984 32.369605v1.244985l1.244984-1.452482z m-1.65998 31.747113l2.697467 2.697467a16.599797 16.599797 0 0 1 2.697467-2.697467 16.599797 16.599797 0 0 1-2.697467-1.867478z m-1.65998 31.954609a22.824721 22.824721 0 0 1 4.564944 4.357447 16.599797 16.599797 0 0 1 4.14995-4.357447 27.804661 27.804661 0 0 1-4.357447-4.149949 20.749747 20.749747 0 0 1-4.357447 4.149949zM783.199189 252.524417a18.467275 18.467275 0 0 1 6.639919 6.639919 18.05228 18.05228 0 0 1 5.809929-6.639919 22.202229 22.202229 0 0 1-5.809929-5.809929 20.749747 20.749747 0 0 1-6.639919 5.809929z m-2.282472 31.95461a17.014792 17.014792 0 0 1 8.922391 8.922391 17.844782 17.844782 0 0 1 7.884904-9.129888 17.014792 17.014792 0 0 1-7.884904-7.884904 20.749747 20.749747 0 0 1-8.507396 8.092401z m19.504762 31.95461a17.637285 17.637285 0 0 1-10.582371-10.167376 16.599797 16.599797 0 0 1-12.24235 9.959879 15.977305 15.977305 0 0 1 12.24235 13.694833 16.599797 16.599797 0 0 1 10.997366-13.487336z m20.749747-159.980547z m-1.452482 32.162108l1.867477 1.659979a5.602432 5.602432 0 0 1 3.112462-1.659979L822.208713 186.74772z m-1.452483 31.954609a25.107194 25.107194 0 0 1 3.31996 3.31996 22.202229 22.202229 0 0 1 2.904964-3.31996 13.90233 13.90233 0 0 1-2.904964-3.112462 15.56231 15.56231 0 0 1-2.697467 3.112462z m-1.867477 31.95461a17.637285 17.637285 0 0 1 5.187437 5.187437 18.259777 18.259777 0 0 1 4.564944-5.187437 20.749747 20.749747 0 0 1-4.564944-4.772441 19.089767 19.089767 0 0 1-4.564944 4.772441z m-2.074974 31.747113a19.297264 19.297264 0 0 1 7.262411 7.469909 17.22229 17.22229 0 0 1 6.639919-7.262412 21.787234 21.787234 0 0 1-6.639919-6.432421 19.089767 19.089767 0 0 1-6.639919 6.224924z m15.977304 32.162107a18.674772 18.674772 0 0 1-8.714893-8.714893 18.259777 18.259777 0 0 1-9.752381 8.714893 15.769807 15.769807 0 0 1 9.752381 10.167376 17.637285 17.637285 0 0 1 9.337386-10.167376z m23.447214-160.395542z m0 32.577103s0-0.414995-0.207497 0z m-1.659979 31.954609l2.282472 2.282473a10.789868 10.789868 0 0 1 2.074974-2.282473 9.752381 9.752381 0 0 1-2.074974-2.074974 10.789868 10.789868 0 0 1-2.48997 2.074974z m-1.65998 31.95461a23.654711 23.654711 0 0 1 3.942452 3.942452 20.749747 20.749747 0 0 1 3.527457-3.942452 20.749747 20.749747 0 0 1-3.527457-3.734954 22.202229 22.202229 0 0 1-4.14995 3.734954z m-1.867477 31.95461a19.297264 19.297264 0 0 1 5.809929 5.809929 20.749747 20.749747 0 0 1 5.187436-5.809929 17.637285 17.637285 0 0 1-5.187436-5.187436 23.239716 23.239716 0 0 1-6.017427 5.187436zM845.44843 316.433637a17.014792 17.014792 0 0 1 8.092401 8.092402 17.22229 17.22229 0 0 1 7.262411-8.092402 17.429787 17.429787 0 0 1-7.262411-7.262411 19.504762 19.504762 0 0 1-8.092401 7.262411z m17.637284 31.95461a17.844782 17.844782 0 0 1-9.544883-9.544883 17.844782 17.844782 0 0 1-11.204863 9.544883 15.56231 15.56231 0 0 1 11.204863 11.412361 16.599797 16.599797 0 0 1 10.167376-11.412361zM886.947923 188.200203z m-1.244985 32.369604l1.244985 1.244985v-1.452482z m-1.65998 31.95461a17.844782 17.844782 0 0 1 2.904965 2.697467 15.354813 15.354813 0 0 1 2.48997-2.697467A15.354813 15.354813 0 0 1 886.947923 248.99696z m-1.659979 31.95461a15.977305 15.977305 0 0 1 4.564944 4.564945 14.524823 14.524823 0 0 1 4.149949-4.564945 15.769807 15.769807 0 0 1-4.149949-4.149949 17.22229 17.22229 0 0 1-5.394934 4.149949z m10.374873 31.95461A19.297264 19.297264 0 0 1 886.947923 311.246201a18.05228 18.05228 0 0 1-6.639919 5.809929 17.014792 17.014792 0 0 1 6.639919 6.639919 18.05228 18.05228 0 0 1 4.979939-7.262412z m25.937183-96.071327z m-1.452482 32.162107a12.449848 12.449848 0 0 1 1.65998 1.65998l1.452482-1.65998-1.452482-1.452482a5.602432 5.602432 0 0 0-2.48997 1.452482z m4.772442 31.95461a14.73232 14.73232 0 0 1-3.112462-3.112462 15.56231 15.56231 0 0 1-3.31996 3.112462 25.107194 25.107194 0 0 1 3.31996 3.31996 15.56231 15.56231 0 0 1 2.282472-3.31996z m29.049645-64.531712z m0 32.162107z m31.12462 0z m0 33.61459l1.037488-1.244985a2.48997 2.48997 0 0 0-1.037488-1.037487l-1.244984 1.037487zM422.983587 585.972847a1.65998 1.65998 0 0 0-1.65998 1.452482 1.65998 1.65998 0 1 0 3.319959 0 1.65998 1.65998 0 0 0-1.659979-1.452482z m0 32.7846s0.414995 0 0 0z m31.95461 0a1.244985 1.244985 0 1 0 1.244984 1.244985 1.244985 1.244985 0 0 0-1.244984-1.867478z m-31.95461-65.154205a2.48997 2.48997 0 0 0-2.48997 2.48997 2.48997 2.48997 0 0 0 4.979939 0 2.48997 2.48997 0 0 0-2.489969-3.112462z m287.798986-169.52543a12.034853 12.034853 0 0 0-12.24235 12.24235 12.242351 12.242351 0 0 0 12.24235 12.242351 12.449848 12.449848 0 0 0 12.242351-12.242351 12.242351 12.242351 0 0 0-12.242351-12.864843z m-191.935157 265.804255a1.452482 1.452482 0 0 0-1.452482 1.452482 1.452482 1.452482 0 0 0 1.452482 1.65998 1.452482 1.452482 0 0 0 1.65998-1.65998 1.452482 1.452482 0 0 0-1.65998-1.452482z m31.95461-197.537589a7.262411 7.262411 0 0 0-7.262411 7.262412 7.054914 7.054914 0 0 0 4.357447 6.639919l9.337386-2.904965a7.677406 7.677406 0 0 0 1.037487-3.734954 7.262411 7.262411 0 0 0-7.469909-7.262412z m0-65.776697a9.129889 9.129889 0 0 0-8.922391 9.129889 8.922391 8.922391 0 0 0 8.922391 8.922391 9.129889 9.129889 0 0 0 9.129889-8.922391 9.129889 9.129889 0 0 0-9.129889-9.129889z m0-32.7846a9.959878 9.959878 0 0 0-9.959878 9.959879 10.167376 10.167376 0 0 0 9.959878 9.959878 9.959878 9.959878 0 0 0 9.959879-9.959878 9.752381 9.752381 0 0 0-9.959879-9.959879z m-31.95461 66.191692a7.677406 7.677406 0 0 0 0 15.354813 7.677406 7.677406 0 0 0 0-15.354813z m0 262.691794s0.414995 0 0 0z m0-98.561297a3.319959 3.319959 0 0 0 0 6.639919 3.319959 3.319959 0 0 0 0-6.639919z m0 32.7846a2.697467 2.697467 0 0 0-2.489969 2.489969 2.48997 2.48997 0 0 0 2.489969 2.48997 2.48997 2.48997 0 0 0 2.48997-2.48997 2.48997 2.48997 0 0 0-2.48997-2.489969z m63.90922-165.997974a8.299899 8.299899 0 0 0-7.677406 5.809929l12.864843-4.149949a8.507396 8.507396 0 0 0-5.187437-0.82999z m63.90922-34.029585a9.959878 9.959878 0 0 0-9.752381 9.959879 9.544883 9.544883 0 0 0 4.772442 8.507396l14.109828-4.564944a7.884904 7.884904 0 0 0 0-3.942452 9.959878 9.959878 0 0 0-9.129889-9.129889z m-63.90922-30.917122a9.752381 9.752381 0 1 0 9.752381 9.752381 9.752381 9.752381 0 0 0-9.752381-9.752381z m0-32.7846a10.582371 10.582371 0 1 0 10.582371 10.582371 10.582371 10.582371 0 0 0-10.582371-10.997366z m63.90922-100.428774a15.147315 15.147315 0 1 0 15.147315 15.147315 15.147315 15.147315 0 0 0-15.147315-15.147315z m-95.86383 165.997974a8.299899 8.299899 0 0 0 0 16.599797 8.299899 8.299899 0 0 0 0-16.599797z m-31.95461 131.968389a4.149949 4.149949 0 1 0 4.14995 4.149949 4.149949 4.149949 0 0 0-4.14995-3.527457z m63.90922-132.383384a8.714894 8.714894 0 1 0 8.922391 8.714893 8.714894 8.714894 0 0 0-8.922391-8.092401z m0-98.768795a11.619858 11.619858 0 1 0 11.619858 11.619858 11.619858 11.619858 0 0 0-11.619858-10.997365z m8.507396-62.24924L575.701722 279.706586a12.864843 12.864843 0 0 0 6.639919 1.867477 13.694833 13.694833 0 0 0 8.507396-24.484701z m-103.748733 294.853901a3.734954 3.734954 0 0 0-3.527457 3.527457 3.527457 3.527457 0 0 0 3.527457 3.527457 3.319959 3.319959 0 0 0 3.527457-3.527457 3.527457 3.527457 0 0 0-4.14995-3.734955z m63.286727-231.359676h-1.867477l-8.714893 13.279838a10.997366 10.997366 0 0 0 20.749746-2.48997 10.997366 10.997366 0 0 0-10.167376-10.789868z m-35.689564 51.459372a8.092401 8.092401 0 0 0 3.734954 0 9.544883 9.544883 0 0 0 9.544884-9.337386 9.337386 9.337386 0 0 0-3.112462-6.847417z m-61.004255 92.751368a5.602432 5.602432 0 0 0 5.602431-5.602432 4.979939 4.979939 0 0 0-0.207497-2.904964z m64.739209-77.81155a8.507396 8.507396 0 1 0 0 17.014792 8.507396 8.507396 0 1 0 0-17.014792z m-127.818439 199.405065h-1.037488a1.037487 1.037487 0 1 0 2.074975 0h-1.037487z m31.95461-66.399189a3.319959 3.319959 0 1 0 3.319959 3.319959 3.319959 3.319959 0 0 0-3.319959-3.319959z m31.95461-33.407092a4.772442 4.772442 0 1 0 4.772441 4.772441 4.772442 4.772442 0 0 0-4.772441-4.772441zM518.847416 518.743668a4.979939 4.979939 0 0 0-4.979939 4.979939 4.979939 4.979939 0 0 0 4.979939 4.979939 4.979939 4.979939 0 0 0 5.187437-4.979939 5.187437 5.187437 0 0 0-5.187437-4.979939z m0-65.5692a6.639919 6.639919 0 1 0 0 13.279838 6.639919 6.639919 0 1 0 0-13.279838z m90.053901 102.503749a7.469909 7.469909 0 0 0 0 2.282472l5.394934-8.092401a5.809929 5.809929 0 0 0-5.394934 5.602431z m-90.053901-70.134144a6.017427 6.017427 0 0 0 0 12.034853 6.017427 6.017427 0 1 0 0-12.034853z m43.989463-185.502736L554.951976 311.246201a12.034853 12.034853 0 0 0 7.884903-11.204864z m20.749747-12.864843a12.657345 12.657345 0 1 0 0 25.314691 12.657345 12.657345 0 1 0 0-25.314691z m63.90922 97.52381a10.789868 10.789868 0 0 0-10.789868 10.997366 10.789868 10.789868 0 0 0 10.789868 10.789868 10.789868 10.789868 0 0 0 10.997366-10.789868 10.997366 10.997366 0 0 0-11.827356-10.997366z m-31.95461-131.345897a14.524823 14.524823 0 1 0 14.524823 14.524823 14.317325 14.317325 0 0 0-15.354813-14.524823z m-127.81844 167.242959a6.639919 6.639919 0 0 0-4.772441 1.867477l-1.867478 2.697467a10.374873 10.374873 0 0 0 0 2.48997 7.054914 7.054914 0 1 0 7.054914-7.054914z m95.86383 129.685917a5.187437 5.187437 0 0 0-5.187437 5.187436 5.394934 5.394934 0 0 0 5.187437 5.394934 5.394934 5.394934 0 0 0 5.394934-5.394934 5.394934 5.394934 0 0 0-6.224924-5.187436z m0-32.992098a6.432421 6.432421 0 0 0-6.224924 6.224924 6.224924 6.224924 0 0 0 6.224924 6.224924 6.017427 6.017427 0 0 0 6.224924-6.224924 6.224924 6.224924 0 0 0-7.054914-6.224924z m0 65.776697a4.357447 4.357447 0 0 0-4.357447 4.357447 4.564944 4.564944 0 1 0 8.922391 0 4.357447 4.357447 0 0 0-5.394934-4.357447zM550.802026 518.743668a5.602432 5.602432 0 1 0 5.602432 5.602431 5.602432 5.602432 0 0 0-5.602432-5.602431z m0 65.569199a4.149949 4.149949 0 0 0-3.942452 3.942452 3.942452 3.942452 0 0 0 3.942452 3.942452 3.734954 3.734954 0 0 0 3.942452-3.942452 3.942452 3.942452 0 0 0-3.942452-4.772442zM646.665856 352.745694a12.034853 12.034853 0 1 0 12.034853 12.034853 12.034853 12.034853 0 0 0-12.034853-12.034853z m-95.86383 197.952584a4.772442 4.772442 0 0 0 0 9.544883 4.772442 4.772442 0 0 0 0-9.544883z m0 65.776697a2.904965 2.904965 0 0 0-2.904964 2.904964 3.112462 3.112462 0 0 0 2.904964 3.112462 3.112462 3.112462 0 0 0 3.112462-3.112462 3.112462 3.112462 0 0 0-3.112462-2.904964z m159.980547-299.211348a14.524823 14.524823 0 1 0 14.317326 14.524823 14.524823 14.524823 0 0 0-14.317326-14.524823z m-223.889767 136.118339a6.224924 6.224924 0 0 0 0 12.449848 6.224924 6.224924 0 0 0 0-12.449848z m127.81844-67.851672a10.167376 10.167376 0 1 0 10.374874 10.167376 10.167376 10.167376 0 0 0-10.374874-10.167376z m-127.81844 100.636271a5.394934 5.394934 0 0 0 0 10.789869 5.394934 5.394934 0 1 0 0-10.789869z m127.81844-199.82006a13.487335 13.487335 0 1 0 13.487336 13.487335 13.487335 13.487335 0 0 0-13.487336-13.487335zM486.892806 518.743668a4.357447 4.357447 0 1 0 0 8.714893 4.357447 4.357447 0 1 0 0-8.714893z m127.81844-199.820061a12.449848 12.449848 0 0 0-12.24235 12.449848 12.449848 12.449848 0 0 0 24.692198 0 12.449848 12.449848 0 0 0-12.449848-12.034853z m0 33.199595a11.204863 11.204863 0 0 0 0 22.409726 11.204863 11.204863 0 1 0 0-22.409726z m0 65.776697a9.337386 9.337386 0 1 0 9.337386 9.337386 9.337386 9.337386 0 0 0-9.337386-8.922391z m96.071327-67.851672a13.279838 13.279838 0 1 0 13.279838 13.279838 13.279838 13.279838 0 0 0-13.279838-12.864843zM679.450456 284.894022a14.939818 14.939818 0 1 0 14.939818 14.939818 14.73232 14.73232 0 0 0-14.939818-14.939818z m0 99.18379a11.619858 11.619858 0 1 0 11.619858 11.619858 11.619858 11.619858 0 0 0-11.619858-11.619858z m0-65.984195a13.694833 13.694833 0 0 0 0 27.389666 13.694833 13.694833 0 1 0 0-27.389666z m0 32.992097a12.657345 12.657345 0 1 0 12.864843 12.657346 12.657345 12.657345 0 0 0-12.864843-12.657346z m-31.95461-32.369605a13.07234 13.07234 0 1 0 13.07234 13.072341 13.07234 13.07234 0 0 0-13.90233-13.072341z m0-32.992097a14.109828 14.109828 0 0 0 0 28.219656 14.109828 14.109828 0 1 0 0-28.219656zM679.450456 417.069909a10.374873 10.374873 0 0 0-10.374873 10.582371l19.089767-6.017427a10.582371 10.582371 0 0 0-8.714894-4.564944z m64.116717-34.44458a13.07234 13.07234 0 0 0-13.07234 13.072341 12.864843 12.864843 0 0 0 5.394934 10.582371l20.749747-6.432422a13.279838 13.279838 0 0 0 0-4.149949 13.07234 13.07234 0 0 0-13.902331-13.072341z m0-65.984194a15.147315 15.147315 0 0 0-15.147315 15.147315 15.147315 15.147315 0 1 0 15.147315-15.147315z m63.90922 31.747112a15.354813 15.354813 0 1 0 0 30.709625 15.354813 15.354813 0 0 0 0-30.709625z m-11.412361 38.594529l15.56231-4.979939a13.279838 13.279838 0 0 0-4.149949 0 14.317325 14.317325 0 0 0-12.24235 4.979939z m-52.496859-37.349544a14.109828 14.109828 0 0 0 0 28.219656 14.109828 14.109828 0 0 0 0-28.219656z m-198.367578 141.928267a6.432421 6.432421 0 0 0 6.432421 6.432422 6.224924 6.224924 0 0 0 6.224924-4.564944l-10.167376-6.847417a6.432421 6.432421 0 0 0-3.319959 4.979939z m230.322188-142.550759a14.73232 14.73232 0 1 0 14.73232 14.73232 14.73232 14.73232 0 0 0-15.56231-14.73232z m0 32.992097a13.694833 13.694833 0 0 0-13.90233 13.694833 8.922391 8.922391 0 0 0 0 2.282472l25.729686-8.299899a13.694833 13.694833 0 0 0-12.657346-7.677406z" fill="#FF303A" p-id="53469"></path><path d="M554.951976 859.247011a8.714894 8.714894 0 0 1-8.714894 8.714894 8.507396 8.507396 0 0 1-8.507396-8.714894 8.507396 8.507396 0 0 1 8.507396-8.507396 8.507396 8.507396 0 0 1 8.714894 8.507396z m-8.714894 24.277204A7.677406 7.677406 0 1 0 554.951976 892.239108a7.884904 7.884904 0 0 0-8.714894-8.714893z m0-65.776697a9.337386 9.337386 0 0 0-9.544883 9.544883 9.544883 9.544883 0 0 0 9.544883 9.752381 9.752381 9.752381 0 0 0 9.752381-9.752381 9.544883 9.544883 0 0 0-9.752381-9.544883z m0 98.976292a6.639919 6.639919 0 1 0 0 13.07234 6.639919 6.639919 0 1 0 0-13.07234z m0 65.984194a4.357447 4.357447 0 0 0-4.357447 4.357447 4.357447 4.357447 0 1 0 8.714894 0 4.357447 4.357447 0 0 0-4.357447-4.357447z m-6.017426-239.452077a11.204863 11.204863 0 0 0 6.017426 1.452482 13.279838 13.279838 0 0 0 13.487335-13.279838 13.90233 13.90233 0 0 0-4.979939-10.374873z m6.017426 207.497467a5.602432 5.602432 0 0 0 0 10.997366 5.602432 5.602432 0 1 0 0-10.997366z m31.95461-232.60466a14.317325 14.317325 0 1 0 14.317325 14.317325 14.317325 14.317325 0 0 0-14.317325-15.354813z m-53.119352 48.969402l-4.149949 6.224924a11.412361 11.412361 0 0 0 4.149949-7.262412z m-10.789868 19.297264h-2.074975l-7.677406 11.619858a9.959878 9.959878 0 1 0 9.752381-11.827355z m31.95461-34.029584a12.034853 12.034853 0 1 0 12.034853 12.034853 12.034853 12.034853 0 0 0-12.034853-13.072341z m0 33.199594a10.789868 10.789868 0 0 0 0 20.749747 10.789868 10.789868 0 0 0 0-20.749747zM513.452482 1016.737589a2.48997 2.48997 0 0 0-2.697467 2.489969 2.697467 2.697467 0 1 0 5.394934 0A2.48997 2.48997 0 0 0 513.452482 1016.737589z m63.90922-1.452483a3.942452 3.942452 0 0 0-4.149949 3.942452 4.149949 4.149949 0 0 0 8.299898 0 3.942452 3.942452 0 0 0-3.319959-4.149949z m0-264.55927a12.864843 12.864843 0 1 0 13.072341 12.864843 12.864843 12.864843 0 0 0-12.242351-13.072341zM696.880243 954.488349a8.922391 8.922391 0 0 0 2.48997 6.224924l9.752381-14.732321a6.847416 6.847416 0 0 0-3.112462 0 9.129889 9.129889 0 0 0-9.129889 8.507397zM513.452482 983.330496a3.734954 3.734954 0 1 0 3.734955 3.734955 3.734954 3.734954 0 0 0-3.734955-3.734955z m437.819656-282.61155L895.870314 663.991895l-75.529078 114.123607a22.202229 22.202229 0 0 1-2.904964-3.31996 22.409726 22.409726 0 0 1-6.224924 5.394934 13.90233 13.90233 0 0 1 4.772441 4.357447L785.689159 829.989868a1.867477 1.867477 0 0 0 0-1.037487 6.224924 6.224924 0 0 1 0 2.074975l-5.187437 7.884903a15.354813 15.354813 0 0 1-9.959878 3.527457 15.769807 15.769807 0 0 1-15.769808-15.769807 15.977305 15.977305 0 0 1 12.242351-15.354813 17.014792 17.014792 0 0 1-12.864843-12.449848 16.184802 16.184802 0 0 1-15.56231 12.034853 16.184802 16.184802 0 0 1-4.772442-31.539615 17.22229 17.22229 0 0 1-11.619858-10.997365 16.3923 16.3923 0 0 1-31.95461-4.564945 15.56231 15.56231 0 1 1-18.259777-16.3923 16.599797 16.599797 0 0 1-13.694833-12.657345 15.977305 15.977305 0 1 1-20.749746-19.297265 17.014792 17.014792 0 0 1-12.034854-11.41236 16.184802 16.184802 0 0 1-15.56231 11.204863 16.3923 16.3923 0 0 1-16.392299-16.184802 15.56231 15.56231 0 0 1-15.56231 15.354812 15.147315 15.147315 0 0 1-13.694833-8.714893l34.652077-52.704357 2.282472-1.452482 20.749747-31.539615a20.749747 20.749747 0 0 1 4.357446 4.357446 17.844782 17.844782 0 0 1 3.734955-4.149949 23.654711 23.654711 0 0 1-4.979939-5.187437l60.174265-90.88389-56.439311-37.142047 91.506383-29.46464 2.282472 1.867477-1.65998-2.074975 96.486323-30.709625h1.244984v-1.037487l106.031206-34.029585zM604.128875 684.741641a17.22229 17.22229 0 0 1-10.374873-10.167376 16.3923 16.3923 0 0 1-13.694833 10.167376 15.56231 15.56231 0 0 1 13.694833 15.147315 16.3923 16.3923 0 0 1 10.374873-15.147315z m14.939818-31.95461a19.089767 19.089767 0 0 1 6.639919 6.847417 20.749747 20.749747 0 0 1 5.809929-6.847417 18.674772 18.674772 0 0 1-5.809929-5.602431 20.749747 20.749747 0 0 1-6.639919 4.979939z m15.147315 31.95461a17.844782 17.844782 0 0 1-8.507396-8.092401 17.429787 17.429787 0 0 1-8.507396 8.092401 15.56231 15.56231 0 0 1 9.544883 10.167376 17.844782 17.844782 0 0 1 7.469909-10.167376z m22.617224-95.656332l1.037487-1.037487z m-1.867477 31.95461a15.354813 15.354813 0 0 1 2.489969 2.697467 16.599797 16.599797 0 0 1 2.697467-2.697467 14.109828 14.109828 0 0 1-2.489969-2.48997z m-2.282472 31.747112a18.88227 18.88227 0 0 1 4.979939 4.97994 15.977305 15.977305 0 0 1 4.357447-4.772442 31.539615 31.539615 0 0 1-4.564945-4.564944 13.694833 13.694833 0 0 1-4.772441 3.734954zM650.193313 684.741641a19.089767 19.089767 0 0 1 7.469909 7.677407 19.297264 19.297264 0 0 1 6.432421-7.677407 20.749747 20.749747 0 0 1-6.432421-6.224924 20.749747 20.749747 0 0 1-7.469909 6.224924z m16.599797 32.162108a18.674772 18.674772 0 0 1-9.129888-9.129889 17.429787 17.429787 0 0 1-10.997366 8.922391 16.3923 16.3923 0 0 1 10.997366 11.412361 16.599797 16.599797 0 0 1 9.129888-11.827356z m22.824722-128.233435z m-1.452482 32.369605l1.452482 1.244985 1.244985-1.452483-1.244985-1.244984z m-1.867478 31.95461a16.807295 16.807295 0 0 1 3.31996 3.319959 22.202229 22.202229 0 0 1 2.904964-3.319959l-2.904964-3.112462zM684.0154 684.741641a18.674772 18.674772 0 0 1 5.602432 5.809929 16.184802 16.184802 0 0 1 4.979939-5.602431 18.88227 18.88227 0 0 1-4.979939-4.979939 24.484701 24.484701 0 0 1-5.602432 4.772441z m-2.697467 32.162108a16.184802 16.184802 0 0 1 8.299899 8.299898 17.844782 17.844782 0 0 1 7.262411-8.299898 20.749747 20.749747 0 0 1-7.262411-7.262412 20.749747 20.749747 0 0 1-8.299899 6.639919z m18.88227 31.12462a18.05228 18.05228 0 0 1-10.167376-9.752381 17.014792 17.014792 0 0 1-12.657346 9.752381 15.56231 15.56231 0 0 1 12.657346 14.317325 16.807295 16.807295 0 0 1 10.167376-14.317325z m20.749746-127.81844z m-1.867477 32.162107l2.074975 1.867478a7.054914 7.054914 0 0 1 1.65998-1.867478 12.449848 12.449848 0 0 1-1.65998-1.659979zM717.62999 684.741641a17.844782 17.844782 0 0 1 3.942452 3.942452 31.95461 31.95461 0 0 1 3.527457-3.942452 20.749747 20.749747 0 0 1-4.14995-4.149949 22.202229 22.202229 0 0 1-3.319959 4.149949z m-2.48997 31.95461a15.977305 15.977305 0 0 1 6.432422 6.432422 20.749747 20.749747 0 0 1 5.602431-6.432422 20.749747 20.749747 0 0 1-5.602431-5.602431 20.749747 20.749747 0 0 1-6.432422 5.187436z m14.524823 31.747113a18.467275 18.467275 0 0 1-8.092401-7.884904 18.467275 18.467275 0 0 1-9.337386 7.884904 16.599797 16.599797 0 0 1 9.337386 9.752381 18.05228 18.05228 0 0 1 8.092401-10.167376z m24.277204-128.440932z m-1.037488 32.784599v-1.244984z m-2.074974 31.95461l2.697467 2.697467a14.317325 14.317325 0 0 1 2.282472-2.697467l-2.282472-2.282472a14.317325 14.317325 0 0 1-2.697467 2.282472z m-2.074975 31.747113a20.749747 20.749747 0 0 1 4.772442 4.772442 17.22229 17.22229 0 0 1 4.149949-4.564945 27.804661 27.804661 0 0 1-4.149949-4.357447 18.05228 18.05228 0 0 1-4.772442 3.734955z m-2.48997 31.95461a18.05228 18.05228 0 0 1 7.262412 7.469909 17.22229 17.22229 0 0 1 6.432421-7.469909 16.807295 16.807295 0 0 1-6.432421-6.224924 19.089767 19.089767 0 0 1-7.262412 5.809929zM762.449443 780.190476a18.674772 18.674772 0 0 1-8.922391-8.922391 16.3923 16.3923 0 0 1-10.582371 8.714894 16.3923 16.3923 0 0 1 10.582371 11.204863 16.599797 16.599797 0 0 1 8.922391-10.997366z m23.032219-128.440932zM784.236677 684.741641l1.244985 1.244985 1.244984-1.452482h-1.037487zM783.199189 716.281256a23.654711 23.654711 0 0 1 3.31996 3.112462 20.749747 20.749747 0 0 1 2.904964-3.112462l-2.904964-2.904964a22.202229 22.202229 0 0 1-3.31996 2.904964z m-2.074974 31.747113a17.429787 17.429787 0 0 1 5.394934 5.602431 20.749747 20.749747 0 0 1 4.772442-5.394934 20.749747 20.749747 0 0 1-4.772442-4.772441 19.089767 19.089767 0 0 1-6.432422 4.564944z m-2.697467 32.162107a17.014792 17.014792 0 0 1 8.092401 8.092401 17.22229 17.22229 0 0 1 7.262411-8.092401 18.259777 18.259777 0 0 1-7.262411-7.054914 17.844782 17.844782 0 0 1-9.129889 7.054914z m18.052279 31.747113a17.429787 17.429787 0 0 1-9.959878-9.544884 17.22229 17.22229 0 0 1-11.827356 9.544884 15.56231 15.56231 0 0 1 11.827356 13.07234 16.807295 16.807295 0 0 1 8.922391-13.07234z m20.749747-127.81844z m-1.65998 32.162107a7.884904 7.884904 0 0 1 1.867478 1.867478 6.432421 6.432421 0 0 1 1.452482-1.867478 9.544883 9.544883 0 0 0-1.452482-1.452482z m5.394934 31.95461a14.317325 14.317325 0 0 1-3.527456-3.527457 30.087133 30.087133 0 0 1-3.734955 3.527457 15.977305 15.977305 0 0 1 3.734955 3.734955 30.087133 30.087133 0 0 1 3.527456-3.734955z m29.257143-32.577102zM578.191692 982.085512a5.187437 5.187437 0 1 0 5.187437 4.979939 5.187437 5.187437 0 0 0-5.187437-4.979939z m0-165.997974a10.374873 10.374873 0 1 0 0 20.749747 10.374873 10.374873 0 0 0 0-20.749747z m0 32.992097a9.337386 9.337386 0 1 0 9.337386 9.337386 9.337386 9.337386 0 0 0-9.337386-7.677406z m0-66.191692a11.619858 11.619858 0 1 0 11.619858 11.619858 11.619858 11.619858 0 0 0-11.619858-10.789868z m0 132.175887a7.262411 7.262411 0 0 0-7.262411 7.262411 7.262411 7.262411 0 0 0 14.524822 0 7.262411 7.262411 0 0 0-7.262411-6.432421z m0 32.992097a6.432421 6.432421 0 0 0-6.224924 6.224924 6.224924 6.224924 0 0 0 6.224924 6.224924 6.017427 6.017427 0 0 0 6.224924-6.224924 6.224924 6.224924 0 0 0-6.224924-5.394934z m0-65.984194a8.299899 8.299899 0 1 0 8.299899 8.299898 8.299899 8.299899 0 0 0-8.299899-7.469909z m63.90922 31.539615a8.714894 8.714894 0 1 0 8.714893 8.714893 8.714894 8.714894 0 0 0-8.714893-7.884904z m0-32.992098a9.752381 9.752381 0 1 0 9.752381 9.752381 9.752381 9.752381 0 0 0-9.752381-8.922391z m0 66.191692a7.677406 7.677406 0 1 0 0 15.147315 7.677406 7.677406 0 1 0 0-15.147315z m0 65.776697a5.602432 5.602432 0 1 0 5.602431 5.602432 5.602432 5.602432 0 0 0-5.602431-4.772442z m0-165.997973a10.789868 10.789868 0 0 0-10.789868 10.789868 10.789868 10.789868 0 0 0 10.789868 10.997366 10.997366 10.997366 0 0 0 10.997366-10.997366 10.789868 10.789868 0 0 0-10.997366-8.922391z m0-99.806282a14.73232 14.73232 0 1 0 14.939817 14.73232 14.73232 14.73232 0 0 0-14.939817-12.864843z m0 33.199595a13.487335 13.487335 0 1 0 13.487335 13.487335 13.487335 13.487335 0 0 0-13.487335-11.619858zM674.055522 912.988855a9.337386 9.337386 0 0 0-9.337386 9.337386 9.544883 9.544883 0 0 0 9.337386 9.544884 9.752381 9.752381 0 0 0 9.544883-9.544884 9.544883 9.544883 0 0 0-9.544883-9.337386z m-31.95461-97.731307a12.034853 12.034853 0 0 0-12.034853 12.034853 12.242351 12.242351 0 1 0 24.277203 0 12.034853 12.034853 0 0 0-12.24235-12.034853z m-31.95461 0a11.204863 11.204863 0 1 0 11.204863 11.204863 11.204863 11.204863 0 0 0-11.204863-10.374873z m0 32.992097a10.167376 10.167376 0 1 0 10.167376 10.167376 10.167376 10.167376 0 0 0-10.167376-9.337386z m0 33.199595a8.922391 8.922391 0 0 0-8.922391 8.922391 9.129889 9.129889 0 0 0 8.922391 9.129889 9.129889 9.129889 0 0 0 9.129888-7.262412 9.129889 9.129889 0 0 0-9.129888-9.959878z m0-132.798379a13.90233 13.90233 0 0 0 0 27.804661 13.90233 13.90233 0 0 0 0-27.804661z m0 33.199595a12.657345 12.657345 0 0 0-12.449848 12.657345 12.657345 12.657345 0 1 0 25.107193 0 12.657345 12.657345 0 0 0-12.657345-11.827355z m0-66.39919a15.147315 15.147315 0 1 0 15.147315 15.147316 15.147315 15.147315 0 0 0-15.147315-14.317326z m0 198.990071a8.092401 8.092401 0 0 0 0 15.977305 8.092401 8.092401 0 1 0 0-15.977305z m31.95461 65.154205a6.847416 6.847416 0 0 0-6.639919 6.639919 6.639919 6.639919 0 0 0 6.639919 6.639919 6.639919 6.639919 0 0 0 6.639919-6.639919 6.639919 6.639919 0 0 0-6.639919-5.809929z m63.90922-200.235056a15.147315 15.147315 0 1 0 15.354812 15.147315 15.147315 15.147315 0 0 0-15.354812-14.317325z m0 33.199595a13.90233 13.90233 0 1 0 13.90233 13.90233 13.90233 13.90233 0 0 0-13.90233-13.07234z m31.95461-1.037487a14.939818 14.939818 0 1 0 14.939817 14.939817 14.73232 14.73232 0 0 0-14.939817-14.109827z m0 66.606687a12.242351 12.242351 0 0 0 0 24.484701l11.41236-17.22229a12.242351 12.242351 0 0 0-11.41236-6.432421z m17.637284-20.749747a14.109828 14.109828 0 0 0 4.357447 10.374873l15.769808-23.654711a13.90233 13.90233 0 0 0-5.809929-1.244985 14.524823 14.524823 0 0 0-14.317326 16.3923z m-17.637284-13.487335a13.487335 13.487335 0 0 0 0 26.97467 13.487335 13.487335 0 1 0 0-26.97467z m-31.95461 0a12.657345 12.657345 0 0 0 0 25.314691 12.657345 12.657345 0 1 0 0-25.314691z m-31.95461 0a11.827356 11.827356 0 1 0 0 23.654711 11.827356 11.827356 0 1 0 0-23.654711z m0-33.199595a13.07234 13.07234 0 1 0 13.07234 13.07234 13.07234 13.07234 0 0 0-13.07234-9.544883z m0 132.590881a8.507396 8.507396 0 0 0 0 16.807295 8.507396 8.507396 0 1 0 0-16.807295z m0-65.984194a10.374873 10.374873 0 0 0-10.374874 10.374873 10.374873 10.374873 0 0 0 10.374874 10.582371 10.582371 10.582371 0 0 0 10.582371-10.582371 10.374873 10.374873 0 0 0-10.582371-6.847416z m31.95461-1.037488a11.412361 11.412361 0 0 0-11.412361 11.412361 11.412361 11.412361 0 0 0 11.412361 11.412361 11.204863 11.204863 0 0 0 11.41236-11.412361 11.412361 11.412361 0 0 0-11.41236-7.884904z m-31.95461-98.768794a14.317325 14.317325 0 1 0 14.317325 14.317325 14.317325 14.317325 0 0 0-14.317325-10.789868zM706.010132 912.988855a10.167376 10.167376 0 1 0 10.167376 10.167376 10.167376 10.167376 0 0 0-10.167376-10.167376z m-31.95461 66.814185a7.469909 7.469909 0 0 0 0 14.73232 6.639919 6.639919 0 0 0 4.772442-1.867478l2.282472-3.527456a6.224924 6.224924 0 0 0 0-2.074975 7.469909 7.469909 0 0 0-7.054914-7.262411z m-63.90922-31.539615a7.054914 7.054914 0 0 0 0 13.90233 7.054914 7.054914 0 1 0 0-13.90233z m-127.81844 35.897061a2.904965 2.904965 0 0 0-2.904964 2.904965 2.904965 2.904965 0 0 0 5.809929 0 2.904965 2.904965 0 0 0-2.904965-2.904965zM451.203242 951.998379a3.319959 3.319959 0 0 0-3.319959 3.112462 3.319959 3.319959 0 0 0 6.639919 0 3.319959 3.319959 0 0 0-3.31996-3.112462z m31.95461-99.806282a7.262411 7.262411 0 0 0-7.262411 7.054914 7.262411 7.262411 0 0 0 14.524822 0 7.262411 7.262411 0 0 0-8.092401-7.054914z m0 98.976292a3.942452 3.942452 0 0 0-3.942452 3.942452 3.942452 3.942452 0 1 0 7.884904 0 3.942452 3.942452 0 0 0-4.772442-3.942452z m0-32.992097a5.187437 5.187437 0 1 0 4.979939 4.979939 4.979939 4.979939 0 0 0-5.809929-4.979939zM451.203242 984.990476a2.074975 2.074975 0 0 0-2.282472 2.074975 2.282472 2.282472 0 0 0 4.564944 0 2.074975 2.074975 0 0 0-2.282472-2.074975z m62.24924-34.444579a4.772442 4.772442 0 1 0 0 9.337386 4.772442 4.772442 0 1 0 0-9.337386z m-31.12462-65.361702a6.224924 6.224924 0 0 0-6.224924 6.017426 6.432421 6.432421 0 0 0 6.224924 6.224924 6.224924 6.224924 0 0 0 6.017427-6.224924 6.017427 6.017427 0 0 0-6.017427-6.017426z m31.95461 0a6.847416 6.847416 0 1 0 6.847417 6.847416 6.847416 6.847416 0 0 0-7.677407-7.677406zM513.452482 850.739615a7.884904 7.884904 0 1 0 7.884904 7.884904A7.884904 7.884904 0 0 0 513.452482 850.739615z m0 65.984195a6.017427 6.017427 0 0 0-5.809929 5.809929 5.809929 5.809929 0 1 0 11.619858 0 6.017427 6.017427 0 0 0-5.809929-5.187437zM482.327862 1016.737589a1.867477 1.867477 0 1 0 1.867477 1.867477 1.867477 1.867477 0 0 0-1.867477-1.867477z m-2.697467-182.182776a5.809929 5.809929 0 0 0 2.697467 0 8.299899 8.299899 0 0 0 8.299899-8.299899 8.092401 8.092401 0 0 0-2.282472-5.602432z m34.652077-16.599798a8.922391 8.922391 0 1 0 8.922391 8.922391 8.922391 8.922391 0 0 0-9.752381-8.507396zM451.203242 1017.982573a1.244985 1.244985 0 0 0-1.244985 0 1.244985 1.244985 0 0 0 1.244985 1.244985 1.244985 1.244985 0 0 0 1.037487-1.244985H451.203242z m159.77305-3.734954a4.772442 4.772442 0 0 0-4.772442 4.772442 4.772442 4.772442 0 0 0 4.772442 4.979939 4.979939 4.979939 0 0 0 4.979939-4.979939 4.772442 4.772442 0 0 0-5.809929-4.772442z m0-32.992097a6.017427 6.017427 0 0 0 0 11.827355 6.017427 6.017427 0 0 0 0-11.827355z m-223.68227 5.187436h-0.82999z m32.7846-59.75927a3.734954 3.734954 0 0 0 2.697467-3.527457zM546.237082 1016.737589a3.319959 3.319959 0 0 0-3.319959 3.319959 3.319959 3.319959 0 1 0 6.639919 0 3.319959 3.319959 0 0 0-3.31996-3.319959zM451.203242 885.806687a5.394934 5.394934 0 0 0-5.394934 5.394934 5.394934 5.394934 0 0 0 10.789868 0 5.394934 5.394934 0 0 0-5.394934-5.394934z m-32.7846 99.806282a1.452482 1.452482 0 0 0-1.452482 1.452482 1.452482 1.452482 0 1 0 2.904965 0 1.452482 1.452482 0 0 0-1.452483-1.452482z m0 32.992097zM451.203242 918.798784a4.357447 4.357447 0 0 0-4.357447 4.357447 4.357447 4.357447 0 0 0 4.357447 4.357447 4.357447 4.357447 0 0 0 4.357447-4.357447 4.564944 4.564944 0 0 0-4.357447-4.357447z m-31.95461 33.822087a2.48997 2.48997 0 0 0-2.697467 2.48997 2.697467 2.697467 0 0 0 2.697467 2.697467 2.48997 2.48997 0 0 0 2.48997-2.697467 2.48997 2.48997 0 0 0-3.31996-2.48997z" fill="#58D4E7" p-id="53470"></path></svg>