<?xml version="1.0" standalone="no"?><!DOCTYPE svg PUBLIC "-//W3C//DTD SVG 1.1//EN" "http://www.w3.org/Graphics/SVG/1.1/DTD/svg11.dtd"><svg t="1734692916467" class="icon" viewBox="0 0 1024 1024" version="1.1" xmlns="http://www.w3.org/2000/svg" p-id="40219" xmlns:xlink="http://www.w3.org/1999/xlink" width="200" height="200"><path d="M942.1 433.8L828.6 329.3c0.5-3.2 0-6.5 0-9.9V174.6c0-33.3-25.9-60.3-57.9-60.3s-57.9 27-57.9 60.3v49.6L563.5 87.7c-29.7-31-77.9-31-107.7 0L81.9 424.2c-29.7 31-29.7 76.4 0 107.4L184.6 574v308.3c0 42.7 33.2 77.2 74.1 77.2H759c40.9 0 74.1-34.6 74.1-77.2V584.7L942 541.2c29.8-31 29.8-76.4 0.1-107.4z m-294.9 17.5c25.8 0 46.7 21.5 46.7 48s-20.9 48-46.7 48-46.7-21.5-46.7-48c-0.1-26.5 20.9-48 46.7-48z m-270.4 0c25.8 0 46.7 21.5 46.7 48s-20.9 48-46.7 48c-25.8 0-46.8-21.5-46.8-48 0.1-26.5 21-48 46.8-48zM731.4 840c-5.7 4.5-12.4 6.7-19 6.7-9.6 0.2-19.2-4.2-25.6-12.7-42.2-56.5-106.1-88.8-175.3-88.9-68.5 0-132 31.9-174.2 87.4-6.4 8.4-16 12.7-25.6 12.5-6.7-0.1-13.4-2.4-19-6.9-13.8-11-16.2-31.4-5.4-45.6 54.3-71.3 136-125 224.1-125h0.2c89 0 171.3 54.3 225.6 127 10.7 14.1 8 34.5-5.8 45.5z" fill="" p-id="40220"></path></svg>