<?xml version="1.0" standalone="no"?><!DOCTYPE svg PUBLIC "-//W3C//DTD SVG 1.1//EN" "http://www.w3.org/Graphics/SVG/1.1/DTD/svg11.dtd"><svg t="1731894673640" class="icon" viewBox="0 0 1024 1024" version="1.1" xmlns="http://www.w3.org/2000/svg" p-id="42970" xmlns:xlink="http://www.w3.org/1999/xlink" width="200" height="200"><path d="M527 63.078c-141.75 1.27-160.479 20.164-185.45 34.21 4.358-2.523 26.672-11.106 48.995-10.858 291.238 1.611 467.028 170.459 449.793 431.613-5.828 88.403-34.004 222.085-194.749 308.921-3.247 2.026-15.948 9.738-35.34 11.183 19.89 17.6 56.501 41.092 142.208 61.912 14.395-7.587 14.776-6.291 42.786-27.82 108.52-83.389 164.108-225.28 164.108-376.727 0-252.985-179.5-434.701-432.35-432.434zM416.056 433.432c0.066-0.358 0.083-0.648 0.143-1.001-0.814 0.797-0.143 1-0.143 1z" fill="#ee5e7b" p-id="42971"></path><path d="M557.782 772.32c68.945 0 126.293-39.248 156.254-96.492 13.83-22.09 25.345-45.785 34.037-70.81 12.56-36.137 19.384-74.955 19.384-115.368 0-194.076-157.334-351.41-351.4-351.41-169.82 0-311.503 120.458-344.27 280.589-4.682 22.88-7.14 46.563-7.14 70.821 0 41.55 1.245 83.448 14.31 120.491 0 0.008 0.085-0.208 0.134-0.342 0.183 0.79 0.308 1.6 0.498 2.385 18.961-35.5 129.324-215.313 314.732-225 0 0 28.99-5.572 22.348 41.806l-91.575 15.748-25.503 54.169s77.812-49.869 116.687-67.102c-0.032 0.214-0.049 0.406-0.081 0.626 0.431-0.424 1.32-1.03 2.963-1.864 4.275-1.8 8.01-3.159 10.976-3.892l-3.238 0.555c5.628-2.182 13.971-5.1 26.548-9.049 45.792-14.37 126.783-32.998 130.452-14.544 3.679 18.38-64.022 135.74-64.022 135.74l6.591-78.774s-95.37 46.747-126.027 92.19c-16.777 24.804-21.626 49.288-17.292 73.925 0 0.258 0 0.507 0.083 0.757 15.791 82.368 87.55 144.846 174.551 144.846zM503.44 811.414s42.854 105.422 94.357 142.265l2.208 2.001c22.1-3.678 43.7-8.94 64.587-15.616-51.389-26.565-133.325-75.436-161.151-128.65z" fill="#ee5e7b" p-id="42972"></path><path d="M165.213 787.696a459.268 459.268 0 0 0 47.619 51.537c-0.416-19.127-0.59-132.063 44.181-196.974 0 0-53.877 16.454-91.8 145.437zM231.294 561.31s-75.396 15.542-135.167 104.335c7.521 19.967 16.37 39.184 26.482 57.731 11.19-33.674 41.775-107.094 108.685-162.066zM425.222 951.006c22.845 5.098 46.307 8.436 70.33 9.937-19.841-23.136-71.294-92.056-84.078-197.305 0.001 0-16.586 121.878 13.748 187.368zM314.61 708.498s-50.45 69.254-36.543 181.442c19.634 12.527 40.229 23.56 61.73 33.081-9.347-24.057-36.41-105.255-25.187-214.523z" fill="#ee5e7b" p-id="42973"></path></svg>