<?xml version="1.0" standalone="no"?><!DOCTYPE svg PUBLIC "-//W3C//DTD SVG 1.1//EN" "http://www.w3.org/Graphics/SVG/1.1/DTD/svg11.dtd"><svg t="1731894639807" class="icon" viewBox="0 0 1024 1024" version="1.1" xmlns="http://www.w3.org/2000/svg" p-id="42805" xmlns:xlink="http://www.w3.org/1999/xlink" width="200" height="200"><path d="M527.000134 63.077617C385.249713 64.34754 366.521163 83.241866 341.549421 97.28879c4.358261-2.523473 26.672476-11.106965 48.995901-10.858302 291.238061 1.610684 467.027739 170.458253 449.792193 431.612135-5.827729 88.403422-34.003442 222.085074-194.748473 308.921815-3.246951 2.025123-15.948227 9.737782-35.33988 11.18269 19.890003 17.599843 56.500828 41.091884 142.207839 61.912072 14.394848-7.586792 14.775518-6.291287 42.786479-27.819602 108.519576-83.389222 164.107615-225.28086 164.107615-376.727107C959.351096 242.526639 779.851932 60.810994 527.000134 63.077617z" fill="#1296db" p-id="42806"></path><path d="M416.056346 433.431573c0.065492-0.357134 0.082888-0.647753 0.14224-1.000793C415.385057 433.227935 416.056346 433.431573 416.056346 433.431573z" p-id="42807"></path><path d="M557.782208 772.32091c68.945255 0 126.292358-39.248909 156.25374-96.492658 13.829983-22.091134 25.345248-45.784766 34.037211-70.809719 12.56006-36.137035 19.383466-74.955132 19.383466-115.368564 0-194.07616-157.333328-351.409488-351.400279-351.409488-169.818687 0-311.502593 120.457466-344.269881 280.588513-4.681626 22.880103-7.139607 46.563502-7.139607 70.820975 0 41.550325 1.245364 83.447551 14.310937 120.491235 0 0.008186 0.083911-0.207731 0.13303-0.341784 0.183172 0.788969 0.308015 1.599428 0.49835 2.384303 18.960841-35.499515 129.323391-215.312834 314.732148-225.000474 0 0 28.989241-5.570879 22.347984 41.807175l-91.575672 15.747659-25.502837 54.168714c0 0 77.812203-49.868781 116.687606-67.102281-0.032746 0.214894-0.049119 0.406253-0.081864 0.626263 0.431835-0.423649 1.320065-1.029446 2.963495-1.863441 4.275373-1.801019 8.010441-3.158946 10.975982-3.892657l-3.237741 0.555655c5.628184-2.182712 13.9712-5.101181 26.547633-9.049097 45.791929-14.370289 126.783545-32.998555 130.452097-14.544251 3.678786 18.379603-64.022129 135.740544-64.022129 135.740544l6.591115-78.774111c0 0-95.369068 46.746674-126.027321 92.188632-16.777105 24.804942-21.62553 49.288566-17.291828 73.925686 0 0.257873 0 0.50756 0.082888 0.757247C399.022391 709.84295 470.781738 772.32091 557.782208 772.32091z" fill="#1296db" p-id="42808"></path><path d="M503.440555 811.414277c0 0 42.852994 105.422028 94.355995 142.265144l2.208295 2.000564c22.099321-3.677762 43.700291-8.939603 64.586994-15.615653C613.203448 913.499303 531.267321 864.628246 503.440555 811.414277z" fill="#1296db" p-id="42809"></path><path d="M165.213297 787.696086c14.527878 18.371416 30.450523 35.58138 47.618531 51.53677-0.415462-19.126616-0.589424-132.062781 44.181245-196.974164C257.013073 642.258693 203.136002 658.713456 165.213297 787.696086z" fill="#1296db" p-id="42810"></path><path d="M231.294318 561.310056c0 0-75.396177 15.541975-135.167492 104.335277 7.521301 19.966751 16.370853 39.183418 26.482141 57.730842C133.799844 689.702238 164.384419 616.282065 231.294318 561.310056z" fill="#1296db" p-id="42811"></path><path d="M425.222099 951.005522c22.845311 5.098111 46.306652 8.436136 70.330812 9.937326-19.841907-23.13593-71.294766-92.055602-84.07893-197.304691C411.475004 763.638157 394.888234 885.515972 425.222099 951.005522z" fill="#1296db" p-id="42812"></path><path d="M314.609863 708.498326c0 0-50.448996 69.25327-36.543288 181.441399 19.634176 12.527314 40.229237 23.559579 61.729923 33.081443C330.449619 898.964262 303.387263 817.765939 314.609863 708.498326z" fill="#1296db" p-id="42813"></path></svg>