<?xml version="1.0" standalone="no"?><!DOCTYPE svg PUBLIC "-//W3C//DTD SVG 1.1//EN" "http://www.w3.org/Graphics/SVG/1.1/DTD/svg11.dtd"><svg t="1731548639873" class="icon" viewBox="0 0 1024 1024" version="1.1" xmlns="http://www.w3.org/2000/svg" p-id="93557" xmlns:xlink="http://www.w3.org/1999/xlink" width="200" height="200"><path d="M512 0a512 512 0 1 1 0 1024A512 512 0 0 1 512 0z m-77.482667 412.842667h-11.349333a15.189333 15.189333 0 0 0-15.189333 15.104v20.992c0 8.362667-6.826667 15.189333-15.189334 15.189333h-31.402666a15.189333 15.189333 0 0 0-15.189334 15.104v7.338667c0 8.362667 6.826667 15.189333 15.189334 15.189333h31.402666c8.362667 0 15.189333 6.826667 15.189334 15.189333v16.896c0 8.362667-6.826667 15.189333-15.189334 15.189334h-38.229333a15.189333 15.189333 0 0 0-15.189333 15.189333v8.106667c0 8.362667 6.826667 15.189333 15.189333 15.189333h47.786667c8.448 0 15.274667 6.826667 15.274666 15.189333v74.069334a15.189333 15.189333 0 0 1-27.818666 8.533333 15.530667 15.530667 0 0 1-2.730667-10.922667c2.218667-15.786667 3.669333-32 4.608-48.64a15.189333 15.189333 0 0 0-13.397333-15.872l-7.253334-0.853333a15.189333 15.189333 0 0 0-16.896 14.165333 464.64 464.64 0 0 1-25.6 124.928 15.104 15.104 0 0 0 4.266667 16.554667l8.106667 7.082667a15.274667 15.274667 0 0 0 24.405333-6.485334c1.706667-4.949333 3.328-9.984 4.864-15.018666a15.189333 15.189333 0 0 1 25.002667-6.656c8.533333 7.850667 17.834667 13.994667 27.648 18.602666 23.637333 10.410667 82.517333 16.042667 176.810666 16.042667h80.213334c7.424 0 13.653333-5.290667 15.018666-12.458667l1.536-8.789333a15.104 15.104 0 0 0-15.36-17.834667l-31.061333 0.938667a4161.706667 4161.706667 0 0 1-59.562667 0.853333l-37.546666-0.341333c-34.986667-0.682667-62.293333-2.56-81.834667-5.12a15.104 15.104 0 0 1-12.970667-15.018667V685.226667c0-8.362667 6.826667-15.189333 15.189334-15.189334h21.76c8.362667 0 15.189333-6.826667 15.189333-15.189333V647.68A15.189333 15.189333 0 0 0 494.933333 632.32h-21.76a15.189333 15.189333 0 0 1-15.189333-15.189333v-14.506667c0-8.362667 6.826667-15.189333 15.189333-15.189333h23.808c8.362667 0 15.104-6.826667 15.104-15.189334v-8.106666a15.189333 15.189333 0 0 0-15.104-15.189334h-32.256a15.189333 15.189333 0 0 1-15.189333-15.189333v-16.896c0-8.362667 6.826667-15.189333 15.189333-15.189333h26.965334c8.448 0 15.189333-6.826667 15.189333-15.189334v-7.338666a15.189333 15.189333 0 0 0-15.189333-15.104h-26.965334a15.189333 15.189333 0 0 1-15.189333-15.189334v-20.992a15.189333 15.189333 0 0 0-15.104-15.104z m229.546667 24.405333H540.672a15.36 15.36 0 0 0-15.616 15.189333v8.533334a15.36 15.36 0 0 0 15.616 15.189333h81.237333a15.36 15.36 0 0 1 15.616 15.104v33.024a15.36 15.36 0 0 1-15.616 15.104H545.28a15.36 15.36 0 0 0-15.701333 15.189333v106.666667c0 28.330667 23.637333 51.285333 52.906666 51.285333h58.794667c21.504 0 35.157333-5.205333 41.301333-14.848 5.802667-8.704 10.24-25.770667 13.482667-51.541333a15.36 15.36 0 0 0-10.581333-16.384l-9.984-3.242667a15.701333 15.701333 0 0 0-20.48 12.970667 106.154667 106.154667 0 0 1-3.84 21.333333c-2.56 7.253333-7.850667 11.264-16.981334 11.264H586.24c-9.130667-0.426667-13.653333-4.437333-13.653333-12.458666v-65.365334a15.36 15.36 0 0 1 15.701333-15.189333h75.776a15.36 15.36 0 0 0 15.616-15.104V452.437333a15.36 15.36 0 0 0-15.616-15.189333z m14.933333-191.488H424.106667c-9.045333 0-16.384 9.386667-16.384 20.821333l0.512 5.546667c1.962667 8.789333 8.362667 15.36 15.872 15.36h254.890666c9.045333 0 16.469333-9.386667 16.469334-20.906667l-0.597334-5.546666c-1.962667-8.789333-8.362667-15.274667-15.872-15.274667z m-329.984 0a20.821333 20.821333 0 1 0 0 41.728 20.821333 20.821333 0 0 0 0-41.728z" p-id="93558" fill="#d81e06"></path></svg>