<?xml version="1.0" standalone="no"?><!DOCTYPE svg PUBLIC "-//W3C//DTD SVG 1.1//EN" "http://www.w3.org/Graphics/SVG/1.1/DTD/svg11.dtd"><svg t="1731548722912" class="icon" viewBox="0 0 1092 1024" version="1.1" xmlns="http://www.w3.org/2000/svg" p-id="96350" xmlns:xlink="http://www.w3.org/1999/xlink" width="213.28125" height="200"><path d="M332.9 1010.917c-56.11 28.806-125.597 7.714-155.085-46.962a109.351 109.351 0 0 1-11.468-70.853l37.543-212.968a35.495 35.495 0 0 0-10.58-31.877L34.607 497.404a109.76 109.76 0 0 1-2.047-157.951c17.542-17.611 40.682-29.147 65.665-32.56l219.316-31.058a36.519 36.519 0 0 0 27.645-19.659L443.275 62.39c28.054-55.29 96.928-78.089 153.72-50.785 22.661 10.922 40.955 28.737 52.08 50.785l98.09 193.787c5.392 10.512 15.699 17.884 27.712 19.66l219.044 31.057c62.662 8.874 106.143 65.665 96.996 126.689a111.262 111.262 0 0 1-33.447 63.959L898.836 648.257a35.495 35.495 0 0 0-10.58 31.877l37.406 213.105c10.717 60.75-31.195 118.634-93.652 129.01-24.846 4.163-50.443 0.273-72.9-11.263L563.138 910.44a37.338 37.338 0 0 0-29.352-2.048l-4.641 2.048L332.9 1010.917z" p-id="96351" fill="#d81e06" data-spm-anchor-id="a313x.search_index.0.i52.3f793a81iMCebe" class=""></path><path d="M687.028 499.725l-0.205 0.546c-25.46 63.208-79.863 104.3-140.75 104.3-60.205 0-114.198-40.273-139.931-102.32l-0.82-1.912c-7.85-19.454-27.85-27.918-44.64-18.771-16.86 9.147-24.096 32.355-16.178 51.877 36.382 90.239 114.402 149.146 201.569 149.146S711.26 623.615 747.71 533.377c7.85-19.522 0.546-42.73-16.245-51.877-16.656-9.01-36.382-0.888-44.369 18.225z" p-id="96352" fill="#f4ea2a" data-spm-anchor-id="a313x.search_index.0.i51.3f793a81iMCebe" class=""></path></svg>