<?xml version="1.0" standalone="no"?><!DOCTYPE svg PUBLIC "-//W3C//DTD SVG 1.1//EN" "http://www.w3.org/Graphics/SVG/1.1/DTD/svg11.dtd"><svg t="1731895476790" class="icon" viewBox="0 0 1024 1024" version="1.1" xmlns="http://www.w3.org/2000/svg" p-id="92474" xmlns:xlink="http://www.w3.org/1999/xlink" width="200" height="200"><path d="M538.23488 465.8176l-5.41696 3.60448a330.93632 330.93632 0 0 0-122.71616 182.272c-13.53728 54.13888-26.1632 160.6144 38.79936 188.59008l284.23168 14.4384 86.62016-113.664 57.7536-182.272-21.6576-99.25632c-11.73504-52.33664-113.664-51.43552-152.49408-49.62304a322.94912 322.94912 0 0 0-165.13024 55.94112z" fill="#FF7E98" p-id="92475"></path><path d="M309.79072 390.93248a70.37952 70.37952 0 1 0 70.37952-70.37952 70.37952 70.37952 0 0 0-70.37952 70.37952z" fill="#FF7E98" p-id="92476"></path><path d="M555.97056 860.12928s-217.83552-0.80896-314.43968-148.48c0 0-64.77824-110.11072-44.47232-271.14496 0 0 10.60864-20.59264 19.05664 12.91264 0 0 17.83808 130.85696 22.24128 177.54112 0 0 18.86208 112.0768 149.28896 161.40288 0 0 261.12 91.1872 457.3696-112.98816 0 0 24.49408-13.95712-6.35904 32.27648 0 0-105.10336 148.64384-273.152 148.65408a298.1888 298.1888 0 0 1-9.53344-0.17408z m-76.19584-145.2544s-19.06688-39.64928 12.6976-6.4512c0 0 29.93152 32.69632 63.488 16.13824 0 0 78.1824-32.768 69.86752-154.94144 0 0 8.02816-17.54112-44.46208-6.4512a310.272 310.272 0 0 0-69.12 10.14784l-3.92192 41.49248s-3.90144 14.336 28.59008-6.46144c0 0 51.64032-10.74176 34.92864 35.51232l-60.35456 64.512s-21.76 17.96096-9.51296-9.68704l12.6976-25.82528s-5.632-2.70336-12.6976 9.68704c0 0-36.21888 17.47968-31.744-38.73792 0 0 0.94208-26.83904 2.85696-57.89696a267.8272 267.8272 0 0 0-75.90912 44.98432s-20.38784 69.632 6.3488 90.38848c0 0 38.10304 39.936-15.88224 38.73792 0 0-47.91296-11.56096-38.11328-71.0144 0 0-54.272-10.09664-19.06688-61.3376l31.744-25.82528s9.12384-55.01952 34.93888-61.32736l-3.1744 41.984a687.27808 687.27808 0 0 1 82.05312-36.5056 291.56352 291.56352 0 0 1 6.88128-47.4112l0.8704-12.10368c-18.432-2.73408-37.77536-12.19584-38.98368-39.54688a112.8448 112.8448 0 0 1 48.90624-97.62816l5.12-70.23616s36.79232-39.61856 41.29792 41.984l-1.20832 9.216q6.64576-1.60768 13.91616-2.80576s101.74464 11.3664 3.16416 61.3376c0 0-22.20032-0.28672-9.5232-25.82528a28.2624 28.2624 0 0 0-11.3664-3.34848c-4.18816 32.38912-9.65632 75.22304-10.86464 87.27552l-0.52224 5.5296a115.11808 115.11808 0 0 0 67.19488-44.24704s73.61536-69.72416 34.92864-167.86432c0 0-54.80448-80.42496-152.44288 0 0 0-86.91712 99.01056-66.70336 167.86432 0 0 29.50144 33.44384 9.70752 58.63424 4.49536-3.6352 3.23584-0.48128-2.048 2.6624-8.8576 5.29408-28.99968 10.56768-52.1216-16.10752 0 0-42.21952-93.44 12.70784-219.51488 0 0 13.60896-49.62304 15.88224 51.65056 0 0 105.05216-153.66144 215.97184-116.21376 0 0 124.79488 44.76928 38.12352 232.448a138.33216 138.33216 0 0 1-124.35456 83.8144l-4.46464 47.17568c42.84416-12.4416 89.91744-20.09088 128.8192-11.55072 0 0 45.0048 4.97664 34.93888 83.968 0 0 2.23232 145.57184-79.4112 161.40288a175.616 175.616 0 0 1-33.62816 3.10272c-31.60064 0-75.776-8.66304-87.04-54.784z m-9.53344-300.20608s-5.95968 29.48096 15.95392 39.08608l5.18144-71.58784a162.9696 162.9696 0 0 0-21.15584 32.50176zM222.6176 379.0848a45.1072 45.1072 0 0 0-20.48-12.15488 131.2768 131.2768 0 0 0-5.28384-1.536 65.536 65.536 0 0 1-15.85152-5.98016 21.504 21.504 0 0 1-10.57792-14.19264 28.03712 28.03712 0 0 1 2.36544-20.62336 21.97504 21.97504 0 0 1 13.8752-10.48576 22.9888 22.9888 0 0 1 13.4656 0.80896 27.87328 27.87328 0 0 1 10.3936 6.98368 27.648 27.648 0 0 1 6.144-10.79296 23.90016 23.90016 0 0 1 11.75552-6.9632 21.80096 21.80096 0 0 1 16.91648 2.6624 26.96192 26.96192 0 0 1 11.34592 16.9984 21.41184 21.41184 0 0 1-2.7648 16.86528 63.15008 63.15008 0 0 1-10.79296 12.288c-1.7408 1.66912-3.3792 3.24608-4.84352 4.82304a51.94752 51.94752 0 0 0-12.62592 20.48l-0.08192 2.77504-1.56672 0.38912z" p-id="92477"></path></svg>