<?xml version="1.0" standalone="no"?><!DOCTYPE svg PUBLIC "-//W3C//DTD SVG 1.1//EN" "http://www.w3.org/Graphics/SVG/1.1/DTD/svg11.dtd"><svg t="1734691006233" class="icon" viewBox="0 0 1024 1024" version="1.1" xmlns="http://www.w3.org/2000/svg" p-id="3641" xmlns:xlink="http://www.w3.org/1999/xlink" width="200" height="200"><path d="M1002.26844445 481.62133333c-7.85066667-69.74577778-44.14577778-131.98222222-97.05244445-166.34311111-45.62488889-29.58222222-100.23822222-36.52266667-153.6-19.56977777-42.32533333 13.42577778-76.00355555 38.68444445-98.87288889 73.61422222 3.64088889-16.49777778 7.85066667-40.16355555 6.144-53.36177778-2.84444445-21.73155555-21.16266667-38.00177778-42.32533333-30.83377778-21.04888889 7.168-21.16266667 28.44444445-21.16266667 28.44444444s-20.13866667-6.94044445-33.792 10.69511112c-6.71288889 8.64711111-7.85066667 18.432-5.00622222 27.30666666-19.22844445-2.27555555-36.97777778-1.70666667-52.11022222 0.11377778-19.34222222 2.27555555-36.29511111 6.82666667-49.60711112 11.37777778-5.23377778-13.08444445-12.85688889-28.89955555-23.66577777-45.056-24.576-36.75022222-70.99733333-83.05777778-152.46222223-94.32177778-65.64977778-9.10222222-127.77244445 9.89866667-174.99022222 53.47555556-54.95466667 50.74488889-84.87822222 130.95822222-80.09955555 214.35733333C31.85777778 631.92177778 168.61866667 916.70755555 174.42133333 928.768c4.77866667 10.01244445 14.90488889 16.04266667 25.6 16.04266667 2.38933333 0 4.89244445-0.34133333 7.28177778-0.91022222 9.44355555-2.50311111 226.07644445-60.07466667 361.81333334-128.34133334C686.08 859.36355555 900.89244445 878.70577778 910.90488889 879.50222222c0.79644445 0.11377778 1.70666667 0.11377778 2.50311111 0.11377778 12.62933333 0 23.77955555-8.30577778 27.30666667-20.59377778 3.072-10.58133333 74.52444445-261.46133333 61.55377778-377.40088889z m-921.82755556 6.59911112c-3.86844445-66.56 19.34222222-129.82044445 62.00888889-169.30133334 34.92977778-32.31288889 79.41688889-45.73866667 128.56888889-38.912 47.90044445 6.59911111 85.56088889 29.46844445 111.84355555 67.92533334 20.02488889 29.24088889 26.16888889 57.45777778 26.39644445 58.93688888 1.70666667 9.10222222 7.62311111 16.61155555 15.92888888 20.48 8.41955555 3.86844445 18.09066667 3.41333333 26.1688889-1.25155555 0.91022222-0.45511111 81.92-45.62488889 162.58844444 5.00622222-8.07822222-0.56888889-16.83911111-0.79644445-26.28266667-0.34133333-53.58933333 2.73066667-100.12444445 26.96533333-134.48533333 69.85955555-35.04355555 43.69066667-48.128 97.16622222-36.864 150.41422223 10.80888889 51.08622222 43.46311111 98.304 89.54311111 131.41333333-103.19644445 45.85244445-237.45422222 85.33333333-290.24711111 100.12444444-31.85777778-68.72177778-128.79644445-285.92355555-135.168-394.35377777z m811.91822222 332.34488888c-61.55377778-6.48533333-228.12444445-26.73777778-312.54755556-61.78133333-0.79644445-0.34133333-1.59288889-0.68266667-2.5031111-1.024-5.12-2.16177778-10.01244445-4.43733333-14.44977778-6.82666667-47.33155555-24.576-81.35111111-66.33244445-90.90844445-111.616-7.73688889-36.75022222 1.13777778-72.36266667 25.6-103.08266666 31.97155555-39.82222222 71.45244445-48.92444445 100.69333333-48.92444445 22.86933333 0 39.48088889 5.46133333 41.41511112 6.25777778 8.64711111 3.18577778 18.20444445 2.048 25.82755555-3.18577778 7.62311111-5.23377778 12.17422222-13.88088889 12.288-23.09688889 0-0.91022222 2.61688889-89.20177778 90.90844445-117.19111111 37.43288889-11.94666667 73.84177778-7.39555555 105.35822222 13.08444445 38.79822222 25.14488889 65.536 71.90755555 71.56622222 124.928 9.78488889 85.90222222-36.06755555 268.288-53.248 332.45866666z" fill="#F35D52" p-id="3642"></path><path d="M506.99377778 246.55644445c17.97688889-12.51555555 24.00711111-36.18133333 8.07822222-51.7688889-16.04266667-15.47377778-34.92977778-5.68888889-34.92977778-5.68888888s-3.072-21.04888889-24.91733333-25.14488889c-21.95911111-3.98222222-37.77422222 14.67733333-37.43288889 36.63644444 0.34133333 21.95911111 20.70755555 69.40444445 20.70755555 69.40444445s50.40355555-11.03644445 68.49422223-23.43822222zM576.96711111 146.09066667c19.68355555 9.78488889 71.22488889 13.42577778 71.22488889 13.42577778s13.42577778-49.94844445 10.58133333-71.68-21.16266667-38.00177778-42.32533333-30.83377778-21.16266667 28.44444445-21.16266667 28.44444444-20.13866667-6.94044445-33.792 10.69511111-4.096 40.27733333 15.47377778 49.94844445z" fill="#F35D52" p-id="3643"></path></svg>