<?xml version="1.0" standalone="no"?><!DOCTYPE svg PUBLIC "-//W3C//DTD SVG 1.1//EN" "http://www.w3.org/Graphics/SVG/1.1/DTD/svg11.dtd"><svg t="1734690911975" class="icon" viewBox="0 0 1024 1024" version="1.1" xmlns="http://www.w3.org/2000/svg" p-id="2629" xmlns:xlink="http://www.w3.org/1999/xlink" width="200" height="200"><path d="M886.647467 602.0096c-153.941333 173.533867-152.610133 260.983467-152.610134 260.983467s-148.650667 28.706133-187.016533 17.783466c0 0-5.3248-256.887467 10.581333-291.089066 15.940267-34.133333 144.213333-105.5744 159.914667-116.804267 15.633067-11.264 43.076267-14.336 45.738667 22.528 2.6624 36.932267-80.930133 75.195733-94.208 106.5984-13.243733 31.4368-2.6624 42.3936 21.230933 45.090133 23.927467 2.730667 99.293867-85.879467 110.114133-101.102933 10.8544-15.223467 0-278.766933 45.090134-281.4976 45.124267-2.7648 45.806933 102.775467 41.1648 337.5104z m-353.757867-173.397333c53.4528-68.8128 151.1424-178.756267 202.308267-213.504-27.648 18.1248-131.754667 97.0752-209.6128 206.609066-0.853333-26.7264 0.238933-129.570133 60.552533-191.726933 69.8368-71.8848 192.512-62.088533 192.512-62.088533s9.557333 126.395733-60.279467 198.280533c-59.904 61.713067-158.6176 63.2832-185.480533 62.429867z m-7.304533-6.894934c0.136533 4.164267 0.3072 6.5536 0.3072 6.5536s2.525867 0.2048 6.997333 0.341334c-11.264 14.506667-20.616533 27.204267-27.101867 37.000533a0.750933 0.750933 0 0 0 0.170667 0.273067l-1.297067 4.8128c-2.628267 19.3536-6.314667 38.570667-11.434666 57.002666l-7.8848-10.103466s6.109867-14.506667 11.093333-54.818134a961.160533 961.160533 0 0 0-28.16-38.4c-23.722667 0.4096-95.505067-2.389333-139.707733-47.889066-53.5552-55.159467-46.250667-152.064-46.250667-152.064s94.1056-7.509333 147.626667 47.581866c46.592 47.991467 47.104 127.522133 46.455466 147.421867-51.029333-67.310933-107.451733-116.565333-135.406933-138.171733-9.728-7.5776-15.5648-11.5712-15.5648-11.5712 4.676267 2.901333 9.9328 6.8608 15.5648 11.5712 36.386133 30.173867 91.170133 95.982933 127.317333 143.121066 4.949333-0.068267 7.850667-0.3072 7.850667-0.3072l0.238933-4.642133c7.031467 9.3184 14.0288 19.012267 20.7872 29.047467 5.12-44.782933 8.533333-109.7728 1.774934-201.1136 0 0 18.602667 98.167467 7.5776 202.615466 6.075733-9.6256 12.526933-19.0464 19.0464-28.2624z m-216.951467 51.131734c15.633067 11.264 143.906133 82.705067 159.8464 116.8384 15.906133 34.2016 10.615467 291.089067 10.615467 291.089066-38.331733 10.888533-187.050667-17.783467-187.050667-17.783466s1.3312-87.4496-152.576-260.983467c-4.642133-234.734933-3.9936-340.2752 41.130667-337.5104 45.090133 2.730667 34.269867 266.274133 45.090133 281.4976 10.820267 15.223467 86.186667 103.8336 110.114133 101.102933 23.893333-2.696533 34.5088-13.653333 21.265067-45.090133-13.277867-31.402667-96.8704-69.666133-94.242133-106.5984 2.6624-36.864 30.139733-33.792 45.806933-22.562133z" fill="#EA3F33" p-id="2630"></path></svg>