<?xml version="1.0" standalone="no"?><!DOCTYPE svg PUBLIC "-//W3C//DTD SVG 1.1//EN" "http://www.w3.org/Graphics/SVG/1.1/DTD/svg11.dtd"><svg t="1731548593642" class="icon" viewBox="0 0 1024 1024" version="1.1" xmlns="http://www.w3.org/2000/svg" p-id="92170" xmlns:xlink="http://www.w3.org/1999/xlink" width="200" height="200"><path d="M997.732174 57.433043a5.12 5.12 0 0 0-2.003478-5.12V51.2h-1.113044a2.893913 2.893913 0 0 0-1.780869 0 6.010435 6.010435 0 0 0-2.003479 0h-1.335652L29.161739 512l-11.353043 5.565217 305.864347 119.763479h2.003479a5.565217 5.565217 0 0 0 5.12-3.561739 5.342609 5.342609 0 0 0-1.335652-5.565218l623.304347-540.93913-531.589565 572.994782-1.558261 1.558261V986.156522L621.746087 734.608696 823.652174 807.624348z m-18.253913 16.473044z" p-id="92171" fill="#1296db"></path></svg>