<?xml version="1.0" standalone="no"?><!DOCTYPE svg PUBLIC "-//W3C//DTD SVG 1.1//EN" "http://www.w3.org/Graphics/SVG/1.1/DTD/svg11.dtd"><svg t="1731996540624" class="icon" viewBox="0 0 1024 1024" version="1.1" xmlns="http://www.w3.org/2000/svg" p-id="7335" xmlns:xlink="http://www.w3.org/1999/xlink" width="200" height="200"><path d="M342.576384 110.2887l444.54743 0L787.123814 23.117269c0-12.559526-10.186561-22.744643-22.744643-22.744643L171.111989 0.372626c-60.518544 0-109.754313 49.235769-109.754313 109.76009 0 0.795803 0.153094 1.572829 0.251306 2.36141-0.085213 55.893935-0.777027 569.463876-0.085213 637.000214-0.038996 1.308525-0.19209 2.591052-0.19209 3.92413 0 58.190353 45.554279 105.809963 102.859283 109.401907 1.15543 0.179092 2.283419 0.33363 3.464846 0.33363l19.689975 0c-0.024553-13.083803-0.05055-28.427915-0.063549-45.464733L171.09899 817.689275c-34.547362 0-62.749969-27.428468-64.129264-61.653755 0.037551-0.589269 0.140096-1.179983 0.127097-1.79525-0.025997-1.026889-0.051994-2.567944-0.076547-4.618832 1.981563-33.68079 29.922753-60.492547 64.078714-60.492547l16.144248 0c0.011554-36.060976 0.024553-73.957642 0.05055-111.826866-0.404401-1.718702-0.678815-3.489399-0.678815-5.323645L186.614973 110.119718c0-12.559526 10.166341-22.746087 22.725867-22.746087 12.552305 0 22.737422 10.186561 22.737422 22.746087l0 46.566725C260.243317 128.072214 299.377738 110.261258 342.576384 110.2887z" fill="#feba07" p-id="7336"></path><path d="M941.554279 890.939216c-12.546528 0-22.731645 10.186561-22.731645 22.757642l0 62.835182L348.248102 976.532039c-34.558917 0-62.75719-27.427024-64.136485-61.629202 0.024553-0.615267 0.127097-1.20598 0.127097-1.819803-0.024553-1.002336-0.05055-2.566499-0.076547-4.618832 1.981563-33.663458 29.924197-60.472327 64.085935-60.472327l587.712451 0c1.79525 0 3.526951-0.257083 5.196547-0.667261 0.127097 0 0.268638 0.051994 0.397179 0.051994 12.546528 0 22.733089-10.186561 22.733089-22.733089L964.287368 181.960034c0-12.558082-10.186561-22.737422-22.733089-22.737422L348.274099 159.222612c-60.525766 0-109.761535 49.235769-109.761535 109.73987 0 0.814578 0.160316 1.577162 0.249862 2.380186-0.076547 55.893935-0.775583 569.46532-0.076547 636.994437-0.038996 1.308525-0.199312 2.617049-0.199312 3.925574 0 58.190353 45.561501 105.809963 102.859283 109.401907 1.140987 0.179092 2.27042 0.359628 3.463402 0.359628l596.745027 0c12.572525 0 22.744643-10.186561 22.744643-22.733089l0-85.592824C964.298922 901.125777 954.12536 890.939216 941.554279 890.939216zM417.218618 331.918984c5.017456 0 9.174116-0.696147 12.545083-2.120214 1.646488 0 4.15666-1.390849 7.527628-4.238984 38.461382-15.533315 70.257377-20.468446 95.348987-14.838612 25.091611 2.848135 41.793354 8.479413 50.183221 16.957382l12.546528-4.238984c46.812254-14.109247 86.95912-20.468446 120.442042-19.077597 41.793354 2.848135 67.748649 12.023695 77.78356 27.55701 1.647932 4.238984-2.508728 8.479413-12.546528 12.718398-6.704384 4.238984-11.721839 7.783267-15.055255 10.598183-15.055255 16.958827-24.268367 37.460491-27.601783 61.473219 0 4.238984-10.898595 5.663052-32.619238 4.238984-15.055255 0-25.091611 0-30.110511 0-11.723283 1.424068-23.445123 3.544282-35.12941 6.359199-6.704384 1.424068-10.898595 2.120214-12.545083 2.120214-11.723283-11.29433-21.759639-26.132942-30.111955-44.514392-3.370968-8.479413-5.88114-18.349676-7.527628-29.677224l-2.508728-10.598183c-13.408767 9.903481-24.268367 22.621879-32.620683 38.155193-5.017456 14.142465-5.017456 27.55701 0 40.273963 0 9.903481-30.971306 19.805518-92.838815 29.677224-5.0189-1.390849-15.917495-13.414544-32.620683-36.034979-3.370968-4.240429-5.879695-7.055346-7.527628-8.479413-18.427667-26.827645-27.600339-48.025456-27.600339-63.591989C394.635735 336.159413 402.163362 331.918984 417.218618 331.918984zM424.746245 635.043205c23.406127-18.349676 38.461382-31.066629 45.164322-38.155193 21.720643-36.731126 33.443927-66.40835 35.12941-89.030228 0-2.814917-0.863684-7.750048-2.508728-14.837168-3.372412-8.479413-4.194212-13.4131-2.510172-14.838612 1.647932-2.816361 7.527628-3.511063 17.565427-2.120214 8.350872 0 14.191571-0.696147 17.563983-2.120214 5.017456-1.390849 6.665388-2.120214 5.017456-2.120214 36.774454-11.29433 64.376237-16.957382 82.803904-16.957382 30.110511 1.424068 48.497738 7.783267 55.202121 19.077597 1.646488 2.848135 0 5.664496-5.017456 8.479413-3.372412 2.848135-5.88114 4.96835-7.527628 6.359199-18.427667 16.957382-29.287267 41.003329-32.619238 72.071402-3.372412 28.284931 1.646488 52.297659 15.055255 72.071402 8.350872 11.327549 28.423583 17.686748 60.219577 19.077597 31.756999 2.848135 56.025365-0.694702 72.766104-10.598183 23.406127-14.109247 29.248271-48.025456 17.565427-101.747182-1.685484-9.870262-1.685484-14.837168 0-14.837168 33.442482 26.860863 51.006465 81.973439 52.691949 165.339171-3.370968 5.664496-36.81345 8.479413-100.367887 8.479413-61.906505-1.424068-101.228683-5.629834-117.93187-12.718398-16.740739-16.957382-27.601783-47.329309-32.619238-91.148999 0-7.053901 0.823244-20.468446 2.508728-40.273963 3.331972-36.731126 3.331972-56.503425 0-59.353004-10.036355-8.479413-25.955295-8.479413-47.675938 0-18.426223 14.142465-33.481478 48.753377-45.164322 103.867396 0 1.424068 0.823244 4.238984 2.508728 8.479413 1.646488 8.477969 1.646488 14.141021 0 16.957382-11.721839 12.718398-34.304722 26.860863-67.747205 42.395622-30.111955 12.718398-49.361422 16.26268-57.712293 10.598183C382.089207 673.198398 394.635735 659.087707 424.746245 635.043205z" fill="#feba07" p-id="7337"></path><path d="M648.063458 378.553591c15.055255 2.848135 28.423583 2.120214 40.146866-2.120214 15.055255-8.479413 18.387227-23.316581 10.036355-44.514392-10.036355-7.055346-27.601783-4.935131-52.693394 6.359199-5.0189 4.238984-7.527628 11.327549-7.527628 21.197811C639.673591 369.378031 643.046003 375.738674 648.063458 378.553591z" fill="#feba07" p-id="7338"></path><path d="M464.893111 393.392203c11.682843 2.848135 25.914855-1.390849 42.655594-12.718398 8.350872-12.719842 8.350872-26.132942 0-40.275408-21.758195-4.238984-40.146866 0.727921-55.202121 14.837168C448.975616 372.194392 453.169828 384.91279 464.893111 393.392203z" fill="#feba07" p-id="7339"></path></svg>