<?xml version="1.0" standalone="no"?><!DOCTYPE svg PUBLIC "-//W3C//DTD SVG 1.1//EN" "http://www.w3.org/Graphics/SVG/1.1/DTD/svg11.dtd"><svg t="1731749072934" class="icon" viewBox="0 0 1024 1024" version="1.1" xmlns="http://www.w3.org/2000/svg" p-id="37061" data-darkreader-inline-fill="" xmlns:xlink="http://www.w3.org/1999/xlink" width="200" height="200"><path d="M704 469.333333h-149.333333v-192c0-12.8-10.666667-21.333333-21.333334-21.333333h-42.666666c-12.8 0-21.333333 10.666667-21.333334 21.333333v256c0 12.8 10.666667 21.333333 21.333334 21.333334h213.333333c12.8 0 21.333333-10.666667 21.333333-21.333334v-42.666666c0-10.666667-10.666667-21.333333-21.333333-21.333334z" fill="#297AFF" p-id="37062" data-darkreader-inline-fill="" style="--darkreader-inline-fill: #0044b3;"></path><path d="M870.4 554.666667c-10.666667 0-21.333333 8.533333-23.466667 19.2-29.866667 164.266667-177.066667 285.866667-352 279.466666-172.8-8.533333-315.733333-151.466667-324.266666-324.266666C162.133333 332.8 317.866667 170.666667 512 170.666667c102.4 0 192 44.8 256 115.2v4.266666l-91.733333 74.666667c-6.4 6.4-4.266667 17.066667 6.4 19.2l185.6 19.2c23.466667 2.133333 44.8-14.933333 46.933333-38.4l19.2-185.6c0-8.533333-10.666667-14.933333-17.066667-8.533333l-78.933333 61.866666h-2.133333C755.2 142.933333 640 85.333333 509.866667 85.333333 285.866667 85.333333 98.133333 264.533333 85.333333 488.533333 72.533333 733.866667 268.8 938.666667 512 938.666667c213.333333 0 388.266667-155.733333 422.4-358.4 2.133333-14.933333-6.4-25.6-21.333333-25.6h-42.666667z" fill="#297AFF" p-id="37063" data-darkreader-inline-fill="" style="--darkreader-inline-fill: #0044b3;"></path></svg>