<?xml version="1.0" standalone="no"?><!DOCTYPE svg PUBLIC "-//W3C//DTD SVG 1.1//EN" "http://www.w3.org/Graphics/SVG/1.1/DTD/svg11.dtd"><svg t="1731748847521" class="icon" viewBox="0 0 1024 1024" version="1.1" xmlns="http://www.w3.org/2000/svg" p-id="34754" data-darkreader-inline-fill="" xmlns:xlink="http://www.w3.org/1999/xlink" width="200" height="200"><path d="M117.125 608.798c-4.66-24.274-7.022-49.214-7.022-74.129 0-166.533 105.656-315.055 262.912-369.58l20.228 58.341c-132.421 45.914-221.392 170.992-221.392 311.239 0 21.018 1.99 42.042 5.915 62.489l-60.641 11.64zM884.245 612.674l-60.649-11.602c4.389-22.938 6.905-47.142 6.905-66.403 0-140.248-88.97-265.325-221.392-311.239l20.229-58.341c157.256 54.525 262.912 203.047 262.912 369.58 0 22.981-2.918 51.413-8.005 78.005zM501.176 925.742c-97.867 0-191.525-36.332-263.724-102.3l41.652-45.586c60.791 55.547 139.657 86.137 222.071 86.137 78.69 0 159.059-30.998 220.5-85.048l40.784 46.364c-35.181 30.948-75.245 55.447-119.079 72.818-46.234 18.325-94.079 27.615-142.204 27.615z" fill="#808080" p-id="34755" data-darkreader-inline-fill="" style="--darkreader-inline-fill: #60686c;"></path><path d="M501.577 313.953c-72.243 0-131.017-58.774-131.017-131.017 0-72.244 58.774-131.018 131.017-131.018s131.018 58.774 131.018 131.018c0 72.243-58.775 131.017-131.018 131.017z m0-200.287c-38.195 0-69.269 31.074-69.269 69.27 0 38.194 31.074 69.269 69.269 69.269 38.194 0 69.269-31.074 69.269-69.269 0-38.196-31.075-69.27-69.269-69.27zM194.984 829.539c-68.854 0-124.872-56.016-124.872-124.871 0-68.854 56.018-124.872 124.872-124.872s124.872 56.018 124.872 124.872c-0.001 68.855-56.018 124.871-124.872 124.871z m0-187.994c-34.806 0-63.123 28.317-63.123 63.123s28.317 63.124 63.123 63.124 63.123-28.318 63.123-63.124-28.317-63.123-63.123-63.123z" fill="#33DEB4" p-id="34756" data-darkreader-inline-fill="" style="--darkreader-inline-fill: #1ba68d;"></path><path d="M527.702 357.493c-72.244 0-131.019-58.774-131.019-131.017 0-72.244 58.775-131.018 131.019-131.018 72.242 0 131.018 58.774 131.018 131.018 0 72.243-58.776 131.017-131.018 131.017z m0-200.287c-38.196 0-69.27 31.074-69.27 69.27 0 38.194 31.074 69.269 69.27 69.269 38.194 0 69.269-31.074 69.269-69.269 0-38.196-31.075-69.27-69.269-69.27zM244.721 859.783c-68.854 0-124.871-56.018-124.871-124.872 0-68.855 56.017-124.872 124.871-124.872s124.871 56.017 124.871 124.872c0 68.855-56.017 124.872-124.871 124.872z m0-187.995c-34.806 0-63.123 28.317-63.123 63.123s28.317 63.123 63.123 63.123 63.123-28.317 63.123-63.123-28.318-63.123-63.123-63.123zM862.285 857.907c-68.299 0-123.864-55.565-123.864-123.864s55.565-123.865 123.864-123.865 123.864 55.566 123.864 123.865-55.565 123.864-123.864 123.864z m0-185.98c-34.25 0-62.115 27.864-62.115 62.116 0 34.251 27.865 62.116 62.115 62.116s62.116-27.865 62.116-62.116c0-34.252-27.866-62.116-62.116-62.116z" fill="#33DEB4" opacity=".4" p-id="34757" data-darkreader-inline-fill="" style="--darkreader-inline-fill: #1ba68d;"></path><path d="M812.592 836.81c-68.299 0-123.863-55.566-123.863-123.865 0-68.3 55.564-123.865 123.863-123.865s123.864 55.565 123.864 123.865c0 68.298-55.565 123.865-123.864 123.865z m0-185.982c-34.25 0-62.116 27.865-62.116 62.116s27.866 62.116 62.116 62.116c34.251 0 62.115-27.865 62.115-62.116s-27.864-62.116-62.115-62.116z" fill="#33DEB4" p-id="34758" data-darkreader-inline-fill="" style="--darkreader-inline-fill: #1ba68d;"></path><path d="M625.954 518.961l-25.958-3.183a102.5 102.5 0 0 0-8.149-20.273l16.113-20.621c3.896-4.981 2.865-12.824-2.092-17.781l-16.78-16.781c-4.957-4.957-12.802-5.986-17.781-2.093l-20.033 15.655a102.78 102.78 0 0 0-20.766-8.879l-3.095-25.221c-0.768-6.275-7.042-11.094-14.051-11.094h-23.734c-7.01 0-13.283 4.819-14.053 11.092l-3.022 24.64a102.618 102.618 0 0 0-21.407 8.711l-19.649-15.357c-4.981-3.892-12.824-2.863-17.782 2.094l-16.781 16.782c-4.957 4.958-5.985 12.8-2.093 17.781l15.24 19.5a102.664 102.664 0 0 0-8.857 21.346l-24.827 3.047c-6.275 0.768-11.094 7.043-11.094 14.052v23.733c0 7.01 4.819 13.283 11.093 14.054l25.025 3.068a102.58 102.58 0 0 0 8.74 20.827l-15.772 20.184c-3.892 4.979-2.864 12.822 2.094 17.779l16.782 16.781c4.957 4.959 12.8 5.987 17.781 2.095l20.457-15.986a102.751 102.751 0 0 0 20.227 8.278l3.208 26.15c0.77 6.274 7.044 11.095 14.053 11.095h23.732c7.011 0 13.284-4.82 14.054-11.095l3.233-26.347a102.93 102.93 0 0 0 19.71-8.161l21.136 16.517c4.98 3.893 12.823 2.861 17.781-2.095l16.78-16.779c4.958-4.958 5.986-12.801 2.094-17.783l-16.399-20.983a102.6 102.6 0 0 0 8.299-19.652l26.544-3.257c6.276-0.768 11.095-7.042 11.094-14.053l0.001-23.732c-0.001-7.01-4.82-13.284-11.096-14.055z m-124.779 91.715c-36.512 0-66.112-29.601-66.112-66.113s29.6-66.111 66.112-66.111c36.513 0 66.113 29.6 66.113 66.111 0 36.512-29.6 66.113-66.113 66.113z" fill="#808080" p-id="34759" data-darkreader-inline-fill="" style="--darkreader-inline-fill: #60686c;"></path></svg>