<?xml version="1.0" standalone="no"?><!DOCTYPE svg PUBLIC "-//W3C//DTD SVG 1.1//EN" "http://www.w3.org/Graphics/SVG/1.1/DTD/svg11.dtd"><svg t="1731748636942" class="icon" viewBox="0 0 1024 1024" version="1.1" xmlns="http://www.w3.org/2000/svg" p-id="29144" data-darkreader-inline-fill="" xmlns:xlink="http://www.w3.org/1999/xlink" width="200" height="200"><path d="M690.858667 495.296c-68.48-39.530667-186.304 4.266667-152.149334 86.677333 34.176 82.496-2.261333 171.456-51.797333 214.997334-49.493333 43.584-33.557333 107.733333 6.229333 126.72 73.173333 34.901333 133.504 11.605333 160.469334-99.818667 15.957333-65.92 66.474667-100.970667 92.010666-135.253333 82.261333-110.272-54.762667-193.322667-54.762666-193.322667z m-114.304-56.853333c17.92-1.472 30.784-21.973333 28.16-53.376-2.666667-31.381333-18.410667-45.013333-36.266667-43.52-17.92 1.514667-31.189333 17.578667-28.586667 48.981333 2.730667 31.402667 18.816 49.450667 36.693334 47.914667z m259.114666 92.458666c-7.04-3.285333-15.914667 0.789333-22.528 15.04-6.613333 14.229333-4.928 25.6 2.133334 28.885334 7.04 3.285333 16.853333-2.773333 23.424-17.045334 6.613333-14.186667 4.032-23.594667-3.029334-26.88zM665.6 434.773333c11.861333-0.021333 21.44-14.656 21.418667-38.485333 0-23.850667-9.536-35.136-21.376-35.136-11.84 0-21.44 11.264-21.44 35.093333 0 23.893333 9.6 38.528 21.397333 38.528z m65.386667 20.138667c9.898667 3.413333 22.250667-6.570667 29.354666-27.328 7.04-20.693333 2.432-33.237333-7.466666-36.608-9.877333-3.413333-21.269333 3.690667-28.309334 24.362667-7.104 20.736-3.434667 36.202667 6.421334 39.573333z m79.936 1.450667c-7.957333-4.394667-18.773333-0.256-27.733334 16.042666-9.002667 16.341333-8.021333 29.930667-0.021333 34.346667 7.978667 4.416 20.010667-2.048 29.013333-18.368 8.96-16.32 6.741333-27.584-1.258666-32zM341.333333 206.869333s-160.042667 7.253333-140.714666 143.402667c5.994667 42.346667 33.578667 97.322667 15.978666 162.837333-29.674667 110.72 12.074667 160.042667 93.034667 164.48 44.010667 2.432 88.789333-46.229333 66.197333-108.224-22.613333-61.952-11.968-157.482667 57.514667-213.546666 69.525333-55.978667-12.970667-150.848-92.010667-148.949334z m127.594667 4.8c15.018667 9.877333 37.781333 1.792 55.210667-24.512 17.344-26.261333 13.397333-46.72-1.6-56.64-14.976-9.898667-35.328-5.482667-52.693334 20.778667-17.365333 26.304-15.893333 50.474667-0.917333 60.373333zM209.749333 192.725333c1.002667-15.701333-4.821333-23.509333-12.586666-24-7.765333-0.512-14.570667 6.485333-15.573334 22.144-0.981333 15.701333 4.672 25.728 12.458667 26.197334 7.722667 0.490667 14.677333-8.682667 15.701333-24.341334z m182.762667-26.901333c10.346667 5.653333 25.813333-2.581333 37.205333-23.530667 11.434667-20.928 8.426667-35.413333-1.941333-41.109333-10.410667-5.653333-24.234667-0.32-35.626667 20.586667-11.456 20.949333-10.026667 38.4 0.362667 44.053333z m-67.093333-13.653333c10.261333 1.792 20.928-10.026667 24.682666-31.637334 3.690667-21.546667-2.901333-33.216-13.184-34.986666-10.346667-1.749333-20.416 7.04-24.170666 28.586666-3.690667 21.589333 2.389333 36.266667 12.672 38.037334z m-70.592 20.522666c9.173333-0.064 16.490667-11.52 16.426666-30.144-0.106667-18.645333-7.530667-27.434667-16.64-27.392-9.173333 0.042667-16.512 8.896-16.490666 27.498667 0.085333 18.645333 7.594667 30.058667 16.704 30.037333z" fill="#00AAB7" p-id="29145" data-darkreader-inline-fill="" style="--darkreader-inline-fill: #008892;"></path></svg>