<?xml version="1.0" standalone="no"?><!DOCTYPE svg PUBLIC "-//W3C//DTD SVG 1.1//EN" "http://www.w3.org/Graphics/SVG/1.1/DTD/svg11.dtd"><svg t="1731748506331" class="icon" viewBox="0 0 1024 1024" version="1.1" xmlns="http://www.w3.org/2000/svg" p-id="24514" data-darkreader-inline-fill="" xmlns:xlink="http://www.w3.org/1999/xlink" width="200" height="200"><path d="M512 1024c-148.110649 0-265.488338-224.943048-265.488338-512.092569S363.148798 0 512 0 777.858615 224.943048 777.858615 511.907431s-117.007413 512.092569-265.858615 512.092569z m0-981.23305c-120.710179 0-222.165974 214.945579-222.165974 469.325619S391.289821 981.23305 512 981.23305s222.165974-214.945579 222.165974-469.510757-101.270656-469.140481-222.165974-469.140481z" fill="#1A96FC" p-id="24515" data-darkreader-inline-fill="" style="--darkreader-inline-fill: #0268bc;"></path><path d="M757.863677 867.18785a470.806726 470.806726 0 0 1-47.210269-2.591936c-106.084252-10.92316-227.164708-56.467185-340.654493-128.30085S163.569698 573.928765 108.213343 483.396131C50.265052 387.494486 39.897306 300.479479 79.331766 238.273007S201.893329 148.110649 313.346592 159.404086c106.084252 10.92316 227.164708 56.467185 340.654493 128.30085s206.429217 161.625746 261.785572 252.898933c57.948291 95.716507 68.316037 182.916652 28.881577 245.123124-33.695173 53.134695-99.048997 81.460857-186.804557 81.460857zM265.766046 199.393961c-72.203941 0-124.96836 21.290906-150.332309 61.651058-30.362683 47.765684-19.994938 119.043934 29.251853 200.319653 52.023865 85.719038 140.149702 170.697523 248.085337 239.01356s222.165974 111.082987 322.325801 121.821009c94.420539 9.812331 163.291991-11.293437 193.654673-59.24426s19.809799-119.043934-29.436991-200.319653c-52.023865-85.719038-140.149702-170.697523-248.085337-239.01356s-222.165974-111.082987-322.325801-121.821009a391.012114 391.012114 0 0 0-43.137226-2.406798z" fill="#1A96FC" p-id="24516" data-darkreader-inline-fill="" style="--darkreader-inline-fill: #0268bc;"></path><path d="M266.136323 892.551799c-69.05659 0-123.116977-21.661182-156.256735-63.687579-45.544025-57.948291-44.433195-145.518713 3.517628-246.789369 45.544025-96.45706 129.596818-195.506057 234.385102-277.707467 105.528837-83.127102 221.055144-140.890255 325.658289-162.736576 109.60188-22.772012 195.13578-3.517628 240.679805 54.430664s44.433195 145.518713-3.517628 246.789369c-45.544025 96.45706-129.596818 195.506057-234.199964 278.633158s-222.165974 140.890255-325.658289 162.551438a416.561201 416.561201 0 0 1-84.608208 8.516362zM758.233954 173.844874a387.309347 387.309347 0 0 0-76.091846 8.516363C583.833665 203.652142 474.416923 257.712529 374.071958 336.951727c-100.344965 79.054059-179.399024 172.548906-222.165974 263.266678-40.54529 85.904176-43.692641 157.737841-8.516362 202.356175s105.528837 58.318568 198.653408 38.879045c98.123305-20.365214 207.540047-75.351293 307.885012-154.405352s179.399024-172.548906 222.165974-263.266678c40.54529-85.904176 43.507503-157.737841 8.516362-202.356175-24.623395-31.473513-67.020069-47.580546-122.376424-47.580546z" fill="#1A96FC" p-id="24517" data-darkreader-inline-fill="" style="--darkreader-inline-fill: #0268bc;"></path></svg>