<svg xmlns="http://www.w3.org/2000/svg" viewBox="0 0 492 492" style="enable-background:new 0 0 492 492" xml:space="preserve"><path style="fill:#fff" d="M0 0h492v492H0z"/><path d="M24 24h12v12H24zM36 24h12v12H36zM48 24h12v12H48zM60 24h12v12H60zM72 24h12v12H72zM84 24h12v12H84zM96 24h12v12H96zM120 24h12v12h-12zM132 24h12v12h-12zM156 24h12v12h-12zM168 24h12v12h-12zM216 24h12v12h-12zM240 24h12v12h-12zM252 24h12v12h-12zM336 24h12v12h-12zM348 24h12v12h-12zM384 24h12v12h-12zM396 24h12v12h-12zM408 24h12v12h-12zM420 24h12v12h-12zM432 24h12v12h-12zM444 24h12v12h-12zM456 24h12v12h-12zM24 36h12v12H24zM96 36h12v12H96zM132 36h12v12h-12zM144 36h12v12h-12zM156 36h12v12h-12zM168 36h12v12h-12zM180 36h12v12h-12zM192 36h12v12h-12zM216 36h12v12h-12zM228 36h12v12h-12zM252 36h12v12h-12zM264 36h12v12h-12zM288 36h12v12h-12zM300 36h12v12h-12zM312 36h12v12h-12zM348 36h12v12h-12zM360 36h12v12h-12zM384 36h12v12h-12zM456 36h12v12h-12zM24 48h12v12H24zM48 48h12v12H48zM60 48h12v12H60zM72 48h12v12H72zM96 48h12v12H96zM180 48h12v12h-12zM192 48h12v12h-12zM216 48h12v12h-12zM228 48h12v12h-12zM240 48h12v12h-12zM288 48h12v12h-12zM300 48h12v12h-12zM348 48h12v12h-12zM360 48h12v12h-12zM384 48h12v12h-12zM408 48h12v12h-12zM420 48h12v12h-12zM432 48h12v12h-12zM456 48h12v12h-12zM24 60h12v12H24zM48 60h12v12H48zM60 60h12v12H60zM72 60h12v12H72zM96 60h12v12H96zM120 60h12v12h-12zM168 60h12v12h-12zM180 60h12v12h-12zM192 60h12v12h-12zM252 60h12v12h-12zM336 60h12v12h-12zM348 60h12v12h-12zM360 60h12v12h-12zM384 60h12v12h-12zM408 60h12v12h-12zM420 60h12v12h-12zM432 60h12v12h-12zM456 60h12v12h-12zM24 72h12v12H24zM48 72h12v12H48zM60 72h12v12H60zM72 72h12v12H72zM96 72h12v12H96zM132 72h12v12h-12zM192 72h12v12h-12zM228 72h12v12h-12zM252 72h12v12h-12zM288 72h12v12h-12zM300 72h12v12h-12zM312 72h12v12h-12zM324 72h12v12h-12zM348 72h12v12h-12zM384 72h12v12h-12zM408 72h12v12h-12zM420 72h12v12h-12zM432 72h12v12h-12zM456 72h12v12h-12zM24 84h12v12H24zM96 84h12v12H96zM132 84h12v12h-12zM168 84h12v12h-12zM192 84h12v12h-12zM204 84h12v12h-12zM240 84h12v12h-12zM264 84h12v12h-12zM300 84h12v12h-12zM324 84h12v12h-12zM348 84h12v12h-12zM360 84h12v12h-12zM384 84h12v12h-12zM456 84h12v12h-12zM24 96h12v12H24zM36 96h12v12H36zM48 96h12v12H48zM60 96h12v12H60zM72 96h12v12H72zM84 96h12v12H84zM96 96h12v12H96zM120 96h12v12h-12zM144 96h12v12h-12zM168 96h12v12h-12zM192 96h12v12h-12zM216 96h12v12h-12zM240 96h12v12h-12zM264 96h12v12h-12zM288 96h12v12h-12zM312 96h12v12h-12zM336 96h12v12h-12zM360 96h12v12h-12zM384 96h12v12h-12zM396 96h12v12h-12zM408 96h12v12h-12zM420 96h12v12h-12zM432 96h12v12h-12zM444 96h12v12h-12zM456 96h12v12h-12zM156 108h12v12h-12zM192 108h12v12h-12zM204 108h12v12h-12zM228 108h12v12h-12zM240 108h12v12h-12zM252 108h12v12h-12zM264 108h12v12h-12zM276 108h12v12h-12zM300 108h12v12h-12zM312 108h12v12h-12zM324 108h12v12h-12zM336 108h12v12h-12zM360 108h12v12h-12zM48 120h12v12H48zM72 120h12v12H72zM84 120h12v12H84zM96 120h12v12H96zM120 120h12v12h-12zM168 120h12v12h-12zM180 120h12v12h-12zM192 120h12v12h-12zM240 120h12v12h-12zM264 120h12v12h-12zM276 120h12v12h-12zM288 120h12v12h-12zM300 120h12v12h-12zM348 120h12v12h-12zM372 120h12v12h-12zM420 120h12v12h-12zM456 120h12v12h-12zM144 132h12v12h-12zM192 132h12v12h-12zM204 132h12v12h-12zM216 132h12v12h-12zM252 132h12v12h-12zM264 132h12v12h-12zM276 132h12v12h-12zM300 132h12v12h-12zM324 132h12v12h-12zM360 132h12v12h-12zM384 132h12v12h-12zM396 132h12v12h-12zM444 132h12v12h-12zM456 132h12v12h-12zM24 144h12v12H24zM48 144h12v12H48zM60 144h12v12H60zM72 144h12v12H72zM96 144h12v12H96zM108 144h12v12h-12zM120 144h12v12h-12zM168 144h12v12h-12zM180 144h12v12h-12zM204 144h12v12h-12zM216 144h12v12h-12zM228 144h12v12h-12zM252 144h12v12h-12zM264 144h12v12h-12zM288 144h12v12h-12zM312 144h12v12h-12zM324 144h12v12h-12zM384 144h12v12h-12zM408 144h12v12h-12zM456 144h12v12h-12zM24 156h12v12H24zM36 156h12v12H36zM108 156h12v12h-12zM156 156h12v12h-12zM204 156h12v12h-12zM216 156h12v12h-12zM228 156h12v12h-12zM240 156h12v12h-12zM264 156h12v12h-12zM288 156h12v12h-12zM312 156h12v12h-12zM324 156h12v12h-12zM336 156h12v12h-12zM348 156h12v12h-12zM372 156h12v12h-12zM444 156h12v12h-12zM456 156h12v12h-12zM24 168h12v12H24zM36 168h12v12H36zM60 168h12v12H60zM96 168h12v12H96zM108 168h12v12h-12zM120 168h12v12h-12zM132 168h12v12h-12zM168 168h12v12h-12zM180 168h12v12h-12zM204 168h12v12h-12zM264 168h12v12h-12zM288 168h12v12h-12zM300 168h12v12h-12zM324 168h12v12h-12zM348 168h12v12h-12zM384 168h12v12h-12zM396 168h12v12h-12zM408 168h12v12h-12zM456 168h12v12h-12zM24 180h12v12H24zM36 180h12v12H36zM72 180h12v12H72zM84 180h12v12H84zM108 180h12v12h-12zM144 180h12v12h-12zM156 180h12v12h-12zM192 180h12v12h-12zM204 180h12v12h-12zM216 180h12v12h-12zM228 180h12v12h-12zM240 180h12v12h-12zM288 180h12v12h-12zM312 180h12v12h-12zM384 180h12v12h-12zM420 180h12v12h-12zM432 180h12v12h-12zM444 180h12v12h-12zM456 180h12v12h-12zM24 192h12v12H24zM60 192h12v12H60zM96 192h12v12H96zM108 192h12v12h-12zM132 192h12v12h-12zM156 192h12v12h-12zM168 192h12v12h-12zM192 192h12v12h-12zM204 192h12v12h-12zM216 192h12v12h-12zM240 192h12v12h-12zM252 192h12v12h-12zM276 192h12v12h-12zM288 192h12v12h-12zM312 192h12v12h-12zM324 192h12v12h-12zM384 192h12v12h-12zM432 192h12v12h-12zM444 192h12v12h-12zM456 192h12v12h-12zM24 204h12v12H24zM48 204h12v12H48zM60 204h12v12H60zM72 204h12v12H72zM144 204h12v12h-12zM168 204h12v12h-12zM192 204h12v12h-12zM216 204h12v12h-12zM228 204h12v12h-12zM240 204h12v12h-12zM252 204h12v12h-12zM264 204h12v12h-12zM276 204h12v12h-12zM288 204h12v12h-12zM300 204h12v12h-12zM312 204h12v12h-12zM324 204h12v12h-12zM336 204h12v12h-12zM348 204h12v12h-12zM408 204h12v12h-12zM444 204h12v12h-12zM48 216h12v12H48zM60 216h12v12H60zM72 216h12v12H72zM96 216h12v12H96zM108 216h12v12h-12zM120 216h12v12h-12zM144 216h12v12h-12zM168 216h12v12h-12zM180 216h12v12h-12zM192 216h12v12h-12zM228 216h12v12h-12zM252 216h12v12h-12zM264 216h12v12h-12zM276 216h12v12h-12zM288 216h12v12h-12zM312 216h12v12h-12zM324 216h12v12h-12zM360 216h12v12h-12zM372 216h12v12h-12zM384 216h12v12h-12zM396 216h12v12h-12zM420 216h12v12h-12zM24 228h12v12H24zM36 228h12v12H36zM48 228h12v12H48zM72 228h12v12H72zM84 228h12v12H84zM144 228h12v12h-12zM156 228h12v12h-12zM168 228h12v12h-12zM180 228h12v12h-12zM204 228h12v12h-12zM216 228h12v12h-12zM228 228h12v12h-12zM240 228h12v12h-12zM252 228h12v12h-12zM300 228h12v12h-12zM312 228h12v12h-12zM324 228h12v12h-12zM360 228h12v12h-12zM384 228h12v12h-12zM420 228h12v12h-12zM432 228h12v12h-12zM444 228h12v12h-12zM456 228h12v12h-12zM24 240h12v12H24zM36 240h12v12H36zM48 240h12v12H48zM72 240h12v12H72zM96 240h12v12H96zM108 240h12v12h-12zM120 240h12v12h-12zM132 240h12v12h-12zM144 240h12v12h-12zM228 240h12v12h-12zM276 240h12v12h-12zM288 240h12v12h-12zM324 240h12v12h-12zM336 240h12v12h-12zM360 240h12v12h-12zM372 240h12v12h-12zM384 240h12v12h-12zM420 240h12v12h-12zM432 240h12v12h-12zM444 240h12v12h-12zM456 240h12v12h-12zM24 252h12v12H24zM36 252h12v12H36zM48 252h12v12H48zM60 252h12v12H60zM72 252h12v12H72zM132 252h12v12h-12zM144 252h12v12h-12zM156 252h12v12h-12zM168 252h12v12h-12zM204 252h12v12h-12zM216 252h12v12h-12zM228 252h12v12h-12zM252 252h12v12h-12zM276 252h12v12h-12zM300 252h12v12h-12zM312 252h12v12h-12zM324 252h12v12h-12zM360 252h12v12h-12zM384 252h12v12h-12zM408 252h12v12h-12zM456 252h12v12h-12zM48 264h12v12H48zM60 264h12v12H60zM72 264h12v12H72zM84 264h12v12H84zM96 264h12v12H96zM108 264h12v12h-12zM120 264h12v12h-12zM156 264h12v12h-12zM168 264h12v12h-12zM216 264h12v12h-12zM228 264h12v12h-12zM264 264h12v12h-12zM300 264h12v12h-12zM348 264h12v12h-12zM360 264h12v12h-12zM372 264h12v12h-12zM384 264h12v12h-12zM396 264h12v12h-12zM24 276h12v12H24zM84 276h12v12H84zM108 276h12v12h-12zM132 276h12v12h-12zM168 276h12v12h-12zM180 276h12v12h-12zM204 276h12v12h-12zM240 276h12v12h-12zM276 276h12v12h-12zM312 276h12v12h-12zM324 276h12v12h-12zM384 276h12v12h-12zM432 276h12v12h-12zM444 276h12v12h-12zM456 276h12v12h-12zM60 288h12v12H60zM72 288h12v12H72zM84 288h12v12H84zM96 288h12v12H96zM108 288h12v12h-12zM120 288h12v12h-12zM144 288h12v12h-12zM168 288h12v12h-12zM180 288h12v12h-12zM204 288h12v12h-12zM228 288h12v12h-12zM240 288h12v12h-12zM312 288h12v12h-12zM324 288h12v12h-12zM336 288h12v12h-12zM372 288h12v12h-12zM384 288h12v12h-12zM408 288h12v12h-12zM420 288h12v12h-12zM444 288h12v12h-12zM456 288h12v12h-12zM24 300h12v12H24zM36 300h12v12H36zM48 300h12v12H48zM60 300h12v12H60zM72 300h12v12H72zM108 300h12v12h-12zM204 300h12v12h-12zM216 300h12v12h-12zM228 300h12v12h-12zM240 300h12v12h-12zM276 300h12v12h-12zM288 300h12v12h-12zM300 300h12v12h-12zM324 300h12v12h-12zM360 300h12v12h-12zM384 300h12v12h-12zM24 312h12v12H24zM96 312h12v12H96zM120 312h12v12h-12zM204 312h12v12h-12zM216 312h12v12h-12zM228 312h12v12h-12zM252 312h12v12h-12zM288 312h12v12h-12zM300 312h12v12h-12zM312 312h12v12h-12zM348 312h12v12h-12zM372 312h12v12h-12zM384 312h12v12h-12zM396 312h12v12h-12zM408 312h12v12h-12zM420 312h12v12h-12zM432 312h12v12h-12zM144 324h12v12h-12zM156 324h12v12h-12zM168 324h12v12h-12zM192 324h12v12h-12zM240 324h12v12h-12zM252 324h12v12h-12zM276 324h12v12h-12zM288 324h12v12h-12zM300 324h12v12h-12zM312 324h12v12h-12zM324 324h12v12h-12zM372 324h12v12h-12zM420 324h12v12h-12zM432 324h12v12h-12zM456 324h12v12h-12zM24 336h12v12H24zM48 336h12v12H48zM72 336h12v12H72zM96 336h12v12H96zM144 336h12v12h-12zM156 336h12v12h-12zM168 336h12v12h-12zM180 336h12v12h-12zM204 336h12v12h-12zM216 336h12v12h-12zM240 336h12v12h-12zM252 336h12v12h-12zM288 336h12v12h-12zM300 336h12v12h-12zM312 336h12v12h-12zM432 336h12v12h-12zM444 336h12v12h-12zM456 336h12v12h-12zM36 348h12v12H36zM60 348h12v12H60zM72 348h12v12H72zM84 348h12v12H84zM108 348h12v12h-12zM120 348h12v12h-12zM168 348h12v12h-12zM192 348h12v12h-12zM228 348h12v12h-12zM240 348h12v12h-12zM252 348h12v12h-12zM312 348h12v12h-12zM324 348h12v12h-12zM336 348h12v12h-12zM348 348h12v12h-12zM372 348h12v12h-12zM384 348h12v12h-12zM396 348h12v12h-12zM456 348h12v12h-12zM24 360h12v12H24zM48 360h12v12H48zM96 360h12v12H96zM108 360h12v12h-12zM132 360h12v12h-12zM144 360h12v12h-12zM156 360h12v12h-12zM168 360h12v12h-12zM180 360h12v12h-12zM228 360h12v12h-12zM240 360h12v12h-12zM252 360h12v12h-12zM264 360h12v12h-12zM300 360h12v12h-12zM312 360h12v12h-12zM324 360h12v12h-12zM348 360h12v12h-12zM360 360h12v12h-12zM372 360h12v12h-12zM384 360h12v12h-12zM396 360h12v12h-12zM408 360h12v12h-12zM420 360h12v12h-12zM444 360h12v12h-12zM120 372h12v12h-12zM144 372h12v12h-12zM156 372h12v12h-12zM168 372h12v12h-12zM180 372h12v12h-12zM192 372h12v12h-12zM204 372h12v12h-12zM216 372h12v12h-12zM240 372h12v12h-12zM264 372h12v12h-12zM276 372h12v12h-12zM288 372h12v12h-12zM312 372h12v12h-12zM360 372h12v12h-12zM408 372h12v12h-12zM456 372h12v12h-12zM24 384h12v12H24zM36 384h12v12H36zM48 384h12v12H48zM60 384h12v12H60zM72 384h12v12H72zM84 384h12v12H84zM96 384h12v12H96zM144 384h12v12h-12zM180 384h12v12h-12zM204 384h12v12h-12zM228 384h12v12h-12zM252 384h12v12h-12zM312 384h12v12h-12zM348 384h12v12h-12zM360 384h12v12h-12zM384 384h12v12h-12zM408 384h12v12h-12zM432 384h12v12h-12zM444 384h12v12h-12zM456 384h12v12h-12zM24 396h12v12H24zM96 396h12v12H96zM120 396h12v12h-12zM132 396h12v12h-12zM144 396h12v12h-12zM156 396h12v12h-12zM168 396h12v12h-12zM180 396h12v12h-12zM204 396h12v12h-12zM252 396h12v12h-12zM276 396h12v12h-12zM312 396h12v12h-12zM324 396h12v12h-12zM336 396h12v12h-12zM360 396h12v12h-12zM408 396h12v12h-12zM24 408h12v12H24zM48 408h12v12H48zM60 408h12v12H60zM72 408h12v12H72zM96 408h12v12H96zM120 408h12v12h-12zM132 408h12v12h-12zM180 408h12v12h-12zM192 408h12v12h-12zM204 408h12v12h-12zM216 408h12v12h-12zM240 408h12v12h-12zM252 408h12v12h-12zM264 408h12v12h-12zM300 408h12v12h-12zM312 408h12v12h-12zM324 408h12v12h-12zM336 408h12v12h-12zM360 408h12v12h-12zM372 408h12v12h-12zM384 408h12v12h-12zM396 408h12v12h-12zM408 408h12v12h-12zM420 408h12v12h-12zM24 420h12v12H24zM48 420h12v12H48zM60 420h12v12H60zM72 420h12v12H72zM96 420h12v12H96zM156 420h12v12h-12zM168 420h12v12h-12zM180 420h12v12h-12zM228 420h12v12h-12zM252 420h12v12h-12zM300 420h12v12h-12zM324 420h12v12h-12zM348 420h12v12h-12zM360 420h12v12h-12zM372 420h12v12h-12zM396 420h12v12h-12zM408 420h12v12h-12zM432 420h12v12h-12zM444 420h12v12h-12zM456 420h12v12h-12zM24 432h12v12H24zM48 432h12v12H48zM60 432h12v12H60zM72 432h12v12H72zM96 432h12v12H96zM120 432h12v12h-12zM156 432h12v12h-12zM252 432h12v12h-12zM264 432h12v12h-12zM396 432h12v12h-12zM408 432h12v12h-12zM456 432h12v12h-12zM24 444h12v12H24zM96 444h12v12H96zM132 444h12v12h-12zM144 444h12v12h-12zM168 444h12v12h-12zM180 444h12v12h-12zM216 444h12v12h-12zM240 444h12v12h-12zM252 444h12v12h-12zM276 444h12v12h-12zM288 444h12v12h-12zM300 444h12v12h-12zM324 444h12v12h-12zM336 444h12v12h-12zM348 444h12v12h-12zM360 444h12v12h-12zM372 444h12v12h-12zM420 444h12v12h-12zM444 444h12v12h-12zM24 456h12v12H24zM36 456h12v12H36zM48 456h12v12H48zM60 456h12v12H60zM72 456h12v12H72zM84 456h12v12H84zM96 456h12v12H96zM132 456h12v12h-12zM144 456h12v12h-12zM156 456h12v12h-12zM168 456h12v12h-12zM204 456h12v12h-12zM228 456h12v12h-12zM312 456h12v12h-12zM324 456h12v12h-12zM360 456h12v12h-12zM372 456h12v12h-12zM384 456h12v12h-12zM396 456h12v12h-12zM408 456h12v12h-12zM444 456h12v12h-12zM456 456h12v12h-12z"/></svg>