<?xml version="1.0" encoding="utf-8"?>
<!-- Generator: Adobe Illustrator 25.2.1, SVG Export Plug-In . SVG Version: 6.00 Build 0)  -->
<svg version="1.1" id="图层_1" xmlns="http://www.w3.org/2000/svg" xmlns:xlink="http://www.w3.org/1999/xlink" x="0px" y="0px"
	 viewBox="0 0 227 199" style="enable-background:new 0 0 227 199;" xml:space="preserve">
<style type="text/css">
	.st0{fill:#D8D8D8;fill-opacity:0;}
	.st1{fill:#B9C0C8;fill-opacity:0.18;}
	.st2{fill:#E8EEF6;}
	.st3{fill:#D6DFE9;}
	.st4{fill:#FFFFFF;}
	.st5{fill:#D7DDE4;}
	.st6{fill:#1A66FF;}
	.st7{fill:#34C8CD;}
	.st8{fill:#34C8CD;fill-opacity:0.2;}
	.st9{fill:none;stroke:#CDD9E6;stroke-linecap:round;}
	.st10{fill:#C6ECEF;}
	.st11{fill:#80B1FF;fill-opacity:0.3;}
	.st12{fill:#80B1FF;}
	.st13{opacity:0.5;fill:none;stroke:#80B1FF;stroke-width:0.7207;enable-background:new    ;}
	.st14{opacity:0.2;fill:none;stroke:#80B1FF;stroke-width:0.7207;enable-background:new    ;}
	.st15{fill-rule:evenodd;clip-rule:evenodd;fill:url(#path-2_2_);}
	.st16{filter:url(#Adobe_OpacityMaskFilter);}
	.st17{fill-rule:evenodd;clip-rule:evenodd;fill:#FFFFFF;}
	.st18{mask:url(#mask-3_10_);fill-rule:evenodd;clip-rule:evenodd;fill:#BAEDDC;}
	.st19{filter:url(#Adobe_OpacityMaskFilter_1_);}
	.st20{mask:url(#mask-3_9_);fill-rule:evenodd;clip-rule:evenodd;fill:#A7DDCB;}
	.st21{filter:url(#Adobe_OpacityMaskFilter_2_);}
	.st22{mask:url(#mask-3_8_);fill-rule:evenodd;clip-rule:evenodd;fill:#75C5AA;}
	.st23{filter:url(#Adobe_OpacityMaskFilter_3_);}
	.st24{mask:url(#mask-3_7_);fill-rule:evenodd;clip-rule:evenodd;fill:#599EAB;}
	.st25{filter:url(#Adobe_OpacityMaskFilter_4_);}
	.st26{mask:url(#mask-3_6_);fill-rule:evenodd;clip-rule:evenodd;fill:#336D78;}
	.st27{fill-rule:evenodd;clip-rule:evenodd;fill:url(#path-5_2_);}
	.st28{filter:url(#Adobe_OpacityMaskFilter_5_);}
	.st29{mask:url(#mask-6_10_);fill-rule:evenodd;clip-rule:evenodd;fill:#BAEDDC;}
	.st30{filter:url(#Adobe_OpacityMaskFilter_6_);}
	.st31{mask:url(#mask-6_9_);fill-rule:evenodd;clip-rule:evenodd;fill:#A7DDCB;}
	.st32{filter:url(#Adobe_OpacityMaskFilter_7_);}
	.st33{mask:url(#mask-6_8_);fill-rule:evenodd;clip-rule:evenodd;fill:#75C5AA;}
	.st34{filter:url(#Adobe_OpacityMaskFilter_8_);}
	.st35{mask:url(#mask-6_7_);fill-rule:evenodd;clip-rule:evenodd;fill:#599EAB;}
	.st36{filter:url(#Adobe_OpacityMaskFilter_9_);}
	.st37{mask:url(#mask-6_6_);fill-rule:evenodd;clip-rule:evenodd;fill:#336D78;}
	.st38{fill:#BBD9FA;}
	.st39{fill:#C4D8FC;}
	.st40{opacity:0.2517;fill:#33C8CD;enable-background:new    ;}
	.st41{fill:#FFBBD8;}
</style>
<desc>Created with Sketch.</desc>
<g id="页面-1">
	<g id="backhome" transform="translate(-7.000000, -22.000000)">
		<rect id="矩形" class="st0" width="244" height="244"/>
		<g id="编组-23" transform="translate(10.000000, 22.000000)">
			<g id="编组-29">
				<g id="编组" transform="translate(0.000000, 23.919999)">
					<path id="Fill-1" class="st1" d="M184.2,76.5v67.7c0,4.8-3.9,8.8-8.8,8.8H53.8c-4.8,0-8.8-3.9-8.8-8.8V76.5
						c0-4.8,3.9-8.8,8.8-8.8h121.6C180.3,67.7,184.2,71.7,184.2,76.5"/>
					<path id="Fill-1_1_" class="st2" d="M194.6,52.5v77.8c0,5.6-4.5,10.1-10.1,10.1H44.7c-5.6,0-10.1-4.5-10.1-10.1V52.5
						c0-5.6,4.5-10.1,10.1-10.1h139.8C190.1,42.5,194.6,47,194.6,52.5"/>
					<polygon id="Fill-3" class="st3" points="34.6,68.9 61.5,95.8 34.6,122.6 					"/>
					<path id="Fill-5" class="st3" d="M123.2,42.5L73.5,92.1L34.6,53.2v-0.6c0-5.6,4.5-10.1,10.1-10.1H123.2z"/>
					<path id="Fill-7" class="st3" d="M102.3,139c0,0.5,0,1-0.1,1.4H57.7c0-0.5-0.1-1-0.1-1.4c0-12.3,10-22.3,22.3-22.3
						S102.3,126.7,102.3,139"/>
					<path id="Fill-9" class="st4" d="M194.6,99.4v31c0,5.6-4.5,10.1-10.1,10.1h-31.7C153.2,117.7,171.7,99.4,194.6,99.4"/>
					<path id="Fill-11" class="st5" d="M134.1,100.8c0,1.6-4.8,2.9-10.8,2.9s-10.8-1.3-10.8-2.9s4.8-2.9,10.8-2.9
						S134.1,99.2,134.1,100.8"/>
					<path id="Fill-13" class="st3" d="M194.6,109.5v20.9c0,5.6-4.5,10.1-10.1,10.1h-21.6C163.3,123.3,177.3,109.5,194.6,109.5"/>
					<path id="Fill-15" class="st6" d="M152.7,74.3l-27.5,25.9c-1.1,1-2.8,1-4,0L93.8,74.3c-17.6-16.6-18.1-44.5-0.9-61.7v0
						c16.8-16.8,44-16.8,60.8,0v0C170.8,29.7,170.3,57.6,152.7,74.3"/>
					<path id="Fill-17" class="st4" d="M144.1,42.5c0,11.5-9.4,20.9-20.9,20.9s-20.9-9.4-20.9-20.9s9.4-20.9,20.9-20.9
						S144.1,30.9,144.1,42.5"/>
					<path id="Fill-19" class="st7" d="M67,64.1c0,1.6-1.3,2.9-2.9,2.9s-2.9-1.3-2.9-2.9c0-1.6,1.3-2.9,2.9-2.9S67,62.5,67,64.1"/>
					<path id="Fill-21" class="st3" d="M65.6,64.1c0,0.8-0.6,1.4-1.4,1.4c-0.8,0-1.4-0.6-1.4-1.4c0-0.8,0.6-1.4,1.4-1.4
						C64.9,62.6,65.6,63.3,65.6,64.1"/>
					<path id="Fill-23" class="st7" d="M53.3,127.5h-49c-2.4,0-4.3-1.9-4.3-4.3V97.2c0-2.4,1.9-4.3,4.3-4.3h49
						c2.4,0,4.3,1.9,4.3,4.3v25.9C57.7,125.6,55.7,127.5,53.3,127.5"/>
					<path id="Fill-23_1_" class="st8" d="M49.1,133.1H4.9c-2.2,0-3.9-1.7-3.9-3.9v-23.4c0-2.2,1.7-3.9,3.9-3.9h44.2
						c2.2,0,3.9,1.7,3.9,3.9v23.4C53,131.4,51.3,133.1,49.1,133.1"/>
					<path id="Stroke-25" class="st9" d="M59.1,64.1H27.4c-0.8,0-1.4,0.6-1.4,1.4v23.8"/>
					<path id="Fill-27" class="st7" d="M27.4,89.3c0,0.8-0.6,1.4-1.4,1.4s-1.4-0.6-1.4-1.4c0-0.8,0.6-1.4,1.4-1.4
						S27.4,88.5,27.4,89.3"/>
					<path id="Fill-29" class="st4" d="M48.3,103H9.4c-0.4,0-0.7-0.3-0.7-0.7s0.3-0.7,0.7-0.7h38.9c0.4,0,0.7,0.3,0.7,0.7
						S48.7,103,48.3,103"/>
					<path id="Fill-31" class="st4" d="M48.3,110.9H9.4c-0.4,0-0.7-0.3-0.7-0.7c0-0.4,0.3-0.7,0.7-0.7h38.9c0.4,0,0.7,0.3,0.7,0.7
						C49,110.6,48.7,110.9,48.3,110.9"/>
					<path id="Fill-33" class="st4" d="M30.3,118.9H9.4c-0.4,0-0.7-0.3-0.7-0.7s0.3-0.7,0.7-0.7h20.9c0.4,0,0.7,0.3,0.7,0.7
						S30.7,118.9,30.3,118.9"/>
					<g id="Fill-35" transform="translate(181.621436, 46.784096)">
						<path id="路径" class="st10" d="M30.1,0H1.6C0.7,0,0,0.7,0,1.6v15.6c0,0.9,0.7,1.6,1.6,1.6h28.5c0.9,0,1.6-0.7,1.6-1.6V1.6
							C31.7,0.7,31,0,30.1,0"/>
					</g>
					<path id="Fill-37" class="st11" d="M181.6,148c0,9.4-7.6,16.9-16.9,16.9c-9.4,0-16.9-7.6-16.9-16.9c0-9.4,7.6-16.9,16.9-16.9
						C174,131,181.6,138.6,181.6,148"/>
					<path id="Fill-37_1_" class="st12" d="M181.6,140.8c0,9.4-7.6,16.9-16.9,16.9c-9.4,0-16.9-7.6-16.9-16.9
						c0-9.4,7.6-16.9,16.9-16.9C174,123.9,181.6,131.5,181.6,140.8"/>
					<path id="Stroke-39" class="st13" d="M183.1,140.8c0,10.1-8.2,18.4-18.4,18.4c-10.1,0-18.4-8.2-18.4-18.4s8.2-18.4,18.4-18.4
						C174.8,122.5,183.1,130.7,183.1,140.8z"/>
					<g id="play" transform="translate(161.000000, 135.080001)">
						<path id="路径_1_" class="st4" d="M9.2,4.4L2.5,0.2C1.4-0.5,0,0.4,0,1.8v8.3c0,1.4,1.4,2.3,2.5,1.6l6.7-4.2
							C10.3,6.9,10.3,5.1,9.2,4.4L9.2,4.4z"/>
					</g>
					<path id="Stroke-41" class="st14" d="M184.9,140.8c0,11.1-9,20.2-20.2,20.2c-11.1,0-20.2-9-20.2-20.2c0-11.1,9-20.2,20.2-20.2
						C175.8,120.7,184.9,129.7,184.9,140.8z"/>
					<path id="Fill-47" class="st2" d="M124.3,149.8H37.1c-1.2,0-2.2-1-2.2-2.2s1-2.2,2.2-2.2h87.2c1.2,0,2.2,1,2.2,2.2
						S125.5,149.8,124.3,149.8"/>
					<path id="Fill-49" class="st2" d="M95.5,159.9H37.1c-1.2,0-2.2-1-2.2-2.2c0-1.2,1-2.2,2.2-2.2h58.4c1.2,0,2.2,1,2.2,2.2
						C97.7,159,96.7,159.9,95.5,159.9"/>
				</g>
				<g id="编组-2" transform="translate(50.000000, 61.000000)">
					<g id="编组_2_" transform="translate(118.000000, 0.000000)">
						<g id="路径-4">
							
								<linearGradient id="path-2_2_" gradientUnits="userSpaceOnUse" x1="-1012.1215" y1="577.6203" x2="-1012.0868" y2="577.4695" gradientTransform="matrix(181.104 0 0 -278.6647 183334.2812 160907.0156)">
								<stop  offset="0" style="stop-color:#FFFFFF"/>
								<stop  offset="1" style="stop-color:#6FAD2C"/>
							</linearGradient>
							<path id="path-2_1_" class="st15" d="M37.2-46.9c0.5-4.7,1.7-7.7,3.3-9.1s3.4,0.5,5.2,5.5c0.6,2,1.1,4.3,1.4,7.1
								c0,0.2,3.8,1.5,5,2.9c1.2,1.4,1.9,3.7,1.3,4.4c-0.4,0.4-1.2-0.4-2.5-2.5c-2.3-2.6-3.5-3.7-3.5-3.4c0,1.5-0.1,5.6-0.4,7
								c-1.3,6.3-4.3,10-8.3,13.9c-2.1,2.1-4.3,2.8-8.5,4.4c-0.7,0.3-2.3,1.5-4.7,3.6c0.7-4.3,2.3-6.9,4.7-7.6
								c3.6-1-0.9-2.3-1.7-4.6c-0.5-1.5-0.5-2.5,0-3c1.9,2.3,3.2,3.7,3.9,4.2c3.8,3,6.3,1.1,6.3-2.1c0-3-1.6-11.9-1.8-15.8
								c0-0.2-2.3,3-4.4,4.5c-1.3,0.9-2.8,0.9-3.1,1c-0.8,0.1,1.2-2.9,3.1-4.8c1.9-1.9,4.4-1.3,4.4-1.9C36.9-44.1,37-45.3,37.2-46.9
								z"/>
						</g>
						<defs>
							<filter id="Adobe_OpacityMaskFilter" filterUnits="userSpaceOnUse" x="23" y="-81.8" width="28.7" height="56.9">
								<feColorMatrix  type="matrix" values="1 0 0 0 0  0 1 0 0 0  0 0 1 0 0  0 0 0 1 0"/>
							</filter>
						</defs>
						<mask maskUnits="userSpaceOnUse" x="23" y="-81.8" width="28.7" height="56.9" id="mask-3_10_">
							<g class="st16">
								<path id="path-2_11_" class="st17" d="M37.2-46.9c0.5-4.7,1.7-7.7,3.3-9.1s3.4,0.5,5.2,5.5c0.6,2,1.1,4.3,1.4,7.1
									c0,0.2,3.8,1.5,5,2.9c1.2,1.4,1.9,3.7,1.3,4.4c-0.4,0.4-1.2-0.4-2.5-2.5c-2.3-2.6-3.5-3.7-3.5-3.4c0,1.5-0.1,5.6-0.4,7
									c-1.3,6.3-4.3,10-8.3,13.9c-2.1,2.1-4.3,2.8-8.5,4.4c-0.7,0.3-2.3,1.5-4.7,3.6c0.7-4.3,2.3-6.9,4.7-7.6
									c3.6-1-0.9-2.3-1.7-4.6c-0.5-1.5-0.5-2.5,0-3c1.9,2.3,3.2,3.7,3.9,4.2c3.8,3,6.3,1.1,6.3-2.1c0-3-1.6-11.9-1.8-15.8
									c0-0.2-2.3,3-4.4,4.5c-1.3,0.9-2.8,0.9-3.1,1c-0.8,0.1,1.2-2.9,3.1-4.8c1.9-1.9,4.4-1.3,4.4-1.9
									C36.9-44.1,37-45.3,37.2-46.9z"/>
							</g>
						</mask>
						<path id="矩形备份-3" class="st18" d="M40.8-57.5c6.8-2.4,10.4-10.5,10.9-24.4v45.5L23-25c1.8-5.7,3.4-9.5,4.7-11.4
							c4.5-6.3,9.4-8.9,8.8-12.2C35.9-52.1,39.3-57,40.8-57.5z"/>
						<defs>
							<filter id="Adobe_OpacityMaskFilter_1_" filterUnits="userSpaceOnUse" x="24.4" y="-76.1" width="25.9" height="56">
								<feColorMatrix  type="matrix" values="1 0 0 0 0  0 1 0 0 0  0 0 1 0 0  0 0 0 1 0"/>
							</filter>
						</defs>
						<mask maskUnits="userSpaceOnUse" x="24.4" y="-76.1" width="25.9" height="56" id="mask-3_9_">
							<g class="st19">
								<path id="path-2_10_" class="st17" d="M37.2-46.9c0.5-4.7,1.7-7.7,3.3-9.1s3.4,0.5,5.2,5.5c0.6,2,1.1,4.3,1.4,7.1
									c0,0.2,3.8,1.5,5,2.9c1.2,1.4,1.9,3.7,1.3,4.4c-0.4,0.4-1.2-0.4-2.5-2.5c-2.3-2.6-3.5-3.7-3.5-3.4c0,1.5-0.1,5.6-0.4,7
									c-1.3,6.3-4.3,10-8.3,13.9c-2.1,2.1-4.3,2.8-8.5,4.4c-0.7,0.3-2.3,1.5-4.7,3.6c0.7-4.3,2.3-6.9,4.7-7.6
									c3.6-1-0.9-2.3-1.7-4.6c-0.5-1.5-0.5-2.5,0-3c1.9,2.3,3.2,3.7,3.9,4.2c3.8,3,6.3,1.1,6.3-2.1c0-3-1.6-11.9-1.8-15.8
									c0-0.2-2.3,3-4.4,4.5c-1.3,0.9-2.8,0.9-3.1,1c-0.8,0.1,1.2-2.9,3.1-4.8c1.9-1.9,4.4-1.3,4.4-1.9
									C36.9-44.1,37-45.3,37.2-46.9z"/>
							</g>
						</mask>
						<path id="矩形备份-2" class="st20" d="M39.3-51.7c6.8-2.4,10.4-10.5,10.9-24.4v48.7l-25.9,7.3
							C32.3-30.4,35.9-38,35.1-42.8C34.5-46.3,37.9-51.2,39.3-51.7z"/>
						<defs>
							<filter id="Adobe_OpacityMaskFilter_2_" filterUnits="userSpaceOnUse" x="24.4" y="-71.4" width="25.9" height="59.1">
								<feColorMatrix  type="matrix" values="1 0 0 0 0  0 1 0 0 0  0 0 1 0 0  0 0 0 1 0"/>
							</filter>
						</defs>
						<mask maskUnits="userSpaceOnUse" x="24.4" y="-71.4" width="25.9" height="59.1" id="mask-3_8_">
							<g class="st21">
								<path id="path-2_9_" class="st17" d="M37.2-46.9c0.5-4.7,1.7-7.7,3.3-9.1s3.4,0.5,5.2,5.5c0.6,2,1.1,4.3,1.4,7.1
									c0,0.2,3.8,1.5,5,2.9c1.2,1.4,1.9,3.7,1.3,4.4c-0.4,0.4-1.2-0.4-2.5-2.5c-2.3-2.6-3.5-3.7-3.5-3.4c0,1.5-0.1,5.6-0.4,7
									c-1.3,6.3-4.3,10-8.3,13.9c-2.1,2.1-4.3,2.8-8.5,4.4c-0.7,0.3-2.3,1.5-4.7,3.6c0.7-4.3,2.3-6.9,4.7-7.6
									c3.6-1-0.9-2.3-1.7-4.6c-0.5-1.5-0.5-2.5,0-3c1.9,2.3,3.2,3.7,3.9,4.2c3.8,3,6.3,1.1,6.3-2.1c0-3-1.6-11.9-1.8-15.8
									c0-0.2-2.3,3-4.4,4.5c-1.3,0.9-2.8,0.9-3.1,1c-0.8,0.1,1.2-2.9,3.1-4.8c1.9-1.9,4.4-1.3,4.4-1.9
									C36.9-44.1,37-45.3,37.2-46.9z"/>
							</g>
						</mask>
						<path id="矩形备份" class="st22" d="M39.3-47c6.8-2.4,10.4-10.5,10.9-24.4v59.1l-25.9-0.8c2.8-5.2,5-8.9,6.7-11.1
							c4-5.3,4.5-11,4-14C34.5-41.6,37.9-46.5,39.3-47z"/>
						<defs>
							<filter id="Adobe_OpacityMaskFilter_3_" filterUnits="userSpaceOnUse" x="25.2" y="-68.1" width="29.7" height="55.8">
								<feColorMatrix  type="matrix" values="1 0 0 0 0  0 1 0 0 0  0 0 1 0 0  0 0 0 1 0"/>
							</filter>
						</defs>
						<mask maskUnits="userSpaceOnUse" x="25.2" y="-68.1" width="29.7" height="55.8" id="mask-3_7_">
							<g class="st23">
								<path id="path-2_8_" class="st17" d="M37.2-46.9c0.5-4.7,1.7-7.7,3.3-9.1s3.4,0.5,5.2,5.5c0.6,2,1.1,4.3,1.4,7.1
									c0,0.2,3.8,1.5,5,2.9c1.2,1.4,1.9,3.7,1.3,4.4c-0.4,0.4-1.2-0.4-2.5-2.5c-2.3-2.6-3.5-3.7-3.5-3.4c0,1.5-0.1,5.6-0.4,7
									c-1.3,6.3-4.3,10-8.3,13.9c-2.1,2.1-4.3,2.8-8.5,4.4c-0.7,0.3-2.3,1.5-4.7,3.6c0.7-4.3,2.3-6.9,4.7-7.6
									c3.6-1-0.9-2.3-1.7-4.6c-0.5-1.5-0.5-2.5,0-3c1.9,2.3,3.2,3.7,3.9,4.2c3.8,3,6.3,1.1,6.3-2.1c0-3-1.6-11.9-1.8-15.8
									c0-0.2-2.3,3-4.4,4.5c-1.3,0.9-2.8,0.9-3.1,1c-0.8,0.1,1.2-2.9,3.1-4.8c1.9-1.9,4.4-1.3,4.4-1.9
									C36.9-44.1,37-45.3,37.2-46.9z"/>
							</g>
						</mask>
						<path id="矩形_7_" class="st24" d="M42.4-43.7c6.8-2.4,10.4-10.6,10.9-24.4l1.5,55.8H25.2c0.9-3.5,2.3-5.7,4.1-6.6
							c6-3,9.4-12.2,8.8-15.9C37.5-38.3,41-43.2,42.4-43.7z"/>
						<defs>
							<filter id="Adobe_OpacityMaskFilter_4_" filterUnits="userSpaceOnUse" x="25.5" y="-64.2" width="30.4" height="51.1">
								<feColorMatrix  type="matrix" values="1 0 0 0 0  0 1 0 0 0  0 0 1 0 0  0 0 0 1 0"/>
							</filter>
						</defs>
						<mask maskUnits="userSpaceOnUse" x="25.5" y="-64.2" width="30.4" height="51.1" id="mask-3_6_">
							<g class="st25">
								<path id="path-2_7_" class="st17" d="M37.2-46.9c0.5-4.7,1.7-7.7,3.3-9.1s3.4,0.5,5.2,5.5c0.6,2,1.1,4.3,1.4,7.1
									c0,0.2,3.8,1.5,5,2.9c1.2,1.4,1.9,3.7,1.3,4.4c-0.4,0.4-1.2-0.4-2.5-2.5c-2.3-2.6-3.5-3.7-3.5-3.4c0,1.5-0.1,5.6-0.4,7
									c-1.3,6.3-4.3,10-8.3,13.9c-2.1,2.1-4.3,2.8-8.5,4.4c-0.7,0.3-2.3,1.5-4.7,3.6c0.7-4.3,2.3-6.9,4.7-7.6
									c3.6-1-0.9-2.3-1.7-4.6c-0.5-1.5-0.5-2.5,0-3c1.9,2.3,3.2,3.7,3.9,4.2c3.8,3,6.3,1.1,6.3-2.1c0-3-1.6-11.9-1.8-15.8
									c0-0.2-2.3,3-4.4,4.5c-1.3,0.9-2.8,0.9-3.1,1c-0.8,0.1,1.2-2.9,3.1-4.8c1.9-1.9,4.4-1.3,4.4-1.9
									C36.9-44.1,37-45.3,37.2-46.9z"/>
							</g>
						</mask>
						<path id="矩形_6_" class="st26" d="M45-39.4c6.8-2.5,10.4-10.7,10.9-24.8l-0.5,51.1H25.5c1.1-1.6,2.2-2.8,3.3-3.6
							c7.6-5.2,12.6-9.7,11.9-13.7C40.2-33.9,43.6-38.9,45-39.4z"/>
					</g>
					
						<g id="编组_1_" transform="translate(76.000000, 121.500000) scale(-1, -1) translate(-76.000000, -121.500000) translate(0.000000, 5.000000)">
						<g id="路径-4_1_">
							
								<linearGradient id="path-5_2_" gradientUnits="userSpaceOnUse" x1="1056.5454" y1="-341.7819" x2="1056.5802" y2="-341.6311" gradientTransform="matrix(-151.1395 0 0 232.5584 159697.0625 79742.5234)">
								<stop  offset="0" style="stop-color:#FFFFFF"/>
								<stop  offset="1" style="stop-color:#6FAD2C"/>
							</linearGradient>
							<path id="path-5_1_" class="st27" d="M13.1,265.4c0.5-3.9,1.4-6.5,2.8-7.6c1.4-1.1,2.8,0.4,4.4,4.6c0.5,1.7,0.9,3.6,1.2,5.9
								c0,0.2,3.2,1.2,4.2,2.4c1,1.2,1.6,3.1,1,3.7c-0.3,0.3-1-0.4-2.1-2.1c-2-2.1-2.9-3.1-2.9-2.8c0,1.3-0.1,4.7-0.3,5.8
								c-1.1,5.3-3.6,8.3-7,11.6c-1.8,1.7-3.5,2.3-7.1,3.6c-0.6,0.2-1.9,1.2-3.9,3c0.6-3.6,1.9-5.7,3.9-6.3c3-0.9-0.8-1.9-1.4-3.9
								c-0.4-1.3-0.4-2.1,0-2.5c1.6,1.9,2.7,3.1,3.3,3.5c3.2,2.5,5.2,0.9,5.2-1.8c0-2.5-1.3-9.9-1.5-13.1c0-0.2-1.9,2.5-3.7,3.8
								c-1.1,0.7-2.4,0.8-2.6,0.8c-0.6,0.1,1-2.4,2.6-4c1.6-1.6,3.7-1.1,3.7-1.6C12.9,267.7,13,266.7,13.1,265.4z"/>
						</g>
						<defs>
							<filter id="Adobe_OpacityMaskFilter_5_" filterUnits="userSpaceOnUse">
								<feColorMatrix  type="matrix" values="1 0 0 0 0  0 1 0 0 0  0 0 1 0 0  0 0 0 1 0"/>
							</filter>
						</defs>
						<mask maskUnits="userSpaceOnUse" id="mask-6_10_">
							<g class="st28">
								<path id="path-5_11_" class="st17" d="M13.1,265.4c0.5-3.9,1.4-6.5,2.8-7.6c1.4-1.1,2.8,0.4,4.4,4.6
									c0.5,1.7,0.9,3.6,1.2,5.9c0,0.2,3.2,1.2,4.2,2.4c1,1.2,1.6,3.1,1,3.7c-0.3,0.3-1-0.4-2.1-2.1c-2-2.1-2.9-3.1-2.9-2.8
									c0,1.3-0.1,4.7-0.3,5.8c-1.1,5.3-3.6,8.3-7,11.6c-1.8,1.7-3.5,2.3-7.1,3.6c-0.6,0.2-1.9,1.2-3.9,3c0.6-3.6,1.9-5.7,3.9-6.3
									c3-0.9-0.8-1.9-1.4-3.9c-0.4-1.3-0.4-2.1,0-2.5c1.6,1.9,2.7,3.1,3.3,3.5c3.2,2.5,5.2,0.9,5.2-1.8c0-2.5-1.3-9.9-1.5-13.1
									c0-0.2-1.9,2.5-3.7,3.8c-1.1,0.7-2.4,0.8-2.6,0.8c-0.6,0.1,1-2.4,2.6-4c1.6-1.6,3.7-1.1,3.7-1.6
									C12.9,267.7,13,266.7,13.1,265.4z"/>
							</g>
						</mask>
						<path id="矩形备份-3_1_" class="st29" d="M16.1,256.5c5.6-2,8.7-8.8,9.1-20.3v38l-24,9.5c1.5-4.8,2.8-7.9,3.9-9.5
							c3.8-5.2,7.8-7.4,7.4-10.2C12,261.1,14.9,257,16.1,256.5z"/>
						<defs>
							<filter id="Adobe_OpacityMaskFilter_6_" filterUnits="userSpaceOnUse">
								<feColorMatrix  type="matrix" values="1 0 0 0 0  0 1 0 0 0  0 0 1 0 0  0 0 0 1 0"/>
							</filter>
						</defs>
						<mask maskUnits="userSpaceOnUse" id="mask-6_9_">
							<g class="st30">
								<path id="path-5_10_" class="st17" d="M13.1,265.4c0.5-3.9,1.4-6.5,2.8-7.6c1.4-1.1,2.8,0.4,4.4,4.6
									c0.5,1.7,0.9,3.6,1.2,5.9c0,0.2,3.2,1.2,4.2,2.4c1,1.2,1.6,3.1,1,3.7c-0.3,0.3-1-0.4-2.1-2.1c-2-2.1-2.9-3.1-2.9-2.8
									c0,1.3-0.1,4.7-0.3,5.8c-1.1,5.3-3.6,8.3-7,11.6c-1.8,1.7-3.5,2.3-7.1,3.6c-0.6,0.2-1.9,1.2-3.9,3c0.6-3.6,1.9-5.7,3.9-6.3
									c3-0.9-0.8-1.9-1.4-3.9c-0.4-1.3-0.4-2.1,0-2.5c1.6,1.9,2.7,3.1,3.3,3.5c3.2,2.5,5.2,0.9,5.2-1.8c0-2.5-1.3-9.9-1.5-13.1
									c0-0.2-1.9,2.5-3.7,3.8c-1.1,0.7-2.4,0.8-2.6,0.8c-0.6,0.1,1-2.4,2.6-4c1.6-1.6,3.7-1.1,3.7-1.6
									C12.9,267.7,13,266.7,13.1,265.4z"/>
							</g>
						</mask>
						<path id="矩形备份-2_1_" class="st31" d="M14.9,261.3c5.6-2,8.7-8.8,9.1-20.3v40.6l-21.6,6.1c6.6-8.6,9.5-15,8.9-19
							C10.9,265.9,13.7,261.8,14.9,261.3z"/>
						<defs>
							<filter id="Adobe_OpacityMaskFilter_7_" filterUnits="userSpaceOnUse">
								<feColorMatrix  type="matrix" values="1 0 0 0 0  0 1 0 0 0  0 0 1 0 0  0 0 0 1 0"/>
							</filter>
						</defs>
						<mask maskUnits="userSpaceOnUse" id="mask-6_8_">
							<g class="st32">
								<path id="path-5_9_" class="st17" d="M13.1,265.4c0.5-3.9,1.4-6.5,2.8-7.6c1.4-1.1,2.8,0.4,4.4,4.6c0.5,1.7,0.9,3.6,1.2,5.9
									c0,0.2,3.2,1.2,4.2,2.4c1,1.2,1.6,3.1,1,3.7c-0.3,0.3-1-0.4-2.1-2.1c-2-2.1-2.9-3.1-2.9-2.8c0,1.3-0.1,4.7-0.3,5.8
									c-1.1,5.3-3.6,8.3-7,11.6c-1.8,1.7-3.5,2.3-7.1,3.6c-0.6,0.2-1.9,1.2-3.9,3c0.6-3.6,1.9-5.7,3.9-6.3c3-0.9-0.8-1.9-1.4-3.9
									c-0.4-1.3-0.4-2.1,0-2.5c1.6,1.9,2.7,3.1,3.3,3.5c3.2,2.5,5.2,0.9,5.2-1.8c0-2.5-1.3-9.9-1.5-13.1c0-0.2-1.9,2.5-3.7,3.8
									c-1.1,0.7-2.4,0.8-2.6,0.8c-0.6,0.1,1-2.4,2.6-4c1.6-1.6,3.7-1.1,3.7-1.6C12.9,267.7,13,266.7,13.1,265.4z"/>
							</g>
						</mask>
						<path id="矩形备份_1_" class="st33" d="M14.9,265.2c5.6-2,8.7-8.8,9.1-20.3v49.3l-21.6-0.7c2.3-4.3,4.2-7.4,5.6-9.2
							c3.3-4.4,3.7-9.2,3.3-11.7C10.9,269.8,13.7,265.7,14.9,265.2z"/>
						<defs>
							<filter id="Adobe_OpacityMaskFilter_8_" filterUnits="userSpaceOnUse">
								<feColorMatrix  type="matrix" values="1 0 0 0 0  0 1 0 0 0  0 0 1 0 0  0 0 0 1 0"/>
							</filter>
						</defs>
						<mask maskUnits="userSpaceOnUse" id="mask-6_7_">
							<g class="st34">
								<path id="path-5_8_" class="st17" d="M13.1,265.4c0.5-3.9,1.4-6.5,2.8-7.6c1.4-1.1,2.8,0.4,4.4,4.6c0.5,1.7,0.9,3.6,1.2,5.9
									c0,0.2,3.2,1.2,4.2,2.4c1,1.2,1.6,3.1,1,3.7c-0.3,0.3-1-0.4-2.1-2.1c-2-2.1-2.9-3.1-2.9-2.8c0,1.3-0.1,4.7-0.3,5.8
									c-1.1,5.3-3.6,8.3-7,11.6c-1.8,1.7-3.5,2.3-7.1,3.6c-0.6,0.2-1.9,1.2-3.9,3c0.6-3.6,1.9-5.7,3.9-6.3c3-0.9-0.8-1.9-1.4-3.9
									c-0.4-1.3-0.4-2.1,0-2.5c1.6,1.9,2.7,3.1,3.3,3.5c3.2,2.5,5.2,0.9,5.2-1.8c0-2.5-1.3-9.9-1.5-13.1c0-0.2-1.9,2.5-3.7,3.8
									c-1.1,0.7-2.4,0.8-2.6,0.8c-0.6,0.1,1-2.4,2.6-4c1.6-1.6,3.7-1.1,3.7-1.6C12.9,267.7,13,266.7,13.1,265.4z"/>
							</g>
						</mask>
						<path id="矩形_5_" class="st35" d="M17.4,268c5.6-2,8.7-8.8,9.1-20.4l1.3,46.6H3.1c0.8-2.9,1.9-4.7,3.4-5.5
							c5-2.5,7.9-10.2,7.4-13.3C13.4,272.5,16.2,268.4,17.4,268z"/>
						<defs>
							<filter id="Adobe_OpacityMaskFilter_9_" filterUnits="userSpaceOnUse">
								<feColorMatrix  type="matrix" values="1 0 0 0 0  0 1 0 0 0  0 0 1 0 0  0 0 0 1 0"/>
							</filter>
						</defs>
						<mask maskUnits="userSpaceOnUse" id="mask-6_6_">
							<g class="st36">
								<path id="path-5_7_" class="st17" d="M13.1,265.4c0.5-3.9,1.4-6.5,2.8-7.6c1.4-1.1,2.8,0.4,4.4,4.6c0.5,1.7,0.9,3.6,1.2,5.9
									c0,0.2,3.2,1.2,4.2,2.4c1,1.2,1.6,3.1,1,3.7c-0.3,0.3-1-0.4-2.1-2.1c-2-2.1-2.9-3.1-2.9-2.8c0,1.3-0.1,4.7-0.3,5.8
									c-1.1,5.3-3.6,8.3-7,11.6c-1.8,1.7-3.5,2.3-7.1,3.6c-0.6,0.2-1.9,1.2-3.9,3c0.6-3.6,1.9-5.7,3.9-6.3c3-0.9-0.8-1.9-1.4-3.9
									c-0.4-1.3-0.4-2.1,0-2.5c1.6,1.9,2.7,3.1,3.3,3.5c3.2,2.5,5.2,0.9,5.2-1.8c0-2.5-1.3-9.9-1.5-13.1c0-0.2-1.9,2.5-3.7,3.8
									c-1.1,0.7-2.4,0.8-2.6,0.8c-0.6,0.1,1-2.4,2.6-4c1.6-1.6,3.7-1.1,3.7-1.6C12.9,267.7,13,266.7,13.1,265.4z"/>
							</g>
						</mask>
						<path id="矩形_3_" class="st37" d="M19.6,271.6c5.6-2.1,8.7-9,9.1-20.7l-0.5,42.7H3.4c1-1.4,1.9-2.4,2.8-3
							c6.4-4.4,10.5-8.1,9.9-11.4C15.6,276.2,18.4,272,19.6,271.6z"/>
					</g>
				</g>
			</g>
			<path id="Fill-9_1_" class="st38" d="M190.7,194.6l-4,4c-0.4,0.4-1,0.4-1.4,0l-4-4c-0.4-0.4-0.4-1,0-1.4l4-4c0.4-0.4,1-0.4,1.4,0
				l4,4C191.1,193.6,191.1,194.2,190.7,194.6"/>
			<path id="矩形_1_" class="st39" d="M205.5,156.5l7.1-7.1c0.8-0.8,2-0.8,2.8,0l7.1,7.1c0.8,0.8,0.8,2,0,2.8l-7.1,7.1
				c-0.8,0.8-2,0.8-2.8,0l-7.1-7.1C204.7,158.5,204.7,157.3,205.5,156.5z"/>
			<path id="矩形_2_" class="st40" d="M9.6,50.4l17-17c0.8-0.8,2-0.8,2.8,0l17,17c0.8,0.8,0.8,2,0,2.8l-17,17
				c-0.8,0.8-2,0.8-2.8,0l-17-17C8.8,52.4,8.8,51.2,9.6,50.4z"/>
		</g>
		<g id="电影_x2C_胶片_x2C_影片" transform="translate(7.000000, 110.000000)">
			<path id="形状" class="st41" d="M15.8,0H2.2C1,0,0,1,0,2.3v10.4C0,14,1,15,2.2,15h13.5c1.2,0,2.2-1,2.2-2.3V2.3
				C18,1,17,0,15.8,0z M3.7,12.4c0,0.2-0.1,0.3-0.3,0.3H2.2c-0.2,0-0.3-0.1-0.3-0.3v-1.2C2,11.1,2.1,11,2.2,11h1.1
				c0.2,0,0.3,0.1,0.3,0.3V12.4z M3.7,9.5c0,0.2-0.1,0.3-0.3,0.3H2.2C2.1,9.8,2,9.7,2,9.5V8.4c0-0.2,0.1-0.3,0.3-0.3h1.1
				c0.2,0,0.3,0.1,0.3,0.3V9.5z M3.7,6.6c0,0.2-0.1,0.3-0.3,0.3H2.2C2.1,6.9,2,6.8,2,6.6V5.5c0-0.2,0.1-0.3,0.3-0.3h1.1
				c0.2,0,0.3,0.1,0.3,0.3V6.6z M3.7,3.8C3.7,3.9,3.5,4,3.4,4H2.2C2.1,4,2,3.9,2,3.8V2.6c0-0.2,0.1-0.3,0.3-0.3h1.1
				c0.2,0,0.3,0.1,0.3,0.3V3.8z M16,12.4c0,0.2-0.1,0.3-0.3,0.3h-1.1c-0.2,0-0.3-0.1-0.3-0.3v-1.2c0-0.2,0.1-0.3,0.3-0.3h1.1
				c0.2,0,0.3,0.1,0.3,0.3V12.4z M16,9.5c0,0.2-0.1,0.3-0.3,0.3h-1.1c-0.2,0-0.3-0.1-0.3-0.3V8.4c0-0.2,0.1-0.3,0.3-0.3h1.1
				c0.2,0,0.3,0.1,0.3,0.3V9.5z M16,6.6c0,0.2-0.1,0.3-0.3,0.3h-1.1c-0.2,0-0.3-0.1-0.3-0.3V5.5c0-0.2,0.1-0.3,0.3-0.3h1.1
				c0.2,0,0.3,0.1,0.3,0.3V6.6z M16,3.8C16,3.9,15.9,4,15.8,4h-1.1c-0.2,0-0.3-0.1-0.3-0.3V2.6c0-0.2,0.1-0.3,0.3-0.3h1.1
				c0.2,0,0.3,0.1,0.3,0.3V3.8z"/>
		</g>
	</g>
</g>
</svg>
