<?xml version="1.0" encoding="UTF-8"?>
<svg width="400px" height="400px" viewBox="0 0 400 400" version="1.1" xmlns="http://www.w3.org/2000/svg" xmlns:xlink="http://www.w3.org/1999/xlink">
    <title>双鱼</title>
    <defs>
        <linearGradient x1="39.2038577%" y1="1.03729419%" x2="61.5832081%" y2="98.1221341%" id="linearGradient-1">
            <stop stop-color="#FFFFFF" offset="0%"></stop>
            <stop stop-color="#6FAD2C" offset="100%"></stop>
        </linearGradient>
        <path d="M75.990976,61.5011034 C79.5002098,31.1966126 86.6212669,11.6671065 97.3541473,2.91258504 C108.087028,-5.84193644 119.277571,6.05530922 130.925777,38.604322 C135.06308,51.3798613 138.056683,66.5044641 139.906585,83.9781305 C140.076508,85.5831755 164.516443,93.5458707 172.051252,102.735252 C179.586061,111.924634 184.165719,126.715675 180.133528,130.926528 C177.682952,133.485686 172.22014,128.145342 163.745091,114.905496 C148.705492,98.4321049 141.202011,91.2289312 141.234647,93.2959751 C141.389779,103.121211 140.742866,129.253472 138.915742,138.318528 C130.751283,178.825506 111.209651,202.418097 85.2153698,227.480483 C71.4459023,240.756315 57.8628897,245.331533 30.7752416,255.552 C26.1062893,257.313647 16.0238754,265.060975 0.528,278.793983 C5.104,250.803328 15.1864139,234.587494 30.7752416,230.146483 C54.1584832,223.484966 24.7279359,215.256217 19.7380826,200.320863 C16.4115137,190.36396 16.4115137,183.95834 19.7380826,181.104 C31.9038628,195.626453 40.3181816,204.723003 44.9810391,208.39365 C69.5137654,227.706053 85.2153698,215.370531 85.2153698,194.56617 C85.2153698,175.276455 74.9830001,117.884598 73.4521514,93.192 C73.3762362,91.9674883 58.8984876,112.655846 44.9810391,122.126356 C36.8616714,127.651403 26.8420877,128.191082 25.0320823,128.374988 C20.1195379,128.874128 32.6872309,110.004416 44.9810391,97.4552524 C57.2748473,84.906089 73.1817515,89.1027467 73.4521514,85.2851839 C73.862091,79.4975694 74.7083659,71.5695426 75.990976,61.5011034 Z" id="path-2"></path>
        <linearGradient x1="39.2038577%" y1="1.03729419%" x2="61.5832081%" y2="98.1221341%" id="linearGradient-4">
            <stop stop-color="#FFFFFF" offset="0%"></stop>
            <stop stop-color="#6FAD2C" offset="100%"></stop>
        </linearGradient>
        <path d="M63.4179236,51.3254663 C66.3465387,26.0349913 72.2893846,9.73673072 81.2464611,2.43068461 C90.2035376,-4.8753615 99.5425545,5.05343078 109.263512,32.2170615 C112.71628,42.8788297 115.214577,55.5009982 116.758405,70.0835671 C116.900213,71.4230501 137.29645,78.0682812 143.584591,85.7372379 C149.872731,93.4061946 153.694664,105.74999 150.329617,109.264139 C148.2845,111.399872 143.725535,106.943112 136.652721,95.8938597 C124.101492,82.1460658 117.839496,76.1346899 117.866733,77.859732 C117.996198,86.0593376 117.456319,107.867898 115.931501,115.433099 C109.117889,149.238014 92.8095091,168.927103 71.1160995,189.842803 C59.624853,200.922089 48.2892116,204.740315 25.683338,213.26976 C21.7868851,214.739935 13.3726524,221.205432 0.44064,232.666252 C4.25952,209.306777 12.6737527,195.773927 25.683338,192.067701 C45.197716,186.508362 20.6365865,179.641097 16.4723271,167.176866 C13.6961542,158.867378 13.6961542,153.521596 16.4723271,151.13952 C26.6252237,163.259167 33.6473552,170.850652 37.5387217,173.913974 C58.0123969,190.031052 71.1160995,179.736498 71.1160995,162.374313 C71.1160995,146.276169 62.5767219,98.3800557 61.2991591,77.77296 C61.2358044,76.7510493 49.1534651,94.0164238 37.5387217,101.919995 C30.7627403,106.530898 22.4009423,106.981285 20.8904105,107.134763 C16.7906689,107.551318 27.27898,91.8036852 37.5387217,81.3308379 C47.7984635,70.8579906 61.0734981,74.3602923 61.2991591,71.1743625 C61.6412723,66.3443352 62.3475271,59.7280365 63.4179236,51.3254663 Z" id="path-5"></path>
    </defs>
    <g id="双鱼" stroke="none" stroke-width="1" fill="none" fill-rule="evenodd">
        <rect fill="#FFFFFF" x="0" y="0" width="400" height="400"></rect>
        <g id="编组-2" transform="translate(50.000000, 61.000000)">
            <g id="编组" transform="translate(118.000000, 0.000000)">
                <mask id="mask-3" fill="white">
                    <use xlink:href="#path-2"></use>
                </mask>
                <use id="路径-4" fill="url(#linearGradient-1)" xlink:href="#path-2"></use>
                <path d="M98.6285437,-6.78563255 C142.108737,-22.3783047 165.552556,-74.6764271 168.96,-163.68 L168.96,129.157895 L-15.84,202.224 C-4.31505792,165.399988 5.75651093,141.04462 14.3747066,129.157895 C43.6059451,88.8404434 74.6357211,71.9930411 71.1100736,50.5216426 C67.4176236,28.0344065 89.4538885,-3.49545882 98.6285437,-6.78563255 Z" id="矩形备份-3" fill="#BAEDDC" mask="url(#mask-3)"></path>
                <path d="M89.5849265,30.1617196 C133.106922,14.5703045 156.57328,-37.723602 159.984,-126.72 L159.984,186.648 L-6.41322791,233.768581 C44.3119842,167.196909 67.1297269,118.42884 62.04,87.4643751 C58.344,64.9789517 80.4014507,33.4516281 89.5849265,30.1617196 Z" id="矩形备份-2" fill="#A7DDCB" mask="url(#mask-3)"></path>
                <path d="M89.5849265,60.2703675 C133.106922,44.6776953 156.57328,-7.62042714 159.984,-96.624 L159.984,283.891114 L-6.41322791,278.793983 C11.5685377,245.300277 25.8502803,221.52664 36.432,207.473071 C62.1199757,173.356904 65.1858863,136.717872 62.04,117.577643 C58.344,95.0904065 80.4014507,63.5605412 89.5849265,60.2703675 Z" id="矩形备份" fill="#75C5AA" mask="url(#mask-3)"></path>
                <path d="M109.120926,81.5869348 C152.642922,65.9747272 176.10928,13.6110823 179.52,-75.504 L189.474772,283.891114 L-1.53131148,283.891114 C4.26197616,261.451917 13.0444133,247.345796 24.816,241.572751 C63.5795888,222.562235 85.4863899,162.787445 81.576,138.966008 C77.88,116.450599 99.9374507,84.8812307 109.120926,81.5869348 Z" id="矩形" fill="#599EAB" mask="url(#mask-3)"></path>
                <path d="M126.016926,109.388638 C169.538922,93.5321762 193.00528,40.3492968 196.416,-50.16 L192.911234,278.793983 L0.528,278.793983 C7.87229183,268.245616 14.9663075,260.622097 21.8100469,255.923428 C70.7822643,222.300835 102.679704,193.699059 98.472,167.665413 C94.776,144.797748 116.833451,112.734474 126.016926,109.388638 Z" id="矩形" fill="#336D78" mask="url(#mask-3)"></path>
            </g>
            <g id="编组" transform="translate(76.000000, 121.500000) scale(-1, -1) translate(-76.000000, -121.500000) translate(0.000000, 5.000000)">
                <mask id="mask-6" fill="white">
                    <use xlink:href="#path-5"></use>
                </mask>
                <use id="路径-4" fill="url(#linearGradient-4)" xlink:href="#path-5"></use>
                <path d="M82.3100028,-5.6629188 C118.596201,-18.6757124 138.161133,-62.3208728 141.0048,-136.5984 L141.0048,107.788134 L-13.2192,168.76512 C-3.60111198,138.033808 4.80407003,117.708147 11.996346,107.788134 C36.3911433,74.1413882 62.2869018,60.0814652 59.3445887,42.1626072 C56.2630713,23.3959865 74.653336,-2.91711927 82.3100028,-5.6629188 Z" id="矩形备份-3" fill="#BAEDDC" mask="url(#mask-6)"></path>
                <path d="M74.7626932,25.171326 C111.083777,12.1595814 130.667519,-31.4820606 133.51392,-105.7536 L133.51392,155.76624 L-5.3521302,195.090507 C36.980365,139.53342 56.0228084,98.8342504 51.7752,72.9929966 C48.69072,54.2278888 67.0986652,27.9169042 74.7626932,25.171326 Z" id="矩形备份-2" fill="#A7DDCB" mask="url(#mask-6)"></path>
                <path d="M74.7626932,50.2983612 C111.083777,37.2855676 130.667519,-6.35959283 133.51392,-80.63712 L133.51392,236.920039 L-5.3521302,232.666252 C9.65447056,204.714231 21.573234,184.87405 30.40416,173.145709 C51.8419433,144.674217 54.4005851,114.097279 51.7752,98.1238872 C48.69072,79.3572665 67.0986652,53.0441607 74.7626932,50.2983612 Z" id="矩形备份" fill="#75C5AA" mask="url(#mask-6)"></path>
                <path d="M91.0663732,68.0880056 C127.387457,55.0589087 146.971199,11.3590668 149.8176,-63.01152 L158.12531,236.920039 L-1.27794903,236.920039 C3.55681284,218.193509 10.8861558,206.421309 20.71008,201.603441 C53.0600568,185.738301 71.3422781,135.853522 68.07888,115.97345 C64.9944,97.1833178 83.4023452,70.8372452 91.0663732,68.0880056 Z" id="矩形" fill="#599EAB" mask="url(#mask-6)"></path>
                <path d="M105.166853,91.289791 C141.487937,78.0568525 161.071679,33.6733222 163.91808,-41.8608 L160.993193,232.666252 L0.44064,232.666252 C6.56978537,223.863159 12.4900639,217.500987 18.2014755,213.579733 C59.071017,185.520151 85.6908798,161.65067 82.17936,139.924408 C79.09488,120.840302 97.5028252,94.0820427 105.166853,91.289791 Z" id="矩形" fill="#336D78" mask="url(#mask-6)"></path>
            </g>
        </g>
    </g>
</svg>