<?xml version="1.0" encoding="utf-8"?>
<!-- Generator: Adobe Illustrator 16.0.0, SVG Export Plug-In . SVG Version: 6.00 Build 0)  -->
<!DOCTYPE svg PUBLIC "-//W3C//DTD SVG 1.1//EN" "http://www.w3.org/Graphics/SVG/1.1/DTD/svg11.dtd">
<svg version="1.1" id="Layer_1" xmlns="http://www.w3.org/2000/svg" xmlns:xlink="http://www.w3.org/1999/xlink" x="0px" y="0px"
	 width="1400px" height="980px" viewBox="0 0 1400 980" enable-background="new 0 0 1400 980" xml:space="preserve">
<g>
	<rect x="0.001" fill="#2B0030" width="1399.999" height="980"/>
	<radialGradient id="SVGID_1_" cx="550.3599" cy="437.0547" r="250.0178" gradientUnits="userSpaceOnUse">
		<stop  offset="0.226" style="stop-color:#F04E61"/>
		<stop  offset="0.3473" style="stop-color:#EB4D60"/>
		<stop  offset="0.4442" style="stop-color:#E0485D"/>
		<stop  offset="0.5326" style="stop-color:#D04259"/>
		<stop  offset="0.6161" style="stop-color:#BD3A54"/>
		<stop  offset="0.696" style="stop-color:#A5304E"/>
		<stop  offset="0.7723" style="stop-color:#892747"/>
		<stop  offset="0.7788" style="stop-color:#872646"/>
	</radialGradient>
	<path fill="url(#SVGID_1_)" d="M408.36,564.055c23.003-65.989,68-88,143-52s167.281-8,148.641-111
		c-18.641-103,105.783-39.373,93.359,98c-12.422,137.373-60,194-181,233C491.36,771.055,385.357,630.044,408.36,564.055z"/>
	<linearGradient id="SVGID_2_" gradientUnits="userSpaceOnUse" x1="197.8755" y1="277.3599" x2="82.543" y2="255.36">
		<stop  offset="0" style="stop-color:#4F1957"/>
		<stop  offset="0.1848" style="stop-color:#4B1652"/>
		<stop  offset="0.5106" style="stop-color:#400B46"/>
		<stop  offset="0.9367" style="stop-color:#2D0033"/>
		<stop  offset="0.9856" style="stop-color:#2B0030"/>
	</linearGradient>
	<path fill="url(#SVGID_2_)" d="M118.027,379.055c0,0,53.333-53.333,46-146.667c-7.333-93.333-68.667-114-90.667-55.333
		S73.36,342.388,118.027,379.055z"/>
	<linearGradient id="SVGID_3_" gradientUnits="userSpaceOnUse" x1="613.3706" y1="383.125" x2="981.3706" y2="837.125">
		<stop  offset="0" style="stop-color:#4F1957"/>
		<stop  offset="0.1848" style="stop-color:#4B1652"/>
		<stop  offset="0.5106" style="stop-color:#400B46"/>
		<stop  offset="0.9367" style="stop-color:#2D0033"/>
		<stop  offset="0.9856" style="stop-color:#2B0030"/>
	</linearGradient>
	<path fill="url(#SVGID_3_)" d="M1079.932,212.659c190.49,100.494,29.998,301.484-98.994,265.485
		c-94.66-26.417-79.496-97.495-167.426-175.71c-87.928-78.215-241.754-62.714-300.551,0c-75.659,80.7,1.5,165.211,71.997,112.714
		s194.99,35.998,98.995,154.481c-95.995,118.483-229.488,61.508-245.987-46.357s-134.993-70.626-158.992,0
		s-65.231,135.089-124.494,160.362c-51.277,21.868-109.374,14.543-154.477,1.853V980h733.565
		c109.719-118.898,121.846-249.881,131.877-326.363c11.998-91.495,151.492-80.996,145.492,22.498
		c-5.998,103.494,80.996,148.492,196.49,161.992c115.496,13.498,139.492-113.994,56.996-143.992S1145.93,610.139,1208.926,490
		c41.17-78.516,132.635-82.53,191.074-75.889V0h-354.615C970.438,61.166,973.5,156.51,1079.932,212.659z"/>
	<radialGradient id="SVGID_4_" cx="1055.3604" cy="939.0537" r="698.0719" gradientUnits="userSpaceOnUse">
		<stop  offset="0.0673" style="stop-color:#872646"/>
		<stop  offset="0.1144" style="stop-color:#982C4B"/>
		<stop  offset="0.1878" style="stop-color:#B03551"/>
		<stop  offset="0.2684" style="stop-color:#C43D56"/>
		<stop  offset="0.3574" style="stop-color:#D5445A"/>
		<stop  offset="0.4592" style="stop-color:#E2495E"/>
		<stop  offset="0.5852" style="stop-color:#EC4D60"/>
		<stop  offset="0.8077" style="stop-color:#F04E61"/>
	</radialGradient>
	<path fill="url(#SVGID_4_)" d="M1400,980V373.952c-143.078-29.3-245.414,66.394-245.414,164.67
		c0,96.089-62.654,107.516-129.227,40.113c-91.666-92.811-239.414-46.592-266,134.942C740.322,843.674,667.452,920.623,571.757,980
		H1400z"/>
	<g>
		<path fill="#FDB714" d="M935.314,716.884c-0.002,0,0,0-0.002,0c-28.113-0.001-52.68-8.535-65.717-22.829
			c-5.945-6.52-8.889-16.668-8.291-28.575c0.955-18.999,10.852-38.701,26.469-52.703c14.193-12.725,30.734-19.45,47.834-19.45
			c35.119,0,66.566,28.302,74.775,67.295c2.51,11.92,0.043,22.571-7.332,31.66C990.738,707.456,964.781,716.884,935.314,716.884z
			 M935.607,598.326c-15.848,0-31.234,6.284-44.496,18.173c-14.646,13.132-23.922,31.536-24.813,49.231
			c-0.523,10.412,2.025,19.508,6.992,24.955c12.105,13.272,35.291,21.197,62.021,21.198c28,0,52.469-8.719,63.855-22.753
			c6.379-7.861,8.506-17.106,6.322-27.48C997.766,624.958,968.375,598.326,935.607,598.326z"/>
	</g>
	<path fill="#2B0030" d="M359.246,786.055c0.12-60.084,67.114-139,160.114-93.685c62.188,30.302,77,34.554,105,12.119
		s87-19.435,68,66.565c-19,86-86.488,160.385-196,143C389.347,897.066,359.133,843.055,359.246,786.055z"/>
	<g>
		<path fill="#FDB714" d="M275.021,980c67.002-32.475,119.374-76.275,156.017-130.604c18.74-27.781,44.583-41.275,70.901-37.023
			c21.245,3.434,39.591,18.361,44.613,36.301c4.086,14.596,16.846,23.73,33.302,23.84c0.099,0.002,0.197,0.002,0.296,0.002
			c16.096,0,33.329-8.668,48.561-24.436c18.522-19.174,33.373-47.445,44.14-84.033c17.68-60.078,60.989-74.741,95.62-68.422
			c39.313,7.167,78.951,43.494,74.98,96.699c-3.807,51.02-41.693,117.717-103.402,187.676h6.607
			c3.105-3.545,6.158-7.084,9.139-10.611c57.016-67.457,89.051-128.555,92.643-176.693c4.188-56.117-37.613-94.431-79.068-101.989
			c-20.984-3.827-41.992,0.043-59.154,10.895c-19.451,12.299-34.029,33.403-42.161,61.034
			c-10.389,35.301-25.237,63.646-42.939,81.971c-14.282,14.783-30.237,22.91-44.964,22.91c-0.088,0-0.177,0-0.265-0.002
			c-14.132-0.094-25.061-7.828-28.521-20.188c-5.529-19.752-25.527-36.156-48.63-39.889c-28.326-4.576-55.968,9.695-75.844,39.164
			C389.035,902.729,334.093,947.5,263.307,980H275.021z"/>
	</g>
	<path fill="#FFFCDD" d="M0.001,0v638.701c38.909,0.348,94.348-15.559,125.978-76.56c41.998-80.996,31.499-169.492-9-233.988
		c-40.498-64.497-4.889-191.99,96.55-184.491c101.439,7.5,129.938,92.996,122.438,151.493s70.862,69.251,105.276,9.562
		c26.615-46.162,25.481-109.993,14.939-140.056c-19.324-55.106,12.365-94.563,62.775-103.494
		c59.9-10.612,125.993,10.499,188.99,43.497c58,30.381,184.65,20.069,211.402-104.664H0.001z"/>
	<g>
		<path fill="#F04E61" d="M983.607,237.008c-1.904-4.191-4.098-8.8-6.42-13.679C954.836,176.354,914.973,92.548,955.027,0h-5.445
			c-15.643,37.094-20.416,76.405-14.182,117.271c6.709,43.976,24.375,81.1,37.273,108.207c2.311,4.858,4.496,9.448,6.383,13.6
			c11.359,24.979-1.104,49.786-19.287,61.379c-17.354,11.066-44.445,12.918-68.434-15.075
			c-20.436-23.847-65.754-68.964-139.678-103.194c-83.255-38.554-177.334-51.739-279.623-39.196
			c-103.024,12.636-171.58,45.66-203.763,98.158c-31.963,52.14-17.351,107.426-9.585,128.775
			c8.303,22.826,4.221,50.21-10.652,71.465c-14.886,21.274-46.816,46.646-114.393,46.702C86.624,488.131,40.499,505.403,0,538.074
			v6.602c36.745-30.608,82.417-51.541,133.646-51.584c29.039-0.024,54.316-4.778,75.13-14.13
			c18.456-8.292,33.043-19.969,43.355-34.706c15.793-22.57,20.105-51.707,11.255-76.041c-7.519-20.668-21.677-74.17,9.149-124.453
			c31.346-51.134,98.672-83.368,200.108-95.809c247.14-30.313,380.048,100.016,414.896,140.681
			c11.373,13.273,24.803,21.479,38.834,23.729c12.381,1.983,25.195-0.747,36.086-7.69
			C982.459,291.919,996.146,264.582,983.607,237.008z"/>
	</g>
	<g>
		<path fill="#F04E61" d="M137.125,753.338c-14.981,0-28.327-4.227-38.592-12.222c-9.426-7.343-15.708-17.523-17.69-28.667
			c-4.085-22.966,10.303-44.061,36.655-53.741c50.778-18.653,87.524-57.854,103.47-110.38c6.046-19.918,20.384-31.81,38.353-31.81
			c12.667,0,25.412,5.968,34.093,15.965c8.598,9.9,12.299,22.657,10.421,35.922c-10.334,73.019-61.271,146.098-121.114,173.768
			C166.696,749.582,151.355,753.338,137.125,753.338z M259.32,521.519c-15.88,0-28.116,10.301-33.568,28.263
			c-16.412,54.063-54.245,94.413-106.53,113.62c-23.963,8.803-37.096,27.712-33.457,48.173c3.255,18.3,20.398,36.764,51.359,36.764
			c13.5,0,28.135-3.602,43.498-10.704c58.412-27.007,108.148-98.473,118.262-169.93c1.671-11.809-1.612-23.152-9.246-31.942
			C281.893,526.843,270.56,521.519,259.32,521.519z"/>
	</g>
	<path fill="#FDB714" d="M0,66.192v170.32c30.633,3.55,74.479-6.305,96.024-58.876C125.52,105.67,62.106,37.9,0,66.192z"/>
	<g>
		<path fill="#FDB714" d="M316.428,0c-38.534,19.099-67.83,47.092-88.584,84.475c-30.086,54.19-37.771,120.768-42.613,178.918
			c-7.112,85.417-70.52,137.521-131.608,177.223C34.613,452.971,16.729,466.899,0,482.344v6.852
			c17.492-16.526,36.284-31.349,56.347-44.388c26.529-17.241,60.351-40.967,86.646-71.653
			c28.409-33.153,43.854-68.921,47.22-109.347C199.214,155.712,218.44,48.191,328.182,0H316.428z"/>
	</g>
	<path fill="#2B0030" d="M1400,160.604c-52.311,6.064-103.434,30.945-121.107,89.451c-33.533,111,35.467,176,85.467,222
		s4,130-40,150s-145,85-124,171c18.238,74.688,114.914,61.785,199.641-1.486V160.604z"/>
	<radialGradient id="SVGID_5_" cx="1396.417" cy="1022.6191" r="340.3072" gradientUnits="userSpaceOnUse">
		<stop  offset="0.2692" style="stop-color:#D6732A"/>
		<stop  offset="0.5183" style="stop-color:#E69025"/>
		<stop  offset="0.7689" style="stop-color:#F5AB1C"/>
		<stop  offset="0.9038" style="stop-color:#FDB714"/>
	</radialGradient>
	<path fill="url(#SVGID_5_)" d="M1400,430.268c-71.904-12.19-136.881,64.488-69.58,127.374c91.496,85.495,26.998,185.991,0,181.491
		s-41.998-29.998-31.5-74.996c10.5-44.998-37.498-86.996-92.994-49.497c-55.498,37.499-32.998,134.993,20.998,149.321
		c53.998,14.33,35.998,93.666-16.498,107.164c-52.498,13.5-80.996-41.996-89.996-89.994s-113.994-70.496-169.492,0
		c-40.443,51.375-54.584,133.48-19.232,198.869H1400V430.268z"/>
	<path fill="#FFFCDD" d="M1254.271,980H1400V848.611C1301.006,864.236,1265.844,934.961,1254.271,980z"/>
	<path fill="#FDB714" d="M1373.639,0h-6.475c-21.24,24.949-50.918,39.375-82.525,39.374c-1.859,0-3.748-0.05-5.613-0.149
		c-2.5-0.132-4.971-0.199-7.34-0.199c-31.369,0-45.256,11.638-51.381,21.401c-7.994,12.739-7.941,30.327,0.137,47.049
		c12.459,25.784,12.357,54.298-0.264,74.411c-9.352,14.906-24.502,23.116-42.654,23.116c-11.475,0-23.949-3.208-37.078-9.533
		c-26.506-12.771-43.773-31.302-51.318-55.077c-11.15-35.126-1.707-82.306,28.029-140.393h-5.619
		c-29.439,58.285-38.586,105.96-27.176,141.905c7.979,25.139,26.117,44.676,53.914,58.068c13.811,6.655,27.016,10.029,39.248,10.029
		c19.936,0,36.59-9.042,46.891-25.459c13.527-21.559,13.73-51.923,0.529-79.244c-7.326-15.161-7.477-30.943-0.404-42.216
		c8.6-13.704,27.473-20.283,54.221-18.866c1.953,0.104,3.932,0.156,5.879,0.156c0.002,0,0,0,0.002,0
		C1319.09,44.374,1351.32,28.051,1373.639,0z"/>
</g>
</svg>
